G04 (created by PCBNEW (2013-07-07 BZR 4022)-stable) date 2014-07-19 12:08:06*
%MOIN*%
G04 Gerber Fmt 3.4, Leading zero omitted, Abs format*
%FSLAX34Y34*%
G01*
G70*
G90*
G04 APERTURE LIST*
%ADD10C,0.00590551*%
%ADD11C,0.066*%
%ADD12R,0.06X0.06*%
%ADD13C,0.06*%
%ADD14R,0.09X0.062*%
%ADD15O,0.09X0.062*%
%ADD16C,0.16*%
%ADD17R,0.055X0.055*%
%ADD18C,0.055*%
%ADD19R,0.07X0.07*%
%ADD20C,0.07*%
%ADD21R,0.08X0.06*%
%ADD22R,0.06X0.08*%
%ADD23C,0.035*%
%ADD24C,0.0393701*%
G04 APERTURE END LIST*
G54D10*
G54D11*
X24122Y-15748D03*
X23122Y-15748D03*
G54D12*
X30011Y-20850D03*
G54D13*
X31011Y-20850D03*
X30011Y-21850D03*
X31011Y-21850D03*
X30011Y-22850D03*
X31011Y-22850D03*
G54D14*
X22122Y-22366D03*
G54D15*
X22122Y-21366D03*
X22122Y-20366D03*
X22122Y-19366D03*
X25122Y-19366D03*
X25122Y-20366D03*
X25122Y-21366D03*
X25122Y-22366D03*
G54D16*
X27165Y-29527D03*
G54D17*
X27452Y-16838D03*
G54D18*
X28452Y-16838D03*
X28452Y-15838D03*
G54D13*
X21622Y-24212D03*
X25622Y-24212D03*
X18700Y-16307D03*
X18700Y-20307D03*
G54D19*
X24622Y-26771D03*
G54D20*
X22622Y-26771D03*
G54D16*
X20078Y-29527D03*
G54D21*
X27952Y-22381D03*
X27952Y-23681D03*
G54D22*
X29193Y-25393D03*
X27893Y-25393D03*
G54D23*
X28543Y-26574D03*
G54D24*
X29193Y-25393D02*
X29133Y-25393D01*
X29133Y-25393D02*
X31102Y-23425D01*
X31102Y-23425D02*
X31102Y-22834D01*
X31102Y-22834D02*
X31011Y-22850D01*
X28543Y-26574D02*
X29133Y-25984D01*
X29133Y-25984D02*
X29133Y-25393D01*
X29133Y-25393D02*
X29193Y-25393D01*
X22122Y-19366D02*
X22047Y-19291D01*
X22047Y-19291D02*
X22637Y-19291D01*
X22637Y-19291D02*
X22834Y-19488D01*
X22834Y-19488D02*
X23031Y-19488D01*
X23031Y-19488D02*
X23031Y-23228D01*
X23031Y-23228D02*
X22637Y-23622D01*
X22637Y-23622D02*
X22637Y-26771D01*
X22637Y-26771D02*
X22622Y-26771D01*
X23122Y-15748D02*
X23031Y-15748D01*
X23031Y-15748D02*
X22047Y-16732D01*
X22047Y-16732D02*
X22047Y-19291D01*
X22047Y-19291D02*
X22122Y-19366D01*
X22122Y-22366D02*
X21653Y-22834D01*
X21653Y-22834D02*
X21653Y-24212D01*
X21653Y-24212D02*
X21622Y-24212D01*
X27952Y-23681D02*
X27952Y-25393D01*
X27952Y-25393D02*
X27893Y-25393D01*
X25122Y-22366D02*
X27937Y-22366D01*
X27937Y-22366D02*
X27952Y-22381D01*
X24622Y-26771D02*
X24606Y-26771D01*
X24606Y-26771D02*
X27165Y-29330D01*
X27165Y-29330D02*
X27165Y-29527D01*
X27952Y-22381D02*
X27952Y-22440D01*
X27952Y-22440D02*
X29133Y-21259D01*
X29133Y-21259D02*
X29133Y-20078D01*
X29133Y-20078D02*
X30708Y-20078D01*
X30708Y-20078D02*
X31102Y-20472D01*
X31102Y-20472D02*
X31102Y-20866D01*
X31102Y-20866D02*
X31011Y-20850D01*
X27952Y-22381D02*
X27952Y-22440D01*
X27952Y-22440D02*
X27362Y-21850D01*
X27362Y-21850D02*
X27362Y-16929D01*
X27362Y-16929D02*
X27452Y-16838D01*
X24622Y-26771D02*
X24606Y-26771D01*
X24606Y-26771D02*
X25590Y-25787D01*
X25590Y-25787D02*
X25590Y-24212D01*
X25590Y-24212D02*
X25622Y-24212D01*
X25622Y-24212D02*
X25590Y-24212D01*
X25590Y-24212D02*
X25196Y-23818D01*
X25196Y-23818D02*
X25196Y-22440D01*
X25196Y-22440D02*
X25122Y-22366D01*
X27952Y-22440D02*
X27952Y-22381D01*
M02*
