M48
;DRILL file {Pcbnew (2013-07-07 BZR 4022)-stable} date 2014-07-19 12:08:01
;FORMAT={-:-/ absolute / metric / decimal}
FMAT,2
METRIC,TZ
T1C0.635
T2C0.813
T3C1.016
T4C2.000
%
G90
G05
M71
T1
X72.5Y-67.5
T2
X47.5Y-41.42
X47.5Y-51.58
X54.92Y-61.5
X56.19Y-49.19
X56.19Y-51.73
X56.19Y-54.27
X56.19Y-56.81
X58.73Y-40.
X61.27Y-40.
X63.81Y-49.19
X63.81Y-51.73
X63.81Y-54.27
X63.81Y-56.81
X65.08Y-61.5
X69.73Y-42.77
X72.27Y-40.23
X72.27Y-42.77
T3
X57.46Y-68.
X62.54Y-68.
X76.23Y-52.96
X76.23Y-55.5
X76.23Y-58.04
X78.77Y-52.96
X78.77Y-55.5
X78.77Y-58.04
T4
X51.Y-75.
X69.Y-75.
T0
M30
