G04 (created by PCBNEW (2013-07-07 BZR 4022)-stable) date 2014-07-19 12:08:06*
%MOIN*%
G04 Gerber Fmt 3.4, Leading zero omitted, Abs format*
%FSLAX34Y34*%
G01*
G70*
G90*
G04 APERTURE LIST*
%ADD10C,0.00590551*%
%ADD11C,0.066*%
%ADD12R,0.06X0.06*%
%ADD13C,0.06*%
%ADD14R,0.09X0.062*%
%ADD15O,0.09X0.062*%
%ADD16C,0.16*%
%ADD17R,0.055X0.055*%
%ADD18C,0.055*%
%ADD19R,0.07X0.07*%
%ADD20C,0.07*%
%ADD21C,0.035*%
%ADD22C,0.0393701*%
%ADD23C,0.01*%
G04 APERTURE END LIST*
G54D10*
G54D11*
X24122Y-15748D03*
X23122Y-15748D03*
G54D12*
X30011Y-20850D03*
G54D13*
X31011Y-20850D03*
X30011Y-21850D03*
X31011Y-21850D03*
X30011Y-22850D03*
X31011Y-22850D03*
G54D14*
X22122Y-22366D03*
G54D15*
X22122Y-21366D03*
X22122Y-20366D03*
X22122Y-19366D03*
X25122Y-19366D03*
X25122Y-20366D03*
X25122Y-21366D03*
X25122Y-22366D03*
G54D16*
X27165Y-29527D03*
G54D17*
X27452Y-16838D03*
G54D18*
X28452Y-16838D03*
X28452Y-15838D03*
G54D13*
X21622Y-24212D03*
X25622Y-24212D03*
X18700Y-16307D03*
X18700Y-20307D03*
G54D19*
X24622Y-26771D03*
G54D20*
X22622Y-26771D03*
G54D16*
X20078Y-29527D03*
G54D21*
X28543Y-26574D03*
G54D22*
X22622Y-26771D02*
X22637Y-26771D01*
X22637Y-26771D02*
X22637Y-26968D01*
X22637Y-26968D02*
X20078Y-29527D01*
X22622Y-26771D02*
X22637Y-26771D01*
X22637Y-26771D02*
X23425Y-25984D01*
X23425Y-25984D02*
X25393Y-25984D01*
X25393Y-25984D02*
X25984Y-26574D01*
X25984Y-26574D02*
X28543Y-26574D01*
X22122Y-22366D02*
X22244Y-22637D01*
X22244Y-22637D02*
X22834Y-23228D01*
X22834Y-23228D02*
X27559Y-23228D01*
X27559Y-23228D02*
X27952Y-22834D01*
X27952Y-22834D02*
X29921Y-22834D01*
X29921Y-22834D02*
X30011Y-22850D01*
X30011Y-21850D02*
X29921Y-21850D01*
X29921Y-21850D02*
X29724Y-21653D01*
X29724Y-21653D02*
X29133Y-21653D01*
X29133Y-21653D02*
X28937Y-21456D01*
X28937Y-21456D02*
X25196Y-21456D01*
X25196Y-21456D02*
X25122Y-21366D01*
X25122Y-20366D02*
X25196Y-20275D01*
X25196Y-20275D02*
X25393Y-20472D01*
X25393Y-20472D02*
X25984Y-20472D01*
X25984Y-20472D02*
X26181Y-20669D01*
X26181Y-20669D02*
X29133Y-20669D01*
X29133Y-20669D02*
X29330Y-20866D01*
X29330Y-20866D02*
X29921Y-20866D01*
X29921Y-20866D02*
X30011Y-20850D01*
X28452Y-15838D02*
X28543Y-15748D01*
X28543Y-15748D02*
X24122Y-15748D01*
X22122Y-20366D02*
X22047Y-20275D01*
X22047Y-20275D02*
X18700Y-20275D01*
X18700Y-20275D02*
X18700Y-20307D01*
X18700Y-16307D02*
X18700Y-16338D01*
X18700Y-16338D02*
X19881Y-17519D01*
X19881Y-17519D02*
X28149Y-17519D01*
X28149Y-17519D02*
X28149Y-17322D01*
X28149Y-17322D02*
X28543Y-16929D01*
X28543Y-16929D02*
X28452Y-16838D01*
X25122Y-19366D02*
X25393Y-19488D01*
X25393Y-19488D02*
X25984Y-19488D01*
X25984Y-19488D02*
X26181Y-19685D01*
X26181Y-19685D02*
X26771Y-19685D01*
X26771Y-19685D02*
X26968Y-19881D01*
X26968Y-19881D02*
X29921Y-19881D01*
X29921Y-19881D02*
X30118Y-20078D01*
X30118Y-20078D02*
X31496Y-20078D01*
X31496Y-20078D02*
X31692Y-20275D01*
X31692Y-20275D02*
X31692Y-20472D01*
X31692Y-20472D02*
X31889Y-20669D01*
X31889Y-20669D02*
X31889Y-21259D01*
X31889Y-21259D02*
X31299Y-21850D01*
X31299Y-21850D02*
X31011Y-21850D01*
G54D10*
G36*
X32210Y-31226D02*
X31563Y-31226D01*
X31563Y-22823D01*
X31548Y-22716D01*
X31511Y-22615D01*
X31486Y-22567D01*
X31391Y-22540D01*
X31082Y-22850D01*
X31391Y-23159D01*
X31486Y-23133D01*
X31532Y-23035D01*
X31558Y-22931D01*
X31563Y-22823D01*
X31563Y-31226D01*
X31321Y-31226D01*
X31321Y-23230D01*
X31011Y-22921D01*
X30702Y-23230D01*
X30728Y-23325D01*
X30826Y-23371D01*
X30930Y-23397D01*
X31038Y-23402D01*
X31145Y-23386D01*
X31247Y-23350D01*
X31294Y-23325D01*
X31321Y-23230D01*
X31321Y-31226D01*
X28215Y-31226D01*
X28215Y-29424D01*
X28175Y-29222D01*
X28096Y-29032D01*
X27982Y-28860D01*
X27837Y-28714D01*
X27667Y-28599D01*
X27477Y-28519D01*
X27275Y-28478D01*
X27069Y-28476D01*
X26867Y-28515D01*
X26676Y-28592D01*
X26504Y-28705D01*
X26357Y-28849D01*
X26240Y-29019D01*
X26159Y-29208D01*
X26116Y-29409D01*
X26113Y-29615D01*
X26151Y-29818D01*
X26226Y-30009D01*
X26338Y-30182D01*
X26481Y-30331D01*
X26650Y-30448D01*
X26839Y-30531D01*
X27040Y-30575D01*
X27246Y-30579D01*
X27449Y-30543D01*
X27641Y-30469D01*
X27814Y-30358D01*
X27964Y-30216D01*
X28082Y-30048D01*
X28166Y-29860D01*
X28212Y-29659D01*
X28215Y-29424D01*
X28215Y-31226D01*
X25222Y-31226D01*
X25222Y-27098D01*
X25222Y-26397D01*
X25212Y-26349D01*
X25193Y-26303D01*
X25166Y-26262D01*
X25132Y-26228D01*
X25091Y-26200D01*
X25046Y-26181D01*
X24998Y-26171D01*
X24949Y-26171D01*
X24247Y-26171D01*
X24199Y-26181D01*
X24154Y-26199D01*
X24113Y-26226D01*
X24078Y-26261D01*
X24051Y-26302D01*
X24032Y-26347D01*
X24022Y-26395D01*
X24021Y-26444D01*
X24022Y-27146D01*
X24031Y-27194D01*
X24050Y-27239D01*
X24077Y-27280D01*
X24111Y-27315D01*
X24152Y-27342D01*
X24197Y-27361D01*
X24245Y-27371D01*
X24294Y-27371D01*
X24996Y-27371D01*
X25044Y-27362D01*
X25089Y-27343D01*
X25130Y-27316D01*
X25165Y-27281D01*
X25193Y-27241D01*
X25212Y-27195D01*
X25221Y-27147D01*
X25222Y-27098D01*
X25222Y-31226D01*
X23224Y-31226D01*
X23224Y-26746D01*
X23208Y-26630D01*
X23169Y-26519D01*
X23137Y-26458D01*
X23037Y-26426D01*
X22967Y-26497D01*
X22967Y-26355D01*
X22934Y-26256D01*
X22828Y-26205D01*
X22714Y-26175D01*
X22597Y-26169D01*
X22480Y-26185D01*
X22369Y-26224D01*
X22309Y-26256D01*
X22276Y-26355D01*
X22622Y-26700D01*
X22967Y-26355D01*
X22967Y-26497D01*
X22692Y-26771D01*
X23037Y-27116D01*
X23137Y-27084D01*
X23188Y-26978D01*
X23217Y-26864D01*
X23224Y-26746D01*
X23224Y-31226D01*
X22967Y-31226D01*
X22967Y-27187D01*
X22622Y-26842D01*
X22551Y-26913D01*
X22551Y-26771D01*
X22206Y-26426D01*
X22172Y-26437D01*
X22172Y-24158D01*
X22151Y-24052D01*
X22110Y-23953D01*
X22050Y-23863D01*
X21974Y-23786D01*
X21884Y-23726D01*
X21785Y-23684D01*
X21679Y-23662D01*
X21571Y-23662D01*
X21466Y-23682D01*
X21366Y-23722D01*
X21275Y-23781D01*
X21198Y-23857D01*
X21137Y-23946D01*
X21095Y-24045D01*
X21072Y-24150D01*
X21071Y-24258D01*
X21090Y-24364D01*
X21130Y-24465D01*
X21188Y-24555D01*
X21263Y-24633D01*
X21352Y-24695D01*
X21451Y-24738D01*
X21556Y-24761D01*
X21664Y-24763D01*
X21770Y-24744D01*
X21871Y-24705D01*
X21962Y-24648D01*
X22040Y-24573D01*
X22102Y-24485D01*
X22146Y-24387D01*
X22170Y-24281D01*
X22172Y-24158D01*
X22172Y-26437D01*
X22106Y-26458D01*
X22055Y-26565D01*
X22026Y-26678D01*
X22019Y-26796D01*
X22035Y-26912D01*
X22074Y-27024D01*
X22106Y-27084D01*
X22206Y-27116D01*
X22551Y-26771D01*
X22551Y-26913D01*
X22276Y-27187D01*
X22309Y-27287D01*
X22415Y-27338D01*
X22529Y-27367D01*
X22646Y-27374D01*
X22763Y-27357D01*
X22874Y-27319D01*
X22934Y-27287D01*
X22967Y-27187D01*
X22967Y-31226D01*
X21133Y-31226D01*
X21133Y-29521D01*
X21112Y-29316D01*
X21051Y-29120D01*
X20960Y-28948D01*
X20815Y-28861D01*
X20744Y-28932D01*
X20744Y-28791D01*
X20657Y-28645D01*
X20475Y-28549D01*
X20277Y-28491D01*
X20072Y-28472D01*
X19868Y-28493D01*
X19671Y-28554D01*
X19499Y-28645D01*
X19413Y-28791D01*
X20078Y-29456D01*
X20744Y-28791D01*
X20744Y-28932D01*
X20149Y-29527D01*
X20815Y-30193D01*
X20960Y-30106D01*
X21056Y-29924D01*
X21114Y-29726D01*
X21133Y-29521D01*
X21133Y-31226D01*
X20744Y-31226D01*
X20744Y-30263D01*
X20078Y-29598D01*
X20008Y-29668D01*
X20008Y-29527D01*
X19342Y-28861D01*
X19196Y-28948D01*
X19101Y-29130D01*
X19042Y-29328D01*
X19023Y-29533D01*
X19044Y-29738D01*
X19105Y-29934D01*
X19196Y-30106D01*
X19342Y-30193D01*
X20008Y-29527D01*
X20008Y-29668D01*
X19413Y-30263D01*
X19499Y-30409D01*
X19682Y-30505D01*
X19879Y-30563D01*
X20084Y-30582D01*
X20289Y-30561D01*
X20486Y-30500D01*
X20657Y-30409D01*
X20744Y-30263D01*
X20744Y-31226D01*
X16411Y-31226D01*
X16411Y-14246D01*
X32210Y-14246D01*
X32210Y-20358D01*
X32210Y-20357D01*
X32206Y-20354D01*
X32206Y-20354D01*
X32206Y-20354D01*
X32205Y-20353D01*
X32139Y-20287D01*
X32139Y-20275D01*
X32135Y-20234D01*
X32132Y-20193D01*
X32131Y-20191D01*
X32131Y-20188D01*
X32119Y-20149D01*
X32107Y-20109D01*
X32106Y-20107D01*
X32106Y-20105D01*
X32086Y-20068D01*
X32067Y-20032D01*
X32066Y-20030D01*
X32065Y-20028D01*
X32039Y-19996D01*
X32013Y-19964D01*
X32010Y-19960D01*
X32009Y-19960D01*
X32009Y-19960D01*
X32008Y-19959D01*
X31812Y-19762D01*
X31780Y-19736D01*
X31748Y-19710D01*
X31746Y-19708D01*
X31744Y-19707D01*
X31708Y-19687D01*
X31672Y-19668D01*
X31669Y-19667D01*
X31667Y-19666D01*
X31628Y-19654D01*
X31588Y-19641D01*
X31586Y-19641D01*
X31584Y-19640D01*
X31543Y-19636D01*
X31502Y-19631D01*
X31497Y-19631D01*
X31497Y-19631D01*
X31497Y-19631D01*
X31496Y-19631D01*
X30303Y-19631D01*
X30237Y-19565D01*
X30205Y-19539D01*
X30173Y-19513D01*
X30171Y-19512D01*
X30169Y-19510D01*
X30133Y-19491D01*
X30097Y-19471D01*
X30095Y-19470D01*
X30092Y-19469D01*
X30053Y-19457D01*
X30014Y-19444D01*
X30011Y-19444D01*
X30009Y-19443D01*
X29968Y-19439D01*
X29927Y-19435D01*
X29922Y-19435D01*
X29922Y-19435D01*
X29922Y-19435D01*
X29921Y-19435D01*
X28990Y-19435D01*
X28990Y-16930D01*
X28986Y-16888D01*
X28982Y-16846D01*
X28982Y-16845D01*
X28981Y-16843D01*
X28977Y-16827D01*
X28977Y-16787D01*
X28957Y-16686D01*
X28918Y-16590D01*
X28861Y-16505D01*
X28789Y-16432D01*
X28703Y-16374D01*
X28616Y-16338D01*
X28690Y-16309D01*
X28777Y-16254D01*
X28852Y-16183D01*
X28911Y-16099D01*
X28953Y-16005D01*
X28976Y-15904D01*
X28976Y-15851D01*
X28981Y-15837D01*
X28981Y-15837D01*
X28981Y-15836D01*
X28985Y-15793D01*
X28990Y-15751D01*
X28990Y-15750D01*
X28990Y-15749D01*
X28986Y-15706D01*
X28982Y-15664D01*
X28982Y-15663D01*
X28981Y-15662D01*
X28969Y-15621D01*
X28957Y-15580D01*
X28957Y-15579D01*
X28957Y-15579D01*
X28937Y-15541D01*
X28917Y-15503D01*
X28916Y-15502D01*
X28916Y-15502D01*
X28889Y-15468D01*
X28862Y-15435D01*
X28861Y-15434D01*
X28861Y-15434D01*
X28828Y-15406D01*
X28795Y-15379D01*
X28795Y-15378D01*
X28794Y-15378D01*
X28756Y-15357D01*
X28719Y-15337D01*
X28718Y-15337D01*
X28717Y-15336D01*
X28677Y-15323D01*
X28636Y-15310D01*
X28635Y-15310D01*
X28634Y-15310D01*
X28592Y-15306D01*
X28549Y-15301D01*
X28548Y-15301D01*
X28547Y-15301D01*
X28547Y-15301D01*
X28543Y-15301D01*
X24495Y-15301D01*
X24493Y-15298D01*
X24399Y-15235D01*
X24294Y-15191D01*
X24182Y-15168D01*
X24069Y-15167D01*
X23957Y-15188D01*
X23852Y-15231D01*
X23756Y-15293D01*
X23675Y-15373D01*
X23622Y-15450D01*
X23621Y-15447D01*
X23523Y-15417D01*
X23452Y-15487D01*
X23452Y-15346D01*
X23422Y-15248D01*
X23320Y-15199D01*
X23209Y-15171D01*
X23096Y-15165D01*
X22983Y-15181D01*
X22876Y-15219D01*
X22821Y-15248D01*
X22791Y-15346D01*
X23122Y-15677D01*
X23452Y-15346D01*
X23452Y-15487D01*
X23192Y-15748D01*
X23523Y-16078D01*
X23621Y-16048D01*
X23623Y-16044D01*
X23665Y-16110D01*
X23744Y-16191D01*
X23837Y-16256D01*
X23941Y-16302D01*
X24053Y-16326D01*
X24166Y-16329D01*
X24278Y-16309D01*
X24384Y-16268D01*
X24480Y-16207D01*
X24493Y-16194D01*
X28066Y-16194D01*
X28110Y-16240D01*
X28195Y-16299D01*
X28287Y-16339D01*
X28208Y-16371D01*
X28122Y-16427D01*
X28048Y-16499D01*
X27990Y-16584D01*
X27977Y-16614D01*
X27977Y-16539D01*
X27968Y-16490D01*
X27949Y-16445D01*
X27922Y-16404D01*
X27887Y-16370D01*
X27847Y-16342D01*
X27802Y-16323D01*
X27754Y-16313D01*
X27704Y-16313D01*
X27153Y-16313D01*
X27105Y-16323D01*
X27059Y-16341D01*
X27018Y-16368D01*
X26984Y-16403D01*
X26956Y-16444D01*
X26937Y-16489D01*
X26927Y-16537D01*
X26927Y-16586D01*
X26927Y-17072D01*
X23452Y-17072D01*
X23452Y-16149D01*
X23122Y-15818D01*
X23051Y-15889D01*
X23051Y-15748D01*
X22720Y-15417D01*
X22622Y-15447D01*
X22573Y-15549D01*
X22545Y-15660D01*
X22539Y-15773D01*
X22555Y-15886D01*
X22593Y-15993D01*
X22622Y-16048D01*
X22720Y-16078D01*
X23051Y-15748D01*
X23051Y-15889D01*
X22791Y-16149D01*
X22821Y-16247D01*
X22923Y-16296D01*
X23034Y-16324D01*
X23147Y-16330D01*
X23260Y-16314D01*
X23367Y-16276D01*
X23422Y-16247D01*
X23452Y-16149D01*
X23452Y-17072D01*
X20066Y-17072D01*
X19250Y-16256D01*
X19250Y-16253D01*
X19229Y-16147D01*
X19188Y-16047D01*
X19129Y-15957D01*
X19053Y-15881D01*
X18963Y-15820D01*
X18864Y-15779D01*
X18758Y-15757D01*
X18650Y-15756D01*
X18544Y-15776D01*
X18444Y-15817D01*
X18354Y-15876D01*
X18277Y-15951D01*
X18216Y-16040D01*
X18173Y-16139D01*
X18151Y-16245D01*
X18150Y-16353D01*
X18169Y-16459D01*
X18209Y-16559D01*
X18267Y-16650D01*
X18342Y-16727D01*
X18431Y-16789D01*
X18530Y-16832D01*
X18572Y-16841D01*
X19565Y-17835D01*
X19597Y-17861D01*
X19629Y-17888D01*
X19631Y-17889D01*
X19633Y-17891D01*
X19669Y-17910D01*
X19705Y-17930D01*
X19708Y-17931D01*
X19710Y-17932D01*
X19749Y-17944D01*
X19788Y-17956D01*
X19791Y-17957D01*
X19793Y-17957D01*
X19834Y-17961D01*
X19875Y-17966D01*
X19880Y-17966D01*
X19880Y-17966D01*
X19880Y-17966D01*
X19881Y-17966D01*
X28149Y-17966D01*
X28191Y-17962D01*
X28233Y-17958D01*
X28234Y-17958D01*
X28236Y-17958D01*
X28276Y-17945D01*
X28316Y-17933D01*
X28318Y-17933D01*
X28319Y-17932D01*
X28357Y-17913D01*
X28394Y-17893D01*
X28395Y-17892D01*
X28396Y-17891D01*
X28429Y-17865D01*
X28462Y-17838D01*
X28463Y-17837D01*
X28464Y-17836D01*
X28491Y-17804D01*
X28518Y-17772D01*
X28519Y-17770D01*
X28520Y-17769D01*
X28540Y-17732D01*
X28560Y-17695D01*
X28560Y-17694D01*
X28561Y-17692D01*
X28573Y-17652D01*
X28586Y-17612D01*
X28586Y-17611D01*
X28587Y-17609D01*
X28591Y-17567D01*
X28596Y-17525D01*
X28596Y-17522D01*
X28596Y-17522D01*
X28596Y-17522D01*
X28596Y-17519D01*
X28596Y-17507D01*
X28859Y-17245D01*
X28886Y-17212D01*
X28912Y-17180D01*
X28913Y-17178D01*
X28914Y-17177D01*
X28934Y-17140D01*
X28954Y-17103D01*
X28955Y-17102D01*
X28955Y-17100D01*
X28968Y-17060D01*
X28980Y-17020D01*
X28980Y-17018D01*
X28981Y-17017D01*
X28985Y-16975D01*
X28990Y-16933D01*
X28989Y-16932D01*
X28990Y-16930D01*
X28990Y-19435D01*
X27153Y-19435D01*
X27087Y-19369D01*
X27055Y-19342D01*
X27024Y-19316D01*
X27022Y-19315D01*
X27020Y-19313D01*
X26983Y-19294D01*
X26947Y-19274D01*
X26945Y-19273D01*
X26943Y-19272D01*
X26903Y-19260D01*
X26864Y-19247D01*
X26862Y-19247D01*
X26859Y-19247D01*
X26818Y-19242D01*
X26777Y-19238D01*
X26773Y-19238D01*
X26773Y-19238D01*
X26773Y-19238D01*
X26771Y-19238D01*
X26366Y-19238D01*
X26300Y-19172D01*
X26268Y-19146D01*
X26236Y-19119D01*
X26234Y-19118D01*
X26232Y-19116D01*
X26196Y-19097D01*
X26160Y-19077D01*
X26158Y-19076D01*
X26155Y-19075D01*
X26116Y-19063D01*
X26077Y-19051D01*
X26074Y-19050D01*
X26072Y-19050D01*
X26031Y-19045D01*
X25990Y-19041D01*
X25985Y-19041D01*
X25985Y-19041D01*
X25985Y-19041D01*
X25984Y-19041D01*
X25719Y-19041D01*
X25665Y-18974D01*
X25581Y-18904D01*
X25486Y-18851D01*
X25381Y-18818D01*
X25273Y-18806D01*
X25265Y-18806D01*
X24978Y-18806D01*
X24869Y-18816D01*
X24765Y-18848D01*
X24668Y-18899D01*
X24584Y-18968D01*
X24514Y-19052D01*
X24462Y-19149D01*
X24430Y-19253D01*
X24418Y-19362D01*
X24428Y-19471D01*
X24459Y-19575D01*
X24510Y-19672D01*
X24578Y-19757D01*
X24662Y-19828D01*
X24731Y-19866D01*
X24668Y-19899D01*
X24584Y-19968D01*
X24514Y-20052D01*
X24462Y-20149D01*
X24430Y-20253D01*
X24418Y-20362D01*
X24428Y-20471D01*
X24459Y-20575D01*
X24510Y-20672D01*
X24578Y-20757D01*
X24662Y-20828D01*
X24731Y-20866D01*
X24668Y-20899D01*
X24584Y-20968D01*
X24514Y-21052D01*
X24462Y-21149D01*
X24430Y-21253D01*
X24418Y-21362D01*
X24428Y-21471D01*
X24459Y-21575D01*
X24510Y-21672D01*
X24578Y-21757D01*
X24662Y-21828D01*
X24731Y-21866D01*
X24668Y-21899D01*
X24584Y-21968D01*
X24514Y-22052D01*
X24462Y-22149D01*
X24430Y-22253D01*
X24418Y-22362D01*
X24428Y-22471D01*
X24459Y-22575D01*
X24510Y-22672D01*
X24578Y-22757D01*
X24606Y-22781D01*
X23019Y-22781D01*
X22822Y-22583D01*
X22822Y-22031D01*
X22812Y-21983D01*
X22793Y-21938D01*
X22766Y-21897D01*
X22732Y-21862D01*
X22691Y-21835D01*
X22646Y-21816D01*
X22605Y-21807D01*
X22660Y-21763D01*
X22729Y-21679D01*
X22781Y-21583D01*
X22813Y-21478D01*
X22825Y-21370D01*
X22815Y-21261D01*
X22784Y-21156D01*
X22734Y-21059D01*
X22665Y-20974D01*
X22581Y-20904D01*
X22512Y-20865D01*
X22575Y-20832D01*
X22660Y-20763D01*
X22729Y-20679D01*
X22781Y-20583D01*
X22813Y-20478D01*
X22825Y-20370D01*
X22815Y-20261D01*
X22784Y-20156D01*
X22734Y-20059D01*
X22665Y-19974D01*
X22581Y-19904D01*
X22515Y-19867D01*
X22521Y-19864D01*
X22613Y-19804D01*
X22692Y-19728D01*
X22754Y-19637D01*
X22797Y-19537D01*
X22805Y-19502D01*
X22805Y-19229D01*
X22797Y-19195D01*
X22754Y-19094D01*
X22692Y-19004D01*
X22613Y-18927D01*
X22521Y-18867D01*
X22419Y-18826D01*
X22312Y-18806D01*
X22172Y-18806D01*
X22172Y-19316D01*
X22757Y-19316D01*
X22805Y-19229D01*
X22805Y-19502D01*
X22757Y-19416D01*
X22172Y-19416D01*
X22172Y-19424D01*
X22072Y-19424D01*
X22072Y-19416D01*
X22072Y-19316D01*
X22072Y-18806D01*
X21932Y-18806D01*
X21824Y-18826D01*
X21722Y-18867D01*
X21630Y-18927D01*
X21551Y-19004D01*
X21489Y-19094D01*
X21446Y-19195D01*
X21438Y-19229D01*
X21487Y-19316D01*
X22072Y-19316D01*
X22072Y-19416D01*
X21487Y-19416D01*
X21438Y-19502D01*
X21446Y-19537D01*
X21489Y-19637D01*
X21551Y-19728D01*
X21630Y-19804D01*
X21667Y-19828D01*
X18975Y-19828D01*
X18963Y-19820D01*
X18864Y-19779D01*
X18758Y-19757D01*
X18650Y-19756D01*
X18544Y-19776D01*
X18444Y-19817D01*
X18354Y-19876D01*
X18277Y-19951D01*
X18216Y-20040D01*
X18173Y-20139D01*
X18151Y-20245D01*
X18150Y-20353D01*
X18169Y-20459D01*
X18209Y-20559D01*
X18267Y-20650D01*
X18342Y-20727D01*
X18431Y-20789D01*
X18530Y-20832D01*
X18635Y-20855D01*
X18743Y-20858D01*
X18849Y-20839D01*
X18949Y-20800D01*
X19041Y-20742D01*
X19062Y-20722D01*
X21550Y-20722D01*
X21578Y-20757D01*
X21662Y-20828D01*
X21731Y-20866D01*
X21668Y-20899D01*
X21584Y-20968D01*
X21514Y-21052D01*
X21462Y-21149D01*
X21430Y-21253D01*
X21418Y-21362D01*
X21428Y-21471D01*
X21459Y-21575D01*
X21510Y-21672D01*
X21578Y-21757D01*
X21638Y-21807D01*
X21599Y-21815D01*
X21554Y-21834D01*
X21513Y-21861D01*
X21478Y-21896D01*
X21451Y-21936D01*
X21432Y-21981D01*
X21422Y-22029D01*
X21421Y-22078D01*
X21422Y-22700D01*
X21431Y-22748D01*
X21450Y-22794D01*
X21477Y-22834D01*
X21511Y-22869D01*
X21552Y-22897D01*
X21597Y-22916D01*
X21645Y-22925D01*
X21694Y-22926D01*
X21905Y-22926D01*
X21923Y-22949D01*
X21928Y-22953D01*
X22518Y-23544D01*
X22550Y-23570D01*
X22582Y-23597D01*
X22584Y-23598D01*
X22586Y-23599D01*
X22622Y-23619D01*
X22658Y-23639D01*
X22660Y-23639D01*
X22662Y-23640D01*
X22702Y-23652D01*
X22741Y-23665D01*
X22744Y-23665D01*
X22746Y-23666D01*
X22787Y-23670D01*
X22828Y-23675D01*
X22832Y-23675D01*
X22833Y-23675D01*
X22833Y-23675D01*
X22834Y-23675D01*
X25503Y-23675D01*
X25466Y-23682D01*
X25366Y-23722D01*
X25275Y-23781D01*
X25198Y-23857D01*
X25137Y-23946D01*
X25095Y-24045D01*
X25072Y-24150D01*
X25071Y-24258D01*
X25090Y-24364D01*
X25130Y-24465D01*
X25188Y-24555D01*
X25263Y-24633D01*
X25352Y-24695D01*
X25451Y-24738D01*
X25556Y-24761D01*
X25664Y-24763D01*
X25770Y-24744D01*
X25871Y-24705D01*
X25962Y-24648D01*
X26040Y-24573D01*
X26102Y-24485D01*
X26146Y-24387D01*
X26170Y-24281D01*
X26172Y-24158D01*
X26151Y-24052D01*
X26110Y-23953D01*
X26050Y-23863D01*
X25974Y-23786D01*
X25884Y-23726D01*
X25785Y-23684D01*
X25739Y-23675D01*
X27559Y-23675D01*
X27600Y-23671D01*
X27641Y-23667D01*
X27643Y-23666D01*
X27645Y-23666D01*
X27685Y-23654D01*
X27725Y-23643D01*
X27727Y-23642D01*
X27729Y-23641D01*
X27765Y-23622D01*
X27802Y-23603D01*
X27804Y-23601D01*
X27806Y-23600D01*
X27838Y-23574D01*
X27870Y-23548D01*
X27873Y-23545D01*
X27873Y-23545D01*
X27873Y-23545D01*
X27875Y-23544D01*
X28137Y-23281D01*
X29668Y-23281D01*
X29742Y-23332D01*
X29841Y-23376D01*
X29946Y-23399D01*
X30054Y-23401D01*
X30160Y-23382D01*
X30260Y-23343D01*
X30352Y-23285D01*
X30430Y-23211D01*
X30492Y-23123D01*
X30510Y-23082D01*
X30511Y-23085D01*
X30537Y-23133D01*
X30631Y-23159D01*
X30941Y-22850D01*
X30631Y-22540D01*
X30537Y-22567D01*
X30512Y-22620D01*
X30499Y-22590D01*
X30440Y-22501D01*
X30364Y-22424D01*
X30274Y-22364D01*
X30242Y-22350D01*
X30260Y-22343D01*
X30352Y-22285D01*
X30430Y-22211D01*
X30492Y-22123D01*
X30511Y-22080D01*
X30520Y-22103D01*
X30578Y-22193D01*
X30653Y-22271D01*
X30742Y-22332D01*
X30779Y-22349D01*
X30776Y-22350D01*
X30728Y-22375D01*
X30702Y-22470D01*
X31011Y-22779D01*
X31321Y-22470D01*
X31294Y-22375D01*
X31242Y-22350D01*
X31260Y-22343D01*
X31340Y-22293D01*
X31381Y-22289D01*
X31383Y-22288D01*
X31386Y-22288D01*
X31425Y-22276D01*
X31465Y-22265D01*
X31467Y-22264D01*
X31469Y-22263D01*
X31505Y-22244D01*
X31542Y-22225D01*
X31544Y-22223D01*
X31546Y-22222D01*
X31578Y-22196D01*
X31610Y-22170D01*
X31614Y-22167D01*
X31614Y-22167D01*
X31614Y-22167D01*
X31615Y-22166D01*
X32205Y-21575D01*
X32210Y-21569D01*
X32210Y-31226D01*
X32210Y-31226D01*
G37*
G54D23*
X32210Y-31226D02*
X31563Y-31226D01*
X31563Y-22823D01*
X31548Y-22716D01*
X31511Y-22615D01*
X31486Y-22567D01*
X31391Y-22540D01*
X31082Y-22850D01*
X31391Y-23159D01*
X31486Y-23133D01*
X31532Y-23035D01*
X31558Y-22931D01*
X31563Y-22823D01*
X31563Y-31226D01*
X31321Y-31226D01*
X31321Y-23230D01*
X31011Y-22921D01*
X30702Y-23230D01*
X30728Y-23325D01*
X30826Y-23371D01*
X30930Y-23397D01*
X31038Y-23402D01*
X31145Y-23386D01*
X31247Y-23350D01*
X31294Y-23325D01*
X31321Y-23230D01*
X31321Y-31226D01*
X28215Y-31226D01*
X28215Y-29424D01*
X28175Y-29222D01*
X28096Y-29032D01*
X27982Y-28860D01*
X27837Y-28714D01*
X27667Y-28599D01*
X27477Y-28519D01*
X27275Y-28478D01*
X27069Y-28476D01*
X26867Y-28515D01*
X26676Y-28592D01*
X26504Y-28705D01*
X26357Y-28849D01*
X26240Y-29019D01*
X26159Y-29208D01*
X26116Y-29409D01*
X26113Y-29615D01*
X26151Y-29818D01*
X26226Y-30009D01*
X26338Y-30182D01*
X26481Y-30331D01*
X26650Y-30448D01*
X26839Y-30531D01*
X27040Y-30575D01*
X27246Y-30579D01*
X27449Y-30543D01*
X27641Y-30469D01*
X27814Y-30358D01*
X27964Y-30216D01*
X28082Y-30048D01*
X28166Y-29860D01*
X28212Y-29659D01*
X28215Y-29424D01*
X28215Y-31226D01*
X25222Y-31226D01*
X25222Y-27098D01*
X25222Y-26397D01*
X25212Y-26349D01*
X25193Y-26303D01*
X25166Y-26262D01*
X25132Y-26228D01*
X25091Y-26200D01*
X25046Y-26181D01*
X24998Y-26171D01*
X24949Y-26171D01*
X24247Y-26171D01*
X24199Y-26181D01*
X24154Y-26199D01*
X24113Y-26226D01*
X24078Y-26261D01*
X24051Y-26302D01*
X24032Y-26347D01*
X24022Y-26395D01*
X24021Y-26444D01*
X24022Y-27146D01*
X24031Y-27194D01*
X24050Y-27239D01*
X24077Y-27280D01*
X24111Y-27315D01*
X24152Y-27342D01*
X24197Y-27361D01*
X24245Y-27371D01*
X24294Y-27371D01*
X24996Y-27371D01*
X25044Y-27362D01*
X25089Y-27343D01*
X25130Y-27316D01*
X25165Y-27281D01*
X25193Y-27241D01*
X25212Y-27195D01*
X25221Y-27147D01*
X25222Y-27098D01*
X25222Y-31226D01*
X23224Y-31226D01*
X23224Y-26746D01*
X23208Y-26630D01*
X23169Y-26519D01*
X23137Y-26458D01*
X23037Y-26426D01*
X22967Y-26497D01*
X22967Y-26355D01*
X22934Y-26256D01*
X22828Y-26205D01*
X22714Y-26175D01*
X22597Y-26169D01*
X22480Y-26185D01*
X22369Y-26224D01*
X22309Y-26256D01*
X22276Y-26355D01*
X22622Y-26700D01*
X22967Y-26355D01*
X22967Y-26497D01*
X22692Y-26771D01*
X23037Y-27116D01*
X23137Y-27084D01*
X23188Y-26978D01*
X23217Y-26864D01*
X23224Y-26746D01*
X23224Y-31226D01*
X22967Y-31226D01*
X22967Y-27187D01*
X22622Y-26842D01*
X22551Y-26913D01*
X22551Y-26771D01*
X22206Y-26426D01*
X22172Y-26437D01*
X22172Y-24158D01*
X22151Y-24052D01*
X22110Y-23953D01*
X22050Y-23863D01*
X21974Y-23786D01*
X21884Y-23726D01*
X21785Y-23684D01*
X21679Y-23662D01*
X21571Y-23662D01*
X21466Y-23682D01*
X21366Y-23722D01*
X21275Y-23781D01*
X21198Y-23857D01*
X21137Y-23946D01*
X21095Y-24045D01*
X21072Y-24150D01*
X21071Y-24258D01*
X21090Y-24364D01*
X21130Y-24465D01*
X21188Y-24555D01*
X21263Y-24633D01*
X21352Y-24695D01*
X21451Y-24738D01*
X21556Y-24761D01*
X21664Y-24763D01*
X21770Y-24744D01*
X21871Y-24705D01*
X21962Y-24648D01*
X22040Y-24573D01*
X22102Y-24485D01*
X22146Y-24387D01*
X22170Y-24281D01*
X22172Y-24158D01*
X22172Y-26437D01*
X22106Y-26458D01*
X22055Y-26565D01*
X22026Y-26678D01*
X22019Y-26796D01*
X22035Y-26912D01*
X22074Y-27024D01*
X22106Y-27084D01*
X22206Y-27116D01*
X22551Y-26771D01*
X22551Y-26913D01*
X22276Y-27187D01*
X22309Y-27287D01*
X22415Y-27338D01*
X22529Y-27367D01*
X22646Y-27374D01*
X22763Y-27357D01*
X22874Y-27319D01*
X22934Y-27287D01*
X22967Y-27187D01*
X22967Y-31226D01*
X21133Y-31226D01*
X21133Y-29521D01*
X21112Y-29316D01*
X21051Y-29120D01*
X20960Y-28948D01*
X20815Y-28861D01*
X20744Y-28932D01*
X20744Y-28791D01*
X20657Y-28645D01*
X20475Y-28549D01*
X20277Y-28491D01*
X20072Y-28472D01*
X19868Y-28493D01*
X19671Y-28554D01*
X19499Y-28645D01*
X19413Y-28791D01*
X20078Y-29456D01*
X20744Y-28791D01*
X20744Y-28932D01*
X20149Y-29527D01*
X20815Y-30193D01*
X20960Y-30106D01*
X21056Y-29924D01*
X21114Y-29726D01*
X21133Y-29521D01*
X21133Y-31226D01*
X20744Y-31226D01*
X20744Y-30263D01*
X20078Y-29598D01*
X20008Y-29668D01*
X20008Y-29527D01*
X19342Y-28861D01*
X19196Y-28948D01*
X19101Y-29130D01*
X19042Y-29328D01*
X19023Y-29533D01*
X19044Y-29738D01*
X19105Y-29934D01*
X19196Y-30106D01*
X19342Y-30193D01*
X20008Y-29527D01*
X20008Y-29668D01*
X19413Y-30263D01*
X19499Y-30409D01*
X19682Y-30505D01*
X19879Y-30563D01*
X20084Y-30582D01*
X20289Y-30561D01*
X20486Y-30500D01*
X20657Y-30409D01*
X20744Y-30263D01*
X20744Y-31226D01*
X16411Y-31226D01*
X16411Y-14246D01*
X32210Y-14246D01*
X32210Y-20358D01*
X32210Y-20357D01*
X32206Y-20354D01*
X32206Y-20354D01*
X32206Y-20354D01*
X32205Y-20353D01*
X32139Y-20287D01*
X32139Y-20275D01*
X32135Y-20234D01*
X32132Y-20193D01*
X32131Y-20191D01*
X32131Y-20188D01*
X32119Y-20149D01*
X32107Y-20109D01*
X32106Y-20107D01*
X32106Y-20105D01*
X32086Y-20068D01*
X32067Y-20032D01*
X32066Y-20030D01*
X32065Y-20028D01*
X32039Y-19996D01*
X32013Y-19964D01*
X32010Y-19960D01*
X32009Y-19960D01*
X32009Y-19960D01*
X32008Y-19959D01*
X31812Y-19762D01*
X31780Y-19736D01*
X31748Y-19710D01*
X31746Y-19708D01*
X31744Y-19707D01*
X31708Y-19687D01*
X31672Y-19668D01*
X31669Y-19667D01*
X31667Y-19666D01*
X31628Y-19654D01*
X31588Y-19641D01*
X31586Y-19641D01*
X31584Y-19640D01*
X31543Y-19636D01*
X31502Y-19631D01*
X31497Y-19631D01*
X31497Y-19631D01*
X31497Y-19631D01*
X31496Y-19631D01*
X30303Y-19631D01*
X30237Y-19565D01*
X30205Y-19539D01*
X30173Y-19513D01*
X30171Y-19512D01*
X30169Y-19510D01*
X30133Y-19491D01*
X30097Y-19471D01*
X30095Y-19470D01*
X30092Y-19469D01*
X30053Y-19457D01*
X30014Y-19444D01*
X30011Y-19444D01*
X30009Y-19443D01*
X29968Y-19439D01*
X29927Y-19435D01*
X29922Y-19435D01*
X29922Y-19435D01*
X29922Y-19435D01*
X29921Y-19435D01*
X28990Y-19435D01*
X28990Y-16930D01*
X28986Y-16888D01*
X28982Y-16846D01*
X28982Y-16845D01*
X28981Y-16843D01*
X28977Y-16827D01*
X28977Y-16787D01*
X28957Y-16686D01*
X28918Y-16590D01*
X28861Y-16505D01*
X28789Y-16432D01*
X28703Y-16374D01*
X28616Y-16338D01*
X28690Y-16309D01*
X28777Y-16254D01*
X28852Y-16183D01*
X28911Y-16099D01*
X28953Y-16005D01*
X28976Y-15904D01*
X28976Y-15851D01*
X28981Y-15837D01*
X28981Y-15837D01*
X28981Y-15836D01*
X28985Y-15793D01*
X28990Y-15751D01*
X28990Y-15750D01*
X28990Y-15749D01*
X28986Y-15706D01*
X28982Y-15664D01*
X28982Y-15663D01*
X28981Y-15662D01*
X28969Y-15621D01*
X28957Y-15580D01*
X28957Y-15579D01*
X28957Y-15579D01*
X28937Y-15541D01*
X28917Y-15503D01*
X28916Y-15502D01*
X28916Y-15502D01*
X28889Y-15468D01*
X28862Y-15435D01*
X28861Y-15434D01*
X28861Y-15434D01*
X28828Y-15406D01*
X28795Y-15379D01*
X28795Y-15378D01*
X28794Y-15378D01*
X28756Y-15357D01*
X28719Y-15337D01*
X28718Y-15337D01*
X28717Y-15336D01*
X28677Y-15323D01*
X28636Y-15310D01*
X28635Y-15310D01*
X28634Y-15310D01*
X28592Y-15306D01*
X28549Y-15301D01*
X28548Y-15301D01*
X28547Y-15301D01*
X28547Y-15301D01*
X28543Y-15301D01*
X24495Y-15301D01*
X24493Y-15298D01*
X24399Y-15235D01*
X24294Y-15191D01*
X24182Y-15168D01*
X24069Y-15167D01*
X23957Y-15188D01*
X23852Y-15231D01*
X23756Y-15293D01*
X23675Y-15373D01*
X23622Y-15450D01*
X23621Y-15447D01*
X23523Y-15417D01*
X23452Y-15487D01*
X23452Y-15346D01*
X23422Y-15248D01*
X23320Y-15199D01*
X23209Y-15171D01*
X23096Y-15165D01*
X22983Y-15181D01*
X22876Y-15219D01*
X22821Y-15248D01*
X22791Y-15346D01*
X23122Y-15677D01*
X23452Y-15346D01*
X23452Y-15487D01*
X23192Y-15748D01*
X23523Y-16078D01*
X23621Y-16048D01*
X23623Y-16044D01*
X23665Y-16110D01*
X23744Y-16191D01*
X23837Y-16256D01*
X23941Y-16302D01*
X24053Y-16326D01*
X24166Y-16329D01*
X24278Y-16309D01*
X24384Y-16268D01*
X24480Y-16207D01*
X24493Y-16194D01*
X28066Y-16194D01*
X28110Y-16240D01*
X28195Y-16299D01*
X28287Y-16339D01*
X28208Y-16371D01*
X28122Y-16427D01*
X28048Y-16499D01*
X27990Y-16584D01*
X27977Y-16614D01*
X27977Y-16539D01*
X27968Y-16490D01*
X27949Y-16445D01*
X27922Y-16404D01*
X27887Y-16370D01*
X27847Y-16342D01*
X27802Y-16323D01*
X27754Y-16313D01*
X27704Y-16313D01*
X27153Y-16313D01*
X27105Y-16323D01*
X27059Y-16341D01*
X27018Y-16368D01*
X26984Y-16403D01*
X26956Y-16444D01*
X26937Y-16489D01*
X26927Y-16537D01*
X26927Y-16586D01*
X26927Y-17072D01*
X23452Y-17072D01*
X23452Y-16149D01*
X23122Y-15818D01*
X23051Y-15889D01*
X23051Y-15748D01*
X22720Y-15417D01*
X22622Y-15447D01*
X22573Y-15549D01*
X22545Y-15660D01*
X22539Y-15773D01*
X22555Y-15886D01*
X22593Y-15993D01*
X22622Y-16048D01*
X22720Y-16078D01*
X23051Y-15748D01*
X23051Y-15889D01*
X22791Y-16149D01*
X22821Y-16247D01*
X22923Y-16296D01*
X23034Y-16324D01*
X23147Y-16330D01*
X23260Y-16314D01*
X23367Y-16276D01*
X23422Y-16247D01*
X23452Y-16149D01*
X23452Y-17072D01*
X20066Y-17072D01*
X19250Y-16256D01*
X19250Y-16253D01*
X19229Y-16147D01*
X19188Y-16047D01*
X19129Y-15957D01*
X19053Y-15881D01*
X18963Y-15820D01*
X18864Y-15779D01*
X18758Y-15757D01*
X18650Y-15756D01*
X18544Y-15776D01*
X18444Y-15817D01*
X18354Y-15876D01*
X18277Y-15951D01*
X18216Y-16040D01*
X18173Y-16139D01*
X18151Y-16245D01*
X18150Y-16353D01*
X18169Y-16459D01*
X18209Y-16559D01*
X18267Y-16650D01*
X18342Y-16727D01*
X18431Y-16789D01*
X18530Y-16832D01*
X18572Y-16841D01*
X19565Y-17835D01*
X19597Y-17861D01*
X19629Y-17888D01*
X19631Y-17889D01*
X19633Y-17891D01*
X19669Y-17910D01*
X19705Y-17930D01*
X19708Y-17931D01*
X19710Y-17932D01*
X19749Y-17944D01*
X19788Y-17956D01*
X19791Y-17957D01*
X19793Y-17957D01*
X19834Y-17961D01*
X19875Y-17966D01*
X19880Y-17966D01*
X19880Y-17966D01*
X19880Y-17966D01*
X19881Y-17966D01*
X28149Y-17966D01*
X28191Y-17962D01*
X28233Y-17958D01*
X28234Y-17958D01*
X28236Y-17958D01*
X28276Y-17945D01*
X28316Y-17933D01*
X28318Y-17933D01*
X28319Y-17932D01*
X28357Y-17913D01*
X28394Y-17893D01*
X28395Y-17892D01*
X28396Y-17891D01*
X28429Y-17865D01*
X28462Y-17838D01*
X28463Y-17837D01*
X28464Y-17836D01*
X28491Y-17804D01*
X28518Y-17772D01*
X28519Y-17770D01*
X28520Y-17769D01*
X28540Y-17732D01*
X28560Y-17695D01*
X28560Y-17694D01*
X28561Y-17692D01*
X28573Y-17652D01*
X28586Y-17612D01*
X28586Y-17611D01*
X28587Y-17609D01*
X28591Y-17567D01*
X28596Y-17525D01*
X28596Y-17522D01*
X28596Y-17522D01*
X28596Y-17522D01*
X28596Y-17519D01*
X28596Y-17507D01*
X28859Y-17245D01*
X28886Y-17212D01*
X28912Y-17180D01*
X28913Y-17178D01*
X28914Y-17177D01*
X28934Y-17140D01*
X28954Y-17103D01*
X28955Y-17102D01*
X28955Y-17100D01*
X28968Y-17060D01*
X28980Y-17020D01*
X28980Y-17018D01*
X28981Y-17017D01*
X28985Y-16975D01*
X28990Y-16933D01*
X28989Y-16932D01*
X28990Y-16930D01*
X28990Y-19435D01*
X27153Y-19435D01*
X27087Y-19369D01*
X27055Y-19342D01*
X27024Y-19316D01*
X27022Y-19315D01*
X27020Y-19313D01*
X26983Y-19294D01*
X26947Y-19274D01*
X26945Y-19273D01*
X26943Y-19272D01*
X26903Y-19260D01*
X26864Y-19247D01*
X26862Y-19247D01*
X26859Y-19247D01*
X26818Y-19242D01*
X26777Y-19238D01*
X26773Y-19238D01*
X26773Y-19238D01*
X26773Y-19238D01*
X26771Y-19238D01*
X26366Y-19238D01*
X26300Y-19172D01*
X26268Y-19146D01*
X26236Y-19119D01*
X26234Y-19118D01*
X26232Y-19116D01*
X26196Y-19097D01*
X26160Y-19077D01*
X26158Y-19076D01*
X26155Y-19075D01*
X26116Y-19063D01*
X26077Y-19051D01*
X26074Y-19050D01*
X26072Y-19050D01*
X26031Y-19045D01*
X25990Y-19041D01*
X25985Y-19041D01*
X25985Y-19041D01*
X25985Y-19041D01*
X25984Y-19041D01*
X25719Y-19041D01*
X25665Y-18974D01*
X25581Y-18904D01*
X25486Y-18851D01*
X25381Y-18818D01*
X25273Y-18806D01*
X25265Y-18806D01*
X24978Y-18806D01*
X24869Y-18816D01*
X24765Y-18848D01*
X24668Y-18899D01*
X24584Y-18968D01*
X24514Y-19052D01*
X24462Y-19149D01*
X24430Y-19253D01*
X24418Y-19362D01*
X24428Y-19471D01*
X24459Y-19575D01*
X24510Y-19672D01*
X24578Y-19757D01*
X24662Y-19828D01*
X24731Y-19866D01*
X24668Y-19899D01*
X24584Y-19968D01*
X24514Y-20052D01*
X24462Y-20149D01*
X24430Y-20253D01*
X24418Y-20362D01*
X24428Y-20471D01*
X24459Y-20575D01*
X24510Y-20672D01*
X24578Y-20757D01*
X24662Y-20828D01*
X24731Y-20866D01*
X24668Y-20899D01*
X24584Y-20968D01*
X24514Y-21052D01*
X24462Y-21149D01*
X24430Y-21253D01*
X24418Y-21362D01*
X24428Y-21471D01*
X24459Y-21575D01*
X24510Y-21672D01*
X24578Y-21757D01*
X24662Y-21828D01*
X24731Y-21866D01*
X24668Y-21899D01*
X24584Y-21968D01*
X24514Y-22052D01*
X24462Y-22149D01*
X24430Y-22253D01*
X24418Y-22362D01*
X24428Y-22471D01*
X24459Y-22575D01*
X24510Y-22672D01*
X24578Y-22757D01*
X24606Y-22781D01*
X23019Y-22781D01*
X22822Y-22583D01*
X22822Y-22031D01*
X22812Y-21983D01*
X22793Y-21938D01*
X22766Y-21897D01*
X22732Y-21862D01*
X22691Y-21835D01*
X22646Y-21816D01*
X22605Y-21807D01*
X22660Y-21763D01*
X22729Y-21679D01*
X22781Y-21583D01*
X22813Y-21478D01*
X22825Y-21370D01*
X22815Y-21261D01*
X22784Y-21156D01*
X22734Y-21059D01*
X22665Y-20974D01*
X22581Y-20904D01*
X22512Y-20865D01*
X22575Y-20832D01*
X22660Y-20763D01*
X22729Y-20679D01*
X22781Y-20583D01*
X22813Y-20478D01*
X22825Y-20370D01*
X22815Y-20261D01*
X22784Y-20156D01*
X22734Y-20059D01*
X22665Y-19974D01*
X22581Y-19904D01*
X22515Y-19867D01*
X22521Y-19864D01*
X22613Y-19804D01*
X22692Y-19728D01*
X22754Y-19637D01*
X22797Y-19537D01*
X22805Y-19502D01*
X22805Y-19229D01*
X22797Y-19195D01*
X22754Y-19094D01*
X22692Y-19004D01*
X22613Y-18927D01*
X22521Y-18867D01*
X22419Y-18826D01*
X22312Y-18806D01*
X22172Y-18806D01*
X22172Y-19316D01*
X22757Y-19316D01*
X22805Y-19229D01*
X22805Y-19502D01*
X22757Y-19416D01*
X22172Y-19416D01*
X22172Y-19424D01*
X22072Y-19424D01*
X22072Y-19416D01*
X22072Y-19316D01*
X22072Y-18806D01*
X21932Y-18806D01*
X21824Y-18826D01*
X21722Y-18867D01*
X21630Y-18927D01*
X21551Y-19004D01*
X21489Y-19094D01*
X21446Y-19195D01*
X21438Y-19229D01*
X21487Y-19316D01*
X22072Y-19316D01*
X22072Y-19416D01*
X21487Y-19416D01*
X21438Y-19502D01*
X21446Y-19537D01*
X21489Y-19637D01*
X21551Y-19728D01*
X21630Y-19804D01*
X21667Y-19828D01*
X18975Y-19828D01*
X18963Y-19820D01*
X18864Y-19779D01*
X18758Y-19757D01*
X18650Y-19756D01*
X18544Y-19776D01*
X18444Y-19817D01*
X18354Y-19876D01*
X18277Y-19951D01*
X18216Y-20040D01*
X18173Y-20139D01*
X18151Y-20245D01*
X18150Y-20353D01*
X18169Y-20459D01*
X18209Y-20559D01*
X18267Y-20650D01*
X18342Y-20727D01*
X18431Y-20789D01*
X18530Y-20832D01*
X18635Y-20855D01*
X18743Y-20858D01*
X18849Y-20839D01*
X18949Y-20800D01*
X19041Y-20742D01*
X19062Y-20722D01*
X21550Y-20722D01*
X21578Y-20757D01*
X21662Y-20828D01*
X21731Y-20866D01*
X21668Y-20899D01*
X21584Y-20968D01*
X21514Y-21052D01*
X21462Y-21149D01*
X21430Y-21253D01*
X21418Y-21362D01*
X21428Y-21471D01*
X21459Y-21575D01*
X21510Y-21672D01*
X21578Y-21757D01*
X21638Y-21807D01*
X21599Y-21815D01*
X21554Y-21834D01*
X21513Y-21861D01*
X21478Y-21896D01*
X21451Y-21936D01*
X21432Y-21981D01*
X21422Y-22029D01*
X21421Y-22078D01*
X21422Y-22700D01*
X21431Y-22748D01*
X21450Y-22794D01*
X21477Y-22834D01*
X21511Y-22869D01*
X21552Y-22897D01*
X21597Y-22916D01*
X21645Y-22925D01*
X21694Y-22926D01*
X21905Y-22926D01*
X21923Y-22949D01*
X21928Y-22953D01*
X22518Y-23544D01*
X22550Y-23570D01*
X22582Y-23597D01*
X22584Y-23598D01*
X22586Y-23599D01*
X22622Y-23619D01*
X22658Y-23639D01*
X22660Y-23639D01*
X22662Y-23640D01*
X22702Y-23652D01*
X22741Y-23665D01*
X22744Y-23665D01*
X22746Y-23666D01*
X22787Y-23670D01*
X22828Y-23675D01*
X22832Y-23675D01*
X22833Y-23675D01*
X22833Y-23675D01*
X22834Y-23675D01*
X25503Y-23675D01*
X25466Y-23682D01*
X25366Y-23722D01*
X25275Y-23781D01*
X25198Y-23857D01*
X25137Y-23946D01*
X25095Y-24045D01*
X25072Y-24150D01*
X25071Y-24258D01*
X25090Y-24364D01*
X25130Y-24465D01*
X25188Y-24555D01*
X25263Y-24633D01*
X25352Y-24695D01*
X25451Y-24738D01*
X25556Y-24761D01*
X25664Y-24763D01*
X25770Y-24744D01*
X25871Y-24705D01*
X25962Y-24648D01*
X26040Y-24573D01*
X26102Y-24485D01*
X26146Y-24387D01*
X26170Y-24281D01*
X26172Y-24158D01*
X26151Y-24052D01*
X26110Y-23953D01*
X26050Y-23863D01*
X25974Y-23786D01*
X25884Y-23726D01*
X25785Y-23684D01*
X25739Y-23675D01*
X27559Y-23675D01*
X27600Y-23671D01*
X27641Y-23667D01*
X27643Y-23666D01*
X27645Y-23666D01*
X27685Y-23654D01*
X27725Y-23643D01*
X27727Y-23642D01*
X27729Y-23641D01*
X27765Y-23622D01*
X27802Y-23603D01*
X27804Y-23601D01*
X27806Y-23600D01*
X27838Y-23574D01*
X27870Y-23548D01*
X27873Y-23545D01*
X27873Y-23545D01*
X27873Y-23545D01*
X27875Y-23544D01*
X28137Y-23281D01*
X29668Y-23281D01*
X29742Y-23332D01*
X29841Y-23376D01*
X29946Y-23399D01*
X30054Y-23401D01*
X30160Y-23382D01*
X30260Y-23343D01*
X30352Y-23285D01*
X30430Y-23211D01*
X30492Y-23123D01*
X30510Y-23082D01*
X30511Y-23085D01*
X30537Y-23133D01*
X30631Y-23159D01*
X30941Y-22850D01*
X30631Y-22540D01*
X30537Y-22567D01*
X30512Y-22620D01*
X30499Y-22590D01*
X30440Y-22501D01*
X30364Y-22424D01*
X30274Y-22364D01*
X30242Y-22350D01*
X30260Y-22343D01*
X30352Y-22285D01*
X30430Y-22211D01*
X30492Y-22123D01*
X30511Y-22080D01*
X30520Y-22103D01*
X30578Y-22193D01*
X30653Y-22271D01*
X30742Y-22332D01*
X30779Y-22349D01*
X30776Y-22350D01*
X30728Y-22375D01*
X30702Y-22470D01*
X31011Y-22779D01*
X31321Y-22470D01*
X31294Y-22375D01*
X31242Y-22350D01*
X31260Y-22343D01*
X31340Y-22293D01*
X31381Y-22289D01*
X31383Y-22288D01*
X31386Y-22288D01*
X31425Y-22276D01*
X31465Y-22265D01*
X31467Y-22264D01*
X31469Y-22263D01*
X31505Y-22244D01*
X31542Y-22225D01*
X31544Y-22223D01*
X31546Y-22222D01*
X31578Y-22196D01*
X31610Y-22170D01*
X31614Y-22167D01*
X31614Y-22167D01*
X31614Y-22167D01*
X31615Y-22166D01*
X32205Y-21575D01*
X32210Y-21569D01*
X32210Y-31226D01*
M02*
