M48
;DRILL file {PCBnew (2010-05-05 BZR 2356)-stable} date 2013-08-19 11:44:02
;FORMAT={3:3/ absolute / metric / keep zeros}
R,T
VER,1
FMAT,2
METRIC,TZ
TCST,OFF
ICI,OFF
ATC,ON
T1C0.635
T2C0.813
T3C1.016
T4C1.143
T5C1.699
T6C1.778
T7C3.048
T8C3.302
%
M47
G05
M71
T1
X135049Y-115151
X140599Y-133650
X142601Y-121501
X147051Y-115151
X149349Y-133551
X150551Y-134501
X152601Y-153599
X152799Y-115151
X162301Y-115001
X163551Y-153599
X167500Y-120749
X170200Y-134549
T2
X130889Y-124041
X130889Y-126581
X130889Y-129121
X130889Y-131661
X131651Y-077231
X131651Y-079771
X131651Y-112479
X131651Y-115019
X131689Y-101049
X134109Y-148519
X136649Y-145979
X138509Y-124041
X138509Y-126581
X138509Y-129121
X138509Y-131661
X139189Y-148519
X139309Y-101049
X144430Y-118951
X144430Y-124300
X145689Y-097600
X145839Y-101641
X145839Y-104181
X145839Y-106721
X145839Y-109261
X145890Y-071839
X145890Y-074379
X145890Y-076919
X145890Y-079459
X145890Y-081999
X145890Y-084539
X145890Y-087079
X145890Y-089619
X145890Y-092159
X146969Y-118951
X146969Y-124300
X152095Y-124300
X152880Y-119200
X153309Y-097600
X153459Y-101641
X153459Y-104181
X153459Y-106721
X153459Y-109261
X153510Y-071839
X153510Y-074379
X153510Y-076919
X153510Y-079459
X153510Y-081999
X153510Y-084539
X153510Y-087079
X153510Y-089619
X153510Y-092159
X155420Y-119200
X155905Y-124300
X160109Y-148519
X160891Y-124041
X160891Y-126581
X160891Y-129121
X160891Y-131661
X162649Y-145979
X165189Y-148519
X167650Y-077231
X167650Y-079771
X167650Y-112479
X167650Y-115019
X168511Y-124041
X168511Y-126581
X168511Y-129121
X168511Y-131661
T3
X142852Y-156700
X145151Y-156700
X146152Y-161501
X147152Y-163500
X148151Y-161501
X149151Y-163500
X150152Y-161501
X151150Y-163500
X152151Y-161501
X153152Y-163500
X154252Y-156700
X156502Y-156675
T4
X147109Y-130401
X149649Y-130401
X152189Y-130401
T5
X141552Y-162400
T6
X157800Y-162400
T7
X149649Y-146911
T8
X143350Y-165801
X156050Y-165801
T0
M30
