G04 (created by PCBNEW-RS274X (2010-05-05 BZR 2356)-stable) date 2013-08-19 11:46:26*
G01*
G70*
G90*
%MOIN*%
G04 Gerber Fmt 3.4, Leading zero omitted, Abs format*
%FSLAX34Y34*%
G04 APERTURE LIST*
%ADD10C,0.006000*%
%ADD11C,0.012000*%
%ADD12C,0.015000*%
%ADD13C,0.000100*%
%ADD14R,0.055000X0.055000*%
%ADD15C,0.055000*%
%ADD16O,0.118100X0.157500*%
%ADD17C,0.150000*%
%ADD18R,0.060000X0.060000*%
%ADD19C,0.060000*%
%ADD20R,0.090000X0.062000*%
%ADD21O,0.090000X0.062000*%
%ADD22C,0.070000*%
%ADD23R,0.350000X0.350000*%
%ADD24R,0.070000X0.070000*%
%ADD25C,0.098400*%
%ADD26C,0.151600*%
%ADD27C,0.100000*%
%ADD28C,0.080000*%
%ADD29R,0.060000X0.080000*%
%ADD30C,0.035000*%
%ADD31C,0.023600*%
%ADD32C,0.015700*%
G04 APERTURE END LIST*
G54D10*
G54D11*
X67364Y-56210D02*
X67078Y-56210D01*
X67078Y-55410D01*
X67792Y-56172D02*
X67735Y-56210D01*
X67621Y-56210D01*
X67564Y-56172D01*
X67535Y-56096D01*
X67535Y-55791D01*
X67564Y-55715D01*
X67621Y-55676D01*
X67735Y-55676D01*
X67792Y-55715D01*
X67821Y-55791D01*
X67821Y-55867D01*
X67535Y-55943D01*
X67992Y-55410D02*
X68192Y-56210D01*
X68392Y-55410D01*
X68535Y-55676D02*
X68678Y-56210D01*
X68820Y-55676D02*
X68678Y-56210D01*
X68620Y-56400D01*
X68592Y-56438D01*
X68535Y-56476D01*
X69477Y-55486D02*
X69506Y-55448D01*
X69563Y-55410D01*
X69706Y-55410D01*
X69763Y-55448D01*
X69792Y-55486D01*
X69820Y-55562D01*
X69820Y-55638D01*
X69792Y-55753D01*
X69449Y-56210D01*
X69820Y-56210D01*
X70191Y-55410D02*
X70248Y-55410D01*
X70305Y-55448D01*
X70334Y-55486D01*
X70363Y-55562D01*
X70391Y-55715D01*
X70391Y-55905D01*
X70363Y-56057D01*
X70334Y-56134D01*
X70305Y-56172D01*
X70248Y-56210D01*
X70191Y-56210D01*
X70134Y-56172D01*
X70105Y-56134D01*
X70077Y-56057D01*
X70048Y-55905D01*
X70048Y-55715D01*
X70077Y-55562D01*
X70105Y-55486D01*
X70134Y-55448D01*
X70191Y-55410D01*
X70962Y-56210D02*
X70619Y-56210D01*
X70791Y-56210D02*
X70791Y-55410D01*
X70734Y-55524D01*
X70676Y-55600D01*
X70619Y-55638D01*
X71162Y-55410D02*
X71533Y-55410D01*
X71333Y-55715D01*
X71419Y-55715D01*
X71476Y-55753D01*
X71505Y-55791D01*
X71533Y-55867D01*
X71533Y-56057D01*
X71505Y-56134D01*
X71476Y-56172D01*
X71419Y-56210D01*
X71247Y-56210D01*
X71190Y-56172D01*
X71162Y-56134D01*
G54D12*
X90492Y-61024D02*
X90480Y-61146D01*
X90444Y-61264D01*
X90386Y-61372D01*
X90309Y-61467D01*
X90214Y-61546D01*
X90106Y-61604D01*
X89988Y-61641D01*
X89866Y-61653D01*
X89744Y-61642D01*
X89626Y-61608D01*
X89518Y-61551D01*
X89422Y-61474D01*
X89343Y-61379D01*
X89283Y-61272D01*
X89246Y-61154D01*
X89233Y-61032D01*
X89243Y-60911D01*
X89277Y-60793D01*
X89333Y-60683D01*
X89409Y-60587D01*
X89503Y-60507D01*
X89610Y-60447D01*
X89727Y-60409D01*
X89849Y-60395D01*
X89971Y-60404D01*
X90089Y-60437D01*
X90199Y-60493D01*
X90296Y-60568D01*
X90376Y-60661D01*
X90437Y-60768D01*
X90476Y-60885D01*
X90491Y-61007D01*
X90492Y-61024D01*
X69744Y-61024D02*
X69732Y-61138D01*
X69699Y-61248D01*
X69645Y-61350D01*
X69572Y-61439D01*
X69483Y-61513D01*
X69382Y-61567D01*
X69272Y-61601D01*
X69158Y-61613D01*
X69044Y-61603D01*
X68933Y-61571D01*
X68831Y-61517D01*
X68742Y-61445D01*
X68668Y-61357D01*
X68612Y-61256D01*
X68577Y-61146D01*
X68565Y-61032D01*
X68574Y-60918D01*
X68606Y-60807D01*
X68659Y-60705D01*
X68730Y-60615D01*
X68818Y-60540D01*
X68918Y-60484D01*
X69028Y-60448D01*
X69142Y-60435D01*
X69256Y-60443D01*
X69367Y-60474D01*
X69470Y-60526D01*
X69560Y-60597D01*
X69636Y-60684D01*
X69692Y-60785D01*
X69729Y-60894D01*
X69743Y-61008D01*
X69744Y-61024D01*
X66948Y-61024D02*
X66936Y-61138D01*
X66903Y-61248D01*
X66849Y-61350D01*
X66776Y-61439D01*
X66687Y-61513D01*
X66586Y-61567D01*
X66476Y-61601D01*
X66362Y-61613D01*
X66248Y-61603D01*
X66137Y-61571D01*
X66035Y-61517D01*
X65946Y-61445D01*
X65872Y-61357D01*
X65816Y-61256D01*
X65781Y-61146D01*
X65769Y-61032D01*
X65778Y-60918D01*
X65810Y-60807D01*
X65863Y-60705D01*
X65934Y-60615D01*
X66022Y-60540D01*
X66122Y-60484D01*
X66232Y-60448D01*
X66346Y-60435D01*
X66460Y-60443D01*
X66571Y-60474D01*
X66674Y-60526D01*
X66764Y-60597D01*
X66840Y-60684D01*
X66896Y-60785D01*
X66933Y-60894D01*
X66947Y-61008D01*
X66948Y-61024D01*
X29941Y-61024D02*
X29929Y-61138D01*
X29896Y-61249D01*
X29842Y-61351D01*
X29769Y-61440D01*
X29680Y-61513D01*
X29579Y-61568D01*
X29468Y-61602D01*
X29354Y-61614D01*
X29240Y-61604D01*
X29129Y-61571D01*
X29027Y-61518D01*
X28937Y-61446D01*
X28863Y-61357D01*
X28807Y-61256D01*
X28772Y-61146D01*
X28760Y-61032D01*
X28769Y-60918D01*
X28801Y-60807D01*
X28854Y-60704D01*
X28925Y-60614D01*
X29013Y-60539D01*
X29114Y-60483D01*
X29224Y-60447D01*
X29338Y-60434D01*
X29452Y-60442D01*
X29563Y-60473D01*
X29666Y-60526D01*
X29757Y-60597D01*
X29832Y-60684D01*
X29889Y-60784D01*
X29926Y-60894D01*
X29940Y-61008D01*
X29941Y-61024D01*
X90452Y-26161D02*
X90440Y-26275D01*
X90407Y-26385D01*
X90353Y-26487D01*
X90280Y-26576D01*
X90191Y-26650D01*
X90090Y-26704D01*
X89980Y-26738D01*
X89866Y-26750D01*
X89752Y-26740D01*
X89641Y-26708D01*
X89539Y-26654D01*
X89450Y-26582D01*
X89376Y-26494D01*
X89320Y-26393D01*
X89285Y-26283D01*
X89273Y-26169D01*
X89282Y-26055D01*
X89314Y-25944D01*
X89367Y-25842D01*
X89438Y-25752D01*
X89526Y-25677D01*
X89626Y-25621D01*
X89736Y-25585D01*
X89850Y-25572D01*
X89964Y-25580D01*
X90075Y-25611D01*
X90178Y-25663D01*
X90268Y-25734D01*
X90344Y-25821D01*
X90400Y-25922D01*
X90437Y-26031D01*
X90451Y-26145D01*
X90452Y-26161D01*
X69744Y-26161D02*
X69732Y-26275D01*
X69699Y-26386D01*
X69645Y-26488D01*
X69572Y-26577D01*
X69483Y-26650D01*
X69382Y-26705D01*
X69271Y-26739D01*
X69157Y-26751D01*
X69043Y-26741D01*
X68932Y-26708D01*
X68830Y-26655D01*
X68740Y-26583D01*
X68666Y-26494D01*
X68610Y-26393D01*
X68575Y-26283D01*
X68563Y-26169D01*
X68572Y-26055D01*
X68604Y-25944D01*
X68657Y-25841D01*
X68728Y-25751D01*
X68816Y-25676D01*
X68917Y-25620D01*
X69027Y-25584D01*
X69141Y-25571D01*
X69255Y-25579D01*
X69366Y-25610D01*
X69469Y-25663D01*
X69560Y-25734D01*
X69635Y-25821D01*
X69692Y-25921D01*
X69729Y-26031D01*
X69743Y-26145D01*
X69744Y-26161D01*
X66948Y-26161D02*
X66936Y-26275D01*
X66903Y-26385D01*
X66849Y-26487D01*
X66776Y-26576D01*
X66687Y-26650D01*
X66586Y-26704D01*
X66476Y-26738D01*
X66362Y-26750D01*
X66248Y-26740D01*
X66137Y-26708D01*
X66035Y-26654D01*
X65946Y-26582D01*
X65872Y-26494D01*
X65816Y-26393D01*
X65781Y-26283D01*
X65769Y-26169D01*
X65778Y-26055D01*
X65810Y-25944D01*
X65863Y-25842D01*
X65934Y-25752D01*
X66022Y-25677D01*
X66122Y-25621D01*
X66232Y-25585D01*
X66346Y-25572D01*
X66460Y-25580D01*
X66571Y-25611D01*
X66674Y-25663D01*
X66764Y-25734D01*
X66840Y-25821D01*
X66896Y-25922D01*
X66933Y-26031D01*
X66947Y-26145D01*
X66948Y-26161D01*
X29941Y-26161D02*
X29929Y-26275D01*
X29896Y-26386D01*
X29842Y-26488D01*
X29769Y-26577D01*
X29680Y-26650D01*
X29579Y-26705D01*
X29468Y-26739D01*
X29354Y-26751D01*
X29240Y-26741D01*
X29129Y-26708D01*
X29027Y-26655D01*
X28937Y-26583D01*
X28863Y-26494D01*
X28807Y-26393D01*
X28772Y-26283D01*
X28760Y-26169D01*
X28769Y-26055D01*
X28801Y-25944D01*
X28854Y-25841D01*
X28925Y-25751D01*
X29013Y-25676D01*
X29114Y-25620D01*
X29224Y-25584D01*
X29338Y-25571D01*
X29452Y-25579D01*
X29563Y-25610D01*
X29666Y-25663D01*
X29757Y-25734D01*
X29832Y-25821D01*
X29889Y-25921D01*
X29926Y-26031D01*
X29940Y-26145D01*
X29941Y-26161D01*
X27323Y-17402D02*
X27323Y-62283D01*
X91890Y-17402D02*
X27323Y-17402D01*
X91890Y-62283D02*
X91890Y-17402D01*
X27323Y-62283D02*
X91890Y-62283D01*
G54D13*
X52419Y-21256D02*
X46223Y-21260D01*
X40028Y-21265D01*
X40023Y-27416D01*
X40019Y-33566D01*
X40014Y-27406D01*
X40010Y-21247D01*
X46215Y-21252D01*
X52419Y-21256D01*
X52419Y-21256D01*
X51996Y-28235D02*
X51985Y-28339D01*
X51917Y-28789D01*
X51815Y-29228D01*
X51679Y-29654D01*
X51509Y-30066D01*
X51307Y-30464D01*
X51072Y-30847D01*
X50804Y-31215D01*
X50799Y-31221D01*
X50722Y-31313D01*
X50625Y-31422D01*
X50515Y-31541D01*
X50396Y-31663D01*
X50278Y-31782D01*
X50165Y-31890D01*
X50065Y-31982D01*
X50015Y-32025D01*
X49656Y-32301D01*
X49279Y-32546D01*
X48886Y-32759D01*
X48479Y-32939D01*
X48058Y-33086D01*
X47626Y-33200D01*
X47183Y-33279D01*
X47061Y-33294D01*
X46955Y-33303D01*
X46822Y-33311D01*
X46670Y-33315D01*
X46508Y-33318D01*
X46343Y-33319D01*
X46185Y-33317D01*
X46042Y-33313D01*
X45921Y-33306D01*
X45869Y-33301D01*
X45601Y-33265D01*
X45322Y-33213D01*
X45041Y-33148D01*
X44768Y-33072D01*
X44515Y-32987D01*
X44372Y-32932D01*
X43954Y-32740D01*
X43558Y-32520D01*
X43183Y-32272D01*
X42832Y-31997D01*
X42504Y-31695D01*
X42202Y-31370D01*
X41927Y-31020D01*
X41678Y-30647D01*
X41457Y-30251D01*
X41427Y-30190D01*
X41263Y-29824D01*
X41128Y-29448D01*
X41019Y-29056D01*
X40936Y-28645D01*
X40890Y-28321D01*
X40879Y-28235D01*
X40997Y-28235D01*
X41057Y-28237D01*
X41099Y-28242D01*
X41114Y-28248D01*
X41117Y-28286D01*
X41126Y-28352D01*
X41140Y-28439D01*
X41156Y-28539D01*
X41174Y-28646D01*
X41192Y-28750D01*
X41210Y-28845D01*
X41227Y-28925D01*
X41231Y-28944D01*
X41322Y-29288D01*
X41441Y-29635D01*
X41585Y-29977D01*
X41749Y-30306D01*
X41930Y-30613D01*
X42018Y-30746D01*
X42146Y-30924D01*
X42264Y-31081D01*
X42382Y-31223D01*
X42505Y-31360D01*
X42642Y-31503D01*
X42678Y-31539D01*
X42992Y-31828D01*
X43319Y-32085D01*
X43664Y-32313D01*
X44002Y-32501D01*
X44348Y-32665D01*
X44686Y-32800D01*
X45026Y-32907D01*
X45373Y-32989D01*
X45737Y-33047D01*
X46123Y-33085D01*
X46143Y-33086D01*
X46553Y-33096D01*
X46966Y-33071D01*
X47379Y-33011D01*
X47788Y-32920D01*
X48191Y-32796D01*
X48584Y-32642D01*
X48962Y-32457D01*
X49324Y-32244D01*
X49342Y-32233D01*
X49687Y-31986D01*
X50017Y-31709D01*
X50326Y-31407D01*
X50609Y-31083D01*
X50838Y-30778D01*
X51065Y-30420D01*
X51263Y-30042D01*
X51431Y-29648D01*
X51568Y-29240D01*
X51671Y-28822D01*
X51725Y-28511D01*
X51765Y-28235D01*
X51880Y-28235D01*
X51996Y-28235D01*
X51996Y-28235D01*
X46399Y-31430D02*
X46389Y-31556D01*
X46382Y-31641D01*
X46374Y-31695D01*
X46361Y-31728D01*
X46341Y-31742D01*
X46310Y-31746D01*
X46290Y-31747D01*
X46245Y-31744D01*
X46221Y-31739D01*
X46219Y-31737D01*
X46230Y-31719D01*
X46260Y-31686D01*
X46281Y-31665D01*
X46325Y-31608D01*
X46362Y-31539D01*
X46371Y-31516D01*
X46399Y-31430D01*
X46399Y-31430D01*
X46637Y-31735D02*
X46607Y-31744D01*
X46560Y-31747D01*
X46490Y-31747D01*
X46492Y-31606D01*
X46494Y-31466D01*
X46520Y-31551D01*
X46550Y-31618D01*
X46590Y-31672D01*
X46599Y-31680D01*
X46633Y-31714D01*
X46637Y-31735D01*
X46637Y-31735D01*
X46201Y-31268D02*
X46190Y-31291D01*
X46162Y-31333D01*
X46124Y-31386D01*
X46082Y-31440D01*
X46042Y-31488D01*
X46012Y-31521D01*
X46001Y-31529D01*
X45941Y-31545D01*
X45862Y-31541D01*
X45774Y-31518D01*
X45771Y-31517D01*
X45725Y-31498D01*
X45698Y-31483D01*
X45694Y-31478D01*
X45708Y-31463D01*
X45745Y-31438D01*
X45769Y-31423D01*
X45828Y-31386D01*
X45895Y-31340D01*
X45924Y-31319D01*
X45979Y-31282D01*
X46028Y-31263D01*
X46089Y-31258D01*
X46103Y-31258D01*
X46156Y-31259D01*
X46192Y-31264D01*
X46201Y-31268D01*
X46201Y-31268D01*
X47192Y-31484D02*
X47185Y-31496D01*
X47151Y-31511D01*
X47073Y-31534D01*
X46995Y-31543D01*
X46928Y-31536D01*
X46894Y-31521D01*
X46867Y-31496D01*
X46829Y-31453D01*
X46785Y-31402D01*
X46744Y-31349D01*
X46710Y-31304D01*
X46691Y-31274D01*
X46690Y-31268D01*
X46706Y-31260D01*
X46746Y-31257D01*
X46799Y-31259D01*
X46853Y-31264D01*
X46897Y-31273D01*
X46912Y-31279D01*
X46947Y-31301D01*
X46998Y-31338D01*
X47045Y-31374D01*
X47099Y-31416D01*
X47145Y-31451D01*
X47171Y-31468D01*
X47192Y-31484D01*
X47192Y-31484D01*
X45902Y-31129D02*
X45851Y-31130D01*
X45809Y-31140D01*
X45751Y-31165D01*
X45689Y-31199D01*
X45624Y-31236D01*
X45572Y-31257D01*
X45513Y-31266D01*
X45451Y-31270D01*
X45381Y-31270D01*
X45321Y-31268D01*
X45283Y-31264D01*
X45248Y-31253D01*
X45191Y-31233D01*
X45122Y-31208D01*
X45112Y-31203D01*
X44979Y-31151D01*
X45179Y-31150D01*
X45280Y-31148D01*
X45357Y-31142D01*
X45423Y-31130D01*
X45491Y-31110D01*
X45512Y-31103D01*
X45613Y-31075D01*
X45700Y-31069D01*
X45790Y-31087D01*
X45857Y-31111D01*
X45902Y-31129D01*
X45902Y-31129D01*
X47893Y-31174D02*
X47757Y-31218D01*
X47663Y-31243D01*
X47562Y-31260D01*
X47464Y-31270D01*
X47379Y-31269D01*
X47323Y-31260D01*
X47283Y-31242D01*
X47227Y-31212D01*
X47188Y-31188D01*
X47131Y-31156D01*
X47079Y-31136D01*
X47053Y-31130D01*
X47023Y-31129D01*
X47023Y-31123D01*
X47055Y-31108D01*
X47061Y-31106D01*
X47155Y-31075D01*
X47246Y-31069D01*
X47346Y-31087D01*
X47400Y-31105D01*
X47540Y-31142D01*
X47704Y-31162D01*
X47712Y-31162D01*
X47893Y-31174D01*
X47893Y-31174D01*
X49618Y-29601D02*
X49331Y-30127D01*
X49045Y-30651D01*
X48934Y-30652D01*
X48934Y-29693D01*
X48917Y-29691D01*
X48867Y-29689D01*
X48790Y-29687D01*
X48688Y-29685D01*
X48567Y-29684D01*
X48429Y-29683D01*
X48292Y-29683D01*
X48143Y-29682D01*
X48007Y-29682D01*
X47887Y-29681D01*
X47787Y-29679D01*
X47711Y-29677D01*
X47664Y-29675D01*
X47649Y-29674D01*
X47658Y-29654D01*
X47680Y-29615D01*
X47691Y-29597D01*
X47723Y-29544D01*
X47750Y-29498D01*
X47755Y-29488D01*
X47777Y-29448D01*
X46675Y-29448D01*
X45574Y-29448D01*
X45511Y-29561D01*
X45449Y-29674D01*
X44727Y-29683D01*
X44006Y-29692D01*
X43953Y-29791D01*
X43928Y-29839D01*
X43889Y-29912D01*
X43840Y-30002D01*
X43786Y-30103D01*
X43730Y-30209D01*
X43729Y-30210D01*
X43677Y-30307D01*
X43631Y-30394D01*
X43594Y-30465D01*
X43569Y-30515D01*
X43558Y-30539D01*
X43558Y-30540D01*
X43575Y-30543D01*
X43625Y-30545D01*
X43703Y-30547D01*
X43805Y-30549D01*
X43928Y-30550D01*
X44067Y-30551D01*
X44219Y-30552D01*
X44237Y-30552D01*
X44389Y-30552D01*
X44530Y-30553D01*
X44655Y-30554D01*
X44760Y-30557D01*
X44841Y-30559D01*
X44894Y-30562D01*
X44915Y-30565D01*
X44916Y-30565D01*
X44906Y-30588D01*
X44884Y-30628D01*
X44870Y-30651D01*
X44844Y-30697D01*
X44828Y-30729D01*
X44825Y-30738D01*
X44843Y-30740D01*
X44894Y-30742D01*
X44974Y-30744D01*
X45082Y-30746D01*
X45213Y-30748D01*
X45365Y-30749D01*
X45534Y-30750D01*
X45717Y-30751D01*
X45912Y-30751D01*
X45919Y-30751D01*
X47013Y-30751D01*
X47070Y-30651D01*
X47126Y-30552D01*
X47801Y-30552D01*
X48475Y-30552D01*
X48635Y-30257D01*
X48716Y-30108D01*
X48782Y-29987D01*
X48833Y-29891D01*
X48872Y-29819D01*
X48900Y-29766D01*
X48919Y-29730D01*
X48929Y-29708D01*
X48934Y-29696D01*
X48934Y-29693D01*
X48934Y-30652D01*
X48198Y-30660D01*
X47352Y-30670D01*
X47279Y-30792D01*
X47206Y-30914D01*
X45843Y-30914D01*
X45625Y-30913D01*
X45417Y-30913D01*
X45223Y-30913D01*
X45045Y-30912D01*
X44887Y-30911D01*
X44750Y-30910D01*
X44639Y-30909D01*
X44555Y-30907D01*
X44502Y-30906D01*
X44481Y-30904D01*
X44489Y-30884D01*
X44508Y-30842D01*
X44535Y-30787D01*
X44563Y-30731D01*
X44583Y-30689D01*
X44590Y-30670D01*
X44572Y-30668D01*
X44522Y-30666D01*
X44443Y-30665D01*
X44338Y-30663D01*
X44210Y-30662D01*
X44065Y-30661D01*
X43904Y-30660D01*
X43731Y-30660D01*
X43729Y-30660D01*
X42869Y-30660D01*
X42962Y-30484D01*
X43001Y-30411D01*
X43035Y-30349D01*
X43059Y-30305D01*
X43069Y-30289D01*
X43082Y-30267D01*
X43108Y-30219D01*
X43144Y-30153D01*
X43185Y-30073D01*
X43196Y-30054D01*
X43246Y-29960D01*
X43297Y-29864D01*
X43344Y-29778D01*
X43380Y-29714D01*
X43451Y-29592D01*
X44344Y-29592D01*
X45238Y-29592D01*
X45324Y-29438D01*
X45411Y-29285D01*
X46785Y-29285D01*
X48158Y-29285D01*
X48100Y-29389D01*
X48065Y-29449D01*
X48034Y-29500D01*
X48017Y-29529D01*
X47998Y-29562D01*
X47993Y-29578D01*
X48010Y-29581D01*
X48060Y-29584D01*
X48140Y-29587D01*
X48244Y-29589D01*
X48370Y-29592D01*
X48514Y-29594D01*
X48673Y-29595D01*
X48806Y-29597D01*
X49618Y-29601D01*
X49618Y-29601D01*
X44384Y-29440D02*
X44368Y-29434D01*
X44330Y-29415D01*
X44300Y-29400D01*
X44248Y-29378D01*
X44173Y-29350D01*
X44085Y-29321D01*
X44020Y-29302D01*
X43871Y-29255D01*
X43753Y-29210D01*
X43661Y-29161D01*
X43588Y-29106D01*
X43530Y-29040D01*
X43493Y-28985D01*
X43459Y-28921D01*
X43432Y-28856D01*
X43411Y-28782D01*
X43394Y-28692D01*
X43379Y-28578D01*
X43367Y-28463D01*
X43358Y-28360D01*
X43348Y-28266D01*
X43340Y-28188D01*
X43334Y-28135D01*
X43331Y-28118D01*
X43322Y-28065D01*
X43363Y-28102D01*
X43447Y-28169D01*
X43559Y-28245D01*
X43693Y-28326D01*
X43841Y-28408D01*
X43875Y-28425D01*
X43990Y-28485D01*
X44078Y-28532D01*
X44143Y-28569D01*
X44190Y-28599D01*
X44225Y-28626D01*
X44252Y-28652D01*
X44275Y-28681D01*
X44283Y-28692D01*
X44306Y-28724D01*
X44321Y-28754D01*
X44330Y-28788D01*
X44334Y-28836D01*
X44336Y-28906D01*
X44337Y-28984D01*
X44339Y-29084D01*
X44345Y-29183D01*
X44353Y-29270D01*
X44362Y-29321D01*
X44374Y-29380D01*
X44382Y-29423D01*
X44384Y-29440D01*
X44384Y-29440D01*
X49595Y-28149D02*
X49591Y-28200D01*
X49582Y-28272D01*
X49571Y-28361D01*
X49557Y-28457D01*
X49542Y-28557D01*
X49526Y-28652D01*
X49512Y-28736D01*
X49499Y-28803D01*
X49489Y-28845D01*
X49487Y-28849D01*
X49426Y-28984D01*
X49350Y-29091D01*
X49252Y-29173D01*
X49182Y-29215D01*
X49137Y-29233D01*
X49066Y-29257D01*
X48979Y-29283D01*
X48883Y-29309D01*
X48870Y-29313D01*
X48774Y-29338D01*
X48683Y-29365D01*
X48608Y-29390D01*
X48557Y-29410D01*
X48553Y-29412D01*
X48507Y-29434D01*
X48487Y-29440D01*
X48486Y-29429D01*
X48490Y-29417D01*
X48510Y-29362D01*
X48525Y-29307D01*
X48536Y-29241D01*
X48544Y-29158D01*
X48550Y-29049D01*
X48551Y-29027D01*
X48557Y-28927D01*
X48562Y-28856D01*
X48569Y-28806D01*
X48580Y-28768D01*
X48595Y-28737D01*
X48617Y-28705D01*
X48619Y-28702D01*
X48650Y-28664D01*
X48692Y-28627D01*
X48749Y-28589D01*
X48825Y-28547D01*
X48925Y-28499D01*
X49054Y-28441D01*
X49067Y-28435D01*
X49193Y-28375D01*
X49321Y-28306D01*
X49438Y-28233D01*
X49519Y-28175D01*
X49560Y-28145D01*
X49588Y-28129D01*
X49594Y-28128D01*
X49595Y-28149D01*
X49595Y-28149D01*
X48745Y-25736D02*
X48740Y-25752D01*
X48722Y-25793D01*
X48692Y-25854D01*
X48653Y-25931D01*
X48639Y-25959D01*
X48540Y-26146D01*
X48451Y-26317D01*
X48366Y-26481D01*
X48280Y-26648D01*
X48188Y-26827D01*
X48092Y-27013D01*
X48034Y-27126D01*
X47981Y-27229D01*
X47935Y-27317D01*
X47899Y-27386D01*
X47875Y-27431D01*
X47866Y-27447D01*
X47855Y-27467D01*
X47829Y-27516D01*
X47792Y-27588D01*
X47743Y-27681D01*
X47687Y-27789D01*
X47625Y-27910D01*
X47593Y-27972D01*
X47524Y-28109D01*
X47454Y-28245D01*
X47387Y-28375D01*
X47326Y-28492D01*
X47275Y-28591D01*
X47266Y-28608D01*
X47266Y-28155D01*
X47261Y-28150D01*
X47238Y-28169D01*
X47211Y-28194D01*
X47159Y-28235D01*
X47107Y-28251D01*
X47081Y-28253D01*
X47016Y-28261D01*
X46955Y-28280D01*
X46953Y-28281D01*
X46915Y-28303D01*
X46885Y-28335D01*
X46855Y-28387D01*
X46838Y-28420D01*
X46843Y-28432D01*
X46870Y-28430D01*
X46909Y-28415D01*
X46947Y-28401D01*
X47005Y-28387D01*
X47046Y-28379D01*
X47125Y-28361D01*
X47181Y-28331D01*
X47219Y-28283D01*
X47250Y-28209D01*
X47259Y-28180D01*
X47266Y-28155D01*
X47266Y-28608D01*
X47236Y-28666D01*
X47230Y-28678D01*
X47176Y-28780D01*
X47117Y-28893D01*
X47061Y-29002D01*
X47029Y-29063D01*
X46991Y-29136D01*
X46959Y-29195D01*
X46935Y-29235D01*
X46925Y-29248D01*
X46910Y-29234D01*
X46885Y-29200D01*
X46877Y-29188D01*
X46855Y-29146D01*
X46828Y-29080D01*
X46797Y-28998D01*
X46770Y-28917D01*
X46738Y-28809D01*
X46719Y-28730D01*
X46714Y-28674D01*
X46725Y-28638D01*
X46750Y-28616D01*
X46789Y-28604D01*
X46831Y-28593D01*
X46852Y-28580D01*
X46853Y-28578D01*
X46836Y-28560D01*
X46799Y-28546D01*
X46763Y-28542D01*
X46721Y-28527D01*
X46687Y-28488D01*
X46671Y-28439D01*
X46671Y-28435D01*
X46680Y-28396D01*
X46702Y-28342D01*
X46721Y-28305D01*
X46753Y-28253D01*
X46784Y-28222D01*
X46828Y-28201D01*
X46875Y-28187D01*
X46933Y-28169D01*
X46974Y-28152D01*
X46989Y-28142D01*
X46986Y-28120D01*
X46979Y-28116D01*
X46979Y-27629D01*
X46972Y-27562D01*
X46947Y-27513D01*
X46897Y-27472D01*
X46852Y-27447D01*
X46767Y-27407D01*
X46682Y-27375D01*
X46583Y-27347D01*
X46462Y-27319D01*
X46427Y-27311D01*
X46323Y-27291D01*
X46247Y-27279D01*
X46192Y-27278D01*
X46151Y-27286D01*
X46117Y-27305D01*
X46084Y-27335D01*
X46082Y-27337D01*
X46041Y-27384D01*
X46023Y-27429D01*
X46020Y-27475D01*
X46037Y-27569D01*
X46084Y-27658D01*
X46156Y-27738D01*
X46247Y-27800D01*
X46316Y-27829D01*
X46394Y-27844D01*
X46494Y-27852D01*
X46601Y-27851D01*
X46702Y-27842D01*
X46775Y-27827D01*
X46869Y-27788D01*
X46936Y-27734D01*
X46973Y-27670D01*
X46979Y-27629D01*
X46979Y-28116D01*
X46954Y-28101D01*
X46900Y-28084D01*
X46833Y-28072D01*
X46758Y-28064D01*
X46683Y-28063D01*
X46616Y-28071D01*
X46591Y-28077D01*
X46536Y-28103D01*
X46471Y-28147D01*
X46430Y-28183D01*
X46373Y-28234D01*
X46325Y-28268D01*
X46269Y-28293D01*
X46193Y-28318D01*
X46151Y-28338D01*
X46133Y-28359D01*
X46141Y-28375D01*
X46167Y-28380D01*
X46222Y-28387D01*
X46244Y-28410D01*
X46237Y-28451D01*
X46231Y-28464D01*
X46199Y-28508D01*
X46152Y-28541D01*
X46081Y-28568D01*
X46041Y-28579D01*
X45992Y-28594D01*
X45971Y-28612D01*
X45969Y-28639D01*
X45978Y-28665D01*
X46005Y-28674D01*
X46038Y-28673D01*
X46095Y-28661D01*
X46144Y-28639D01*
X46188Y-28610D01*
X46177Y-28753D01*
X46166Y-28860D01*
X46153Y-28964D01*
X46138Y-29059D01*
X46123Y-29136D01*
X46109Y-29190D01*
X46098Y-29213D01*
X46091Y-29209D01*
X46077Y-29189D01*
X46053Y-29153D01*
X46021Y-29099D01*
X45979Y-29025D01*
X45926Y-28931D01*
X45863Y-28816D01*
X45787Y-28677D01*
X45699Y-28514D01*
X45599Y-28326D01*
X45484Y-28111D01*
X45355Y-27868D01*
X45211Y-27596D01*
X45051Y-27294D01*
X44964Y-27130D01*
X44919Y-27045D01*
X44869Y-26951D01*
X44825Y-26869D01*
X44825Y-26868D01*
X44784Y-26791D01*
X44734Y-26698D01*
X44686Y-26608D01*
X44676Y-26587D01*
X44576Y-26398D01*
X44487Y-26230D01*
X44410Y-26085D01*
X44345Y-25963D01*
X44294Y-25868D01*
X44258Y-25800D01*
X44237Y-25763D01*
X44234Y-25759D01*
X44209Y-25718D01*
X44304Y-25757D01*
X44357Y-25777D01*
X44434Y-25806D01*
X44526Y-25841D01*
X44624Y-25877D01*
X44644Y-25884D01*
X44747Y-25923D01*
X44850Y-25965D01*
X44944Y-26005D01*
X45017Y-26038D01*
X45024Y-26041D01*
X45094Y-26077D01*
X45140Y-26109D01*
X45172Y-26143D01*
X45201Y-26188D01*
X45206Y-26198D01*
X45234Y-26252D01*
X45274Y-26329D01*
X45323Y-26425D01*
X45379Y-26534D01*
X45439Y-26650D01*
X45500Y-26769D01*
X45560Y-26886D01*
X45617Y-26996D01*
X45667Y-27094D01*
X45707Y-27173D01*
X45737Y-27231D01*
X45751Y-27260D01*
X45781Y-27313D01*
X45808Y-27337D01*
X45843Y-27334D01*
X45888Y-27314D01*
X45951Y-27286D01*
X46022Y-27261D01*
X46038Y-27256D01*
X46120Y-27234D01*
X46058Y-27208D01*
X45957Y-27153D01*
X45880Y-27083D01*
X45828Y-27003D01*
X45804Y-26919D01*
X45809Y-26836D01*
X45847Y-26758D01*
X45849Y-26756D01*
X45933Y-26672D01*
X46043Y-26607D01*
X46181Y-26560D01*
X46349Y-26531D01*
X46464Y-26521D01*
X46638Y-26521D01*
X46797Y-26539D01*
X46938Y-26575D01*
X47057Y-26627D01*
X47148Y-26694D01*
X47168Y-26717D01*
X47204Y-26781D01*
X47204Y-26848D01*
X47168Y-26913D01*
X47156Y-26926D01*
X47118Y-26957D01*
X47061Y-26994D01*
X46995Y-27029D01*
X46932Y-27058D01*
X46925Y-27060D01*
X46925Y-26858D01*
X46911Y-26799D01*
X46874Y-26733D01*
X46831Y-26683D01*
X46757Y-26632D01*
X46664Y-26598D01*
X46561Y-26580D01*
X46452Y-26577D01*
X46348Y-26588D01*
X46253Y-26615D01*
X46176Y-26655D01*
X46123Y-26708D01*
X46111Y-26731D01*
X46098Y-26780D01*
X46101Y-26821D01*
X46134Y-26870D01*
X46202Y-26916D01*
X46301Y-26959D01*
X46430Y-26997D01*
X46536Y-27021D01*
X46638Y-27038D01*
X46714Y-27041D01*
X46772Y-27029D01*
X46821Y-27001D01*
X46866Y-26959D01*
X46901Y-26913D01*
X46922Y-26872D01*
X46925Y-26858D01*
X46925Y-27060D01*
X46883Y-27074D01*
X46868Y-27076D01*
X46835Y-27085D01*
X46826Y-27094D01*
X46831Y-27108D01*
X46852Y-27113D01*
X46901Y-27121D01*
X46968Y-27145D01*
X47042Y-27177D01*
X47109Y-27213D01*
X47158Y-27247D01*
X47164Y-27252D01*
X47198Y-27280D01*
X47218Y-27292D01*
X47221Y-27292D01*
X47231Y-27274D01*
X47256Y-27227D01*
X47294Y-27152D01*
X47345Y-27054D01*
X47407Y-26934D01*
X47478Y-26795D01*
X47557Y-26640D01*
X47643Y-26472D01*
X47734Y-26293D01*
X47746Y-26269D01*
X47787Y-26192D01*
X47819Y-26139D01*
X47849Y-26105D01*
X47882Y-26080D01*
X47908Y-26066D01*
X48013Y-26017D01*
X48142Y-25962D01*
X48286Y-25906D01*
X48428Y-25855D01*
X48509Y-25825D01*
X48586Y-25797D01*
X48646Y-25774D01*
X48667Y-25765D01*
X48712Y-25747D01*
X48741Y-25737D01*
X48745Y-25736D01*
X48745Y-25736D01*
X48300Y-28309D02*
X48292Y-28415D01*
X48266Y-28511D01*
X48217Y-28601D01*
X48145Y-28688D01*
X48045Y-28778D01*
X47915Y-28874D01*
X47858Y-28912D01*
X47770Y-28969D01*
X47680Y-29026D01*
X47592Y-29081D01*
X47513Y-29131D01*
X47445Y-29171D01*
X47397Y-29200D01*
X47373Y-29212D01*
X47371Y-29212D01*
X47369Y-29196D01*
X47370Y-29154D01*
X47372Y-29117D01*
X47383Y-28976D01*
X47393Y-28866D01*
X47402Y-28780D01*
X47413Y-28714D01*
X47424Y-28661D01*
X47438Y-28617D01*
X47455Y-28575D01*
X47470Y-28545D01*
X47508Y-28478D01*
X47562Y-28404D01*
X47636Y-28318D01*
X47722Y-28227D01*
X47794Y-28153D01*
X47860Y-28083D01*
X47914Y-28025D01*
X47952Y-27983D01*
X47962Y-27972D01*
X48009Y-27903D01*
X48057Y-27814D01*
X48099Y-27720D01*
X48119Y-27664D01*
X48138Y-27600D01*
X48150Y-27564D01*
X48157Y-27549D01*
X48162Y-27547D01*
X48164Y-27549D01*
X48173Y-27573D01*
X48187Y-27626D01*
X48204Y-27702D01*
X48222Y-27793D01*
X48241Y-27894D01*
X48259Y-27998D01*
X48275Y-28098D01*
X48288Y-28187D01*
X48297Y-28259D01*
X48300Y-28307D01*
X48300Y-28309D01*
X48300Y-28309D01*
X45538Y-29170D02*
X45528Y-29192D01*
X45524Y-29192D01*
X45500Y-29183D01*
X45454Y-29158D01*
X45394Y-29124D01*
X45362Y-29104D01*
X45189Y-28996D01*
X45044Y-28901D01*
X44926Y-28818D01*
X44832Y-28743D01*
X44758Y-28674D01*
X44702Y-28607D01*
X44661Y-28540D01*
X44632Y-28471D01*
X44611Y-28396D01*
X44607Y-28374D01*
X44602Y-28322D01*
X44604Y-28258D01*
X44613Y-28176D01*
X44631Y-28073D01*
X44658Y-27946D01*
X44693Y-27789D01*
X44721Y-27677D01*
X44742Y-27598D01*
X44761Y-27545D01*
X44776Y-27523D01*
X44786Y-27532D01*
X44789Y-27568D01*
X44798Y-27614D01*
X44822Y-27681D01*
X44856Y-27760D01*
X44897Y-27840D01*
X44940Y-27912D01*
X44943Y-27916D01*
X44985Y-27973D01*
X45044Y-28043D01*
X45112Y-28116D01*
X45153Y-28157D01*
X45221Y-28227D01*
X45287Y-28300D01*
X45341Y-28365D01*
X45365Y-28397D01*
X45401Y-28453D01*
X45430Y-28504D01*
X45454Y-28554D01*
X45473Y-28610D01*
X45488Y-28675D01*
X45501Y-28757D01*
X45513Y-28860D01*
X45526Y-28989D01*
X45538Y-29117D01*
X45538Y-29170D01*
X45538Y-29170D01*
X44458Y-27840D02*
X44453Y-27978D01*
X44437Y-28139D01*
X44428Y-28198D01*
X44415Y-28292D01*
X44403Y-28372D01*
X44395Y-28434D01*
X44391Y-28469D01*
X44390Y-28474D01*
X44388Y-28484D01*
X44376Y-28484D01*
X44352Y-28473D01*
X44311Y-28450D01*
X44250Y-28410D01*
X44164Y-28354D01*
X44128Y-28330D01*
X43982Y-28225D01*
X43844Y-28113D01*
X43718Y-27999D01*
X43608Y-27888D01*
X43521Y-27782D01*
X43460Y-27688D01*
X43453Y-27674D01*
X43401Y-27547D01*
X43354Y-27390D01*
X43311Y-27205D01*
X43273Y-26999D01*
X43242Y-26775D01*
X43218Y-26540D01*
X43215Y-26488D01*
X43205Y-26361D01*
X43198Y-26269D01*
X43198Y-26208D01*
X43204Y-26177D01*
X43220Y-26173D01*
X43248Y-26195D01*
X43289Y-26240D01*
X43345Y-26306D01*
X43365Y-26328D01*
X43426Y-26397D01*
X43508Y-26485D01*
X43605Y-26585D01*
X43708Y-26691D01*
X43815Y-26796D01*
X43879Y-26859D01*
X44000Y-26977D01*
X44098Y-27076D01*
X44176Y-27158D01*
X44237Y-27229D01*
X44285Y-27292D01*
X44324Y-27352D01*
X44355Y-27413D01*
X44384Y-27480D01*
X44394Y-27505D01*
X44429Y-27611D01*
X44450Y-27720D01*
X44458Y-27840D01*
X44458Y-27840D01*
X49783Y-26252D02*
X49779Y-26333D01*
X49772Y-26436D01*
X49761Y-26554D01*
X49749Y-26679D01*
X49736Y-26804D01*
X49721Y-26922D01*
X49706Y-27027D01*
X49692Y-27110D01*
X49692Y-27112D01*
X49663Y-27251D01*
X49629Y-27384D01*
X49594Y-27504D01*
X49559Y-27602D01*
X49527Y-27671D01*
X49445Y-27791D01*
X49333Y-27919D01*
X49197Y-28052D01*
X49038Y-28185D01*
X48863Y-28314D01*
X48715Y-28411D01*
X48595Y-28486D01*
X48561Y-28247D01*
X48539Y-28051D01*
X48530Y-27877D01*
X48533Y-27729D01*
X48550Y-27609D01*
X48562Y-27565D01*
X48608Y-27442D01*
X48661Y-27335D01*
X48728Y-27236D01*
X48814Y-27134D01*
X48925Y-27022D01*
X49093Y-26860D01*
X49250Y-26705D01*
X49392Y-26562D01*
X49514Y-26433D01*
X49614Y-26322D01*
X49649Y-26281D01*
X49776Y-26130D01*
X49782Y-26199D01*
X49783Y-26252D01*
X49783Y-26252D01*
X46705Y-28192D02*
X46696Y-28216D01*
X46652Y-28242D01*
X46645Y-28245D01*
X46593Y-28261D01*
X46542Y-28270D01*
X46502Y-28269D01*
X46481Y-28261D01*
X46483Y-28251D01*
X46510Y-28227D01*
X46558Y-28203D01*
X46612Y-28182D01*
X46658Y-28172D01*
X46679Y-28173D01*
X46705Y-28192D01*
X46705Y-28192D01*
X52134Y-26964D02*
X52132Y-26981D01*
X52120Y-26999D01*
X52095Y-27019D01*
X52053Y-27047D01*
X51990Y-27085D01*
X51928Y-27120D01*
X51928Y-26924D01*
X51915Y-26914D01*
X51903Y-26909D01*
X51855Y-26895D01*
X51797Y-26880D01*
X51739Y-26868D01*
X51692Y-26861D01*
X51669Y-26861D01*
X51668Y-26861D01*
X51663Y-26882D01*
X51666Y-26923D01*
X51673Y-26973D01*
X51683Y-27019D01*
X51694Y-27049D01*
X51700Y-27054D01*
X51721Y-27044D01*
X51766Y-27021D01*
X51824Y-26991D01*
X51830Y-26988D01*
X51890Y-26956D01*
X51921Y-26936D01*
X51928Y-26924D01*
X51928Y-27120D01*
X51901Y-27135D01*
X51835Y-27173D01*
X51719Y-27239D01*
X51631Y-27288D01*
X51566Y-27323D01*
X51521Y-27346D01*
X51493Y-27356D01*
X51476Y-27357D01*
X51468Y-27350D01*
X51463Y-27337D01*
X51461Y-27327D01*
X51450Y-27274D01*
X51443Y-27238D01*
X51441Y-27206D01*
X51457Y-27184D01*
X51500Y-27162D01*
X51506Y-27159D01*
X51553Y-27133D01*
X51571Y-27109D01*
X51570Y-27103D01*
X51564Y-27075D01*
X51557Y-27021D01*
X51549Y-26954D01*
X51549Y-26951D01*
X51537Y-26871D01*
X51519Y-26821D01*
X51490Y-26795D01*
X51445Y-26787D01*
X51435Y-26787D01*
X51406Y-26783D01*
X51388Y-26766D01*
X51376Y-26728D01*
X51367Y-26678D01*
X51355Y-26600D01*
X51407Y-26610D01*
X51446Y-26618D01*
X51512Y-26635D01*
X51597Y-26657D01*
X51694Y-26682D01*
X51792Y-26710D01*
X51887Y-26736D01*
X51969Y-26760D01*
X52030Y-26779D01*
X52034Y-26780D01*
X52087Y-26800D01*
X52113Y-26821D01*
X52120Y-26849D01*
X52124Y-26898D01*
X52131Y-26945D01*
X52134Y-26964D01*
X52134Y-26964D01*
X41460Y-27118D02*
X41448Y-27192D01*
X41438Y-27242D01*
X41430Y-27275D01*
X41427Y-27280D01*
X41424Y-27285D01*
X41416Y-27289D01*
X41399Y-27290D01*
X41370Y-27288D01*
X41323Y-27283D01*
X41254Y-27274D01*
X41158Y-27261D01*
X41042Y-27245D01*
X40940Y-27230D01*
X40850Y-27217D01*
X40780Y-27206D01*
X40735Y-27199D01*
X40721Y-27196D01*
X40720Y-27176D01*
X40725Y-27129D01*
X40733Y-27064D01*
X40744Y-26988D01*
X40756Y-26911D01*
X40767Y-26840D01*
X40777Y-26784D01*
X40784Y-26751D01*
X40786Y-26747D01*
X40810Y-26742D01*
X40849Y-26745D01*
X40900Y-26755D01*
X40888Y-26895D01*
X40875Y-27035D01*
X40941Y-27047D01*
X40998Y-27053D01*
X41029Y-27041D01*
X41041Y-27006D01*
X41042Y-26989D01*
X41045Y-26937D01*
X41053Y-26877D01*
X41053Y-26873D01*
X41064Y-26828D01*
X41082Y-26809D01*
X41121Y-26805D01*
X41127Y-26805D01*
X41189Y-26805D01*
X41183Y-26945D01*
X41178Y-27085D01*
X41319Y-27102D01*
X41460Y-27118D01*
X41460Y-27118D01*
X50038Y-24907D02*
X50035Y-24954D01*
X50024Y-25028D01*
X50007Y-25120D01*
X49988Y-25221D01*
X49967Y-25322D01*
X49945Y-25414D01*
X49925Y-25488D01*
X49918Y-25511D01*
X49834Y-25726D01*
X49729Y-25922D01*
X49608Y-26093D01*
X49492Y-26216D01*
X49441Y-26262D01*
X49371Y-26323D01*
X49290Y-26394D01*
X49206Y-26464D01*
X49189Y-26478D01*
X49003Y-26649D01*
X48849Y-26820D01*
X48731Y-26989D01*
X48718Y-27010D01*
X48688Y-27063D01*
X48665Y-27100D01*
X48655Y-27113D01*
X48651Y-27095D01*
X48645Y-27050D01*
X48636Y-26982D01*
X48627Y-26899D01*
X48627Y-26897D01*
X48613Y-26729D01*
X48611Y-26569D01*
X48618Y-26424D01*
X48634Y-26301D01*
X48660Y-26207D01*
X48716Y-26096D01*
X48795Y-25982D01*
X48890Y-25877D01*
X48943Y-25828D01*
X48995Y-25791D01*
X49069Y-25745D01*
X49157Y-25695D01*
X49250Y-25647D01*
X49260Y-25642D01*
X49424Y-25559D01*
X49558Y-25479D01*
X49669Y-25398D01*
X49762Y-25310D01*
X49844Y-25211D01*
X49920Y-25095D01*
X49968Y-25008D01*
X49999Y-24952D01*
X50024Y-24915D01*
X50037Y-24903D01*
X50038Y-24907D01*
X50038Y-24907D01*
X44333Y-26410D02*
X44332Y-26609D01*
X44315Y-26800D01*
X44305Y-26877D01*
X44295Y-26938D01*
X44287Y-26976D01*
X44283Y-26985D01*
X44269Y-26971D01*
X44243Y-26934D01*
X44210Y-26882D01*
X44175Y-26831D01*
X44119Y-26763D01*
X44041Y-26678D01*
X43941Y-26573D01*
X43816Y-26448D01*
X43666Y-26302D01*
X43520Y-26162D01*
X43388Y-26022D01*
X43278Y-25873D01*
X43186Y-25709D01*
X43110Y-25524D01*
X43046Y-25313D01*
X43026Y-25230D01*
X42999Y-25114D01*
X42981Y-25031D01*
X42970Y-24977D01*
X42968Y-24950D01*
X42973Y-24946D01*
X42986Y-24963D01*
X43007Y-24997D01*
X43019Y-25018D01*
X43103Y-25139D01*
X43207Y-25251D01*
X43314Y-25338D01*
X43356Y-25364D01*
X43423Y-25401D01*
X43507Y-25445D01*
X43601Y-25493D01*
X43650Y-25516D01*
X43835Y-25616D01*
X43988Y-25718D01*
X44110Y-25828D01*
X44204Y-25948D01*
X44271Y-26083D01*
X44314Y-26235D01*
X44333Y-26410D01*
X44333Y-26410D01*
X41448Y-26255D02*
X41442Y-26293D01*
X41426Y-26354D01*
X41414Y-26397D01*
X41390Y-26451D01*
X41354Y-26473D01*
X41297Y-26468D01*
X41291Y-26466D01*
X41272Y-26461D01*
X41263Y-26452D01*
X41263Y-26432D01*
X41272Y-26394D01*
X41291Y-26328D01*
X41295Y-26315D01*
X41332Y-26193D01*
X41394Y-26212D01*
X41425Y-26222D01*
X41443Y-26234D01*
X41448Y-26255D01*
X41448Y-26255D01*
X51967Y-26150D02*
X51966Y-26153D01*
X51947Y-26148D01*
X51901Y-26132D01*
X51835Y-26111D01*
X51767Y-26087D01*
X51690Y-26062D01*
X51627Y-26042D01*
X51584Y-26030D01*
X51570Y-26029D01*
X51559Y-26045D01*
X51533Y-26087D01*
X51495Y-26148D01*
X51450Y-26221D01*
X51442Y-26234D01*
X51395Y-26309D01*
X51357Y-26372D01*
X51329Y-26417D01*
X51316Y-26438D01*
X51315Y-26439D01*
X51307Y-26426D01*
X51290Y-26388D01*
X51272Y-26341D01*
X51233Y-26239D01*
X51344Y-26059D01*
X51387Y-25988D01*
X51420Y-25929D01*
X51442Y-25888D01*
X51446Y-25872D01*
X51427Y-25873D01*
X51382Y-25885D01*
X51320Y-25904D01*
X51305Y-25909D01*
X51227Y-25935D01*
X51175Y-25948D01*
X51145Y-25949D01*
X51128Y-25937D01*
X51119Y-25913D01*
X51117Y-25904D01*
X51104Y-25856D01*
X51096Y-25825D01*
X51099Y-25812D01*
X51118Y-25797D01*
X51157Y-25778D01*
X51219Y-25753D01*
X51309Y-25721D01*
X51411Y-25685D01*
X51513Y-25650D01*
X51604Y-25620D01*
X51678Y-25595D01*
X51729Y-25579D01*
X51751Y-25573D01*
X51752Y-25573D01*
X51767Y-25589D01*
X51788Y-25628D01*
X51798Y-25653D01*
X51827Y-25733D01*
X51689Y-25779D01*
X51625Y-25801D01*
X51576Y-25821D01*
X51551Y-25834D01*
X51550Y-25836D01*
X51566Y-25846D01*
X51609Y-25864D01*
X51672Y-25888D01*
X51727Y-25906D01*
X51801Y-25932D01*
X51861Y-25954D01*
X51899Y-25969D01*
X51910Y-25974D01*
X51919Y-25995D01*
X51934Y-26035D01*
X51949Y-26083D01*
X51961Y-26125D01*
X51967Y-26150D01*
X51967Y-26150D01*
X41908Y-25463D02*
X41903Y-25549D01*
X41903Y-25551D01*
X41886Y-25607D01*
X41859Y-25675D01*
X41826Y-25748D01*
X41791Y-25818D01*
X41758Y-25878D01*
X41753Y-25885D01*
X41753Y-25565D01*
X41748Y-25515D01*
X41716Y-25489D01*
X41670Y-25487D01*
X41627Y-25498D01*
X41594Y-25529D01*
X41572Y-25565D01*
X41547Y-25610D01*
X41532Y-25643D01*
X41531Y-25650D01*
X41545Y-25666D01*
X41581Y-25689D01*
X41624Y-25711D01*
X41663Y-25727D01*
X41682Y-25730D01*
X41697Y-25712D01*
X41719Y-25671D01*
X41732Y-25640D01*
X41753Y-25565D01*
X41753Y-25885D01*
X41731Y-25919D01*
X41713Y-25935D01*
X41688Y-25927D01*
X41636Y-25906D01*
X41563Y-25875D01*
X41474Y-25836D01*
X41465Y-25832D01*
X41465Y-25453D01*
X41452Y-25425D01*
X41447Y-25420D01*
X41400Y-25393D01*
X41352Y-25401D01*
X41310Y-25440D01*
X41298Y-25459D01*
X41279Y-25513D01*
X41289Y-25549D01*
X41318Y-25570D01*
X41375Y-25589D01*
X41414Y-25579D01*
X41435Y-25551D01*
X41460Y-25492D01*
X41465Y-25453D01*
X41465Y-25832D01*
X41386Y-25796D01*
X41290Y-25752D01*
X41206Y-25713D01*
X41140Y-25681D01*
X41095Y-25660D01*
X41079Y-25652D01*
X41084Y-25634D01*
X41102Y-25591D01*
X41130Y-25530D01*
X41156Y-25476D01*
X41219Y-25361D01*
X41279Y-25280D01*
X41336Y-25231D01*
X41393Y-25212D01*
X41402Y-25212D01*
X41450Y-25222D01*
X41499Y-25248D01*
X41536Y-25282D01*
X41549Y-25311D01*
X41561Y-25343D01*
X41588Y-25346D01*
X41613Y-25330D01*
X41659Y-25307D01*
X41722Y-25304D01*
X41790Y-25320D01*
X41831Y-25339D01*
X41883Y-25392D01*
X41908Y-25463D01*
X41908Y-25463D01*
X51504Y-25080D02*
X51490Y-25127D01*
X51453Y-25162D01*
X51451Y-25163D01*
X51397Y-25195D01*
X51386Y-25144D01*
X51365Y-25059D01*
X51348Y-25001D01*
X51329Y-24961D01*
X51306Y-24932D01*
X51297Y-24922D01*
X51264Y-24894D01*
X51243Y-24891D01*
X51221Y-24908D01*
X51206Y-24927D01*
X51200Y-24953D01*
X51200Y-24995D01*
X51208Y-25060D01*
X51212Y-25085D01*
X51222Y-25166D01*
X51223Y-25223D01*
X51217Y-25265D01*
X51208Y-25291D01*
X51161Y-25361D01*
X51095Y-25404D01*
X51016Y-25414D01*
X50953Y-25401D01*
X50870Y-25354D01*
X50803Y-25276D01*
X50756Y-25174D01*
X50754Y-25167D01*
X50733Y-25091D01*
X50729Y-25040D01*
X50741Y-25004D01*
X50772Y-24978D01*
X50783Y-24971D01*
X50821Y-24951D01*
X50843Y-24944D01*
X50844Y-24944D01*
X50849Y-24963D01*
X50858Y-25007D01*
X50868Y-25053D01*
X50895Y-25152D01*
X50930Y-25216D01*
X50973Y-25245D01*
X50991Y-25248D01*
X51024Y-25242D01*
X51042Y-25221D01*
X51048Y-25179D01*
X51042Y-25111D01*
X51036Y-25072D01*
X51028Y-24953D01*
X51044Y-24859D01*
X51082Y-24793D01*
X51144Y-24753D01*
X51221Y-24741D01*
X51304Y-24758D01*
X51378Y-24810D01*
X51440Y-24896D01*
X51458Y-24930D01*
X51493Y-25016D01*
X51504Y-25080D01*
X51504Y-25080D01*
X42438Y-24579D02*
X42433Y-24666D01*
X42413Y-24746D01*
X42401Y-24774D01*
X42333Y-24873D01*
X42276Y-24920D01*
X42276Y-24601D01*
X42252Y-24527D01*
X42201Y-24464D01*
X42199Y-24462D01*
X42123Y-24417D01*
X42044Y-24403D01*
X41969Y-24416D01*
X41906Y-24454D01*
X41860Y-24515D01*
X41839Y-24595D01*
X41838Y-24614D01*
X41854Y-24692D01*
X41898Y-24756D01*
X41961Y-24802D01*
X42036Y-24826D01*
X42117Y-24826D01*
X42194Y-24796D01*
X42247Y-24745D01*
X42275Y-24676D01*
X42276Y-24601D01*
X42276Y-24920D01*
X42245Y-24947D01*
X42144Y-24992D01*
X42035Y-25008D01*
X41937Y-24993D01*
X41874Y-24963D01*
X41806Y-24911D01*
X41746Y-24850D01*
X41705Y-24789D01*
X41702Y-24782D01*
X41676Y-24677D01*
X41682Y-24572D01*
X41716Y-24472D01*
X41774Y-24383D01*
X41853Y-24310D01*
X41948Y-24259D01*
X42055Y-24235D01*
X42079Y-24234D01*
X42188Y-24251D01*
X42285Y-24301D01*
X42370Y-24385D01*
X42408Y-24437D01*
X42430Y-24498D01*
X42438Y-24579D01*
X42438Y-24579D01*
X50870Y-24080D02*
X50812Y-24132D01*
X50774Y-24164D01*
X50717Y-24212D01*
X50647Y-24269D01*
X50586Y-24318D01*
X50513Y-24380D01*
X50461Y-24429D01*
X50434Y-24463D01*
X50431Y-24475D01*
X50448Y-24499D01*
X50482Y-24542D01*
X50521Y-24589D01*
X50561Y-24639D01*
X50590Y-24679D01*
X50600Y-24700D01*
X50586Y-24720D01*
X50556Y-24747D01*
X50522Y-24770D01*
X50502Y-24777D01*
X50488Y-24764D01*
X50458Y-24730D01*
X50419Y-24682D01*
X50371Y-24621D01*
X50324Y-24561D01*
X50295Y-24525D01*
X50258Y-24480D01*
X50227Y-24443D01*
X50220Y-24437D01*
X50208Y-24418D01*
X50215Y-24398D01*
X50247Y-24368D01*
X50265Y-24354D01*
X50304Y-24322D01*
X50365Y-24272D01*
X50438Y-24211D01*
X50517Y-24145D01*
X50544Y-24122D01*
X50754Y-23948D01*
X50812Y-24014D01*
X50870Y-24080D01*
X50870Y-24080D01*
X43172Y-23756D02*
X43159Y-23856D01*
X43144Y-23899D01*
X43116Y-23944D01*
X43071Y-23999D01*
X43006Y-24068D01*
X43002Y-24071D01*
X43002Y-23800D01*
X42989Y-23723D01*
X42941Y-23647D01*
X42874Y-23592D01*
X42798Y-23568D01*
X42722Y-23577D01*
X42711Y-23581D01*
X42673Y-23603D01*
X42628Y-23636D01*
X42584Y-23672D01*
X42553Y-23703D01*
X42544Y-23719D01*
X42555Y-23736D01*
X42586Y-23773D01*
X42630Y-23822D01*
X42681Y-23878D01*
X42732Y-23933D01*
X42779Y-23982D01*
X42815Y-24018D01*
X42833Y-24034D01*
X42835Y-24034D01*
X42851Y-24023D01*
X42885Y-23992D01*
X42919Y-23958D01*
X42978Y-23879D01*
X43002Y-23800D01*
X43002Y-24071D01*
X42980Y-24094D01*
X42919Y-24154D01*
X42865Y-24204D01*
X42825Y-24239D01*
X42805Y-24252D01*
X42804Y-24252D01*
X42786Y-24240D01*
X42749Y-24205D01*
X42697Y-24153D01*
X42637Y-24090D01*
X42623Y-24076D01*
X42554Y-24001D01*
X42486Y-23926D01*
X42427Y-23862D01*
X42385Y-23816D01*
X42384Y-23816D01*
X42308Y-23732D01*
X42440Y-23615D01*
X42526Y-23540D01*
X42592Y-23485D01*
X42645Y-23449D01*
X42690Y-23427D01*
X42734Y-23415D01*
X42784Y-23411D01*
X42818Y-23410D01*
X42887Y-23412D01*
X42934Y-23421D01*
X42974Y-23440D01*
X43008Y-23466D01*
X43098Y-23557D01*
X43153Y-23653D01*
X43172Y-23756D01*
X43172Y-23756D01*
X50310Y-23637D02*
X50294Y-23745D01*
X50248Y-23841D01*
X50180Y-23918D01*
X50129Y-23952D01*
X50129Y-23603D01*
X50124Y-23552D01*
X50102Y-23512D01*
X50065Y-23476D01*
X50013Y-23438D01*
X49960Y-23421D01*
X49919Y-23420D01*
X49862Y-23424D01*
X49819Y-23443D01*
X49775Y-23482D01*
X49721Y-23559D01*
X49699Y-23641D01*
X49711Y-23722D01*
X49714Y-23730D01*
X49757Y-23792D01*
X49821Y-23833D01*
X49895Y-23852D01*
X49970Y-23845D01*
X50027Y-23816D01*
X50091Y-23744D01*
X50125Y-23654D01*
X50129Y-23603D01*
X50129Y-23952D01*
X50094Y-23976D01*
X49996Y-24009D01*
X49892Y-24014D01*
X49787Y-23988D01*
X49776Y-23982D01*
X49708Y-23940D01*
X49640Y-23881D01*
X49584Y-23816D01*
X49551Y-23757D01*
X49531Y-23656D01*
X49539Y-23549D01*
X49574Y-23448D01*
X49627Y-23370D01*
X49712Y-23301D01*
X49809Y-23264D01*
X49892Y-23257D01*
X50001Y-23269D01*
X50097Y-23309D01*
X50163Y-23357D01*
X50210Y-23409D01*
X50256Y-23479D01*
X50290Y-23554D01*
X50308Y-23620D01*
X50310Y-23637D01*
X50310Y-23637D01*
X43863Y-23419D02*
X43863Y-23427D01*
X43814Y-23461D01*
X43770Y-23490D01*
X43741Y-23508D01*
X43734Y-23510D01*
X43722Y-23496D01*
X43695Y-23458D01*
X43658Y-23403D01*
X43636Y-23370D01*
X43545Y-23230D01*
X43325Y-23141D01*
X43243Y-23108D01*
X43176Y-23080D01*
X43128Y-23059D01*
X43106Y-23049D01*
X43106Y-23048D01*
X43120Y-23035D01*
X43156Y-23012D01*
X43202Y-22987D01*
X43248Y-22964D01*
X43281Y-22950D01*
X43290Y-22949D01*
X43317Y-22956D01*
X43367Y-22975D01*
X43425Y-23002D01*
X43486Y-23029D01*
X43524Y-23038D01*
X43546Y-23027D01*
X43555Y-22989D01*
X43558Y-22920D01*
X43558Y-22885D01*
X43558Y-22771D01*
X43650Y-22714D01*
X43743Y-22657D01*
X43732Y-22762D01*
X43720Y-22888D01*
X43712Y-22984D01*
X43707Y-23054D01*
X43707Y-23106D01*
X43712Y-23145D01*
X43722Y-23176D01*
X43738Y-23206D01*
X43759Y-23238D01*
X43762Y-23243D01*
X43814Y-23325D01*
X43848Y-23384D01*
X43863Y-23419D01*
X43863Y-23419D01*
X49418Y-22964D02*
X49417Y-22970D01*
X49392Y-23057D01*
X49342Y-23120D01*
X49273Y-23155D01*
X49237Y-23157D01*
X49237Y-22938D01*
X49228Y-22889D01*
X49189Y-22847D01*
X49174Y-22839D01*
X49135Y-22820D01*
X49112Y-22808D01*
X49098Y-22819D01*
X49076Y-22851D01*
X49053Y-22892D01*
X49034Y-22930D01*
X49027Y-22955D01*
X49028Y-22957D01*
X49055Y-22974D01*
X49097Y-22995D01*
X49138Y-23013D01*
X49162Y-23021D01*
X49188Y-23009D01*
X49214Y-22986D01*
X49237Y-22938D01*
X49237Y-23157D01*
X49188Y-23161D01*
X49091Y-23138D01*
X49052Y-23120D01*
X48961Y-23076D01*
X48930Y-23117D01*
X48903Y-23158D01*
X48872Y-23214D01*
X48861Y-23234D01*
X48836Y-23279D01*
X48817Y-23306D01*
X48810Y-23310D01*
X48788Y-23302D01*
X48747Y-23282D01*
X48730Y-23273D01*
X48661Y-23237D01*
X48736Y-23097D01*
X48779Y-23019D01*
X48832Y-22924D01*
X48885Y-22828D01*
X48911Y-22781D01*
X49011Y-22605D01*
X49156Y-22682D01*
X49275Y-22754D01*
X49358Y-22824D01*
X49406Y-22895D01*
X49418Y-22964D01*
X49418Y-22964D01*
X45358Y-22820D02*
X45347Y-22832D01*
X45309Y-22846D01*
X45260Y-22858D01*
X45216Y-22867D01*
X45182Y-22871D01*
X45151Y-22868D01*
X45118Y-22854D01*
X45074Y-22826D01*
X45015Y-22783D01*
X44933Y-22721D01*
X44928Y-22717D01*
X44876Y-22680D01*
X44835Y-22655D01*
X44814Y-22646D01*
X44813Y-22647D01*
X44813Y-22668D01*
X44822Y-22714D01*
X44837Y-22777D01*
X44842Y-22794D01*
X44862Y-22871D01*
X44874Y-22920D01*
X44875Y-22949D01*
X44865Y-22964D01*
X44844Y-22971D01*
X44830Y-22975D01*
X44781Y-22987D01*
X44749Y-22996D01*
X44720Y-22996D01*
X44711Y-22990D01*
X44703Y-22968D01*
X44689Y-22918D01*
X44670Y-22847D01*
X44646Y-22762D01*
X44622Y-22668D01*
X44597Y-22573D01*
X44575Y-22485D01*
X44556Y-22409D01*
X44542Y-22353D01*
X44535Y-22323D01*
X44535Y-22321D01*
X44551Y-22306D01*
X44592Y-22291D01*
X44617Y-22285D01*
X44698Y-22266D01*
X44715Y-22331D01*
X44731Y-22393D01*
X44749Y-22462D01*
X44752Y-22474D01*
X44767Y-22519D01*
X44781Y-22542D01*
X44786Y-22543D01*
X44798Y-22524D01*
X44820Y-22479D01*
X44848Y-22415D01*
X44870Y-22363D01*
X44905Y-22284D01*
X44931Y-22231D01*
X44953Y-22201D01*
X44975Y-22186D01*
X44990Y-22182D01*
X45048Y-22169D01*
X45086Y-22160D01*
X45133Y-22148D01*
X45094Y-22236D01*
X45042Y-22360D01*
X45005Y-22453D01*
X44986Y-22515D01*
X44982Y-22546D01*
X44985Y-22550D01*
X45058Y-22600D01*
X45135Y-22654D01*
X45209Y-22707D01*
X45273Y-22754D01*
X45324Y-22792D01*
X45353Y-22815D01*
X45358Y-22820D01*
X45358Y-22820D01*
X48102Y-22372D02*
X48095Y-22429D01*
X48069Y-22474D01*
X48045Y-22499D01*
X48010Y-22533D01*
X48001Y-22554D01*
X48013Y-22570D01*
X48016Y-22574D01*
X48056Y-22624D01*
X48071Y-22691D01*
X48065Y-22763D01*
X48036Y-22828D01*
X48005Y-22863D01*
X47950Y-22885D01*
X47920Y-22887D01*
X47920Y-22378D01*
X47917Y-22338D01*
X47900Y-22316D01*
X47861Y-22300D01*
X47846Y-22297D01*
X47791Y-22286D01*
X47758Y-22294D01*
X47740Y-22330D01*
X47730Y-22373D01*
X47724Y-22417D01*
X47733Y-22438D01*
X47760Y-22447D01*
X47826Y-22457D01*
X47871Y-22455D01*
X47892Y-22449D01*
X47914Y-22422D01*
X47920Y-22378D01*
X47920Y-22887D01*
X47896Y-22889D01*
X47896Y-22687D01*
X47893Y-22658D01*
X47879Y-22634D01*
X47848Y-22607D01*
X47800Y-22583D01*
X47748Y-22565D01*
X47704Y-22558D01*
X47681Y-22565D01*
X47671Y-22589D01*
X47660Y-22636D01*
X47657Y-22654D01*
X47651Y-22702D01*
X47657Y-22726D01*
X47680Y-22738D01*
X47697Y-22741D01*
X47740Y-22752D01*
X47767Y-22759D01*
X47823Y-22764D01*
X47867Y-22736D01*
X47877Y-22722D01*
X47896Y-22687D01*
X47896Y-22889D01*
X47867Y-22892D01*
X47759Y-22882D01*
X47630Y-22855D01*
X47607Y-22849D01*
X47536Y-22830D01*
X47479Y-22814D01*
X47445Y-22803D01*
X47440Y-22800D01*
X47442Y-22781D01*
X47452Y-22734D01*
X47469Y-22665D01*
X47490Y-22582D01*
X47514Y-22489D01*
X47539Y-22395D01*
X47564Y-22305D01*
X47586Y-22226D01*
X47604Y-22165D01*
X47616Y-22129D01*
X47619Y-22121D01*
X47646Y-22117D01*
X47697Y-22125D01*
X47764Y-22142D01*
X47839Y-22165D01*
X47915Y-22192D01*
X47982Y-22221D01*
X48033Y-22248D01*
X48043Y-22255D01*
X48083Y-22292D01*
X48099Y-22332D01*
X48102Y-22372D01*
X48102Y-22372D01*
X46112Y-22725D02*
X45934Y-22747D01*
X45851Y-22758D01*
X45775Y-22769D01*
X45717Y-22777D01*
X45699Y-22780D01*
X45652Y-22782D01*
X45632Y-22765D01*
X45628Y-22739D01*
X45620Y-22686D01*
X45611Y-22612D01*
X45601Y-22524D01*
X45590Y-22428D01*
X45579Y-22331D01*
X45569Y-22241D01*
X45561Y-22164D01*
X45555Y-22105D01*
X45553Y-22074D01*
X45554Y-22070D01*
X45573Y-22066D01*
X45616Y-22058D01*
X45641Y-22054D01*
X45724Y-22042D01*
X45757Y-22334D01*
X45789Y-22625D01*
X45900Y-22613D01*
X45987Y-22603D01*
X46045Y-22599D01*
X46079Y-22601D01*
X46097Y-22611D01*
X46104Y-22631D01*
X46107Y-22660D01*
X46112Y-22725D01*
X46112Y-22725D01*
X47125Y-22026D02*
X47116Y-22111D01*
X47111Y-22171D01*
X47104Y-22250D01*
X47098Y-22337D01*
X47096Y-22360D01*
X47082Y-22478D01*
X47057Y-22566D01*
X47019Y-22632D01*
X46963Y-22681D01*
X46943Y-22693D01*
X46861Y-22722D01*
X46763Y-22733D01*
X46663Y-22724D01*
X46575Y-22697D01*
X46570Y-22695D01*
X46514Y-22660D01*
X46473Y-22618D01*
X46444Y-22561D01*
X46426Y-22486D01*
X46419Y-22389D01*
X46421Y-22264D01*
X46430Y-22139D01*
X46442Y-21989D01*
X46531Y-21989D01*
X46620Y-21989D01*
X46607Y-22193D01*
X46602Y-22275D01*
X46599Y-22343D01*
X46596Y-22389D01*
X46595Y-22406D01*
X46604Y-22492D01*
X46637Y-22549D01*
X46692Y-22580D01*
X46748Y-22587D01*
X46804Y-22583D01*
X46846Y-22570D01*
X46877Y-22542D01*
X46899Y-22495D01*
X46915Y-22425D01*
X46927Y-22327D01*
X46934Y-22220D01*
X46947Y-22026D01*
X47036Y-22026D01*
X47125Y-22026D01*
X47125Y-22026D01*
G54D14*
X90177Y-35181D03*
G54D15*
X90177Y-36181D03*
X90177Y-37181D03*
X90177Y-38181D03*
X90177Y-39181D03*
X90177Y-40181D03*
X90177Y-41181D03*
X90177Y-42181D03*
X90177Y-43181D03*
X90177Y-44181D03*
X90177Y-45181D03*
X90177Y-46181D03*
X90177Y-47181D03*
X90177Y-48181D03*
X90177Y-49181D03*
X90177Y-50181D03*
G54D16*
X39134Y-20079D03*
X41102Y-20079D03*
X43071Y-20079D03*
X45039Y-20079D03*
X47008Y-20079D03*
X48976Y-20079D03*
G54D17*
X67892Y-21113D03*
X58042Y-21113D03*
G54D18*
X60842Y-21663D03*
G54D19*
X61892Y-21663D03*
X62992Y-21663D03*
X64042Y-21663D03*
X65142Y-21663D03*
X61342Y-20563D03*
X62442Y-20563D03*
X63492Y-20563D03*
X64592Y-20563D03*
G54D20*
X66992Y-45272D03*
G54D21*
X66992Y-44272D03*
X66992Y-43272D03*
X66992Y-42272D03*
X66992Y-41272D03*
X66992Y-40272D03*
X66992Y-39272D03*
X66992Y-38272D03*
X63992Y-38272D03*
X63992Y-39272D03*
X63992Y-40272D03*
X63992Y-41272D03*
X63992Y-42272D03*
X63992Y-43272D03*
X63992Y-44272D03*
X63992Y-45272D03*
G54D20*
X89728Y-32484D03*
G54D21*
X89728Y-31484D03*
X89728Y-30484D03*
X89728Y-29484D03*
X86728Y-29484D03*
X86728Y-30484D03*
X86728Y-31484D03*
X86728Y-32484D03*
G54D20*
X71146Y-32484D03*
G54D21*
X71146Y-31484D03*
X71146Y-30484D03*
X71146Y-29484D03*
X68146Y-29484D03*
X68146Y-30484D03*
X68146Y-31484D03*
X68146Y-32484D03*
G54D20*
X77346Y-32484D03*
G54D21*
X77346Y-31484D03*
X77346Y-30484D03*
X77346Y-29484D03*
X74346Y-29484D03*
X74346Y-30484D03*
X74346Y-31484D03*
X74346Y-32484D03*
G54D20*
X84079Y-32484D03*
G54D21*
X84079Y-31484D03*
X84079Y-30484D03*
X84079Y-29484D03*
X81079Y-29484D03*
X81079Y-30484D03*
X81079Y-31484D03*
X81079Y-32484D03*
G54D22*
X78461Y-56693D03*
X76461Y-56693D03*
G54D23*
X44689Y-56299D03*
G54D22*
X38189Y-55299D03*
G54D24*
X38189Y-56299D03*
G54D22*
X38189Y-57299D03*
G54D23*
X62209Y-56240D03*
G54D22*
X55709Y-55240D03*
G54D24*
X55709Y-56240D03*
G54D22*
X55709Y-57240D03*
G54D18*
X88732Y-53083D03*
G54D19*
X88732Y-54083D03*
X87732Y-53083D03*
X87732Y-54083D03*
X86732Y-53083D03*
X86732Y-54083D03*
X85732Y-53083D03*
X85732Y-54083D03*
X84732Y-53083D03*
X84732Y-54083D03*
G54D25*
X33465Y-41634D03*
X31103Y-40847D03*
X31103Y-36043D03*
X35827Y-36043D03*
X35827Y-40847D03*
X52480Y-41634D03*
X50118Y-40847D03*
X50118Y-36043D03*
X54842Y-36043D03*
X54842Y-40847D03*
X58799Y-41654D03*
X56437Y-40867D03*
X56437Y-36063D03*
X61161Y-36063D03*
X61161Y-40867D03*
X39783Y-41634D03*
X37421Y-40847D03*
X37421Y-36043D03*
X42145Y-36043D03*
X42145Y-40847D03*
X46122Y-41634D03*
X43760Y-40847D03*
X43760Y-36043D03*
X48484Y-36043D03*
X48484Y-40847D03*
G54D26*
X74607Y-18307D03*
X79607Y-18307D03*
G54D19*
X78504Y-20000D03*
X78110Y-19213D03*
X77717Y-20000D03*
X77323Y-19213D03*
X76929Y-20000D03*
X76536Y-19213D03*
X76142Y-20000D03*
G54D27*
X73918Y-19646D03*
X80315Y-19646D03*
G54D19*
X78898Y-21890D03*
X75315Y-21890D03*
X79803Y-21890D03*
X74429Y-21900D03*
G54D18*
X75748Y-19213D03*
G54D26*
X82264Y-18307D03*
X87264Y-18307D03*
G54D19*
X86161Y-20000D03*
X85767Y-19213D03*
X85374Y-20000D03*
X84980Y-19213D03*
X84586Y-20000D03*
X84193Y-19213D03*
X83799Y-20000D03*
G54D27*
X81575Y-19646D03*
X87972Y-19646D03*
G54D19*
X86555Y-21890D03*
X82972Y-21890D03*
X87460Y-21890D03*
X82086Y-21900D03*
G54D18*
X83405Y-19213D03*
G54D15*
X34823Y-55343D03*
X34823Y-54343D03*
X79142Y-58346D03*
X78142Y-58346D03*
X75839Y-58346D03*
X76839Y-58346D03*
X78713Y-44724D03*
X79713Y-44724D03*
X78673Y-43051D03*
X79673Y-43051D03*
X34843Y-56724D03*
X34843Y-57724D03*
G54D14*
X74587Y-44333D03*
G54D15*
X74587Y-42833D03*
G54D14*
X71339Y-41636D03*
G54D15*
X71339Y-40136D03*
G54D14*
X71339Y-44289D03*
G54D15*
X71339Y-45789D03*
G54D14*
X71280Y-36533D03*
G54D15*
X71280Y-38033D03*
G54D14*
X30689Y-57738D03*
G54D15*
X30689Y-56238D03*
G54D14*
X36488Y-27402D03*
G54D15*
X37488Y-27402D03*
G54D14*
X85177Y-40280D03*
G54D15*
X85177Y-37280D03*
G54D14*
X33780Y-27386D03*
G54D15*
X33780Y-24386D03*
G54D14*
X60614Y-43917D03*
G54D15*
X57614Y-43917D03*
G54D14*
X54335Y-43937D03*
G54D15*
X51335Y-43937D03*
G54D14*
X47681Y-43878D03*
G54D15*
X44681Y-43878D03*
G54D14*
X41736Y-43898D03*
G54D15*
X38736Y-43898D03*
G54D14*
X35102Y-43957D03*
G54D15*
X32102Y-43957D03*
G54D14*
X78252Y-38740D03*
G54D15*
X75252Y-38740D03*
G54D14*
X77287Y-36181D03*
G54D15*
X74287Y-36181D03*
G54D14*
X79193Y-40280D03*
G54D15*
X79193Y-37280D03*
G54D25*
X33287Y-18622D03*
X31319Y-18622D03*
G54D15*
X34921Y-50752D03*
X34921Y-47752D03*
X41220Y-50772D03*
X41220Y-47772D03*
X47539Y-50575D03*
X47539Y-47575D03*
X54311Y-50535D03*
X54311Y-47535D03*
X74583Y-46161D03*
X77583Y-46161D03*
X63193Y-49035D03*
X60193Y-49035D03*
X90220Y-51161D03*
X87220Y-51161D03*
X86734Y-56220D03*
X90234Y-56220D03*
G54D28*
X86449Y-60783D03*
X82449Y-59783D03*
X86449Y-58783D03*
G54D29*
X47422Y-60138D03*
X46122Y-60138D03*
X75708Y-27402D03*
X77008Y-27402D03*
G54D14*
X51130Y-48531D03*
G54D15*
X51130Y-47531D03*
X50130Y-47531D03*
G54D14*
X44732Y-48551D03*
G54D15*
X44732Y-47551D03*
X43732Y-47551D03*
G54D14*
X38394Y-48807D03*
G54D15*
X38394Y-47807D03*
X37394Y-47807D03*
G54D14*
X32134Y-48787D03*
G54D15*
X32134Y-47787D03*
X31134Y-47787D03*
G54D14*
X57646Y-48551D03*
G54D15*
X57646Y-47551D03*
X56646Y-47551D03*
G54D18*
X83161Y-35531D03*
G54D19*
X82161Y-35531D03*
X81161Y-35531D03*
X80161Y-35531D03*
X79161Y-35531D03*
G54D29*
X50296Y-60138D03*
X48996Y-60138D03*
G54D18*
X77283Y-43043D03*
G54D19*
X77283Y-44043D03*
G54D18*
X81083Y-44043D03*
G54D19*
X81083Y-43043D03*
G54D30*
X33701Y-45669D03*
X33602Y-52776D03*
X75059Y-61260D03*
X72264Y-58602D03*
X88602Y-36181D03*
X85669Y-34193D03*
X68524Y-34508D03*
X78346Y-33701D03*
X74193Y-33661D03*
X61949Y-50079D03*
X40492Y-59035D03*
X72736Y-20157D03*
X73150Y-23406D03*
X43484Y-60138D03*
X69980Y-31496D03*
X75886Y-23268D03*
X75815Y-30484D03*
X79606Y-23091D03*
X82185Y-25433D03*
X82185Y-31398D03*
X86378Y-46220D03*
X83209Y-46260D03*
X86949Y-47539D03*
X83228Y-47618D03*
X76654Y-47677D03*
X85728Y-49941D03*
X82382Y-49882D03*
X65157Y-47559D03*
X75276Y-48622D03*
X88799Y-51339D03*
X82854Y-45453D03*
X85748Y-45512D03*
X75807Y-47972D03*
X85709Y-48169D03*
X83268Y-46909D03*
X86969Y-46909D03*
X86811Y-51260D03*
X82776Y-49488D03*
X82835Y-30551D03*
X87874Y-23839D03*
X91142Y-37126D03*
X84528Y-59823D03*
X87008Y-39764D03*
X82894Y-43996D03*
X88012Y-40531D03*
X83386Y-44823D03*
X82776Y-50335D03*
X65197Y-48484D03*
X86398Y-27185D03*
X85531Y-30354D03*
X88346Y-26969D03*
X88307Y-31142D03*
X76043Y-31476D03*
X77717Y-23917D03*
X75197Y-24744D03*
X69646Y-30492D03*
X73346Y-37717D03*
X81398Y-39094D03*
G54D31*
X33701Y-52677D02*
X33701Y-45669D01*
X33602Y-52776D02*
X33701Y-52677D01*
G54D32*
X74922Y-61260D02*
X75059Y-61260D01*
X72264Y-58602D02*
X74922Y-61260D01*
X86181Y-35374D02*
X85216Y-34409D01*
X87795Y-35374D02*
X86181Y-35374D01*
X88602Y-36181D02*
X87795Y-35374D01*
X77067Y-34094D02*
X77067Y-33661D01*
X77382Y-34409D02*
X77067Y-34094D01*
X85453Y-34409D02*
X85216Y-34409D01*
X85216Y-34409D02*
X77382Y-34409D01*
X85669Y-34193D02*
X85453Y-34409D01*
X74764Y-34114D02*
X74764Y-33661D01*
X74370Y-34508D02*
X74764Y-34114D01*
X68524Y-34508D02*
X74370Y-34508D01*
X78306Y-33661D02*
X77067Y-33661D01*
X78346Y-33701D02*
X78306Y-33661D01*
X77067Y-33661D02*
X74764Y-33661D01*
X74764Y-33661D02*
X74193Y-33661D01*
X40492Y-54390D02*
X40492Y-59035D01*
X42343Y-52539D02*
X40492Y-54390D01*
X59489Y-52539D02*
X42343Y-52539D01*
X61949Y-50079D02*
X59489Y-52539D01*
X49940Y-59035D02*
X50296Y-59391D01*
X50296Y-59391D02*
X50296Y-60138D01*
X40492Y-59035D02*
X49940Y-59035D01*
X72736Y-22992D02*
X72736Y-20157D01*
X73150Y-23406D02*
X72736Y-22992D01*
X46122Y-60138D02*
X43484Y-60138D01*
X73681Y-28071D02*
X70964Y-28071D01*
X70964Y-28071D02*
X70177Y-28858D01*
X70177Y-28858D02*
X70177Y-31299D01*
X70177Y-31299D02*
X69980Y-31496D01*
X75846Y-25906D02*
X73681Y-28071D01*
X75846Y-23308D02*
X75846Y-25906D01*
X75886Y-23268D02*
X75846Y-23308D01*
X77519Y-23091D02*
X79606Y-23091D01*
X76141Y-24469D02*
X77519Y-23091D01*
X76122Y-24469D02*
X76122Y-26457D01*
X76122Y-26457D02*
X76122Y-27126D01*
X76122Y-27126D02*
X76122Y-28288D01*
X76122Y-28288D02*
X76122Y-30177D01*
X76122Y-30177D02*
X75815Y-30484D01*
X76122Y-24469D02*
X76141Y-24469D01*
X75846Y-27402D02*
X76122Y-27126D01*
X75708Y-27402D02*
X75846Y-27402D01*
X76122Y-26535D02*
X75708Y-26949D01*
X75708Y-26949D02*
X75708Y-27402D01*
X76122Y-26457D02*
X76122Y-26535D01*
X75708Y-27874D02*
X76122Y-28288D01*
X75708Y-27402D02*
X75708Y-27874D01*
X82185Y-25433D02*
X82185Y-31398D01*
X48996Y-60138D02*
X47422Y-60138D01*
X83249Y-46220D02*
X86378Y-46220D01*
X83209Y-46260D02*
X83249Y-46220D01*
X83307Y-47539D02*
X86949Y-47539D01*
X83228Y-47618D02*
X83307Y-47539D01*
X85158Y-48760D02*
X81319Y-48760D01*
X85748Y-49350D02*
X85748Y-49921D01*
X81319Y-48760D02*
X80827Y-49252D01*
X80827Y-49252D02*
X78229Y-49252D01*
X78229Y-49252D02*
X76654Y-47677D01*
X85748Y-49921D02*
X85728Y-49941D01*
X85748Y-49350D02*
X85158Y-48760D01*
X73386Y-47559D02*
X65157Y-47559D01*
X75768Y-49941D02*
X73386Y-47559D01*
X82323Y-49941D02*
X75768Y-49941D01*
X82382Y-49882D02*
X82323Y-49941D01*
X83622Y-49114D02*
X84558Y-50050D01*
X88189Y-50729D02*
X88799Y-51339D01*
X76241Y-49587D02*
X81437Y-49587D01*
X75276Y-48622D02*
X76241Y-49587D01*
X84716Y-50050D02*
X85099Y-50433D01*
X82618Y-49114D02*
X83622Y-49114D01*
X85099Y-50433D02*
X87874Y-50433D01*
X87874Y-50433D02*
X88189Y-50748D01*
X88189Y-50748D02*
X88189Y-50729D01*
X84558Y-50050D02*
X84716Y-50050D01*
X81437Y-49527D02*
X81830Y-49134D01*
X81830Y-49134D02*
X82618Y-49134D01*
X82618Y-49134D02*
X82618Y-49114D01*
X81437Y-49587D02*
X81437Y-49527D01*
X85689Y-45453D02*
X82854Y-45453D01*
X85748Y-45512D02*
X85689Y-45453D01*
X76200Y-46949D02*
X75807Y-47342D01*
X77186Y-46949D02*
X76200Y-46949D01*
X78643Y-48406D02*
X77186Y-46949D01*
X85472Y-48406D02*
X78643Y-48406D01*
X85709Y-48169D02*
X85472Y-48406D01*
X75807Y-47342D02*
X75807Y-47972D01*
X86969Y-46909D02*
X83268Y-46909D01*
X83288Y-49961D02*
X84114Y-50787D01*
X84114Y-50787D02*
X86338Y-50787D01*
X86338Y-50787D02*
X86811Y-51260D01*
X82776Y-49488D02*
X83249Y-49961D01*
X83249Y-49961D02*
X83288Y-49961D01*
X82835Y-28524D02*
X82835Y-30551D01*
X87874Y-23839D02*
X83189Y-28524D01*
X83189Y-28524D02*
X82835Y-28524D01*
X91319Y-37303D02*
X91142Y-37126D01*
X91319Y-57224D02*
X91319Y-37303D01*
X88937Y-59606D02*
X91319Y-57224D01*
X84745Y-59606D02*
X88937Y-59606D01*
X84528Y-59823D02*
X84745Y-59606D01*
X85472Y-43681D02*
X85571Y-43681D01*
X87008Y-42244D02*
X87008Y-39764D01*
X85571Y-43681D02*
X87008Y-42244D01*
X85157Y-43996D02*
X82894Y-43996D01*
X85472Y-43681D02*
X85157Y-43996D01*
X88012Y-42894D02*
X88012Y-40531D01*
X86280Y-44626D02*
X88012Y-42894D01*
X83583Y-44626D02*
X86280Y-44626D01*
X83386Y-44823D02*
X83583Y-44626D01*
X82776Y-51653D02*
X82776Y-50335D01*
X81673Y-52756D02*
X82776Y-51653D01*
X69469Y-52756D02*
X81673Y-52756D01*
X65197Y-48484D02*
X69469Y-52756D01*
X85531Y-28052D02*
X85531Y-30354D01*
X86398Y-27185D02*
X85531Y-28052D01*
X88346Y-31103D02*
X88346Y-26969D01*
X88307Y-31142D02*
X88346Y-31103D01*
X77008Y-27402D02*
X77008Y-26673D01*
X77008Y-26673D02*
X76417Y-26082D01*
X76417Y-28622D02*
X76574Y-28622D01*
X77008Y-28188D02*
X77008Y-27402D01*
X76574Y-28622D02*
X77008Y-28188D01*
X76417Y-31102D02*
X76043Y-31476D01*
X76417Y-25217D02*
X76417Y-26082D01*
X77717Y-23917D02*
X76417Y-25217D01*
X76417Y-28622D02*
X76417Y-31102D01*
X70690Y-27657D02*
X73584Y-27657D01*
X74547Y-26694D02*
X74547Y-25394D01*
X73584Y-27657D02*
X74547Y-26694D01*
X75197Y-24744D02*
X74547Y-25394D01*
X69646Y-28701D02*
X69646Y-30492D01*
X70690Y-27657D02*
X69646Y-28701D01*
X73346Y-39134D02*
X73346Y-37717D01*
X75492Y-41280D02*
X73346Y-39134D01*
X80688Y-41280D02*
X75492Y-41280D01*
X81417Y-40551D02*
X80688Y-41280D01*
X81417Y-39113D02*
X81417Y-40551D01*
X81398Y-39094D02*
X81417Y-39113D01*
M02*
