G04 (created by PCBNEW-RS274X (2010-05-05 BZR 2356)-stable) date 2013-08-19 11:46:26*
G01*
G70*
G90*
%MOIN*%
G04 Gerber Fmt 3.4, Leading zero omitted, Abs format*
%FSLAX34Y34*%
G04 APERTURE LIST*
%ADD10C,0.006000*%
%ADD11C,0.015000*%
G04 APERTURE END LIST*
G54D10*
G54D11*
X90492Y-61024D02*
X90480Y-61146D01*
X90444Y-61264D01*
X90386Y-61372D01*
X90309Y-61467D01*
X90214Y-61546D01*
X90106Y-61604D01*
X89988Y-61641D01*
X89866Y-61653D01*
X89744Y-61642D01*
X89626Y-61608D01*
X89518Y-61551D01*
X89422Y-61474D01*
X89343Y-61379D01*
X89283Y-61272D01*
X89246Y-61154D01*
X89233Y-61032D01*
X89243Y-60911D01*
X89277Y-60793D01*
X89333Y-60683D01*
X89409Y-60587D01*
X89503Y-60507D01*
X89610Y-60447D01*
X89727Y-60409D01*
X89849Y-60395D01*
X89971Y-60404D01*
X90089Y-60437D01*
X90199Y-60493D01*
X90296Y-60568D01*
X90376Y-60661D01*
X90437Y-60768D01*
X90476Y-60885D01*
X90491Y-61007D01*
X90492Y-61024D01*
X69744Y-61024D02*
X69732Y-61138D01*
X69699Y-61248D01*
X69645Y-61350D01*
X69572Y-61439D01*
X69483Y-61513D01*
X69382Y-61567D01*
X69272Y-61601D01*
X69158Y-61613D01*
X69044Y-61603D01*
X68933Y-61571D01*
X68831Y-61517D01*
X68742Y-61445D01*
X68668Y-61357D01*
X68612Y-61256D01*
X68577Y-61146D01*
X68565Y-61032D01*
X68574Y-60918D01*
X68606Y-60807D01*
X68659Y-60705D01*
X68730Y-60615D01*
X68818Y-60540D01*
X68918Y-60484D01*
X69028Y-60448D01*
X69142Y-60435D01*
X69256Y-60443D01*
X69367Y-60474D01*
X69470Y-60526D01*
X69560Y-60597D01*
X69636Y-60684D01*
X69692Y-60785D01*
X69729Y-60894D01*
X69743Y-61008D01*
X69744Y-61024D01*
X66948Y-61024D02*
X66936Y-61138D01*
X66903Y-61248D01*
X66849Y-61350D01*
X66776Y-61439D01*
X66687Y-61513D01*
X66586Y-61567D01*
X66476Y-61601D01*
X66362Y-61613D01*
X66248Y-61603D01*
X66137Y-61571D01*
X66035Y-61517D01*
X65946Y-61445D01*
X65872Y-61357D01*
X65816Y-61256D01*
X65781Y-61146D01*
X65769Y-61032D01*
X65778Y-60918D01*
X65810Y-60807D01*
X65863Y-60705D01*
X65934Y-60615D01*
X66022Y-60540D01*
X66122Y-60484D01*
X66232Y-60448D01*
X66346Y-60435D01*
X66460Y-60443D01*
X66571Y-60474D01*
X66674Y-60526D01*
X66764Y-60597D01*
X66840Y-60684D01*
X66896Y-60785D01*
X66933Y-60894D01*
X66947Y-61008D01*
X66948Y-61024D01*
X29941Y-61024D02*
X29929Y-61138D01*
X29896Y-61249D01*
X29842Y-61351D01*
X29769Y-61440D01*
X29680Y-61513D01*
X29579Y-61568D01*
X29468Y-61602D01*
X29354Y-61614D01*
X29240Y-61604D01*
X29129Y-61571D01*
X29027Y-61518D01*
X28937Y-61446D01*
X28863Y-61357D01*
X28807Y-61256D01*
X28772Y-61146D01*
X28760Y-61032D01*
X28769Y-60918D01*
X28801Y-60807D01*
X28854Y-60704D01*
X28925Y-60614D01*
X29013Y-60539D01*
X29114Y-60483D01*
X29224Y-60447D01*
X29338Y-60434D01*
X29452Y-60442D01*
X29563Y-60473D01*
X29666Y-60526D01*
X29757Y-60597D01*
X29832Y-60684D01*
X29889Y-60784D01*
X29926Y-60894D01*
X29940Y-61008D01*
X29941Y-61024D01*
X90452Y-26161D02*
X90440Y-26275D01*
X90407Y-26385D01*
X90353Y-26487D01*
X90280Y-26576D01*
X90191Y-26650D01*
X90090Y-26704D01*
X89980Y-26738D01*
X89866Y-26750D01*
X89752Y-26740D01*
X89641Y-26708D01*
X89539Y-26654D01*
X89450Y-26582D01*
X89376Y-26494D01*
X89320Y-26393D01*
X89285Y-26283D01*
X89273Y-26169D01*
X89282Y-26055D01*
X89314Y-25944D01*
X89367Y-25842D01*
X89438Y-25752D01*
X89526Y-25677D01*
X89626Y-25621D01*
X89736Y-25585D01*
X89850Y-25572D01*
X89964Y-25580D01*
X90075Y-25611D01*
X90178Y-25663D01*
X90268Y-25734D01*
X90344Y-25821D01*
X90400Y-25922D01*
X90437Y-26031D01*
X90451Y-26145D01*
X90452Y-26161D01*
X69744Y-26161D02*
X69732Y-26275D01*
X69699Y-26386D01*
X69645Y-26488D01*
X69572Y-26577D01*
X69483Y-26650D01*
X69382Y-26705D01*
X69271Y-26739D01*
X69157Y-26751D01*
X69043Y-26741D01*
X68932Y-26708D01*
X68830Y-26655D01*
X68740Y-26583D01*
X68666Y-26494D01*
X68610Y-26393D01*
X68575Y-26283D01*
X68563Y-26169D01*
X68572Y-26055D01*
X68604Y-25944D01*
X68657Y-25841D01*
X68728Y-25751D01*
X68816Y-25676D01*
X68917Y-25620D01*
X69027Y-25584D01*
X69141Y-25571D01*
X69255Y-25579D01*
X69366Y-25610D01*
X69469Y-25663D01*
X69560Y-25734D01*
X69635Y-25821D01*
X69692Y-25921D01*
X69729Y-26031D01*
X69743Y-26145D01*
X69744Y-26161D01*
X66948Y-26161D02*
X66936Y-26275D01*
X66903Y-26385D01*
X66849Y-26487D01*
X66776Y-26576D01*
X66687Y-26650D01*
X66586Y-26704D01*
X66476Y-26738D01*
X66362Y-26750D01*
X66248Y-26740D01*
X66137Y-26708D01*
X66035Y-26654D01*
X65946Y-26582D01*
X65872Y-26494D01*
X65816Y-26393D01*
X65781Y-26283D01*
X65769Y-26169D01*
X65778Y-26055D01*
X65810Y-25944D01*
X65863Y-25842D01*
X65934Y-25752D01*
X66022Y-25677D01*
X66122Y-25621D01*
X66232Y-25585D01*
X66346Y-25572D01*
X66460Y-25580D01*
X66571Y-25611D01*
X66674Y-25663D01*
X66764Y-25734D01*
X66840Y-25821D01*
X66896Y-25922D01*
X66933Y-26031D01*
X66947Y-26145D01*
X66948Y-26161D01*
X29941Y-26161D02*
X29929Y-26275D01*
X29896Y-26386D01*
X29842Y-26488D01*
X29769Y-26577D01*
X29680Y-26650D01*
X29579Y-26705D01*
X29468Y-26739D01*
X29354Y-26751D01*
X29240Y-26741D01*
X29129Y-26708D01*
X29027Y-26655D01*
X28937Y-26583D01*
X28863Y-26494D01*
X28807Y-26393D01*
X28772Y-26283D01*
X28760Y-26169D01*
X28769Y-26055D01*
X28801Y-25944D01*
X28854Y-25841D01*
X28925Y-25751D01*
X29013Y-25676D01*
X29114Y-25620D01*
X29224Y-25584D01*
X29338Y-25571D01*
X29452Y-25579D01*
X29563Y-25610D01*
X29666Y-25663D01*
X29757Y-25734D01*
X29832Y-25821D01*
X29889Y-25921D01*
X29926Y-26031D01*
X29940Y-26145D01*
X29941Y-26161D01*
X27323Y-17402D02*
X27323Y-62283D01*
X91890Y-17402D02*
X27323Y-17402D01*
X91890Y-62283D02*
X91890Y-17402D01*
X27323Y-62283D02*
X91890Y-62283D01*
M02*
