G04 (created by PCBNEW (2013-07-07 BZR 4022)-stable) date 2014-10-22 23:46:56*
%MOIN*%
G04 Gerber Fmt 3.4, Leading zero omitted, Abs format*
%FSLAX34Y34*%
G01*
G70*
G90*
G04 APERTURE LIST*
%ADD10C,0.005*%
%ADD11C,0.015*%
%ADD12C,0.00787402*%
%ADD13C,0.011811*%
G04 APERTURE END LIST*
G54D10*
G54D11*
X49842Y-67440D02*
X49842Y-47834D01*
X67913Y-47834D02*
X67913Y-67440D01*
X67913Y-47834D02*
X49803Y-47834D01*
X67107Y-64213D02*
G75*
G03X67107Y-64213I-473J0D01*
G74*
G01*
X51673Y-64213D02*
G75*
G03X51673Y-64213I-472J0D01*
G74*
G01*
X49862Y-22165D02*
X49882Y-22165D01*
X67933Y-67441D02*
X67933Y-67402D01*
X49862Y-67441D02*
X67933Y-67441D01*
G54D12*
X52725Y-56525D02*
X52975Y-56775D01*
X52975Y-56525D02*
X52725Y-56775D01*
X52925Y-65575D02*
X53175Y-65825D01*
X53175Y-65575D02*
X52925Y-65825D01*
X53125Y-62375D02*
X53375Y-62625D01*
X53375Y-62375D02*
X53125Y-62625D01*
X53525Y-59575D02*
X53775Y-59825D01*
X53775Y-59575D02*
X53525Y-59825D01*
X54225Y-60275D02*
X54475Y-60525D01*
X54475Y-60275D02*
X54225Y-60525D01*
X54225Y-62775D02*
X54475Y-63025D01*
X54475Y-62775D02*
X54225Y-63025D01*
X54275Y-61025D02*
X54525Y-61275D01*
X54525Y-61025D02*
X54275Y-61275D01*
X55175Y-56175D02*
X55425Y-56425D01*
X55425Y-56175D02*
X55175Y-56425D01*
X55625Y-58625D02*
X55875Y-58875D01*
X55875Y-58625D02*
X55625Y-58875D01*
X56725Y-52275D02*
X56975Y-52525D01*
X56975Y-52275D02*
X56725Y-52525D01*
X57425Y-62725D02*
X57675Y-62975D01*
X57675Y-62725D02*
X57425Y-62975D01*
X59875Y-62425D02*
X60125Y-62675D01*
X60125Y-62425D02*
X59875Y-62675D01*
X60275Y-65575D02*
X60525Y-65825D01*
X60525Y-65575D02*
X60275Y-65825D01*
X62525Y-58125D02*
X62775Y-58375D01*
X62775Y-58125D02*
X62525Y-58375D01*
X62825Y-63525D02*
X63075Y-63775D01*
X63075Y-63525D02*
X62825Y-63775D01*
X64475Y-56775D02*
X64725Y-57025D01*
X64725Y-56775D02*
X64475Y-57025D01*
X64675Y-65525D02*
X64925Y-65775D01*
X64925Y-65525D02*
X64675Y-65775D01*
X65375Y-57375D02*
X65625Y-57625D01*
X65625Y-57375D02*
X65375Y-57625D01*
X51652Y-55744D02*
G75*
G03X51652Y-55744I-160J0D01*
G74*
G01*
X51652Y-56744D02*
G75*
G03X51652Y-56744I-160J0D01*
G74*
G01*
X51652Y-57744D02*
G75*
G03X51652Y-57744I-160J0D01*
G74*
G01*
X51652Y-58744D02*
G75*
G03X51652Y-58744I-160J0D01*
G74*
G01*
X52522Y-52255D02*
G75*
G03X52522Y-52255I-160J0D01*
G74*
G01*
X52522Y-53255D02*
G75*
G03X52522Y-53255I-160J0D01*
G74*
G01*
X54652Y-55744D02*
G75*
G03X54652Y-55744I-160J0D01*
G74*
G01*
X54652Y-56744D02*
G75*
G03X54652Y-56744I-160J0D01*
G74*
G01*
X54652Y-57744D02*
G75*
G03X54652Y-57744I-160J0D01*
G74*
G01*
X54652Y-58744D02*
G75*
G03X54652Y-58744I-160J0D01*
G74*
G01*
X55593Y-52255D02*
G75*
G03X55593Y-52255I-160J0D01*
G74*
G01*
X55593Y-53255D02*
G75*
G03X55593Y-53255I-160J0D01*
G74*
G01*
X62285Y-52255D02*
G75*
G03X62285Y-52255I-160J0D01*
G74*
G01*
X62285Y-53255D02*
G75*
G03X62285Y-53255I-160J0D01*
G74*
G01*
X63620Y-55822D02*
G75*
G03X63620Y-55822I-160J0D01*
G74*
G01*
X63620Y-56822D02*
G75*
G03X63620Y-56822I-160J0D01*
G74*
G01*
X63620Y-57822D02*
G75*
G03X63620Y-57822I-160J0D01*
G74*
G01*
X63620Y-58822D02*
G75*
G03X63620Y-58822I-160J0D01*
G74*
G01*
X65514Y-51415D02*
G75*
G03X65514Y-51415I-160J0D01*
G74*
G01*
X65514Y-52915D02*
G75*
G03X65514Y-52915I-160J0D01*
G74*
G01*
X66620Y-55822D02*
G75*
G03X66620Y-55822I-160J0D01*
G74*
G01*
X66620Y-56822D02*
G75*
G03X66620Y-56822I-160J0D01*
G74*
G01*
X66620Y-57822D02*
G75*
G03X66620Y-57822I-160J0D01*
G74*
G01*
X66620Y-58822D02*
G75*
G03X66620Y-58822I-160J0D01*
G74*
G01*
X52362Y-48937D02*
X52362Y-49330D01*
X52165Y-49133D02*
X52559Y-49133D01*
X54330Y-48937D02*
X54330Y-49330D01*
X54133Y-49133D02*
X54527Y-49133D01*
X56299Y-48937D02*
X56299Y-49330D01*
X56102Y-49133D02*
X56496Y-49133D01*
X61653Y-48937D02*
X61653Y-49330D01*
X61456Y-49133D02*
X61850Y-49133D01*
X63622Y-48937D02*
X63622Y-49330D01*
X63425Y-49133D02*
X63818Y-49133D01*
X65590Y-48937D02*
X65590Y-49330D01*
X65393Y-49133D02*
X65787Y-49133D01*
X56382Y-61834D02*
X56382Y-61551D01*
X56099Y-61551D01*
X56099Y-61834D01*
X56382Y-61834D01*
X57287Y-61834D02*
X57287Y-61551D01*
X57004Y-61551D01*
X57004Y-61834D01*
X57287Y-61834D01*
X57681Y-63724D02*
X57681Y-63441D01*
X57398Y-63441D01*
X57398Y-63724D01*
X57681Y-63724D01*
X58075Y-64511D02*
X58075Y-64228D01*
X57792Y-64228D01*
X57792Y-64511D01*
X58075Y-64511D01*
X58468Y-63724D02*
X58468Y-63441D01*
X58185Y-63441D01*
X58185Y-63724D01*
X58468Y-63724D01*
X58862Y-64511D02*
X58862Y-64228D01*
X58579Y-64228D01*
X58579Y-64511D01*
X58862Y-64511D01*
X59256Y-63724D02*
X59256Y-63441D01*
X58973Y-63441D01*
X58973Y-63724D01*
X59256Y-63724D01*
X59649Y-64511D02*
X59649Y-64228D01*
X59366Y-64228D01*
X59366Y-64511D01*
X59649Y-64511D01*
X60043Y-63724D02*
X60043Y-63441D01*
X59760Y-63441D01*
X59760Y-63724D01*
X60043Y-63724D01*
X60437Y-64511D02*
X60437Y-64228D01*
X60154Y-64228D01*
X60154Y-64511D01*
X60437Y-64511D01*
X60870Y-61834D02*
X60870Y-61551D01*
X60587Y-61551D01*
X60587Y-61834D01*
X60870Y-61834D01*
X61756Y-61824D02*
X61756Y-61541D01*
X61473Y-61541D01*
X61473Y-61824D01*
X61756Y-61824D01*
X57917Y-51564D02*
X58142Y-51339D01*
X57917Y-51114D01*
X57692Y-51339D01*
X57917Y-51564D01*
X58917Y-51564D02*
X59142Y-51339D01*
X58917Y-51114D01*
X58692Y-51339D01*
X58917Y-51564D01*
X59917Y-51564D02*
X60142Y-51339D01*
X59917Y-51114D01*
X59692Y-51339D01*
X59917Y-51564D01*
X55394Y-63602D02*
X56063Y-64271D01*
X56063Y-63602D02*
X55394Y-64271D01*
X56063Y-63937D02*
G75*
G03X56063Y-63937I-334J0D01*
G74*
G01*
X61776Y-63587D02*
X62476Y-64287D01*
X62476Y-63587D02*
X61776Y-64287D01*
X62126Y-63587D02*
X62126Y-64287D01*
X61776Y-63937D02*
X62476Y-63937D01*
X58317Y-57239D02*
X59517Y-58439D01*
X59517Y-57239D02*
X58317Y-58439D01*
X59341Y-58263D02*
X59341Y-57414D01*
X58492Y-57414D01*
X58492Y-58263D01*
X59341Y-58263D01*
X55787Y-64626D02*
X57087Y-65926D01*
X57087Y-64626D02*
X55787Y-65926D01*
X56437Y-65926D02*
X57087Y-65276D01*
X56437Y-64626D01*
X55787Y-65276D01*
X56437Y-65926D01*
X60787Y-64626D02*
X62087Y-65926D01*
X62087Y-64626D02*
X60787Y-65926D01*
X61437Y-65926D02*
X62087Y-65276D01*
X61437Y-64626D01*
X60787Y-65276D01*
X61437Y-65926D01*
G54D13*
X50796Y-69293D02*
X50796Y-68112D01*
X51077Y-68112D01*
X51246Y-68168D01*
X51359Y-68280D01*
X51415Y-68393D01*
X51471Y-68618D01*
X51471Y-68787D01*
X51415Y-69012D01*
X51359Y-69124D01*
X51246Y-69237D01*
X51077Y-69293D01*
X50796Y-69293D01*
X51977Y-69293D02*
X51977Y-68505D01*
X51977Y-68730D02*
X52034Y-68618D01*
X52090Y-68562D01*
X52202Y-68505D01*
X52315Y-68505D01*
X52709Y-69293D02*
X52709Y-68505D01*
X52709Y-68112D02*
X52652Y-68168D01*
X52709Y-68224D01*
X52765Y-68168D01*
X52709Y-68112D01*
X52709Y-68224D01*
X53440Y-69293D02*
X53327Y-69237D01*
X53271Y-69124D01*
X53271Y-68112D01*
X54058Y-69293D02*
X53946Y-69237D01*
X53890Y-69124D01*
X53890Y-68112D01*
X55408Y-69293D02*
X55408Y-68112D01*
X55802Y-68955D01*
X56196Y-68112D01*
X56196Y-69293D01*
X57264Y-69293D02*
X57264Y-68674D01*
X57208Y-68562D01*
X57095Y-68505D01*
X56871Y-68505D01*
X56758Y-68562D01*
X57264Y-69237D02*
X57152Y-69293D01*
X56871Y-69293D01*
X56758Y-69237D01*
X56702Y-69124D01*
X56702Y-69012D01*
X56758Y-68899D01*
X56871Y-68843D01*
X57152Y-68843D01*
X57264Y-68787D01*
X57827Y-68505D02*
X57827Y-69686D01*
X57827Y-68562D02*
X57939Y-68505D01*
X58164Y-68505D01*
X58277Y-68562D01*
X58333Y-68618D01*
X58389Y-68730D01*
X58389Y-69068D01*
X58333Y-69180D01*
X58277Y-69237D01*
X58164Y-69293D01*
X57939Y-69293D01*
X57827Y-69237D01*
X58895Y-69180D02*
X58951Y-69237D01*
X58895Y-69293D01*
X58839Y-69237D01*
X58895Y-69180D01*
X58895Y-69293D01*
X58895Y-68562D02*
X58951Y-68618D01*
X58895Y-68674D01*
X58839Y-68618D01*
X58895Y-68562D01*
X58895Y-68674D01*
X49478Y-71170D02*
X49728Y-71420D01*
X49728Y-71170D02*
X49478Y-71420D01*
X51021Y-70592D02*
X51134Y-70592D01*
X51246Y-70648D01*
X51302Y-70704D01*
X51359Y-70817D01*
X51415Y-71042D01*
X51415Y-71323D01*
X51359Y-71548D01*
X51302Y-71661D01*
X51246Y-71717D01*
X51134Y-71773D01*
X51021Y-71773D01*
X50909Y-71717D01*
X50853Y-71661D01*
X50796Y-71548D01*
X50740Y-71323D01*
X50740Y-71042D01*
X50796Y-70817D01*
X50853Y-70704D01*
X50909Y-70648D01*
X51021Y-70592D01*
X51921Y-71661D02*
X51977Y-71717D01*
X51921Y-71773D01*
X51865Y-71717D01*
X51921Y-71661D01*
X51921Y-71773D01*
X52990Y-70592D02*
X52765Y-70592D01*
X52652Y-70648D01*
X52596Y-70704D01*
X52484Y-70873D01*
X52427Y-71098D01*
X52427Y-71548D01*
X52484Y-71661D01*
X52540Y-71717D01*
X52652Y-71773D01*
X52877Y-71773D01*
X52990Y-71717D01*
X53046Y-71661D01*
X53102Y-71548D01*
X53102Y-71267D01*
X53046Y-71154D01*
X52990Y-71098D01*
X52877Y-71042D01*
X52652Y-71042D01*
X52540Y-71098D01*
X52484Y-71154D01*
X52427Y-71267D01*
X54115Y-70986D02*
X54115Y-71773D01*
X53833Y-70536D02*
X53552Y-71379D01*
X54283Y-71379D01*
X54733Y-71773D02*
X54733Y-70986D01*
X54733Y-71098D02*
X54790Y-71042D01*
X54902Y-70986D01*
X55071Y-70986D01*
X55183Y-71042D01*
X55239Y-71154D01*
X55239Y-71773D01*
X55239Y-71154D02*
X55296Y-71042D01*
X55408Y-70986D01*
X55577Y-70986D01*
X55689Y-71042D01*
X55746Y-71154D01*
X55746Y-71773D01*
X56308Y-71773D02*
X56308Y-70986D01*
X56308Y-71098D02*
X56364Y-71042D01*
X56477Y-70986D01*
X56646Y-70986D01*
X56758Y-71042D01*
X56814Y-71154D01*
X56814Y-71773D01*
X56814Y-71154D02*
X56871Y-71042D01*
X56983Y-70986D01*
X57152Y-70986D01*
X57264Y-71042D01*
X57320Y-71154D01*
X57320Y-71773D01*
X59626Y-70536D02*
X58614Y-72054D01*
X61145Y-70592D02*
X61257Y-70592D01*
X61370Y-70648D01*
X61426Y-70704D01*
X61482Y-70817D01*
X61539Y-71042D01*
X61539Y-71323D01*
X61482Y-71548D01*
X61426Y-71661D01*
X61370Y-71717D01*
X61257Y-71773D01*
X61145Y-71773D01*
X61032Y-71717D01*
X60976Y-71661D01*
X60920Y-71548D01*
X60864Y-71323D01*
X60864Y-71042D01*
X60920Y-70817D01*
X60976Y-70704D01*
X61032Y-70648D01*
X61145Y-70592D01*
X62045Y-71661D02*
X62101Y-71717D01*
X62045Y-71773D01*
X61989Y-71717D01*
X62045Y-71661D01*
X62045Y-71773D01*
X62832Y-70592D02*
X62945Y-70592D01*
X63057Y-70648D01*
X63113Y-70704D01*
X63170Y-70817D01*
X63226Y-71042D01*
X63226Y-71323D01*
X63170Y-71548D01*
X63113Y-71661D01*
X63057Y-71717D01*
X62945Y-71773D01*
X62832Y-71773D01*
X62720Y-71717D01*
X62664Y-71661D01*
X62607Y-71548D01*
X62551Y-71323D01*
X62551Y-71042D01*
X62607Y-70817D01*
X62664Y-70704D01*
X62720Y-70648D01*
X62832Y-70592D01*
X63676Y-70704D02*
X63732Y-70648D01*
X63845Y-70592D01*
X64126Y-70592D01*
X64238Y-70648D01*
X64295Y-70704D01*
X64351Y-70817D01*
X64351Y-70929D01*
X64295Y-71098D01*
X63620Y-71773D01*
X64351Y-71773D01*
X65419Y-70592D02*
X64857Y-70592D01*
X64801Y-71154D01*
X64857Y-71098D01*
X64969Y-71042D01*
X65251Y-71042D01*
X65363Y-71098D01*
X65419Y-71154D01*
X65476Y-71267D01*
X65476Y-71548D01*
X65419Y-71661D01*
X65363Y-71717D01*
X65251Y-71773D01*
X64969Y-71773D01*
X64857Y-71717D01*
X64801Y-71661D01*
X65926Y-70592D02*
X65926Y-70817D01*
X66376Y-70592D02*
X66376Y-70817D01*
X68119Y-72223D02*
X68063Y-72167D01*
X67950Y-71998D01*
X67894Y-71886D01*
X67838Y-71717D01*
X67782Y-71436D01*
X67782Y-71211D01*
X67838Y-70929D01*
X67894Y-70761D01*
X67950Y-70648D01*
X68063Y-70480D01*
X68119Y-70423D01*
X69188Y-71773D02*
X68513Y-71773D01*
X68850Y-71773D02*
X68850Y-70592D01*
X68738Y-70761D01*
X68625Y-70873D01*
X68513Y-70929D01*
X69863Y-71098D02*
X69750Y-71042D01*
X69694Y-70986D01*
X69638Y-70873D01*
X69638Y-70817D01*
X69694Y-70704D01*
X69750Y-70648D01*
X69863Y-70592D01*
X70088Y-70592D01*
X70200Y-70648D01*
X70256Y-70704D01*
X70313Y-70817D01*
X70313Y-70873D01*
X70256Y-70986D01*
X70200Y-71042D01*
X70088Y-71098D01*
X69863Y-71098D01*
X69750Y-71154D01*
X69694Y-71211D01*
X69638Y-71323D01*
X69638Y-71548D01*
X69694Y-71661D01*
X69750Y-71717D01*
X69863Y-71773D01*
X70088Y-71773D01*
X70200Y-71717D01*
X70256Y-71661D01*
X70313Y-71548D01*
X70313Y-71323D01*
X70256Y-71211D01*
X70200Y-71154D01*
X70088Y-71098D01*
X71719Y-71773D02*
X71719Y-70592D01*
X72225Y-71773D02*
X72225Y-71154D01*
X72169Y-71042D01*
X72056Y-70986D01*
X71887Y-70986D01*
X71775Y-71042D01*
X71719Y-71098D01*
X72956Y-71773D02*
X72844Y-71717D01*
X72787Y-71661D01*
X72731Y-71548D01*
X72731Y-71211D01*
X72787Y-71098D01*
X72844Y-71042D01*
X72956Y-70986D01*
X73125Y-70986D01*
X73237Y-71042D01*
X73293Y-71098D01*
X73350Y-71211D01*
X73350Y-71548D01*
X73293Y-71661D01*
X73237Y-71717D01*
X73125Y-71773D01*
X72956Y-71773D01*
X74025Y-71773D02*
X73912Y-71717D01*
X73856Y-71604D01*
X73856Y-70592D01*
X74924Y-71717D02*
X74812Y-71773D01*
X74587Y-71773D01*
X74475Y-71717D01*
X74418Y-71604D01*
X74418Y-71154D01*
X74475Y-71042D01*
X74587Y-70986D01*
X74812Y-70986D01*
X74924Y-71042D01*
X74981Y-71154D01*
X74981Y-71267D01*
X74418Y-71379D01*
X75431Y-71717D02*
X75543Y-71773D01*
X75768Y-71773D01*
X75881Y-71717D01*
X75937Y-71604D01*
X75937Y-71548D01*
X75881Y-71436D01*
X75768Y-71379D01*
X75599Y-71379D01*
X75487Y-71323D01*
X75431Y-71211D01*
X75431Y-71154D01*
X75487Y-71042D01*
X75599Y-70986D01*
X75768Y-70986D01*
X75881Y-71042D01*
X76331Y-72223D02*
X76387Y-72167D01*
X76499Y-71998D01*
X76556Y-71886D01*
X76612Y-71717D01*
X76668Y-71436D01*
X76668Y-71211D01*
X76612Y-70929D01*
X76556Y-70761D01*
X76499Y-70648D01*
X76387Y-70480D01*
X76331Y-70423D01*
G54D12*
X49728Y-72854D02*
G75*
G03X49728Y-72854I-160J0D01*
G74*
G01*
G54D13*
X51021Y-72151D02*
X51134Y-72151D01*
X51246Y-72207D01*
X51302Y-72264D01*
X51359Y-72376D01*
X51415Y-72601D01*
X51415Y-72882D01*
X51359Y-73107D01*
X51302Y-73220D01*
X51246Y-73276D01*
X51134Y-73332D01*
X51021Y-73332D01*
X50909Y-73276D01*
X50853Y-73220D01*
X50796Y-73107D01*
X50740Y-72882D01*
X50740Y-72601D01*
X50796Y-72376D01*
X50853Y-72264D01*
X50909Y-72207D01*
X51021Y-72151D01*
X51921Y-73220D02*
X51977Y-73276D01*
X51921Y-73332D01*
X51865Y-73276D01*
X51921Y-73220D01*
X51921Y-73332D01*
X52652Y-72657D02*
X52540Y-72601D01*
X52484Y-72545D01*
X52427Y-72432D01*
X52427Y-72376D01*
X52484Y-72264D01*
X52540Y-72207D01*
X52652Y-72151D01*
X52877Y-72151D01*
X52990Y-72207D01*
X53046Y-72264D01*
X53102Y-72376D01*
X53102Y-72432D01*
X53046Y-72545D01*
X52990Y-72601D01*
X52877Y-72657D01*
X52652Y-72657D01*
X52540Y-72713D01*
X52484Y-72770D01*
X52427Y-72882D01*
X52427Y-73107D01*
X52484Y-73220D01*
X52540Y-73276D01*
X52652Y-73332D01*
X52877Y-73332D01*
X52990Y-73276D01*
X53046Y-73220D01*
X53102Y-73107D01*
X53102Y-72882D01*
X53046Y-72770D01*
X52990Y-72713D01*
X52877Y-72657D01*
X54227Y-73332D02*
X53552Y-73332D01*
X53890Y-73332D02*
X53890Y-72151D01*
X53777Y-72320D01*
X53665Y-72432D01*
X53552Y-72489D01*
X54733Y-73332D02*
X54733Y-72545D01*
X54733Y-72657D02*
X54790Y-72601D01*
X54902Y-72545D01*
X55071Y-72545D01*
X55183Y-72601D01*
X55239Y-72713D01*
X55239Y-73332D01*
X55239Y-72713D02*
X55296Y-72601D01*
X55408Y-72545D01*
X55577Y-72545D01*
X55689Y-72601D01*
X55746Y-72713D01*
X55746Y-73332D01*
X56308Y-73332D02*
X56308Y-72545D01*
X56308Y-72657D02*
X56364Y-72601D01*
X56477Y-72545D01*
X56646Y-72545D01*
X56758Y-72601D01*
X56814Y-72713D01*
X56814Y-73332D01*
X56814Y-72713D02*
X56871Y-72601D01*
X56983Y-72545D01*
X57152Y-72545D01*
X57264Y-72601D01*
X57320Y-72713D01*
X57320Y-73332D01*
X59626Y-72095D02*
X58614Y-73613D01*
X61145Y-72151D02*
X61257Y-72151D01*
X61370Y-72207D01*
X61426Y-72264D01*
X61482Y-72376D01*
X61539Y-72601D01*
X61539Y-72882D01*
X61482Y-73107D01*
X61426Y-73220D01*
X61370Y-73276D01*
X61257Y-73332D01*
X61145Y-73332D01*
X61032Y-73276D01*
X60976Y-73220D01*
X60920Y-73107D01*
X60864Y-72882D01*
X60864Y-72601D01*
X60920Y-72376D01*
X60976Y-72264D01*
X61032Y-72207D01*
X61145Y-72151D01*
X62045Y-73220D02*
X62101Y-73276D01*
X62045Y-73332D01*
X61989Y-73276D01*
X62045Y-73220D01*
X62045Y-73332D01*
X62832Y-72151D02*
X62945Y-72151D01*
X63057Y-72207D01*
X63113Y-72264D01*
X63170Y-72376D01*
X63226Y-72601D01*
X63226Y-72882D01*
X63170Y-73107D01*
X63113Y-73220D01*
X63057Y-73276D01*
X62945Y-73332D01*
X62832Y-73332D01*
X62720Y-73276D01*
X62664Y-73220D01*
X62607Y-73107D01*
X62551Y-72882D01*
X62551Y-72601D01*
X62607Y-72376D01*
X62664Y-72264D01*
X62720Y-72207D01*
X62832Y-72151D01*
X63620Y-72151D02*
X64351Y-72151D01*
X63957Y-72601D01*
X64126Y-72601D01*
X64238Y-72657D01*
X64295Y-72713D01*
X64351Y-72826D01*
X64351Y-73107D01*
X64295Y-73220D01*
X64238Y-73276D01*
X64126Y-73332D01*
X63788Y-73332D01*
X63676Y-73276D01*
X63620Y-73220D01*
X64801Y-72264D02*
X64857Y-72207D01*
X64969Y-72151D01*
X65251Y-72151D01*
X65363Y-72207D01*
X65419Y-72264D01*
X65476Y-72376D01*
X65476Y-72489D01*
X65419Y-72657D01*
X64745Y-73332D01*
X65476Y-73332D01*
X65926Y-72151D02*
X65926Y-72376D01*
X66376Y-72151D02*
X66376Y-72376D01*
X68119Y-73782D02*
X68063Y-73726D01*
X67950Y-73557D01*
X67894Y-73445D01*
X67838Y-73276D01*
X67782Y-72995D01*
X67782Y-72770D01*
X67838Y-72489D01*
X67894Y-72320D01*
X67950Y-72207D01*
X68063Y-72039D01*
X68119Y-71982D01*
X68513Y-72264D02*
X68569Y-72207D01*
X68682Y-72151D01*
X68963Y-72151D01*
X69075Y-72207D01*
X69131Y-72264D01*
X69188Y-72376D01*
X69188Y-72489D01*
X69131Y-72657D01*
X68457Y-73332D01*
X69188Y-73332D01*
X70200Y-72545D02*
X70200Y-73332D01*
X69919Y-72095D02*
X69638Y-72938D01*
X70369Y-72938D01*
X71719Y-73332D02*
X71719Y-72151D01*
X72225Y-73332D02*
X72225Y-72713D01*
X72169Y-72601D01*
X72056Y-72545D01*
X71887Y-72545D01*
X71775Y-72601D01*
X71719Y-72657D01*
X72956Y-73332D02*
X72844Y-73276D01*
X72787Y-73220D01*
X72731Y-73107D01*
X72731Y-72770D01*
X72787Y-72657D01*
X72844Y-72601D01*
X72956Y-72545D01*
X73125Y-72545D01*
X73237Y-72601D01*
X73293Y-72657D01*
X73350Y-72770D01*
X73350Y-73107D01*
X73293Y-73220D01*
X73237Y-73276D01*
X73125Y-73332D01*
X72956Y-73332D01*
X74025Y-73332D02*
X73912Y-73276D01*
X73856Y-73163D01*
X73856Y-72151D01*
X74924Y-73276D02*
X74812Y-73332D01*
X74587Y-73332D01*
X74475Y-73276D01*
X74418Y-73163D01*
X74418Y-72713D01*
X74475Y-72601D01*
X74587Y-72545D01*
X74812Y-72545D01*
X74924Y-72601D01*
X74981Y-72713D01*
X74981Y-72826D01*
X74418Y-72938D01*
X75431Y-73276D02*
X75543Y-73332D01*
X75768Y-73332D01*
X75881Y-73276D01*
X75937Y-73163D01*
X75937Y-73107D01*
X75881Y-72995D01*
X75768Y-72938D01*
X75599Y-72938D01*
X75487Y-72882D01*
X75431Y-72770D01*
X75431Y-72713D01*
X75487Y-72601D01*
X75599Y-72545D01*
X75768Y-72545D01*
X75881Y-72601D01*
X76331Y-73782D02*
X76387Y-73726D01*
X76499Y-73557D01*
X76556Y-73445D01*
X76612Y-73276D01*
X76668Y-72995D01*
X76668Y-72770D01*
X76612Y-72489D01*
X76556Y-72320D01*
X76499Y-72207D01*
X76387Y-72039D01*
X76331Y-71982D01*
X49531Y-74216D02*
X49531Y-74610D01*
X49334Y-74413D02*
X49728Y-74413D01*
X51415Y-74891D02*
X50740Y-74891D01*
X51077Y-74891D02*
X51077Y-73710D01*
X50965Y-73879D01*
X50853Y-73991D01*
X50740Y-74048D01*
X51921Y-74779D02*
X51977Y-74835D01*
X51921Y-74891D01*
X51865Y-74835D01*
X51921Y-74779D01*
X51921Y-74891D01*
X52709Y-73710D02*
X52821Y-73710D01*
X52933Y-73766D01*
X52990Y-73823D01*
X53046Y-73935D01*
X53102Y-74160D01*
X53102Y-74441D01*
X53046Y-74666D01*
X52990Y-74779D01*
X52933Y-74835D01*
X52821Y-74891D01*
X52709Y-74891D01*
X52596Y-74835D01*
X52540Y-74779D01*
X52484Y-74666D01*
X52427Y-74441D01*
X52427Y-74160D01*
X52484Y-73935D01*
X52540Y-73823D01*
X52596Y-73766D01*
X52709Y-73710D01*
X53833Y-73710D02*
X53946Y-73710D01*
X54058Y-73766D01*
X54115Y-73823D01*
X54171Y-73935D01*
X54227Y-74160D01*
X54227Y-74441D01*
X54171Y-74666D01*
X54115Y-74779D01*
X54058Y-74835D01*
X53946Y-74891D01*
X53833Y-74891D01*
X53721Y-74835D01*
X53665Y-74779D01*
X53608Y-74666D01*
X53552Y-74441D01*
X53552Y-74160D01*
X53608Y-73935D01*
X53665Y-73823D01*
X53721Y-73766D01*
X53833Y-73710D01*
X54733Y-74891D02*
X54733Y-74104D01*
X54733Y-74216D02*
X54790Y-74160D01*
X54902Y-74104D01*
X55071Y-74104D01*
X55183Y-74160D01*
X55239Y-74273D01*
X55239Y-74891D01*
X55239Y-74273D02*
X55296Y-74160D01*
X55408Y-74104D01*
X55577Y-74104D01*
X55689Y-74160D01*
X55746Y-74273D01*
X55746Y-74891D01*
X56308Y-74891D02*
X56308Y-74104D01*
X56308Y-74216D02*
X56364Y-74160D01*
X56477Y-74104D01*
X56646Y-74104D01*
X56758Y-74160D01*
X56814Y-74273D01*
X56814Y-74891D01*
X56814Y-74273D02*
X56871Y-74160D01*
X56983Y-74104D01*
X57152Y-74104D01*
X57264Y-74160D01*
X57320Y-74273D01*
X57320Y-74891D01*
X59626Y-73654D02*
X58614Y-75172D01*
X61145Y-73710D02*
X61257Y-73710D01*
X61370Y-73766D01*
X61426Y-73823D01*
X61482Y-73935D01*
X61539Y-74160D01*
X61539Y-74441D01*
X61482Y-74666D01*
X61426Y-74779D01*
X61370Y-74835D01*
X61257Y-74891D01*
X61145Y-74891D01*
X61032Y-74835D01*
X60976Y-74779D01*
X60920Y-74666D01*
X60864Y-74441D01*
X60864Y-74160D01*
X60920Y-73935D01*
X60976Y-73823D01*
X61032Y-73766D01*
X61145Y-73710D01*
X62045Y-74779D02*
X62101Y-74835D01*
X62045Y-74891D01*
X61989Y-74835D01*
X62045Y-74779D01*
X62045Y-74891D01*
X62832Y-73710D02*
X62945Y-73710D01*
X63057Y-73766D01*
X63113Y-73823D01*
X63170Y-73935D01*
X63226Y-74160D01*
X63226Y-74441D01*
X63170Y-74666D01*
X63113Y-74779D01*
X63057Y-74835D01*
X62945Y-74891D01*
X62832Y-74891D01*
X62720Y-74835D01*
X62664Y-74779D01*
X62607Y-74666D01*
X62551Y-74441D01*
X62551Y-74160D01*
X62607Y-73935D01*
X62664Y-73823D01*
X62720Y-73766D01*
X62832Y-73710D01*
X63620Y-73710D02*
X64351Y-73710D01*
X63957Y-74160D01*
X64126Y-74160D01*
X64238Y-74216D01*
X64295Y-74273D01*
X64351Y-74385D01*
X64351Y-74666D01*
X64295Y-74779D01*
X64238Y-74835D01*
X64126Y-74891D01*
X63788Y-74891D01*
X63676Y-74835D01*
X63620Y-74779D01*
X64913Y-74891D02*
X65138Y-74891D01*
X65251Y-74835D01*
X65307Y-74779D01*
X65419Y-74610D01*
X65476Y-74385D01*
X65476Y-73935D01*
X65419Y-73823D01*
X65363Y-73766D01*
X65251Y-73710D01*
X65026Y-73710D01*
X64913Y-73766D01*
X64857Y-73823D01*
X64801Y-73935D01*
X64801Y-74216D01*
X64857Y-74329D01*
X64913Y-74385D01*
X65026Y-74441D01*
X65251Y-74441D01*
X65363Y-74385D01*
X65419Y-74329D01*
X65476Y-74216D01*
X65926Y-73710D02*
X65926Y-73935D01*
X66376Y-73710D02*
X66376Y-73935D01*
X68119Y-75341D02*
X68063Y-75285D01*
X67950Y-75116D01*
X67894Y-75004D01*
X67838Y-74835D01*
X67782Y-74554D01*
X67782Y-74329D01*
X67838Y-74048D01*
X67894Y-73879D01*
X67950Y-73766D01*
X68063Y-73598D01*
X68119Y-73541D01*
X69075Y-73710D02*
X68850Y-73710D01*
X68738Y-73766D01*
X68682Y-73823D01*
X68569Y-73991D01*
X68513Y-74216D01*
X68513Y-74666D01*
X68569Y-74779D01*
X68625Y-74835D01*
X68738Y-74891D01*
X68963Y-74891D01*
X69075Y-74835D01*
X69131Y-74779D01*
X69188Y-74666D01*
X69188Y-74385D01*
X69131Y-74273D01*
X69075Y-74216D01*
X68963Y-74160D01*
X68738Y-74160D01*
X68625Y-74216D01*
X68569Y-74273D01*
X68513Y-74385D01*
X70594Y-74891D02*
X70594Y-73710D01*
X71100Y-74891D02*
X71100Y-74273D01*
X71044Y-74160D01*
X70931Y-74104D01*
X70763Y-74104D01*
X70650Y-74160D01*
X70594Y-74216D01*
X71831Y-74891D02*
X71719Y-74835D01*
X71662Y-74779D01*
X71606Y-74666D01*
X71606Y-74329D01*
X71662Y-74216D01*
X71719Y-74160D01*
X71831Y-74104D01*
X72000Y-74104D01*
X72112Y-74160D01*
X72169Y-74216D01*
X72225Y-74329D01*
X72225Y-74666D01*
X72169Y-74779D01*
X72112Y-74835D01*
X72000Y-74891D01*
X71831Y-74891D01*
X72900Y-74891D02*
X72787Y-74835D01*
X72731Y-74722D01*
X72731Y-73710D01*
X73800Y-74835D02*
X73687Y-74891D01*
X73462Y-74891D01*
X73350Y-74835D01*
X73293Y-74722D01*
X73293Y-74273D01*
X73350Y-74160D01*
X73462Y-74104D01*
X73687Y-74104D01*
X73800Y-74160D01*
X73856Y-74273D01*
X73856Y-74385D01*
X73293Y-74498D01*
X74306Y-74835D02*
X74418Y-74891D01*
X74643Y-74891D01*
X74756Y-74835D01*
X74812Y-74722D01*
X74812Y-74666D01*
X74756Y-74554D01*
X74643Y-74498D01*
X74475Y-74498D01*
X74362Y-74441D01*
X74306Y-74329D01*
X74306Y-74273D01*
X74362Y-74160D01*
X74475Y-74104D01*
X74643Y-74104D01*
X74756Y-74160D01*
X75206Y-75341D02*
X75262Y-75285D01*
X75374Y-75116D01*
X75431Y-75004D01*
X75487Y-74835D01*
X75543Y-74554D01*
X75543Y-74329D01*
X75487Y-74048D01*
X75431Y-73879D01*
X75374Y-73766D01*
X75262Y-73598D01*
X75206Y-73541D01*
G54D12*
X49669Y-76114D02*
X49669Y-75831D01*
X49386Y-75831D01*
X49386Y-76114D01*
X49669Y-76114D01*
G54D13*
X51415Y-76450D02*
X50740Y-76450D01*
X51077Y-76450D02*
X51077Y-75269D01*
X50965Y-75438D01*
X50853Y-75550D01*
X50740Y-75607D01*
X51921Y-76338D02*
X51977Y-76394D01*
X51921Y-76450D01*
X51865Y-76394D01*
X51921Y-76338D01*
X51921Y-76450D01*
X52709Y-75269D02*
X52821Y-75269D01*
X52933Y-75325D01*
X52990Y-75382D01*
X53046Y-75494D01*
X53102Y-75719D01*
X53102Y-76000D01*
X53046Y-76225D01*
X52990Y-76338D01*
X52933Y-76394D01*
X52821Y-76450D01*
X52709Y-76450D01*
X52596Y-76394D01*
X52540Y-76338D01*
X52484Y-76225D01*
X52427Y-76000D01*
X52427Y-75719D01*
X52484Y-75494D01*
X52540Y-75382D01*
X52596Y-75325D01*
X52709Y-75269D01*
X53552Y-75382D02*
X53608Y-75325D01*
X53721Y-75269D01*
X54002Y-75269D01*
X54115Y-75325D01*
X54171Y-75382D01*
X54227Y-75494D01*
X54227Y-75607D01*
X54171Y-75775D01*
X53496Y-76450D01*
X54227Y-76450D01*
X54733Y-76450D02*
X54733Y-75663D01*
X54733Y-75775D02*
X54790Y-75719D01*
X54902Y-75663D01*
X55071Y-75663D01*
X55183Y-75719D01*
X55239Y-75832D01*
X55239Y-76450D01*
X55239Y-75832D02*
X55296Y-75719D01*
X55408Y-75663D01*
X55577Y-75663D01*
X55689Y-75719D01*
X55746Y-75832D01*
X55746Y-76450D01*
X56308Y-76450D02*
X56308Y-75663D01*
X56308Y-75775D02*
X56364Y-75719D01*
X56477Y-75663D01*
X56646Y-75663D01*
X56758Y-75719D01*
X56814Y-75832D01*
X56814Y-76450D01*
X56814Y-75832D02*
X56871Y-75719D01*
X56983Y-75663D01*
X57152Y-75663D01*
X57264Y-75719D01*
X57320Y-75832D01*
X57320Y-76450D01*
X59626Y-75213D02*
X58614Y-76731D01*
X61145Y-75269D02*
X61257Y-75269D01*
X61370Y-75325D01*
X61426Y-75382D01*
X61482Y-75494D01*
X61539Y-75719D01*
X61539Y-76000D01*
X61482Y-76225D01*
X61426Y-76338D01*
X61370Y-76394D01*
X61257Y-76450D01*
X61145Y-76450D01*
X61032Y-76394D01*
X60976Y-76338D01*
X60920Y-76225D01*
X60864Y-76000D01*
X60864Y-75719D01*
X60920Y-75494D01*
X60976Y-75382D01*
X61032Y-75325D01*
X61145Y-75269D01*
X62045Y-76338D02*
X62101Y-76394D01*
X62045Y-76450D01*
X61989Y-76394D01*
X62045Y-76338D01*
X62045Y-76450D01*
X62832Y-75269D02*
X62945Y-75269D01*
X63057Y-75325D01*
X63113Y-75382D01*
X63170Y-75494D01*
X63226Y-75719D01*
X63226Y-76000D01*
X63170Y-76225D01*
X63113Y-76338D01*
X63057Y-76394D01*
X62945Y-76450D01*
X62832Y-76450D01*
X62720Y-76394D01*
X62664Y-76338D01*
X62607Y-76225D01*
X62551Y-76000D01*
X62551Y-75719D01*
X62607Y-75494D01*
X62664Y-75382D01*
X62720Y-75325D01*
X62832Y-75269D01*
X64238Y-75663D02*
X64238Y-76450D01*
X63957Y-75213D02*
X63676Y-76057D01*
X64407Y-76057D01*
X65082Y-75269D02*
X65194Y-75269D01*
X65307Y-75325D01*
X65363Y-75382D01*
X65419Y-75494D01*
X65476Y-75719D01*
X65476Y-76000D01*
X65419Y-76225D01*
X65363Y-76338D01*
X65307Y-76394D01*
X65194Y-76450D01*
X65082Y-76450D01*
X64969Y-76394D01*
X64913Y-76338D01*
X64857Y-76225D01*
X64801Y-76000D01*
X64801Y-75719D01*
X64857Y-75494D01*
X64913Y-75382D01*
X64969Y-75325D01*
X65082Y-75269D01*
X65926Y-75269D02*
X65926Y-75494D01*
X66376Y-75269D02*
X66376Y-75494D01*
X68119Y-76900D02*
X68063Y-76844D01*
X67950Y-76675D01*
X67894Y-76563D01*
X67838Y-76394D01*
X67782Y-76113D01*
X67782Y-75888D01*
X67838Y-75607D01*
X67894Y-75438D01*
X67950Y-75325D01*
X68063Y-75157D01*
X68119Y-75100D01*
X69188Y-76450D02*
X68513Y-76450D01*
X68850Y-76450D02*
X68850Y-75269D01*
X68738Y-75438D01*
X68625Y-75550D01*
X68513Y-75607D01*
X69638Y-75382D02*
X69694Y-75325D01*
X69806Y-75269D01*
X70088Y-75269D01*
X70200Y-75325D01*
X70256Y-75382D01*
X70313Y-75494D01*
X70313Y-75607D01*
X70256Y-75775D01*
X69581Y-76450D01*
X70313Y-76450D01*
X71719Y-76450D02*
X71719Y-75269D01*
X72225Y-76450D02*
X72225Y-75832D01*
X72169Y-75719D01*
X72056Y-75663D01*
X71887Y-75663D01*
X71775Y-75719D01*
X71719Y-75775D01*
X72956Y-76450D02*
X72844Y-76394D01*
X72787Y-76338D01*
X72731Y-76225D01*
X72731Y-75888D01*
X72787Y-75775D01*
X72844Y-75719D01*
X72956Y-75663D01*
X73125Y-75663D01*
X73237Y-75719D01*
X73293Y-75775D01*
X73350Y-75888D01*
X73350Y-76225D01*
X73293Y-76338D01*
X73237Y-76394D01*
X73125Y-76450D01*
X72956Y-76450D01*
X74025Y-76450D02*
X73912Y-76394D01*
X73856Y-76282D01*
X73856Y-75269D01*
X74924Y-76394D02*
X74812Y-76450D01*
X74587Y-76450D01*
X74475Y-76394D01*
X74418Y-76282D01*
X74418Y-75832D01*
X74475Y-75719D01*
X74587Y-75663D01*
X74812Y-75663D01*
X74924Y-75719D01*
X74981Y-75832D01*
X74981Y-75944D01*
X74418Y-76057D01*
X75431Y-76394D02*
X75543Y-76450D01*
X75768Y-76450D01*
X75881Y-76394D01*
X75937Y-76282D01*
X75937Y-76225D01*
X75881Y-76113D01*
X75768Y-76057D01*
X75599Y-76057D01*
X75487Y-76000D01*
X75431Y-75888D01*
X75431Y-75832D01*
X75487Y-75719D01*
X75599Y-75663D01*
X75768Y-75663D01*
X75881Y-75719D01*
X76331Y-76900D02*
X76387Y-76844D01*
X76499Y-76675D01*
X76556Y-76563D01*
X76612Y-76394D01*
X76668Y-76113D01*
X76668Y-75888D01*
X76612Y-75607D01*
X76556Y-75438D01*
X76499Y-75325D01*
X76387Y-75157D01*
X76331Y-75100D01*
G54D12*
X49503Y-77756D02*
X49728Y-77531D01*
X49503Y-77306D01*
X49278Y-77531D01*
X49503Y-77756D01*
G54D13*
X51415Y-78009D02*
X50740Y-78009D01*
X51077Y-78009D02*
X51077Y-76828D01*
X50965Y-76997D01*
X50853Y-77109D01*
X50740Y-77166D01*
X51921Y-77897D02*
X51977Y-77953D01*
X51921Y-78009D01*
X51865Y-77953D01*
X51921Y-77897D01*
X51921Y-78009D01*
X53102Y-78009D02*
X52427Y-78009D01*
X52765Y-78009D02*
X52765Y-76828D01*
X52652Y-76997D01*
X52540Y-77109D01*
X52427Y-77166D01*
X54115Y-77222D02*
X54115Y-78009D01*
X53833Y-76772D02*
X53552Y-77616D01*
X54283Y-77616D01*
X54733Y-78009D02*
X54733Y-77222D01*
X54733Y-77334D02*
X54790Y-77278D01*
X54902Y-77222D01*
X55071Y-77222D01*
X55183Y-77278D01*
X55239Y-77391D01*
X55239Y-78009D01*
X55239Y-77391D02*
X55296Y-77278D01*
X55408Y-77222D01*
X55577Y-77222D01*
X55689Y-77278D01*
X55746Y-77391D01*
X55746Y-78009D01*
X56308Y-78009D02*
X56308Y-77222D01*
X56308Y-77334D02*
X56364Y-77278D01*
X56477Y-77222D01*
X56646Y-77222D01*
X56758Y-77278D01*
X56814Y-77391D01*
X56814Y-78009D01*
X56814Y-77391D02*
X56871Y-77278D01*
X56983Y-77222D01*
X57152Y-77222D01*
X57264Y-77278D01*
X57320Y-77391D01*
X57320Y-78009D01*
X59626Y-76772D02*
X58614Y-78291D01*
X61145Y-76828D02*
X61257Y-76828D01*
X61370Y-76884D01*
X61426Y-76941D01*
X61482Y-77053D01*
X61539Y-77278D01*
X61539Y-77559D01*
X61482Y-77784D01*
X61426Y-77897D01*
X61370Y-77953D01*
X61257Y-78009D01*
X61145Y-78009D01*
X61032Y-77953D01*
X60976Y-77897D01*
X60920Y-77784D01*
X60864Y-77559D01*
X60864Y-77278D01*
X60920Y-77053D01*
X60976Y-76941D01*
X61032Y-76884D01*
X61145Y-76828D01*
X62045Y-77897D02*
X62101Y-77953D01*
X62045Y-78009D01*
X61989Y-77953D01*
X62045Y-77897D01*
X62045Y-78009D01*
X62832Y-76828D02*
X62945Y-76828D01*
X63057Y-76884D01*
X63113Y-76941D01*
X63170Y-77053D01*
X63226Y-77278D01*
X63226Y-77559D01*
X63170Y-77784D01*
X63113Y-77897D01*
X63057Y-77953D01*
X62945Y-78009D01*
X62832Y-78009D01*
X62720Y-77953D01*
X62664Y-77897D01*
X62607Y-77784D01*
X62551Y-77559D01*
X62551Y-77278D01*
X62607Y-77053D01*
X62664Y-76941D01*
X62720Y-76884D01*
X62832Y-76828D01*
X64238Y-77222D02*
X64238Y-78009D01*
X63957Y-76772D02*
X63676Y-77616D01*
X64407Y-77616D01*
X65419Y-76828D02*
X64857Y-76828D01*
X64801Y-77391D01*
X64857Y-77334D01*
X64969Y-77278D01*
X65251Y-77278D01*
X65363Y-77334D01*
X65419Y-77391D01*
X65476Y-77503D01*
X65476Y-77784D01*
X65419Y-77897D01*
X65363Y-77953D01*
X65251Y-78009D01*
X64969Y-78009D01*
X64857Y-77953D01*
X64801Y-77897D01*
X65926Y-76828D02*
X65926Y-77053D01*
X66376Y-76828D02*
X66376Y-77053D01*
X68119Y-78459D02*
X68063Y-78403D01*
X67950Y-78234D01*
X67894Y-78122D01*
X67838Y-77953D01*
X67782Y-77672D01*
X67782Y-77447D01*
X67838Y-77166D01*
X67894Y-76997D01*
X67950Y-76884D01*
X68063Y-76716D01*
X68119Y-76659D01*
X68457Y-76828D02*
X69188Y-76828D01*
X68794Y-77278D01*
X68963Y-77278D01*
X69075Y-77334D01*
X69131Y-77391D01*
X69188Y-77503D01*
X69188Y-77784D01*
X69131Y-77897D01*
X69075Y-77953D01*
X68963Y-78009D01*
X68625Y-78009D01*
X68513Y-77953D01*
X68457Y-77897D01*
X70594Y-78009D02*
X70594Y-76828D01*
X71100Y-78009D02*
X71100Y-77391D01*
X71044Y-77278D01*
X70931Y-77222D01*
X70763Y-77222D01*
X70650Y-77278D01*
X70594Y-77334D01*
X71831Y-78009D02*
X71719Y-77953D01*
X71662Y-77897D01*
X71606Y-77784D01*
X71606Y-77447D01*
X71662Y-77334D01*
X71719Y-77278D01*
X71831Y-77222D01*
X72000Y-77222D01*
X72112Y-77278D01*
X72169Y-77334D01*
X72225Y-77447D01*
X72225Y-77784D01*
X72169Y-77897D01*
X72112Y-77953D01*
X72000Y-78009D01*
X71831Y-78009D01*
X72900Y-78009D02*
X72787Y-77953D01*
X72731Y-77841D01*
X72731Y-76828D01*
X73800Y-77953D02*
X73687Y-78009D01*
X73462Y-78009D01*
X73350Y-77953D01*
X73293Y-77841D01*
X73293Y-77391D01*
X73350Y-77278D01*
X73462Y-77222D01*
X73687Y-77222D01*
X73800Y-77278D01*
X73856Y-77391D01*
X73856Y-77503D01*
X73293Y-77616D01*
X74306Y-77953D02*
X74418Y-78009D01*
X74643Y-78009D01*
X74756Y-77953D01*
X74812Y-77841D01*
X74812Y-77784D01*
X74756Y-77672D01*
X74643Y-77616D01*
X74475Y-77616D01*
X74362Y-77559D01*
X74306Y-77447D01*
X74306Y-77391D01*
X74362Y-77278D01*
X74475Y-77222D01*
X74643Y-77222D01*
X74756Y-77278D01*
X75206Y-78459D02*
X75262Y-78403D01*
X75374Y-78234D01*
X75431Y-78122D01*
X75487Y-77953D01*
X75543Y-77672D01*
X75543Y-77447D01*
X75487Y-77166D01*
X75431Y-76997D01*
X75374Y-76884D01*
X75262Y-76716D01*
X75206Y-76659D01*
X49059Y-78756D02*
X49728Y-79425D01*
X49728Y-78756D02*
X49059Y-79425D01*
G54D12*
X49728Y-79090D02*
G75*
G03X49728Y-79090I-334J0D01*
G74*
G01*
G54D13*
X51415Y-79568D02*
X50740Y-79568D01*
X51077Y-79568D02*
X51077Y-78387D01*
X50965Y-78556D01*
X50853Y-78668D01*
X50740Y-78725D01*
X51921Y-79456D02*
X51977Y-79512D01*
X51921Y-79568D01*
X51865Y-79512D01*
X51921Y-79456D01*
X51921Y-79568D01*
X52371Y-78387D02*
X53158Y-78387D01*
X52652Y-79568D01*
X53833Y-78387D02*
X53946Y-78387D01*
X54058Y-78444D01*
X54115Y-78500D01*
X54171Y-78612D01*
X54227Y-78837D01*
X54227Y-79118D01*
X54171Y-79343D01*
X54115Y-79456D01*
X54058Y-79512D01*
X53946Y-79568D01*
X53833Y-79568D01*
X53721Y-79512D01*
X53665Y-79456D01*
X53608Y-79343D01*
X53552Y-79118D01*
X53552Y-78837D01*
X53608Y-78612D01*
X53665Y-78500D01*
X53721Y-78444D01*
X53833Y-78387D01*
X54733Y-79568D02*
X54733Y-78781D01*
X54733Y-78893D02*
X54790Y-78837D01*
X54902Y-78781D01*
X55071Y-78781D01*
X55183Y-78837D01*
X55239Y-78950D01*
X55239Y-79568D01*
X55239Y-78950D02*
X55296Y-78837D01*
X55408Y-78781D01*
X55577Y-78781D01*
X55689Y-78837D01*
X55746Y-78950D01*
X55746Y-79568D01*
X56308Y-79568D02*
X56308Y-78781D01*
X56308Y-78893D02*
X56364Y-78837D01*
X56477Y-78781D01*
X56646Y-78781D01*
X56758Y-78837D01*
X56814Y-78950D01*
X56814Y-79568D01*
X56814Y-78950D02*
X56871Y-78837D01*
X56983Y-78781D01*
X57152Y-78781D01*
X57264Y-78837D01*
X57320Y-78950D01*
X57320Y-79568D01*
X59626Y-78331D02*
X58614Y-79850D01*
X61145Y-78387D02*
X61257Y-78387D01*
X61370Y-78444D01*
X61426Y-78500D01*
X61482Y-78612D01*
X61539Y-78837D01*
X61539Y-79118D01*
X61482Y-79343D01*
X61426Y-79456D01*
X61370Y-79512D01*
X61257Y-79568D01*
X61145Y-79568D01*
X61032Y-79512D01*
X60976Y-79456D01*
X60920Y-79343D01*
X60864Y-79118D01*
X60864Y-78837D01*
X60920Y-78612D01*
X60976Y-78500D01*
X61032Y-78444D01*
X61145Y-78387D01*
X62045Y-79456D02*
X62101Y-79512D01*
X62045Y-79568D01*
X61989Y-79512D01*
X62045Y-79456D01*
X62045Y-79568D01*
X62832Y-78387D02*
X62945Y-78387D01*
X63057Y-78444D01*
X63113Y-78500D01*
X63170Y-78612D01*
X63226Y-78837D01*
X63226Y-79118D01*
X63170Y-79343D01*
X63113Y-79456D01*
X63057Y-79512D01*
X62945Y-79568D01*
X62832Y-79568D01*
X62720Y-79512D01*
X62664Y-79456D01*
X62607Y-79343D01*
X62551Y-79118D01*
X62551Y-78837D01*
X62607Y-78612D01*
X62664Y-78500D01*
X62720Y-78444D01*
X62832Y-78387D01*
X64238Y-78387D02*
X64013Y-78387D01*
X63901Y-78444D01*
X63845Y-78500D01*
X63732Y-78668D01*
X63676Y-78893D01*
X63676Y-79343D01*
X63732Y-79456D01*
X63788Y-79512D01*
X63901Y-79568D01*
X64126Y-79568D01*
X64238Y-79512D01*
X64295Y-79456D01*
X64351Y-79343D01*
X64351Y-79062D01*
X64295Y-78950D01*
X64238Y-78893D01*
X64126Y-78837D01*
X63901Y-78837D01*
X63788Y-78893D01*
X63732Y-78950D01*
X63676Y-79062D01*
X64745Y-78387D02*
X65532Y-78387D01*
X65026Y-79568D01*
X65926Y-78387D02*
X65926Y-78612D01*
X66376Y-78387D02*
X66376Y-78612D01*
X68119Y-80018D02*
X68063Y-79962D01*
X67950Y-79793D01*
X67894Y-79681D01*
X67838Y-79512D01*
X67782Y-79231D01*
X67782Y-79006D01*
X67838Y-78725D01*
X67894Y-78556D01*
X67950Y-78444D01*
X68063Y-78275D01*
X68119Y-78219D01*
X69188Y-79568D02*
X68513Y-79568D01*
X68850Y-79568D02*
X68850Y-78387D01*
X68738Y-78556D01*
X68625Y-78668D01*
X68513Y-78725D01*
X70594Y-79568D02*
X70594Y-78387D01*
X71100Y-79568D02*
X71100Y-78950D01*
X71044Y-78837D01*
X70931Y-78781D01*
X70763Y-78781D01*
X70650Y-78837D01*
X70594Y-78893D01*
X71831Y-79568D02*
X71719Y-79512D01*
X71662Y-79456D01*
X71606Y-79343D01*
X71606Y-79006D01*
X71662Y-78893D01*
X71719Y-78837D01*
X71831Y-78781D01*
X72000Y-78781D01*
X72112Y-78837D01*
X72169Y-78893D01*
X72225Y-79006D01*
X72225Y-79343D01*
X72169Y-79456D01*
X72112Y-79512D01*
X72000Y-79568D01*
X71831Y-79568D01*
X72900Y-79568D02*
X72787Y-79512D01*
X72731Y-79400D01*
X72731Y-78387D01*
X73800Y-79512D02*
X73687Y-79568D01*
X73462Y-79568D01*
X73350Y-79512D01*
X73293Y-79400D01*
X73293Y-78950D01*
X73350Y-78837D01*
X73462Y-78781D01*
X73687Y-78781D01*
X73800Y-78837D01*
X73856Y-78950D01*
X73856Y-79062D01*
X73293Y-79175D01*
X74250Y-80018D02*
X74306Y-79962D01*
X74418Y-79793D01*
X74475Y-79681D01*
X74531Y-79512D01*
X74587Y-79231D01*
X74587Y-79006D01*
X74531Y-78725D01*
X74475Y-78556D01*
X74418Y-78444D01*
X74306Y-78275D01*
X74250Y-78219D01*
X49028Y-80299D02*
X49728Y-80999D01*
X49728Y-80299D02*
X49028Y-80999D01*
X49378Y-80299D02*
X49378Y-80999D01*
X49028Y-80649D02*
X49728Y-80649D01*
X51415Y-81127D02*
X50740Y-81127D01*
X51077Y-81127D02*
X51077Y-79946D01*
X50965Y-80115D01*
X50853Y-80228D01*
X50740Y-80284D01*
X51921Y-81015D02*
X51977Y-81071D01*
X51921Y-81127D01*
X51865Y-81071D01*
X51921Y-81015D01*
X51921Y-81127D01*
X52371Y-79946D02*
X53158Y-79946D01*
X52652Y-81127D01*
X53777Y-80453D02*
X53665Y-80396D01*
X53608Y-80340D01*
X53552Y-80228D01*
X53552Y-80171D01*
X53608Y-80059D01*
X53665Y-80003D01*
X53777Y-79946D01*
X54002Y-79946D01*
X54115Y-80003D01*
X54171Y-80059D01*
X54227Y-80171D01*
X54227Y-80228D01*
X54171Y-80340D01*
X54115Y-80396D01*
X54002Y-80453D01*
X53777Y-80453D01*
X53665Y-80509D01*
X53608Y-80565D01*
X53552Y-80677D01*
X53552Y-80902D01*
X53608Y-81015D01*
X53665Y-81071D01*
X53777Y-81127D01*
X54002Y-81127D01*
X54115Y-81071D01*
X54171Y-81015D01*
X54227Y-80902D01*
X54227Y-80677D01*
X54171Y-80565D01*
X54115Y-80509D01*
X54002Y-80453D01*
X54733Y-81127D02*
X54733Y-80340D01*
X54733Y-80453D02*
X54790Y-80396D01*
X54902Y-80340D01*
X55071Y-80340D01*
X55183Y-80396D01*
X55239Y-80509D01*
X55239Y-81127D01*
X55239Y-80509D02*
X55296Y-80396D01*
X55408Y-80340D01*
X55577Y-80340D01*
X55689Y-80396D01*
X55746Y-80509D01*
X55746Y-81127D01*
X56308Y-81127D02*
X56308Y-80340D01*
X56308Y-80453D02*
X56364Y-80396D01*
X56477Y-80340D01*
X56646Y-80340D01*
X56758Y-80396D01*
X56814Y-80509D01*
X56814Y-81127D01*
X56814Y-80509D02*
X56871Y-80396D01*
X56983Y-80340D01*
X57152Y-80340D01*
X57264Y-80396D01*
X57320Y-80509D01*
X57320Y-81127D01*
X59626Y-79890D02*
X58614Y-81409D01*
X61145Y-79946D02*
X61257Y-79946D01*
X61370Y-80003D01*
X61426Y-80059D01*
X61482Y-80171D01*
X61539Y-80396D01*
X61539Y-80677D01*
X61482Y-80902D01*
X61426Y-81015D01*
X61370Y-81071D01*
X61257Y-81127D01*
X61145Y-81127D01*
X61032Y-81071D01*
X60976Y-81015D01*
X60920Y-80902D01*
X60864Y-80677D01*
X60864Y-80396D01*
X60920Y-80171D01*
X60976Y-80059D01*
X61032Y-80003D01*
X61145Y-79946D01*
X62045Y-81015D02*
X62101Y-81071D01*
X62045Y-81127D01*
X61989Y-81071D01*
X62045Y-81015D01*
X62045Y-81127D01*
X62832Y-79946D02*
X62945Y-79946D01*
X63057Y-80003D01*
X63113Y-80059D01*
X63170Y-80171D01*
X63226Y-80396D01*
X63226Y-80677D01*
X63170Y-80902D01*
X63113Y-81015D01*
X63057Y-81071D01*
X62945Y-81127D01*
X62832Y-81127D01*
X62720Y-81071D01*
X62664Y-81015D01*
X62607Y-80902D01*
X62551Y-80677D01*
X62551Y-80396D01*
X62607Y-80171D01*
X62664Y-80059D01*
X62720Y-80003D01*
X62832Y-79946D01*
X63620Y-79946D02*
X64407Y-79946D01*
X63901Y-81127D01*
X65082Y-79946D02*
X65194Y-79946D01*
X65307Y-80003D01*
X65363Y-80059D01*
X65419Y-80171D01*
X65476Y-80396D01*
X65476Y-80677D01*
X65419Y-80902D01*
X65363Y-81015D01*
X65307Y-81071D01*
X65194Y-81127D01*
X65082Y-81127D01*
X64969Y-81071D01*
X64913Y-81015D01*
X64857Y-80902D01*
X64801Y-80677D01*
X64801Y-80396D01*
X64857Y-80171D01*
X64913Y-80059D01*
X64969Y-80003D01*
X65082Y-79946D01*
X65926Y-79946D02*
X65926Y-80171D01*
X66376Y-79946D02*
X66376Y-80171D01*
X68119Y-81577D02*
X68063Y-81521D01*
X67950Y-81352D01*
X67894Y-81240D01*
X67838Y-81071D01*
X67782Y-80790D01*
X67782Y-80565D01*
X67838Y-80284D01*
X67894Y-80115D01*
X67950Y-80003D01*
X68063Y-79834D01*
X68119Y-79778D01*
X69188Y-81127D02*
X68513Y-81127D01*
X68850Y-81127D02*
X68850Y-79946D01*
X68738Y-80115D01*
X68625Y-80228D01*
X68513Y-80284D01*
X70594Y-81127D02*
X70594Y-79946D01*
X71100Y-81127D02*
X71100Y-80509D01*
X71044Y-80396D01*
X70931Y-80340D01*
X70763Y-80340D01*
X70650Y-80396D01*
X70594Y-80453D01*
X71831Y-81127D02*
X71719Y-81071D01*
X71662Y-81015D01*
X71606Y-80902D01*
X71606Y-80565D01*
X71662Y-80453D01*
X71719Y-80396D01*
X71831Y-80340D01*
X72000Y-80340D01*
X72112Y-80396D01*
X72169Y-80453D01*
X72225Y-80565D01*
X72225Y-80902D01*
X72169Y-81015D01*
X72112Y-81071D01*
X72000Y-81127D01*
X71831Y-81127D01*
X72900Y-81127D02*
X72787Y-81071D01*
X72731Y-80959D01*
X72731Y-79946D01*
X73800Y-81071D02*
X73687Y-81127D01*
X73462Y-81127D01*
X73350Y-81071D01*
X73293Y-80959D01*
X73293Y-80509D01*
X73350Y-80396D01*
X73462Y-80340D01*
X73687Y-80340D01*
X73800Y-80396D01*
X73856Y-80509D01*
X73856Y-80621D01*
X73293Y-80734D01*
X74250Y-81577D02*
X74306Y-81521D01*
X74418Y-81352D01*
X74475Y-81240D01*
X74531Y-81071D01*
X74587Y-80790D01*
X74587Y-80565D01*
X74531Y-80284D01*
X74475Y-80115D01*
X74418Y-80003D01*
X74306Y-79834D01*
X74250Y-79778D01*
X48528Y-81608D02*
X49728Y-82808D01*
X49728Y-81608D02*
X48528Y-82808D01*
G54D12*
X49552Y-82633D02*
X49552Y-81784D01*
X48703Y-81784D01*
X48703Y-82633D01*
X49552Y-82633D01*
G54D13*
X50684Y-81505D02*
X51415Y-81505D01*
X51021Y-81955D01*
X51190Y-81955D01*
X51302Y-82012D01*
X51359Y-82068D01*
X51415Y-82180D01*
X51415Y-82462D01*
X51359Y-82574D01*
X51302Y-82630D01*
X51190Y-82686D01*
X50853Y-82686D01*
X50740Y-82630D01*
X50684Y-82574D01*
X51921Y-82574D02*
X51977Y-82630D01*
X51921Y-82686D01*
X51865Y-82630D01*
X51921Y-82574D01*
X51921Y-82686D01*
X52709Y-81505D02*
X52821Y-81505D01*
X52933Y-81562D01*
X52990Y-81618D01*
X53046Y-81730D01*
X53102Y-81955D01*
X53102Y-82237D01*
X53046Y-82462D01*
X52990Y-82574D01*
X52933Y-82630D01*
X52821Y-82686D01*
X52709Y-82686D01*
X52596Y-82630D01*
X52540Y-82574D01*
X52484Y-82462D01*
X52427Y-82237D01*
X52427Y-81955D01*
X52484Y-81730D01*
X52540Y-81618D01*
X52596Y-81562D01*
X52709Y-81505D01*
X54171Y-81505D02*
X53608Y-81505D01*
X53552Y-82068D01*
X53608Y-82012D01*
X53721Y-81955D01*
X54002Y-81955D01*
X54115Y-82012D01*
X54171Y-82068D01*
X54227Y-82180D01*
X54227Y-82462D01*
X54171Y-82574D01*
X54115Y-82630D01*
X54002Y-82686D01*
X53721Y-82686D01*
X53608Y-82630D01*
X53552Y-82574D01*
X54733Y-82686D02*
X54733Y-81899D01*
X54733Y-82012D02*
X54790Y-81955D01*
X54902Y-81899D01*
X55071Y-81899D01*
X55183Y-81955D01*
X55239Y-82068D01*
X55239Y-82686D01*
X55239Y-82068D02*
X55296Y-81955D01*
X55408Y-81899D01*
X55577Y-81899D01*
X55689Y-81955D01*
X55746Y-82068D01*
X55746Y-82686D01*
X56308Y-82686D02*
X56308Y-81899D01*
X56308Y-82012D02*
X56364Y-81955D01*
X56477Y-81899D01*
X56646Y-81899D01*
X56758Y-81955D01*
X56814Y-82068D01*
X56814Y-82686D01*
X56814Y-82068D02*
X56871Y-81955D01*
X56983Y-81899D01*
X57152Y-81899D01*
X57264Y-81955D01*
X57320Y-82068D01*
X57320Y-82686D01*
X59626Y-81449D02*
X58614Y-82968D01*
X61145Y-81505D02*
X61257Y-81505D01*
X61370Y-81562D01*
X61426Y-81618D01*
X61482Y-81730D01*
X61539Y-81955D01*
X61539Y-82237D01*
X61482Y-82462D01*
X61426Y-82574D01*
X61370Y-82630D01*
X61257Y-82686D01*
X61145Y-82686D01*
X61032Y-82630D01*
X60976Y-82574D01*
X60920Y-82462D01*
X60864Y-82237D01*
X60864Y-81955D01*
X60920Y-81730D01*
X60976Y-81618D01*
X61032Y-81562D01*
X61145Y-81505D01*
X62045Y-82574D02*
X62101Y-82630D01*
X62045Y-82686D01*
X61989Y-82630D01*
X62045Y-82574D01*
X62045Y-82686D01*
X63226Y-82686D02*
X62551Y-82686D01*
X62889Y-82686D02*
X62889Y-81505D01*
X62776Y-81674D01*
X62664Y-81787D01*
X62551Y-81843D01*
X63676Y-81618D02*
X63732Y-81562D01*
X63845Y-81505D01*
X64126Y-81505D01*
X64238Y-81562D01*
X64295Y-81618D01*
X64351Y-81730D01*
X64351Y-81843D01*
X64295Y-82012D01*
X63620Y-82686D01*
X64351Y-82686D01*
X65082Y-81505D02*
X65194Y-81505D01*
X65307Y-81562D01*
X65363Y-81618D01*
X65419Y-81730D01*
X65476Y-81955D01*
X65476Y-82237D01*
X65419Y-82462D01*
X65363Y-82574D01*
X65307Y-82630D01*
X65194Y-82686D01*
X65082Y-82686D01*
X64969Y-82630D01*
X64913Y-82574D01*
X64857Y-82462D01*
X64801Y-82237D01*
X64801Y-81955D01*
X64857Y-81730D01*
X64913Y-81618D01*
X64969Y-81562D01*
X65082Y-81505D01*
X65926Y-81505D02*
X65926Y-81730D01*
X66376Y-81505D02*
X66376Y-81730D01*
X68119Y-83136D02*
X68063Y-83080D01*
X67950Y-82911D01*
X67894Y-82799D01*
X67838Y-82630D01*
X67782Y-82349D01*
X67782Y-82124D01*
X67838Y-81843D01*
X67894Y-81674D01*
X67950Y-81562D01*
X68063Y-81393D01*
X68119Y-81337D01*
X69188Y-82686D02*
X68513Y-82686D01*
X68850Y-82686D02*
X68850Y-81505D01*
X68738Y-81674D01*
X68625Y-81787D01*
X68513Y-81843D01*
X70594Y-82686D02*
X70594Y-81505D01*
X71100Y-82686D02*
X71100Y-82068D01*
X71044Y-81955D01*
X70931Y-81899D01*
X70763Y-81899D01*
X70650Y-81955D01*
X70594Y-82012D01*
X71831Y-82686D02*
X71719Y-82630D01*
X71662Y-82574D01*
X71606Y-82462D01*
X71606Y-82124D01*
X71662Y-82012D01*
X71719Y-81955D01*
X71831Y-81899D01*
X72000Y-81899D01*
X72112Y-81955D01*
X72169Y-82012D01*
X72225Y-82124D01*
X72225Y-82462D01*
X72169Y-82574D01*
X72112Y-82630D01*
X72000Y-82686D01*
X71831Y-82686D01*
X72900Y-82686D02*
X72787Y-82630D01*
X72731Y-82518D01*
X72731Y-81505D01*
X73800Y-82630D02*
X73687Y-82686D01*
X73462Y-82686D01*
X73350Y-82630D01*
X73293Y-82518D01*
X73293Y-82068D01*
X73350Y-81955D01*
X73462Y-81899D01*
X73687Y-81899D01*
X73800Y-81955D01*
X73856Y-82068D01*
X73856Y-82180D01*
X73293Y-82293D01*
X74250Y-83136D02*
X74306Y-83080D01*
X74418Y-82911D01*
X74475Y-82799D01*
X74531Y-82630D01*
X74587Y-82349D01*
X74587Y-82124D01*
X74531Y-81843D01*
X74475Y-81674D01*
X74418Y-81562D01*
X74306Y-81393D01*
X74250Y-81337D01*
X48428Y-83270D02*
X49728Y-84570D01*
X49728Y-83270D02*
X48428Y-84570D01*
G54D12*
X49078Y-84570D02*
X49728Y-83920D01*
X49078Y-83270D01*
X48428Y-83920D01*
X49078Y-84570D01*
G54D13*
X50684Y-83217D02*
X51415Y-83217D01*
X51021Y-83667D01*
X51190Y-83667D01*
X51302Y-83723D01*
X51359Y-83780D01*
X51415Y-83892D01*
X51415Y-84173D01*
X51359Y-84286D01*
X51302Y-84342D01*
X51190Y-84398D01*
X50853Y-84398D01*
X50740Y-84342D01*
X50684Y-84286D01*
X51921Y-84286D02*
X51977Y-84342D01*
X51921Y-84398D01*
X51865Y-84342D01*
X51921Y-84286D01*
X51921Y-84398D01*
X52371Y-83217D02*
X53102Y-83217D01*
X52709Y-83667D01*
X52877Y-83667D01*
X52990Y-83723D01*
X53046Y-83780D01*
X53102Y-83892D01*
X53102Y-84173D01*
X53046Y-84286D01*
X52990Y-84342D01*
X52877Y-84398D01*
X52540Y-84398D01*
X52427Y-84342D01*
X52371Y-84286D01*
X53833Y-83217D02*
X53946Y-83217D01*
X54058Y-83273D01*
X54115Y-83330D01*
X54171Y-83442D01*
X54227Y-83667D01*
X54227Y-83948D01*
X54171Y-84173D01*
X54115Y-84286D01*
X54058Y-84342D01*
X53946Y-84398D01*
X53833Y-84398D01*
X53721Y-84342D01*
X53665Y-84286D01*
X53608Y-84173D01*
X53552Y-83948D01*
X53552Y-83667D01*
X53608Y-83442D01*
X53665Y-83330D01*
X53721Y-83273D01*
X53833Y-83217D01*
X54733Y-84398D02*
X54733Y-83611D01*
X54733Y-83723D02*
X54790Y-83667D01*
X54902Y-83611D01*
X55071Y-83611D01*
X55183Y-83667D01*
X55239Y-83780D01*
X55239Y-84398D01*
X55239Y-83780D02*
X55296Y-83667D01*
X55408Y-83611D01*
X55577Y-83611D01*
X55689Y-83667D01*
X55746Y-83780D01*
X55746Y-84398D01*
X56308Y-84398D02*
X56308Y-83611D01*
X56308Y-83723D02*
X56364Y-83667D01*
X56477Y-83611D01*
X56646Y-83611D01*
X56758Y-83667D01*
X56814Y-83780D01*
X56814Y-84398D01*
X56814Y-83780D02*
X56871Y-83667D01*
X56983Y-83611D01*
X57152Y-83611D01*
X57264Y-83667D01*
X57320Y-83780D01*
X57320Y-84398D01*
X59626Y-83161D02*
X58614Y-84680D01*
X61145Y-83217D02*
X61257Y-83217D01*
X61370Y-83273D01*
X61426Y-83330D01*
X61482Y-83442D01*
X61539Y-83667D01*
X61539Y-83948D01*
X61482Y-84173D01*
X61426Y-84286D01*
X61370Y-84342D01*
X61257Y-84398D01*
X61145Y-84398D01*
X61032Y-84342D01*
X60976Y-84286D01*
X60920Y-84173D01*
X60864Y-83948D01*
X60864Y-83667D01*
X60920Y-83442D01*
X60976Y-83330D01*
X61032Y-83273D01*
X61145Y-83217D01*
X62045Y-84286D02*
X62101Y-84342D01*
X62045Y-84398D01*
X61989Y-84342D01*
X62045Y-84286D01*
X62045Y-84398D01*
X63226Y-84398D02*
X62551Y-84398D01*
X62889Y-84398D02*
X62889Y-83217D01*
X62776Y-83386D01*
X62664Y-83498D01*
X62551Y-83555D01*
X63620Y-83217D02*
X64351Y-83217D01*
X63957Y-83667D01*
X64126Y-83667D01*
X64238Y-83723D01*
X64295Y-83780D01*
X64351Y-83892D01*
X64351Y-84173D01*
X64295Y-84286D01*
X64238Y-84342D01*
X64126Y-84398D01*
X63788Y-84398D01*
X63676Y-84342D01*
X63620Y-84286D01*
X65082Y-83217D02*
X65194Y-83217D01*
X65307Y-83273D01*
X65363Y-83330D01*
X65419Y-83442D01*
X65476Y-83667D01*
X65476Y-83948D01*
X65419Y-84173D01*
X65363Y-84286D01*
X65307Y-84342D01*
X65194Y-84398D01*
X65082Y-84398D01*
X64969Y-84342D01*
X64913Y-84286D01*
X64857Y-84173D01*
X64801Y-83948D01*
X64801Y-83667D01*
X64857Y-83442D01*
X64913Y-83330D01*
X64969Y-83273D01*
X65082Y-83217D01*
X65926Y-83217D02*
X65926Y-83442D01*
X66376Y-83217D02*
X66376Y-83442D01*
X68119Y-84848D02*
X68063Y-84792D01*
X67950Y-84623D01*
X67894Y-84511D01*
X67838Y-84342D01*
X67782Y-84061D01*
X67782Y-83836D01*
X67838Y-83555D01*
X67894Y-83386D01*
X67950Y-83273D01*
X68063Y-83105D01*
X68119Y-83048D01*
X68513Y-83330D02*
X68569Y-83273D01*
X68682Y-83217D01*
X68963Y-83217D01*
X69075Y-83273D01*
X69131Y-83330D01*
X69188Y-83442D01*
X69188Y-83555D01*
X69131Y-83723D01*
X68457Y-84398D01*
X69188Y-84398D01*
X70594Y-84398D02*
X70594Y-83217D01*
X71100Y-84398D02*
X71100Y-83780D01*
X71044Y-83667D01*
X70931Y-83611D01*
X70763Y-83611D01*
X70650Y-83667D01*
X70594Y-83723D01*
X71831Y-84398D02*
X71719Y-84342D01*
X71662Y-84286D01*
X71606Y-84173D01*
X71606Y-83836D01*
X71662Y-83723D01*
X71719Y-83667D01*
X71831Y-83611D01*
X72000Y-83611D01*
X72112Y-83667D01*
X72169Y-83723D01*
X72225Y-83836D01*
X72225Y-84173D01*
X72169Y-84286D01*
X72112Y-84342D01*
X72000Y-84398D01*
X71831Y-84398D01*
X72900Y-84398D02*
X72787Y-84342D01*
X72731Y-84230D01*
X72731Y-83217D01*
X73800Y-84342D02*
X73687Y-84398D01*
X73462Y-84398D01*
X73350Y-84342D01*
X73293Y-84230D01*
X73293Y-83780D01*
X73350Y-83667D01*
X73462Y-83611D01*
X73687Y-83611D01*
X73800Y-83667D01*
X73856Y-83780D01*
X73856Y-83892D01*
X73293Y-84005D01*
X74306Y-84342D02*
X74418Y-84398D01*
X74643Y-84398D01*
X74756Y-84342D01*
X74812Y-84230D01*
X74812Y-84173D01*
X74756Y-84061D01*
X74643Y-84005D01*
X74475Y-84005D01*
X74362Y-83948D01*
X74306Y-83836D01*
X74306Y-83780D01*
X74362Y-83667D01*
X74475Y-83611D01*
X74643Y-83611D01*
X74756Y-83667D01*
X75206Y-84848D02*
X75262Y-84792D01*
X75374Y-84623D01*
X75431Y-84511D01*
X75487Y-84342D01*
X75543Y-84061D01*
X75543Y-83836D01*
X75487Y-83555D01*
X75431Y-83386D01*
X75374Y-83273D01*
X75262Y-83105D01*
X75206Y-83048D01*
M02*
