G04 (created by PCBNEW (2013-07-07 BZR 4022)-stable) date 2013-08-19 14:36:38*
%MOIN*%
G04 Gerber Fmt 3.4, Leading zero omitted, Abs format*
%FSLAX34Y34*%
G01*
G70*
G90*
G04 APERTURE LIST*
%ADD10C,0.005*%
%ADD11C,0.015*%
%ADD12C,0.00787402*%
%ADD13C,0.011811*%
G04 APERTURE END LIST*
G54D10*
G54D11*
X51654Y-25394D02*
G75*
G03X51654Y-25394I-453J0D01*
G74*
G01*
X67106Y-25394D02*
G75*
G03X67106Y-25394I-472J0D01*
G74*
G01*
X67107Y-64213D02*
G75*
G03X67107Y-64213I-473J0D01*
G74*
G01*
X51673Y-64213D02*
G75*
G03X51673Y-64213I-472J0D01*
G74*
G01*
X63622Y-44803D02*
X63622Y-44783D01*
X67972Y-22165D02*
X67972Y-67441D01*
X49862Y-22165D02*
X49882Y-22165D01*
X49862Y-67441D02*
X49862Y-22165D01*
X67933Y-67441D02*
X67933Y-67402D01*
X49862Y-67441D02*
X67933Y-67441D01*
X49862Y-22165D02*
X67972Y-22165D01*
G54D12*
X53044Y-45210D02*
X53294Y-45460D01*
X53294Y-45210D02*
X53044Y-45460D01*
X55229Y-52493D02*
X55479Y-52743D01*
X55479Y-52493D02*
X55229Y-52743D01*
X56017Y-47710D02*
X56267Y-47960D01*
X56267Y-47710D02*
X56017Y-47960D01*
X57769Y-45210D02*
X58019Y-45460D01*
X58019Y-45210D02*
X57769Y-45460D01*
X58674Y-52454D02*
X58924Y-52704D01*
X58924Y-52454D02*
X58674Y-52704D01*
X59147Y-52828D02*
X59397Y-53078D01*
X59397Y-52828D02*
X59147Y-53078D01*
X59954Y-60347D02*
X60204Y-60597D01*
X60204Y-60347D02*
X59954Y-60597D01*
X60032Y-45210D02*
X60282Y-45460D01*
X60282Y-45210D02*
X60032Y-45460D01*
X63773Y-45151D02*
X64023Y-45401D01*
X64023Y-45151D02*
X63773Y-45401D01*
X64265Y-60347D02*
X64515Y-60597D01*
X64515Y-60347D02*
X64265Y-60597D01*
X65820Y-47414D02*
X66070Y-47664D01*
X66070Y-47414D02*
X65820Y-47664D01*
X66883Y-52847D02*
X67133Y-53097D01*
X67133Y-52847D02*
X66883Y-53097D01*
X51691Y-48835D02*
G75*
G03X51691Y-48835I-160J0D01*
G74*
G01*
X51691Y-49835D02*
G75*
G03X51691Y-49835I-160J0D01*
G74*
G01*
X51691Y-50835D02*
G75*
G03X51691Y-50835I-160J0D01*
G74*
G01*
X51691Y-51835D02*
G75*
G03X51691Y-51835I-160J0D01*
G74*
G01*
X51991Y-30406D02*
G75*
G03X51991Y-30406I-160J0D01*
G74*
G01*
X51991Y-31406D02*
G75*
G03X51991Y-31406I-160J0D01*
G74*
G01*
X51991Y-44283D02*
G75*
G03X51991Y-44283I-160J0D01*
G74*
G01*
X51991Y-45283D02*
G75*
G03X51991Y-45283I-160J0D01*
G74*
G01*
X52006Y-39783D02*
G75*
G03X52006Y-39783I-160J0D01*
G74*
G01*
X52959Y-58472D02*
G75*
G03X52959Y-58472I-160J0D01*
G74*
G01*
X53959Y-57472D02*
G75*
G03X53959Y-57472I-160J0D01*
G74*
G01*
X54691Y-48835D02*
G75*
G03X54691Y-48835I-160J0D01*
G74*
G01*
X54691Y-49835D02*
G75*
G03X54691Y-49835I-160J0D01*
G74*
G01*
X54691Y-50835D02*
G75*
G03X54691Y-50835I-160J0D01*
G74*
G01*
X54691Y-51835D02*
G75*
G03X54691Y-51835I-160J0D01*
G74*
G01*
X54959Y-58472D02*
G75*
G03X54959Y-58472I-160J0D01*
G74*
G01*
X55006Y-39783D02*
G75*
G03X55006Y-39783I-160J0D01*
G74*
G01*
X57022Y-46831D02*
G75*
G03X57022Y-46831I-160J0D01*
G74*
G01*
X57022Y-48937D02*
G75*
G03X57022Y-48937I-160J0D01*
G74*
G01*
X57518Y-38425D02*
G75*
G03X57518Y-38425I-160J0D01*
G74*
G01*
X57577Y-40016D02*
G75*
G03X57577Y-40016I-160J0D01*
G74*
G01*
X57577Y-41016D02*
G75*
G03X57577Y-41016I-160J0D01*
G74*
G01*
X57577Y-42016D02*
G75*
G03X57577Y-42016I-160J0D01*
G74*
G01*
X57577Y-43016D02*
G75*
G03X57577Y-43016I-160J0D01*
G74*
G01*
X57597Y-28283D02*
G75*
G03X57597Y-28283I-160J0D01*
G74*
G01*
X57597Y-29283D02*
G75*
G03X57597Y-29283I-160J0D01*
G74*
G01*
X57597Y-30283D02*
G75*
G03X57597Y-30283I-160J0D01*
G74*
G01*
X57597Y-31283D02*
G75*
G03X57597Y-31283I-160J0D01*
G74*
G01*
X57597Y-32283D02*
G75*
G03X57597Y-32283I-160J0D01*
G74*
G01*
X57597Y-33283D02*
G75*
G03X57597Y-33283I-160J0D01*
G74*
G01*
X57597Y-34283D02*
G75*
G03X57597Y-34283I-160J0D01*
G74*
G01*
X57597Y-35283D02*
G75*
G03X57597Y-35283I-160J0D01*
G74*
G01*
X57597Y-36283D02*
G75*
G03X57597Y-36283I-160J0D01*
G74*
G01*
X58022Y-46831D02*
G75*
G03X58022Y-46831I-160J0D01*
G74*
G01*
X58022Y-48937D02*
G75*
G03X58022Y-48937I-160J0D01*
G74*
G01*
X60040Y-48937D02*
G75*
G03X60040Y-48937I-160J0D01*
G74*
G01*
X60349Y-46929D02*
G75*
G03X60349Y-46929I-160J0D01*
G74*
G01*
X60518Y-38425D02*
G75*
G03X60518Y-38425I-160J0D01*
G74*
G01*
X60577Y-40016D02*
G75*
G03X60577Y-40016I-160J0D01*
G74*
G01*
X60577Y-41016D02*
G75*
G03X60577Y-41016I-160J0D01*
G74*
G01*
X60577Y-42016D02*
G75*
G03X60577Y-42016I-160J0D01*
G74*
G01*
X60577Y-43016D02*
G75*
G03X60577Y-43016I-160J0D01*
G74*
G01*
X60597Y-28283D02*
G75*
G03X60597Y-28283I-160J0D01*
G74*
G01*
X60597Y-29283D02*
G75*
G03X60597Y-29283I-160J0D01*
G74*
G01*
X60597Y-30283D02*
G75*
G03X60597Y-30283I-160J0D01*
G74*
G01*
X60597Y-31283D02*
G75*
G03X60597Y-31283I-160J0D01*
G74*
G01*
X60597Y-32283D02*
G75*
G03X60597Y-32283I-160J0D01*
G74*
G01*
X60597Y-33283D02*
G75*
G03X60597Y-33283I-160J0D01*
G74*
G01*
X60597Y-34283D02*
G75*
G03X60597Y-34283I-160J0D01*
G74*
G01*
X60597Y-35283D02*
G75*
G03X60597Y-35283I-160J0D01*
G74*
G01*
X60597Y-36283D02*
G75*
G03X60597Y-36283I-160J0D01*
G74*
G01*
X61349Y-46929D02*
G75*
G03X61349Y-46929I-160J0D01*
G74*
G01*
X61540Y-48937D02*
G75*
G03X61540Y-48937I-160J0D01*
G74*
G01*
X63195Y-58472D02*
G75*
G03X63195Y-58472I-160J0D01*
G74*
G01*
X63503Y-48835D02*
G75*
G03X63503Y-48835I-160J0D01*
G74*
G01*
X63503Y-49835D02*
G75*
G03X63503Y-49835I-160J0D01*
G74*
G01*
X63503Y-50835D02*
G75*
G03X63503Y-50835I-160J0D01*
G74*
G01*
X63503Y-51835D02*
G75*
G03X63503Y-51835I-160J0D01*
G74*
G01*
X64195Y-57472D02*
G75*
G03X64195Y-57472I-160J0D01*
G74*
G01*
X65195Y-58472D02*
G75*
G03X65195Y-58472I-160J0D01*
G74*
G01*
X66164Y-30406D02*
G75*
G03X66164Y-30406I-160J0D01*
G74*
G01*
X66164Y-31406D02*
G75*
G03X66164Y-31406I-160J0D01*
G74*
G01*
X66164Y-44283D02*
G75*
G03X66164Y-44283I-160J0D01*
G74*
G01*
X66164Y-45283D02*
G75*
G03X66164Y-45283I-160J0D01*
G74*
G01*
X66503Y-48835D02*
G75*
G03X66503Y-48835I-160J0D01*
G74*
G01*
X66503Y-49835D02*
G75*
G03X66503Y-49835I-160J0D01*
G74*
G01*
X66503Y-50835D02*
G75*
G03X66503Y-50835I-160J0D01*
G74*
G01*
X66503Y-51835D02*
G75*
G03X66503Y-51835I-160J0D01*
G74*
G01*
X56241Y-61493D02*
X56241Y-61893D01*
X56041Y-61693D02*
X56441Y-61693D01*
X57146Y-61493D02*
X57146Y-61893D01*
X56946Y-61693D02*
X57346Y-61693D01*
X57540Y-63383D02*
X57540Y-63783D01*
X57340Y-63583D02*
X57740Y-63583D01*
X57934Y-64170D02*
X57934Y-64570D01*
X57734Y-64370D02*
X58134Y-64370D01*
X58327Y-63383D02*
X58327Y-63783D01*
X58127Y-63583D02*
X58527Y-63583D01*
X58721Y-64170D02*
X58721Y-64570D01*
X58521Y-64370D02*
X58921Y-64370D01*
X59115Y-63383D02*
X59115Y-63783D01*
X58915Y-63583D02*
X59315Y-63583D01*
X59508Y-64170D02*
X59508Y-64570D01*
X59308Y-64370D02*
X59708Y-64370D01*
X59902Y-63383D02*
X59902Y-63783D01*
X59702Y-63583D02*
X60102Y-63583D01*
X60296Y-64170D02*
X60296Y-64570D01*
X60096Y-64370D02*
X60496Y-64370D01*
X60729Y-61493D02*
X60729Y-61893D01*
X60529Y-61693D02*
X60929Y-61693D01*
X61615Y-61483D02*
X61615Y-61883D01*
X61415Y-61683D02*
X61815Y-61683D01*
X58076Y-51498D02*
X58076Y-51179D01*
X57757Y-51179D01*
X57757Y-51498D01*
X58076Y-51498D01*
X59076Y-51498D02*
X59076Y-51179D01*
X58757Y-51179D01*
X58757Y-51498D01*
X59076Y-51498D01*
X60076Y-51498D02*
X60076Y-51179D01*
X59757Y-51179D01*
X59757Y-51498D01*
X60076Y-51498D01*
X55729Y-64271D02*
X56063Y-63937D01*
X55729Y-63602D01*
X55394Y-63937D01*
X55729Y-64271D01*
X61776Y-63587D02*
X62476Y-64287D01*
X62476Y-63587D02*
X61776Y-64287D01*
X62476Y-63937D02*
G75*
G03X62476Y-63937I-350J0D01*
G74*
G01*
X58317Y-57239D02*
X59517Y-58439D01*
X59517Y-57239D02*
X58317Y-58439D01*
X58917Y-57239D02*
X58917Y-58439D01*
X58317Y-57839D02*
X59517Y-57839D01*
X55787Y-64626D02*
X57087Y-65926D01*
X57087Y-64626D02*
X55787Y-65926D01*
X56896Y-65735D02*
X56896Y-64816D01*
X55977Y-64816D01*
X55977Y-65735D01*
X56896Y-65735D01*
X60787Y-64626D02*
X62087Y-65926D01*
X62087Y-64626D02*
X60787Y-65926D01*
X61896Y-65735D02*
X61896Y-64816D01*
X60977Y-64816D01*
X60977Y-65735D01*
X61896Y-65735D01*
G54D13*
X50855Y-69293D02*
X50855Y-68112D01*
X51136Y-68112D01*
X51305Y-68168D01*
X51418Y-68280D01*
X51474Y-68393D01*
X51530Y-68618D01*
X51530Y-68787D01*
X51474Y-69012D01*
X51418Y-69124D01*
X51305Y-69237D01*
X51136Y-69293D01*
X50855Y-69293D01*
X52036Y-69293D02*
X52036Y-68505D01*
X52036Y-68730D02*
X52092Y-68618D01*
X52149Y-68562D01*
X52261Y-68505D01*
X52374Y-68505D01*
X52767Y-69293D02*
X52767Y-68505D01*
X52767Y-68112D02*
X52711Y-68168D01*
X52767Y-68224D01*
X52824Y-68168D01*
X52767Y-68112D01*
X52767Y-68224D01*
X53499Y-69293D02*
X53386Y-69237D01*
X53330Y-69124D01*
X53330Y-68112D01*
X54117Y-69293D02*
X54005Y-69237D01*
X53948Y-69124D01*
X53948Y-68112D01*
X55467Y-69293D02*
X55467Y-68112D01*
X55861Y-68955D01*
X56254Y-68112D01*
X56254Y-69293D01*
X57323Y-69293D02*
X57323Y-68674D01*
X57267Y-68562D01*
X57154Y-68505D01*
X56929Y-68505D01*
X56817Y-68562D01*
X57323Y-69237D02*
X57211Y-69293D01*
X56929Y-69293D01*
X56817Y-69237D01*
X56761Y-69124D01*
X56761Y-69012D01*
X56817Y-68899D01*
X56929Y-68843D01*
X57211Y-68843D01*
X57323Y-68787D01*
X57885Y-68505D02*
X57885Y-69686D01*
X57885Y-68562D02*
X57998Y-68505D01*
X58223Y-68505D01*
X58335Y-68562D01*
X58392Y-68618D01*
X58448Y-68730D01*
X58448Y-69068D01*
X58392Y-69180D01*
X58335Y-69237D01*
X58223Y-69293D01*
X57998Y-69293D01*
X57885Y-69237D01*
X58954Y-69180D02*
X59010Y-69237D01*
X58954Y-69293D01*
X58898Y-69237D01*
X58954Y-69180D01*
X58954Y-69293D01*
X58954Y-68562D02*
X59010Y-68618D01*
X58954Y-68674D01*
X58898Y-68618D01*
X58954Y-68562D01*
X58954Y-68674D01*
X49536Y-71170D02*
X49786Y-71420D01*
X49786Y-71170D02*
X49536Y-71420D01*
X51080Y-70592D02*
X51193Y-70592D01*
X51305Y-70648D01*
X51361Y-70704D01*
X51418Y-70817D01*
X51474Y-71042D01*
X51474Y-71323D01*
X51418Y-71548D01*
X51361Y-71661D01*
X51305Y-71717D01*
X51193Y-71773D01*
X51080Y-71773D01*
X50968Y-71717D01*
X50911Y-71661D01*
X50855Y-71548D01*
X50799Y-71323D01*
X50799Y-71042D01*
X50855Y-70817D01*
X50911Y-70704D01*
X50968Y-70648D01*
X51080Y-70592D01*
X51980Y-71661D02*
X52036Y-71717D01*
X51980Y-71773D01*
X51924Y-71717D01*
X51980Y-71661D01*
X51980Y-71773D01*
X53049Y-70592D02*
X52824Y-70592D01*
X52711Y-70648D01*
X52655Y-70704D01*
X52542Y-70873D01*
X52486Y-71098D01*
X52486Y-71548D01*
X52542Y-71661D01*
X52599Y-71717D01*
X52711Y-71773D01*
X52936Y-71773D01*
X53049Y-71717D01*
X53105Y-71661D01*
X53161Y-71548D01*
X53161Y-71267D01*
X53105Y-71154D01*
X53049Y-71098D01*
X52936Y-71042D01*
X52711Y-71042D01*
X52599Y-71098D01*
X52542Y-71154D01*
X52486Y-71267D01*
X54173Y-70986D02*
X54173Y-71773D01*
X53892Y-70536D02*
X53611Y-71379D01*
X54342Y-71379D01*
X54792Y-71773D02*
X54792Y-70986D01*
X54792Y-71098D02*
X54848Y-71042D01*
X54961Y-70986D01*
X55130Y-70986D01*
X55242Y-71042D01*
X55298Y-71154D01*
X55298Y-71773D01*
X55298Y-71154D02*
X55355Y-71042D01*
X55467Y-70986D01*
X55636Y-70986D01*
X55748Y-71042D01*
X55804Y-71154D01*
X55804Y-71773D01*
X56367Y-71773D02*
X56367Y-70986D01*
X56367Y-71098D02*
X56423Y-71042D01*
X56536Y-70986D01*
X56704Y-70986D01*
X56817Y-71042D01*
X56873Y-71154D01*
X56873Y-71773D01*
X56873Y-71154D02*
X56929Y-71042D01*
X57042Y-70986D01*
X57211Y-70986D01*
X57323Y-71042D01*
X57379Y-71154D01*
X57379Y-71773D01*
X59685Y-70536D02*
X58673Y-72054D01*
X61204Y-70592D02*
X61316Y-70592D01*
X61429Y-70648D01*
X61485Y-70704D01*
X61541Y-70817D01*
X61598Y-71042D01*
X61598Y-71323D01*
X61541Y-71548D01*
X61485Y-71661D01*
X61429Y-71717D01*
X61316Y-71773D01*
X61204Y-71773D01*
X61091Y-71717D01*
X61035Y-71661D01*
X60979Y-71548D01*
X60923Y-71323D01*
X60923Y-71042D01*
X60979Y-70817D01*
X61035Y-70704D01*
X61091Y-70648D01*
X61204Y-70592D01*
X62104Y-71661D02*
X62160Y-71717D01*
X62104Y-71773D01*
X62047Y-71717D01*
X62104Y-71661D01*
X62104Y-71773D01*
X62891Y-70592D02*
X63004Y-70592D01*
X63116Y-70648D01*
X63172Y-70704D01*
X63229Y-70817D01*
X63285Y-71042D01*
X63285Y-71323D01*
X63229Y-71548D01*
X63172Y-71661D01*
X63116Y-71717D01*
X63004Y-71773D01*
X62891Y-71773D01*
X62779Y-71717D01*
X62722Y-71661D01*
X62666Y-71548D01*
X62610Y-71323D01*
X62610Y-71042D01*
X62666Y-70817D01*
X62722Y-70704D01*
X62779Y-70648D01*
X62891Y-70592D01*
X63735Y-70704D02*
X63791Y-70648D01*
X63903Y-70592D01*
X64185Y-70592D01*
X64297Y-70648D01*
X64353Y-70704D01*
X64410Y-70817D01*
X64410Y-70929D01*
X64353Y-71098D01*
X63679Y-71773D01*
X64410Y-71773D01*
X65478Y-70592D02*
X64916Y-70592D01*
X64860Y-71154D01*
X64916Y-71098D01*
X65028Y-71042D01*
X65310Y-71042D01*
X65422Y-71098D01*
X65478Y-71154D01*
X65535Y-71267D01*
X65535Y-71548D01*
X65478Y-71661D01*
X65422Y-71717D01*
X65310Y-71773D01*
X65028Y-71773D01*
X64916Y-71717D01*
X64860Y-71661D01*
X65984Y-70592D02*
X65984Y-70817D01*
X66434Y-70592D02*
X66434Y-70817D01*
X68178Y-72223D02*
X68122Y-72167D01*
X68009Y-71998D01*
X67953Y-71886D01*
X67897Y-71717D01*
X67840Y-71436D01*
X67840Y-71211D01*
X67897Y-70929D01*
X67953Y-70761D01*
X68009Y-70648D01*
X68122Y-70480D01*
X68178Y-70423D01*
X69247Y-71773D02*
X68572Y-71773D01*
X68909Y-71773D02*
X68909Y-70592D01*
X68797Y-70761D01*
X68684Y-70873D01*
X68572Y-70929D01*
X69697Y-70704D02*
X69753Y-70648D01*
X69865Y-70592D01*
X70146Y-70592D01*
X70259Y-70648D01*
X70315Y-70704D01*
X70371Y-70817D01*
X70371Y-70929D01*
X70315Y-71098D01*
X69640Y-71773D01*
X70371Y-71773D01*
X71778Y-71773D02*
X71778Y-70592D01*
X72284Y-71773D02*
X72284Y-71154D01*
X72227Y-71042D01*
X72115Y-70986D01*
X71946Y-70986D01*
X71834Y-71042D01*
X71778Y-71098D01*
X73015Y-71773D02*
X72902Y-71717D01*
X72846Y-71661D01*
X72790Y-71548D01*
X72790Y-71211D01*
X72846Y-71098D01*
X72902Y-71042D01*
X73015Y-70986D01*
X73184Y-70986D01*
X73296Y-71042D01*
X73352Y-71098D01*
X73409Y-71211D01*
X73409Y-71548D01*
X73352Y-71661D01*
X73296Y-71717D01*
X73184Y-71773D01*
X73015Y-71773D01*
X74083Y-71773D02*
X73971Y-71717D01*
X73915Y-71604D01*
X73915Y-70592D01*
X74983Y-71717D02*
X74871Y-71773D01*
X74646Y-71773D01*
X74533Y-71717D01*
X74477Y-71604D01*
X74477Y-71154D01*
X74533Y-71042D01*
X74646Y-70986D01*
X74871Y-70986D01*
X74983Y-71042D01*
X75040Y-71154D01*
X75040Y-71267D01*
X74477Y-71379D01*
X75490Y-71717D02*
X75602Y-71773D01*
X75827Y-71773D01*
X75939Y-71717D01*
X75996Y-71604D01*
X75996Y-71548D01*
X75939Y-71436D01*
X75827Y-71379D01*
X75658Y-71379D01*
X75546Y-71323D01*
X75490Y-71211D01*
X75490Y-71154D01*
X75546Y-71042D01*
X75658Y-70986D01*
X75827Y-70986D01*
X75939Y-71042D01*
X76389Y-72223D02*
X76446Y-72167D01*
X76558Y-71998D01*
X76614Y-71886D01*
X76671Y-71717D01*
X76727Y-71436D01*
X76727Y-71211D01*
X76671Y-70929D01*
X76614Y-70761D01*
X76558Y-70648D01*
X76446Y-70480D01*
X76389Y-70423D01*
G54D12*
X49786Y-72854D02*
G75*
G03X49786Y-72854I-160J0D01*
G74*
G01*
G54D13*
X51080Y-72151D02*
X51193Y-72151D01*
X51305Y-72207D01*
X51361Y-72264D01*
X51418Y-72376D01*
X51474Y-72601D01*
X51474Y-72882D01*
X51418Y-73107D01*
X51361Y-73220D01*
X51305Y-73276D01*
X51193Y-73332D01*
X51080Y-73332D01*
X50968Y-73276D01*
X50911Y-73220D01*
X50855Y-73107D01*
X50799Y-72882D01*
X50799Y-72601D01*
X50855Y-72376D01*
X50911Y-72264D01*
X50968Y-72207D01*
X51080Y-72151D01*
X51980Y-73220D02*
X52036Y-73276D01*
X51980Y-73332D01*
X51924Y-73276D01*
X51980Y-73220D01*
X51980Y-73332D01*
X52711Y-72657D02*
X52599Y-72601D01*
X52542Y-72545D01*
X52486Y-72432D01*
X52486Y-72376D01*
X52542Y-72264D01*
X52599Y-72207D01*
X52711Y-72151D01*
X52936Y-72151D01*
X53049Y-72207D01*
X53105Y-72264D01*
X53161Y-72376D01*
X53161Y-72432D01*
X53105Y-72545D01*
X53049Y-72601D01*
X52936Y-72657D01*
X52711Y-72657D01*
X52599Y-72713D01*
X52542Y-72770D01*
X52486Y-72882D01*
X52486Y-73107D01*
X52542Y-73220D01*
X52599Y-73276D01*
X52711Y-73332D01*
X52936Y-73332D01*
X53049Y-73276D01*
X53105Y-73220D01*
X53161Y-73107D01*
X53161Y-72882D01*
X53105Y-72770D01*
X53049Y-72713D01*
X52936Y-72657D01*
X54286Y-73332D02*
X53611Y-73332D01*
X53948Y-73332D02*
X53948Y-72151D01*
X53836Y-72320D01*
X53724Y-72432D01*
X53611Y-72489D01*
X54792Y-73332D02*
X54792Y-72545D01*
X54792Y-72657D02*
X54848Y-72601D01*
X54961Y-72545D01*
X55130Y-72545D01*
X55242Y-72601D01*
X55298Y-72713D01*
X55298Y-73332D01*
X55298Y-72713D02*
X55355Y-72601D01*
X55467Y-72545D01*
X55636Y-72545D01*
X55748Y-72601D01*
X55804Y-72713D01*
X55804Y-73332D01*
X56367Y-73332D02*
X56367Y-72545D01*
X56367Y-72657D02*
X56423Y-72601D01*
X56536Y-72545D01*
X56704Y-72545D01*
X56817Y-72601D01*
X56873Y-72713D01*
X56873Y-73332D01*
X56873Y-72713D02*
X56929Y-72601D01*
X57042Y-72545D01*
X57211Y-72545D01*
X57323Y-72601D01*
X57379Y-72713D01*
X57379Y-73332D01*
X59685Y-72095D02*
X58673Y-73613D01*
X61204Y-72151D02*
X61316Y-72151D01*
X61429Y-72207D01*
X61485Y-72264D01*
X61541Y-72376D01*
X61598Y-72601D01*
X61598Y-72882D01*
X61541Y-73107D01*
X61485Y-73220D01*
X61429Y-73276D01*
X61316Y-73332D01*
X61204Y-73332D01*
X61091Y-73276D01*
X61035Y-73220D01*
X60979Y-73107D01*
X60923Y-72882D01*
X60923Y-72601D01*
X60979Y-72376D01*
X61035Y-72264D01*
X61091Y-72207D01*
X61204Y-72151D01*
X62104Y-73220D02*
X62160Y-73276D01*
X62104Y-73332D01*
X62047Y-73276D01*
X62104Y-73220D01*
X62104Y-73332D01*
X62891Y-72151D02*
X63004Y-72151D01*
X63116Y-72207D01*
X63172Y-72264D01*
X63229Y-72376D01*
X63285Y-72601D01*
X63285Y-72882D01*
X63229Y-73107D01*
X63172Y-73220D01*
X63116Y-73276D01*
X63004Y-73332D01*
X62891Y-73332D01*
X62779Y-73276D01*
X62722Y-73220D01*
X62666Y-73107D01*
X62610Y-72882D01*
X62610Y-72601D01*
X62666Y-72376D01*
X62722Y-72264D01*
X62779Y-72207D01*
X62891Y-72151D01*
X63679Y-72151D02*
X64410Y-72151D01*
X64016Y-72601D01*
X64185Y-72601D01*
X64297Y-72657D01*
X64353Y-72713D01*
X64410Y-72826D01*
X64410Y-73107D01*
X64353Y-73220D01*
X64297Y-73276D01*
X64185Y-73332D01*
X63847Y-73332D01*
X63735Y-73276D01*
X63679Y-73220D01*
X64860Y-72264D02*
X64916Y-72207D01*
X65028Y-72151D01*
X65310Y-72151D01*
X65422Y-72207D01*
X65478Y-72264D01*
X65535Y-72376D01*
X65535Y-72489D01*
X65478Y-72657D01*
X64803Y-73332D01*
X65535Y-73332D01*
X65984Y-72151D02*
X65984Y-72376D01*
X66434Y-72151D02*
X66434Y-72376D01*
X68178Y-73782D02*
X68122Y-73726D01*
X68009Y-73557D01*
X67953Y-73445D01*
X67897Y-73276D01*
X67840Y-72995D01*
X67840Y-72770D01*
X67897Y-72489D01*
X67953Y-72320D01*
X68009Y-72207D01*
X68122Y-72039D01*
X68178Y-71982D01*
X69134Y-72151D02*
X68909Y-72151D01*
X68797Y-72207D01*
X68740Y-72264D01*
X68628Y-72432D01*
X68572Y-72657D01*
X68572Y-73107D01*
X68628Y-73220D01*
X68684Y-73276D01*
X68797Y-73332D01*
X69022Y-73332D01*
X69134Y-73276D01*
X69190Y-73220D01*
X69247Y-73107D01*
X69247Y-72826D01*
X69190Y-72713D01*
X69134Y-72657D01*
X69022Y-72601D01*
X68797Y-72601D01*
X68684Y-72657D01*
X68628Y-72713D01*
X68572Y-72826D01*
X69921Y-72657D02*
X69809Y-72601D01*
X69753Y-72545D01*
X69697Y-72432D01*
X69697Y-72376D01*
X69753Y-72264D01*
X69809Y-72207D01*
X69921Y-72151D01*
X70146Y-72151D01*
X70259Y-72207D01*
X70315Y-72264D01*
X70371Y-72376D01*
X70371Y-72432D01*
X70315Y-72545D01*
X70259Y-72601D01*
X70146Y-72657D01*
X69921Y-72657D01*
X69809Y-72713D01*
X69753Y-72770D01*
X69697Y-72882D01*
X69697Y-73107D01*
X69753Y-73220D01*
X69809Y-73276D01*
X69921Y-73332D01*
X70146Y-73332D01*
X70259Y-73276D01*
X70315Y-73220D01*
X70371Y-73107D01*
X70371Y-72882D01*
X70315Y-72770D01*
X70259Y-72713D01*
X70146Y-72657D01*
X71778Y-73332D02*
X71778Y-72151D01*
X72284Y-73332D02*
X72284Y-72713D01*
X72227Y-72601D01*
X72115Y-72545D01*
X71946Y-72545D01*
X71834Y-72601D01*
X71778Y-72657D01*
X73015Y-73332D02*
X72902Y-73276D01*
X72846Y-73220D01*
X72790Y-73107D01*
X72790Y-72770D01*
X72846Y-72657D01*
X72902Y-72601D01*
X73015Y-72545D01*
X73184Y-72545D01*
X73296Y-72601D01*
X73352Y-72657D01*
X73409Y-72770D01*
X73409Y-73107D01*
X73352Y-73220D01*
X73296Y-73276D01*
X73184Y-73332D01*
X73015Y-73332D01*
X74083Y-73332D02*
X73971Y-73276D01*
X73915Y-73163D01*
X73915Y-72151D01*
X74983Y-73276D02*
X74871Y-73332D01*
X74646Y-73332D01*
X74533Y-73276D01*
X74477Y-73163D01*
X74477Y-72713D01*
X74533Y-72601D01*
X74646Y-72545D01*
X74871Y-72545D01*
X74983Y-72601D01*
X75040Y-72713D01*
X75040Y-72826D01*
X74477Y-72938D01*
X75490Y-73276D02*
X75602Y-73332D01*
X75827Y-73332D01*
X75939Y-73276D01*
X75996Y-73163D01*
X75996Y-73107D01*
X75939Y-72995D01*
X75827Y-72938D01*
X75658Y-72938D01*
X75546Y-72882D01*
X75490Y-72770D01*
X75490Y-72713D01*
X75546Y-72601D01*
X75658Y-72545D01*
X75827Y-72545D01*
X75939Y-72601D01*
X76389Y-73782D02*
X76446Y-73726D01*
X76558Y-73557D01*
X76614Y-73445D01*
X76671Y-73276D01*
X76727Y-72995D01*
X76727Y-72770D01*
X76671Y-72489D01*
X76614Y-72320D01*
X76558Y-72207D01*
X76446Y-72039D01*
X76389Y-71982D01*
X49586Y-74213D02*
X49586Y-74613D01*
X49386Y-74413D02*
X49786Y-74413D01*
X51474Y-74891D02*
X50799Y-74891D01*
X51136Y-74891D02*
X51136Y-73710D01*
X51024Y-73879D01*
X50911Y-73991D01*
X50799Y-74048D01*
X51980Y-74779D02*
X52036Y-74835D01*
X51980Y-74891D01*
X51924Y-74835D01*
X51980Y-74779D01*
X51980Y-74891D01*
X52767Y-73710D02*
X52880Y-73710D01*
X52992Y-73766D01*
X53049Y-73823D01*
X53105Y-73935D01*
X53161Y-74160D01*
X53161Y-74441D01*
X53105Y-74666D01*
X53049Y-74779D01*
X52992Y-74835D01*
X52880Y-74891D01*
X52767Y-74891D01*
X52655Y-74835D01*
X52599Y-74779D01*
X52542Y-74666D01*
X52486Y-74441D01*
X52486Y-74160D01*
X52542Y-73935D01*
X52599Y-73823D01*
X52655Y-73766D01*
X52767Y-73710D01*
X53611Y-73823D02*
X53667Y-73766D01*
X53780Y-73710D01*
X54061Y-73710D01*
X54173Y-73766D01*
X54230Y-73823D01*
X54286Y-73935D01*
X54286Y-74048D01*
X54230Y-74216D01*
X53555Y-74891D01*
X54286Y-74891D01*
X54792Y-74891D02*
X54792Y-74104D01*
X54792Y-74216D02*
X54848Y-74160D01*
X54961Y-74104D01*
X55130Y-74104D01*
X55242Y-74160D01*
X55298Y-74273D01*
X55298Y-74891D01*
X55298Y-74273D02*
X55355Y-74160D01*
X55467Y-74104D01*
X55636Y-74104D01*
X55748Y-74160D01*
X55804Y-74273D01*
X55804Y-74891D01*
X56367Y-74891D02*
X56367Y-74104D01*
X56367Y-74216D02*
X56423Y-74160D01*
X56536Y-74104D01*
X56704Y-74104D01*
X56817Y-74160D01*
X56873Y-74273D01*
X56873Y-74891D01*
X56873Y-74273D02*
X56929Y-74160D01*
X57042Y-74104D01*
X57211Y-74104D01*
X57323Y-74160D01*
X57379Y-74273D01*
X57379Y-74891D01*
X59685Y-73654D02*
X58673Y-75172D01*
X61204Y-73710D02*
X61316Y-73710D01*
X61429Y-73766D01*
X61485Y-73823D01*
X61541Y-73935D01*
X61598Y-74160D01*
X61598Y-74441D01*
X61541Y-74666D01*
X61485Y-74779D01*
X61429Y-74835D01*
X61316Y-74891D01*
X61204Y-74891D01*
X61091Y-74835D01*
X61035Y-74779D01*
X60979Y-74666D01*
X60923Y-74441D01*
X60923Y-74160D01*
X60979Y-73935D01*
X61035Y-73823D01*
X61091Y-73766D01*
X61204Y-73710D01*
X62104Y-74779D02*
X62160Y-74835D01*
X62104Y-74891D01*
X62047Y-74835D01*
X62104Y-74779D01*
X62104Y-74891D01*
X62891Y-73710D02*
X63004Y-73710D01*
X63116Y-73766D01*
X63172Y-73823D01*
X63229Y-73935D01*
X63285Y-74160D01*
X63285Y-74441D01*
X63229Y-74666D01*
X63172Y-74779D01*
X63116Y-74835D01*
X63004Y-74891D01*
X62891Y-74891D01*
X62779Y-74835D01*
X62722Y-74779D01*
X62666Y-74666D01*
X62610Y-74441D01*
X62610Y-74160D01*
X62666Y-73935D01*
X62722Y-73823D01*
X62779Y-73766D01*
X62891Y-73710D01*
X64297Y-74104D02*
X64297Y-74891D01*
X64016Y-73654D02*
X63735Y-74498D01*
X64466Y-74498D01*
X65141Y-73710D02*
X65253Y-73710D01*
X65366Y-73766D01*
X65422Y-73823D01*
X65478Y-73935D01*
X65535Y-74160D01*
X65535Y-74441D01*
X65478Y-74666D01*
X65422Y-74779D01*
X65366Y-74835D01*
X65253Y-74891D01*
X65141Y-74891D01*
X65028Y-74835D01*
X64972Y-74779D01*
X64916Y-74666D01*
X64860Y-74441D01*
X64860Y-74160D01*
X64916Y-73935D01*
X64972Y-73823D01*
X65028Y-73766D01*
X65141Y-73710D01*
X65984Y-73710D02*
X65984Y-73935D01*
X66434Y-73710D02*
X66434Y-73935D01*
X68178Y-75341D02*
X68122Y-75285D01*
X68009Y-75116D01*
X67953Y-75004D01*
X67897Y-74835D01*
X67840Y-74554D01*
X67840Y-74329D01*
X67897Y-74048D01*
X67953Y-73879D01*
X68009Y-73766D01*
X68122Y-73598D01*
X68178Y-73541D01*
X69247Y-74891D02*
X68572Y-74891D01*
X68909Y-74891D02*
X68909Y-73710D01*
X68797Y-73879D01*
X68684Y-73991D01*
X68572Y-74048D01*
X69697Y-73823D02*
X69753Y-73766D01*
X69865Y-73710D01*
X70146Y-73710D01*
X70259Y-73766D01*
X70315Y-73823D01*
X70371Y-73935D01*
X70371Y-74048D01*
X70315Y-74216D01*
X69640Y-74891D01*
X70371Y-74891D01*
X71778Y-74891D02*
X71778Y-73710D01*
X72284Y-74891D02*
X72284Y-74273D01*
X72227Y-74160D01*
X72115Y-74104D01*
X71946Y-74104D01*
X71834Y-74160D01*
X71778Y-74216D01*
X73015Y-74891D02*
X72902Y-74835D01*
X72846Y-74779D01*
X72790Y-74666D01*
X72790Y-74329D01*
X72846Y-74216D01*
X72902Y-74160D01*
X73015Y-74104D01*
X73184Y-74104D01*
X73296Y-74160D01*
X73352Y-74216D01*
X73409Y-74329D01*
X73409Y-74666D01*
X73352Y-74779D01*
X73296Y-74835D01*
X73184Y-74891D01*
X73015Y-74891D01*
X74083Y-74891D02*
X73971Y-74835D01*
X73915Y-74722D01*
X73915Y-73710D01*
X74983Y-74835D02*
X74871Y-74891D01*
X74646Y-74891D01*
X74533Y-74835D01*
X74477Y-74722D01*
X74477Y-74273D01*
X74533Y-74160D01*
X74646Y-74104D01*
X74871Y-74104D01*
X74983Y-74160D01*
X75040Y-74273D01*
X75040Y-74385D01*
X74477Y-74498D01*
X75490Y-74835D02*
X75602Y-74891D01*
X75827Y-74891D01*
X75939Y-74835D01*
X75996Y-74722D01*
X75996Y-74666D01*
X75939Y-74554D01*
X75827Y-74498D01*
X75658Y-74498D01*
X75546Y-74441D01*
X75490Y-74329D01*
X75490Y-74273D01*
X75546Y-74160D01*
X75658Y-74104D01*
X75827Y-74104D01*
X75939Y-74160D01*
X76389Y-75341D02*
X76446Y-75285D01*
X76558Y-75116D01*
X76614Y-75004D01*
X76671Y-74835D01*
X76727Y-74554D01*
X76727Y-74329D01*
X76671Y-74048D01*
X76614Y-73879D01*
X76558Y-73766D01*
X76446Y-73598D01*
X76389Y-73541D01*
G54D12*
X49721Y-76131D02*
X49721Y-75813D01*
X49402Y-75813D01*
X49402Y-76131D01*
X49721Y-76131D01*
G54D13*
X51474Y-76450D02*
X50799Y-76450D01*
X51136Y-76450D02*
X51136Y-75269D01*
X51024Y-75438D01*
X50911Y-75550D01*
X50799Y-75607D01*
X51980Y-76338D02*
X52036Y-76394D01*
X51980Y-76450D01*
X51924Y-76394D01*
X51980Y-76338D01*
X51980Y-76450D01*
X53161Y-76450D02*
X52486Y-76450D01*
X52824Y-76450D02*
X52824Y-75269D01*
X52711Y-75438D01*
X52599Y-75550D01*
X52486Y-75607D01*
X54173Y-75663D02*
X54173Y-76450D01*
X53892Y-75213D02*
X53611Y-76057D01*
X54342Y-76057D01*
X54792Y-76450D02*
X54792Y-75663D01*
X54792Y-75775D02*
X54848Y-75719D01*
X54961Y-75663D01*
X55130Y-75663D01*
X55242Y-75719D01*
X55298Y-75832D01*
X55298Y-76450D01*
X55298Y-75832D02*
X55355Y-75719D01*
X55467Y-75663D01*
X55636Y-75663D01*
X55748Y-75719D01*
X55804Y-75832D01*
X55804Y-76450D01*
X56367Y-76450D02*
X56367Y-75663D01*
X56367Y-75775D02*
X56423Y-75719D01*
X56536Y-75663D01*
X56704Y-75663D01*
X56817Y-75719D01*
X56873Y-75832D01*
X56873Y-76450D01*
X56873Y-75832D02*
X56929Y-75719D01*
X57042Y-75663D01*
X57211Y-75663D01*
X57323Y-75719D01*
X57379Y-75832D01*
X57379Y-76450D01*
X59685Y-75213D02*
X58673Y-76731D01*
X61204Y-75269D02*
X61316Y-75269D01*
X61429Y-75325D01*
X61485Y-75382D01*
X61541Y-75494D01*
X61598Y-75719D01*
X61598Y-76000D01*
X61541Y-76225D01*
X61485Y-76338D01*
X61429Y-76394D01*
X61316Y-76450D01*
X61204Y-76450D01*
X61091Y-76394D01*
X61035Y-76338D01*
X60979Y-76225D01*
X60923Y-76000D01*
X60923Y-75719D01*
X60979Y-75494D01*
X61035Y-75382D01*
X61091Y-75325D01*
X61204Y-75269D01*
X62104Y-76338D02*
X62160Y-76394D01*
X62104Y-76450D01*
X62047Y-76394D01*
X62104Y-76338D01*
X62104Y-76450D01*
X62891Y-75269D02*
X63004Y-75269D01*
X63116Y-75325D01*
X63172Y-75382D01*
X63229Y-75494D01*
X63285Y-75719D01*
X63285Y-76000D01*
X63229Y-76225D01*
X63172Y-76338D01*
X63116Y-76394D01*
X63004Y-76450D01*
X62891Y-76450D01*
X62779Y-76394D01*
X62722Y-76338D01*
X62666Y-76225D01*
X62610Y-76000D01*
X62610Y-75719D01*
X62666Y-75494D01*
X62722Y-75382D01*
X62779Y-75325D01*
X62891Y-75269D01*
X64297Y-75663D02*
X64297Y-76450D01*
X64016Y-75213D02*
X63735Y-76057D01*
X64466Y-76057D01*
X65478Y-75269D02*
X64916Y-75269D01*
X64860Y-75832D01*
X64916Y-75775D01*
X65028Y-75719D01*
X65310Y-75719D01*
X65422Y-75775D01*
X65478Y-75832D01*
X65535Y-75944D01*
X65535Y-76225D01*
X65478Y-76338D01*
X65422Y-76394D01*
X65310Y-76450D01*
X65028Y-76450D01*
X64916Y-76394D01*
X64860Y-76338D01*
X65984Y-75269D02*
X65984Y-75494D01*
X66434Y-75269D02*
X66434Y-75494D01*
X68178Y-76900D02*
X68122Y-76844D01*
X68009Y-76675D01*
X67953Y-76563D01*
X67897Y-76394D01*
X67840Y-76113D01*
X67840Y-75888D01*
X67897Y-75607D01*
X67953Y-75438D01*
X68009Y-75325D01*
X68122Y-75157D01*
X68178Y-75100D01*
X68515Y-75269D02*
X69247Y-75269D01*
X68853Y-75719D01*
X69022Y-75719D01*
X69134Y-75775D01*
X69190Y-75832D01*
X69247Y-75944D01*
X69247Y-76225D01*
X69190Y-76338D01*
X69134Y-76394D01*
X69022Y-76450D01*
X68684Y-76450D01*
X68572Y-76394D01*
X68515Y-76338D01*
X70653Y-76450D02*
X70653Y-75269D01*
X71159Y-76450D02*
X71159Y-75832D01*
X71103Y-75719D01*
X70990Y-75663D01*
X70821Y-75663D01*
X70709Y-75719D01*
X70653Y-75775D01*
X71890Y-76450D02*
X71778Y-76394D01*
X71721Y-76338D01*
X71665Y-76225D01*
X71665Y-75888D01*
X71721Y-75775D01*
X71778Y-75719D01*
X71890Y-75663D01*
X72059Y-75663D01*
X72171Y-75719D01*
X72227Y-75775D01*
X72284Y-75888D01*
X72284Y-76225D01*
X72227Y-76338D01*
X72171Y-76394D01*
X72059Y-76450D01*
X71890Y-76450D01*
X72959Y-76450D02*
X72846Y-76394D01*
X72790Y-76282D01*
X72790Y-75269D01*
X73858Y-76394D02*
X73746Y-76450D01*
X73521Y-76450D01*
X73409Y-76394D01*
X73352Y-76282D01*
X73352Y-75832D01*
X73409Y-75719D01*
X73521Y-75663D01*
X73746Y-75663D01*
X73858Y-75719D01*
X73915Y-75832D01*
X73915Y-75944D01*
X73352Y-76057D01*
X74365Y-76394D02*
X74477Y-76450D01*
X74702Y-76450D01*
X74815Y-76394D01*
X74871Y-76282D01*
X74871Y-76225D01*
X74815Y-76113D01*
X74702Y-76057D01*
X74533Y-76057D01*
X74421Y-76000D01*
X74365Y-75888D01*
X74365Y-75832D01*
X74421Y-75719D01*
X74533Y-75663D01*
X74702Y-75663D01*
X74815Y-75719D01*
X75265Y-76900D02*
X75321Y-76844D01*
X75433Y-76675D01*
X75490Y-76563D01*
X75546Y-76394D01*
X75602Y-76113D01*
X75602Y-75888D01*
X75546Y-75607D01*
X75490Y-75438D01*
X75433Y-75325D01*
X75321Y-75157D01*
X75265Y-75100D01*
G54D12*
X49452Y-77866D02*
X49786Y-77531D01*
X49452Y-77197D01*
X49117Y-77531D01*
X49452Y-77866D01*
G54D13*
X51474Y-78009D02*
X50799Y-78009D01*
X51136Y-78009D02*
X51136Y-76828D01*
X51024Y-76997D01*
X50911Y-77109D01*
X50799Y-77166D01*
X51980Y-77897D02*
X52036Y-77953D01*
X51980Y-78009D01*
X51924Y-77953D01*
X51980Y-77897D01*
X51980Y-78009D01*
X52430Y-76828D02*
X53217Y-76828D01*
X52711Y-78009D01*
X53892Y-76828D02*
X54005Y-76828D01*
X54117Y-76884D01*
X54173Y-76941D01*
X54230Y-77053D01*
X54286Y-77278D01*
X54286Y-77559D01*
X54230Y-77784D01*
X54173Y-77897D01*
X54117Y-77953D01*
X54005Y-78009D01*
X53892Y-78009D01*
X53780Y-77953D01*
X53724Y-77897D01*
X53667Y-77784D01*
X53611Y-77559D01*
X53611Y-77278D01*
X53667Y-77053D01*
X53724Y-76941D01*
X53780Y-76884D01*
X53892Y-76828D01*
X54792Y-78009D02*
X54792Y-77222D01*
X54792Y-77334D02*
X54848Y-77278D01*
X54961Y-77222D01*
X55130Y-77222D01*
X55242Y-77278D01*
X55298Y-77391D01*
X55298Y-78009D01*
X55298Y-77391D02*
X55355Y-77278D01*
X55467Y-77222D01*
X55636Y-77222D01*
X55748Y-77278D01*
X55804Y-77391D01*
X55804Y-78009D01*
X56367Y-78009D02*
X56367Y-77222D01*
X56367Y-77334D02*
X56423Y-77278D01*
X56536Y-77222D01*
X56704Y-77222D01*
X56817Y-77278D01*
X56873Y-77391D01*
X56873Y-78009D01*
X56873Y-77391D02*
X56929Y-77278D01*
X57042Y-77222D01*
X57211Y-77222D01*
X57323Y-77278D01*
X57379Y-77391D01*
X57379Y-78009D01*
X59685Y-76772D02*
X58673Y-78291D01*
X61204Y-76828D02*
X61316Y-76828D01*
X61429Y-76884D01*
X61485Y-76941D01*
X61541Y-77053D01*
X61598Y-77278D01*
X61598Y-77559D01*
X61541Y-77784D01*
X61485Y-77897D01*
X61429Y-77953D01*
X61316Y-78009D01*
X61204Y-78009D01*
X61091Y-77953D01*
X61035Y-77897D01*
X60979Y-77784D01*
X60923Y-77559D01*
X60923Y-77278D01*
X60979Y-77053D01*
X61035Y-76941D01*
X61091Y-76884D01*
X61204Y-76828D01*
X62104Y-77897D02*
X62160Y-77953D01*
X62104Y-78009D01*
X62047Y-77953D01*
X62104Y-77897D01*
X62104Y-78009D01*
X62891Y-76828D02*
X63004Y-76828D01*
X63116Y-76884D01*
X63172Y-76941D01*
X63229Y-77053D01*
X63285Y-77278D01*
X63285Y-77559D01*
X63229Y-77784D01*
X63172Y-77897D01*
X63116Y-77953D01*
X63004Y-78009D01*
X62891Y-78009D01*
X62779Y-77953D01*
X62722Y-77897D01*
X62666Y-77784D01*
X62610Y-77559D01*
X62610Y-77278D01*
X62666Y-77053D01*
X62722Y-76941D01*
X62779Y-76884D01*
X62891Y-76828D01*
X64297Y-76828D02*
X64072Y-76828D01*
X63960Y-76884D01*
X63903Y-76941D01*
X63791Y-77109D01*
X63735Y-77334D01*
X63735Y-77784D01*
X63791Y-77897D01*
X63847Y-77953D01*
X63960Y-78009D01*
X64185Y-78009D01*
X64297Y-77953D01*
X64353Y-77897D01*
X64410Y-77784D01*
X64410Y-77503D01*
X64353Y-77391D01*
X64297Y-77334D01*
X64185Y-77278D01*
X63960Y-77278D01*
X63847Y-77334D01*
X63791Y-77391D01*
X63735Y-77503D01*
X64803Y-76828D02*
X65591Y-76828D01*
X65085Y-78009D01*
X65984Y-76828D02*
X65984Y-77053D01*
X66434Y-76828D02*
X66434Y-77053D01*
X68178Y-78459D02*
X68122Y-78403D01*
X68009Y-78234D01*
X67953Y-78122D01*
X67897Y-77953D01*
X67840Y-77672D01*
X67840Y-77447D01*
X67897Y-77166D01*
X67953Y-76997D01*
X68009Y-76884D01*
X68122Y-76716D01*
X68178Y-76659D01*
X69247Y-78009D02*
X68572Y-78009D01*
X68909Y-78009D02*
X68909Y-76828D01*
X68797Y-76997D01*
X68684Y-77109D01*
X68572Y-77166D01*
X70653Y-78009D02*
X70653Y-76828D01*
X71159Y-78009D02*
X71159Y-77391D01*
X71103Y-77278D01*
X70990Y-77222D01*
X70821Y-77222D01*
X70709Y-77278D01*
X70653Y-77334D01*
X71890Y-78009D02*
X71778Y-77953D01*
X71721Y-77897D01*
X71665Y-77784D01*
X71665Y-77447D01*
X71721Y-77334D01*
X71778Y-77278D01*
X71890Y-77222D01*
X72059Y-77222D01*
X72171Y-77278D01*
X72227Y-77334D01*
X72284Y-77447D01*
X72284Y-77784D01*
X72227Y-77897D01*
X72171Y-77953D01*
X72059Y-78009D01*
X71890Y-78009D01*
X72959Y-78009D02*
X72846Y-77953D01*
X72790Y-77841D01*
X72790Y-76828D01*
X73858Y-77953D02*
X73746Y-78009D01*
X73521Y-78009D01*
X73409Y-77953D01*
X73352Y-77841D01*
X73352Y-77391D01*
X73409Y-77278D01*
X73521Y-77222D01*
X73746Y-77222D01*
X73858Y-77278D01*
X73915Y-77391D01*
X73915Y-77503D01*
X73352Y-77616D01*
X74308Y-78459D02*
X74365Y-78403D01*
X74477Y-78234D01*
X74533Y-78122D01*
X74590Y-77953D01*
X74646Y-77672D01*
X74646Y-77447D01*
X74590Y-77166D01*
X74533Y-76997D01*
X74477Y-76884D01*
X74365Y-76716D01*
X74308Y-76659D01*
X49086Y-78740D02*
X49786Y-79440D01*
X49786Y-78740D02*
X49086Y-79440D01*
G54D12*
X49786Y-79090D02*
G75*
G03X49786Y-79090I-350J0D01*
G74*
G01*
G54D13*
X51474Y-79568D02*
X50799Y-79568D01*
X51136Y-79568D02*
X51136Y-78387D01*
X51024Y-78556D01*
X50911Y-78668D01*
X50799Y-78725D01*
X51980Y-79456D02*
X52036Y-79512D01*
X51980Y-79568D01*
X51924Y-79512D01*
X51980Y-79456D01*
X51980Y-79568D01*
X52430Y-78387D02*
X53217Y-78387D01*
X52711Y-79568D01*
X53836Y-78893D02*
X53724Y-78837D01*
X53667Y-78781D01*
X53611Y-78668D01*
X53611Y-78612D01*
X53667Y-78500D01*
X53724Y-78444D01*
X53836Y-78387D01*
X54061Y-78387D01*
X54173Y-78444D01*
X54230Y-78500D01*
X54286Y-78612D01*
X54286Y-78668D01*
X54230Y-78781D01*
X54173Y-78837D01*
X54061Y-78893D01*
X53836Y-78893D01*
X53724Y-78950D01*
X53667Y-79006D01*
X53611Y-79118D01*
X53611Y-79343D01*
X53667Y-79456D01*
X53724Y-79512D01*
X53836Y-79568D01*
X54061Y-79568D01*
X54173Y-79512D01*
X54230Y-79456D01*
X54286Y-79343D01*
X54286Y-79118D01*
X54230Y-79006D01*
X54173Y-78950D01*
X54061Y-78893D01*
X54792Y-79568D02*
X54792Y-78781D01*
X54792Y-78893D02*
X54848Y-78837D01*
X54961Y-78781D01*
X55130Y-78781D01*
X55242Y-78837D01*
X55298Y-78950D01*
X55298Y-79568D01*
X55298Y-78950D02*
X55355Y-78837D01*
X55467Y-78781D01*
X55636Y-78781D01*
X55748Y-78837D01*
X55804Y-78950D01*
X55804Y-79568D01*
X56367Y-79568D02*
X56367Y-78781D01*
X56367Y-78893D02*
X56423Y-78837D01*
X56536Y-78781D01*
X56704Y-78781D01*
X56817Y-78837D01*
X56873Y-78950D01*
X56873Y-79568D01*
X56873Y-78950D02*
X56929Y-78837D01*
X57042Y-78781D01*
X57211Y-78781D01*
X57323Y-78837D01*
X57379Y-78950D01*
X57379Y-79568D01*
X59685Y-78331D02*
X58673Y-79850D01*
X61204Y-78387D02*
X61316Y-78387D01*
X61429Y-78444D01*
X61485Y-78500D01*
X61541Y-78612D01*
X61598Y-78837D01*
X61598Y-79118D01*
X61541Y-79343D01*
X61485Y-79456D01*
X61429Y-79512D01*
X61316Y-79568D01*
X61204Y-79568D01*
X61091Y-79512D01*
X61035Y-79456D01*
X60979Y-79343D01*
X60923Y-79118D01*
X60923Y-78837D01*
X60979Y-78612D01*
X61035Y-78500D01*
X61091Y-78444D01*
X61204Y-78387D01*
X62104Y-79456D02*
X62160Y-79512D01*
X62104Y-79568D01*
X62047Y-79512D01*
X62104Y-79456D01*
X62104Y-79568D01*
X62891Y-78387D02*
X63004Y-78387D01*
X63116Y-78444D01*
X63172Y-78500D01*
X63229Y-78612D01*
X63285Y-78837D01*
X63285Y-79118D01*
X63229Y-79343D01*
X63172Y-79456D01*
X63116Y-79512D01*
X63004Y-79568D01*
X62891Y-79568D01*
X62779Y-79512D01*
X62722Y-79456D01*
X62666Y-79343D01*
X62610Y-79118D01*
X62610Y-78837D01*
X62666Y-78612D01*
X62722Y-78500D01*
X62779Y-78444D01*
X62891Y-78387D01*
X63679Y-78387D02*
X64466Y-78387D01*
X63960Y-79568D01*
X65141Y-78387D02*
X65253Y-78387D01*
X65366Y-78444D01*
X65422Y-78500D01*
X65478Y-78612D01*
X65535Y-78837D01*
X65535Y-79118D01*
X65478Y-79343D01*
X65422Y-79456D01*
X65366Y-79512D01*
X65253Y-79568D01*
X65141Y-79568D01*
X65028Y-79512D01*
X64972Y-79456D01*
X64916Y-79343D01*
X64860Y-79118D01*
X64860Y-78837D01*
X64916Y-78612D01*
X64972Y-78500D01*
X65028Y-78444D01*
X65141Y-78387D01*
X65984Y-78387D02*
X65984Y-78612D01*
X66434Y-78387D02*
X66434Y-78612D01*
X68178Y-80018D02*
X68122Y-79962D01*
X68009Y-79793D01*
X67953Y-79681D01*
X67897Y-79512D01*
X67840Y-79231D01*
X67840Y-79006D01*
X67897Y-78725D01*
X67953Y-78556D01*
X68009Y-78444D01*
X68122Y-78275D01*
X68178Y-78219D01*
X69247Y-79568D02*
X68572Y-79568D01*
X68909Y-79568D02*
X68909Y-78387D01*
X68797Y-78556D01*
X68684Y-78668D01*
X68572Y-78725D01*
X70653Y-79568D02*
X70653Y-78387D01*
X71159Y-79568D02*
X71159Y-78950D01*
X71103Y-78837D01*
X70990Y-78781D01*
X70821Y-78781D01*
X70709Y-78837D01*
X70653Y-78893D01*
X71890Y-79568D02*
X71778Y-79512D01*
X71721Y-79456D01*
X71665Y-79343D01*
X71665Y-79006D01*
X71721Y-78893D01*
X71778Y-78837D01*
X71890Y-78781D01*
X72059Y-78781D01*
X72171Y-78837D01*
X72227Y-78893D01*
X72284Y-79006D01*
X72284Y-79343D01*
X72227Y-79456D01*
X72171Y-79512D01*
X72059Y-79568D01*
X71890Y-79568D01*
X72959Y-79568D02*
X72846Y-79512D01*
X72790Y-79400D01*
X72790Y-78387D01*
X73858Y-79512D02*
X73746Y-79568D01*
X73521Y-79568D01*
X73409Y-79512D01*
X73352Y-79400D01*
X73352Y-78950D01*
X73409Y-78837D01*
X73521Y-78781D01*
X73746Y-78781D01*
X73858Y-78837D01*
X73915Y-78950D01*
X73915Y-79062D01*
X73352Y-79175D01*
X74308Y-80018D02*
X74365Y-79962D01*
X74477Y-79793D01*
X74533Y-79681D01*
X74590Y-79512D01*
X74646Y-79231D01*
X74646Y-79006D01*
X74590Y-78725D01*
X74533Y-78556D01*
X74477Y-78444D01*
X74365Y-78275D01*
X74308Y-78219D01*
X48586Y-80049D02*
X49786Y-81249D01*
X49786Y-80049D02*
X48586Y-81249D01*
X49186Y-80049D02*
X49186Y-81249D01*
X48586Y-80649D02*
X49786Y-80649D01*
X50743Y-79946D02*
X51474Y-79946D01*
X51080Y-80396D01*
X51249Y-80396D01*
X51361Y-80453D01*
X51418Y-80509D01*
X51474Y-80621D01*
X51474Y-80902D01*
X51418Y-81015D01*
X51361Y-81071D01*
X51249Y-81127D01*
X50911Y-81127D01*
X50799Y-81071D01*
X50743Y-81015D01*
X51980Y-81015D02*
X52036Y-81071D01*
X51980Y-81127D01*
X51924Y-81071D01*
X51980Y-81015D01*
X51980Y-81127D01*
X52767Y-79946D02*
X52880Y-79946D01*
X52992Y-80003D01*
X53049Y-80059D01*
X53105Y-80171D01*
X53161Y-80396D01*
X53161Y-80677D01*
X53105Y-80902D01*
X53049Y-81015D01*
X52992Y-81071D01*
X52880Y-81127D01*
X52767Y-81127D01*
X52655Y-81071D01*
X52599Y-81015D01*
X52542Y-80902D01*
X52486Y-80677D01*
X52486Y-80396D01*
X52542Y-80171D01*
X52599Y-80059D01*
X52655Y-80003D01*
X52767Y-79946D01*
X54230Y-79946D02*
X53667Y-79946D01*
X53611Y-80509D01*
X53667Y-80453D01*
X53780Y-80396D01*
X54061Y-80396D01*
X54173Y-80453D01*
X54230Y-80509D01*
X54286Y-80621D01*
X54286Y-80902D01*
X54230Y-81015D01*
X54173Y-81071D01*
X54061Y-81127D01*
X53780Y-81127D01*
X53667Y-81071D01*
X53611Y-81015D01*
X54792Y-81127D02*
X54792Y-80340D01*
X54792Y-80453D02*
X54848Y-80396D01*
X54961Y-80340D01*
X55130Y-80340D01*
X55242Y-80396D01*
X55298Y-80509D01*
X55298Y-81127D01*
X55298Y-80509D02*
X55355Y-80396D01*
X55467Y-80340D01*
X55636Y-80340D01*
X55748Y-80396D01*
X55804Y-80509D01*
X55804Y-81127D01*
X56367Y-81127D02*
X56367Y-80340D01*
X56367Y-80453D02*
X56423Y-80396D01*
X56536Y-80340D01*
X56704Y-80340D01*
X56817Y-80396D01*
X56873Y-80509D01*
X56873Y-81127D01*
X56873Y-80509D02*
X56929Y-80396D01*
X57042Y-80340D01*
X57211Y-80340D01*
X57323Y-80396D01*
X57379Y-80509D01*
X57379Y-81127D01*
X59685Y-79890D02*
X58673Y-81409D01*
X61204Y-79946D02*
X61316Y-79946D01*
X61429Y-80003D01*
X61485Y-80059D01*
X61541Y-80171D01*
X61598Y-80396D01*
X61598Y-80677D01*
X61541Y-80902D01*
X61485Y-81015D01*
X61429Y-81071D01*
X61316Y-81127D01*
X61204Y-81127D01*
X61091Y-81071D01*
X61035Y-81015D01*
X60979Y-80902D01*
X60923Y-80677D01*
X60923Y-80396D01*
X60979Y-80171D01*
X61035Y-80059D01*
X61091Y-80003D01*
X61204Y-79946D01*
X62104Y-81015D02*
X62160Y-81071D01*
X62104Y-81127D01*
X62047Y-81071D01*
X62104Y-81015D01*
X62104Y-81127D01*
X63285Y-81127D02*
X62610Y-81127D01*
X62947Y-81127D02*
X62947Y-79946D01*
X62835Y-80115D01*
X62722Y-80228D01*
X62610Y-80284D01*
X63735Y-80059D02*
X63791Y-80003D01*
X63903Y-79946D01*
X64185Y-79946D01*
X64297Y-80003D01*
X64353Y-80059D01*
X64410Y-80171D01*
X64410Y-80284D01*
X64353Y-80453D01*
X63679Y-81127D01*
X64410Y-81127D01*
X65141Y-79946D02*
X65253Y-79946D01*
X65366Y-80003D01*
X65422Y-80059D01*
X65478Y-80171D01*
X65535Y-80396D01*
X65535Y-80677D01*
X65478Y-80902D01*
X65422Y-81015D01*
X65366Y-81071D01*
X65253Y-81127D01*
X65141Y-81127D01*
X65028Y-81071D01*
X64972Y-81015D01*
X64916Y-80902D01*
X64860Y-80677D01*
X64860Y-80396D01*
X64916Y-80171D01*
X64972Y-80059D01*
X65028Y-80003D01*
X65141Y-79946D01*
X65984Y-79946D02*
X65984Y-80171D01*
X66434Y-79946D02*
X66434Y-80171D01*
X68178Y-81577D02*
X68122Y-81521D01*
X68009Y-81352D01*
X67953Y-81240D01*
X67897Y-81071D01*
X67840Y-80790D01*
X67840Y-80565D01*
X67897Y-80284D01*
X67953Y-80115D01*
X68009Y-80003D01*
X68122Y-79834D01*
X68178Y-79778D01*
X69247Y-81127D02*
X68572Y-81127D01*
X68909Y-81127D02*
X68909Y-79946D01*
X68797Y-80115D01*
X68684Y-80228D01*
X68572Y-80284D01*
X70653Y-81127D02*
X70653Y-79946D01*
X71159Y-81127D02*
X71159Y-80509D01*
X71103Y-80396D01*
X70990Y-80340D01*
X70821Y-80340D01*
X70709Y-80396D01*
X70653Y-80453D01*
X71890Y-81127D02*
X71778Y-81071D01*
X71721Y-81015D01*
X71665Y-80902D01*
X71665Y-80565D01*
X71721Y-80453D01*
X71778Y-80396D01*
X71890Y-80340D01*
X72059Y-80340D01*
X72171Y-80396D01*
X72227Y-80453D01*
X72284Y-80565D01*
X72284Y-80902D01*
X72227Y-81015D01*
X72171Y-81071D01*
X72059Y-81127D01*
X71890Y-81127D01*
X72959Y-81127D02*
X72846Y-81071D01*
X72790Y-80959D01*
X72790Y-79946D01*
X73858Y-81071D02*
X73746Y-81127D01*
X73521Y-81127D01*
X73409Y-81071D01*
X73352Y-80959D01*
X73352Y-80509D01*
X73409Y-80396D01*
X73521Y-80340D01*
X73746Y-80340D01*
X73858Y-80396D01*
X73915Y-80509D01*
X73915Y-80621D01*
X73352Y-80734D01*
X74308Y-81577D02*
X74365Y-81521D01*
X74477Y-81352D01*
X74533Y-81240D01*
X74590Y-81071D01*
X74646Y-80790D01*
X74646Y-80565D01*
X74590Y-80284D01*
X74533Y-80115D01*
X74477Y-80003D01*
X74365Y-79834D01*
X74308Y-79778D01*
X48486Y-81711D02*
X49786Y-83011D01*
X49786Y-81711D02*
X48486Y-83011D01*
G54D12*
X49596Y-82821D02*
X49596Y-81902D01*
X48677Y-81902D01*
X48677Y-82821D01*
X49596Y-82821D01*
G54D13*
X50743Y-81658D02*
X51474Y-81658D01*
X51080Y-82108D01*
X51249Y-82108D01*
X51361Y-82164D01*
X51418Y-82221D01*
X51474Y-82333D01*
X51474Y-82614D01*
X51418Y-82727D01*
X51361Y-82783D01*
X51249Y-82839D01*
X50911Y-82839D01*
X50799Y-82783D01*
X50743Y-82727D01*
X51980Y-82727D02*
X52036Y-82783D01*
X51980Y-82839D01*
X51924Y-82783D01*
X51980Y-82727D01*
X51980Y-82839D01*
X52430Y-81658D02*
X53161Y-81658D01*
X52767Y-82108D01*
X52936Y-82108D01*
X53049Y-82164D01*
X53105Y-82221D01*
X53161Y-82333D01*
X53161Y-82614D01*
X53105Y-82727D01*
X53049Y-82783D01*
X52936Y-82839D01*
X52599Y-82839D01*
X52486Y-82783D01*
X52430Y-82727D01*
X53892Y-81658D02*
X54005Y-81658D01*
X54117Y-81714D01*
X54173Y-81771D01*
X54230Y-81883D01*
X54286Y-82108D01*
X54286Y-82389D01*
X54230Y-82614D01*
X54173Y-82727D01*
X54117Y-82783D01*
X54005Y-82839D01*
X53892Y-82839D01*
X53780Y-82783D01*
X53724Y-82727D01*
X53667Y-82614D01*
X53611Y-82389D01*
X53611Y-82108D01*
X53667Y-81883D01*
X53724Y-81771D01*
X53780Y-81714D01*
X53892Y-81658D01*
X54792Y-82839D02*
X54792Y-82052D01*
X54792Y-82164D02*
X54848Y-82108D01*
X54961Y-82052D01*
X55130Y-82052D01*
X55242Y-82108D01*
X55298Y-82221D01*
X55298Y-82839D01*
X55298Y-82221D02*
X55355Y-82108D01*
X55467Y-82052D01*
X55636Y-82052D01*
X55748Y-82108D01*
X55804Y-82221D01*
X55804Y-82839D01*
X56367Y-82839D02*
X56367Y-82052D01*
X56367Y-82164D02*
X56423Y-82108D01*
X56536Y-82052D01*
X56704Y-82052D01*
X56817Y-82108D01*
X56873Y-82221D01*
X56873Y-82839D01*
X56873Y-82221D02*
X56929Y-82108D01*
X57042Y-82052D01*
X57211Y-82052D01*
X57323Y-82108D01*
X57379Y-82221D01*
X57379Y-82839D01*
X59685Y-81602D02*
X58673Y-83120D01*
X61204Y-81658D02*
X61316Y-81658D01*
X61429Y-81714D01*
X61485Y-81771D01*
X61541Y-81883D01*
X61598Y-82108D01*
X61598Y-82389D01*
X61541Y-82614D01*
X61485Y-82727D01*
X61429Y-82783D01*
X61316Y-82839D01*
X61204Y-82839D01*
X61091Y-82783D01*
X61035Y-82727D01*
X60979Y-82614D01*
X60923Y-82389D01*
X60923Y-82108D01*
X60979Y-81883D01*
X61035Y-81771D01*
X61091Y-81714D01*
X61204Y-81658D01*
X62104Y-82727D02*
X62160Y-82783D01*
X62104Y-82839D01*
X62047Y-82783D01*
X62104Y-82727D01*
X62104Y-82839D01*
X63285Y-82839D02*
X62610Y-82839D01*
X62947Y-82839D02*
X62947Y-81658D01*
X62835Y-81827D01*
X62722Y-81939D01*
X62610Y-81996D01*
X63679Y-81658D02*
X64410Y-81658D01*
X64016Y-82108D01*
X64185Y-82108D01*
X64297Y-82164D01*
X64353Y-82221D01*
X64410Y-82333D01*
X64410Y-82614D01*
X64353Y-82727D01*
X64297Y-82783D01*
X64185Y-82839D01*
X63847Y-82839D01*
X63735Y-82783D01*
X63679Y-82727D01*
X65141Y-81658D02*
X65253Y-81658D01*
X65366Y-81714D01*
X65422Y-81771D01*
X65478Y-81883D01*
X65535Y-82108D01*
X65535Y-82389D01*
X65478Y-82614D01*
X65422Y-82727D01*
X65366Y-82783D01*
X65253Y-82839D01*
X65141Y-82839D01*
X65028Y-82783D01*
X64972Y-82727D01*
X64916Y-82614D01*
X64860Y-82389D01*
X64860Y-82108D01*
X64916Y-81883D01*
X64972Y-81771D01*
X65028Y-81714D01*
X65141Y-81658D01*
X65984Y-81658D02*
X65984Y-81883D01*
X66434Y-81658D02*
X66434Y-81883D01*
X68178Y-83289D02*
X68122Y-83233D01*
X68009Y-83064D01*
X67953Y-82952D01*
X67897Y-82783D01*
X67840Y-82502D01*
X67840Y-82277D01*
X67897Y-81996D01*
X67953Y-81827D01*
X68009Y-81714D01*
X68122Y-81546D01*
X68178Y-81489D01*
X68572Y-81771D02*
X68628Y-81714D01*
X68740Y-81658D01*
X69022Y-81658D01*
X69134Y-81714D01*
X69190Y-81771D01*
X69247Y-81883D01*
X69247Y-81996D01*
X69190Y-82164D01*
X68515Y-82839D01*
X69247Y-82839D01*
X70653Y-82839D02*
X70653Y-81658D01*
X71159Y-82839D02*
X71159Y-82221D01*
X71103Y-82108D01*
X70990Y-82052D01*
X70821Y-82052D01*
X70709Y-82108D01*
X70653Y-82164D01*
X71890Y-82839D02*
X71778Y-82783D01*
X71721Y-82727D01*
X71665Y-82614D01*
X71665Y-82277D01*
X71721Y-82164D01*
X71778Y-82108D01*
X71890Y-82052D01*
X72059Y-82052D01*
X72171Y-82108D01*
X72227Y-82164D01*
X72284Y-82277D01*
X72284Y-82614D01*
X72227Y-82727D01*
X72171Y-82783D01*
X72059Y-82839D01*
X71890Y-82839D01*
X72959Y-82839D02*
X72846Y-82783D01*
X72790Y-82671D01*
X72790Y-81658D01*
X73858Y-82783D02*
X73746Y-82839D01*
X73521Y-82839D01*
X73409Y-82783D01*
X73352Y-82671D01*
X73352Y-82221D01*
X73409Y-82108D01*
X73521Y-82052D01*
X73746Y-82052D01*
X73858Y-82108D01*
X73915Y-82221D01*
X73915Y-82333D01*
X73352Y-82446D01*
X74365Y-82783D02*
X74477Y-82839D01*
X74702Y-82839D01*
X74815Y-82783D01*
X74871Y-82671D01*
X74871Y-82614D01*
X74815Y-82502D01*
X74702Y-82446D01*
X74533Y-82446D01*
X74421Y-82389D01*
X74365Y-82277D01*
X74365Y-82221D01*
X74421Y-82108D01*
X74533Y-82052D01*
X74702Y-82052D01*
X74815Y-82108D01*
X75265Y-83289D02*
X75321Y-83233D01*
X75433Y-83064D01*
X75490Y-82952D01*
X75546Y-82783D01*
X75602Y-82502D01*
X75602Y-82277D01*
X75546Y-81996D01*
X75490Y-81827D01*
X75433Y-81714D01*
X75321Y-81546D01*
X75265Y-81489D01*
M02*
