M48
;DRILL file {Pcbnew (2013-07-07 BZR 4022)-stable} date 2014-10-22 23:46:55
;FORMAT={-:-/ absolute / metric / decimal}
FMAT,2
METRIC,TZ
T1C0.635
T2C0.813
T3C1.000
T4C1.016
T5C1.143
T6C1.699
T7C1.778
T8C3.048
T9C3.302
%
G90
G05
M71
T1
X134.239Y-143.891
X134.747Y-166.878
X135.255Y-158.75
X136.271Y-151.638
X138.049Y-153.416
X138.049Y-159.766
X138.176Y-155.321
X140.462Y-143.002
X141.605Y-149.225
X144.399Y-133.096
X146.177Y-159.639
X152.4Y-158.877
X153.416Y-166.878
X159.131Y-147.955
X159.893Y-161.671
X164.084Y-144.526
X164.592Y-166.751
X166.37Y-146.05
T2
X130.79Y-141.59
X130.79Y-144.13
X130.79Y-146.67
X130.79Y-149.21
X133.Y-132.73
X133.Y-135.27
X138.41Y-141.59
X138.41Y-144.13
X138.41Y-146.67
X138.41Y-149.21
X140.8Y-132.73
X140.8Y-135.27
X157.8Y-132.73
X157.8Y-135.27
X161.19Y-141.79
X161.19Y-144.33
X161.19Y-146.87
X161.19Y-149.41
X166.Y-130.595
X166.Y-134.405
X168.81Y-141.79
X168.81Y-144.33
X168.81Y-146.87
X168.81Y-149.41
T3
X133.Y-124.8
X138.Y-124.8
X143.Y-124.8
X156.6Y-124.8
X161.6Y-124.8
X166.6Y-124.8
T4
X142.852Y-156.7
X145.151Y-156.7
X146.152Y-161.501
X147.152Y-163.5
X148.151Y-161.501
X149.151Y-163.5
X150.152Y-161.501
X151.15Y-163.5
X152.151Y-161.501
X153.152Y-163.5
X154.252Y-156.7
X156.502Y-156.675
T5
X147.109Y-130.401
X149.649Y-130.401
X152.189Y-130.401
T6
X141.552Y-162.4
T7
X157.8Y-162.4
T8
X149.649Y-146.911
T9
X143.35Y-165.801
X156.05Y-165.801
T0
M30
