G04 (created by PCBNEW (2013-07-07 BZR 4022)-stable) date 2014-10-22 23:03:19*
%MOIN*%
G04 Gerber Fmt 3.4, Leading zero omitted, Abs format*
%FSLAX34Y34*%
G01*
G70*
G90*
G04 APERTURE LIST*
%ADD10C,0.00393701*%
%ADD11C,0.11811*%
%ADD12C,0.055*%
%ADD13R,0.09X0.062*%
%ADD14O,0.09X0.062*%
%ADD15R,0.35X0.35*%
%ADD16C,0.07*%
%ADD17R,0.07X0.07*%
%ADD18C,0.1516*%
%ADD19C,0.06*%
%ADD20C,0.1*%
%ADD21R,0.06X0.06*%
%ADD22R,0.055X0.055*%
%ADD23C,0.035*%
%ADD24C,0.0197*%
%ADD25C,0.01*%
G04 APERTURE END LIST*
G54D10*
G54D11*
X52362Y-49133D03*
X56299Y-49133D03*
X54330Y-49133D03*
X61653Y-49133D03*
X65590Y-49133D03*
X63622Y-49133D03*
G54D12*
X52362Y-52255D03*
X52362Y-53255D03*
X62125Y-53255D03*
X62125Y-52255D03*
G54D13*
X63460Y-55822D03*
G54D14*
X63460Y-56822D03*
X63460Y-57822D03*
X63460Y-58822D03*
X66460Y-58822D03*
X66460Y-57822D03*
X66460Y-56822D03*
X66460Y-55822D03*
G54D13*
X51492Y-55744D03*
G54D14*
X51492Y-56744D03*
X51492Y-57744D03*
X51492Y-58744D03*
X54492Y-58744D03*
X54492Y-57744D03*
X54492Y-56744D03*
X54492Y-55744D03*
G54D15*
X58917Y-57839D03*
G54D16*
X59917Y-51339D03*
G54D17*
X58917Y-51339D03*
G54D16*
X57917Y-51339D03*
G54D18*
X61437Y-65276D03*
X56437Y-65276D03*
G54D19*
X57540Y-63583D03*
X57934Y-64370D03*
X58327Y-63583D03*
X58721Y-64370D03*
X59115Y-63583D03*
X59508Y-64370D03*
X59902Y-63583D03*
G54D20*
X62126Y-63937D03*
X55729Y-63937D03*
G54D19*
X57146Y-61693D03*
X60729Y-61693D03*
X56241Y-61693D03*
X61615Y-61683D03*
G54D21*
X60296Y-64370D03*
G54D22*
X65354Y-51415D03*
G54D12*
X65354Y-52915D03*
X55433Y-53255D03*
X55433Y-52255D03*
G54D23*
X55300Y-56300D03*
X64600Y-56900D03*
X52850Y-56650D03*
X56850Y-52400D03*
X53250Y-62500D03*
X62650Y-58250D03*
X65500Y-57500D03*
X62950Y-63650D03*
X60000Y-62550D03*
X60400Y-65700D03*
X64800Y-65650D03*
X55750Y-58750D03*
X53050Y-65700D03*
X54350Y-62900D03*
X57550Y-62850D03*
X54350Y-60400D03*
X53650Y-59700D03*
X54400Y-61150D03*
G54D24*
X55300Y-56300D02*
X54750Y-55750D01*
X54750Y-55750D02*
X54500Y-55750D01*
X54500Y-55750D02*
X54492Y-55744D01*
X66460Y-55822D02*
X66450Y-55800D01*
X66450Y-55800D02*
X66000Y-56250D01*
X66000Y-56250D02*
X65750Y-56250D01*
X65750Y-56250D02*
X65100Y-56900D01*
X65100Y-56900D02*
X64600Y-56900D01*
X54492Y-55744D02*
X54500Y-55750D01*
X54500Y-55750D02*
X54050Y-56200D01*
X54050Y-56200D02*
X53800Y-56200D01*
X53800Y-56200D02*
X53350Y-56650D01*
X53350Y-56650D02*
X52850Y-56650D01*
X55433Y-53255D02*
X55450Y-53250D01*
X55450Y-53250D02*
X56300Y-52400D01*
X56300Y-52400D02*
X56850Y-52400D01*
X56299Y-49133D02*
X56300Y-49150D01*
X56300Y-49150D02*
X57100Y-49950D01*
X57100Y-49950D02*
X63900Y-49950D01*
X63900Y-49950D02*
X63950Y-49900D01*
X63950Y-49900D02*
X64000Y-49900D01*
X64000Y-49900D02*
X64050Y-49850D01*
X64050Y-49850D02*
X64100Y-49850D01*
X64100Y-49850D02*
X64800Y-49150D01*
X64800Y-49150D02*
X65600Y-49150D01*
X65600Y-49150D02*
X65590Y-49133D01*
X55433Y-53255D02*
X55450Y-53250D01*
X55450Y-53250D02*
X52350Y-53250D01*
X52350Y-53250D02*
X52362Y-53255D01*
X53250Y-62500D02*
X54700Y-63950D01*
X54700Y-63950D02*
X55750Y-63950D01*
X55750Y-63950D02*
X55729Y-63937D01*
X63460Y-56822D02*
X63450Y-56800D01*
X63450Y-56800D02*
X63900Y-57250D01*
X63900Y-57250D02*
X64150Y-57250D01*
X64150Y-57250D02*
X65700Y-58800D01*
X65700Y-58800D02*
X66450Y-58800D01*
X66450Y-58800D02*
X66460Y-58822D01*
X54492Y-58744D02*
X54500Y-58750D01*
X54500Y-58750D02*
X54050Y-58300D01*
X54050Y-58300D02*
X53800Y-58300D01*
X53800Y-58300D02*
X52250Y-56750D01*
X52250Y-56750D02*
X51500Y-56750D01*
X51500Y-56750D02*
X51492Y-56744D01*
X58917Y-51339D02*
X58900Y-51350D01*
X58900Y-51350D02*
X60800Y-53250D01*
X60800Y-53250D02*
X62150Y-53250D01*
X62150Y-53250D02*
X62125Y-53255D01*
X55433Y-52255D02*
X55450Y-52250D01*
X55450Y-52250D02*
X55750Y-51950D01*
X55750Y-51950D02*
X58000Y-51950D01*
X58000Y-51950D02*
X58050Y-51900D01*
X58050Y-51900D02*
X58200Y-51900D01*
X58200Y-51900D02*
X58300Y-51800D01*
X58300Y-51800D02*
X58350Y-51800D01*
X58350Y-51800D02*
X58800Y-51350D01*
X58800Y-51350D02*
X58900Y-51350D01*
X58900Y-51350D02*
X58917Y-51339D01*
X57540Y-63583D02*
X57550Y-63600D01*
X57550Y-63600D02*
X57550Y-63550D01*
X57550Y-63550D02*
X58050Y-63050D01*
X58050Y-63050D02*
X60100Y-63050D01*
X60100Y-63050D02*
X60150Y-63100D01*
X60150Y-63100D02*
X60200Y-63100D01*
X60200Y-63100D02*
X61050Y-63950D01*
X61050Y-63950D02*
X62150Y-63950D01*
X62150Y-63950D02*
X62126Y-63937D01*
X62125Y-53255D02*
X62150Y-53250D01*
X62150Y-53250D02*
X62500Y-52900D01*
X62500Y-52900D02*
X65350Y-52900D01*
X65350Y-52900D02*
X65354Y-52915D01*
X52362Y-52255D02*
X52350Y-52250D01*
X52350Y-52250D02*
X55450Y-52250D01*
X55450Y-52250D02*
X55433Y-52255D01*
X55729Y-63937D02*
X55750Y-63950D01*
X55750Y-63950D02*
X56100Y-63600D01*
X56100Y-63600D02*
X57550Y-63600D01*
X57550Y-63600D02*
X57540Y-63583D01*
X62650Y-58250D02*
X63200Y-58800D01*
X63200Y-58800D02*
X63450Y-58800D01*
X63450Y-58800D02*
X63460Y-58822D01*
X66460Y-56822D02*
X66450Y-56800D01*
X66450Y-56800D02*
X66000Y-57250D01*
X66000Y-57250D02*
X65750Y-57250D01*
X65750Y-57250D02*
X65500Y-57500D01*
X62950Y-63650D02*
X61850Y-62550D01*
X61850Y-62550D02*
X60000Y-62550D01*
X60400Y-65700D02*
X61000Y-66300D01*
X61000Y-66300D02*
X61500Y-66300D01*
X61500Y-66300D02*
X61550Y-66250D01*
X61550Y-66250D02*
X61750Y-66250D01*
X61750Y-66250D02*
X61800Y-66200D01*
X61800Y-66200D02*
X61900Y-66200D01*
X61900Y-66200D02*
X61950Y-66150D01*
X61950Y-66150D02*
X62000Y-66150D01*
X62000Y-66150D02*
X62500Y-65650D01*
X62500Y-65650D02*
X64800Y-65650D01*
X54492Y-57744D02*
X54500Y-57750D01*
X54500Y-57750D02*
X54950Y-58200D01*
X54950Y-58200D02*
X55200Y-58200D01*
X55200Y-58200D02*
X55750Y-58750D01*
X58721Y-64370D02*
X58700Y-64350D01*
X58700Y-64350D02*
X58700Y-64450D01*
X58700Y-64450D02*
X56850Y-66300D01*
X56850Y-66300D02*
X56400Y-66300D01*
X56400Y-66300D02*
X56350Y-66250D01*
X56350Y-66250D02*
X56100Y-66250D01*
X56100Y-66250D02*
X56050Y-66200D01*
X56050Y-66200D02*
X56000Y-66200D01*
X56000Y-66200D02*
X55950Y-66150D01*
X55950Y-66150D02*
X55900Y-66150D01*
X55900Y-66150D02*
X55850Y-66100D01*
X55850Y-66100D02*
X55800Y-66100D01*
X55800Y-66100D02*
X55400Y-65700D01*
X55400Y-65700D02*
X53050Y-65700D01*
X62125Y-52255D02*
X62150Y-52250D01*
X62150Y-52250D02*
X63000Y-51400D01*
X63000Y-51400D02*
X65350Y-51400D01*
X65350Y-51400D02*
X65354Y-51415D01*
X59917Y-51339D02*
X59900Y-51350D01*
X59900Y-51350D02*
X60800Y-52250D01*
X60800Y-52250D02*
X62150Y-52250D01*
X62150Y-52250D02*
X62125Y-52255D01*
X54350Y-62900D02*
X54400Y-62850D01*
X54400Y-62850D02*
X57550Y-62850D01*
X54350Y-60400D02*
X53650Y-59700D01*
X54400Y-61150D02*
X56400Y-61150D01*
X56400Y-61150D02*
X56450Y-61200D01*
X56450Y-61200D02*
X56550Y-61200D01*
X56550Y-61200D02*
X57050Y-61700D01*
X57050Y-61700D02*
X57150Y-61700D01*
X57150Y-61700D02*
X57146Y-61693D01*
G54D10*
G36*
X67588Y-67116D02*
X67425Y-67116D01*
X67425Y-64276D01*
X67425Y-64213D01*
X67425Y-64149D01*
X67425Y-64149D01*
X67425Y-64149D01*
X67389Y-63968D01*
X67389Y-63968D01*
X67341Y-63851D01*
X67238Y-63697D01*
X67174Y-63633D01*
X67174Y-57822D01*
X67131Y-57608D01*
X67010Y-57426D01*
X66854Y-57322D01*
X67010Y-57218D01*
X67131Y-57037D01*
X67174Y-56822D01*
X67131Y-56608D01*
X67010Y-56426D01*
X66854Y-56322D01*
X67010Y-56218D01*
X67131Y-56037D01*
X67174Y-55822D01*
X67131Y-55608D01*
X67010Y-55426D01*
X66828Y-55305D01*
X66614Y-55262D01*
X66431Y-55262D01*
X66431Y-48967D01*
X66303Y-48658D01*
X66067Y-48421D01*
X65758Y-48293D01*
X65424Y-48293D01*
X65115Y-48420D01*
X64878Y-48657D01*
X64818Y-48801D01*
X64800Y-48801D01*
X64799Y-48801D01*
X64666Y-48828D01*
X64553Y-48903D01*
X64553Y-48903D01*
X64460Y-48997D01*
X64459Y-48950D01*
X64343Y-48671D01*
X64218Y-48608D01*
X64147Y-48679D01*
X64147Y-48537D01*
X64084Y-48412D01*
X63773Y-48290D01*
X63438Y-48296D01*
X63159Y-48412D01*
X63096Y-48537D01*
X63622Y-49063D01*
X64147Y-48537D01*
X64147Y-48679D01*
X63692Y-49133D01*
X63698Y-49139D01*
X63627Y-49210D01*
X63622Y-49204D01*
X63616Y-49210D01*
X63545Y-49139D01*
X63551Y-49133D01*
X63025Y-48608D01*
X62900Y-48671D01*
X62778Y-48982D01*
X62784Y-49317D01*
X62900Y-49596D01*
X62910Y-49601D01*
X62369Y-49601D01*
X62493Y-49301D01*
X62494Y-48967D01*
X62366Y-48658D01*
X62130Y-48421D01*
X61821Y-48293D01*
X61487Y-48293D01*
X61178Y-48420D01*
X60941Y-48657D01*
X60813Y-48965D01*
X60812Y-49300D01*
X60937Y-49601D01*
X57244Y-49601D01*
X57082Y-49439D01*
X57139Y-49301D01*
X57139Y-48967D01*
X57012Y-48658D01*
X56775Y-48421D01*
X56467Y-48293D01*
X56132Y-48293D01*
X55823Y-48420D01*
X55587Y-48657D01*
X55458Y-48965D01*
X55458Y-49300D01*
X55586Y-49609D01*
X55822Y-49846D01*
X56131Y-49974D01*
X56465Y-49974D01*
X56583Y-49926D01*
X56853Y-50196D01*
X56853Y-50196D01*
X56966Y-50271D01*
X57099Y-50298D01*
X57099Y-50298D01*
X57100Y-50298D01*
X63900Y-50298D01*
X64033Y-50271D01*
X64033Y-50271D01*
X64097Y-50229D01*
X64097Y-50229D01*
X64097Y-50229D01*
X64133Y-50221D01*
X64133Y-50221D01*
X64197Y-50179D01*
X64197Y-50179D01*
X64197Y-50179D01*
X64233Y-50171D01*
X64233Y-50171D01*
X64346Y-50096D01*
X64864Y-49578D01*
X64877Y-49609D01*
X65113Y-49846D01*
X65422Y-49974D01*
X65757Y-49974D01*
X66066Y-49846D01*
X66302Y-49610D01*
X66430Y-49301D01*
X66431Y-48967D01*
X66431Y-55262D01*
X66306Y-55262D01*
X66092Y-55305D01*
X65910Y-55426D01*
X65884Y-55466D01*
X65884Y-52991D01*
X65879Y-52901D01*
X65879Y-51640D01*
X65879Y-51090D01*
X65841Y-50998D01*
X65771Y-50928D01*
X65679Y-50890D01*
X65579Y-50890D01*
X65029Y-50890D01*
X64937Y-50928D01*
X64867Y-50998D01*
X64845Y-51051D01*
X63000Y-51051D01*
X62866Y-51078D01*
X62753Y-51153D01*
X62176Y-51730D01*
X62022Y-51730D01*
X61828Y-51810D01*
X61737Y-51901D01*
X60944Y-51901D01*
X60512Y-51469D01*
X60516Y-51458D01*
X60517Y-51220D01*
X60425Y-50999D01*
X60257Y-50830D01*
X60036Y-50739D01*
X59798Y-50738D01*
X59577Y-50830D01*
X59502Y-50904D01*
X59479Y-50847D01*
X59408Y-50777D01*
X59316Y-50739D01*
X59217Y-50738D01*
X59029Y-50739D01*
X58967Y-50801D01*
X58967Y-51289D01*
X58974Y-51289D01*
X58974Y-51389D01*
X58967Y-51389D01*
X58967Y-51876D01*
X59029Y-51939D01*
X59217Y-51939D01*
X59316Y-51938D01*
X59408Y-51900D01*
X59479Y-51830D01*
X59502Y-51773D01*
X59576Y-51847D01*
X59797Y-51938D01*
X59996Y-51939D01*
X60553Y-52496D01*
X60666Y-52571D01*
X60666Y-52571D01*
X60800Y-52598D01*
X61726Y-52598D01*
X61828Y-52700D01*
X61954Y-52753D01*
X61853Y-52795D01*
X61828Y-52888D01*
X62125Y-53185D01*
X62423Y-52888D01*
X62398Y-52795D01*
X62288Y-52756D01*
X62422Y-52701D01*
X62570Y-52553D01*
X62650Y-52360D01*
X62650Y-52241D01*
X63144Y-51748D01*
X64832Y-51748D01*
X64867Y-51831D01*
X64937Y-51902D01*
X65029Y-51940D01*
X65128Y-51940D01*
X65678Y-51940D01*
X65770Y-51902D01*
X65841Y-51832D01*
X65879Y-51740D01*
X65879Y-51640D01*
X65879Y-52901D01*
X65872Y-52782D01*
X65814Y-52642D01*
X65722Y-52618D01*
X65651Y-52688D01*
X65651Y-52547D01*
X65627Y-52454D01*
X65430Y-52385D01*
X65221Y-52396D01*
X65081Y-52454D01*
X65057Y-52547D01*
X65354Y-52844D01*
X65651Y-52547D01*
X65651Y-52688D01*
X65425Y-52915D01*
X65722Y-53212D01*
X65814Y-53188D01*
X65884Y-52991D01*
X65884Y-55466D01*
X65789Y-55608D01*
X65746Y-55822D01*
X65762Y-55901D01*
X65750Y-55901D01*
X65651Y-55921D01*
X65651Y-53283D01*
X65354Y-52986D01*
X65283Y-53056D01*
X65283Y-52915D01*
X64986Y-52618D01*
X64893Y-52642D01*
X64824Y-52839D01*
X64835Y-53048D01*
X64893Y-53188D01*
X64986Y-53212D01*
X65283Y-52915D01*
X65283Y-53056D01*
X65057Y-53283D01*
X65081Y-53375D01*
X65278Y-53445D01*
X65487Y-53433D01*
X65627Y-53375D01*
X65651Y-53283D01*
X65651Y-55921D01*
X65616Y-55928D01*
X65503Y-56003D01*
X65503Y-56003D01*
X64955Y-56551D01*
X64852Y-56551D01*
X64841Y-56539D01*
X64684Y-56475D01*
X64515Y-56474D01*
X64359Y-56539D01*
X64239Y-56658D01*
X64175Y-56815D01*
X64174Y-56984D01*
X64239Y-57140D01*
X64358Y-57260D01*
X64515Y-57324D01*
X64684Y-57325D01*
X64840Y-57260D01*
X64852Y-57248D01*
X65100Y-57248D01*
X65162Y-57235D01*
X65139Y-57258D01*
X65075Y-57415D01*
X65074Y-57584D01*
X65139Y-57740D01*
X65258Y-57860D01*
X65415Y-57924D01*
X65584Y-57925D01*
X65740Y-57860D01*
X65752Y-57848D01*
X65789Y-58037D01*
X65910Y-58218D01*
X66066Y-58322D01*
X66060Y-58324D01*
X65889Y-58462D01*
X65784Y-58654D01*
X65777Y-58686D01*
X65825Y-58772D01*
X66410Y-58772D01*
X66410Y-58764D01*
X66510Y-58764D01*
X66510Y-58772D01*
X67095Y-58772D01*
X67143Y-58686D01*
X67137Y-58654D01*
X67031Y-58462D01*
X66861Y-58324D01*
X66854Y-58322D01*
X67010Y-58218D01*
X67131Y-58037D01*
X67174Y-57822D01*
X67174Y-63633D01*
X67148Y-63608D01*
X67148Y-63607D01*
X67143Y-63604D01*
X67143Y-58959D01*
X67095Y-58872D01*
X66510Y-58872D01*
X66510Y-59382D01*
X66650Y-59382D01*
X66861Y-59321D01*
X67031Y-59183D01*
X67137Y-58990D01*
X67143Y-58959D01*
X67143Y-63604D01*
X66995Y-63505D01*
X66878Y-63457D01*
X66877Y-63457D01*
X66697Y-63421D01*
X66697Y-63421D01*
X66570Y-63421D01*
X66410Y-63453D01*
X66410Y-59382D01*
X66410Y-58872D01*
X65825Y-58872D01*
X65777Y-58959D01*
X65784Y-58990D01*
X65889Y-59183D01*
X66060Y-59321D01*
X66270Y-59382D01*
X66410Y-59382D01*
X66410Y-63453D01*
X66389Y-63457D01*
X66389Y-63457D01*
X66272Y-63505D01*
X66118Y-63608D01*
X66029Y-63698D01*
X66028Y-63698D01*
X65926Y-63851D01*
X65878Y-63968D01*
X65878Y-63969D01*
X65842Y-64149D01*
X65842Y-64149D01*
X65842Y-64149D01*
X65842Y-64213D01*
X65842Y-64276D01*
X65842Y-64276D01*
X65842Y-64276D01*
X65878Y-64456D01*
X65878Y-64457D01*
X65926Y-64574D01*
X66028Y-64727D01*
X66029Y-64727D01*
X66118Y-64817D01*
X66272Y-64920D01*
X66389Y-64968D01*
X66389Y-64968D01*
X66570Y-65004D01*
X66697Y-65004D01*
X66697Y-65004D01*
X66877Y-64968D01*
X66878Y-64968D01*
X66995Y-64920D01*
X67148Y-64818D01*
X67148Y-64817D01*
X67238Y-64728D01*
X67341Y-64574D01*
X67389Y-64457D01*
X67389Y-64457D01*
X67425Y-64276D01*
X67425Y-64276D01*
X67425Y-64276D01*
X67425Y-67116D01*
X65225Y-67116D01*
X65225Y-65565D01*
X65160Y-65409D01*
X65041Y-65289D01*
X64884Y-65225D01*
X64715Y-65224D01*
X64559Y-65289D01*
X64547Y-65301D01*
X64174Y-65301D01*
X64174Y-58822D01*
X64131Y-58608D01*
X64010Y-58426D01*
X63854Y-58322D01*
X64010Y-58218D01*
X64131Y-58037D01*
X64174Y-57822D01*
X64160Y-57754D01*
X64160Y-56182D01*
X64160Y-55463D01*
X64122Y-55371D01*
X64052Y-55301D01*
X63960Y-55262D01*
X63861Y-55262D01*
X63573Y-55262D01*
X63510Y-55325D01*
X63510Y-55772D01*
X64098Y-55772D01*
X64160Y-55710D01*
X64160Y-55463D01*
X64160Y-56182D01*
X64160Y-55935D01*
X64098Y-55872D01*
X63510Y-55872D01*
X63510Y-56262D01*
X63510Y-56320D01*
X63510Y-56772D01*
X64095Y-56772D01*
X64143Y-56686D01*
X64137Y-56654D01*
X64031Y-56462D01*
X63933Y-56382D01*
X63960Y-56382D01*
X64052Y-56344D01*
X64122Y-56274D01*
X64160Y-56182D01*
X64160Y-57754D01*
X64131Y-57608D01*
X64010Y-57426D01*
X63854Y-57322D01*
X63861Y-57321D01*
X64031Y-57183D01*
X64137Y-56990D01*
X64143Y-56959D01*
X64095Y-56872D01*
X63510Y-56872D01*
X63510Y-56880D01*
X63410Y-56880D01*
X63410Y-56872D01*
X63410Y-56772D01*
X63410Y-56320D01*
X63410Y-56262D01*
X63410Y-55872D01*
X63410Y-55772D01*
X63410Y-55325D01*
X63348Y-55262D01*
X63060Y-55262D01*
X62960Y-55262D01*
X62868Y-55301D01*
X62798Y-55371D01*
X62760Y-55463D01*
X62760Y-55710D01*
X62823Y-55772D01*
X63410Y-55772D01*
X63410Y-55872D01*
X62823Y-55872D01*
X62760Y-55935D01*
X62760Y-56182D01*
X62798Y-56274D01*
X62868Y-56344D01*
X62960Y-56382D01*
X62987Y-56382D01*
X62889Y-56462D01*
X62784Y-56654D01*
X62777Y-56686D01*
X62825Y-56772D01*
X63410Y-56772D01*
X63410Y-56872D01*
X62825Y-56872D01*
X62777Y-56959D01*
X62784Y-56990D01*
X62889Y-57183D01*
X63060Y-57321D01*
X63066Y-57322D01*
X62910Y-57426D01*
X62789Y-57608D01*
X62746Y-57822D01*
X62748Y-57830D01*
X62734Y-57825D01*
X62655Y-57825D01*
X62655Y-53331D01*
X62644Y-53123D01*
X62586Y-52983D01*
X62493Y-52958D01*
X62196Y-53255D01*
X62493Y-53552D01*
X62586Y-53528D01*
X62655Y-53331D01*
X62655Y-57825D01*
X62565Y-57824D01*
X62423Y-57883D01*
X62423Y-53623D01*
X62125Y-53326D01*
X62055Y-53397D01*
X62055Y-53255D01*
X61758Y-52958D01*
X61665Y-52983D01*
X61596Y-53180D01*
X61607Y-53388D01*
X61665Y-53528D01*
X61758Y-53552D01*
X62055Y-53255D01*
X62055Y-53397D01*
X61828Y-53623D01*
X61853Y-53716D01*
X62050Y-53785D01*
X62258Y-53774D01*
X62398Y-53716D01*
X62423Y-53623D01*
X62423Y-57883D01*
X62409Y-57889D01*
X62289Y-58008D01*
X62225Y-58165D01*
X62224Y-58334D01*
X62289Y-58490D01*
X62408Y-58610D01*
X62565Y-58674D01*
X62582Y-58674D01*
X62751Y-58843D01*
X62789Y-59037D01*
X62910Y-59218D01*
X63092Y-59340D01*
X63306Y-59382D01*
X63614Y-59382D01*
X63828Y-59340D01*
X64010Y-59218D01*
X64131Y-59037D01*
X64174Y-58822D01*
X64174Y-65301D01*
X63375Y-65301D01*
X63375Y-63565D01*
X63310Y-63409D01*
X63191Y-63289D01*
X63034Y-63225D01*
X63017Y-63225D01*
X62096Y-62303D01*
X61983Y-62228D01*
X61850Y-62201D01*
X61800Y-62201D01*
X61926Y-62149D01*
X62080Y-61994D01*
X62164Y-61792D01*
X62165Y-61574D01*
X62081Y-61371D01*
X61926Y-61217D01*
X61724Y-61133D01*
X61506Y-61132D01*
X61303Y-61216D01*
X61166Y-61353D01*
X61040Y-61227D01*
X60917Y-61175D01*
X60917Y-59539D01*
X60917Y-56039D01*
X60879Y-55947D01*
X60808Y-55877D01*
X60716Y-55839D01*
X60617Y-55838D01*
X58867Y-55838D01*
X58867Y-51876D01*
X58867Y-51389D01*
X58859Y-51389D01*
X58859Y-51289D01*
X58867Y-51289D01*
X58867Y-50801D01*
X58804Y-50739D01*
X58616Y-50738D01*
X58517Y-50739D01*
X58425Y-50777D01*
X58354Y-50847D01*
X58331Y-50904D01*
X58257Y-50830D01*
X58036Y-50739D01*
X57798Y-50738D01*
X57577Y-50830D01*
X57408Y-50998D01*
X57317Y-51219D01*
X57316Y-51457D01*
X57408Y-51678D01*
X57576Y-51847D01*
X57797Y-51938D01*
X58035Y-51939D01*
X58256Y-51847D01*
X58331Y-51773D01*
X58354Y-51830D01*
X58425Y-51900D01*
X58517Y-51938D01*
X58616Y-51939D01*
X58804Y-51939D01*
X58867Y-51876D01*
X58867Y-55838D01*
X57275Y-55838D01*
X57275Y-52315D01*
X57210Y-52159D01*
X57091Y-52039D01*
X56934Y-51975D01*
X56765Y-51974D01*
X56609Y-52039D01*
X56597Y-52051D01*
X56300Y-52051D01*
X56166Y-52078D01*
X56053Y-52153D01*
X55958Y-52248D01*
X55951Y-52123D01*
X55893Y-51983D01*
X55800Y-51958D01*
X55730Y-52029D01*
X55730Y-51888D01*
X55705Y-51795D01*
X55508Y-51726D01*
X55300Y-51737D01*
X55174Y-51789D01*
X55174Y-49284D01*
X55167Y-48950D01*
X55052Y-48671D01*
X54926Y-48608D01*
X54856Y-48679D01*
X54856Y-48537D01*
X54793Y-48412D01*
X54481Y-48290D01*
X54147Y-48296D01*
X53868Y-48412D01*
X53805Y-48537D01*
X54330Y-49063D01*
X54856Y-48537D01*
X54856Y-48679D01*
X54401Y-49133D01*
X54926Y-49659D01*
X55052Y-49596D01*
X55174Y-49284D01*
X55174Y-51789D01*
X55160Y-51795D01*
X55135Y-51888D01*
X55433Y-52185D01*
X55730Y-51888D01*
X55730Y-52029D01*
X55503Y-52255D01*
X55509Y-52261D01*
X55438Y-52332D01*
X55433Y-52326D01*
X55362Y-52397D01*
X55362Y-52255D01*
X55065Y-51958D01*
X54972Y-51983D01*
X54903Y-52180D01*
X54914Y-52388D01*
X54972Y-52528D01*
X55065Y-52552D01*
X55362Y-52255D01*
X55362Y-52397D01*
X55135Y-52623D01*
X55160Y-52716D01*
X55270Y-52755D01*
X55136Y-52810D01*
X55044Y-52901D01*
X54856Y-52901D01*
X54856Y-49729D01*
X54330Y-49204D01*
X54259Y-49275D01*
X54259Y-49133D01*
X53734Y-48608D01*
X53609Y-48671D01*
X53487Y-48982D01*
X53493Y-49317D01*
X53609Y-49596D01*
X53734Y-49659D01*
X54259Y-49133D01*
X54259Y-49275D01*
X53805Y-49729D01*
X53868Y-49855D01*
X54179Y-49977D01*
X54513Y-49971D01*
X54793Y-49855D01*
X54856Y-49729D01*
X54856Y-52901D01*
X53202Y-52901D01*
X53202Y-48967D01*
X53075Y-48658D01*
X52838Y-48421D01*
X52530Y-48293D01*
X52195Y-48293D01*
X51886Y-48420D01*
X51650Y-48657D01*
X51521Y-48965D01*
X51521Y-49300D01*
X51649Y-49609D01*
X51885Y-49846D01*
X52194Y-49974D01*
X52528Y-49974D01*
X52837Y-49846D01*
X53074Y-49610D01*
X53202Y-49301D01*
X53202Y-48967D01*
X53202Y-52901D01*
X52892Y-52901D01*
X52892Y-52331D01*
X52880Y-52123D01*
X52822Y-51983D01*
X52729Y-51958D01*
X52659Y-52029D01*
X52659Y-51888D01*
X52635Y-51795D01*
X52438Y-51726D01*
X52229Y-51737D01*
X52089Y-51795D01*
X52065Y-51888D01*
X52362Y-52185D01*
X52659Y-51888D01*
X52659Y-52029D01*
X52432Y-52255D01*
X52729Y-52552D01*
X52822Y-52528D01*
X52892Y-52331D01*
X52892Y-52901D01*
X52750Y-52901D01*
X52659Y-52811D01*
X52533Y-52758D01*
X52635Y-52716D01*
X52659Y-52623D01*
X52362Y-52326D01*
X52291Y-52397D01*
X52291Y-52255D01*
X51994Y-51958D01*
X51901Y-51983D01*
X51832Y-52180D01*
X51843Y-52388D01*
X51901Y-52528D01*
X51994Y-52552D01*
X52291Y-52255D01*
X52291Y-52397D01*
X52065Y-52623D01*
X52089Y-52716D01*
X52199Y-52755D01*
X52065Y-52810D01*
X51917Y-52958D01*
X51837Y-53151D01*
X51837Y-53359D01*
X51916Y-53552D01*
X52064Y-53700D01*
X52257Y-53780D01*
X52466Y-53780D01*
X52659Y-53701D01*
X52762Y-53598D01*
X55033Y-53598D01*
X55135Y-53700D01*
X55328Y-53780D01*
X55537Y-53780D01*
X55730Y-53701D01*
X55877Y-53553D01*
X55957Y-53360D01*
X55958Y-53234D01*
X56444Y-52748D01*
X56597Y-52748D01*
X56608Y-52760D01*
X56765Y-52824D01*
X56934Y-52825D01*
X57090Y-52760D01*
X57210Y-52641D01*
X57274Y-52484D01*
X57275Y-52315D01*
X57275Y-55838D01*
X57117Y-55838D01*
X57025Y-55876D01*
X56955Y-55947D01*
X56917Y-56039D01*
X56916Y-56138D01*
X56916Y-59638D01*
X56954Y-59730D01*
X57025Y-59800D01*
X57117Y-59838D01*
X57216Y-59839D01*
X60716Y-59839D01*
X60808Y-59801D01*
X60878Y-59730D01*
X60916Y-59638D01*
X60917Y-59539D01*
X60917Y-61175D01*
X60838Y-61143D01*
X60620Y-61142D01*
X60417Y-61226D01*
X60263Y-61381D01*
X60179Y-61583D01*
X60178Y-61801D01*
X60262Y-62004D01*
X60417Y-62158D01*
X60519Y-62201D01*
X60252Y-62201D01*
X60241Y-62189D01*
X60084Y-62125D01*
X59915Y-62124D01*
X59759Y-62189D01*
X59639Y-62308D01*
X59575Y-62465D01*
X59574Y-62634D01*
X59639Y-62790D01*
X59758Y-62910D01*
X59915Y-62974D01*
X60084Y-62975D01*
X60240Y-62910D01*
X60252Y-62898D01*
X61705Y-62898D01*
X61997Y-63190D01*
X61957Y-63191D01*
X61717Y-63290D01*
X61666Y-63406D01*
X62126Y-63866D01*
X62131Y-63860D01*
X62202Y-63931D01*
X62196Y-63937D01*
X62656Y-64396D01*
X62772Y-64345D01*
X62876Y-64074D01*
X63034Y-64075D01*
X63190Y-64010D01*
X63310Y-63891D01*
X63374Y-63734D01*
X63375Y-63565D01*
X63375Y-65301D01*
X62500Y-65301D01*
X62444Y-65312D01*
X62445Y-65076D01*
X62292Y-64705D01*
X62269Y-64683D01*
X62294Y-64682D01*
X62534Y-64583D01*
X62585Y-64467D01*
X62126Y-64007D01*
X62120Y-64013D01*
X62049Y-63942D01*
X62055Y-63937D01*
X61595Y-63477D01*
X61479Y-63528D01*
X61372Y-63807D01*
X61380Y-64105D01*
X61447Y-64268D01*
X61237Y-64267D01*
X60866Y-64420D01*
X60846Y-64441D01*
X60846Y-64020D01*
X60808Y-63928D01*
X60737Y-63858D01*
X60645Y-63820D01*
X60546Y-63819D01*
X60399Y-63819D01*
X60451Y-63692D01*
X60452Y-63474D01*
X60368Y-63271D01*
X60213Y-63117D01*
X60011Y-63033D01*
X59793Y-63032D01*
X59590Y-63116D01*
X59508Y-63198D01*
X59426Y-63117D01*
X59224Y-63033D01*
X59006Y-63032D01*
X58803Y-63116D01*
X58720Y-63199D01*
X58638Y-63117D01*
X58436Y-63033D01*
X58218Y-63032D01*
X58015Y-63116D01*
X57975Y-63157D01*
X57975Y-62765D01*
X57910Y-62609D01*
X57791Y-62489D01*
X57696Y-62450D01*
X57696Y-61584D01*
X57612Y-61381D01*
X57457Y-61227D01*
X57255Y-61143D01*
X57037Y-61142D01*
X57000Y-61157D01*
X56796Y-60953D01*
X56683Y-60878D01*
X56576Y-60856D01*
X56576Y-60856D01*
X56533Y-60828D01*
X56400Y-60801D01*
X56175Y-60801D01*
X56175Y-58665D01*
X56110Y-58509D01*
X55991Y-58389D01*
X55834Y-58325D01*
X55817Y-58325D01*
X55446Y-57953D01*
X55333Y-57878D01*
X55200Y-57851D01*
X55184Y-57851D01*
X55205Y-57744D01*
X55163Y-57529D01*
X55041Y-57348D01*
X54886Y-57244D01*
X55041Y-57140D01*
X55163Y-56958D01*
X55205Y-56744D01*
X55200Y-56719D01*
X55215Y-56724D01*
X55384Y-56725D01*
X55540Y-56660D01*
X55660Y-56541D01*
X55724Y-56384D01*
X55725Y-56215D01*
X55660Y-56059D01*
X55541Y-55939D01*
X55384Y-55875D01*
X55367Y-55875D01*
X55198Y-55705D01*
X55163Y-55529D01*
X55041Y-55348D01*
X54860Y-55226D01*
X54645Y-55184D01*
X54338Y-55184D01*
X54124Y-55226D01*
X53942Y-55348D01*
X53821Y-55529D01*
X53778Y-55744D01*
X53799Y-55851D01*
X53666Y-55878D01*
X53553Y-55953D01*
X53205Y-56301D01*
X53102Y-56301D01*
X53091Y-56289D01*
X52934Y-56225D01*
X52765Y-56224D01*
X52609Y-56289D01*
X52489Y-56408D01*
X52425Y-56565D01*
X52424Y-56734D01*
X52489Y-56890D01*
X52608Y-57010D01*
X52765Y-57074D01*
X52934Y-57075D01*
X53090Y-57010D01*
X53102Y-56998D01*
X53350Y-56998D01*
X53483Y-56971D01*
X53483Y-56971D01*
X53596Y-56896D01*
X53785Y-56707D01*
X53778Y-56744D01*
X53821Y-56958D01*
X53942Y-57140D01*
X54098Y-57244D01*
X53942Y-57348D01*
X53821Y-57529D01*
X53778Y-57744D01*
X53821Y-57958D01*
X53942Y-58140D01*
X54097Y-58243D01*
X54091Y-58245D01*
X53920Y-58383D01*
X53815Y-58575D01*
X53809Y-58607D01*
X53857Y-58694D01*
X54442Y-58694D01*
X54442Y-58686D01*
X54542Y-58686D01*
X54542Y-58694D01*
X55127Y-58694D01*
X55153Y-58646D01*
X55324Y-58817D01*
X55324Y-58834D01*
X55389Y-58990D01*
X55508Y-59110D01*
X55665Y-59174D01*
X55834Y-59175D01*
X55990Y-59110D01*
X56110Y-58991D01*
X56174Y-58834D01*
X56175Y-58665D01*
X56175Y-60801D01*
X55175Y-60801D01*
X55175Y-58880D01*
X55127Y-58794D01*
X54542Y-58794D01*
X54542Y-59304D01*
X54682Y-59304D01*
X54892Y-59242D01*
X55063Y-59104D01*
X55168Y-58912D01*
X55175Y-58880D01*
X55175Y-60801D01*
X54652Y-60801D01*
X54641Y-60789D01*
X54580Y-60764D01*
X54590Y-60760D01*
X54710Y-60641D01*
X54774Y-60484D01*
X54775Y-60315D01*
X54710Y-60159D01*
X54591Y-60039D01*
X54442Y-59978D01*
X54442Y-59304D01*
X54442Y-58794D01*
X53857Y-58794D01*
X53809Y-58880D01*
X53815Y-58912D01*
X53920Y-59104D01*
X54091Y-59242D01*
X54302Y-59304D01*
X54442Y-59304D01*
X54442Y-59978D01*
X54434Y-59975D01*
X54417Y-59975D01*
X54075Y-59632D01*
X54075Y-59615D01*
X54010Y-59459D01*
X53891Y-59339D01*
X53734Y-59275D01*
X53565Y-59274D01*
X53409Y-59339D01*
X53289Y-59458D01*
X53225Y-59615D01*
X53224Y-59784D01*
X53289Y-59940D01*
X53408Y-60060D01*
X53565Y-60124D01*
X53582Y-60124D01*
X53924Y-60467D01*
X53924Y-60484D01*
X53989Y-60640D01*
X54108Y-60760D01*
X54169Y-60785D01*
X54159Y-60789D01*
X54039Y-60908D01*
X53975Y-61065D01*
X53974Y-61234D01*
X54039Y-61390D01*
X54158Y-61510D01*
X54315Y-61574D01*
X54484Y-61575D01*
X54640Y-61510D01*
X54652Y-61498D01*
X55726Y-61498D01*
X55691Y-61583D01*
X55690Y-61801D01*
X55774Y-62004D01*
X55929Y-62158D01*
X56131Y-62242D01*
X56349Y-62243D01*
X56552Y-62159D01*
X56693Y-62018D01*
X56834Y-62158D01*
X57036Y-62242D01*
X57254Y-62243D01*
X57457Y-62159D01*
X57611Y-62004D01*
X57695Y-61802D01*
X57696Y-61584D01*
X57696Y-62450D01*
X57634Y-62425D01*
X57465Y-62424D01*
X57309Y-62489D01*
X57297Y-62501D01*
X54498Y-62501D01*
X54434Y-62475D01*
X54265Y-62474D01*
X54109Y-62539D01*
X53989Y-62658D01*
X53925Y-62815D01*
X53924Y-62984D01*
X53989Y-63140D01*
X54108Y-63260D01*
X54265Y-63324D01*
X54434Y-63325D01*
X54590Y-63260D01*
X54652Y-63198D01*
X55542Y-63198D01*
X55320Y-63290D01*
X55269Y-63406D01*
X55729Y-63866D01*
X56188Y-63406D01*
X56137Y-63290D01*
X55897Y-63198D01*
X57132Y-63198D01*
X57108Y-63222D01*
X57154Y-63267D01*
X57058Y-63295D01*
X56985Y-63501D01*
X56996Y-63719D01*
X57058Y-63870D01*
X57154Y-63898D01*
X57469Y-63583D01*
X57463Y-63577D01*
X57534Y-63506D01*
X57540Y-63512D01*
X57855Y-63197D01*
X57843Y-63157D01*
X57910Y-63091D01*
X57974Y-62934D01*
X57975Y-62765D01*
X57975Y-63157D01*
X57861Y-63271D01*
X57817Y-63376D01*
X57610Y-63583D01*
X57616Y-63588D01*
X57545Y-63659D01*
X57540Y-63653D01*
X57469Y-63724D01*
X57224Y-63968D01*
X57252Y-64064D01*
X57437Y-64130D01*
X57384Y-64260D01*
X57383Y-64478D01*
X57467Y-64681D01*
X57622Y-64835D01*
X57762Y-64894D01*
X57445Y-65212D01*
X57445Y-65076D01*
X57292Y-64705D01*
X57008Y-64421D01*
X56638Y-64268D01*
X56405Y-64267D01*
X56482Y-64066D01*
X56474Y-63768D01*
X56375Y-63528D01*
X56259Y-63477D01*
X55799Y-63937D01*
X55805Y-63942D01*
X55734Y-64013D01*
X55729Y-64007D01*
X55658Y-64078D01*
X55658Y-63937D01*
X55198Y-63477D01*
X55082Y-63528D01*
X54975Y-63807D01*
X54983Y-64105D01*
X55082Y-64345D01*
X55198Y-64396D01*
X55658Y-63937D01*
X55658Y-64078D01*
X55269Y-64467D01*
X55320Y-64583D01*
X55597Y-64689D01*
X55582Y-64704D01*
X55429Y-65074D01*
X55428Y-65357D01*
X55400Y-65351D01*
X53302Y-65351D01*
X53291Y-65339D01*
X53134Y-65275D01*
X52965Y-65274D01*
X52809Y-65339D01*
X52689Y-65458D01*
X52625Y-65615D01*
X52624Y-65784D01*
X52689Y-65940D01*
X52808Y-66060D01*
X52965Y-66124D01*
X53134Y-66125D01*
X53290Y-66060D01*
X53302Y-66048D01*
X55255Y-66048D01*
X55553Y-66346D01*
X55553Y-66346D01*
X55666Y-66421D01*
X55702Y-66429D01*
X55766Y-66471D01*
X55766Y-66471D01*
X55802Y-66479D01*
X55802Y-66479D01*
X55802Y-66479D01*
X55866Y-66521D01*
X55866Y-66521D01*
X55902Y-66529D01*
X55902Y-66529D01*
X55902Y-66529D01*
X55966Y-66571D01*
X55966Y-66571D01*
X56100Y-66598D01*
X56231Y-66598D01*
X56231Y-66598D01*
X56266Y-66621D01*
X56266Y-66621D01*
X56400Y-66648D01*
X56850Y-66648D01*
X56983Y-66621D01*
X56983Y-66621D01*
X57096Y-66546D01*
X58722Y-64920D01*
X58829Y-64920D01*
X59032Y-64836D01*
X59114Y-64754D01*
X59196Y-64835D01*
X59398Y-64919D01*
X59616Y-64920D01*
X59811Y-64839D01*
X59854Y-64881D01*
X59946Y-64919D01*
X60045Y-64920D01*
X60493Y-64920D01*
X60429Y-65074D01*
X60429Y-65275D01*
X60315Y-65274D01*
X60159Y-65339D01*
X60039Y-65458D01*
X59975Y-65615D01*
X59974Y-65784D01*
X60039Y-65940D01*
X60158Y-66060D01*
X60315Y-66124D01*
X60332Y-66124D01*
X60753Y-66546D01*
X60866Y-66621D01*
X61000Y-66648D01*
X61500Y-66648D01*
X61633Y-66621D01*
X61633Y-66621D01*
X61668Y-66598D01*
X61668Y-66598D01*
X61750Y-66598D01*
X61883Y-66571D01*
X61883Y-66571D01*
X61926Y-66543D01*
X61926Y-66543D01*
X62033Y-66521D01*
X62033Y-66521D01*
X62097Y-66479D01*
X62097Y-66479D01*
X62097Y-66479D01*
X62133Y-66471D01*
X62133Y-66471D01*
X62246Y-66396D01*
X62644Y-65998D01*
X64547Y-65998D01*
X64558Y-66010D01*
X64715Y-66074D01*
X64884Y-66075D01*
X65040Y-66010D01*
X65160Y-65891D01*
X65224Y-65734D01*
X65225Y-65565D01*
X65225Y-67116D01*
X52205Y-67116D01*
X52205Y-58744D01*
X52163Y-58529D01*
X52041Y-58348D01*
X51886Y-58244D01*
X52041Y-58140D01*
X52163Y-57958D01*
X52205Y-57744D01*
X52192Y-57675D01*
X52192Y-56103D01*
X52192Y-55384D01*
X52154Y-55292D01*
X52083Y-55222D01*
X51992Y-55184D01*
X51892Y-55184D01*
X51604Y-55184D01*
X51542Y-55246D01*
X51542Y-55694D01*
X52129Y-55694D01*
X52192Y-55631D01*
X52192Y-55384D01*
X52192Y-56103D01*
X52192Y-55856D01*
X52129Y-55794D01*
X51542Y-55794D01*
X51542Y-56184D01*
X51542Y-56241D01*
X51542Y-56694D01*
X52127Y-56694D01*
X52175Y-56607D01*
X52168Y-56575D01*
X52063Y-56383D01*
X51964Y-56304D01*
X51992Y-56304D01*
X52083Y-56265D01*
X52154Y-56195D01*
X52192Y-56103D01*
X52192Y-57675D01*
X52163Y-57529D01*
X52041Y-57348D01*
X51886Y-57244D01*
X51892Y-57242D01*
X52063Y-57104D01*
X52168Y-56912D01*
X52175Y-56880D01*
X52127Y-56794D01*
X51542Y-56794D01*
X51542Y-56801D01*
X51442Y-56801D01*
X51442Y-56794D01*
X51442Y-56694D01*
X51442Y-56241D01*
X51442Y-56184D01*
X51442Y-55794D01*
X51442Y-55694D01*
X51442Y-55246D01*
X51379Y-55184D01*
X51091Y-55184D01*
X50992Y-55184D01*
X50900Y-55222D01*
X50830Y-55292D01*
X50792Y-55384D01*
X50792Y-55631D01*
X50854Y-55694D01*
X51442Y-55694D01*
X51442Y-55794D01*
X50854Y-55794D01*
X50792Y-55856D01*
X50792Y-56103D01*
X50830Y-56195D01*
X50900Y-56265D01*
X50992Y-56304D01*
X51019Y-56304D01*
X50920Y-56383D01*
X50815Y-56575D01*
X50809Y-56607D01*
X50857Y-56694D01*
X51442Y-56694D01*
X51442Y-56794D01*
X50857Y-56794D01*
X50809Y-56880D01*
X50815Y-56912D01*
X50920Y-57104D01*
X51091Y-57242D01*
X51097Y-57244D01*
X50942Y-57348D01*
X50821Y-57529D01*
X50778Y-57744D01*
X50821Y-57958D01*
X50942Y-58140D01*
X51098Y-58244D01*
X50942Y-58348D01*
X50821Y-58529D01*
X50778Y-58744D01*
X50821Y-58958D01*
X50942Y-59140D01*
X51124Y-59261D01*
X51338Y-59304D01*
X51645Y-59304D01*
X51860Y-59261D01*
X52041Y-59140D01*
X52163Y-58958D01*
X52205Y-58744D01*
X52205Y-67116D01*
X51991Y-67116D01*
X51991Y-64276D01*
X51991Y-64213D01*
X51991Y-64149D01*
X51991Y-64149D01*
X51991Y-64149D01*
X51991Y-64149D01*
X51955Y-63969D01*
X51955Y-63968D01*
X51907Y-63851D01*
X51804Y-63698D01*
X51715Y-63608D01*
X51714Y-63608D01*
X51562Y-63506D01*
X51561Y-63506D01*
X51444Y-63457D01*
X51264Y-63422D01*
X51137Y-63422D01*
X51136Y-63422D01*
X50957Y-63458D01*
X50956Y-63458D01*
X50839Y-63506D01*
X50686Y-63609D01*
X50596Y-63698D01*
X50596Y-63699D01*
X50494Y-63851D01*
X50494Y-63852D01*
X50445Y-63969D01*
X50410Y-64149D01*
X50410Y-64213D01*
X50410Y-64276D01*
X50445Y-64456D01*
X50494Y-64573D01*
X50494Y-64574D01*
X50596Y-64726D01*
X50596Y-64727D01*
X50686Y-64816D01*
X50839Y-64919D01*
X50956Y-64967D01*
X50957Y-64967D01*
X51136Y-65003D01*
X51137Y-65003D01*
X51264Y-65003D01*
X51444Y-64968D01*
X51561Y-64919D01*
X51562Y-64919D01*
X51714Y-64817D01*
X51715Y-64817D01*
X51804Y-64727D01*
X51907Y-64574D01*
X51955Y-64457D01*
X51955Y-64456D01*
X51991Y-64276D01*
X51991Y-64276D01*
X51991Y-64276D01*
X51991Y-64276D01*
X51991Y-67116D01*
X50167Y-67116D01*
X50167Y-48159D01*
X67588Y-48159D01*
X67588Y-67116D01*
X67588Y-67116D01*
G37*
G54D25*
X67588Y-67116D02*
X67425Y-67116D01*
X67425Y-64276D01*
X67425Y-64213D01*
X67425Y-64149D01*
X67425Y-64149D01*
X67425Y-64149D01*
X67389Y-63968D01*
X67389Y-63968D01*
X67341Y-63851D01*
X67238Y-63697D01*
X67174Y-63633D01*
X67174Y-57822D01*
X67131Y-57608D01*
X67010Y-57426D01*
X66854Y-57322D01*
X67010Y-57218D01*
X67131Y-57037D01*
X67174Y-56822D01*
X67131Y-56608D01*
X67010Y-56426D01*
X66854Y-56322D01*
X67010Y-56218D01*
X67131Y-56037D01*
X67174Y-55822D01*
X67131Y-55608D01*
X67010Y-55426D01*
X66828Y-55305D01*
X66614Y-55262D01*
X66431Y-55262D01*
X66431Y-48967D01*
X66303Y-48658D01*
X66067Y-48421D01*
X65758Y-48293D01*
X65424Y-48293D01*
X65115Y-48420D01*
X64878Y-48657D01*
X64818Y-48801D01*
X64800Y-48801D01*
X64799Y-48801D01*
X64666Y-48828D01*
X64553Y-48903D01*
X64553Y-48903D01*
X64460Y-48997D01*
X64459Y-48950D01*
X64343Y-48671D01*
X64218Y-48608D01*
X64147Y-48679D01*
X64147Y-48537D01*
X64084Y-48412D01*
X63773Y-48290D01*
X63438Y-48296D01*
X63159Y-48412D01*
X63096Y-48537D01*
X63622Y-49063D01*
X64147Y-48537D01*
X64147Y-48679D01*
X63692Y-49133D01*
X63698Y-49139D01*
X63627Y-49210D01*
X63622Y-49204D01*
X63616Y-49210D01*
X63545Y-49139D01*
X63551Y-49133D01*
X63025Y-48608D01*
X62900Y-48671D01*
X62778Y-48982D01*
X62784Y-49317D01*
X62900Y-49596D01*
X62910Y-49601D01*
X62369Y-49601D01*
X62493Y-49301D01*
X62494Y-48967D01*
X62366Y-48658D01*
X62130Y-48421D01*
X61821Y-48293D01*
X61487Y-48293D01*
X61178Y-48420D01*
X60941Y-48657D01*
X60813Y-48965D01*
X60812Y-49300D01*
X60937Y-49601D01*
X57244Y-49601D01*
X57082Y-49439D01*
X57139Y-49301D01*
X57139Y-48967D01*
X57012Y-48658D01*
X56775Y-48421D01*
X56467Y-48293D01*
X56132Y-48293D01*
X55823Y-48420D01*
X55587Y-48657D01*
X55458Y-48965D01*
X55458Y-49300D01*
X55586Y-49609D01*
X55822Y-49846D01*
X56131Y-49974D01*
X56465Y-49974D01*
X56583Y-49926D01*
X56853Y-50196D01*
X56853Y-50196D01*
X56966Y-50271D01*
X57099Y-50298D01*
X57099Y-50298D01*
X57100Y-50298D01*
X63900Y-50298D01*
X64033Y-50271D01*
X64033Y-50271D01*
X64097Y-50229D01*
X64097Y-50229D01*
X64097Y-50229D01*
X64133Y-50221D01*
X64133Y-50221D01*
X64197Y-50179D01*
X64197Y-50179D01*
X64197Y-50179D01*
X64233Y-50171D01*
X64233Y-50171D01*
X64346Y-50096D01*
X64864Y-49578D01*
X64877Y-49609D01*
X65113Y-49846D01*
X65422Y-49974D01*
X65757Y-49974D01*
X66066Y-49846D01*
X66302Y-49610D01*
X66430Y-49301D01*
X66431Y-48967D01*
X66431Y-55262D01*
X66306Y-55262D01*
X66092Y-55305D01*
X65910Y-55426D01*
X65884Y-55466D01*
X65884Y-52991D01*
X65879Y-52901D01*
X65879Y-51640D01*
X65879Y-51090D01*
X65841Y-50998D01*
X65771Y-50928D01*
X65679Y-50890D01*
X65579Y-50890D01*
X65029Y-50890D01*
X64937Y-50928D01*
X64867Y-50998D01*
X64845Y-51051D01*
X63000Y-51051D01*
X62866Y-51078D01*
X62753Y-51153D01*
X62176Y-51730D01*
X62022Y-51730D01*
X61828Y-51810D01*
X61737Y-51901D01*
X60944Y-51901D01*
X60512Y-51469D01*
X60516Y-51458D01*
X60517Y-51220D01*
X60425Y-50999D01*
X60257Y-50830D01*
X60036Y-50739D01*
X59798Y-50738D01*
X59577Y-50830D01*
X59502Y-50904D01*
X59479Y-50847D01*
X59408Y-50777D01*
X59316Y-50739D01*
X59217Y-50738D01*
X59029Y-50739D01*
X58967Y-50801D01*
X58967Y-51289D01*
X58974Y-51289D01*
X58974Y-51389D01*
X58967Y-51389D01*
X58967Y-51876D01*
X59029Y-51939D01*
X59217Y-51939D01*
X59316Y-51938D01*
X59408Y-51900D01*
X59479Y-51830D01*
X59502Y-51773D01*
X59576Y-51847D01*
X59797Y-51938D01*
X59996Y-51939D01*
X60553Y-52496D01*
X60666Y-52571D01*
X60666Y-52571D01*
X60800Y-52598D01*
X61726Y-52598D01*
X61828Y-52700D01*
X61954Y-52753D01*
X61853Y-52795D01*
X61828Y-52888D01*
X62125Y-53185D01*
X62423Y-52888D01*
X62398Y-52795D01*
X62288Y-52756D01*
X62422Y-52701D01*
X62570Y-52553D01*
X62650Y-52360D01*
X62650Y-52241D01*
X63144Y-51748D01*
X64832Y-51748D01*
X64867Y-51831D01*
X64937Y-51902D01*
X65029Y-51940D01*
X65128Y-51940D01*
X65678Y-51940D01*
X65770Y-51902D01*
X65841Y-51832D01*
X65879Y-51740D01*
X65879Y-51640D01*
X65879Y-52901D01*
X65872Y-52782D01*
X65814Y-52642D01*
X65722Y-52618D01*
X65651Y-52688D01*
X65651Y-52547D01*
X65627Y-52454D01*
X65430Y-52385D01*
X65221Y-52396D01*
X65081Y-52454D01*
X65057Y-52547D01*
X65354Y-52844D01*
X65651Y-52547D01*
X65651Y-52688D01*
X65425Y-52915D01*
X65722Y-53212D01*
X65814Y-53188D01*
X65884Y-52991D01*
X65884Y-55466D01*
X65789Y-55608D01*
X65746Y-55822D01*
X65762Y-55901D01*
X65750Y-55901D01*
X65651Y-55921D01*
X65651Y-53283D01*
X65354Y-52986D01*
X65283Y-53056D01*
X65283Y-52915D01*
X64986Y-52618D01*
X64893Y-52642D01*
X64824Y-52839D01*
X64835Y-53048D01*
X64893Y-53188D01*
X64986Y-53212D01*
X65283Y-52915D01*
X65283Y-53056D01*
X65057Y-53283D01*
X65081Y-53375D01*
X65278Y-53445D01*
X65487Y-53433D01*
X65627Y-53375D01*
X65651Y-53283D01*
X65651Y-55921D01*
X65616Y-55928D01*
X65503Y-56003D01*
X65503Y-56003D01*
X64955Y-56551D01*
X64852Y-56551D01*
X64841Y-56539D01*
X64684Y-56475D01*
X64515Y-56474D01*
X64359Y-56539D01*
X64239Y-56658D01*
X64175Y-56815D01*
X64174Y-56984D01*
X64239Y-57140D01*
X64358Y-57260D01*
X64515Y-57324D01*
X64684Y-57325D01*
X64840Y-57260D01*
X64852Y-57248D01*
X65100Y-57248D01*
X65162Y-57235D01*
X65139Y-57258D01*
X65075Y-57415D01*
X65074Y-57584D01*
X65139Y-57740D01*
X65258Y-57860D01*
X65415Y-57924D01*
X65584Y-57925D01*
X65740Y-57860D01*
X65752Y-57848D01*
X65789Y-58037D01*
X65910Y-58218D01*
X66066Y-58322D01*
X66060Y-58324D01*
X65889Y-58462D01*
X65784Y-58654D01*
X65777Y-58686D01*
X65825Y-58772D01*
X66410Y-58772D01*
X66410Y-58764D01*
X66510Y-58764D01*
X66510Y-58772D01*
X67095Y-58772D01*
X67143Y-58686D01*
X67137Y-58654D01*
X67031Y-58462D01*
X66861Y-58324D01*
X66854Y-58322D01*
X67010Y-58218D01*
X67131Y-58037D01*
X67174Y-57822D01*
X67174Y-63633D01*
X67148Y-63608D01*
X67148Y-63607D01*
X67143Y-63604D01*
X67143Y-58959D01*
X67095Y-58872D01*
X66510Y-58872D01*
X66510Y-59382D01*
X66650Y-59382D01*
X66861Y-59321D01*
X67031Y-59183D01*
X67137Y-58990D01*
X67143Y-58959D01*
X67143Y-63604D01*
X66995Y-63505D01*
X66878Y-63457D01*
X66877Y-63457D01*
X66697Y-63421D01*
X66697Y-63421D01*
X66570Y-63421D01*
X66410Y-63453D01*
X66410Y-59382D01*
X66410Y-58872D01*
X65825Y-58872D01*
X65777Y-58959D01*
X65784Y-58990D01*
X65889Y-59183D01*
X66060Y-59321D01*
X66270Y-59382D01*
X66410Y-59382D01*
X66410Y-63453D01*
X66389Y-63457D01*
X66389Y-63457D01*
X66272Y-63505D01*
X66118Y-63608D01*
X66029Y-63698D01*
X66028Y-63698D01*
X65926Y-63851D01*
X65878Y-63968D01*
X65878Y-63969D01*
X65842Y-64149D01*
X65842Y-64149D01*
X65842Y-64149D01*
X65842Y-64213D01*
X65842Y-64276D01*
X65842Y-64276D01*
X65842Y-64276D01*
X65878Y-64456D01*
X65878Y-64457D01*
X65926Y-64574D01*
X66028Y-64727D01*
X66029Y-64727D01*
X66118Y-64817D01*
X66272Y-64920D01*
X66389Y-64968D01*
X66389Y-64968D01*
X66570Y-65004D01*
X66697Y-65004D01*
X66697Y-65004D01*
X66877Y-64968D01*
X66878Y-64968D01*
X66995Y-64920D01*
X67148Y-64818D01*
X67148Y-64817D01*
X67238Y-64728D01*
X67341Y-64574D01*
X67389Y-64457D01*
X67389Y-64457D01*
X67425Y-64276D01*
X67425Y-64276D01*
X67425Y-64276D01*
X67425Y-67116D01*
X65225Y-67116D01*
X65225Y-65565D01*
X65160Y-65409D01*
X65041Y-65289D01*
X64884Y-65225D01*
X64715Y-65224D01*
X64559Y-65289D01*
X64547Y-65301D01*
X64174Y-65301D01*
X64174Y-58822D01*
X64131Y-58608D01*
X64010Y-58426D01*
X63854Y-58322D01*
X64010Y-58218D01*
X64131Y-58037D01*
X64174Y-57822D01*
X64160Y-57754D01*
X64160Y-56182D01*
X64160Y-55463D01*
X64122Y-55371D01*
X64052Y-55301D01*
X63960Y-55262D01*
X63861Y-55262D01*
X63573Y-55262D01*
X63510Y-55325D01*
X63510Y-55772D01*
X64098Y-55772D01*
X64160Y-55710D01*
X64160Y-55463D01*
X64160Y-56182D01*
X64160Y-55935D01*
X64098Y-55872D01*
X63510Y-55872D01*
X63510Y-56262D01*
X63510Y-56320D01*
X63510Y-56772D01*
X64095Y-56772D01*
X64143Y-56686D01*
X64137Y-56654D01*
X64031Y-56462D01*
X63933Y-56382D01*
X63960Y-56382D01*
X64052Y-56344D01*
X64122Y-56274D01*
X64160Y-56182D01*
X64160Y-57754D01*
X64131Y-57608D01*
X64010Y-57426D01*
X63854Y-57322D01*
X63861Y-57321D01*
X64031Y-57183D01*
X64137Y-56990D01*
X64143Y-56959D01*
X64095Y-56872D01*
X63510Y-56872D01*
X63510Y-56880D01*
X63410Y-56880D01*
X63410Y-56872D01*
X63410Y-56772D01*
X63410Y-56320D01*
X63410Y-56262D01*
X63410Y-55872D01*
X63410Y-55772D01*
X63410Y-55325D01*
X63348Y-55262D01*
X63060Y-55262D01*
X62960Y-55262D01*
X62868Y-55301D01*
X62798Y-55371D01*
X62760Y-55463D01*
X62760Y-55710D01*
X62823Y-55772D01*
X63410Y-55772D01*
X63410Y-55872D01*
X62823Y-55872D01*
X62760Y-55935D01*
X62760Y-56182D01*
X62798Y-56274D01*
X62868Y-56344D01*
X62960Y-56382D01*
X62987Y-56382D01*
X62889Y-56462D01*
X62784Y-56654D01*
X62777Y-56686D01*
X62825Y-56772D01*
X63410Y-56772D01*
X63410Y-56872D01*
X62825Y-56872D01*
X62777Y-56959D01*
X62784Y-56990D01*
X62889Y-57183D01*
X63060Y-57321D01*
X63066Y-57322D01*
X62910Y-57426D01*
X62789Y-57608D01*
X62746Y-57822D01*
X62748Y-57830D01*
X62734Y-57825D01*
X62655Y-57825D01*
X62655Y-53331D01*
X62644Y-53123D01*
X62586Y-52983D01*
X62493Y-52958D01*
X62196Y-53255D01*
X62493Y-53552D01*
X62586Y-53528D01*
X62655Y-53331D01*
X62655Y-57825D01*
X62565Y-57824D01*
X62423Y-57883D01*
X62423Y-53623D01*
X62125Y-53326D01*
X62055Y-53397D01*
X62055Y-53255D01*
X61758Y-52958D01*
X61665Y-52983D01*
X61596Y-53180D01*
X61607Y-53388D01*
X61665Y-53528D01*
X61758Y-53552D01*
X62055Y-53255D01*
X62055Y-53397D01*
X61828Y-53623D01*
X61853Y-53716D01*
X62050Y-53785D01*
X62258Y-53774D01*
X62398Y-53716D01*
X62423Y-53623D01*
X62423Y-57883D01*
X62409Y-57889D01*
X62289Y-58008D01*
X62225Y-58165D01*
X62224Y-58334D01*
X62289Y-58490D01*
X62408Y-58610D01*
X62565Y-58674D01*
X62582Y-58674D01*
X62751Y-58843D01*
X62789Y-59037D01*
X62910Y-59218D01*
X63092Y-59340D01*
X63306Y-59382D01*
X63614Y-59382D01*
X63828Y-59340D01*
X64010Y-59218D01*
X64131Y-59037D01*
X64174Y-58822D01*
X64174Y-65301D01*
X63375Y-65301D01*
X63375Y-63565D01*
X63310Y-63409D01*
X63191Y-63289D01*
X63034Y-63225D01*
X63017Y-63225D01*
X62096Y-62303D01*
X61983Y-62228D01*
X61850Y-62201D01*
X61800Y-62201D01*
X61926Y-62149D01*
X62080Y-61994D01*
X62164Y-61792D01*
X62165Y-61574D01*
X62081Y-61371D01*
X61926Y-61217D01*
X61724Y-61133D01*
X61506Y-61132D01*
X61303Y-61216D01*
X61166Y-61353D01*
X61040Y-61227D01*
X60917Y-61175D01*
X60917Y-59539D01*
X60917Y-56039D01*
X60879Y-55947D01*
X60808Y-55877D01*
X60716Y-55839D01*
X60617Y-55838D01*
X58867Y-55838D01*
X58867Y-51876D01*
X58867Y-51389D01*
X58859Y-51389D01*
X58859Y-51289D01*
X58867Y-51289D01*
X58867Y-50801D01*
X58804Y-50739D01*
X58616Y-50738D01*
X58517Y-50739D01*
X58425Y-50777D01*
X58354Y-50847D01*
X58331Y-50904D01*
X58257Y-50830D01*
X58036Y-50739D01*
X57798Y-50738D01*
X57577Y-50830D01*
X57408Y-50998D01*
X57317Y-51219D01*
X57316Y-51457D01*
X57408Y-51678D01*
X57576Y-51847D01*
X57797Y-51938D01*
X58035Y-51939D01*
X58256Y-51847D01*
X58331Y-51773D01*
X58354Y-51830D01*
X58425Y-51900D01*
X58517Y-51938D01*
X58616Y-51939D01*
X58804Y-51939D01*
X58867Y-51876D01*
X58867Y-55838D01*
X57275Y-55838D01*
X57275Y-52315D01*
X57210Y-52159D01*
X57091Y-52039D01*
X56934Y-51975D01*
X56765Y-51974D01*
X56609Y-52039D01*
X56597Y-52051D01*
X56300Y-52051D01*
X56166Y-52078D01*
X56053Y-52153D01*
X55958Y-52248D01*
X55951Y-52123D01*
X55893Y-51983D01*
X55800Y-51958D01*
X55730Y-52029D01*
X55730Y-51888D01*
X55705Y-51795D01*
X55508Y-51726D01*
X55300Y-51737D01*
X55174Y-51789D01*
X55174Y-49284D01*
X55167Y-48950D01*
X55052Y-48671D01*
X54926Y-48608D01*
X54856Y-48679D01*
X54856Y-48537D01*
X54793Y-48412D01*
X54481Y-48290D01*
X54147Y-48296D01*
X53868Y-48412D01*
X53805Y-48537D01*
X54330Y-49063D01*
X54856Y-48537D01*
X54856Y-48679D01*
X54401Y-49133D01*
X54926Y-49659D01*
X55052Y-49596D01*
X55174Y-49284D01*
X55174Y-51789D01*
X55160Y-51795D01*
X55135Y-51888D01*
X55433Y-52185D01*
X55730Y-51888D01*
X55730Y-52029D01*
X55503Y-52255D01*
X55509Y-52261D01*
X55438Y-52332D01*
X55433Y-52326D01*
X55362Y-52397D01*
X55362Y-52255D01*
X55065Y-51958D01*
X54972Y-51983D01*
X54903Y-52180D01*
X54914Y-52388D01*
X54972Y-52528D01*
X55065Y-52552D01*
X55362Y-52255D01*
X55362Y-52397D01*
X55135Y-52623D01*
X55160Y-52716D01*
X55270Y-52755D01*
X55136Y-52810D01*
X55044Y-52901D01*
X54856Y-52901D01*
X54856Y-49729D01*
X54330Y-49204D01*
X54259Y-49275D01*
X54259Y-49133D01*
X53734Y-48608D01*
X53609Y-48671D01*
X53487Y-48982D01*
X53493Y-49317D01*
X53609Y-49596D01*
X53734Y-49659D01*
X54259Y-49133D01*
X54259Y-49275D01*
X53805Y-49729D01*
X53868Y-49855D01*
X54179Y-49977D01*
X54513Y-49971D01*
X54793Y-49855D01*
X54856Y-49729D01*
X54856Y-52901D01*
X53202Y-52901D01*
X53202Y-48967D01*
X53075Y-48658D01*
X52838Y-48421D01*
X52530Y-48293D01*
X52195Y-48293D01*
X51886Y-48420D01*
X51650Y-48657D01*
X51521Y-48965D01*
X51521Y-49300D01*
X51649Y-49609D01*
X51885Y-49846D01*
X52194Y-49974D01*
X52528Y-49974D01*
X52837Y-49846D01*
X53074Y-49610D01*
X53202Y-49301D01*
X53202Y-48967D01*
X53202Y-52901D01*
X52892Y-52901D01*
X52892Y-52331D01*
X52880Y-52123D01*
X52822Y-51983D01*
X52729Y-51958D01*
X52659Y-52029D01*
X52659Y-51888D01*
X52635Y-51795D01*
X52438Y-51726D01*
X52229Y-51737D01*
X52089Y-51795D01*
X52065Y-51888D01*
X52362Y-52185D01*
X52659Y-51888D01*
X52659Y-52029D01*
X52432Y-52255D01*
X52729Y-52552D01*
X52822Y-52528D01*
X52892Y-52331D01*
X52892Y-52901D01*
X52750Y-52901D01*
X52659Y-52811D01*
X52533Y-52758D01*
X52635Y-52716D01*
X52659Y-52623D01*
X52362Y-52326D01*
X52291Y-52397D01*
X52291Y-52255D01*
X51994Y-51958D01*
X51901Y-51983D01*
X51832Y-52180D01*
X51843Y-52388D01*
X51901Y-52528D01*
X51994Y-52552D01*
X52291Y-52255D01*
X52291Y-52397D01*
X52065Y-52623D01*
X52089Y-52716D01*
X52199Y-52755D01*
X52065Y-52810D01*
X51917Y-52958D01*
X51837Y-53151D01*
X51837Y-53359D01*
X51916Y-53552D01*
X52064Y-53700D01*
X52257Y-53780D01*
X52466Y-53780D01*
X52659Y-53701D01*
X52762Y-53598D01*
X55033Y-53598D01*
X55135Y-53700D01*
X55328Y-53780D01*
X55537Y-53780D01*
X55730Y-53701D01*
X55877Y-53553D01*
X55957Y-53360D01*
X55958Y-53234D01*
X56444Y-52748D01*
X56597Y-52748D01*
X56608Y-52760D01*
X56765Y-52824D01*
X56934Y-52825D01*
X57090Y-52760D01*
X57210Y-52641D01*
X57274Y-52484D01*
X57275Y-52315D01*
X57275Y-55838D01*
X57117Y-55838D01*
X57025Y-55876D01*
X56955Y-55947D01*
X56917Y-56039D01*
X56916Y-56138D01*
X56916Y-59638D01*
X56954Y-59730D01*
X57025Y-59800D01*
X57117Y-59838D01*
X57216Y-59839D01*
X60716Y-59839D01*
X60808Y-59801D01*
X60878Y-59730D01*
X60916Y-59638D01*
X60917Y-59539D01*
X60917Y-61175D01*
X60838Y-61143D01*
X60620Y-61142D01*
X60417Y-61226D01*
X60263Y-61381D01*
X60179Y-61583D01*
X60178Y-61801D01*
X60262Y-62004D01*
X60417Y-62158D01*
X60519Y-62201D01*
X60252Y-62201D01*
X60241Y-62189D01*
X60084Y-62125D01*
X59915Y-62124D01*
X59759Y-62189D01*
X59639Y-62308D01*
X59575Y-62465D01*
X59574Y-62634D01*
X59639Y-62790D01*
X59758Y-62910D01*
X59915Y-62974D01*
X60084Y-62975D01*
X60240Y-62910D01*
X60252Y-62898D01*
X61705Y-62898D01*
X61997Y-63190D01*
X61957Y-63191D01*
X61717Y-63290D01*
X61666Y-63406D01*
X62126Y-63866D01*
X62131Y-63860D01*
X62202Y-63931D01*
X62196Y-63937D01*
X62656Y-64396D01*
X62772Y-64345D01*
X62876Y-64074D01*
X63034Y-64075D01*
X63190Y-64010D01*
X63310Y-63891D01*
X63374Y-63734D01*
X63375Y-63565D01*
X63375Y-65301D01*
X62500Y-65301D01*
X62444Y-65312D01*
X62445Y-65076D01*
X62292Y-64705D01*
X62269Y-64683D01*
X62294Y-64682D01*
X62534Y-64583D01*
X62585Y-64467D01*
X62126Y-64007D01*
X62120Y-64013D01*
X62049Y-63942D01*
X62055Y-63937D01*
X61595Y-63477D01*
X61479Y-63528D01*
X61372Y-63807D01*
X61380Y-64105D01*
X61447Y-64268D01*
X61237Y-64267D01*
X60866Y-64420D01*
X60846Y-64441D01*
X60846Y-64020D01*
X60808Y-63928D01*
X60737Y-63858D01*
X60645Y-63820D01*
X60546Y-63819D01*
X60399Y-63819D01*
X60451Y-63692D01*
X60452Y-63474D01*
X60368Y-63271D01*
X60213Y-63117D01*
X60011Y-63033D01*
X59793Y-63032D01*
X59590Y-63116D01*
X59508Y-63198D01*
X59426Y-63117D01*
X59224Y-63033D01*
X59006Y-63032D01*
X58803Y-63116D01*
X58720Y-63199D01*
X58638Y-63117D01*
X58436Y-63033D01*
X58218Y-63032D01*
X58015Y-63116D01*
X57975Y-63157D01*
X57975Y-62765D01*
X57910Y-62609D01*
X57791Y-62489D01*
X57696Y-62450D01*
X57696Y-61584D01*
X57612Y-61381D01*
X57457Y-61227D01*
X57255Y-61143D01*
X57037Y-61142D01*
X57000Y-61157D01*
X56796Y-60953D01*
X56683Y-60878D01*
X56576Y-60856D01*
X56576Y-60856D01*
X56533Y-60828D01*
X56400Y-60801D01*
X56175Y-60801D01*
X56175Y-58665D01*
X56110Y-58509D01*
X55991Y-58389D01*
X55834Y-58325D01*
X55817Y-58325D01*
X55446Y-57953D01*
X55333Y-57878D01*
X55200Y-57851D01*
X55184Y-57851D01*
X55205Y-57744D01*
X55163Y-57529D01*
X55041Y-57348D01*
X54886Y-57244D01*
X55041Y-57140D01*
X55163Y-56958D01*
X55205Y-56744D01*
X55200Y-56719D01*
X55215Y-56724D01*
X55384Y-56725D01*
X55540Y-56660D01*
X55660Y-56541D01*
X55724Y-56384D01*
X55725Y-56215D01*
X55660Y-56059D01*
X55541Y-55939D01*
X55384Y-55875D01*
X55367Y-55875D01*
X55198Y-55705D01*
X55163Y-55529D01*
X55041Y-55348D01*
X54860Y-55226D01*
X54645Y-55184D01*
X54338Y-55184D01*
X54124Y-55226D01*
X53942Y-55348D01*
X53821Y-55529D01*
X53778Y-55744D01*
X53799Y-55851D01*
X53666Y-55878D01*
X53553Y-55953D01*
X53205Y-56301D01*
X53102Y-56301D01*
X53091Y-56289D01*
X52934Y-56225D01*
X52765Y-56224D01*
X52609Y-56289D01*
X52489Y-56408D01*
X52425Y-56565D01*
X52424Y-56734D01*
X52489Y-56890D01*
X52608Y-57010D01*
X52765Y-57074D01*
X52934Y-57075D01*
X53090Y-57010D01*
X53102Y-56998D01*
X53350Y-56998D01*
X53483Y-56971D01*
X53483Y-56971D01*
X53596Y-56896D01*
X53785Y-56707D01*
X53778Y-56744D01*
X53821Y-56958D01*
X53942Y-57140D01*
X54098Y-57244D01*
X53942Y-57348D01*
X53821Y-57529D01*
X53778Y-57744D01*
X53821Y-57958D01*
X53942Y-58140D01*
X54097Y-58243D01*
X54091Y-58245D01*
X53920Y-58383D01*
X53815Y-58575D01*
X53809Y-58607D01*
X53857Y-58694D01*
X54442Y-58694D01*
X54442Y-58686D01*
X54542Y-58686D01*
X54542Y-58694D01*
X55127Y-58694D01*
X55153Y-58646D01*
X55324Y-58817D01*
X55324Y-58834D01*
X55389Y-58990D01*
X55508Y-59110D01*
X55665Y-59174D01*
X55834Y-59175D01*
X55990Y-59110D01*
X56110Y-58991D01*
X56174Y-58834D01*
X56175Y-58665D01*
X56175Y-60801D01*
X55175Y-60801D01*
X55175Y-58880D01*
X55127Y-58794D01*
X54542Y-58794D01*
X54542Y-59304D01*
X54682Y-59304D01*
X54892Y-59242D01*
X55063Y-59104D01*
X55168Y-58912D01*
X55175Y-58880D01*
X55175Y-60801D01*
X54652Y-60801D01*
X54641Y-60789D01*
X54580Y-60764D01*
X54590Y-60760D01*
X54710Y-60641D01*
X54774Y-60484D01*
X54775Y-60315D01*
X54710Y-60159D01*
X54591Y-60039D01*
X54442Y-59978D01*
X54442Y-59304D01*
X54442Y-58794D01*
X53857Y-58794D01*
X53809Y-58880D01*
X53815Y-58912D01*
X53920Y-59104D01*
X54091Y-59242D01*
X54302Y-59304D01*
X54442Y-59304D01*
X54442Y-59978D01*
X54434Y-59975D01*
X54417Y-59975D01*
X54075Y-59632D01*
X54075Y-59615D01*
X54010Y-59459D01*
X53891Y-59339D01*
X53734Y-59275D01*
X53565Y-59274D01*
X53409Y-59339D01*
X53289Y-59458D01*
X53225Y-59615D01*
X53224Y-59784D01*
X53289Y-59940D01*
X53408Y-60060D01*
X53565Y-60124D01*
X53582Y-60124D01*
X53924Y-60467D01*
X53924Y-60484D01*
X53989Y-60640D01*
X54108Y-60760D01*
X54169Y-60785D01*
X54159Y-60789D01*
X54039Y-60908D01*
X53975Y-61065D01*
X53974Y-61234D01*
X54039Y-61390D01*
X54158Y-61510D01*
X54315Y-61574D01*
X54484Y-61575D01*
X54640Y-61510D01*
X54652Y-61498D01*
X55726Y-61498D01*
X55691Y-61583D01*
X55690Y-61801D01*
X55774Y-62004D01*
X55929Y-62158D01*
X56131Y-62242D01*
X56349Y-62243D01*
X56552Y-62159D01*
X56693Y-62018D01*
X56834Y-62158D01*
X57036Y-62242D01*
X57254Y-62243D01*
X57457Y-62159D01*
X57611Y-62004D01*
X57695Y-61802D01*
X57696Y-61584D01*
X57696Y-62450D01*
X57634Y-62425D01*
X57465Y-62424D01*
X57309Y-62489D01*
X57297Y-62501D01*
X54498Y-62501D01*
X54434Y-62475D01*
X54265Y-62474D01*
X54109Y-62539D01*
X53989Y-62658D01*
X53925Y-62815D01*
X53924Y-62984D01*
X53989Y-63140D01*
X54108Y-63260D01*
X54265Y-63324D01*
X54434Y-63325D01*
X54590Y-63260D01*
X54652Y-63198D01*
X55542Y-63198D01*
X55320Y-63290D01*
X55269Y-63406D01*
X55729Y-63866D01*
X56188Y-63406D01*
X56137Y-63290D01*
X55897Y-63198D01*
X57132Y-63198D01*
X57108Y-63222D01*
X57154Y-63267D01*
X57058Y-63295D01*
X56985Y-63501D01*
X56996Y-63719D01*
X57058Y-63870D01*
X57154Y-63898D01*
X57469Y-63583D01*
X57463Y-63577D01*
X57534Y-63506D01*
X57540Y-63512D01*
X57855Y-63197D01*
X57843Y-63157D01*
X57910Y-63091D01*
X57974Y-62934D01*
X57975Y-62765D01*
X57975Y-63157D01*
X57861Y-63271D01*
X57817Y-63376D01*
X57610Y-63583D01*
X57616Y-63588D01*
X57545Y-63659D01*
X57540Y-63653D01*
X57469Y-63724D01*
X57224Y-63968D01*
X57252Y-64064D01*
X57437Y-64130D01*
X57384Y-64260D01*
X57383Y-64478D01*
X57467Y-64681D01*
X57622Y-64835D01*
X57762Y-64894D01*
X57445Y-65212D01*
X57445Y-65076D01*
X57292Y-64705D01*
X57008Y-64421D01*
X56638Y-64268D01*
X56405Y-64267D01*
X56482Y-64066D01*
X56474Y-63768D01*
X56375Y-63528D01*
X56259Y-63477D01*
X55799Y-63937D01*
X55805Y-63942D01*
X55734Y-64013D01*
X55729Y-64007D01*
X55658Y-64078D01*
X55658Y-63937D01*
X55198Y-63477D01*
X55082Y-63528D01*
X54975Y-63807D01*
X54983Y-64105D01*
X55082Y-64345D01*
X55198Y-64396D01*
X55658Y-63937D01*
X55658Y-64078D01*
X55269Y-64467D01*
X55320Y-64583D01*
X55597Y-64689D01*
X55582Y-64704D01*
X55429Y-65074D01*
X55428Y-65357D01*
X55400Y-65351D01*
X53302Y-65351D01*
X53291Y-65339D01*
X53134Y-65275D01*
X52965Y-65274D01*
X52809Y-65339D01*
X52689Y-65458D01*
X52625Y-65615D01*
X52624Y-65784D01*
X52689Y-65940D01*
X52808Y-66060D01*
X52965Y-66124D01*
X53134Y-66125D01*
X53290Y-66060D01*
X53302Y-66048D01*
X55255Y-66048D01*
X55553Y-66346D01*
X55553Y-66346D01*
X55666Y-66421D01*
X55702Y-66429D01*
X55766Y-66471D01*
X55766Y-66471D01*
X55802Y-66479D01*
X55802Y-66479D01*
X55802Y-66479D01*
X55866Y-66521D01*
X55866Y-66521D01*
X55902Y-66529D01*
X55902Y-66529D01*
X55902Y-66529D01*
X55966Y-66571D01*
X55966Y-66571D01*
X56100Y-66598D01*
X56231Y-66598D01*
X56231Y-66598D01*
X56266Y-66621D01*
X56266Y-66621D01*
X56400Y-66648D01*
X56850Y-66648D01*
X56983Y-66621D01*
X56983Y-66621D01*
X57096Y-66546D01*
X58722Y-64920D01*
X58829Y-64920D01*
X59032Y-64836D01*
X59114Y-64754D01*
X59196Y-64835D01*
X59398Y-64919D01*
X59616Y-64920D01*
X59811Y-64839D01*
X59854Y-64881D01*
X59946Y-64919D01*
X60045Y-64920D01*
X60493Y-64920D01*
X60429Y-65074D01*
X60429Y-65275D01*
X60315Y-65274D01*
X60159Y-65339D01*
X60039Y-65458D01*
X59975Y-65615D01*
X59974Y-65784D01*
X60039Y-65940D01*
X60158Y-66060D01*
X60315Y-66124D01*
X60332Y-66124D01*
X60753Y-66546D01*
X60866Y-66621D01*
X61000Y-66648D01*
X61500Y-66648D01*
X61633Y-66621D01*
X61633Y-66621D01*
X61668Y-66598D01*
X61668Y-66598D01*
X61750Y-66598D01*
X61883Y-66571D01*
X61883Y-66571D01*
X61926Y-66543D01*
X61926Y-66543D01*
X62033Y-66521D01*
X62033Y-66521D01*
X62097Y-66479D01*
X62097Y-66479D01*
X62097Y-66479D01*
X62133Y-66471D01*
X62133Y-66471D01*
X62246Y-66396D01*
X62644Y-65998D01*
X64547Y-65998D01*
X64558Y-66010D01*
X64715Y-66074D01*
X64884Y-66075D01*
X65040Y-66010D01*
X65160Y-65891D01*
X65224Y-65734D01*
X65225Y-65565D01*
X65225Y-67116D01*
X52205Y-67116D01*
X52205Y-58744D01*
X52163Y-58529D01*
X52041Y-58348D01*
X51886Y-58244D01*
X52041Y-58140D01*
X52163Y-57958D01*
X52205Y-57744D01*
X52192Y-57675D01*
X52192Y-56103D01*
X52192Y-55384D01*
X52154Y-55292D01*
X52083Y-55222D01*
X51992Y-55184D01*
X51892Y-55184D01*
X51604Y-55184D01*
X51542Y-55246D01*
X51542Y-55694D01*
X52129Y-55694D01*
X52192Y-55631D01*
X52192Y-55384D01*
X52192Y-56103D01*
X52192Y-55856D01*
X52129Y-55794D01*
X51542Y-55794D01*
X51542Y-56184D01*
X51542Y-56241D01*
X51542Y-56694D01*
X52127Y-56694D01*
X52175Y-56607D01*
X52168Y-56575D01*
X52063Y-56383D01*
X51964Y-56304D01*
X51992Y-56304D01*
X52083Y-56265D01*
X52154Y-56195D01*
X52192Y-56103D01*
X52192Y-57675D01*
X52163Y-57529D01*
X52041Y-57348D01*
X51886Y-57244D01*
X51892Y-57242D01*
X52063Y-57104D01*
X52168Y-56912D01*
X52175Y-56880D01*
X52127Y-56794D01*
X51542Y-56794D01*
X51542Y-56801D01*
X51442Y-56801D01*
X51442Y-56794D01*
X51442Y-56694D01*
X51442Y-56241D01*
X51442Y-56184D01*
X51442Y-55794D01*
X51442Y-55694D01*
X51442Y-55246D01*
X51379Y-55184D01*
X51091Y-55184D01*
X50992Y-55184D01*
X50900Y-55222D01*
X50830Y-55292D01*
X50792Y-55384D01*
X50792Y-55631D01*
X50854Y-55694D01*
X51442Y-55694D01*
X51442Y-55794D01*
X50854Y-55794D01*
X50792Y-55856D01*
X50792Y-56103D01*
X50830Y-56195D01*
X50900Y-56265D01*
X50992Y-56304D01*
X51019Y-56304D01*
X50920Y-56383D01*
X50815Y-56575D01*
X50809Y-56607D01*
X50857Y-56694D01*
X51442Y-56694D01*
X51442Y-56794D01*
X50857Y-56794D01*
X50809Y-56880D01*
X50815Y-56912D01*
X50920Y-57104D01*
X51091Y-57242D01*
X51097Y-57244D01*
X50942Y-57348D01*
X50821Y-57529D01*
X50778Y-57744D01*
X50821Y-57958D01*
X50942Y-58140D01*
X51098Y-58244D01*
X50942Y-58348D01*
X50821Y-58529D01*
X50778Y-58744D01*
X50821Y-58958D01*
X50942Y-59140D01*
X51124Y-59261D01*
X51338Y-59304D01*
X51645Y-59304D01*
X51860Y-59261D01*
X52041Y-59140D01*
X52163Y-58958D01*
X52205Y-58744D01*
X52205Y-67116D01*
X51991Y-67116D01*
X51991Y-64276D01*
X51991Y-64213D01*
X51991Y-64149D01*
X51991Y-64149D01*
X51991Y-64149D01*
X51991Y-64149D01*
X51955Y-63969D01*
X51955Y-63968D01*
X51907Y-63851D01*
X51804Y-63698D01*
X51715Y-63608D01*
X51714Y-63608D01*
X51562Y-63506D01*
X51561Y-63506D01*
X51444Y-63457D01*
X51264Y-63422D01*
X51137Y-63422D01*
X51136Y-63422D01*
X50957Y-63458D01*
X50956Y-63458D01*
X50839Y-63506D01*
X50686Y-63609D01*
X50596Y-63698D01*
X50596Y-63699D01*
X50494Y-63851D01*
X50494Y-63852D01*
X50445Y-63969D01*
X50410Y-64149D01*
X50410Y-64213D01*
X50410Y-64276D01*
X50445Y-64456D01*
X50494Y-64573D01*
X50494Y-64574D01*
X50596Y-64726D01*
X50596Y-64727D01*
X50686Y-64816D01*
X50839Y-64919D01*
X50956Y-64967D01*
X50957Y-64967D01*
X51136Y-65003D01*
X51137Y-65003D01*
X51264Y-65003D01*
X51444Y-64968D01*
X51561Y-64919D01*
X51562Y-64919D01*
X51714Y-64817D01*
X51715Y-64817D01*
X51804Y-64727D01*
X51907Y-64574D01*
X51955Y-64457D01*
X51955Y-64456D01*
X51991Y-64276D01*
X51991Y-64276D01*
X51991Y-64276D01*
X51991Y-64276D01*
X51991Y-67116D01*
X50167Y-67116D01*
X50167Y-48159D01*
X67588Y-48159D01*
X67588Y-67116D01*
M02*
