G04 (created by PCBNEW (2013-07-07 BZR 4022)-stable) date 2014-10-22 23:03:19*
%MOIN*%
G04 Gerber Fmt 3.4, Leading zero omitted, Abs format*
%FSLAX34Y34*%
G01*
G70*
G90*
G04 APERTURE LIST*
%ADD10C,0.00393701*%
%ADD11C,0.11811*%
%ADD12C,0.055*%
%ADD13R,0.09X0.062*%
%ADD14O,0.09X0.062*%
%ADD15R,0.35X0.35*%
%ADD16C,0.07*%
%ADD17R,0.07X0.07*%
%ADD18C,0.1516*%
%ADD19C,0.06*%
%ADD20C,0.1*%
%ADD21R,0.06X0.06*%
%ADD22R,0.06X0.08*%
%ADD23R,0.055X0.055*%
%ADD24C,0.035*%
%ADD25C,0.0197*%
G04 APERTURE END LIST*
G54D10*
G54D11*
X52362Y-49133D03*
X56299Y-49133D03*
X54330Y-49133D03*
X61653Y-49133D03*
X65590Y-49133D03*
X63622Y-49133D03*
G54D12*
X52362Y-52255D03*
X52362Y-53255D03*
X62125Y-53255D03*
X62125Y-52255D03*
G54D13*
X63460Y-55822D03*
G54D14*
X63460Y-56822D03*
X63460Y-57822D03*
X63460Y-58822D03*
X66460Y-58822D03*
X66460Y-57822D03*
X66460Y-56822D03*
X66460Y-55822D03*
G54D13*
X51492Y-55744D03*
G54D14*
X51492Y-56744D03*
X51492Y-57744D03*
X51492Y-58744D03*
X54492Y-58744D03*
X54492Y-57744D03*
X54492Y-56744D03*
X54492Y-55744D03*
G54D15*
X58917Y-57839D03*
G54D16*
X59917Y-51339D03*
G54D17*
X58917Y-51339D03*
G54D16*
X57917Y-51339D03*
G54D18*
X61437Y-65276D03*
X56437Y-65276D03*
G54D19*
X57540Y-63583D03*
X57934Y-64370D03*
X58327Y-63583D03*
X58721Y-64370D03*
X59115Y-63583D03*
X59508Y-64370D03*
X59902Y-63583D03*
G54D20*
X62126Y-63937D03*
X55729Y-63937D03*
G54D19*
X57146Y-61693D03*
X60729Y-61693D03*
X56241Y-61693D03*
X61615Y-61683D03*
G54D21*
X60296Y-64370D03*
G54D22*
X53720Y-61653D03*
X52420Y-61653D03*
X64310Y-66456D03*
X65610Y-66456D03*
X52342Y-66456D03*
X53642Y-66456D03*
G54D23*
X65354Y-51415D03*
G54D12*
X65354Y-52915D03*
X55433Y-53255D03*
X55433Y-52255D03*
G54D24*
X55300Y-56300D03*
X64600Y-56900D03*
X52850Y-56650D03*
X56850Y-52400D03*
X53250Y-62500D03*
X62650Y-58250D03*
X65500Y-57500D03*
X62950Y-63650D03*
X60000Y-62550D03*
X60400Y-65700D03*
X64800Y-65650D03*
X55750Y-58750D03*
X53050Y-65700D03*
X54350Y-62900D03*
X57550Y-62850D03*
X54350Y-60400D03*
X53650Y-59700D03*
X54400Y-61150D03*
G54D25*
X56241Y-61693D02*
X56250Y-61700D01*
X56250Y-61700D02*
X55300Y-60750D01*
X55300Y-60750D02*
X55300Y-56300D01*
X64600Y-56900D02*
X64150Y-57350D01*
X64150Y-57350D02*
X63900Y-57350D01*
X63900Y-57350D02*
X63450Y-57800D01*
X63450Y-57800D02*
X63460Y-57822D01*
X52850Y-56650D02*
X52200Y-57300D01*
X52200Y-57300D02*
X51950Y-57300D01*
X51950Y-57300D02*
X51500Y-57750D01*
X51500Y-57750D02*
X51492Y-57744D01*
X56850Y-52400D02*
X57900Y-51350D01*
X57900Y-51350D02*
X57917Y-51339D01*
X65590Y-49133D02*
X65600Y-49150D01*
X65600Y-49150D02*
X66450Y-50000D01*
X66450Y-50000D02*
X66450Y-55800D01*
X66450Y-55800D02*
X66460Y-55822D01*
X57917Y-51339D02*
X57900Y-51350D01*
X57900Y-51350D02*
X56300Y-49750D01*
X56300Y-49750D02*
X56300Y-49150D01*
X56300Y-49150D02*
X56299Y-49133D01*
X54492Y-55744D02*
X54500Y-55750D01*
X54500Y-55750D02*
X55450Y-54800D01*
X55450Y-54800D02*
X55450Y-53250D01*
X55450Y-53250D02*
X55433Y-53255D01*
X52420Y-61653D02*
X52400Y-61650D01*
X52400Y-61650D02*
X53250Y-62500D01*
X52420Y-61653D02*
X52400Y-61650D01*
X52400Y-61650D02*
X54500Y-59550D01*
X54500Y-59550D02*
X54500Y-58750D01*
X54500Y-58750D02*
X54492Y-58744D01*
X65354Y-52915D02*
X65350Y-52900D01*
X65350Y-52900D02*
X63600Y-51150D01*
X63600Y-51150D02*
X63600Y-49150D01*
X63600Y-49150D02*
X63622Y-49133D01*
X62125Y-53255D02*
X62150Y-53250D01*
X62150Y-53250D02*
X63450Y-54550D01*
X63450Y-54550D02*
X63450Y-55800D01*
X63450Y-55800D02*
X63460Y-55822D01*
X55433Y-52255D02*
X55450Y-52250D01*
X55450Y-52250D02*
X54350Y-51150D01*
X54350Y-51150D02*
X54350Y-49150D01*
X54350Y-49150D02*
X54330Y-49133D01*
X51492Y-55744D02*
X51500Y-55750D01*
X51500Y-55750D02*
X51850Y-55400D01*
X51850Y-55400D02*
X51850Y-53050D01*
X51850Y-53050D02*
X51900Y-53000D01*
X51900Y-53000D02*
X51900Y-52950D01*
X51900Y-52950D02*
X52350Y-52500D01*
X52350Y-52500D02*
X52350Y-52250D01*
X52350Y-52250D02*
X52362Y-52255D01*
X51492Y-56744D02*
X51500Y-56750D01*
X51500Y-56750D02*
X51500Y-55750D01*
X51500Y-55750D02*
X51492Y-55744D01*
X63460Y-55822D02*
X63450Y-55800D01*
X63450Y-55800D02*
X63450Y-56800D01*
X63450Y-56800D02*
X63460Y-56822D01*
X61653Y-49133D02*
X61650Y-49150D01*
X61650Y-49150D02*
X61600Y-49200D01*
X61600Y-49200D02*
X61600Y-53400D01*
X61600Y-53400D02*
X61650Y-53450D01*
X61650Y-53450D02*
X61650Y-53550D01*
X61650Y-53550D02*
X62650Y-54550D01*
X62650Y-54550D02*
X62650Y-58250D01*
X65500Y-57500D02*
X64300Y-58700D01*
X64300Y-58700D02*
X64300Y-66450D01*
X64300Y-66450D02*
X64310Y-66456D01*
X64310Y-66456D02*
X64300Y-66450D01*
X64300Y-66450D02*
X62950Y-65100D01*
X62950Y-65100D02*
X62950Y-63650D01*
X60000Y-62550D02*
X59100Y-63450D01*
X59100Y-63450D02*
X59100Y-63600D01*
X59100Y-63600D02*
X59115Y-63583D01*
X65610Y-66456D02*
X65610Y-65472D01*
X64783Y-62133D02*
X65750Y-61167D01*
X64783Y-64645D02*
X64783Y-62133D01*
X65610Y-65472D02*
X64783Y-64645D01*
X59508Y-64370D02*
X59500Y-64350D01*
X59500Y-64350D02*
X59750Y-64600D01*
X59750Y-64600D02*
X59750Y-64900D01*
X59750Y-64900D02*
X60400Y-65550D01*
X60400Y-65550D02*
X60400Y-65700D01*
X64800Y-65650D02*
X65600Y-66450D01*
X65600Y-66450D02*
X65610Y-66456D01*
X65610Y-66456D02*
X65600Y-66450D01*
X65750Y-61167D02*
X65750Y-58250D01*
X66450Y-57800D02*
X66460Y-57822D01*
X66000Y-58250D02*
X66450Y-57800D01*
X65750Y-58250D02*
X66000Y-58250D01*
X55750Y-58750D02*
X57700Y-60700D01*
X57700Y-60700D02*
X57700Y-61850D01*
X57700Y-61850D02*
X57650Y-61900D01*
X57650Y-61900D02*
X57650Y-61950D01*
X57650Y-61950D02*
X57600Y-62000D01*
X57600Y-62000D02*
X57600Y-62050D01*
X57600Y-62050D02*
X57000Y-62650D01*
X57000Y-62650D02*
X57000Y-63750D01*
X57000Y-63750D02*
X57050Y-63800D01*
X57050Y-63800D02*
X57050Y-63900D01*
X57050Y-63900D02*
X57400Y-64250D01*
X57400Y-64250D02*
X57400Y-64600D01*
X57400Y-64600D02*
X57450Y-64650D01*
X57450Y-64650D02*
X57450Y-64700D01*
X57450Y-64700D02*
X57600Y-64850D01*
X57600Y-64850D02*
X57650Y-64850D01*
X57650Y-64850D02*
X57700Y-64900D01*
X57700Y-64900D02*
X58200Y-64900D01*
X58200Y-64900D02*
X58700Y-64400D01*
X58700Y-64400D02*
X58700Y-64350D01*
X58700Y-64350D02*
X58721Y-64370D01*
X53050Y-65700D02*
X52350Y-66400D01*
X52350Y-66400D02*
X52350Y-66450D01*
X52350Y-66450D02*
X52342Y-66456D01*
X59917Y-51339D02*
X59900Y-51350D01*
X59900Y-51350D02*
X60900Y-52350D01*
X60900Y-52350D02*
X60900Y-59850D01*
X60900Y-59850D02*
X60200Y-60550D01*
X60200Y-60550D02*
X60200Y-61900D01*
X60200Y-61900D02*
X60250Y-61950D01*
X60250Y-61950D02*
X60250Y-62000D01*
X60250Y-62000D02*
X60450Y-62200D01*
X60450Y-62200D02*
X60450Y-63750D01*
X60450Y-63750D02*
X60400Y-63800D01*
X60400Y-63800D02*
X60400Y-63850D01*
X60400Y-63850D02*
X60350Y-63900D01*
X60350Y-63900D02*
X60350Y-63950D01*
X60350Y-63950D02*
X60300Y-64000D01*
X60300Y-64000D02*
X60300Y-64350D01*
X60300Y-64350D02*
X60296Y-64370D01*
X53642Y-66456D02*
X53650Y-66450D01*
X53650Y-66450D02*
X53850Y-66250D01*
X53850Y-66250D02*
X53850Y-65750D01*
X53850Y-65750D02*
X54350Y-65250D01*
X54350Y-65250D02*
X54350Y-62900D01*
X57550Y-62850D02*
X57600Y-62850D01*
X57600Y-62850D02*
X58350Y-63600D01*
X58350Y-63600D02*
X58327Y-63583D01*
X53642Y-66456D02*
X53650Y-66450D01*
X53650Y-66450D02*
X54800Y-65300D01*
X54800Y-65300D02*
X54800Y-60950D01*
X54800Y-60950D02*
X54750Y-60900D01*
X54750Y-60900D02*
X54750Y-60850D01*
X54750Y-60850D02*
X54350Y-60450D01*
X54350Y-60450D02*
X54350Y-60400D01*
X53650Y-59700D02*
X53800Y-59550D01*
X53800Y-59550D02*
X53800Y-57200D01*
X53800Y-57200D02*
X54050Y-57200D01*
X54050Y-57200D02*
X54500Y-56750D01*
X54500Y-56750D02*
X54492Y-56744D01*
X53720Y-61653D02*
X53700Y-61650D01*
X53700Y-61650D02*
X53900Y-61650D01*
X53900Y-61650D02*
X54400Y-61150D01*
X52362Y-49133D02*
X52350Y-49150D01*
X52350Y-49150D02*
X50800Y-50700D01*
X50800Y-50700D02*
X50800Y-58300D01*
X50800Y-58300D02*
X51050Y-58300D01*
X51050Y-58300D02*
X51500Y-58750D01*
X51500Y-58750D02*
X51492Y-58744D01*
M02*
