G04 (created by PCBNEW (2013-07-07 BZR 4022)-stable) date 2013-08-19 14:48:15*
%MOIN*%
G04 Gerber Fmt 3.4, Leading zero omitted, Abs format*
%FSLAX34Y34*%
G01*
G70*
G90*
G04 APERTURE LIST*
%ADD10C,0.00393701*%
%ADD11C,0.012*%
%ADD12C,0.0001*%
%ADD13R,0.055X0.055*%
%ADD14C,0.055*%
%ADD15O,0.1181X0.1575*%
%ADD16C,0.15*%
%ADD17R,0.06X0.06*%
%ADD18C,0.06*%
%ADD19R,0.09X0.062*%
%ADD20O,0.09X0.062*%
%ADD21C,0.07*%
%ADD22R,0.35X0.35*%
%ADD23R,0.07X0.07*%
%ADD24C,0.0984*%
%ADD25C,0.1516*%
%ADD26C,0.1*%
%ADD27C,0.08*%
%ADD28R,0.06X0.08*%
%ADD29C,0.035*%
%ADD30C,0.0236*%
%ADD31C,0.0157*%
G04 APERTURE END LIST*
G54D10*
G54D11*
X67362Y-56209D02*
X67076Y-56209D01*
X67076Y-55409D01*
X67790Y-56171D02*
X67733Y-56209D01*
X67619Y-56209D01*
X67562Y-56171D01*
X67533Y-56095D01*
X67533Y-55790D01*
X67562Y-55714D01*
X67619Y-55676D01*
X67733Y-55676D01*
X67790Y-55714D01*
X67819Y-55790D01*
X67819Y-55866D01*
X67533Y-55943D01*
X67990Y-55409D02*
X68190Y-56209D01*
X68390Y-55409D01*
X68533Y-55676D02*
X68676Y-56209D01*
X68819Y-55676D02*
X68676Y-56209D01*
X68619Y-56400D01*
X68590Y-56438D01*
X68533Y-56476D01*
X69476Y-55486D02*
X69505Y-55447D01*
X69562Y-55409D01*
X69705Y-55409D01*
X69762Y-55447D01*
X69790Y-55486D01*
X69819Y-55562D01*
X69819Y-55638D01*
X69790Y-55752D01*
X69448Y-56209D01*
X69819Y-56209D01*
X70191Y-55409D02*
X70248Y-55409D01*
X70305Y-55447D01*
X70333Y-55486D01*
X70362Y-55562D01*
X70391Y-55714D01*
X70391Y-55905D01*
X70362Y-56057D01*
X70333Y-56133D01*
X70305Y-56171D01*
X70248Y-56209D01*
X70191Y-56209D01*
X70133Y-56171D01*
X70105Y-56133D01*
X70076Y-56057D01*
X70048Y-55905D01*
X70048Y-55714D01*
X70076Y-55562D01*
X70105Y-55486D01*
X70133Y-55447D01*
X70191Y-55409D01*
X70962Y-56209D02*
X70619Y-56209D01*
X70791Y-56209D02*
X70791Y-55409D01*
X70733Y-55524D01*
X70676Y-55600D01*
X70619Y-55638D01*
X71162Y-55409D02*
X71533Y-55409D01*
X71333Y-55714D01*
X71419Y-55714D01*
X71476Y-55752D01*
X71505Y-55790D01*
X71533Y-55866D01*
X71533Y-56057D01*
X71505Y-56133D01*
X71476Y-56171D01*
X71419Y-56209D01*
X71248Y-56209D01*
X71191Y-56171D01*
X71162Y-56133D01*
G54D12*
G36*
X53617Y-28457D02*
X53605Y-28562D01*
X53537Y-29016D01*
X53434Y-29459D01*
X53297Y-29888D01*
X53126Y-30303D01*
X52922Y-30705D01*
X52685Y-31091D01*
X52415Y-31462D01*
X52410Y-31468D01*
X52332Y-31561D01*
X52235Y-31670D01*
X52123Y-31790D01*
X52004Y-31913D01*
X51885Y-32033D01*
X51771Y-32143D01*
X51670Y-32235D01*
X51620Y-32278D01*
X51258Y-32557D01*
X50878Y-32803D01*
X50482Y-33018D01*
X50071Y-33200D01*
X49647Y-33348D01*
X49211Y-33463D01*
X48765Y-33542D01*
X48642Y-33558D01*
X48535Y-33567D01*
X48401Y-33574D01*
X48248Y-33579D01*
X48084Y-33582D01*
X47918Y-33582D01*
X47759Y-33581D01*
X47615Y-33576D01*
X47493Y-33570D01*
X47440Y-33565D01*
X47171Y-33529D01*
X46889Y-33476D01*
X46606Y-33411D01*
X46331Y-33333D01*
X46076Y-33248D01*
X45932Y-33193D01*
X45510Y-32999D01*
X45111Y-32777D01*
X44733Y-32527D01*
X44379Y-32250D01*
X44049Y-31946D01*
X43744Y-31618D01*
X43466Y-31265D01*
X43215Y-30889D01*
X42993Y-30490D01*
X42962Y-30428D01*
X42797Y-30060D01*
X42661Y-29680D01*
X42551Y-29286D01*
X42468Y-28871D01*
X42421Y-28544D01*
X42411Y-28457D01*
X42529Y-28457D01*
X42589Y-28459D01*
X42632Y-28464D01*
X42647Y-28471D01*
X42650Y-28509D01*
X42659Y-28576D01*
X42673Y-28664D01*
X42689Y-28764D01*
X42707Y-28872D01*
X42726Y-28977D01*
X42744Y-29073D01*
X42760Y-29153D01*
X42765Y-29172D01*
X42857Y-29519D01*
X42977Y-29869D01*
X43122Y-30213D01*
X43287Y-30545D01*
X43469Y-30855D01*
X43559Y-30989D01*
X43687Y-31169D01*
X43807Y-31326D01*
X43925Y-31470D01*
X44049Y-31608D01*
X44188Y-31752D01*
X44224Y-31788D01*
X44540Y-32080D01*
X44870Y-32339D01*
X45218Y-32569D01*
X45558Y-32759D01*
X45907Y-32923D01*
X46248Y-33059D01*
X46590Y-33167D01*
X46941Y-33250D01*
X47307Y-33309D01*
X47696Y-33347D01*
X47717Y-33348D01*
X48130Y-33357D01*
X48546Y-33332D01*
X48962Y-33273D01*
X49375Y-33181D01*
X49781Y-33056D01*
X50177Y-32900D01*
X50559Y-32714D01*
X50923Y-32499D01*
X50941Y-32488D01*
X51290Y-32239D01*
X51622Y-31960D01*
X51933Y-31655D01*
X52219Y-31329D01*
X52450Y-31021D01*
X52678Y-30660D01*
X52878Y-30279D01*
X53047Y-29882D01*
X53185Y-29471D01*
X53289Y-29049D01*
X53344Y-28736D01*
X53384Y-28457D01*
X53500Y-28457D01*
X53617Y-28457D01*
X53617Y-28457D01*
X53617Y-28457D01*
G37*
G36*
X47974Y-31678D02*
X47964Y-31806D01*
X47957Y-31891D01*
X47949Y-31946D01*
X47936Y-31978D01*
X47916Y-31993D01*
X47884Y-31997D01*
X47865Y-31998D01*
X47819Y-31995D01*
X47795Y-31990D01*
X47793Y-31988D01*
X47805Y-31970D01*
X47835Y-31937D01*
X47855Y-31915D01*
X47900Y-31857D01*
X47938Y-31788D01*
X47946Y-31765D01*
X47974Y-31678D01*
X47974Y-31678D01*
X47974Y-31678D01*
G37*
G36*
X48214Y-31986D02*
X48184Y-31995D01*
X48137Y-31998D01*
X48067Y-31998D01*
X48068Y-31856D01*
X48071Y-31715D01*
X48097Y-31800D01*
X48126Y-31868D01*
X48168Y-31923D01*
X48176Y-31931D01*
X48211Y-31965D01*
X48214Y-31986D01*
X48214Y-31986D01*
X48214Y-31986D01*
G37*
G36*
X47775Y-31515D02*
X47764Y-31538D01*
X47736Y-31581D01*
X47698Y-31634D01*
X47655Y-31689D01*
X47615Y-31737D01*
X47584Y-31770D01*
X47574Y-31779D01*
X47513Y-31794D01*
X47433Y-31790D01*
X47344Y-31768D01*
X47341Y-31767D01*
X47295Y-31747D01*
X47268Y-31732D01*
X47264Y-31727D01*
X47278Y-31711D01*
X47315Y-31686D01*
X47339Y-31672D01*
X47399Y-31634D01*
X47467Y-31588D01*
X47496Y-31567D01*
X47552Y-31529D01*
X47601Y-31510D01*
X47662Y-31505D01*
X47676Y-31505D01*
X47730Y-31507D01*
X47766Y-31511D01*
X47775Y-31515D01*
X47775Y-31515D01*
X47775Y-31515D01*
G37*
G36*
X48774Y-31733D02*
X48767Y-31745D01*
X48733Y-31761D01*
X48654Y-31784D01*
X48575Y-31792D01*
X48508Y-31785D01*
X48474Y-31770D01*
X48447Y-31745D01*
X48408Y-31702D01*
X48364Y-31650D01*
X48322Y-31597D01*
X48288Y-31551D01*
X48269Y-31521D01*
X48268Y-31515D01*
X48284Y-31508D01*
X48324Y-31504D01*
X48378Y-31506D01*
X48432Y-31511D01*
X48477Y-31520D01*
X48492Y-31526D01*
X48527Y-31548D01*
X48579Y-31585D01*
X48626Y-31622D01*
X48680Y-31664D01*
X48727Y-31699D01*
X48753Y-31717D01*
X48774Y-31733D01*
X48774Y-31733D01*
X48774Y-31733D01*
G37*
G36*
X47474Y-31375D02*
X47422Y-31376D01*
X47380Y-31386D01*
X47321Y-31411D01*
X47259Y-31445D01*
X47194Y-31483D01*
X47141Y-31504D01*
X47082Y-31514D01*
X47019Y-31517D01*
X46948Y-31517D01*
X46888Y-31515D01*
X46850Y-31511D01*
X46814Y-31500D01*
X46757Y-31480D01*
X46688Y-31454D01*
X46677Y-31450D01*
X46543Y-31398D01*
X46745Y-31396D01*
X46847Y-31394D01*
X46924Y-31388D01*
X46991Y-31376D01*
X47059Y-31356D01*
X47081Y-31349D01*
X47182Y-31320D01*
X47270Y-31315D01*
X47361Y-31332D01*
X47428Y-31357D01*
X47474Y-31375D01*
X47474Y-31375D01*
X47474Y-31375D01*
G37*
G36*
X49481Y-31421D02*
X49344Y-31464D01*
X49249Y-31490D01*
X49147Y-31508D01*
X49048Y-31517D01*
X48963Y-31516D01*
X48906Y-31507D01*
X48866Y-31489D01*
X48809Y-31458D01*
X48770Y-31434D01*
X48713Y-31402D01*
X48660Y-31382D01*
X48633Y-31376D01*
X48603Y-31375D01*
X48604Y-31369D01*
X48636Y-31354D01*
X48642Y-31352D01*
X48736Y-31321D01*
X48828Y-31314D01*
X48929Y-31333D01*
X48983Y-31350D01*
X49125Y-31388D01*
X49290Y-31408D01*
X49299Y-31409D01*
X49481Y-31421D01*
X49481Y-31421D01*
X49481Y-31421D01*
G37*
G36*
X51220Y-29835D02*
X50930Y-30365D01*
X50642Y-30893D01*
X50530Y-30894D01*
X50530Y-29928D01*
X50513Y-29925D01*
X50462Y-29923D01*
X50385Y-29921D01*
X50282Y-29919D01*
X50160Y-29918D01*
X50021Y-29917D01*
X49883Y-29917D01*
X49733Y-29917D01*
X49595Y-29916D01*
X49474Y-29915D01*
X49374Y-29913D01*
X49297Y-29912D01*
X49250Y-29910D01*
X49234Y-29908D01*
X49243Y-29888D01*
X49266Y-29849D01*
X49277Y-29830D01*
X49309Y-29777D01*
X49337Y-29731D01*
X49342Y-29721D01*
X49364Y-29680D01*
X48253Y-29680D01*
X47143Y-29680D01*
X47080Y-29794D01*
X47017Y-29908D01*
X46289Y-29917D01*
X45562Y-29927D01*
X45509Y-30027D01*
X45483Y-30074D01*
X45445Y-30148D01*
X45395Y-30239D01*
X45341Y-30341D01*
X45284Y-30447D01*
X45283Y-30448D01*
X45230Y-30547D01*
X45184Y-30634D01*
X45147Y-30706D01*
X45122Y-30756D01*
X45111Y-30780D01*
X45111Y-30781D01*
X45128Y-30784D01*
X45178Y-30787D01*
X45257Y-30789D01*
X45360Y-30790D01*
X45483Y-30792D01*
X45624Y-30793D01*
X45777Y-30793D01*
X45795Y-30793D01*
X45949Y-30793D01*
X46091Y-30794D01*
X46216Y-30796D01*
X46322Y-30798D01*
X46404Y-30800D01*
X46457Y-30804D01*
X46479Y-30806D01*
X46479Y-30807D01*
X46470Y-30829D01*
X46447Y-30870D01*
X46434Y-30893D01*
X46407Y-30939D01*
X46391Y-30972D01*
X46388Y-30980D01*
X46406Y-30983D01*
X46457Y-30985D01*
X46538Y-30987D01*
X46647Y-30989D01*
X46779Y-30991D01*
X46932Y-30992D01*
X47102Y-30993D01*
X47287Y-30994D01*
X47484Y-30994D01*
X47490Y-30994D01*
X48593Y-30994D01*
X48651Y-30893D01*
X48708Y-30793D01*
X49388Y-30793D01*
X50067Y-30793D01*
X50229Y-30496D01*
X50310Y-30345D01*
X50376Y-30224D01*
X50428Y-30127D01*
X50467Y-30055D01*
X50496Y-30001D01*
X50514Y-29965D01*
X50525Y-29942D01*
X50530Y-29930D01*
X50530Y-29928D01*
X50530Y-30894D01*
X49789Y-30903D01*
X48936Y-30912D01*
X48862Y-31035D01*
X48788Y-31158D01*
X47414Y-31158D01*
X47194Y-31158D01*
X46985Y-31158D01*
X46789Y-31157D01*
X46610Y-31156D01*
X46451Y-31155D01*
X46313Y-31154D01*
X46201Y-31153D01*
X46116Y-31152D01*
X46062Y-31150D01*
X46041Y-31148D01*
X46049Y-31128D01*
X46069Y-31086D01*
X46096Y-31030D01*
X46124Y-30974D01*
X46144Y-30931D01*
X46151Y-30912D01*
X46133Y-30910D01*
X46082Y-30909D01*
X46002Y-30907D01*
X45897Y-30905D01*
X45768Y-30904D01*
X45621Y-30903D01*
X45459Y-30903D01*
X45285Y-30903D01*
X45283Y-30903D01*
X44416Y-30903D01*
X44510Y-30725D01*
X44549Y-30651D01*
X44583Y-30588D01*
X44607Y-30545D01*
X44617Y-30529D01*
X44630Y-30506D01*
X44657Y-30458D01*
X44693Y-30391D01*
X44735Y-30311D01*
X44745Y-30291D01*
X44796Y-30196D01*
X44848Y-30100D01*
X44895Y-30014D01*
X44932Y-29949D01*
X45003Y-29826D01*
X45903Y-29826D01*
X46804Y-29826D01*
X46891Y-29671D01*
X46978Y-29516D01*
X48364Y-29516D01*
X49748Y-29516D01*
X49689Y-29621D01*
X49654Y-29681D01*
X49623Y-29733D01*
X49606Y-29762D01*
X49586Y-29795D01*
X49582Y-29812D01*
X49599Y-29814D01*
X49649Y-29818D01*
X49729Y-29820D01*
X49834Y-29823D01*
X49961Y-29826D01*
X50107Y-29827D01*
X50267Y-29829D01*
X50401Y-29830D01*
X51220Y-29835D01*
X51220Y-29835D01*
X51220Y-29835D01*
G37*
G36*
X45943Y-29673D02*
X45927Y-29666D01*
X45889Y-29647D01*
X45859Y-29632D01*
X45806Y-29610D01*
X45731Y-29582D01*
X45642Y-29553D01*
X45576Y-29533D01*
X45426Y-29486D01*
X45308Y-29440D01*
X45215Y-29391D01*
X45141Y-29335D01*
X45083Y-29270D01*
X45045Y-29214D01*
X45011Y-29150D01*
X44984Y-29084D01*
X44963Y-29009D01*
X44945Y-28918D01*
X44930Y-28804D01*
X44918Y-28688D01*
X44909Y-28584D01*
X44899Y-28489D01*
X44891Y-28411D01*
X44884Y-28357D01*
X44882Y-28340D01*
X44873Y-28286D01*
X44914Y-28324D01*
X44999Y-28391D01*
X45112Y-28468D01*
X45246Y-28549D01*
X45396Y-28632D01*
X45430Y-28649D01*
X45546Y-28710D01*
X45634Y-28757D01*
X45700Y-28794D01*
X45748Y-28825D01*
X45783Y-28851D01*
X45810Y-28878D01*
X45834Y-28908D01*
X45842Y-28919D01*
X45864Y-28951D01*
X45880Y-28981D01*
X45889Y-29016D01*
X45893Y-29064D01*
X45895Y-29134D01*
X45896Y-29213D01*
X45898Y-29313D01*
X45904Y-29414D01*
X45913Y-29501D01*
X45921Y-29552D01*
X45933Y-29612D01*
X45941Y-29656D01*
X45943Y-29673D01*
X45943Y-29673D01*
X45943Y-29673D01*
G37*
G36*
X51196Y-28371D02*
X51192Y-28422D01*
X51183Y-28495D01*
X51172Y-28584D01*
X51158Y-28682D01*
X51143Y-28782D01*
X51127Y-28878D01*
X51112Y-28963D01*
X51100Y-29030D01*
X51089Y-29073D01*
X51088Y-29077D01*
X51026Y-29213D01*
X50949Y-29321D01*
X50851Y-29404D01*
X50780Y-29445D01*
X50735Y-29464D01*
X50663Y-29488D01*
X50575Y-29514D01*
X50479Y-29540D01*
X50465Y-29544D01*
X50368Y-29570D01*
X50277Y-29596D01*
X50201Y-29622D01*
X50150Y-29642D01*
X50146Y-29644D01*
X50100Y-29667D01*
X50080Y-29672D01*
X50078Y-29662D01*
X50082Y-29650D01*
X50103Y-29594D01*
X50118Y-29538D01*
X50128Y-29472D01*
X50137Y-29388D01*
X50143Y-29278D01*
X50144Y-29257D01*
X50150Y-29156D01*
X50155Y-29084D01*
X50162Y-29033D01*
X50173Y-28995D01*
X50188Y-28964D01*
X50210Y-28931D01*
X50212Y-28928D01*
X50244Y-28890D01*
X50286Y-28853D01*
X50343Y-28815D01*
X50420Y-28773D01*
X50521Y-28724D01*
X50651Y-28666D01*
X50664Y-28660D01*
X50791Y-28599D01*
X50921Y-28529D01*
X51038Y-28456D01*
X51119Y-28398D01*
X51161Y-28367D01*
X51189Y-28351D01*
X51195Y-28350D01*
X51196Y-28371D01*
X51196Y-28371D01*
X51196Y-28371D01*
G37*
G36*
X50339Y-25939D02*
X50335Y-25954D01*
X50316Y-25996D01*
X50286Y-26058D01*
X50247Y-26135D01*
X50232Y-26163D01*
X50133Y-26352D01*
X50043Y-26525D01*
X49957Y-26690D01*
X49871Y-26858D01*
X49778Y-27038D01*
X49682Y-27225D01*
X49623Y-27340D01*
X49570Y-27443D01*
X49523Y-27533D01*
X49487Y-27602D01*
X49463Y-27647D01*
X49453Y-27663D01*
X49442Y-27684D01*
X49416Y-27732D01*
X49378Y-27805D01*
X49330Y-27899D01*
X49273Y-28008D01*
X49211Y-28130D01*
X49179Y-28193D01*
X49109Y-28330D01*
X49038Y-28468D01*
X48970Y-28598D01*
X48909Y-28717D01*
X48857Y-28817D01*
X48849Y-28833D01*
X48849Y-28377D01*
X48843Y-28372D01*
X48820Y-28392D01*
X48793Y-28416D01*
X48741Y-28457D01*
X48689Y-28474D01*
X48662Y-28476D01*
X48597Y-28484D01*
X48535Y-28503D01*
X48533Y-28504D01*
X48495Y-28526D01*
X48465Y-28559D01*
X48434Y-28611D01*
X48417Y-28644D01*
X48422Y-28657D01*
X48449Y-28654D01*
X48488Y-28639D01*
X48527Y-28625D01*
X48585Y-28611D01*
X48627Y-28603D01*
X48707Y-28584D01*
X48763Y-28555D01*
X48801Y-28506D01*
X48833Y-28432D01*
X48842Y-28402D01*
X48849Y-28377D01*
X48849Y-28833D01*
X48818Y-28892D01*
X48812Y-28904D01*
X48758Y-29007D01*
X48699Y-29121D01*
X48642Y-29231D01*
X48610Y-29292D01*
X48572Y-29366D01*
X48539Y-29426D01*
X48515Y-29466D01*
X48505Y-29479D01*
X48490Y-29465D01*
X48465Y-29431D01*
X48456Y-29418D01*
X48435Y-29376D01*
X48407Y-29309D01*
X48376Y-29226D01*
X48349Y-29145D01*
X48316Y-29036D01*
X48297Y-28957D01*
X48292Y-28901D01*
X48303Y-28864D01*
X48328Y-28842D01*
X48368Y-28830D01*
X48410Y-28819D01*
X48431Y-28806D01*
X48432Y-28804D01*
X48416Y-28785D01*
X48378Y-28771D01*
X48342Y-28768D01*
X48299Y-28752D01*
X48265Y-28712D01*
X48249Y-28663D01*
X48249Y-28659D01*
X48258Y-28620D01*
X48280Y-28566D01*
X48299Y-28528D01*
X48332Y-28476D01*
X48363Y-28445D01*
X48407Y-28423D01*
X48455Y-28409D01*
X48512Y-28391D01*
X48555Y-28374D01*
X48569Y-28364D01*
X48567Y-28342D01*
X48559Y-28338D01*
X48559Y-27847D01*
X48552Y-27779D01*
X48527Y-27730D01*
X48477Y-27689D01*
X48431Y-27663D01*
X48346Y-27623D01*
X48259Y-27591D01*
X48160Y-27562D01*
X48038Y-27534D01*
X48003Y-27527D01*
X47898Y-27506D01*
X47821Y-27494D01*
X47766Y-27493D01*
X47725Y-27501D01*
X47691Y-27520D01*
X47657Y-27550D01*
X47655Y-27552D01*
X47614Y-27599D01*
X47595Y-27645D01*
X47592Y-27692D01*
X47610Y-27786D01*
X47657Y-27876D01*
X47730Y-27956D01*
X47821Y-28019D01*
X47891Y-28048D01*
X47970Y-28064D01*
X48071Y-28071D01*
X48178Y-28071D01*
X48280Y-28061D01*
X48354Y-28047D01*
X48448Y-28007D01*
X48516Y-27952D01*
X48553Y-27888D01*
X48559Y-27847D01*
X48559Y-28338D01*
X48534Y-28323D01*
X48480Y-28306D01*
X48412Y-28293D01*
X48336Y-28285D01*
X48261Y-28285D01*
X48193Y-28292D01*
X48168Y-28298D01*
X48112Y-28324D01*
X48047Y-28369D01*
X48005Y-28406D01*
X47949Y-28457D01*
X47900Y-28491D01*
X47843Y-28516D01*
X47767Y-28542D01*
X47725Y-28561D01*
X47707Y-28583D01*
X47715Y-28599D01*
X47741Y-28603D01*
X47796Y-28611D01*
X47819Y-28635D01*
X47812Y-28676D01*
X47805Y-28688D01*
X47773Y-28733D01*
X47726Y-28766D01*
X47654Y-28793D01*
X47614Y-28804D01*
X47565Y-28820D01*
X47543Y-28838D01*
X47541Y-28865D01*
X47551Y-28891D01*
X47577Y-28900D01*
X47610Y-28899D01*
X47668Y-28887D01*
X47718Y-28865D01*
X47762Y-28836D01*
X47750Y-28979D01*
X47739Y-29088D01*
X47726Y-29193D01*
X47711Y-29288D01*
X47697Y-29366D01*
X47682Y-29421D01*
X47672Y-29444D01*
X47664Y-29439D01*
X47650Y-29420D01*
X47626Y-29384D01*
X47593Y-29329D01*
X47551Y-29254D01*
X47498Y-29160D01*
X47434Y-29043D01*
X47358Y-28903D01*
X47269Y-28739D01*
X47168Y-28549D01*
X47052Y-28332D01*
X46922Y-28088D01*
X46777Y-27814D01*
X46616Y-27510D01*
X46528Y-27344D01*
X46483Y-27258D01*
X46433Y-27164D01*
X46388Y-27080D01*
X46388Y-27080D01*
X46346Y-27002D01*
X46296Y-26909D01*
X46248Y-26818D01*
X46237Y-26797D01*
X46137Y-26606D01*
X46047Y-26437D01*
X45970Y-26290D01*
X45904Y-26167D01*
X45853Y-26071D01*
X45816Y-26004D01*
X45795Y-25966D01*
X45792Y-25962D01*
X45767Y-25921D01*
X45863Y-25959D01*
X45916Y-25979D01*
X45994Y-26009D01*
X46087Y-26044D01*
X46185Y-26080D01*
X46205Y-26088D01*
X46309Y-26127D01*
X46414Y-26169D01*
X46508Y-26209D01*
X46582Y-26243D01*
X46588Y-26246D01*
X46659Y-26283D01*
X46706Y-26315D01*
X46738Y-26348D01*
X46767Y-26394D01*
X46772Y-26404D01*
X46801Y-26459D01*
X46841Y-26537D01*
X46890Y-26633D01*
X46947Y-26743D01*
X47007Y-26860D01*
X47069Y-26980D01*
X47129Y-27098D01*
X47186Y-27209D01*
X47236Y-27307D01*
X47277Y-27388D01*
X47307Y-27446D01*
X47322Y-27475D01*
X47351Y-27529D01*
X47379Y-27552D01*
X47414Y-27550D01*
X47460Y-27529D01*
X47523Y-27501D01*
X47595Y-27476D01*
X47611Y-27471D01*
X47693Y-27449D01*
X47630Y-27423D01*
X47529Y-27367D01*
X47451Y-27296D01*
X47399Y-27216D01*
X47375Y-27131D01*
X47380Y-27048D01*
X47419Y-26969D01*
X47420Y-26967D01*
X47505Y-26882D01*
X47616Y-26817D01*
X47755Y-26769D01*
X47924Y-26740D01*
X48041Y-26730D01*
X48215Y-26729D01*
X48376Y-26748D01*
X48518Y-26784D01*
X48638Y-26837D01*
X48729Y-26904D01*
X48750Y-26927D01*
X48786Y-26992D01*
X48786Y-27059D01*
X48749Y-27125D01*
X48738Y-27138D01*
X48700Y-27170D01*
X48642Y-27206D01*
X48575Y-27242D01*
X48512Y-27271D01*
X48505Y-27273D01*
X48505Y-27070D01*
X48491Y-27010D01*
X48454Y-26944D01*
X48411Y-26893D01*
X48335Y-26842D01*
X48242Y-26808D01*
X48137Y-26789D01*
X48028Y-26786D01*
X47923Y-26798D01*
X47828Y-26824D01*
X47750Y-26865D01*
X47696Y-26918D01*
X47684Y-26941D01*
X47672Y-26991D01*
X47674Y-27032D01*
X47708Y-27082D01*
X47776Y-27129D01*
X47876Y-27172D01*
X48005Y-27210D01*
X48112Y-27234D01*
X48215Y-27251D01*
X48292Y-27254D01*
X48350Y-27242D01*
X48400Y-27214D01*
X48446Y-27171D01*
X48481Y-27125D01*
X48502Y-27084D01*
X48505Y-27070D01*
X48505Y-27273D01*
X48463Y-27287D01*
X48448Y-27290D01*
X48414Y-27298D01*
X48405Y-27308D01*
X48410Y-27322D01*
X48431Y-27326D01*
X48481Y-27335D01*
X48549Y-27359D01*
X48622Y-27391D01*
X48690Y-27427D01*
X48740Y-27461D01*
X48746Y-27466D01*
X48780Y-27495D01*
X48800Y-27507D01*
X48803Y-27507D01*
X48813Y-27489D01*
X48838Y-27441D01*
X48877Y-27366D01*
X48928Y-27267D01*
X48990Y-27146D01*
X49062Y-27006D01*
X49142Y-26850D01*
X49228Y-26680D01*
X49320Y-26500D01*
X49332Y-26476D01*
X49374Y-26398D01*
X49406Y-26345D01*
X49436Y-26310D01*
X49470Y-26285D01*
X49496Y-26271D01*
X49602Y-26222D01*
X49732Y-26167D01*
X49877Y-26110D01*
X50020Y-26058D01*
X50102Y-26029D01*
X50179Y-26000D01*
X50240Y-25977D01*
X50260Y-25968D01*
X50306Y-25950D01*
X50335Y-25940D01*
X50339Y-25939D01*
X50339Y-25939D01*
X50339Y-25939D01*
G37*
G36*
X49891Y-28533D02*
X49883Y-28640D01*
X49856Y-28736D01*
X49808Y-28826D01*
X49735Y-28914D01*
X49634Y-29005D01*
X49503Y-29102D01*
X49445Y-29140D01*
X49357Y-29197D01*
X49266Y-29255D01*
X49178Y-29311D01*
X49097Y-29361D01*
X49029Y-29402D01*
X48980Y-29430D01*
X48956Y-29443D01*
X48955Y-29443D01*
X48952Y-29426D01*
X48953Y-29384D01*
X48955Y-29347D01*
X48967Y-29205D01*
X48977Y-29093D01*
X48986Y-29007D01*
X48996Y-28941D01*
X49008Y-28888D01*
X49022Y-28843D01*
X49040Y-28800D01*
X49054Y-28770D01*
X49093Y-28702D01*
X49147Y-28628D01*
X49222Y-28542D01*
X49308Y-28450D01*
X49381Y-28375D01*
X49447Y-28304D01*
X49502Y-28246D01*
X49540Y-28204D01*
X49550Y-28193D01*
X49597Y-28123D01*
X49646Y-28033D01*
X49688Y-27939D01*
X49708Y-27882D01*
X49728Y-27818D01*
X49740Y-27782D01*
X49747Y-27766D01*
X49752Y-27764D01*
X49754Y-27766D01*
X49763Y-27790D01*
X49777Y-27844D01*
X49794Y-27920D01*
X49812Y-28012D01*
X49831Y-28114D01*
X49849Y-28219D01*
X49866Y-28319D01*
X49879Y-28409D01*
X49888Y-28482D01*
X49891Y-28531D01*
X49891Y-28533D01*
X49891Y-28533D01*
X49891Y-28533D01*
G37*
G36*
X47107Y-29400D02*
X47096Y-29422D01*
X47093Y-29423D01*
X47069Y-29413D01*
X47022Y-29388D01*
X46961Y-29353D01*
X46929Y-29334D01*
X46755Y-29225D01*
X46609Y-29129D01*
X46490Y-29046D01*
X46395Y-28970D01*
X46320Y-28900D01*
X46264Y-28833D01*
X46222Y-28765D01*
X46193Y-28695D01*
X46173Y-28620D01*
X46168Y-28597D01*
X46163Y-28546D01*
X46165Y-28481D01*
X46174Y-28399D01*
X46192Y-28295D01*
X46219Y-28166D01*
X46255Y-28008D01*
X46283Y-27895D01*
X46305Y-27815D01*
X46324Y-27763D01*
X46339Y-27740D01*
X46348Y-27749D01*
X46352Y-27786D01*
X46360Y-27832D01*
X46384Y-27899D01*
X46419Y-27979D01*
X46460Y-28060D01*
X46504Y-28133D01*
X46507Y-28136D01*
X46549Y-28193D01*
X46609Y-28264D01*
X46677Y-28337D01*
X46719Y-28379D01*
X46787Y-28450D01*
X46854Y-28523D01*
X46908Y-28589D01*
X46932Y-28621D01*
X46969Y-28678D01*
X46998Y-28729D01*
X47022Y-28780D01*
X47041Y-28836D01*
X47056Y-28902D01*
X47069Y-28984D01*
X47082Y-29088D01*
X47095Y-29218D01*
X47107Y-29347D01*
X47107Y-29400D01*
X47107Y-29400D01*
X47107Y-29400D01*
G37*
G36*
X46018Y-28060D02*
X46013Y-28198D01*
X45996Y-28361D01*
X45988Y-28421D01*
X45974Y-28515D01*
X45963Y-28596D01*
X45955Y-28658D01*
X45950Y-28693D01*
X45950Y-28699D01*
X45947Y-28709D01*
X45935Y-28709D01*
X45911Y-28698D01*
X45870Y-28675D01*
X45808Y-28635D01*
X45722Y-28578D01*
X45685Y-28553D01*
X45538Y-28447D01*
X45399Y-28335D01*
X45272Y-28220D01*
X45161Y-28107D01*
X45073Y-28001D01*
X45012Y-27907D01*
X45004Y-27892D01*
X44953Y-27764D01*
X44905Y-27605D01*
X44862Y-27420D01*
X44824Y-27212D01*
X44793Y-26986D01*
X44768Y-26749D01*
X44765Y-26697D01*
X44755Y-26569D01*
X44748Y-26475D01*
X44748Y-26414D01*
X44754Y-26383D01*
X44770Y-26379D01*
X44798Y-26401D01*
X44839Y-26446D01*
X44896Y-26513D01*
X44916Y-26536D01*
X44978Y-26605D01*
X45061Y-26693D01*
X45158Y-26794D01*
X45262Y-26901D01*
X45370Y-27007D01*
X45434Y-27071D01*
X45556Y-27190D01*
X45655Y-27289D01*
X45734Y-27372D01*
X45795Y-27443D01*
X45844Y-27507D01*
X45882Y-27568D01*
X45914Y-27629D01*
X45943Y-27696D01*
X45954Y-27722D01*
X45989Y-27829D01*
X46010Y-27939D01*
X46018Y-28060D01*
X46018Y-28060D01*
X46018Y-28060D01*
G37*
G36*
X51385Y-26459D02*
X51382Y-26541D01*
X51374Y-26644D01*
X51364Y-26763D01*
X51352Y-26889D01*
X51338Y-27015D01*
X51324Y-27135D01*
X51309Y-27240D01*
X51295Y-27324D01*
X51295Y-27326D01*
X51265Y-27466D01*
X51231Y-27600D01*
X51195Y-27720D01*
X51160Y-27819D01*
X51128Y-27889D01*
X51045Y-28010D01*
X50933Y-28139D01*
X50795Y-28273D01*
X50635Y-28407D01*
X50459Y-28537D01*
X50309Y-28635D01*
X50188Y-28711D01*
X50154Y-28470D01*
X50132Y-28272D01*
X50123Y-28097D01*
X50126Y-27948D01*
X50143Y-27827D01*
X50155Y-27782D01*
X50201Y-27659D01*
X50255Y-27551D01*
X50322Y-27450D01*
X50409Y-27348D01*
X50521Y-27235D01*
X50691Y-27072D01*
X50849Y-26916D01*
X50991Y-26771D01*
X51114Y-26641D01*
X51215Y-26529D01*
X51251Y-26488D01*
X51379Y-26336D01*
X51385Y-26405D01*
X51385Y-26459D01*
X51385Y-26459D01*
X51385Y-26459D01*
G37*
G36*
X48283Y-28415D02*
X48274Y-28438D01*
X48230Y-28464D01*
X48222Y-28468D01*
X48170Y-28484D01*
X48119Y-28493D01*
X48078Y-28492D01*
X48057Y-28484D01*
X48059Y-28474D01*
X48086Y-28450D01*
X48135Y-28425D01*
X48189Y-28405D01*
X48236Y-28394D01*
X48257Y-28395D01*
X48283Y-28415D01*
X48283Y-28415D01*
X48283Y-28415D01*
G37*
G36*
X53756Y-27177D02*
X53754Y-27194D01*
X53742Y-27211D01*
X53716Y-27232D01*
X53674Y-27261D01*
X53610Y-27298D01*
X53548Y-27334D01*
X53548Y-27136D01*
X53535Y-27126D01*
X53523Y-27121D01*
X53475Y-27107D01*
X53416Y-27092D01*
X53358Y-27080D01*
X53311Y-27072D01*
X53287Y-27072D01*
X53286Y-27073D01*
X53281Y-27094D01*
X53284Y-27135D01*
X53291Y-27186D01*
X53301Y-27232D01*
X53312Y-27262D01*
X53318Y-27268D01*
X53340Y-27257D01*
X53385Y-27234D01*
X53443Y-27204D01*
X53450Y-27200D01*
X53509Y-27169D01*
X53541Y-27148D01*
X53548Y-27136D01*
X53548Y-27334D01*
X53521Y-27349D01*
X53454Y-27388D01*
X53338Y-27453D01*
X53248Y-27503D01*
X53183Y-27539D01*
X53138Y-27561D01*
X53109Y-27571D01*
X53092Y-27573D01*
X53084Y-27566D01*
X53080Y-27552D01*
X53078Y-27542D01*
X53067Y-27489D01*
X53059Y-27453D01*
X53057Y-27421D01*
X53074Y-27398D01*
X53116Y-27376D01*
X53123Y-27373D01*
X53170Y-27346D01*
X53189Y-27322D01*
X53188Y-27317D01*
X53182Y-27288D01*
X53174Y-27234D01*
X53166Y-27166D01*
X53166Y-27163D01*
X53154Y-27083D01*
X53136Y-27033D01*
X53107Y-27007D01*
X53061Y-26998D01*
X53051Y-26998D01*
X53022Y-26994D01*
X53004Y-26977D01*
X52992Y-26939D01*
X52982Y-26888D01*
X52970Y-26810D01*
X53023Y-26819D01*
X53062Y-26828D01*
X53129Y-26844D01*
X53215Y-26867D01*
X53312Y-26893D01*
X53411Y-26920D01*
X53507Y-26947D01*
X53589Y-26970D01*
X53651Y-26990D01*
X53655Y-26991D01*
X53709Y-27011D01*
X53735Y-27033D01*
X53742Y-27061D01*
X53745Y-27110D01*
X53753Y-27158D01*
X53756Y-27177D01*
X53756Y-27177D01*
X53756Y-27177D01*
G37*
G36*
X42996Y-27332D02*
X42984Y-27407D01*
X42974Y-27457D01*
X42965Y-27490D01*
X42963Y-27495D01*
X42959Y-27500D01*
X42951Y-27504D01*
X42934Y-27505D01*
X42905Y-27503D01*
X42858Y-27498D01*
X42788Y-27489D01*
X42691Y-27476D01*
X42574Y-27459D01*
X42471Y-27445D01*
X42381Y-27432D01*
X42310Y-27421D01*
X42265Y-27413D01*
X42251Y-27410D01*
X42250Y-27390D01*
X42255Y-27343D01*
X42263Y-27277D01*
X42274Y-27201D01*
X42286Y-27123D01*
X42297Y-27051D01*
X42307Y-26995D01*
X42315Y-26962D01*
X42316Y-26958D01*
X42341Y-26952D01*
X42379Y-26956D01*
X42431Y-26966D01*
X42419Y-27107D01*
X42406Y-27248D01*
X42472Y-27261D01*
X42530Y-27267D01*
X42562Y-27254D01*
X42574Y-27218D01*
X42574Y-27202D01*
X42578Y-27149D01*
X42585Y-27089D01*
X42586Y-27084D01*
X42596Y-27039D01*
X42615Y-27020D01*
X42654Y-27016D01*
X42660Y-27016D01*
X42723Y-27016D01*
X42717Y-27157D01*
X42711Y-27299D01*
X42853Y-27315D01*
X42996Y-27332D01*
X42996Y-27332D01*
X42996Y-27332D01*
G37*
G36*
X51643Y-25102D02*
X51639Y-25151D01*
X51628Y-25225D01*
X51612Y-25318D01*
X51592Y-25419D01*
X51571Y-25521D01*
X51549Y-25614D01*
X51529Y-25689D01*
X51522Y-25711D01*
X51437Y-25929D01*
X51332Y-26126D01*
X51210Y-26298D01*
X51093Y-26423D01*
X51042Y-26469D01*
X50970Y-26531D01*
X50889Y-26601D01*
X50805Y-26673D01*
X50788Y-26687D01*
X50599Y-26859D01*
X50444Y-27031D01*
X50326Y-27201D01*
X50312Y-27223D01*
X50282Y-27276D01*
X50259Y-27313D01*
X50249Y-27326D01*
X50245Y-27309D01*
X50239Y-27263D01*
X50230Y-27194D01*
X50220Y-27111D01*
X50220Y-27109D01*
X50207Y-26940D01*
X50204Y-26778D01*
X50211Y-26632D01*
X50228Y-26508D01*
X50254Y-26414D01*
X50310Y-26302D01*
X50390Y-26186D01*
X50485Y-26080D01*
X50540Y-26031D01*
X50591Y-25994D01*
X50667Y-25947D01*
X50755Y-25897D01*
X50849Y-25849D01*
X50859Y-25844D01*
X51024Y-25760D01*
X51159Y-25679D01*
X51271Y-25598D01*
X51365Y-25509D01*
X51448Y-25409D01*
X51524Y-25292D01*
X51573Y-25204D01*
X51604Y-25148D01*
X51628Y-25111D01*
X51642Y-25099D01*
X51643Y-25102D01*
X51643Y-25102D01*
X51643Y-25102D01*
G37*
G36*
X45892Y-26618D02*
X45891Y-26818D01*
X45874Y-27011D01*
X45864Y-27089D01*
X45854Y-27150D01*
X45846Y-27189D01*
X45841Y-27198D01*
X45827Y-27184D01*
X45801Y-27146D01*
X45768Y-27094D01*
X45732Y-27042D01*
X45676Y-26974D01*
X45598Y-26888D01*
X45497Y-26783D01*
X45371Y-26657D01*
X45220Y-26509D01*
X45073Y-26368D01*
X44939Y-26226D01*
X44828Y-26076D01*
X44736Y-25911D01*
X44659Y-25725D01*
X44595Y-25512D01*
X44575Y-25428D01*
X44547Y-25312D01*
X44529Y-25228D01*
X44518Y-25174D01*
X44516Y-25146D01*
X44521Y-25142D01*
X44534Y-25159D01*
X44555Y-25193D01*
X44568Y-25215D01*
X44652Y-25336D01*
X44757Y-25450D01*
X44865Y-25538D01*
X44907Y-25563D01*
X44974Y-25601D01*
X45059Y-25646D01*
X45154Y-25693D01*
X45203Y-25717D01*
X45390Y-25817D01*
X45544Y-25920D01*
X45667Y-26031D01*
X45762Y-26152D01*
X45830Y-26288D01*
X45873Y-26442D01*
X45892Y-26618D01*
X45892Y-26618D01*
X45892Y-26618D01*
G37*
G36*
X42984Y-26462D02*
X42978Y-26500D01*
X42961Y-26561D01*
X42949Y-26605D01*
X42925Y-26659D01*
X42889Y-26682D01*
X42832Y-26677D01*
X42825Y-26675D01*
X42806Y-26669D01*
X42797Y-26661D01*
X42797Y-26640D01*
X42806Y-26601D01*
X42826Y-26536D01*
X42830Y-26522D01*
X42867Y-26399D01*
X42930Y-26418D01*
X42960Y-26428D01*
X42978Y-26440D01*
X42984Y-26462D01*
X42984Y-26462D01*
X42984Y-26462D01*
G37*
G36*
X53587Y-26356D02*
X53586Y-26359D01*
X53567Y-26353D01*
X53521Y-26338D01*
X53454Y-26316D01*
X53386Y-26293D01*
X53309Y-26267D01*
X53245Y-26247D01*
X53202Y-26235D01*
X53188Y-26234D01*
X53177Y-26250D01*
X53150Y-26293D01*
X53112Y-26354D01*
X53066Y-26428D01*
X53058Y-26441D01*
X53011Y-26517D01*
X52972Y-26579D01*
X52944Y-26625D01*
X52931Y-26646D01*
X52930Y-26647D01*
X52922Y-26634D01*
X52905Y-26595D01*
X52886Y-26548D01*
X52847Y-26445D01*
X52959Y-26264D01*
X53003Y-26193D01*
X53036Y-26133D01*
X53058Y-26092D01*
X53063Y-26075D01*
X53043Y-26077D01*
X52998Y-26088D01*
X52936Y-26108D01*
X52920Y-26113D01*
X52842Y-26139D01*
X52790Y-26152D01*
X52759Y-26154D01*
X52742Y-26142D01*
X52733Y-26117D01*
X52730Y-26108D01*
X52718Y-26059D01*
X52710Y-26028D01*
X52713Y-26016D01*
X52732Y-26000D01*
X52771Y-25981D01*
X52833Y-25956D01*
X52924Y-25923D01*
X53027Y-25887D01*
X53130Y-25852D01*
X53222Y-25821D01*
X53296Y-25797D01*
X53347Y-25781D01*
X53370Y-25775D01*
X53370Y-25775D01*
X53386Y-25791D01*
X53407Y-25830D01*
X53417Y-25855D01*
X53447Y-25935D01*
X53307Y-25982D01*
X53242Y-26004D01*
X53193Y-26024D01*
X53168Y-26037D01*
X53167Y-26039D01*
X53183Y-26049D01*
X53227Y-26068D01*
X53291Y-26092D01*
X53345Y-26110D01*
X53420Y-26137D01*
X53480Y-26158D01*
X53519Y-26173D01*
X53530Y-26178D01*
X53540Y-26200D01*
X53554Y-26240D01*
X53570Y-26288D01*
X53582Y-26331D01*
X53587Y-26356D01*
X53587Y-26356D01*
X53587Y-26356D01*
G37*
G36*
X43447Y-25664D02*
X43443Y-25750D01*
X43442Y-25752D01*
X43425Y-25808D01*
X43398Y-25877D01*
X43365Y-25950D01*
X43330Y-26022D01*
X43296Y-26081D01*
X43291Y-26088D01*
X43291Y-25766D01*
X43286Y-25716D01*
X43254Y-25690D01*
X43207Y-25687D01*
X43164Y-25699D01*
X43131Y-25730D01*
X43109Y-25766D01*
X43084Y-25812D01*
X43069Y-25845D01*
X43067Y-25852D01*
X43082Y-25868D01*
X43117Y-25891D01*
X43161Y-25914D01*
X43200Y-25930D01*
X43220Y-25933D01*
X43235Y-25914D01*
X43256Y-25873D01*
X43270Y-25842D01*
X43291Y-25766D01*
X43291Y-26088D01*
X43269Y-26123D01*
X43250Y-26139D01*
X43225Y-26131D01*
X43173Y-26110D01*
X43099Y-26079D01*
X43010Y-26040D01*
X43001Y-26035D01*
X43001Y-25654D01*
X42988Y-25625D01*
X42983Y-25620D01*
X42935Y-25593D01*
X42887Y-25601D01*
X42844Y-25640D01*
X42832Y-25660D01*
X42813Y-25713D01*
X42823Y-25750D01*
X42852Y-25771D01*
X42910Y-25790D01*
X42949Y-25781D01*
X42971Y-25752D01*
X42996Y-25693D01*
X43001Y-25654D01*
X43001Y-26035D01*
X42921Y-25999D01*
X42824Y-25954D01*
X42740Y-25915D01*
X42673Y-25883D01*
X42628Y-25862D01*
X42612Y-25854D01*
X42616Y-25836D01*
X42634Y-25793D01*
X42663Y-25731D01*
X42689Y-25676D01*
X42753Y-25560D01*
X42813Y-25479D01*
X42871Y-25429D01*
X42928Y-25410D01*
X42938Y-25410D01*
X42986Y-25421D01*
X43035Y-25447D01*
X43072Y-25481D01*
X43085Y-25510D01*
X43097Y-25542D01*
X43125Y-25546D01*
X43150Y-25529D01*
X43196Y-25507D01*
X43260Y-25503D01*
X43329Y-25519D01*
X43370Y-25539D01*
X43422Y-25591D01*
X43447Y-25664D01*
X43447Y-25664D01*
X43447Y-25664D01*
G37*
G36*
X53121Y-25278D02*
X53107Y-25325D01*
X53069Y-25360D01*
X53067Y-25361D01*
X53013Y-25393D01*
X53001Y-25342D01*
X52981Y-25256D01*
X52963Y-25197D01*
X52944Y-25157D01*
X52922Y-25128D01*
X52912Y-25118D01*
X52879Y-25090D01*
X52857Y-25087D01*
X52835Y-25104D01*
X52821Y-25123D01*
X52814Y-25149D01*
X52815Y-25191D01*
X52822Y-25257D01*
X52826Y-25283D01*
X52836Y-25364D01*
X52838Y-25421D01*
X52832Y-25464D01*
X52822Y-25490D01*
X52775Y-25561D01*
X52709Y-25603D01*
X52629Y-25614D01*
X52565Y-25601D01*
X52482Y-25553D01*
X52414Y-25475D01*
X52366Y-25372D01*
X52364Y-25365D01*
X52343Y-25289D01*
X52339Y-25237D01*
X52352Y-25201D01*
X52383Y-25174D01*
X52394Y-25168D01*
X52433Y-25147D01*
X52454Y-25140D01*
X52455Y-25140D01*
X52461Y-25159D01*
X52470Y-25204D01*
X52479Y-25250D01*
X52507Y-25350D01*
X52542Y-25415D01*
X52586Y-25444D01*
X52604Y-25446D01*
X52637Y-25441D01*
X52655Y-25419D01*
X52661Y-25377D01*
X52655Y-25308D01*
X52649Y-25269D01*
X52641Y-25149D01*
X52657Y-25055D01*
X52695Y-24988D01*
X52758Y-24948D01*
X52835Y-24936D01*
X52919Y-24953D01*
X52993Y-25005D01*
X53057Y-25092D01*
X53074Y-25126D01*
X53110Y-25213D01*
X53121Y-25278D01*
X53121Y-25278D01*
X53121Y-25278D01*
G37*
G36*
X43982Y-24772D02*
X43976Y-24860D01*
X43957Y-24940D01*
X43945Y-24968D01*
X43876Y-25069D01*
X43819Y-25116D01*
X43819Y-24794D01*
X43794Y-24720D01*
X43743Y-24656D01*
X43741Y-24655D01*
X43664Y-24609D01*
X43584Y-24594D01*
X43509Y-24608D01*
X43445Y-24646D01*
X43399Y-24708D01*
X43378Y-24788D01*
X43377Y-24808D01*
X43393Y-24886D01*
X43437Y-24950D01*
X43501Y-24997D01*
X43577Y-25021D01*
X43658Y-25021D01*
X43736Y-24991D01*
X43790Y-24939D01*
X43818Y-24870D01*
X43819Y-24794D01*
X43819Y-25116D01*
X43787Y-25143D01*
X43685Y-25189D01*
X43576Y-25204D01*
X43476Y-25190D01*
X43413Y-25159D01*
X43345Y-25107D01*
X43284Y-25045D01*
X43243Y-24984D01*
X43239Y-24977D01*
X43214Y-24871D01*
X43220Y-24765D01*
X43254Y-24665D01*
X43313Y-24574D01*
X43392Y-24501D01*
X43487Y-24449D01*
X43595Y-24426D01*
X43619Y-24425D01*
X43729Y-24441D01*
X43827Y-24492D01*
X43913Y-24576D01*
X43951Y-24629D01*
X43974Y-24691D01*
X43982Y-24772D01*
X43982Y-24772D01*
X43982Y-24772D01*
G37*
G36*
X52482Y-24269D02*
X52423Y-24321D01*
X52385Y-24354D01*
X52327Y-24402D01*
X52257Y-24459D01*
X52195Y-24510D01*
X52122Y-24572D01*
X52070Y-24621D01*
X52042Y-24655D01*
X52039Y-24668D01*
X52057Y-24692D01*
X52091Y-24735D01*
X52130Y-24782D01*
X52170Y-24833D01*
X52199Y-24873D01*
X52209Y-24894D01*
X52196Y-24915D01*
X52165Y-24942D01*
X52131Y-24965D01*
X52111Y-24972D01*
X52097Y-24959D01*
X52066Y-24924D01*
X52027Y-24876D01*
X51978Y-24815D01*
X51931Y-24754D01*
X51902Y-24718D01*
X51865Y-24672D01*
X51833Y-24636D01*
X51827Y-24629D01*
X51815Y-24610D01*
X51822Y-24590D01*
X51853Y-24560D01*
X51872Y-24545D01*
X51911Y-24513D01*
X51972Y-24463D01*
X52046Y-24402D01*
X52126Y-24335D01*
X52153Y-24312D01*
X52364Y-24136D01*
X52423Y-24202D01*
X52482Y-24269D01*
X52482Y-24269D01*
X52482Y-24269D01*
G37*
G36*
X44722Y-23943D02*
X44709Y-24044D01*
X44693Y-24086D01*
X44665Y-24132D01*
X44620Y-24187D01*
X44554Y-24257D01*
X44551Y-24261D01*
X44551Y-23987D01*
X44537Y-23909D01*
X44489Y-23832D01*
X44421Y-23778D01*
X44345Y-23754D01*
X44268Y-23762D01*
X44257Y-23766D01*
X44219Y-23788D01*
X44173Y-23821D01*
X44129Y-23858D01*
X44098Y-23889D01*
X44089Y-23906D01*
X44100Y-23923D01*
X44131Y-23959D01*
X44175Y-24009D01*
X44226Y-24066D01*
X44278Y-24121D01*
X44326Y-24171D01*
X44362Y-24207D01*
X44380Y-24223D01*
X44381Y-24223D01*
X44398Y-24211D01*
X44432Y-24181D01*
X44467Y-24146D01*
X44526Y-24066D01*
X44551Y-23987D01*
X44551Y-24261D01*
X44528Y-24283D01*
X44466Y-24344D01*
X44412Y-24395D01*
X44372Y-24429D01*
X44351Y-24443D01*
X44351Y-24443D01*
X44333Y-24430D01*
X44295Y-24395D01*
X44243Y-24343D01*
X44182Y-24279D01*
X44168Y-24265D01*
X44099Y-24189D01*
X44030Y-24114D01*
X43971Y-24050D01*
X43928Y-24003D01*
X43928Y-24003D01*
X43851Y-23918D01*
X43983Y-23801D01*
X44070Y-23725D01*
X44137Y-23670D01*
X44190Y-23633D01*
X44236Y-23611D01*
X44280Y-23599D01*
X44330Y-23595D01*
X44365Y-23594D01*
X44434Y-23596D01*
X44482Y-23605D01*
X44522Y-23624D01*
X44557Y-23651D01*
X44647Y-23742D01*
X44703Y-23839D01*
X44722Y-23943D01*
X44722Y-23943D01*
X44722Y-23943D01*
G37*
G36*
X51917Y-23823D02*
X51901Y-23932D01*
X51855Y-24028D01*
X51786Y-24106D01*
X51735Y-24141D01*
X51735Y-23789D01*
X51729Y-23737D01*
X51707Y-23697D01*
X51670Y-23660D01*
X51618Y-23622D01*
X51564Y-23605D01*
X51523Y-23604D01*
X51465Y-23608D01*
X51423Y-23627D01*
X51378Y-23667D01*
X51324Y-23744D01*
X51301Y-23826D01*
X51313Y-23909D01*
X51316Y-23916D01*
X51360Y-23979D01*
X51424Y-24020D01*
X51499Y-24039D01*
X51574Y-24032D01*
X51632Y-24003D01*
X51696Y-23930D01*
X51730Y-23840D01*
X51735Y-23789D01*
X51735Y-24141D01*
X51700Y-24164D01*
X51601Y-24198D01*
X51496Y-24203D01*
X51390Y-24176D01*
X51379Y-24171D01*
X51310Y-24129D01*
X51242Y-24069D01*
X51186Y-24003D01*
X51152Y-23944D01*
X51131Y-23842D01*
X51140Y-23734D01*
X51175Y-23632D01*
X51229Y-23554D01*
X51314Y-23484D01*
X51412Y-23447D01*
X51496Y-23439D01*
X51606Y-23451D01*
X51702Y-23492D01*
X51769Y-23541D01*
X51817Y-23593D01*
X51862Y-23664D01*
X51897Y-23739D01*
X51915Y-23806D01*
X51917Y-23823D01*
X51917Y-23823D01*
X51917Y-23823D01*
G37*
G36*
X45418Y-23603D02*
X45418Y-23611D01*
X45368Y-23645D01*
X45324Y-23674D01*
X45295Y-23692D01*
X45289Y-23694D01*
X45276Y-23680D01*
X45249Y-23642D01*
X45211Y-23587D01*
X45189Y-23553D01*
X45097Y-23412D01*
X44876Y-23323D01*
X44794Y-23289D01*
X44725Y-23261D01*
X44677Y-23240D01*
X44655Y-23230D01*
X44655Y-23229D01*
X44669Y-23215D01*
X44705Y-23193D01*
X44752Y-23167D01*
X44798Y-23144D01*
X44832Y-23131D01*
X44840Y-23129D01*
X44868Y-23136D01*
X44918Y-23156D01*
X44977Y-23182D01*
X45038Y-23209D01*
X45077Y-23219D01*
X45099Y-23207D01*
X45108Y-23169D01*
X45111Y-23100D01*
X45111Y-23065D01*
X45111Y-22949D01*
X45204Y-22892D01*
X45297Y-22835D01*
X45286Y-22941D01*
X45274Y-23068D01*
X45266Y-23164D01*
X45261Y-23235D01*
X45261Y-23288D01*
X45266Y-23327D01*
X45276Y-23358D01*
X45292Y-23388D01*
X45313Y-23421D01*
X45316Y-23426D01*
X45368Y-23508D01*
X45403Y-23568D01*
X45418Y-23603D01*
X45418Y-23603D01*
X45418Y-23603D01*
G37*
G36*
X51018Y-23144D02*
X51017Y-23150D01*
X50991Y-23238D01*
X50941Y-23301D01*
X50872Y-23337D01*
X50835Y-23339D01*
X50835Y-23118D01*
X50826Y-23069D01*
X50787Y-23027D01*
X50772Y-23018D01*
X50733Y-22999D01*
X50709Y-22987D01*
X50696Y-22998D01*
X50673Y-23030D01*
X50650Y-23071D01*
X50631Y-23110D01*
X50624Y-23135D01*
X50625Y-23137D01*
X50652Y-23155D01*
X50695Y-23175D01*
X50736Y-23194D01*
X50760Y-23201D01*
X50786Y-23189D01*
X50812Y-23166D01*
X50835Y-23118D01*
X50835Y-23339D01*
X50786Y-23343D01*
X50689Y-23319D01*
X50649Y-23302D01*
X50558Y-23257D01*
X50526Y-23298D01*
X50499Y-23340D01*
X50467Y-23396D01*
X50457Y-23416D01*
X50432Y-23462D01*
X50412Y-23489D01*
X50405Y-23493D01*
X50383Y-23485D01*
X50341Y-23465D01*
X50324Y-23456D01*
X50254Y-23419D01*
X50330Y-23278D01*
X50374Y-23200D01*
X50427Y-23104D01*
X50480Y-23007D01*
X50507Y-22960D01*
X50607Y-22782D01*
X50754Y-22860D01*
X50874Y-22932D01*
X50958Y-23004D01*
X51005Y-23074D01*
X51018Y-23144D01*
X51018Y-23144D01*
X51018Y-23144D01*
G37*
G36*
X46925Y-22999D02*
X46914Y-23011D01*
X46876Y-23025D01*
X46827Y-23038D01*
X46782Y-23047D01*
X46748Y-23051D01*
X46717Y-23047D01*
X46683Y-23033D01*
X46639Y-23005D01*
X46579Y-22962D01*
X46497Y-22900D01*
X46492Y-22895D01*
X46439Y-22857D01*
X46398Y-22832D01*
X46377Y-22824D01*
X46376Y-22825D01*
X46376Y-22845D01*
X46384Y-22892D01*
X46400Y-22955D01*
X46405Y-22972D01*
X46426Y-23051D01*
X46437Y-23100D01*
X46438Y-23129D01*
X46428Y-23144D01*
X46407Y-23151D01*
X46393Y-23155D01*
X46343Y-23167D01*
X46312Y-23176D01*
X46282Y-23177D01*
X46273Y-23171D01*
X46265Y-23149D01*
X46251Y-23098D01*
X46231Y-23027D01*
X46208Y-22940D01*
X46183Y-22845D01*
X46158Y-22750D01*
X46135Y-22661D01*
X46116Y-22584D01*
X46103Y-22528D01*
X46096Y-22498D01*
X46096Y-22496D01*
X46112Y-22481D01*
X46153Y-22466D01*
X46178Y-22459D01*
X46260Y-22440D01*
X46277Y-22507D01*
X46293Y-22569D01*
X46311Y-22638D01*
X46314Y-22650D01*
X46329Y-22695D01*
X46343Y-22719D01*
X46348Y-22720D01*
X46360Y-22701D01*
X46383Y-22655D01*
X46411Y-22591D01*
X46434Y-22539D01*
X46468Y-22458D01*
X46495Y-22406D01*
X46517Y-22375D01*
X46539Y-22360D01*
X46554Y-22355D01*
X46612Y-22343D01*
X46651Y-22334D01*
X46699Y-22322D01*
X46659Y-22411D01*
X46606Y-22536D01*
X46570Y-22629D01*
X46550Y-22692D01*
X46547Y-22723D01*
X46549Y-22727D01*
X46623Y-22777D01*
X46700Y-22832D01*
X46775Y-22885D01*
X46840Y-22933D01*
X46891Y-22971D01*
X46920Y-22994D01*
X46925Y-22999D01*
X46925Y-22999D01*
X46925Y-22999D01*
G37*
G36*
X49691Y-22548D02*
X49684Y-22605D01*
X49658Y-22650D01*
X49634Y-22675D01*
X49599Y-22710D01*
X49589Y-22731D01*
X49601Y-22747D01*
X49605Y-22751D01*
X49645Y-22802D01*
X49660Y-22869D01*
X49654Y-22941D01*
X49625Y-23007D01*
X49593Y-23042D01*
X49538Y-23065D01*
X49508Y-23067D01*
X49508Y-22553D01*
X49505Y-22513D01*
X49488Y-22491D01*
X49448Y-22475D01*
X49433Y-22471D01*
X49377Y-22461D01*
X49345Y-22469D01*
X49326Y-22505D01*
X49317Y-22548D01*
X49311Y-22592D01*
X49319Y-22614D01*
X49347Y-22623D01*
X49414Y-22633D01*
X49459Y-22631D01*
X49479Y-22625D01*
X49502Y-22598D01*
X49508Y-22553D01*
X49508Y-23067D01*
X49484Y-23069D01*
X49484Y-22865D01*
X49480Y-22836D01*
X49466Y-22812D01*
X49435Y-22785D01*
X49387Y-22760D01*
X49335Y-22742D01*
X49290Y-22735D01*
X49267Y-22742D01*
X49257Y-22767D01*
X49245Y-22813D01*
X49243Y-22832D01*
X49237Y-22880D01*
X49243Y-22904D01*
X49266Y-22916D01*
X49283Y-22920D01*
X49326Y-22930D01*
X49353Y-22937D01*
X49410Y-22943D01*
X49455Y-22914D01*
X49464Y-22901D01*
X49484Y-22865D01*
X49484Y-23069D01*
X49455Y-23071D01*
X49346Y-23061D01*
X49215Y-23034D01*
X49192Y-23029D01*
X49121Y-23009D01*
X49064Y-22993D01*
X49029Y-22982D01*
X49024Y-22979D01*
X49026Y-22960D01*
X49036Y-22913D01*
X49053Y-22843D01*
X49075Y-22759D01*
X49099Y-22666D01*
X49124Y-22571D01*
X49149Y-22480D01*
X49171Y-22400D01*
X49189Y-22339D01*
X49202Y-22302D01*
X49205Y-22295D01*
X49231Y-22290D01*
X49283Y-22298D01*
X49351Y-22315D01*
X49427Y-22339D01*
X49503Y-22366D01*
X49571Y-22395D01*
X49622Y-22422D01*
X49631Y-22429D01*
X49672Y-22467D01*
X49688Y-22507D01*
X49691Y-22548D01*
X49691Y-22548D01*
X49691Y-22548D01*
G37*
G36*
X47685Y-22903D02*
X47506Y-22926D01*
X47422Y-22937D01*
X47345Y-22947D01*
X47287Y-22955D01*
X47269Y-22959D01*
X47222Y-22960D01*
X47202Y-22944D01*
X47197Y-22918D01*
X47190Y-22864D01*
X47180Y-22790D01*
X47170Y-22700D01*
X47159Y-22604D01*
X47148Y-22507D01*
X47138Y-22416D01*
X47130Y-22337D01*
X47124Y-22279D01*
X47122Y-22247D01*
X47122Y-22243D01*
X47142Y-22239D01*
X47185Y-22231D01*
X47211Y-22227D01*
X47294Y-22215D01*
X47327Y-22509D01*
X47360Y-22803D01*
X47472Y-22790D01*
X47559Y-22781D01*
X47617Y-22776D01*
X47652Y-22778D01*
X47670Y-22788D01*
X47677Y-22808D01*
X47680Y-22838D01*
X47685Y-22903D01*
X47685Y-22903D01*
X47685Y-22903D01*
G37*
G36*
X48707Y-22198D02*
X48697Y-22285D01*
X48692Y-22344D01*
X48685Y-22425D01*
X48679Y-22513D01*
X48677Y-22536D01*
X48664Y-22654D01*
X48638Y-22743D01*
X48599Y-22809D01*
X48543Y-22859D01*
X48523Y-22871D01*
X48441Y-22901D01*
X48342Y-22911D01*
X48240Y-22902D01*
X48152Y-22875D01*
X48147Y-22873D01*
X48091Y-22838D01*
X48049Y-22795D01*
X48020Y-22738D01*
X48002Y-22663D01*
X47995Y-22565D01*
X47997Y-22439D01*
X48005Y-22312D01*
X48018Y-22162D01*
X48107Y-22162D01*
X48198Y-22162D01*
X48184Y-22367D01*
X48180Y-22450D01*
X48176Y-22518D01*
X48173Y-22565D01*
X48172Y-22582D01*
X48182Y-22668D01*
X48214Y-22726D01*
X48270Y-22757D01*
X48327Y-22764D01*
X48383Y-22761D01*
X48425Y-22747D01*
X48457Y-22719D01*
X48479Y-22671D01*
X48495Y-22601D01*
X48506Y-22502D01*
X48514Y-22394D01*
X48527Y-22198D01*
X48616Y-22198D01*
X48707Y-22198D01*
X48707Y-22198D01*
X48707Y-22198D01*
G37*
G54D13*
X90177Y-35181D03*
G54D14*
X90177Y-36181D03*
X90177Y-37181D03*
X90177Y-38181D03*
X90177Y-39181D03*
X90177Y-40181D03*
X90177Y-41181D03*
X90177Y-42181D03*
X90177Y-43181D03*
X90177Y-44181D03*
X90177Y-45181D03*
X90177Y-46181D03*
X90177Y-47181D03*
X90177Y-48181D03*
X90177Y-49181D03*
X90177Y-50181D03*
G54D15*
X39134Y-20079D03*
X41102Y-20079D03*
X43071Y-20079D03*
X45039Y-20079D03*
X47008Y-20079D03*
X48976Y-20079D03*
G54D16*
X67892Y-21113D03*
X58042Y-21113D03*
G54D17*
X60842Y-21663D03*
G54D18*
X61892Y-21663D03*
X62992Y-21663D03*
X64042Y-21663D03*
X65142Y-21663D03*
X61342Y-20563D03*
X62442Y-20563D03*
X63492Y-20563D03*
X64592Y-20563D03*
G54D19*
X66992Y-45272D03*
G54D20*
X66992Y-44272D03*
X66992Y-43272D03*
X66992Y-42272D03*
X66992Y-41272D03*
X66992Y-40272D03*
X66992Y-39272D03*
X66992Y-38272D03*
X63992Y-38272D03*
X63992Y-39272D03*
X63992Y-40272D03*
X63992Y-41272D03*
X63992Y-42272D03*
X63992Y-43272D03*
X63992Y-44272D03*
X63992Y-45272D03*
G54D19*
X89728Y-32484D03*
G54D20*
X89728Y-31484D03*
X89728Y-30484D03*
X89728Y-29484D03*
X86728Y-29484D03*
X86728Y-30484D03*
X86728Y-31484D03*
X86728Y-32484D03*
G54D19*
X71146Y-32484D03*
G54D20*
X71146Y-31484D03*
X71146Y-30484D03*
X71146Y-29484D03*
X68146Y-29484D03*
X68146Y-30484D03*
X68146Y-31484D03*
X68146Y-32484D03*
G54D19*
X77346Y-32484D03*
G54D20*
X77346Y-31484D03*
X77346Y-30484D03*
X77346Y-29484D03*
X74346Y-29484D03*
X74346Y-30484D03*
X74346Y-31484D03*
X74346Y-32484D03*
G54D19*
X84079Y-32484D03*
G54D20*
X84079Y-31484D03*
X84079Y-30484D03*
X84079Y-29484D03*
X81079Y-29484D03*
X81079Y-30484D03*
X81079Y-31484D03*
X81079Y-32484D03*
G54D21*
X78461Y-56693D03*
X76461Y-56693D03*
G54D22*
X44689Y-56299D03*
G54D21*
X38189Y-55299D03*
G54D23*
X38189Y-56299D03*
G54D21*
X38189Y-57299D03*
G54D22*
X62209Y-56240D03*
G54D21*
X55709Y-55240D03*
G54D23*
X55709Y-56240D03*
G54D21*
X55709Y-57240D03*
G54D17*
X88732Y-53083D03*
G54D18*
X88732Y-54083D03*
X87732Y-53083D03*
X87732Y-54083D03*
X86732Y-53083D03*
X86732Y-54083D03*
X85732Y-53083D03*
X85732Y-54083D03*
X84732Y-53083D03*
X84732Y-54083D03*
G54D24*
X33465Y-41634D03*
X31103Y-40847D03*
X31103Y-36043D03*
X35827Y-36043D03*
X35827Y-40847D03*
X52480Y-41634D03*
X50118Y-40847D03*
X50118Y-36043D03*
X54842Y-36043D03*
X54842Y-40847D03*
X58799Y-41654D03*
X56437Y-40867D03*
X56437Y-36063D03*
X61161Y-36063D03*
X61161Y-40867D03*
X39783Y-41634D03*
X37421Y-40847D03*
X37421Y-36043D03*
X42145Y-36043D03*
X42145Y-40847D03*
X46122Y-41634D03*
X43760Y-40847D03*
X43760Y-36043D03*
X48484Y-36043D03*
X48484Y-40847D03*
G54D25*
X74607Y-18307D03*
X79607Y-18307D03*
G54D18*
X78504Y-20000D03*
X78110Y-19213D03*
X77717Y-20000D03*
X77323Y-19213D03*
X76929Y-20000D03*
X76536Y-19213D03*
X76142Y-20000D03*
G54D26*
X73918Y-19646D03*
X80315Y-19646D03*
G54D18*
X78898Y-21890D03*
X75315Y-21890D03*
X79803Y-21890D03*
X74429Y-21900D03*
G54D17*
X75748Y-19213D03*
G54D25*
X82264Y-18307D03*
X87264Y-18307D03*
G54D18*
X86161Y-20000D03*
X85767Y-19213D03*
X85374Y-20000D03*
X84980Y-19213D03*
X84586Y-20000D03*
X84193Y-19213D03*
X83799Y-20000D03*
G54D26*
X81575Y-19646D03*
X87972Y-19646D03*
G54D18*
X86555Y-21890D03*
X82972Y-21890D03*
X87460Y-21890D03*
X82086Y-21900D03*
G54D17*
X83405Y-19213D03*
G54D14*
X34823Y-55343D03*
X34823Y-54343D03*
X79142Y-58346D03*
X78142Y-58346D03*
X75839Y-58346D03*
X76839Y-58346D03*
X78713Y-44724D03*
X79713Y-44724D03*
X78673Y-43051D03*
X79673Y-43051D03*
X34843Y-56724D03*
X34843Y-57724D03*
G54D13*
X74587Y-44333D03*
G54D14*
X74587Y-42833D03*
G54D13*
X71339Y-41636D03*
G54D14*
X71339Y-40136D03*
G54D13*
X71339Y-44289D03*
G54D14*
X71339Y-45789D03*
G54D13*
X71280Y-36533D03*
G54D14*
X71280Y-38033D03*
G54D13*
X30689Y-57738D03*
G54D14*
X30689Y-56238D03*
G54D13*
X36488Y-27402D03*
G54D14*
X37488Y-27402D03*
G54D13*
X85177Y-40280D03*
G54D14*
X85177Y-37280D03*
G54D13*
X33780Y-27386D03*
G54D14*
X33780Y-24386D03*
G54D13*
X60614Y-43917D03*
G54D14*
X57614Y-43917D03*
G54D13*
X54335Y-43937D03*
G54D14*
X51335Y-43937D03*
G54D13*
X47681Y-43878D03*
G54D14*
X44681Y-43878D03*
G54D13*
X41736Y-43898D03*
G54D14*
X38736Y-43898D03*
G54D13*
X35102Y-43957D03*
G54D14*
X32102Y-43957D03*
G54D13*
X78252Y-38740D03*
G54D14*
X75252Y-38740D03*
G54D13*
X77287Y-36181D03*
G54D14*
X74287Y-36181D03*
G54D13*
X79193Y-40280D03*
G54D14*
X79193Y-37280D03*
G54D24*
X33287Y-18622D03*
X31319Y-18622D03*
G54D14*
X34921Y-50752D03*
X34921Y-47752D03*
X41220Y-50772D03*
X41220Y-47772D03*
X47539Y-50575D03*
X47539Y-47575D03*
X54311Y-50535D03*
X54311Y-47535D03*
X74583Y-46161D03*
X77583Y-46161D03*
X63193Y-49035D03*
X60193Y-49035D03*
X90220Y-51161D03*
X87220Y-51161D03*
X86734Y-56220D03*
X90234Y-56220D03*
G54D27*
X86449Y-60783D03*
X82449Y-59783D03*
X86449Y-58783D03*
G54D28*
X47422Y-60138D03*
X46122Y-60138D03*
X75708Y-27402D03*
X77008Y-27402D03*
G54D13*
X51130Y-48531D03*
G54D14*
X51130Y-47531D03*
X50130Y-47531D03*
G54D13*
X44732Y-48551D03*
G54D14*
X44732Y-47551D03*
X43732Y-47551D03*
G54D13*
X38394Y-48807D03*
G54D14*
X38394Y-47807D03*
X37394Y-47807D03*
G54D13*
X32134Y-48787D03*
G54D14*
X32134Y-47787D03*
X31134Y-47787D03*
G54D13*
X57646Y-48551D03*
G54D14*
X57646Y-47551D03*
X56646Y-47551D03*
G54D17*
X83161Y-35531D03*
G54D18*
X82161Y-35531D03*
X81161Y-35531D03*
X80161Y-35531D03*
X79161Y-35531D03*
G54D28*
X50296Y-60138D03*
X48996Y-60138D03*
G54D17*
X77283Y-43043D03*
G54D18*
X77283Y-44043D03*
G54D17*
X81083Y-44043D03*
G54D18*
X81083Y-43043D03*
G54D29*
X33701Y-45669D03*
X33602Y-52776D03*
X75059Y-61260D03*
X72264Y-58602D03*
X88602Y-36181D03*
X85669Y-34193D03*
X68524Y-34508D03*
X78346Y-33701D03*
X74193Y-33661D03*
X61949Y-50079D03*
X40492Y-59035D03*
X72736Y-20157D03*
X73150Y-23406D03*
X43484Y-60138D03*
X69980Y-31496D03*
X75886Y-23268D03*
X75815Y-30484D03*
X79606Y-23091D03*
X82185Y-25433D03*
X82185Y-31398D03*
X86378Y-46220D03*
X83209Y-46260D03*
X86949Y-47539D03*
X83228Y-47618D03*
X76654Y-47677D03*
X85728Y-49941D03*
X82382Y-49882D03*
X65157Y-47559D03*
X75276Y-48622D03*
X88799Y-51339D03*
X82854Y-45453D03*
X85748Y-45512D03*
X75807Y-47972D03*
X85709Y-48169D03*
X83268Y-46909D03*
X86969Y-46909D03*
X86811Y-51260D03*
X82776Y-49488D03*
X82835Y-30551D03*
X87874Y-23839D03*
X91142Y-37126D03*
X84528Y-59823D03*
X87008Y-39764D03*
X82894Y-43996D03*
X88012Y-40531D03*
X83386Y-44823D03*
X82776Y-50335D03*
X65197Y-48484D03*
X86398Y-27185D03*
X85531Y-30354D03*
X88346Y-26969D03*
X88307Y-31142D03*
X76043Y-31476D03*
X77717Y-23917D03*
X75197Y-24744D03*
X69646Y-30492D03*
X73346Y-37717D03*
X81398Y-39094D03*
G54D30*
X33701Y-52677D02*
X33701Y-45669D01*
X33602Y-52776D02*
X33701Y-52677D01*
G54D31*
X74922Y-61260D02*
X75059Y-61260D01*
X72264Y-58602D02*
X74922Y-61260D01*
X86181Y-35374D02*
X85216Y-34409D01*
X87795Y-35374D02*
X86181Y-35374D01*
X88602Y-36181D02*
X87795Y-35374D01*
X77067Y-34094D02*
X77067Y-33661D01*
X77382Y-34409D02*
X77067Y-34094D01*
X85453Y-34409D02*
X85216Y-34409D01*
X85216Y-34409D02*
X77382Y-34409D01*
X85669Y-34193D02*
X85453Y-34409D01*
X74764Y-34114D02*
X74764Y-33661D01*
X74370Y-34508D02*
X74764Y-34114D01*
X68524Y-34508D02*
X74370Y-34508D01*
X78306Y-33661D02*
X77067Y-33661D01*
X78346Y-33701D02*
X78306Y-33661D01*
X77067Y-33661D02*
X74764Y-33661D01*
X74764Y-33661D02*
X74193Y-33661D01*
X40492Y-54390D02*
X40492Y-59035D01*
X42343Y-52539D02*
X40492Y-54390D01*
X59489Y-52539D02*
X42343Y-52539D01*
X61949Y-50079D02*
X59489Y-52539D01*
X49940Y-59035D02*
X50296Y-59391D01*
X50296Y-59391D02*
X50296Y-60138D01*
X40492Y-59035D02*
X49940Y-59035D01*
X72736Y-22992D02*
X72736Y-20157D01*
X73150Y-23406D02*
X72736Y-22992D01*
X46122Y-60138D02*
X43484Y-60138D01*
X73681Y-28071D02*
X70964Y-28071D01*
X70964Y-28071D02*
X70177Y-28858D01*
X70177Y-28858D02*
X70177Y-31299D01*
X70177Y-31299D02*
X69980Y-31496D01*
X75846Y-25906D02*
X73681Y-28071D01*
X75846Y-23308D02*
X75846Y-25906D01*
X75886Y-23268D02*
X75846Y-23308D01*
X77519Y-23091D02*
X79606Y-23091D01*
X76141Y-24469D02*
X77519Y-23091D01*
X76122Y-24469D02*
X76122Y-26457D01*
X76122Y-26457D02*
X76122Y-27126D01*
X76122Y-27126D02*
X76122Y-28288D01*
X76122Y-28288D02*
X76122Y-30177D01*
X76122Y-30177D02*
X75815Y-30484D01*
X76122Y-24469D02*
X76141Y-24469D01*
X75846Y-27402D02*
X76122Y-27126D01*
X75708Y-27402D02*
X75846Y-27402D01*
X76122Y-26535D02*
X75708Y-26949D01*
X75708Y-26949D02*
X75708Y-27402D01*
X76122Y-26457D02*
X76122Y-26535D01*
X75708Y-27874D02*
X76122Y-28288D01*
X75708Y-27402D02*
X75708Y-27874D01*
X82185Y-25433D02*
X82185Y-31398D01*
X48996Y-60138D02*
X47422Y-60138D01*
X83249Y-46220D02*
X86378Y-46220D01*
X83209Y-46260D02*
X83249Y-46220D01*
X83307Y-47539D02*
X86949Y-47539D01*
X83228Y-47618D02*
X83307Y-47539D01*
X85158Y-48760D02*
X81319Y-48760D01*
X85748Y-49350D02*
X85748Y-49921D01*
X81319Y-48760D02*
X80827Y-49252D01*
X80827Y-49252D02*
X78229Y-49252D01*
X78229Y-49252D02*
X76654Y-47677D01*
X85748Y-49921D02*
X85728Y-49941D01*
X85748Y-49350D02*
X85158Y-48760D01*
X73386Y-47559D02*
X65157Y-47559D01*
X75768Y-49941D02*
X73386Y-47559D01*
X82323Y-49941D02*
X75768Y-49941D01*
X82382Y-49882D02*
X82323Y-49941D01*
X83622Y-49114D02*
X84558Y-50050D01*
X88189Y-50729D02*
X88799Y-51339D01*
X76241Y-49587D02*
X81437Y-49587D01*
X75276Y-48622D02*
X76241Y-49587D01*
X84716Y-50050D02*
X85099Y-50433D01*
X82618Y-49114D02*
X83622Y-49114D01*
X85099Y-50433D02*
X87874Y-50433D01*
X87874Y-50433D02*
X88189Y-50748D01*
X88189Y-50748D02*
X88189Y-50729D01*
X84558Y-50050D02*
X84716Y-50050D01*
X81437Y-49527D02*
X81830Y-49134D01*
X81830Y-49134D02*
X82618Y-49134D01*
X82618Y-49134D02*
X82618Y-49114D01*
X81437Y-49587D02*
X81437Y-49527D01*
X85689Y-45453D02*
X82854Y-45453D01*
X85748Y-45512D02*
X85689Y-45453D01*
X76200Y-46949D02*
X75807Y-47342D01*
X77186Y-46949D02*
X76200Y-46949D01*
X78643Y-48406D02*
X77186Y-46949D01*
X85472Y-48406D02*
X78643Y-48406D01*
X85709Y-48169D02*
X85472Y-48406D01*
X75807Y-47342D02*
X75807Y-47972D01*
X86969Y-46909D02*
X83268Y-46909D01*
X83288Y-49961D02*
X84114Y-50787D01*
X84114Y-50787D02*
X86338Y-50787D01*
X86338Y-50787D02*
X86811Y-51260D01*
X82776Y-49488D02*
X83249Y-49961D01*
X83249Y-49961D02*
X83288Y-49961D01*
X82835Y-28524D02*
X82835Y-30551D01*
X87874Y-23839D02*
X83189Y-28524D01*
X83189Y-28524D02*
X82835Y-28524D01*
X91319Y-37303D02*
X91142Y-37126D01*
X91319Y-57224D02*
X91319Y-37303D01*
X88937Y-59606D02*
X91319Y-57224D01*
X84745Y-59606D02*
X88937Y-59606D01*
X84528Y-59823D02*
X84745Y-59606D01*
X85472Y-43681D02*
X85571Y-43681D01*
X87008Y-42244D02*
X87008Y-39764D01*
X85571Y-43681D02*
X87008Y-42244D01*
X85157Y-43996D02*
X82894Y-43996D01*
X85472Y-43681D02*
X85157Y-43996D01*
X88012Y-42894D02*
X88012Y-40531D01*
X86280Y-44626D02*
X88012Y-42894D01*
X83583Y-44626D02*
X86280Y-44626D01*
X83386Y-44823D02*
X83583Y-44626D01*
X82776Y-51653D02*
X82776Y-50335D01*
X81673Y-52756D02*
X82776Y-51653D01*
X69469Y-52756D02*
X81673Y-52756D01*
X65197Y-48484D02*
X69469Y-52756D01*
X85531Y-28052D02*
X85531Y-30354D01*
X86398Y-27185D02*
X85531Y-28052D01*
X88346Y-31103D02*
X88346Y-26969D01*
X88307Y-31142D02*
X88346Y-31103D01*
X77008Y-27402D02*
X77008Y-26673D01*
X77008Y-26673D02*
X76417Y-26082D01*
X76417Y-28622D02*
X76574Y-28622D01*
X77008Y-28188D02*
X77008Y-27402D01*
X76574Y-28622D02*
X77008Y-28188D01*
X76417Y-31102D02*
X76043Y-31476D01*
X76417Y-25217D02*
X76417Y-26082D01*
X77717Y-23917D02*
X76417Y-25217D01*
X76417Y-28622D02*
X76417Y-31102D01*
X70690Y-27657D02*
X73584Y-27657D01*
X74547Y-26694D02*
X74547Y-25394D01*
X73584Y-27657D02*
X74547Y-26694D01*
X75197Y-24744D02*
X74547Y-25394D01*
X69646Y-28701D02*
X69646Y-30492D01*
X70690Y-27657D02*
X69646Y-28701D01*
X73346Y-39134D02*
X73346Y-37717D01*
X75492Y-41280D02*
X73346Y-39134D01*
X80688Y-41280D02*
X75492Y-41280D01*
X81417Y-40551D02*
X80688Y-41280D01*
X81417Y-39113D02*
X81417Y-40551D01*
X81398Y-39094D02*
X81417Y-39113D01*
M02*
