G04 #@! TF.GenerationSoftware,KiCad,Pcbnew,(5.0.2)-1*
G04 #@! TF.CreationDate,2019-01-28T20:15:30+01:00*
G04 #@! TF.ProjectId,plyta_glowna,706c7974-615f-4676-9c6f-776e612e6b69,rev?*
G04 #@! TF.SameCoordinates,Original*
G04 #@! TF.FileFunction,Soldermask,Bot*
G04 #@! TF.FilePolarity,Negative*
%FSLAX46Y46*%
G04 Gerber Fmt 4.6, Leading zero omitted, Abs format (unit mm)*
G04 Created by KiCad (PCBNEW (5.0.2)-1) date 2019-01-28 20:15:30*
%MOMM*%
%LPD*%
G01*
G04 APERTURE LIST*
%ADD10C,0.100000*%
G04 APERTURE END LIST*
D10*
G36*
X94868239Y-112635467D02*
X95182282Y-112697934D01*
X95773926Y-112943001D01*
X96063523Y-113136504D01*
X96306395Y-113298786D01*
X96759214Y-113751605D01*
X96759216Y-113751608D01*
X97114999Y-114284074D01*
X97236724Y-114577944D01*
X97360066Y-114875719D01*
X97485000Y-115503803D01*
X97485000Y-116144197D01*
X97422533Y-116458239D01*
X97360066Y-116772282D01*
X97114999Y-117363926D01*
X96871064Y-117729000D01*
X96759214Y-117896395D01*
X96306395Y-118349214D01*
X96306392Y-118349216D01*
X95773926Y-118704999D01*
X95182282Y-118950066D01*
X94868239Y-119012533D01*
X94554197Y-119075000D01*
X93913803Y-119075000D01*
X93599761Y-119012533D01*
X93285718Y-118950066D01*
X92694074Y-118704999D01*
X92161608Y-118349216D01*
X92161605Y-118349214D01*
X91708786Y-117896395D01*
X91596936Y-117729000D01*
X91353001Y-117363926D01*
X91107934Y-116772282D01*
X91045467Y-116458239D01*
X90983000Y-116144197D01*
X90983000Y-115503803D01*
X91107934Y-114875719D01*
X91231276Y-114577944D01*
X91353001Y-114284074D01*
X91708784Y-113751608D01*
X91708786Y-113751605D01*
X92161605Y-113298786D01*
X92404477Y-113136504D01*
X92694074Y-112943001D01*
X93285718Y-112697934D01*
X93599761Y-112635467D01*
X93913803Y-112573000D01*
X94554197Y-112573000D01*
X94868239Y-112635467D01*
X94868239Y-112635467D01*
G37*
G36*
X49894443Y-116834519D02*
X49960627Y-116841037D01*
X50073853Y-116875384D01*
X50130467Y-116892557D01*
X50269087Y-116966652D01*
X50286991Y-116976222D01*
X50322729Y-117005552D01*
X50424186Y-117088814D01*
X50507448Y-117190271D01*
X50536778Y-117226009D01*
X50536779Y-117226011D01*
X50620443Y-117382533D01*
X50637616Y-117439147D01*
X50671963Y-117552373D01*
X50689359Y-117729000D01*
X50671963Y-117905627D01*
X50651812Y-117972056D01*
X50620443Y-118075467D01*
X50546348Y-118214087D01*
X50536778Y-118231991D01*
X50507448Y-118267729D01*
X50424186Y-118369186D01*
X50322729Y-118452448D01*
X50286991Y-118481778D01*
X50286989Y-118481779D01*
X50130467Y-118565443D01*
X50073853Y-118582616D01*
X49960627Y-118616963D01*
X49894442Y-118623482D01*
X49828260Y-118630000D01*
X49739740Y-118630000D01*
X49673558Y-118623482D01*
X49607373Y-118616963D01*
X49494147Y-118582616D01*
X49437533Y-118565443D01*
X49281011Y-118481779D01*
X49281009Y-118481778D01*
X49245271Y-118452448D01*
X49143814Y-118369186D01*
X49060552Y-118267729D01*
X49031222Y-118231991D01*
X49021652Y-118214087D01*
X48947557Y-118075467D01*
X48916188Y-117972056D01*
X48896037Y-117905627D01*
X48878641Y-117729000D01*
X48896037Y-117552373D01*
X48930384Y-117439147D01*
X48947557Y-117382533D01*
X49031221Y-117226011D01*
X49031222Y-117226009D01*
X49060552Y-117190271D01*
X49143814Y-117088814D01*
X49245271Y-117005552D01*
X49281009Y-116976222D01*
X49298913Y-116966652D01*
X49437533Y-116892557D01*
X49494147Y-116875384D01*
X49607373Y-116841037D01*
X49673557Y-116834519D01*
X49739740Y-116828000D01*
X49828260Y-116828000D01*
X49894443Y-116834519D01*
X49894443Y-116834519D01*
G37*
G36*
X47354443Y-116834519D02*
X47420627Y-116841037D01*
X47533853Y-116875384D01*
X47590467Y-116892557D01*
X47729087Y-116966652D01*
X47746991Y-116976222D01*
X47782729Y-117005552D01*
X47884186Y-117088814D01*
X47967448Y-117190271D01*
X47996778Y-117226009D01*
X47996779Y-117226011D01*
X48080443Y-117382533D01*
X48097616Y-117439147D01*
X48131963Y-117552373D01*
X48149359Y-117729000D01*
X48131963Y-117905627D01*
X48111812Y-117972056D01*
X48080443Y-118075467D01*
X48006348Y-118214087D01*
X47996778Y-118231991D01*
X47967448Y-118267729D01*
X47884186Y-118369186D01*
X47782729Y-118452448D01*
X47746991Y-118481778D01*
X47746989Y-118481779D01*
X47590467Y-118565443D01*
X47533853Y-118582616D01*
X47420627Y-118616963D01*
X47354442Y-118623482D01*
X47288260Y-118630000D01*
X47199740Y-118630000D01*
X47133558Y-118623482D01*
X47067373Y-118616963D01*
X46954147Y-118582616D01*
X46897533Y-118565443D01*
X46741011Y-118481779D01*
X46741009Y-118481778D01*
X46705271Y-118452448D01*
X46603814Y-118369186D01*
X46520552Y-118267729D01*
X46491222Y-118231991D01*
X46481652Y-118214087D01*
X46407557Y-118075467D01*
X46376188Y-117972056D01*
X46356037Y-117905627D01*
X46338641Y-117729000D01*
X46356037Y-117552373D01*
X46390384Y-117439147D01*
X46407557Y-117382533D01*
X46491221Y-117226011D01*
X46491222Y-117226009D01*
X46520552Y-117190271D01*
X46603814Y-117088814D01*
X46705271Y-117005552D01*
X46741009Y-116976222D01*
X46758913Y-116966652D01*
X46897533Y-116892557D01*
X46954147Y-116875384D01*
X47067373Y-116841037D01*
X47133557Y-116834519D01*
X47199740Y-116828000D01*
X47288260Y-116828000D01*
X47354443Y-116834519D01*
X47354443Y-116834519D01*
G37*
G36*
X43065000Y-118630000D02*
X41263000Y-118630000D01*
X41263000Y-116828000D01*
X43065000Y-116828000D01*
X43065000Y-118630000D01*
X43065000Y-118630000D01*
G37*
G36*
X44814443Y-116834519D02*
X44880627Y-116841037D01*
X44993853Y-116875384D01*
X45050467Y-116892557D01*
X45189087Y-116966652D01*
X45206991Y-116976222D01*
X45242729Y-117005552D01*
X45344186Y-117088814D01*
X45427448Y-117190271D01*
X45456778Y-117226009D01*
X45456779Y-117226011D01*
X45540443Y-117382533D01*
X45557616Y-117439147D01*
X45591963Y-117552373D01*
X45609359Y-117729000D01*
X45591963Y-117905627D01*
X45571812Y-117972056D01*
X45540443Y-118075467D01*
X45466348Y-118214087D01*
X45456778Y-118231991D01*
X45427448Y-118267729D01*
X45344186Y-118369186D01*
X45242729Y-118452448D01*
X45206991Y-118481778D01*
X45206989Y-118481779D01*
X45050467Y-118565443D01*
X44993853Y-118582616D01*
X44880627Y-118616963D01*
X44814442Y-118623482D01*
X44748260Y-118630000D01*
X44659740Y-118630000D01*
X44593558Y-118623482D01*
X44527373Y-118616963D01*
X44414147Y-118582616D01*
X44357533Y-118565443D01*
X44201011Y-118481779D01*
X44201009Y-118481778D01*
X44165271Y-118452448D01*
X44063814Y-118369186D01*
X43980552Y-118267729D01*
X43951222Y-118231991D01*
X43941652Y-118214087D01*
X43867557Y-118075467D01*
X43836188Y-117972056D01*
X43816037Y-117905627D01*
X43798641Y-117729000D01*
X43816037Y-117552373D01*
X43850384Y-117439147D01*
X43867557Y-117382533D01*
X43951221Y-117226011D01*
X43951222Y-117226009D01*
X43980552Y-117190271D01*
X44063814Y-117088814D01*
X44165271Y-117005552D01*
X44201009Y-116976222D01*
X44218913Y-116966652D01*
X44357533Y-116892557D01*
X44414147Y-116875384D01*
X44527373Y-116841037D01*
X44593557Y-116834519D01*
X44659740Y-116828000D01*
X44748260Y-116828000D01*
X44814443Y-116834519D01*
X44814443Y-116834519D01*
G37*
G36*
X59321000Y-112026000D02*
X57519000Y-112026000D01*
X57519000Y-110224000D01*
X59321000Y-110224000D01*
X59321000Y-112026000D01*
X59321000Y-112026000D01*
G37*
G36*
X68690443Y-110230519D02*
X68756627Y-110237037D01*
X68869853Y-110271384D01*
X68926467Y-110288557D01*
X69065087Y-110362652D01*
X69082991Y-110372222D01*
X69118729Y-110401552D01*
X69220186Y-110484814D01*
X69303448Y-110586271D01*
X69332778Y-110622009D01*
X69332779Y-110622011D01*
X69416443Y-110778533D01*
X69416443Y-110778534D01*
X69467963Y-110948373D01*
X69485359Y-111125000D01*
X69467963Y-111301627D01*
X69433616Y-111414853D01*
X69416443Y-111471467D01*
X69342348Y-111610087D01*
X69332778Y-111627991D01*
X69303448Y-111663729D01*
X69220186Y-111765186D01*
X69118729Y-111848448D01*
X69082991Y-111877778D01*
X69082989Y-111877779D01*
X68926467Y-111961443D01*
X68869853Y-111978616D01*
X68756627Y-112012963D01*
X68690442Y-112019482D01*
X68624260Y-112026000D01*
X68535740Y-112026000D01*
X68469558Y-112019482D01*
X68403373Y-112012963D01*
X68290147Y-111978616D01*
X68233533Y-111961443D01*
X68077011Y-111877779D01*
X68077009Y-111877778D01*
X68041271Y-111848448D01*
X67939814Y-111765186D01*
X67856552Y-111663729D01*
X67827222Y-111627991D01*
X67817652Y-111610087D01*
X67743557Y-111471467D01*
X67726384Y-111414853D01*
X67692037Y-111301627D01*
X67674641Y-111125000D01*
X67692037Y-110948373D01*
X67743557Y-110778534D01*
X67743557Y-110778533D01*
X67827221Y-110622011D01*
X67827222Y-110622009D01*
X67856552Y-110586271D01*
X67939814Y-110484814D01*
X68041271Y-110401552D01*
X68077009Y-110372222D01*
X68094913Y-110362652D01*
X68233533Y-110288557D01*
X68290147Y-110271384D01*
X68403373Y-110237037D01*
X68469557Y-110230519D01*
X68535740Y-110224000D01*
X68624260Y-110224000D01*
X68690443Y-110230519D01*
X68690443Y-110230519D01*
G37*
G36*
X66150443Y-110230519D02*
X66216627Y-110237037D01*
X66329853Y-110271384D01*
X66386467Y-110288557D01*
X66525087Y-110362652D01*
X66542991Y-110372222D01*
X66578729Y-110401552D01*
X66680186Y-110484814D01*
X66763448Y-110586271D01*
X66792778Y-110622009D01*
X66792779Y-110622011D01*
X66876443Y-110778533D01*
X66876443Y-110778534D01*
X66927963Y-110948373D01*
X66945359Y-111125000D01*
X66927963Y-111301627D01*
X66893616Y-111414853D01*
X66876443Y-111471467D01*
X66802348Y-111610087D01*
X66792778Y-111627991D01*
X66763448Y-111663729D01*
X66680186Y-111765186D01*
X66578729Y-111848448D01*
X66542991Y-111877778D01*
X66542989Y-111877779D01*
X66386467Y-111961443D01*
X66329853Y-111978616D01*
X66216627Y-112012963D01*
X66150442Y-112019482D01*
X66084260Y-112026000D01*
X65995740Y-112026000D01*
X65929558Y-112019482D01*
X65863373Y-112012963D01*
X65750147Y-111978616D01*
X65693533Y-111961443D01*
X65537011Y-111877779D01*
X65537009Y-111877778D01*
X65501271Y-111848448D01*
X65399814Y-111765186D01*
X65316552Y-111663729D01*
X65287222Y-111627991D01*
X65277652Y-111610087D01*
X65203557Y-111471467D01*
X65186384Y-111414853D01*
X65152037Y-111301627D01*
X65134641Y-111125000D01*
X65152037Y-110948373D01*
X65203557Y-110778534D01*
X65203557Y-110778533D01*
X65287221Y-110622011D01*
X65287222Y-110622009D01*
X65316552Y-110586271D01*
X65399814Y-110484814D01*
X65501271Y-110401552D01*
X65537009Y-110372222D01*
X65554913Y-110362652D01*
X65693533Y-110288557D01*
X65750147Y-110271384D01*
X65863373Y-110237037D01*
X65929557Y-110230519D01*
X65995740Y-110224000D01*
X66084260Y-110224000D01*
X66150443Y-110230519D01*
X66150443Y-110230519D01*
G37*
G36*
X63610443Y-110230519D02*
X63676627Y-110237037D01*
X63789853Y-110271384D01*
X63846467Y-110288557D01*
X63985087Y-110362652D01*
X64002991Y-110372222D01*
X64038729Y-110401552D01*
X64140186Y-110484814D01*
X64223448Y-110586271D01*
X64252778Y-110622009D01*
X64252779Y-110622011D01*
X64336443Y-110778533D01*
X64336443Y-110778534D01*
X64387963Y-110948373D01*
X64405359Y-111125000D01*
X64387963Y-111301627D01*
X64353616Y-111414853D01*
X64336443Y-111471467D01*
X64262348Y-111610087D01*
X64252778Y-111627991D01*
X64223448Y-111663729D01*
X64140186Y-111765186D01*
X64038729Y-111848448D01*
X64002991Y-111877778D01*
X64002989Y-111877779D01*
X63846467Y-111961443D01*
X63789853Y-111978616D01*
X63676627Y-112012963D01*
X63610442Y-112019482D01*
X63544260Y-112026000D01*
X63455740Y-112026000D01*
X63389558Y-112019482D01*
X63323373Y-112012963D01*
X63210147Y-111978616D01*
X63153533Y-111961443D01*
X62997011Y-111877779D01*
X62997009Y-111877778D01*
X62961271Y-111848448D01*
X62859814Y-111765186D01*
X62776552Y-111663729D01*
X62747222Y-111627991D01*
X62737652Y-111610087D01*
X62663557Y-111471467D01*
X62646384Y-111414853D01*
X62612037Y-111301627D01*
X62594641Y-111125000D01*
X62612037Y-110948373D01*
X62663557Y-110778534D01*
X62663557Y-110778533D01*
X62747221Y-110622011D01*
X62747222Y-110622009D01*
X62776552Y-110586271D01*
X62859814Y-110484814D01*
X62961271Y-110401552D01*
X62997009Y-110372222D01*
X63014913Y-110362652D01*
X63153533Y-110288557D01*
X63210147Y-110271384D01*
X63323373Y-110237037D01*
X63389557Y-110230519D01*
X63455740Y-110224000D01*
X63544260Y-110224000D01*
X63610443Y-110230519D01*
X63610443Y-110230519D01*
G37*
G36*
X61070443Y-110230519D02*
X61136627Y-110237037D01*
X61249853Y-110271384D01*
X61306467Y-110288557D01*
X61445087Y-110362652D01*
X61462991Y-110372222D01*
X61498729Y-110401552D01*
X61600186Y-110484814D01*
X61683448Y-110586271D01*
X61712778Y-110622009D01*
X61712779Y-110622011D01*
X61796443Y-110778533D01*
X61796443Y-110778534D01*
X61847963Y-110948373D01*
X61865359Y-111125000D01*
X61847963Y-111301627D01*
X61813616Y-111414853D01*
X61796443Y-111471467D01*
X61722348Y-111610087D01*
X61712778Y-111627991D01*
X61683448Y-111663729D01*
X61600186Y-111765186D01*
X61498729Y-111848448D01*
X61462991Y-111877778D01*
X61462989Y-111877779D01*
X61306467Y-111961443D01*
X61249853Y-111978616D01*
X61136627Y-112012963D01*
X61070442Y-112019482D01*
X61004260Y-112026000D01*
X60915740Y-112026000D01*
X60849558Y-112019482D01*
X60783373Y-112012963D01*
X60670147Y-111978616D01*
X60613533Y-111961443D01*
X60457011Y-111877779D01*
X60457009Y-111877778D01*
X60421271Y-111848448D01*
X60319814Y-111765186D01*
X60236552Y-111663729D01*
X60207222Y-111627991D01*
X60197652Y-111610087D01*
X60123557Y-111471467D01*
X60106384Y-111414853D01*
X60072037Y-111301627D01*
X60054641Y-111125000D01*
X60072037Y-110948373D01*
X60123557Y-110778534D01*
X60123557Y-110778533D01*
X60207221Y-110622011D01*
X60207222Y-110622009D01*
X60236552Y-110586271D01*
X60319814Y-110484814D01*
X60421271Y-110401552D01*
X60457009Y-110372222D01*
X60474913Y-110362652D01*
X60613533Y-110288557D01*
X60670147Y-110271384D01*
X60783373Y-110237037D01*
X60849557Y-110230519D01*
X60915740Y-110224000D01*
X61004260Y-110224000D01*
X61070443Y-110230519D01*
X61070443Y-110230519D01*
G37*
G36*
X58530443Y-107690519D02*
X58596627Y-107697037D01*
X58709853Y-107731384D01*
X58766467Y-107748557D01*
X58905087Y-107822652D01*
X58922991Y-107832222D01*
X58958729Y-107861552D01*
X59060186Y-107944814D01*
X59143448Y-108046271D01*
X59172778Y-108082009D01*
X59172779Y-108082011D01*
X59256443Y-108238533D01*
X59256443Y-108238534D01*
X59307963Y-108408373D01*
X59325359Y-108585000D01*
X59307963Y-108761627D01*
X59273616Y-108874853D01*
X59256443Y-108931467D01*
X59182348Y-109070087D01*
X59172778Y-109087991D01*
X59143448Y-109123729D01*
X59060186Y-109225186D01*
X58958729Y-109308448D01*
X58922991Y-109337778D01*
X58922989Y-109337779D01*
X58766467Y-109421443D01*
X58709853Y-109438616D01*
X58596627Y-109472963D01*
X58530442Y-109479482D01*
X58464260Y-109486000D01*
X58375740Y-109486000D01*
X58309558Y-109479482D01*
X58243373Y-109472963D01*
X58130147Y-109438616D01*
X58073533Y-109421443D01*
X57917011Y-109337779D01*
X57917009Y-109337778D01*
X57881271Y-109308448D01*
X57779814Y-109225186D01*
X57696552Y-109123729D01*
X57667222Y-109087991D01*
X57657652Y-109070087D01*
X57583557Y-108931467D01*
X57566384Y-108874853D01*
X57532037Y-108761627D01*
X57514641Y-108585000D01*
X57532037Y-108408373D01*
X57583557Y-108238534D01*
X57583557Y-108238533D01*
X57667221Y-108082011D01*
X57667222Y-108082009D01*
X57696552Y-108046271D01*
X57779814Y-107944814D01*
X57881271Y-107861552D01*
X57917009Y-107832222D01*
X57934913Y-107822652D01*
X58073533Y-107748557D01*
X58130147Y-107731384D01*
X58243373Y-107697037D01*
X58309557Y-107690519D01*
X58375740Y-107684000D01*
X58464260Y-107684000D01*
X58530443Y-107690519D01*
X58530443Y-107690519D01*
G37*
G36*
X61070443Y-107690519D02*
X61136627Y-107697037D01*
X61249853Y-107731384D01*
X61306467Y-107748557D01*
X61445087Y-107822652D01*
X61462991Y-107832222D01*
X61498729Y-107861552D01*
X61600186Y-107944814D01*
X61683448Y-108046271D01*
X61712778Y-108082009D01*
X61712779Y-108082011D01*
X61796443Y-108238533D01*
X61796443Y-108238534D01*
X61847963Y-108408373D01*
X61865359Y-108585000D01*
X61847963Y-108761627D01*
X61813616Y-108874853D01*
X61796443Y-108931467D01*
X61722348Y-109070087D01*
X61712778Y-109087991D01*
X61683448Y-109123729D01*
X61600186Y-109225186D01*
X61498729Y-109308448D01*
X61462991Y-109337778D01*
X61462989Y-109337779D01*
X61306467Y-109421443D01*
X61249853Y-109438616D01*
X61136627Y-109472963D01*
X61070442Y-109479482D01*
X61004260Y-109486000D01*
X60915740Y-109486000D01*
X60849558Y-109479482D01*
X60783373Y-109472963D01*
X60670147Y-109438616D01*
X60613533Y-109421443D01*
X60457011Y-109337779D01*
X60457009Y-109337778D01*
X60421271Y-109308448D01*
X60319814Y-109225186D01*
X60236552Y-109123729D01*
X60207222Y-109087991D01*
X60197652Y-109070087D01*
X60123557Y-108931467D01*
X60106384Y-108874853D01*
X60072037Y-108761627D01*
X60054641Y-108585000D01*
X60072037Y-108408373D01*
X60123557Y-108238534D01*
X60123557Y-108238533D01*
X60207221Y-108082011D01*
X60207222Y-108082009D01*
X60236552Y-108046271D01*
X60319814Y-107944814D01*
X60421271Y-107861552D01*
X60457009Y-107832222D01*
X60474913Y-107822652D01*
X60613533Y-107748557D01*
X60670147Y-107731384D01*
X60783373Y-107697037D01*
X60849557Y-107690519D01*
X60915740Y-107684000D01*
X61004260Y-107684000D01*
X61070443Y-107690519D01*
X61070443Y-107690519D01*
G37*
G36*
X63610443Y-107690519D02*
X63676627Y-107697037D01*
X63789853Y-107731384D01*
X63846467Y-107748557D01*
X63985087Y-107822652D01*
X64002991Y-107832222D01*
X64038729Y-107861552D01*
X64140186Y-107944814D01*
X64223448Y-108046271D01*
X64252778Y-108082009D01*
X64252779Y-108082011D01*
X64336443Y-108238533D01*
X64336443Y-108238534D01*
X64387963Y-108408373D01*
X64405359Y-108585000D01*
X64387963Y-108761627D01*
X64353616Y-108874853D01*
X64336443Y-108931467D01*
X64262348Y-109070087D01*
X64252778Y-109087991D01*
X64223448Y-109123729D01*
X64140186Y-109225186D01*
X64038729Y-109308448D01*
X64002991Y-109337778D01*
X64002989Y-109337779D01*
X63846467Y-109421443D01*
X63789853Y-109438616D01*
X63676627Y-109472963D01*
X63610442Y-109479482D01*
X63544260Y-109486000D01*
X63455740Y-109486000D01*
X63389558Y-109479482D01*
X63323373Y-109472963D01*
X63210147Y-109438616D01*
X63153533Y-109421443D01*
X62997011Y-109337779D01*
X62997009Y-109337778D01*
X62961271Y-109308448D01*
X62859814Y-109225186D01*
X62776552Y-109123729D01*
X62747222Y-109087991D01*
X62737652Y-109070087D01*
X62663557Y-108931467D01*
X62646384Y-108874853D01*
X62612037Y-108761627D01*
X62594641Y-108585000D01*
X62612037Y-108408373D01*
X62663557Y-108238534D01*
X62663557Y-108238533D01*
X62747221Y-108082011D01*
X62747222Y-108082009D01*
X62776552Y-108046271D01*
X62859814Y-107944814D01*
X62961271Y-107861552D01*
X62997009Y-107832222D01*
X63014913Y-107822652D01*
X63153533Y-107748557D01*
X63210147Y-107731384D01*
X63323373Y-107697037D01*
X63389557Y-107690519D01*
X63455740Y-107684000D01*
X63544260Y-107684000D01*
X63610443Y-107690519D01*
X63610443Y-107690519D01*
G37*
G36*
X68690443Y-107690519D02*
X68756627Y-107697037D01*
X68869853Y-107731384D01*
X68926467Y-107748557D01*
X69065087Y-107822652D01*
X69082991Y-107832222D01*
X69118729Y-107861552D01*
X69220186Y-107944814D01*
X69303448Y-108046271D01*
X69332778Y-108082009D01*
X69332779Y-108082011D01*
X69416443Y-108238533D01*
X69416443Y-108238534D01*
X69467963Y-108408373D01*
X69485359Y-108585000D01*
X69467963Y-108761627D01*
X69433616Y-108874853D01*
X69416443Y-108931467D01*
X69342348Y-109070087D01*
X69332778Y-109087991D01*
X69303448Y-109123729D01*
X69220186Y-109225186D01*
X69118729Y-109308448D01*
X69082991Y-109337778D01*
X69082989Y-109337779D01*
X68926467Y-109421443D01*
X68869853Y-109438616D01*
X68756627Y-109472963D01*
X68690442Y-109479482D01*
X68624260Y-109486000D01*
X68535740Y-109486000D01*
X68469558Y-109479482D01*
X68403373Y-109472963D01*
X68290147Y-109438616D01*
X68233533Y-109421443D01*
X68077011Y-109337779D01*
X68077009Y-109337778D01*
X68041271Y-109308448D01*
X67939814Y-109225186D01*
X67856552Y-109123729D01*
X67827222Y-109087991D01*
X67817652Y-109070087D01*
X67743557Y-108931467D01*
X67726384Y-108874853D01*
X67692037Y-108761627D01*
X67674641Y-108585000D01*
X67692037Y-108408373D01*
X67743557Y-108238534D01*
X67743557Y-108238533D01*
X67827221Y-108082011D01*
X67827222Y-108082009D01*
X67856552Y-108046271D01*
X67939814Y-107944814D01*
X68041271Y-107861552D01*
X68077009Y-107832222D01*
X68094913Y-107822652D01*
X68233533Y-107748557D01*
X68290147Y-107731384D01*
X68403373Y-107697037D01*
X68469557Y-107690519D01*
X68535740Y-107684000D01*
X68624260Y-107684000D01*
X68690443Y-107690519D01*
X68690443Y-107690519D01*
G37*
G36*
X66150443Y-107690519D02*
X66216627Y-107697037D01*
X66329853Y-107731384D01*
X66386467Y-107748557D01*
X66525087Y-107822652D01*
X66542991Y-107832222D01*
X66578729Y-107861552D01*
X66680186Y-107944814D01*
X66763448Y-108046271D01*
X66792778Y-108082009D01*
X66792779Y-108082011D01*
X66876443Y-108238533D01*
X66876443Y-108238534D01*
X66927963Y-108408373D01*
X66945359Y-108585000D01*
X66927963Y-108761627D01*
X66893616Y-108874853D01*
X66876443Y-108931467D01*
X66802348Y-109070087D01*
X66792778Y-109087991D01*
X66763448Y-109123729D01*
X66680186Y-109225186D01*
X66578729Y-109308448D01*
X66542991Y-109337778D01*
X66542989Y-109337779D01*
X66386467Y-109421443D01*
X66329853Y-109438616D01*
X66216627Y-109472963D01*
X66150442Y-109479482D01*
X66084260Y-109486000D01*
X65995740Y-109486000D01*
X65929558Y-109479482D01*
X65863373Y-109472963D01*
X65750147Y-109438616D01*
X65693533Y-109421443D01*
X65537011Y-109337779D01*
X65537009Y-109337778D01*
X65501271Y-109308448D01*
X65399814Y-109225186D01*
X65316552Y-109123729D01*
X65287222Y-109087991D01*
X65277652Y-109070087D01*
X65203557Y-108931467D01*
X65186384Y-108874853D01*
X65152037Y-108761627D01*
X65134641Y-108585000D01*
X65152037Y-108408373D01*
X65203557Y-108238534D01*
X65203557Y-108238533D01*
X65287221Y-108082011D01*
X65287222Y-108082009D01*
X65316552Y-108046271D01*
X65399814Y-107944814D01*
X65501271Y-107861552D01*
X65537009Y-107832222D01*
X65554913Y-107822652D01*
X65693533Y-107748557D01*
X65750147Y-107731384D01*
X65863373Y-107697037D01*
X65929557Y-107690519D01*
X65995740Y-107684000D01*
X66084260Y-107684000D01*
X66150443Y-107690519D01*
X66150443Y-107690519D01*
G37*
G36*
X82194488Y-101470679D02*
X82395619Y-101531691D01*
X82428219Y-101549116D01*
X82580982Y-101630769D01*
X82743453Y-101764107D01*
X82876791Y-101926578D01*
X82958443Y-102079341D01*
X82975869Y-102111942D01*
X83036881Y-102313073D01*
X83052320Y-102469830D01*
X83052320Y-103082651D01*
X83036881Y-103239408D01*
X82975869Y-103440539D01*
X82975866Y-103440544D01*
X82876791Y-103625902D01*
X82743453Y-103788373D01*
X82580981Y-103921711D01*
X82441345Y-103996348D01*
X82395618Y-104020789D01*
X82194487Y-104081801D01*
X81985320Y-104102402D01*
X81776152Y-104081801D01*
X81575021Y-104020789D01*
X81542421Y-104003364D01*
X81389658Y-103921711D01*
X81227187Y-103788373D01*
X81093849Y-103625901D01*
X81019212Y-103486265D01*
X80994771Y-103440538D01*
X80933759Y-103239407D01*
X80918320Y-103082650D01*
X80918320Y-102469829D01*
X80933759Y-102313072D01*
X80994771Y-102111941D01*
X81040892Y-102025657D01*
X81093851Y-101926577D01*
X81227188Y-101764107D01*
X81389659Y-101630769D01*
X81542422Y-101549116D01*
X81575022Y-101531691D01*
X81776153Y-101470679D01*
X81985320Y-101450078D01*
X82194488Y-101470679D01*
X82194488Y-101470679D01*
G37*
G36*
X84734488Y-101470679D02*
X84935619Y-101531691D01*
X84968219Y-101549116D01*
X85120982Y-101630769D01*
X85283453Y-101764107D01*
X85416791Y-101926578D01*
X85498443Y-102079341D01*
X85515869Y-102111942D01*
X85576881Y-102313073D01*
X85592320Y-102469830D01*
X85592320Y-103082651D01*
X85576881Y-103239408D01*
X85515869Y-103440539D01*
X85515866Y-103440544D01*
X85416791Y-103625902D01*
X85283453Y-103788373D01*
X85120981Y-103921711D01*
X84981345Y-103996348D01*
X84935618Y-104020789D01*
X84734487Y-104081801D01*
X84525320Y-104102402D01*
X84316152Y-104081801D01*
X84115021Y-104020789D01*
X84082421Y-104003364D01*
X83929658Y-103921711D01*
X83767187Y-103788373D01*
X83633849Y-103625901D01*
X83559212Y-103486265D01*
X83534771Y-103440538D01*
X83473759Y-103239407D01*
X83458320Y-103082650D01*
X83458320Y-102469829D01*
X83473759Y-102313072D01*
X83534771Y-102111941D01*
X83580892Y-102025657D01*
X83633851Y-101926577D01*
X83767188Y-101764107D01*
X83929659Y-101630769D01*
X84082422Y-101549116D01*
X84115022Y-101531691D01*
X84316153Y-101470679D01*
X84525320Y-101450078D01*
X84734488Y-101470679D01*
X84734488Y-101470679D01*
G37*
G36*
X79654488Y-101470679D02*
X79855619Y-101531691D01*
X79888219Y-101549116D01*
X80040982Y-101630769D01*
X80203453Y-101764107D01*
X80336791Y-101926578D01*
X80418443Y-102079341D01*
X80435869Y-102111942D01*
X80496881Y-102313073D01*
X80512320Y-102469830D01*
X80512320Y-103082651D01*
X80496881Y-103239408D01*
X80435869Y-103440539D01*
X80435866Y-103440544D01*
X80336791Y-103625902D01*
X80203453Y-103788373D01*
X80040981Y-103921711D01*
X79901345Y-103996348D01*
X79855618Y-104020789D01*
X79654487Y-104081801D01*
X79445320Y-104102402D01*
X79236152Y-104081801D01*
X79035021Y-104020789D01*
X79002421Y-104003364D01*
X78849658Y-103921711D01*
X78687187Y-103788373D01*
X78553849Y-103625901D01*
X78479212Y-103486265D01*
X78454771Y-103440538D01*
X78393759Y-103239407D01*
X78378320Y-103082650D01*
X78378320Y-102469829D01*
X78393759Y-102313072D01*
X78454771Y-102111941D01*
X78500892Y-102025657D01*
X78553851Y-101926577D01*
X78687188Y-101764107D01*
X78849659Y-101630769D01*
X79002422Y-101549116D01*
X79035022Y-101531691D01*
X79236153Y-101470679D01*
X79445320Y-101450078D01*
X79654488Y-101470679D01*
X79654488Y-101470679D01*
G37*
G36*
X93996320Y-103727240D02*
X90294320Y-103727240D01*
X90294320Y-101825240D01*
X93996320Y-101825240D01*
X93996320Y-103727240D01*
X93996320Y-103727240D01*
G37*
G36*
X84734488Y-96390679D02*
X84935619Y-96451691D01*
X84968219Y-96469116D01*
X85120982Y-96550769D01*
X85283453Y-96684107D01*
X85416791Y-96846578D01*
X85498443Y-96999341D01*
X85515869Y-97031942D01*
X85576881Y-97233073D01*
X85592320Y-97389830D01*
X85592320Y-98002651D01*
X85576881Y-98159408D01*
X85515869Y-98360539D01*
X85498444Y-98393139D01*
X85416791Y-98545902D01*
X85283453Y-98708373D01*
X85120981Y-98841711D01*
X84981345Y-98916348D01*
X84935618Y-98940789D01*
X84734487Y-99001801D01*
X84525320Y-99022402D01*
X84316152Y-99001801D01*
X84115021Y-98940789D01*
X84082421Y-98923364D01*
X83929658Y-98841711D01*
X83767187Y-98708373D01*
X83633849Y-98545901D01*
X83540872Y-98371952D01*
X83534771Y-98360538D01*
X83473759Y-98159407D01*
X83458320Y-98002650D01*
X83458320Y-97389829D01*
X83473759Y-97233072D01*
X83534771Y-97031941D01*
X83604394Y-96901688D01*
X83633851Y-96846577D01*
X83767188Y-96684107D01*
X83929659Y-96550769D01*
X84082422Y-96469116D01*
X84115022Y-96451691D01*
X84316153Y-96390679D01*
X84525320Y-96370078D01*
X84734488Y-96390679D01*
X84734488Y-96390679D01*
G37*
G36*
X82194488Y-96390679D02*
X82395619Y-96451691D01*
X82428219Y-96469116D01*
X82580982Y-96550769D01*
X82743453Y-96684107D01*
X82876791Y-96846578D01*
X82958443Y-96999341D01*
X82975869Y-97031942D01*
X83036881Y-97233073D01*
X83052320Y-97389830D01*
X83052320Y-98002651D01*
X83036881Y-98159408D01*
X82975869Y-98360539D01*
X82958444Y-98393139D01*
X82876791Y-98545902D01*
X82743453Y-98708373D01*
X82580981Y-98841711D01*
X82441345Y-98916348D01*
X82395618Y-98940789D01*
X82194487Y-99001801D01*
X81985320Y-99022402D01*
X81776152Y-99001801D01*
X81575021Y-98940789D01*
X81542421Y-98923364D01*
X81389658Y-98841711D01*
X81227187Y-98708373D01*
X81093849Y-98545901D01*
X81000872Y-98371952D01*
X80994771Y-98360538D01*
X80933759Y-98159407D01*
X80918320Y-98002650D01*
X80918320Y-97389829D01*
X80933759Y-97233072D01*
X80994771Y-97031941D01*
X81064394Y-96901688D01*
X81093851Y-96846577D01*
X81227188Y-96684107D01*
X81389659Y-96550769D01*
X81542422Y-96469116D01*
X81575022Y-96451691D01*
X81776153Y-96390679D01*
X81985320Y-96370078D01*
X82194488Y-96390679D01*
X82194488Y-96390679D01*
G37*
G36*
X79654488Y-96390679D02*
X79855619Y-96451691D01*
X79888219Y-96469116D01*
X80040982Y-96550769D01*
X80203453Y-96684107D01*
X80336791Y-96846578D01*
X80418443Y-96999341D01*
X80435869Y-97031942D01*
X80496881Y-97233073D01*
X80512320Y-97389830D01*
X80512320Y-98002651D01*
X80496881Y-98159408D01*
X80435869Y-98360539D01*
X80418444Y-98393139D01*
X80336791Y-98545902D01*
X80203453Y-98708373D01*
X80040981Y-98841711D01*
X79901345Y-98916348D01*
X79855618Y-98940789D01*
X79654487Y-99001801D01*
X79445320Y-99022402D01*
X79236152Y-99001801D01*
X79035021Y-98940789D01*
X79002421Y-98923364D01*
X78849658Y-98841711D01*
X78687187Y-98708373D01*
X78553849Y-98545901D01*
X78460872Y-98371952D01*
X78454771Y-98360538D01*
X78393759Y-98159407D01*
X78378320Y-98002650D01*
X78378320Y-97389829D01*
X78393759Y-97233072D01*
X78454771Y-97031941D01*
X78524394Y-96901688D01*
X78553851Y-96846577D01*
X78687188Y-96684107D01*
X78849659Y-96550769D01*
X79002422Y-96469116D01*
X79035022Y-96451691D01*
X79236153Y-96390679D01*
X79445320Y-96370078D01*
X79654488Y-96390679D01*
X79654488Y-96390679D01*
G37*
G36*
X93231745Y-96759000D02*
X93231748Y-96759001D01*
X93231749Y-96759001D01*
X93411013Y-96813380D01*
X93411015Y-96813381D01*
X93576225Y-96901688D01*
X93721032Y-97020528D01*
X93839872Y-97165335D01*
X93839873Y-97165337D01*
X93928180Y-97330547D01*
X93946163Y-97389829D01*
X93982560Y-97509815D01*
X94000921Y-97696240D01*
X93982560Y-97882665D01*
X93982559Y-97882668D01*
X93982559Y-97882669D01*
X93946163Y-98002652D01*
X93928179Y-98061935D01*
X93839872Y-98227145D01*
X93721032Y-98371952D01*
X93576225Y-98490792D01*
X93576223Y-98490793D01*
X93411013Y-98579100D01*
X93231749Y-98633479D01*
X93231748Y-98633479D01*
X93231745Y-98633480D01*
X93092038Y-98647240D01*
X91198602Y-98647240D01*
X91058895Y-98633480D01*
X91058892Y-98633479D01*
X91058891Y-98633479D01*
X90879627Y-98579100D01*
X90714417Y-98490793D01*
X90714415Y-98490792D01*
X90569608Y-98371952D01*
X90450768Y-98227145D01*
X90362461Y-98061935D01*
X90344478Y-98002652D01*
X90308081Y-97882669D01*
X90308081Y-97882668D01*
X90308080Y-97882665D01*
X90289719Y-97696240D01*
X90308080Y-97509815D01*
X90344477Y-97389829D01*
X90362460Y-97330547D01*
X90450767Y-97165337D01*
X90450768Y-97165335D01*
X90569608Y-97020528D01*
X90714415Y-96901688D01*
X90879625Y-96813381D01*
X90879627Y-96813380D01*
X91058891Y-96759001D01*
X91058892Y-96759001D01*
X91058895Y-96759000D01*
X91198602Y-96745240D01*
X93092038Y-96745240D01*
X93231745Y-96759000D01*
X93231745Y-96759000D01*
G37*
G36*
X79654488Y-91310679D02*
X79855619Y-91371691D01*
X79888219Y-91389116D01*
X80040982Y-91470769D01*
X80203453Y-91604107D01*
X80336791Y-91766578D01*
X80418443Y-91919341D01*
X80435869Y-91951942D01*
X80496881Y-92153073D01*
X80512320Y-92309830D01*
X80512320Y-92922651D01*
X80496881Y-93079408D01*
X80435869Y-93280539D01*
X80418444Y-93313139D01*
X80336791Y-93465902D01*
X80203453Y-93628373D01*
X80040981Y-93761711D01*
X79901345Y-93836348D01*
X79855618Y-93860789D01*
X79654487Y-93921801D01*
X79445320Y-93942402D01*
X79236152Y-93921801D01*
X79035021Y-93860789D01*
X79002421Y-93843364D01*
X78849658Y-93761711D01*
X78687187Y-93628373D01*
X78553849Y-93465901D01*
X78460872Y-93291952D01*
X78454771Y-93280538D01*
X78393759Y-93079407D01*
X78378320Y-92922650D01*
X78378320Y-92309829D01*
X78393759Y-92153072D01*
X78454771Y-91951941D01*
X78524394Y-91821688D01*
X78553851Y-91766577D01*
X78687188Y-91604107D01*
X78849659Y-91470769D01*
X79002422Y-91389116D01*
X79035022Y-91371691D01*
X79236153Y-91310679D01*
X79445320Y-91290078D01*
X79654488Y-91310679D01*
X79654488Y-91310679D01*
G37*
G36*
X82194488Y-91310679D02*
X82395619Y-91371691D01*
X82428219Y-91389116D01*
X82580982Y-91470769D01*
X82743453Y-91604107D01*
X82876791Y-91766578D01*
X82958443Y-91919341D01*
X82975869Y-91951942D01*
X83036881Y-92153073D01*
X83052320Y-92309830D01*
X83052320Y-92922651D01*
X83036881Y-93079408D01*
X82975869Y-93280539D01*
X82958444Y-93313139D01*
X82876791Y-93465902D01*
X82743453Y-93628373D01*
X82580981Y-93761711D01*
X82441345Y-93836348D01*
X82395618Y-93860789D01*
X82194487Y-93921801D01*
X81985320Y-93942402D01*
X81776152Y-93921801D01*
X81575021Y-93860789D01*
X81542421Y-93843364D01*
X81389658Y-93761711D01*
X81227187Y-93628373D01*
X81093849Y-93465901D01*
X81000872Y-93291952D01*
X80994771Y-93280538D01*
X80933759Y-93079407D01*
X80918320Y-92922650D01*
X80918320Y-92309829D01*
X80933759Y-92153072D01*
X80994771Y-91951941D01*
X81064394Y-91821688D01*
X81093851Y-91766577D01*
X81227188Y-91604107D01*
X81389659Y-91470769D01*
X81542422Y-91389116D01*
X81575022Y-91371691D01*
X81776153Y-91310679D01*
X81985320Y-91290078D01*
X82194488Y-91310679D01*
X82194488Y-91310679D01*
G37*
G36*
X84734488Y-91310679D02*
X84935619Y-91371691D01*
X84968219Y-91389116D01*
X85120982Y-91470769D01*
X85283453Y-91604107D01*
X85416791Y-91766578D01*
X85498443Y-91919341D01*
X85515869Y-91951942D01*
X85576881Y-92153073D01*
X85592320Y-92309830D01*
X85592320Y-92922651D01*
X85576881Y-93079408D01*
X85515869Y-93280539D01*
X85498444Y-93313139D01*
X85416791Y-93465902D01*
X85283453Y-93628373D01*
X85120981Y-93761711D01*
X84981345Y-93836348D01*
X84935618Y-93860789D01*
X84734487Y-93921801D01*
X84525320Y-93942402D01*
X84316152Y-93921801D01*
X84115021Y-93860789D01*
X84082421Y-93843364D01*
X83929658Y-93761711D01*
X83767187Y-93628373D01*
X83633849Y-93465901D01*
X83540872Y-93291952D01*
X83534771Y-93280538D01*
X83473759Y-93079407D01*
X83458320Y-92922650D01*
X83458320Y-92309829D01*
X83473759Y-92153072D01*
X83534771Y-91951941D01*
X83604394Y-91821688D01*
X83633851Y-91766577D01*
X83767188Y-91604107D01*
X83929659Y-91470769D01*
X84082422Y-91389116D01*
X84115022Y-91371691D01*
X84316153Y-91310679D01*
X84525320Y-91290078D01*
X84734488Y-91310679D01*
X84734488Y-91310679D01*
G37*
G36*
X93231745Y-91679000D02*
X93231748Y-91679001D01*
X93231749Y-91679001D01*
X93411013Y-91733380D01*
X93411015Y-91733381D01*
X93576225Y-91821688D01*
X93721032Y-91940528D01*
X93839872Y-92085335D01*
X93839873Y-92085337D01*
X93928180Y-92250547D01*
X93946163Y-92309829D01*
X93982560Y-92429815D01*
X94000921Y-92616240D01*
X93982560Y-92802665D01*
X93982559Y-92802668D01*
X93982559Y-92802669D01*
X93946163Y-92922652D01*
X93928179Y-92981935D01*
X93839872Y-93147145D01*
X93721032Y-93291952D01*
X93576225Y-93410792D01*
X93576223Y-93410793D01*
X93411013Y-93499100D01*
X93231749Y-93553479D01*
X93231748Y-93553479D01*
X93231745Y-93553480D01*
X93092038Y-93567240D01*
X91198602Y-93567240D01*
X91058895Y-93553480D01*
X91058892Y-93553479D01*
X91058891Y-93553479D01*
X90879627Y-93499100D01*
X90714417Y-93410793D01*
X90714415Y-93410792D01*
X90569608Y-93291952D01*
X90450768Y-93147145D01*
X90362461Y-92981935D01*
X90344478Y-92922652D01*
X90308081Y-92802669D01*
X90308081Y-92802668D01*
X90308080Y-92802665D01*
X90289719Y-92616240D01*
X90308080Y-92429815D01*
X90344477Y-92309829D01*
X90362460Y-92250547D01*
X90450767Y-92085337D01*
X90450768Y-92085335D01*
X90569608Y-91940528D01*
X90714415Y-91821688D01*
X90879625Y-91733381D01*
X90879627Y-91733380D01*
X91058891Y-91679001D01*
X91058892Y-91679001D01*
X91058895Y-91679000D01*
X91198602Y-91665240D01*
X93092038Y-91665240D01*
X93231745Y-91679000D01*
X93231745Y-91679000D01*
G37*
G36*
X84734488Y-86230679D02*
X84935619Y-86291691D01*
X84968219Y-86309116D01*
X85120982Y-86390769D01*
X85283453Y-86524107D01*
X85416791Y-86686578D01*
X85487236Y-86818373D01*
X85515869Y-86871942D01*
X85576881Y-87073073D01*
X85592320Y-87229830D01*
X85592320Y-87842651D01*
X85576881Y-87999408D01*
X85515869Y-88200539D01*
X85498444Y-88233139D01*
X85416791Y-88385902D01*
X85283453Y-88548373D01*
X85120981Y-88681711D01*
X84981345Y-88756348D01*
X84935618Y-88780789D01*
X84734487Y-88841801D01*
X84525320Y-88862402D01*
X84316152Y-88841801D01*
X84115021Y-88780789D01*
X84082421Y-88763364D01*
X83929658Y-88681711D01*
X83767187Y-88548373D01*
X83633849Y-88385901D01*
X83540872Y-88211952D01*
X83534771Y-88200538D01*
X83473759Y-87999407D01*
X83458320Y-87842650D01*
X83458320Y-87229829D01*
X83464053Y-87171625D01*
X83473759Y-87073075D01*
X83473759Y-87073072D01*
X83534771Y-86871941D01*
X83604394Y-86741688D01*
X83633851Y-86686577D01*
X83767188Y-86524107D01*
X83929659Y-86390769D01*
X84082422Y-86309116D01*
X84115022Y-86291691D01*
X84316153Y-86230679D01*
X84525320Y-86210078D01*
X84734488Y-86230679D01*
X84734488Y-86230679D01*
G37*
G36*
X79654488Y-86230679D02*
X79855619Y-86291691D01*
X79888219Y-86309116D01*
X80040982Y-86390769D01*
X80203453Y-86524107D01*
X80336791Y-86686578D01*
X80407236Y-86818373D01*
X80435869Y-86871942D01*
X80496881Y-87073073D01*
X80512320Y-87229830D01*
X80512320Y-87842651D01*
X80496881Y-87999408D01*
X80435869Y-88200539D01*
X80418444Y-88233139D01*
X80336791Y-88385902D01*
X80203453Y-88548373D01*
X80040981Y-88681711D01*
X79901345Y-88756348D01*
X79855618Y-88780789D01*
X79654487Y-88841801D01*
X79445320Y-88862402D01*
X79236152Y-88841801D01*
X79035021Y-88780789D01*
X79002421Y-88763364D01*
X78849658Y-88681711D01*
X78687187Y-88548373D01*
X78553849Y-88385901D01*
X78460872Y-88211952D01*
X78454771Y-88200538D01*
X78393759Y-87999407D01*
X78378320Y-87842650D01*
X78378320Y-87229829D01*
X78384053Y-87171625D01*
X78393759Y-87073075D01*
X78393759Y-87073072D01*
X78454771Y-86871941D01*
X78524394Y-86741688D01*
X78553851Y-86686577D01*
X78687188Y-86524107D01*
X78849659Y-86390769D01*
X79002422Y-86309116D01*
X79035022Y-86291691D01*
X79236153Y-86230679D01*
X79445320Y-86210078D01*
X79654488Y-86230679D01*
X79654488Y-86230679D01*
G37*
G36*
X82194488Y-86230679D02*
X82395619Y-86291691D01*
X82428219Y-86309116D01*
X82580982Y-86390769D01*
X82743453Y-86524107D01*
X82876791Y-86686578D01*
X82947236Y-86818373D01*
X82975869Y-86871942D01*
X83036881Y-87073073D01*
X83052320Y-87229830D01*
X83052320Y-87842651D01*
X83036881Y-87999408D01*
X82975869Y-88200539D01*
X82958444Y-88233139D01*
X82876791Y-88385902D01*
X82743453Y-88548373D01*
X82580981Y-88681711D01*
X82441345Y-88756348D01*
X82395618Y-88780789D01*
X82194487Y-88841801D01*
X81985320Y-88862402D01*
X81776152Y-88841801D01*
X81575021Y-88780789D01*
X81542421Y-88763364D01*
X81389658Y-88681711D01*
X81227187Y-88548373D01*
X81093849Y-88385901D01*
X81000872Y-88211952D01*
X80994771Y-88200538D01*
X80933759Y-87999407D01*
X80918320Y-87842650D01*
X80918320Y-87229829D01*
X80924053Y-87171625D01*
X80933759Y-87073075D01*
X80933759Y-87073072D01*
X80994771Y-86871941D01*
X81064394Y-86741688D01*
X81093851Y-86686577D01*
X81227188Y-86524107D01*
X81389659Y-86390769D01*
X81542422Y-86309116D01*
X81575022Y-86291691D01*
X81776153Y-86230679D01*
X81985320Y-86210078D01*
X82194488Y-86230679D01*
X82194488Y-86230679D01*
G37*
G36*
X93231745Y-86599000D02*
X93231748Y-86599001D01*
X93231749Y-86599001D01*
X93411013Y-86653380D01*
X93411015Y-86653381D01*
X93576225Y-86741688D01*
X93721032Y-86860528D01*
X93839872Y-87005335D01*
X93839873Y-87005337D01*
X93928180Y-87170547D01*
X93980028Y-87341467D01*
X93982560Y-87349815D01*
X94000921Y-87536240D01*
X93982560Y-87722665D01*
X93982559Y-87722668D01*
X93982559Y-87722669D01*
X93929980Y-87896000D01*
X93928179Y-87901935D01*
X93839872Y-88067145D01*
X93721032Y-88211952D01*
X93576225Y-88330792D01*
X93576223Y-88330793D01*
X93411013Y-88419100D01*
X93231749Y-88473479D01*
X93231748Y-88473479D01*
X93231745Y-88473480D01*
X93092038Y-88487240D01*
X91198602Y-88487240D01*
X91058895Y-88473480D01*
X91058892Y-88473479D01*
X91058891Y-88473479D01*
X90879627Y-88419100D01*
X90714417Y-88330793D01*
X90714415Y-88330792D01*
X90569608Y-88211952D01*
X90450768Y-88067145D01*
X90362461Y-87901935D01*
X90360661Y-87896000D01*
X90308081Y-87722669D01*
X90308081Y-87722668D01*
X90308080Y-87722665D01*
X90289719Y-87536240D01*
X90308080Y-87349815D01*
X90310612Y-87341467D01*
X90362460Y-87170547D01*
X90450767Y-87005337D01*
X90450768Y-87005335D01*
X90569608Y-86860528D01*
X90714415Y-86741688D01*
X90879625Y-86653381D01*
X90879627Y-86653380D01*
X91058891Y-86599001D01*
X91058892Y-86599001D01*
X91058895Y-86599000D01*
X91198602Y-86585240D01*
X93092038Y-86585240D01*
X93231745Y-86599000D01*
X93231745Y-86599000D01*
G37*
G36*
X51545442Y-86100518D02*
X51611627Y-86107037D01*
X51724853Y-86141384D01*
X51781467Y-86158557D01*
X51916396Y-86230679D01*
X51937991Y-86242222D01*
X51973729Y-86271552D01*
X52075186Y-86354814D01*
X52158448Y-86456271D01*
X52187778Y-86492009D01*
X52187779Y-86492011D01*
X52271443Y-86648533D01*
X52282984Y-86686579D01*
X52322963Y-86818373D01*
X52340359Y-86995000D01*
X52322963Y-87171627D01*
X52305307Y-87229830D01*
X52271443Y-87341467D01*
X52197348Y-87480087D01*
X52187778Y-87497991D01*
X52158448Y-87533729D01*
X52075186Y-87635186D01*
X51973729Y-87718448D01*
X51937991Y-87747778D01*
X51937989Y-87747779D01*
X51781467Y-87831443D01*
X51744518Y-87842651D01*
X51611627Y-87882963D01*
X51545443Y-87889481D01*
X51479260Y-87896000D01*
X51390740Y-87896000D01*
X51324557Y-87889481D01*
X51258373Y-87882963D01*
X51125482Y-87842651D01*
X51088533Y-87831443D01*
X50932011Y-87747779D01*
X50932009Y-87747778D01*
X50896271Y-87718448D01*
X50794814Y-87635186D01*
X50711552Y-87533729D01*
X50682222Y-87497991D01*
X50672652Y-87480087D01*
X50598557Y-87341467D01*
X50564693Y-87229830D01*
X50547037Y-87171627D01*
X50529641Y-86995000D01*
X50547037Y-86818373D01*
X50587016Y-86686579D01*
X50598557Y-86648533D01*
X50682221Y-86492011D01*
X50682222Y-86492009D01*
X50711552Y-86456271D01*
X50794814Y-86354814D01*
X50896271Y-86271552D01*
X50932009Y-86242222D01*
X50953604Y-86230679D01*
X51088533Y-86158557D01*
X51145147Y-86141384D01*
X51258373Y-86107037D01*
X51324558Y-86100518D01*
X51390740Y-86094000D01*
X51479260Y-86094000D01*
X51545442Y-86100518D01*
X51545442Y-86100518D01*
G37*
G36*
X54085442Y-86100518D02*
X54151627Y-86107037D01*
X54264853Y-86141384D01*
X54321467Y-86158557D01*
X54456396Y-86230679D01*
X54477991Y-86242222D01*
X54513729Y-86271552D01*
X54615186Y-86354814D01*
X54698448Y-86456271D01*
X54727778Y-86492009D01*
X54727779Y-86492011D01*
X54811443Y-86648533D01*
X54822984Y-86686579D01*
X54862963Y-86818373D01*
X54880359Y-86995000D01*
X54862963Y-87171627D01*
X54845307Y-87229830D01*
X54811443Y-87341467D01*
X54737348Y-87480087D01*
X54727778Y-87497991D01*
X54698448Y-87533729D01*
X54615186Y-87635186D01*
X54513729Y-87718448D01*
X54477991Y-87747778D01*
X54477989Y-87747779D01*
X54321467Y-87831443D01*
X54284518Y-87842651D01*
X54151627Y-87882963D01*
X54085443Y-87889481D01*
X54019260Y-87896000D01*
X53930740Y-87896000D01*
X53864557Y-87889481D01*
X53798373Y-87882963D01*
X53665482Y-87842651D01*
X53628533Y-87831443D01*
X53472011Y-87747779D01*
X53472009Y-87747778D01*
X53436271Y-87718448D01*
X53334814Y-87635186D01*
X53251552Y-87533729D01*
X53222222Y-87497991D01*
X53212652Y-87480087D01*
X53138557Y-87341467D01*
X53104693Y-87229830D01*
X53087037Y-87171627D01*
X53069641Y-86995000D01*
X53087037Y-86818373D01*
X53127016Y-86686579D01*
X53138557Y-86648533D01*
X53222221Y-86492011D01*
X53222222Y-86492009D01*
X53251552Y-86456271D01*
X53334814Y-86354814D01*
X53436271Y-86271552D01*
X53472009Y-86242222D01*
X53493604Y-86230679D01*
X53628533Y-86158557D01*
X53685147Y-86141384D01*
X53798373Y-86107037D01*
X53864558Y-86100518D01*
X53930740Y-86094000D01*
X54019260Y-86094000D01*
X54085442Y-86100518D01*
X54085442Y-86100518D01*
G37*
G36*
X56625442Y-86100518D02*
X56691627Y-86107037D01*
X56804853Y-86141384D01*
X56861467Y-86158557D01*
X56996396Y-86230679D01*
X57017991Y-86242222D01*
X57053729Y-86271552D01*
X57155186Y-86354814D01*
X57238448Y-86456271D01*
X57267778Y-86492009D01*
X57267779Y-86492011D01*
X57351443Y-86648533D01*
X57362984Y-86686579D01*
X57402963Y-86818373D01*
X57420359Y-86995000D01*
X57402963Y-87171627D01*
X57385307Y-87229830D01*
X57351443Y-87341467D01*
X57277348Y-87480087D01*
X57267778Y-87497991D01*
X57238448Y-87533729D01*
X57155186Y-87635186D01*
X57053729Y-87718448D01*
X57017991Y-87747778D01*
X57017989Y-87747779D01*
X56861467Y-87831443D01*
X56824518Y-87842651D01*
X56691627Y-87882963D01*
X56625443Y-87889481D01*
X56559260Y-87896000D01*
X56470740Y-87896000D01*
X56404557Y-87889481D01*
X56338373Y-87882963D01*
X56205482Y-87842651D01*
X56168533Y-87831443D01*
X56012011Y-87747779D01*
X56012009Y-87747778D01*
X55976271Y-87718448D01*
X55874814Y-87635186D01*
X55791552Y-87533729D01*
X55762222Y-87497991D01*
X55752652Y-87480087D01*
X55678557Y-87341467D01*
X55644693Y-87229830D01*
X55627037Y-87171627D01*
X55609641Y-86995000D01*
X55627037Y-86818373D01*
X55667016Y-86686579D01*
X55678557Y-86648533D01*
X55762221Y-86492011D01*
X55762222Y-86492009D01*
X55791552Y-86456271D01*
X55874814Y-86354814D01*
X55976271Y-86271552D01*
X56012009Y-86242222D01*
X56033604Y-86230679D01*
X56168533Y-86158557D01*
X56225147Y-86141384D01*
X56338373Y-86107037D01*
X56404558Y-86100518D01*
X56470740Y-86094000D01*
X56559260Y-86094000D01*
X56625442Y-86100518D01*
X56625442Y-86100518D01*
G37*
G36*
X59956000Y-87896000D02*
X58154000Y-87896000D01*
X58154000Y-86094000D01*
X59956000Y-86094000D01*
X59956000Y-87896000D01*
X59956000Y-87896000D01*
G37*
G36*
X49005442Y-86100518D02*
X49071627Y-86107037D01*
X49184853Y-86141384D01*
X49241467Y-86158557D01*
X49376396Y-86230679D01*
X49397991Y-86242222D01*
X49433729Y-86271552D01*
X49535186Y-86354814D01*
X49618448Y-86456271D01*
X49647778Y-86492009D01*
X49647779Y-86492011D01*
X49731443Y-86648533D01*
X49742984Y-86686579D01*
X49782963Y-86818373D01*
X49800359Y-86995000D01*
X49782963Y-87171627D01*
X49765307Y-87229830D01*
X49731443Y-87341467D01*
X49657348Y-87480087D01*
X49647778Y-87497991D01*
X49618448Y-87533729D01*
X49535186Y-87635186D01*
X49433729Y-87718448D01*
X49397991Y-87747778D01*
X49397989Y-87747779D01*
X49241467Y-87831443D01*
X49204518Y-87842651D01*
X49071627Y-87882963D01*
X49005443Y-87889481D01*
X48939260Y-87896000D01*
X48850740Y-87896000D01*
X48784557Y-87889481D01*
X48718373Y-87882963D01*
X48585482Y-87842651D01*
X48548533Y-87831443D01*
X48392011Y-87747779D01*
X48392009Y-87747778D01*
X48356271Y-87718448D01*
X48254814Y-87635186D01*
X48171552Y-87533729D01*
X48142222Y-87497991D01*
X48132652Y-87480087D01*
X48058557Y-87341467D01*
X48024693Y-87229830D01*
X48007037Y-87171627D01*
X47989641Y-86995000D01*
X48007037Y-86818373D01*
X48047016Y-86686579D01*
X48058557Y-86648533D01*
X48142221Y-86492011D01*
X48142222Y-86492009D01*
X48171552Y-86456271D01*
X48254814Y-86354814D01*
X48356271Y-86271552D01*
X48392009Y-86242222D01*
X48413604Y-86230679D01*
X48548533Y-86158557D01*
X48605147Y-86141384D01*
X48718373Y-86107037D01*
X48784558Y-86100518D01*
X48850740Y-86094000D01*
X48939260Y-86094000D01*
X49005442Y-86100518D01*
X49005442Y-86100518D01*
G37*
G36*
X79654488Y-81150679D02*
X79855619Y-81211691D01*
X79888219Y-81229116D01*
X80040982Y-81310769D01*
X80203453Y-81444107D01*
X80336791Y-81606578D01*
X80418443Y-81759341D01*
X80435869Y-81791942D01*
X80496881Y-81993073D01*
X80512320Y-82149830D01*
X80512320Y-82762651D01*
X80496881Y-82919408D01*
X80435869Y-83120539D01*
X80418444Y-83153139D01*
X80336791Y-83305902D01*
X80203453Y-83468373D01*
X80040981Y-83601711D01*
X79901345Y-83676348D01*
X79855618Y-83700789D01*
X79654487Y-83761801D01*
X79445320Y-83782402D01*
X79236152Y-83761801D01*
X79035021Y-83700789D01*
X79002421Y-83683364D01*
X78849658Y-83601711D01*
X78687187Y-83468373D01*
X78553849Y-83305901D01*
X78460872Y-83131952D01*
X78454771Y-83120538D01*
X78393759Y-82919407D01*
X78378320Y-82762650D01*
X78378320Y-82149829D01*
X78393759Y-81993072D01*
X78454771Y-81791941D01*
X78524394Y-81661688D01*
X78553851Y-81606577D01*
X78687188Y-81444107D01*
X78849659Y-81310769D01*
X79002422Y-81229116D01*
X79035022Y-81211691D01*
X79236153Y-81150679D01*
X79445320Y-81130078D01*
X79654488Y-81150679D01*
X79654488Y-81150679D01*
G37*
G36*
X82194488Y-81150679D02*
X82395619Y-81211691D01*
X82428219Y-81229116D01*
X82580982Y-81310769D01*
X82743453Y-81444107D01*
X82876791Y-81606578D01*
X82958443Y-81759341D01*
X82975869Y-81791942D01*
X83036881Y-81993073D01*
X83052320Y-82149830D01*
X83052320Y-82762651D01*
X83036881Y-82919408D01*
X82975869Y-83120539D01*
X82958444Y-83153139D01*
X82876791Y-83305902D01*
X82743453Y-83468373D01*
X82580981Y-83601711D01*
X82441345Y-83676348D01*
X82395618Y-83700789D01*
X82194487Y-83761801D01*
X81985320Y-83782402D01*
X81776152Y-83761801D01*
X81575021Y-83700789D01*
X81542421Y-83683364D01*
X81389658Y-83601711D01*
X81227187Y-83468373D01*
X81093849Y-83305901D01*
X81000872Y-83131952D01*
X80994771Y-83120538D01*
X80933759Y-82919407D01*
X80918320Y-82762650D01*
X80918320Y-82149829D01*
X80933759Y-81993072D01*
X80994771Y-81791941D01*
X81064394Y-81661688D01*
X81093851Y-81606577D01*
X81227188Y-81444107D01*
X81389659Y-81310769D01*
X81542422Y-81229116D01*
X81575022Y-81211691D01*
X81776153Y-81150679D01*
X81985320Y-81130078D01*
X82194488Y-81150679D01*
X82194488Y-81150679D01*
G37*
G36*
X84734488Y-81150679D02*
X84935619Y-81211691D01*
X84968219Y-81229116D01*
X85120982Y-81310769D01*
X85283453Y-81444107D01*
X85416791Y-81606578D01*
X85498443Y-81759341D01*
X85515869Y-81791942D01*
X85576881Y-81993073D01*
X85592320Y-82149830D01*
X85592320Y-82762651D01*
X85576881Y-82919408D01*
X85515869Y-83120539D01*
X85498444Y-83153139D01*
X85416791Y-83305902D01*
X85283453Y-83468373D01*
X85120981Y-83601711D01*
X84981345Y-83676348D01*
X84935618Y-83700789D01*
X84734487Y-83761801D01*
X84525320Y-83782402D01*
X84316152Y-83761801D01*
X84115021Y-83700789D01*
X84082421Y-83683364D01*
X83929658Y-83601711D01*
X83767187Y-83468373D01*
X83633849Y-83305901D01*
X83540872Y-83131952D01*
X83534771Y-83120538D01*
X83473759Y-82919407D01*
X83458320Y-82762650D01*
X83458320Y-82149829D01*
X83473759Y-81993072D01*
X83534771Y-81791941D01*
X83604394Y-81661688D01*
X83633851Y-81606577D01*
X83767188Y-81444107D01*
X83929659Y-81310769D01*
X84082422Y-81229116D01*
X84115022Y-81211691D01*
X84316153Y-81150679D01*
X84525320Y-81130078D01*
X84734488Y-81150679D01*
X84734488Y-81150679D01*
G37*
G36*
X93231745Y-81519000D02*
X93231748Y-81519001D01*
X93231749Y-81519001D01*
X93411013Y-81573380D01*
X93411015Y-81573381D01*
X93576225Y-81661688D01*
X93721032Y-81780528D01*
X93839872Y-81925335D01*
X93839873Y-81925337D01*
X93928180Y-82090547D01*
X93946163Y-82149829D01*
X93982560Y-82269815D01*
X94000921Y-82456240D01*
X93982560Y-82642665D01*
X93982559Y-82642668D01*
X93982559Y-82642669D01*
X93946163Y-82762652D01*
X93928179Y-82821935D01*
X93839872Y-82987145D01*
X93721032Y-83131952D01*
X93576225Y-83250792D01*
X93576223Y-83250793D01*
X93411013Y-83339100D01*
X93231749Y-83393479D01*
X93231748Y-83393479D01*
X93231745Y-83393480D01*
X93092038Y-83407240D01*
X91198602Y-83407240D01*
X91058895Y-83393480D01*
X91058892Y-83393479D01*
X91058891Y-83393479D01*
X90879627Y-83339100D01*
X90714417Y-83250793D01*
X90714415Y-83250792D01*
X90569608Y-83131952D01*
X90450768Y-82987145D01*
X90362461Y-82821935D01*
X90344478Y-82762652D01*
X90308081Y-82642669D01*
X90308081Y-82642668D01*
X90308080Y-82642665D01*
X90289719Y-82456240D01*
X90308080Y-82269815D01*
X90344477Y-82149829D01*
X90362460Y-82090547D01*
X90450767Y-81925337D01*
X90450768Y-81925335D01*
X90569608Y-81780528D01*
X90714415Y-81661688D01*
X90879625Y-81573381D01*
X90879627Y-81573380D01*
X91058891Y-81519001D01*
X91058892Y-81519001D01*
X91058895Y-81519000D01*
X91198602Y-81505240D01*
X93092038Y-81505240D01*
X93231745Y-81519000D01*
X93231745Y-81519000D01*
G37*
G36*
X82194488Y-76070679D02*
X82395619Y-76131691D01*
X82428219Y-76149116D01*
X82580982Y-76230769D01*
X82743453Y-76364107D01*
X82876791Y-76526578D01*
X82958443Y-76679341D01*
X82975869Y-76711942D01*
X83036881Y-76913073D01*
X83036881Y-76913076D01*
X83050466Y-77051000D01*
X83052320Y-77069830D01*
X83052320Y-77682651D01*
X83036881Y-77839408D01*
X82975869Y-78040539D01*
X82958444Y-78073139D01*
X82876791Y-78225902D01*
X82743453Y-78388373D01*
X82580981Y-78521711D01*
X82441345Y-78596348D01*
X82395618Y-78620789D01*
X82194487Y-78681801D01*
X81985320Y-78702402D01*
X81776152Y-78681801D01*
X81575021Y-78620789D01*
X81542421Y-78603364D01*
X81389658Y-78521711D01*
X81227187Y-78388373D01*
X81093849Y-78225901D01*
X81000872Y-78051952D01*
X80994771Y-78040538D01*
X80933759Y-77839407D01*
X80918320Y-77682650D01*
X80918320Y-77069829D01*
X80933759Y-76913072D01*
X80994771Y-76711941D01*
X81064394Y-76581688D01*
X81093851Y-76526577D01*
X81227188Y-76364107D01*
X81389659Y-76230769D01*
X81542422Y-76149116D01*
X81575022Y-76131691D01*
X81776153Y-76070679D01*
X81985320Y-76050078D01*
X82194488Y-76070679D01*
X82194488Y-76070679D01*
G37*
G36*
X84734488Y-76070679D02*
X84935619Y-76131691D01*
X84968219Y-76149116D01*
X85120982Y-76230769D01*
X85283453Y-76364107D01*
X85416791Y-76526578D01*
X85498443Y-76679341D01*
X85515869Y-76711942D01*
X85576881Y-76913073D01*
X85576881Y-76913076D01*
X85590466Y-77051000D01*
X85592320Y-77069830D01*
X85592320Y-77682651D01*
X85576881Y-77839408D01*
X85515869Y-78040539D01*
X85498444Y-78073139D01*
X85416791Y-78225902D01*
X85283453Y-78388373D01*
X85120981Y-78521711D01*
X84981345Y-78596348D01*
X84935618Y-78620789D01*
X84734487Y-78681801D01*
X84525320Y-78702402D01*
X84316152Y-78681801D01*
X84115021Y-78620789D01*
X84082421Y-78603364D01*
X83929658Y-78521711D01*
X83767187Y-78388373D01*
X83633849Y-78225901D01*
X83540872Y-78051952D01*
X83534771Y-78040538D01*
X83473759Y-77839407D01*
X83458320Y-77682650D01*
X83458320Y-77069829D01*
X83473759Y-76913072D01*
X83534771Y-76711941D01*
X83604394Y-76581688D01*
X83633851Y-76526577D01*
X83767188Y-76364107D01*
X83929659Y-76230769D01*
X84082422Y-76149116D01*
X84115022Y-76131691D01*
X84316153Y-76070679D01*
X84525320Y-76050078D01*
X84734488Y-76070679D01*
X84734488Y-76070679D01*
G37*
G36*
X79654488Y-76070679D02*
X79855619Y-76131691D01*
X79888219Y-76149116D01*
X80040982Y-76230769D01*
X80203453Y-76364107D01*
X80336791Y-76526578D01*
X80418443Y-76679341D01*
X80435869Y-76711942D01*
X80496881Y-76913073D01*
X80496881Y-76913076D01*
X80510466Y-77051000D01*
X80512320Y-77069830D01*
X80512320Y-77682651D01*
X80496881Y-77839408D01*
X80435869Y-78040539D01*
X80418444Y-78073139D01*
X80336791Y-78225902D01*
X80203453Y-78388373D01*
X80040981Y-78521711D01*
X79901345Y-78596348D01*
X79855618Y-78620789D01*
X79654487Y-78681801D01*
X79445320Y-78702402D01*
X79236152Y-78681801D01*
X79035021Y-78620789D01*
X79002421Y-78603364D01*
X78849658Y-78521711D01*
X78687187Y-78388373D01*
X78553849Y-78225901D01*
X78460872Y-78051952D01*
X78454771Y-78040538D01*
X78393759Y-77839407D01*
X78378320Y-77682650D01*
X78378320Y-77069829D01*
X78393759Y-76913072D01*
X78454771Y-76711941D01*
X78524394Y-76581688D01*
X78553851Y-76526577D01*
X78687188Y-76364107D01*
X78849659Y-76230769D01*
X79002422Y-76149116D01*
X79035022Y-76131691D01*
X79236153Y-76070679D01*
X79445320Y-76050078D01*
X79654488Y-76070679D01*
X79654488Y-76070679D01*
G37*
G36*
X93231745Y-76439000D02*
X93231748Y-76439001D01*
X93231749Y-76439001D01*
X93411013Y-76493380D01*
X93411015Y-76493381D01*
X93576225Y-76581688D01*
X93721032Y-76700528D01*
X93839872Y-76845335D01*
X93839873Y-76845337D01*
X93928180Y-77010547D01*
X93946163Y-77069829D01*
X93982560Y-77189815D01*
X94000921Y-77376240D01*
X93982560Y-77562665D01*
X93982559Y-77562668D01*
X93982559Y-77562669D01*
X93946163Y-77682652D01*
X93928179Y-77741935D01*
X93839872Y-77907145D01*
X93721032Y-78051952D01*
X93576225Y-78170792D01*
X93576223Y-78170793D01*
X93411013Y-78259100D01*
X93231749Y-78313479D01*
X93231748Y-78313479D01*
X93231745Y-78313480D01*
X93092038Y-78327240D01*
X91198602Y-78327240D01*
X91058895Y-78313480D01*
X91058892Y-78313479D01*
X91058891Y-78313479D01*
X90879627Y-78259100D01*
X90714417Y-78170793D01*
X90714415Y-78170792D01*
X90569608Y-78051952D01*
X90450768Y-77907145D01*
X90362461Y-77741935D01*
X90344478Y-77682652D01*
X90308081Y-77562669D01*
X90308081Y-77562668D01*
X90308080Y-77562665D01*
X90289719Y-77376240D01*
X90308080Y-77189815D01*
X90344477Y-77069829D01*
X90362460Y-77010547D01*
X90450767Y-76845337D01*
X90450768Y-76845335D01*
X90569608Y-76700528D01*
X90714415Y-76581688D01*
X90879625Y-76493381D01*
X90879627Y-76493380D01*
X91058891Y-76439001D01*
X91058892Y-76439001D01*
X91058895Y-76439000D01*
X91198602Y-76425240D01*
X93092038Y-76425240D01*
X93231745Y-76439000D01*
X93231745Y-76439000D01*
G37*
G36*
X44771000Y-77051000D02*
X43669000Y-77051000D01*
X43669000Y-75349000D01*
X44771000Y-75349000D01*
X44771000Y-77051000D01*
X44771000Y-77051000D01*
G37*
G36*
X47771000Y-77051000D02*
X46669000Y-77051000D01*
X46669000Y-75349000D01*
X47771000Y-75349000D01*
X47771000Y-77051000D01*
X47771000Y-77051000D01*
G37*
G36*
X93231745Y-71359000D02*
X93231748Y-71359001D01*
X93231749Y-71359001D01*
X93411013Y-71413380D01*
X93411015Y-71413381D01*
X93576225Y-71501688D01*
X93721032Y-71620528D01*
X93839872Y-71765335D01*
X93928179Y-71930545D01*
X93982560Y-72109815D01*
X94000921Y-72296240D01*
X93982560Y-72482665D01*
X93928179Y-72661935D01*
X93839872Y-72827145D01*
X93721032Y-72971952D01*
X93576225Y-73090792D01*
X93576223Y-73090793D01*
X93411013Y-73179100D01*
X93231749Y-73233479D01*
X93231748Y-73233479D01*
X93231745Y-73233480D01*
X93092038Y-73247240D01*
X91198602Y-73247240D01*
X91058895Y-73233480D01*
X91058892Y-73233479D01*
X91058891Y-73233479D01*
X90879627Y-73179100D01*
X90714417Y-73090793D01*
X90714415Y-73090792D01*
X90569608Y-72971952D01*
X90450768Y-72827145D01*
X90362461Y-72661935D01*
X90308080Y-72482665D01*
X90289719Y-72296240D01*
X90308080Y-72109815D01*
X90362461Y-71930545D01*
X90450768Y-71765335D01*
X90569608Y-71620528D01*
X90714415Y-71501688D01*
X90879625Y-71413381D01*
X90879627Y-71413380D01*
X91058891Y-71359001D01*
X91058892Y-71359001D01*
X91058895Y-71359000D01*
X91198602Y-71345240D01*
X93092038Y-71345240D01*
X93231745Y-71359000D01*
X93231745Y-71359000D01*
G37*
G36*
X48951000Y-71836000D02*
X39949000Y-71836000D01*
X39949000Y-69984000D01*
X48951000Y-69984000D01*
X48951000Y-71836000D01*
X48951000Y-71836000D01*
G37*
G36*
X48951000Y-64636000D02*
X39949000Y-64636000D01*
X39949000Y-62784000D01*
X48951000Y-62784000D01*
X48951000Y-64636000D01*
X48951000Y-64636000D01*
G37*
G36*
X45804338Y-56816069D02*
X46059308Y-56921681D01*
X46288775Y-57075006D01*
X46483914Y-57270145D01*
X46637239Y-57499612D01*
X46742851Y-57754582D01*
X46796690Y-58025251D01*
X46796690Y-58301229D01*
X46742851Y-58571898D01*
X46637239Y-58826868D01*
X46483914Y-59056335D01*
X46288775Y-59251474D01*
X46059308Y-59404799D01*
X45804338Y-59510411D01*
X45533669Y-59564250D01*
X45257691Y-59564250D01*
X44987022Y-59510411D01*
X44732052Y-59404799D01*
X44502585Y-59251474D01*
X44307446Y-59056335D01*
X44154121Y-58826868D01*
X44048509Y-58571898D01*
X43994670Y-58301229D01*
X43994670Y-58025251D01*
X44048509Y-57754582D01*
X44154121Y-57499612D01*
X44307446Y-57270145D01*
X44502585Y-57075006D01*
X44732052Y-56921681D01*
X44987022Y-56816069D01*
X45257691Y-56762230D01*
X45533669Y-56762230D01*
X45804338Y-56816069D01*
X45804338Y-56816069D01*
G37*
G36*
X42761000Y-56891000D02*
X41059000Y-56891000D01*
X41059000Y-55789000D01*
X42761000Y-55789000D01*
X42761000Y-56891000D01*
X42761000Y-56891000D01*
G37*
G36*
X76376000Y-56826000D02*
X74274000Y-56826000D01*
X74274000Y-53224000D01*
X76376000Y-53224000D01*
X76376000Y-56826000D01*
X76376000Y-56826000D01*
G37*
G36*
X71796000Y-56826000D02*
X69694000Y-56826000D01*
X69694000Y-53224000D01*
X71796000Y-53224000D01*
X71796000Y-56826000D01*
X71796000Y-56826000D01*
G37*
G36*
X79936320Y-56257240D02*
X78834320Y-56257240D01*
X78834320Y-54155240D01*
X79936320Y-54155240D01*
X79936320Y-56257240D01*
X79936320Y-56257240D01*
G37*
G36*
X85136320Y-56257240D02*
X84034320Y-56257240D01*
X84034320Y-54155240D01*
X85136320Y-54155240D01*
X85136320Y-56257240D01*
X85136320Y-56257240D01*
G37*
G36*
X93996320Y-54337240D02*
X90294320Y-54337240D01*
X90294320Y-52155240D01*
X93996320Y-52155240D01*
X93996320Y-54337240D01*
X93996320Y-54337240D01*
G37*
G36*
X50331822Y-52652002D02*
X50479782Y-52713290D01*
X50612938Y-52802262D01*
X50726178Y-52915502D01*
X50815150Y-53048658D01*
X50876438Y-53196618D01*
X50907680Y-53353685D01*
X50907680Y-53513835D01*
X50876438Y-53670902D01*
X50815150Y-53818862D01*
X50726178Y-53952018D01*
X50612938Y-54065258D01*
X50479782Y-54154230D01*
X50331822Y-54215518D01*
X50174755Y-54246760D01*
X50014605Y-54246760D01*
X49857538Y-54215518D01*
X49709578Y-54154230D01*
X49576422Y-54065258D01*
X49463182Y-53952018D01*
X49374210Y-53818862D01*
X49312922Y-53670902D01*
X49281680Y-53513835D01*
X49281680Y-53353685D01*
X49312922Y-53196618D01*
X49374210Y-53048658D01*
X49463182Y-52915502D01*
X49576422Y-52802262D01*
X49709578Y-52713290D01*
X49857538Y-52652002D01*
X50014605Y-52620760D01*
X50174755Y-52620760D01*
X50331822Y-52652002D01*
X50331822Y-52652002D01*
G37*
G36*
X48332842Y-52652002D02*
X48480802Y-52713290D01*
X48613958Y-52802262D01*
X48727198Y-52915502D01*
X48816170Y-53048658D01*
X48877458Y-53196618D01*
X48908700Y-53353685D01*
X48908700Y-53513835D01*
X48877458Y-53670902D01*
X48816170Y-53818862D01*
X48727198Y-53952018D01*
X48613958Y-54065258D01*
X48480802Y-54154230D01*
X48332842Y-54215518D01*
X48175775Y-54246760D01*
X48015625Y-54246760D01*
X47858558Y-54215518D01*
X47710598Y-54154230D01*
X47577442Y-54065258D01*
X47464202Y-53952018D01*
X47375230Y-53818862D01*
X47313942Y-53670902D01*
X47282700Y-53513835D01*
X47282700Y-53353685D01*
X47313942Y-53196618D01*
X47375230Y-53048658D01*
X47464202Y-52915502D01*
X47577442Y-52802262D01*
X47710598Y-52713290D01*
X47858558Y-52652002D01*
X48015625Y-52620760D01*
X48175775Y-52620760D01*
X48332842Y-52652002D01*
X48332842Y-52652002D01*
G37*
G36*
X42761000Y-53891000D02*
X41059000Y-53891000D01*
X41059000Y-52789000D01*
X42761000Y-52789000D01*
X42761000Y-53891000D01*
X42761000Y-53891000D01*
G37*
G36*
X66891000Y-53891000D02*
X65189000Y-53891000D01*
X65189000Y-52789000D01*
X66891000Y-52789000D01*
X66891000Y-53891000D01*
X66891000Y-53891000D01*
G37*
G36*
X48332842Y-50112002D02*
X48480802Y-50173290D01*
X48613958Y-50262262D01*
X48727198Y-50375502D01*
X48816170Y-50508658D01*
X48877458Y-50656618D01*
X48908700Y-50813685D01*
X48908700Y-50973835D01*
X48877458Y-51130902D01*
X48816170Y-51278862D01*
X48727198Y-51412018D01*
X48613958Y-51525258D01*
X48480802Y-51614230D01*
X48332842Y-51675518D01*
X48175775Y-51706760D01*
X48015625Y-51706760D01*
X47858558Y-51675518D01*
X47710598Y-51614230D01*
X47577442Y-51525258D01*
X47464202Y-51412018D01*
X47375230Y-51278862D01*
X47313942Y-51130902D01*
X47282700Y-50973835D01*
X47282700Y-50813685D01*
X47313942Y-50656618D01*
X47375230Y-50508658D01*
X47464202Y-50375502D01*
X47577442Y-50262262D01*
X47710598Y-50173290D01*
X47858558Y-50112002D01*
X48015625Y-50080760D01*
X48175775Y-50080760D01*
X48332842Y-50112002D01*
X48332842Y-50112002D01*
G37*
G36*
X50331822Y-50112002D02*
X50479782Y-50173290D01*
X50612938Y-50262262D01*
X50726178Y-50375502D01*
X50815150Y-50508658D01*
X50876438Y-50656618D01*
X50907680Y-50813685D01*
X50907680Y-50973835D01*
X50876438Y-51130902D01*
X50815150Y-51278862D01*
X50726178Y-51412018D01*
X50612938Y-51525258D01*
X50479782Y-51614230D01*
X50331822Y-51675518D01*
X50174755Y-51706760D01*
X50014605Y-51706760D01*
X49857538Y-51675518D01*
X49709578Y-51614230D01*
X49576422Y-51525258D01*
X49463182Y-51412018D01*
X49374210Y-51278862D01*
X49312922Y-51130902D01*
X49281680Y-50973835D01*
X49281680Y-50813685D01*
X49312922Y-50656618D01*
X49374210Y-50508658D01*
X49463182Y-50375502D01*
X49576422Y-50262262D01*
X49709578Y-50173290D01*
X49857538Y-50112002D01*
X50014605Y-50080760D01*
X50174755Y-50080760D01*
X50331822Y-50112002D01*
X50331822Y-50112002D01*
G37*
G36*
X76576000Y-51176000D02*
X69474000Y-51176000D01*
X69474000Y-44074000D01*
X76576000Y-44074000D01*
X76576000Y-51176000D01*
X76576000Y-51176000D01*
G37*
G36*
X66891000Y-50891000D02*
X65189000Y-50891000D01*
X65189000Y-49789000D01*
X66891000Y-49789000D01*
X66891000Y-50891000D01*
X66891000Y-50891000D01*
G37*
G36*
X93119190Y-47091026D02*
X93119193Y-47091027D01*
X93324847Y-47153411D01*
X93324849Y-47153412D01*
X93324852Y-47153413D01*
X93514380Y-47254717D01*
X93680506Y-47391054D01*
X93816843Y-47557180D01*
X93918147Y-47746708D01*
X93980534Y-47952370D01*
X94001598Y-48166240D01*
X93980534Y-48380110D01*
X93918147Y-48585772D01*
X93816843Y-48775300D01*
X93680506Y-48941426D01*
X93514380Y-49077763D01*
X93324852Y-49179067D01*
X93324849Y-49179068D01*
X93324847Y-49179069D01*
X93151467Y-49231663D01*
X93119190Y-49241454D01*
X92958912Y-49257240D01*
X91331728Y-49257240D01*
X91171450Y-49241454D01*
X91139173Y-49231663D01*
X90965793Y-49179069D01*
X90965791Y-49179068D01*
X90965788Y-49179067D01*
X90776260Y-49077763D01*
X90610134Y-48941426D01*
X90473797Y-48775300D01*
X90372493Y-48585772D01*
X90310106Y-48380110D01*
X90289042Y-48166240D01*
X90310106Y-47952370D01*
X90372493Y-47746708D01*
X90473797Y-47557180D01*
X90610134Y-47391054D01*
X90776260Y-47254717D01*
X90965788Y-47153413D01*
X90965791Y-47153412D01*
X90965793Y-47153411D01*
X91171447Y-47091027D01*
X91171450Y-47091026D01*
X91331728Y-47075240D01*
X92958912Y-47075240D01*
X93119190Y-47091026D01*
X93119190Y-47091026D01*
G37*
G36*
X45804338Y-44817109D02*
X46059308Y-44922721D01*
X46288775Y-45076046D01*
X46483914Y-45271185D01*
X46637239Y-45500652D01*
X46742851Y-45755622D01*
X46796690Y-46026291D01*
X46796690Y-46302269D01*
X46742851Y-46572938D01*
X46637239Y-46827908D01*
X46483914Y-47057375D01*
X46288775Y-47252514D01*
X46059308Y-47405839D01*
X45804338Y-47511451D01*
X45533669Y-47565290D01*
X45257691Y-47565290D01*
X44987022Y-47511451D01*
X44732052Y-47405839D01*
X44502585Y-47252514D01*
X44307446Y-47057375D01*
X44154121Y-46827908D01*
X44048509Y-46572938D01*
X43994670Y-46302269D01*
X43994670Y-46026291D01*
X44048509Y-45755622D01*
X44154121Y-45500652D01*
X44307446Y-45271185D01*
X44502585Y-45076046D01*
X44732052Y-44922721D01*
X44987022Y-44817109D01*
X45257691Y-44763270D01*
X45533669Y-44763270D01*
X45804338Y-44817109D01*
X45804338Y-44817109D01*
G37*
G36*
X79936320Y-46757240D02*
X78834320Y-46757240D01*
X78834320Y-44655240D01*
X79936320Y-44655240D01*
X79936320Y-46757240D01*
X79936320Y-46757240D01*
G37*
G36*
X85136320Y-46757240D02*
X84034320Y-46757240D01*
X84034320Y-44655240D01*
X85136320Y-44655240D01*
X85136320Y-46757240D01*
X85136320Y-46757240D01*
G37*
G36*
X72877809Y-38853234D02*
X73023686Y-38913658D01*
X73154381Y-39000986D01*
X73154974Y-39001382D01*
X73266618Y-39113026D01*
X73266620Y-39113029D01*
X73354342Y-39244314D01*
X73414766Y-39390191D01*
X73445570Y-39545052D01*
X73445570Y-39702948D01*
X73414766Y-39857809D01*
X73354342Y-40003686D01*
X73267014Y-40134381D01*
X73266618Y-40134974D01*
X73154974Y-40246618D01*
X73154971Y-40246620D01*
X73023686Y-40334342D01*
X72877809Y-40394766D01*
X72722948Y-40425570D01*
X72565052Y-40425570D01*
X72410191Y-40394766D01*
X72264314Y-40334342D01*
X72133029Y-40246620D01*
X72133026Y-40246618D01*
X72021382Y-40134974D01*
X72020986Y-40134381D01*
X71933658Y-40003686D01*
X71873234Y-39857809D01*
X71842430Y-39702948D01*
X71842430Y-39545052D01*
X71873234Y-39390191D01*
X71933658Y-39244314D01*
X72021380Y-39113029D01*
X72021382Y-39113026D01*
X72133026Y-39001382D01*
X72133619Y-39000986D01*
X72264314Y-38913658D01*
X72410191Y-38853234D01*
X72565052Y-38822430D01*
X72722948Y-38822430D01*
X72877809Y-38853234D01*
X72877809Y-38853234D01*
G37*
G36*
X82021809Y-38853234D02*
X82167686Y-38913658D01*
X82298381Y-39000986D01*
X82298974Y-39001382D01*
X82410618Y-39113026D01*
X82410620Y-39113029D01*
X82498342Y-39244314D01*
X82558766Y-39390191D01*
X82589570Y-39545052D01*
X82589570Y-39702948D01*
X82558766Y-39857809D01*
X82498342Y-40003686D01*
X82411014Y-40134381D01*
X82410618Y-40134974D01*
X82298974Y-40246618D01*
X82298971Y-40246620D01*
X82167686Y-40334342D01*
X82021809Y-40394766D01*
X81866948Y-40425570D01*
X81709052Y-40425570D01*
X81554191Y-40394766D01*
X81408314Y-40334342D01*
X81277029Y-40246620D01*
X81277026Y-40246618D01*
X81165382Y-40134974D01*
X81164986Y-40134381D01*
X81077658Y-40003686D01*
X81017234Y-39857809D01*
X80986430Y-39702948D01*
X80986430Y-39545052D01*
X81017234Y-39390191D01*
X81077658Y-39244314D01*
X81165380Y-39113029D01*
X81165382Y-39113026D01*
X81277026Y-39001382D01*
X81277619Y-39000986D01*
X81408314Y-38913658D01*
X81554191Y-38853234D01*
X81709052Y-38822430D01*
X81866948Y-38822430D01*
X82021809Y-38853234D01*
X82021809Y-38853234D01*
G37*
G36*
X84307809Y-38853234D02*
X84453686Y-38913658D01*
X84584381Y-39000986D01*
X84584974Y-39001382D01*
X84696618Y-39113026D01*
X84696620Y-39113029D01*
X84784342Y-39244314D01*
X84844766Y-39390191D01*
X84875570Y-39545052D01*
X84875570Y-39702948D01*
X84844766Y-39857809D01*
X84784342Y-40003686D01*
X84697014Y-40134381D01*
X84696618Y-40134974D01*
X84584974Y-40246618D01*
X84584971Y-40246620D01*
X84453686Y-40334342D01*
X84307809Y-40394766D01*
X84152948Y-40425570D01*
X83995052Y-40425570D01*
X83840191Y-40394766D01*
X83694314Y-40334342D01*
X83563029Y-40246620D01*
X83563026Y-40246618D01*
X83451382Y-40134974D01*
X83450986Y-40134381D01*
X83363658Y-40003686D01*
X83303234Y-39857809D01*
X83272430Y-39702948D01*
X83272430Y-39545052D01*
X83303234Y-39390191D01*
X83363658Y-39244314D01*
X83451380Y-39113029D01*
X83451382Y-39113026D01*
X83563026Y-39001382D01*
X83563619Y-39000986D01*
X83694314Y-38913658D01*
X83840191Y-38853234D01*
X83995052Y-38822430D01*
X84152948Y-38822430D01*
X84307809Y-38853234D01*
X84307809Y-38853234D01*
G37*
G36*
X70591809Y-38853234D02*
X70737686Y-38913658D01*
X70868381Y-39000986D01*
X70868974Y-39001382D01*
X70980618Y-39113026D01*
X70980620Y-39113029D01*
X71068342Y-39244314D01*
X71128766Y-39390191D01*
X71159570Y-39545052D01*
X71159570Y-39702948D01*
X71128766Y-39857809D01*
X71068342Y-40003686D01*
X70981014Y-40134381D01*
X70980618Y-40134974D01*
X70868974Y-40246618D01*
X70868971Y-40246620D01*
X70737686Y-40334342D01*
X70591809Y-40394766D01*
X70436948Y-40425570D01*
X70279052Y-40425570D01*
X70124191Y-40394766D01*
X69978314Y-40334342D01*
X69847029Y-40246620D01*
X69847026Y-40246618D01*
X69735382Y-40134974D01*
X69734986Y-40134381D01*
X69647658Y-40003686D01*
X69587234Y-39857809D01*
X69556430Y-39702948D01*
X69556430Y-39545052D01*
X69587234Y-39390191D01*
X69647658Y-39244314D01*
X69735380Y-39113029D01*
X69735382Y-39113026D01*
X69847026Y-39001382D01*
X69847619Y-39000986D01*
X69978314Y-38913658D01*
X70124191Y-38853234D01*
X70279052Y-38822430D01*
X70436948Y-38822430D01*
X70591809Y-38853234D01*
X70591809Y-38853234D01*
G37*
G36*
X50906809Y-38853234D02*
X51052686Y-38913658D01*
X51183381Y-39000986D01*
X51183974Y-39001382D01*
X51295618Y-39113026D01*
X51295620Y-39113029D01*
X51383342Y-39244314D01*
X51443766Y-39390191D01*
X51474570Y-39545052D01*
X51474570Y-39702948D01*
X51443766Y-39857809D01*
X51383342Y-40003686D01*
X51296014Y-40134381D01*
X51295618Y-40134974D01*
X51183974Y-40246618D01*
X51183971Y-40246620D01*
X51052686Y-40334342D01*
X50906809Y-40394766D01*
X50751948Y-40425570D01*
X50594052Y-40425570D01*
X50439191Y-40394766D01*
X50293314Y-40334342D01*
X50162029Y-40246620D01*
X50162026Y-40246618D01*
X50050382Y-40134974D01*
X50049986Y-40134381D01*
X49962658Y-40003686D01*
X49902234Y-39857809D01*
X49871430Y-39702948D01*
X49871430Y-39545052D01*
X49902234Y-39390191D01*
X49962658Y-39244314D01*
X50050380Y-39113029D01*
X50050382Y-39113026D01*
X50162026Y-39001382D01*
X50162619Y-39000986D01*
X50293314Y-38913658D01*
X50439191Y-38853234D01*
X50594052Y-38822430D01*
X50751948Y-38822430D01*
X50906809Y-38853234D01*
X50906809Y-38853234D01*
G37*
G36*
X53192809Y-38853234D02*
X53338686Y-38913658D01*
X53469381Y-39000986D01*
X53469974Y-39001382D01*
X53581618Y-39113026D01*
X53581620Y-39113029D01*
X53669342Y-39244314D01*
X53729766Y-39390191D01*
X53760570Y-39545052D01*
X53760570Y-39702948D01*
X53729766Y-39857809D01*
X53669342Y-40003686D01*
X53582014Y-40134381D01*
X53581618Y-40134974D01*
X53469974Y-40246618D01*
X53469971Y-40246620D01*
X53338686Y-40334342D01*
X53192809Y-40394766D01*
X53037948Y-40425570D01*
X52880052Y-40425570D01*
X52725191Y-40394766D01*
X52579314Y-40334342D01*
X52448029Y-40246620D01*
X52448026Y-40246618D01*
X52336382Y-40134974D01*
X52335986Y-40134381D01*
X52248658Y-40003686D01*
X52188234Y-39857809D01*
X52157430Y-39702948D01*
X52157430Y-39545052D01*
X52188234Y-39390191D01*
X52248658Y-39244314D01*
X52336380Y-39113029D01*
X52336382Y-39113026D01*
X52448026Y-39001382D01*
X52448619Y-39000986D01*
X52579314Y-38913658D01*
X52725191Y-38853234D01*
X52880052Y-38822430D01*
X53037948Y-38822430D01*
X53192809Y-38853234D01*
X53192809Y-38853234D01*
G37*
G36*
X62336809Y-38853234D02*
X62482686Y-38913658D01*
X62613381Y-39000986D01*
X62613974Y-39001382D01*
X62725618Y-39113026D01*
X62725620Y-39113029D01*
X62813342Y-39244314D01*
X62873766Y-39390191D01*
X62904570Y-39545052D01*
X62904570Y-39702948D01*
X62873766Y-39857809D01*
X62813342Y-40003686D01*
X62726014Y-40134381D01*
X62725618Y-40134974D01*
X62613974Y-40246618D01*
X62613971Y-40246620D01*
X62482686Y-40334342D01*
X62336809Y-40394766D01*
X62181948Y-40425570D01*
X62024052Y-40425570D01*
X61869191Y-40394766D01*
X61723314Y-40334342D01*
X61592029Y-40246620D01*
X61592026Y-40246618D01*
X61480382Y-40134974D01*
X61479986Y-40134381D01*
X61392658Y-40003686D01*
X61332234Y-39857809D01*
X61301430Y-39702948D01*
X61301430Y-39545052D01*
X61332234Y-39390191D01*
X61392658Y-39244314D01*
X61480380Y-39113029D01*
X61480382Y-39113026D01*
X61592026Y-39001382D01*
X61592619Y-39000986D01*
X61723314Y-38913658D01*
X61869191Y-38853234D01*
X62024052Y-38822430D01*
X62181948Y-38822430D01*
X62336809Y-38853234D01*
X62336809Y-38853234D01*
G37*
G36*
X64622809Y-38853234D02*
X64768686Y-38913658D01*
X64899381Y-39000986D01*
X64899974Y-39001382D01*
X65011618Y-39113026D01*
X65011620Y-39113029D01*
X65099342Y-39244314D01*
X65159766Y-39390191D01*
X65190570Y-39545052D01*
X65190570Y-39702948D01*
X65159766Y-39857809D01*
X65099342Y-40003686D01*
X65012014Y-40134381D01*
X65011618Y-40134974D01*
X64899974Y-40246618D01*
X64899971Y-40246620D01*
X64768686Y-40334342D01*
X64622809Y-40394766D01*
X64467948Y-40425570D01*
X64310052Y-40425570D01*
X64155191Y-40394766D01*
X64009314Y-40334342D01*
X63878029Y-40246620D01*
X63878026Y-40246618D01*
X63766382Y-40134974D01*
X63765986Y-40134381D01*
X63678658Y-40003686D01*
X63618234Y-39857809D01*
X63587430Y-39702948D01*
X63587430Y-39545052D01*
X63618234Y-39390191D01*
X63678658Y-39244314D01*
X63766380Y-39113029D01*
X63766382Y-39113026D01*
X63878026Y-39001382D01*
X63878619Y-39000986D01*
X64009314Y-38913658D01*
X64155191Y-38853234D01*
X64310052Y-38822430D01*
X64467948Y-38822430D01*
X64622809Y-38853234D01*
X64622809Y-38853234D01*
G37*
G36*
X94868239Y-29577467D02*
X95182282Y-29639934D01*
X95773926Y-29885001D01*
X96063523Y-30078504D01*
X96306395Y-30240786D01*
X96759214Y-30693605D01*
X96759216Y-30693608D01*
X97114999Y-31226074D01*
X97255108Y-31564327D01*
X97360066Y-31817719D01*
X97485000Y-32445803D01*
X97485000Y-33086197D01*
X97454601Y-33239024D01*
X97360066Y-33714282D01*
X97114999Y-34305926D01*
X96834740Y-34725363D01*
X96759214Y-34838395D01*
X96306395Y-35291214D01*
X96306392Y-35291216D01*
X95773926Y-35646999D01*
X95182282Y-35892066D01*
X94868239Y-35954533D01*
X94554197Y-36017000D01*
X93913803Y-36017000D01*
X93599761Y-35954533D01*
X93285718Y-35892066D01*
X92694074Y-35646999D01*
X92161608Y-35291216D01*
X92161605Y-35291214D01*
X91708786Y-34838395D01*
X91633260Y-34725363D01*
X91353001Y-34305926D01*
X91107934Y-33714282D01*
X91013399Y-33239024D01*
X90983000Y-33086197D01*
X90983000Y-32445803D01*
X91107934Y-31817719D01*
X91212892Y-31564327D01*
X91353001Y-31226074D01*
X91708784Y-30693608D01*
X91708786Y-30693605D01*
X92161605Y-30240786D01*
X92404477Y-30078504D01*
X92694074Y-29885001D01*
X93285718Y-29639934D01*
X93599761Y-29577467D01*
X93913803Y-29515000D01*
X94554197Y-29515000D01*
X94868239Y-29577467D01*
X94868239Y-29577467D01*
G37*
G36*
X43560239Y-29577467D02*
X43874282Y-29639934D01*
X44465926Y-29885001D01*
X44755523Y-30078504D01*
X44998395Y-30240786D01*
X45451214Y-30693605D01*
X45451216Y-30693608D01*
X45806999Y-31226074D01*
X45947108Y-31564327D01*
X46052066Y-31817719D01*
X46177000Y-32445803D01*
X46177000Y-33086197D01*
X46146601Y-33239024D01*
X46052066Y-33714282D01*
X45806999Y-34305926D01*
X45526740Y-34725363D01*
X45451214Y-34838395D01*
X44998395Y-35291214D01*
X44998392Y-35291216D01*
X44465926Y-35646999D01*
X43874282Y-35892066D01*
X43560239Y-35954533D01*
X43246197Y-36017000D01*
X42605803Y-36017000D01*
X42291761Y-35954533D01*
X41977718Y-35892066D01*
X41386074Y-35646999D01*
X40853608Y-35291216D01*
X40853605Y-35291214D01*
X40400786Y-34838395D01*
X40325260Y-34725363D01*
X40045001Y-34305926D01*
X39799934Y-33714282D01*
X39705399Y-33239024D01*
X39675000Y-33086197D01*
X39675000Y-32445803D01*
X39799934Y-31817719D01*
X39904892Y-31564327D01*
X40045001Y-31226074D01*
X40400784Y-30693608D01*
X40400786Y-30693605D01*
X40853605Y-30240786D01*
X41096477Y-30078504D01*
X41386074Y-29885001D01*
X41977718Y-29639934D01*
X42291761Y-29577467D01*
X42605803Y-29515000D01*
X43246197Y-29515000D01*
X43560239Y-29577467D01*
X43560239Y-29577467D01*
G37*
G36*
X61320809Y-34027234D02*
X61466686Y-34087658D01*
X61597381Y-34174986D01*
X61597974Y-34175382D01*
X61709618Y-34287026D01*
X61709620Y-34287029D01*
X61797342Y-34418314D01*
X61857766Y-34564191D01*
X61888570Y-34719052D01*
X61888570Y-34876948D01*
X61857766Y-35031809D01*
X61797342Y-35177686D01*
X61717250Y-35297552D01*
X61709618Y-35308974D01*
X61597974Y-35420618D01*
X61597971Y-35420620D01*
X61466686Y-35508342D01*
X61320809Y-35568766D01*
X61165948Y-35599570D01*
X61008052Y-35599570D01*
X60853191Y-35568766D01*
X60707314Y-35508342D01*
X60576029Y-35420620D01*
X60576026Y-35420618D01*
X60464382Y-35308974D01*
X60456750Y-35297552D01*
X60376658Y-35177686D01*
X60316234Y-35031809D01*
X60285430Y-34876948D01*
X60285430Y-34719052D01*
X60316234Y-34564191D01*
X60376658Y-34418314D01*
X60464380Y-34287029D01*
X60464382Y-34287026D01*
X60576026Y-34175382D01*
X60576619Y-34174986D01*
X60707314Y-34087658D01*
X60853191Y-34027234D01*
X61008052Y-33996430D01*
X61165948Y-33996430D01*
X61320809Y-34027234D01*
X61320809Y-34027234D01*
G37*
G36*
X55224809Y-34027234D02*
X55370686Y-34087658D01*
X55501381Y-34174986D01*
X55501974Y-34175382D01*
X55613618Y-34287026D01*
X55613620Y-34287029D01*
X55701342Y-34418314D01*
X55761766Y-34564191D01*
X55792570Y-34719052D01*
X55792570Y-34876948D01*
X55761766Y-35031809D01*
X55701342Y-35177686D01*
X55621250Y-35297552D01*
X55613618Y-35308974D01*
X55501974Y-35420618D01*
X55501971Y-35420620D01*
X55370686Y-35508342D01*
X55224809Y-35568766D01*
X55069948Y-35599570D01*
X54912052Y-35599570D01*
X54757191Y-35568766D01*
X54611314Y-35508342D01*
X54480029Y-35420620D01*
X54480026Y-35420618D01*
X54368382Y-35308974D01*
X54360750Y-35297552D01*
X54280658Y-35177686D01*
X54220234Y-35031809D01*
X54189430Y-34876948D01*
X54189430Y-34719052D01*
X54220234Y-34564191D01*
X54280658Y-34418314D01*
X54368380Y-34287029D01*
X54368382Y-34287026D01*
X54480026Y-34175382D01*
X54480619Y-34174986D01*
X54611314Y-34087658D01*
X54757191Y-34027234D01*
X54912052Y-33996430D01*
X55069948Y-33996430D01*
X55224809Y-34027234D01*
X55224809Y-34027234D01*
G37*
G36*
X57256809Y-34027234D02*
X57402686Y-34087658D01*
X57533381Y-34174986D01*
X57533974Y-34175382D01*
X57645618Y-34287026D01*
X57645620Y-34287029D01*
X57733342Y-34418314D01*
X57793766Y-34564191D01*
X57824570Y-34719052D01*
X57824570Y-34876948D01*
X57793766Y-35031809D01*
X57733342Y-35177686D01*
X57653250Y-35297552D01*
X57645618Y-35308974D01*
X57533974Y-35420618D01*
X57533971Y-35420620D01*
X57402686Y-35508342D01*
X57256809Y-35568766D01*
X57101948Y-35599570D01*
X56944052Y-35599570D01*
X56789191Y-35568766D01*
X56643314Y-35508342D01*
X56512029Y-35420620D01*
X56512026Y-35420618D01*
X56400382Y-35308974D01*
X56392750Y-35297552D01*
X56312658Y-35177686D01*
X56252234Y-35031809D01*
X56221430Y-34876948D01*
X56221430Y-34719052D01*
X56252234Y-34564191D01*
X56312658Y-34418314D01*
X56400380Y-34287029D01*
X56400382Y-34287026D01*
X56512026Y-34175382D01*
X56512619Y-34174986D01*
X56643314Y-34087658D01*
X56789191Y-34027234D01*
X56944052Y-33996430D01*
X57101948Y-33996430D01*
X57256809Y-34027234D01*
X57256809Y-34027234D01*
G37*
G36*
X59288809Y-34027234D02*
X59434686Y-34087658D01*
X59565381Y-34174986D01*
X59565974Y-34175382D01*
X59677618Y-34287026D01*
X59677620Y-34287029D01*
X59765342Y-34418314D01*
X59825766Y-34564191D01*
X59856570Y-34719052D01*
X59856570Y-34876948D01*
X59825766Y-35031809D01*
X59765342Y-35177686D01*
X59685250Y-35297552D01*
X59677618Y-35308974D01*
X59565974Y-35420618D01*
X59565971Y-35420620D01*
X59434686Y-35508342D01*
X59288809Y-35568766D01*
X59133948Y-35599570D01*
X58976052Y-35599570D01*
X58821191Y-35568766D01*
X58675314Y-35508342D01*
X58544029Y-35420620D01*
X58544026Y-35420618D01*
X58432382Y-35308974D01*
X58424750Y-35297552D01*
X58344658Y-35177686D01*
X58284234Y-35031809D01*
X58253430Y-34876948D01*
X58253430Y-34719052D01*
X58284234Y-34564191D01*
X58344658Y-34418314D01*
X58432380Y-34287029D01*
X58432382Y-34287026D01*
X58544026Y-34175382D01*
X58544619Y-34174986D01*
X58675314Y-34087658D01*
X58821191Y-34027234D01*
X58976052Y-33996430D01*
X59133948Y-33996430D01*
X59288809Y-34027234D01*
X59288809Y-34027234D01*
G37*
G36*
X76941809Y-34027234D02*
X77087686Y-34087658D01*
X77218381Y-34174986D01*
X77218974Y-34175382D01*
X77330618Y-34287026D01*
X77330620Y-34287029D01*
X77418342Y-34418314D01*
X77478766Y-34564191D01*
X77509570Y-34719052D01*
X77509570Y-34876948D01*
X77478766Y-35031809D01*
X77418342Y-35177686D01*
X77338250Y-35297552D01*
X77330618Y-35308974D01*
X77218974Y-35420618D01*
X77218971Y-35420620D01*
X77087686Y-35508342D01*
X76941809Y-35568766D01*
X76786948Y-35599570D01*
X76629052Y-35599570D01*
X76474191Y-35568766D01*
X76328314Y-35508342D01*
X76197029Y-35420620D01*
X76197026Y-35420618D01*
X76085382Y-35308974D01*
X76077750Y-35297552D01*
X75997658Y-35177686D01*
X75937234Y-35031809D01*
X75906430Y-34876948D01*
X75906430Y-34719052D01*
X75937234Y-34564191D01*
X75997658Y-34418314D01*
X76085380Y-34287029D01*
X76085382Y-34287026D01*
X76197026Y-34175382D01*
X76197619Y-34174986D01*
X76328314Y-34087658D01*
X76474191Y-34027234D01*
X76629052Y-33996430D01*
X76786948Y-33996430D01*
X76941809Y-34027234D01*
X76941809Y-34027234D01*
G37*
G36*
X78973809Y-34027234D02*
X79119686Y-34087658D01*
X79250381Y-34174986D01*
X79250974Y-34175382D01*
X79362618Y-34287026D01*
X79362620Y-34287029D01*
X79450342Y-34418314D01*
X79510766Y-34564191D01*
X79541570Y-34719052D01*
X79541570Y-34876948D01*
X79510766Y-35031809D01*
X79450342Y-35177686D01*
X79370250Y-35297552D01*
X79362618Y-35308974D01*
X79250974Y-35420618D01*
X79250971Y-35420620D01*
X79119686Y-35508342D01*
X78973809Y-35568766D01*
X78818948Y-35599570D01*
X78661052Y-35599570D01*
X78506191Y-35568766D01*
X78360314Y-35508342D01*
X78229029Y-35420620D01*
X78229026Y-35420618D01*
X78117382Y-35308974D01*
X78109750Y-35297552D01*
X78029658Y-35177686D01*
X77969234Y-35031809D01*
X77938430Y-34876948D01*
X77938430Y-34719052D01*
X77969234Y-34564191D01*
X78029658Y-34418314D01*
X78117380Y-34287029D01*
X78117382Y-34287026D01*
X78229026Y-34175382D01*
X78229619Y-34174986D01*
X78360314Y-34087658D01*
X78506191Y-34027234D01*
X78661052Y-33996430D01*
X78818948Y-33996430D01*
X78973809Y-34027234D01*
X78973809Y-34027234D01*
G37*
G36*
X81005809Y-34027234D02*
X81151686Y-34087658D01*
X81282381Y-34174986D01*
X81282974Y-34175382D01*
X81394618Y-34287026D01*
X81394620Y-34287029D01*
X81482342Y-34418314D01*
X81542766Y-34564191D01*
X81573570Y-34719052D01*
X81573570Y-34876948D01*
X81542766Y-35031809D01*
X81482342Y-35177686D01*
X81402250Y-35297552D01*
X81394618Y-35308974D01*
X81282974Y-35420618D01*
X81282971Y-35420620D01*
X81151686Y-35508342D01*
X81005809Y-35568766D01*
X80850948Y-35599570D01*
X80693052Y-35599570D01*
X80538191Y-35568766D01*
X80392314Y-35508342D01*
X80261029Y-35420620D01*
X80261026Y-35420618D01*
X80149382Y-35308974D01*
X80141750Y-35297552D01*
X80061658Y-35177686D01*
X80001234Y-35031809D01*
X79970430Y-34876948D01*
X79970430Y-34719052D01*
X80001234Y-34564191D01*
X80061658Y-34418314D01*
X80149380Y-34287029D01*
X80149382Y-34287026D01*
X80261026Y-34175382D01*
X80261619Y-34174986D01*
X80392314Y-34087658D01*
X80538191Y-34027234D01*
X80693052Y-33996430D01*
X80850948Y-33996430D01*
X81005809Y-34027234D01*
X81005809Y-34027234D01*
G37*
G36*
X74909809Y-34027234D02*
X75055686Y-34087658D01*
X75186381Y-34174986D01*
X75186974Y-34175382D01*
X75298618Y-34287026D01*
X75298620Y-34287029D01*
X75386342Y-34418314D01*
X75446766Y-34564191D01*
X75477570Y-34719052D01*
X75477570Y-34876948D01*
X75446766Y-35031809D01*
X75386342Y-35177686D01*
X75306250Y-35297552D01*
X75298618Y-35308974D01*
X75186974Y-35420618D01*
X75186971Y-35420620D01*
X75055686Y-35508342D01*
X74909809Y-35568766D01*
X74754948Y-35599570D01*
X74597052Y-35599570D01*
X74442191Y-35568766D01*
X74296314Y-35508342D01*
X74165029Y-35420620D01*
X74165026Y-35420618D01*
X74053382Y-35308974D01*
X74045750Y-35297552D01*
X73965658Y-35177686D01*
X73905234Y-35031809D01*
X73874430Y-34876948D01*
X73874430Y-34719052D01*
X73905234Y-34564191D01*
X73965658Y-34418314D01*
X74053380Y-34287029D01*
X74053382Y-34287026D01*
X74165026Y-34175382D01*
X74165619Y-34174986D01*
X74296314Y-34087658D01*
X74442191Y-34027234D01*
X74597052Y-33996430D01*
X74754948Y-33996430D01*
X74909809Y-34027234D01*
X74909809Y-34027234D01*
G37*
G36*
X85650565Y-32898389D02*
X85841834Y-32977615D01*
X86013976Y-33092637D01*
X86160363Y-33239024D01*
X86275385Y-33411166D01*
X86354611Y-33602435D01*
X86395000Y-33805484D01*
X86395000Y-34012516D01*
X86354611Y-34215565D01*
X86275385Y-34406834D01*
X86160363Y-34578976D01*
X86013976Y-34725363D01*
X85841834Y-34840385D01*
X85650565Y-34919611D01*
X85447516Y-34960000D01*
X85240484Y-34960000D01*
X85037435Y-34919611D01*
X84846166Y-34840385D01*
X84674024Y-34725363D01*
X84527637Y-34578976D01*
X84412615Y-34406834D01*
X84333389Y-34215565D01*
X84293000Y-34012516D01*
X84293000Y-33805484D01*
X84333389Y-33602435D01*
X84412615Y-33411166D01*
X84527637Y-33239024D01*
X84674024Y-33092637D01*
X84846166Y-32977615D01*
X85037435Y-32898389D01*
X85240484Y-32858000D01*
X85447516Y-32858000D01*
X85650565Y-32898389D01*
X85650565Y-32898389D01*
G37*
G36*
X69394565Y-32898389D02*
X69585834Y-32977615D01*
X69757976Y-33092637D01*
X69904363Y-33239024D01*
X70019385Y-33411166D01*
X70098611Y-33602435D01*
X70139000Y-33805484D01*
X70139000Y-34012516D01*
X70098611Y-34215565D01*
X70019385Y-34406834D01*
X69904363Y-34578976D01*
X69757976Y-34725363D01*
X69585834Y-34840385D01*
X69394565Y-34919611D01*
X69191516Y-34960000D01*
X68984484Y-34960000D01*
X68781435Y-34919611D01*
X68590166Y-34840385D01*
X68418024Y-34725363D01*
X68271637Y-34578976D01*
X68156615Y-34406834D01*
X68077389Y-34215565D01*
X68037000Y-34012516D01*
X68037000Y-33805484D01*
X68077389Y-33602435D01*
X68156615Y-33411166D01*
X68271637Y-33239024D01*
X68418024Y-33092637D01*
X68590166Y-32977615D01*
X68781435Y-32898389D01*
X68984484Y-32858000D01*
X69191516Y-32858000D01*
X69394565Y-32898389D01*
X69394565Y-32898389D01*
G37*
G36*
X65965565Y-32898389D02*
X66156834Y-32977615D01*
X66328976Y-33092637D01*
X66475363Y-33239024D01*
X66590385Y-33411166D01*
X66669611Y-33602435D01*
X66710000Y-33805484D01*
X66710000Y-34012516D01*
X66669611Y-34215565D01*
X66590385Y-34406834D01*
X66475363Y-34578976D01*
X66328976Y-34725363D01*
X66156834Y-34840385D01*
X65965565Y-34919611D01*
X65762516Y-34960000D01*
X65555484Y-34960000D01*
X65352435Y-34919611D01*
X65161166Y-34840385D01*
X64989024Y-34725363D01*
X64842637Y-34578976D01*
X64727615Y-34406834D01*
X64648389Y-34215565D01*
X64608000Y-34012516D01*
X64608000Y-33805484D01*
X64648389Y-33602435D01*
X64727615Y-33411166D01*
X64842637Y-33239024D01*
X64989024Y-33092637D01*
X65161166Y-32977615D01*
X65352435Y-32898389D01*
X65555484Y-32858000D01*
X65762516Y-32858000D01*
X65965565Y-32898389D01*
X65965565Y-32898389D01*
G37*
G36*
X49709565Y-32898389D02*
X49900834Y-32977615D01*
X50072976Y-33092637D01*
X50219363Y-33239024D01*
X50334385Y-33411166D01*
X50413611Y-33602435D01*
X50454000Y-33805484D01*
X50454000Y-34012516D01*
X50413611Y-34215565D01*
X50334385Y-34406834D01*
X50219363Y-34578976D01*
X50072976Y-34725363D01*
X49900834Y-34840385D01*
X49709565Y-34919611D01*
X49506516Y-34960000D01*
X49299484Y-34960000D01*
X49096435Y-34919611D01*
X48905166Y-34840385D01*
X48733024Y-34725363D01*
X48586637Y-34578976D01*
X48471615Y-34406834D01*
X48392389Y-34215565D01*
X48352000Y-34012516D01*
X48352000Y-33805484D01*
X48392389Y-33602435D01*
X48471615Y-33411166D01*
X48586637Y-33239024D01*
X48733024Y-33092637D01*
X48905166Y-32977615D01*
X49096435Y-32898389D01*
X49299484Y-32858000D01*
X49506516Y-32858000D01*
X49709565Y-32898389D01*
X49709565Y-32898389D01*
G37*
G36*
X56240809Y-32249234D02*
X56386686Y-32309658D01*
X56517381Y-32396986D01*
X56517974Y-32397382D01*
X56629618Y-32509026D01*
X56629620Y-32509029D01*
X56717342Y-32640314D01*
X56777766Y-32786191D01*
X56808570Y-32941052D01*
X56808570Y-33098948D01*
X56777766Y-33253809D01*
X56717342Y-33399686D01*
X56630014Y-33530381D01*
X56629618Y-33530974D01*
X56517974Y-33642618D01*
X56517971Y-33642620D01*
X56386686Y-33730342D01*
X56240809Y-33790766D01*
X56085948Y-33821570D01*
X55928052Y-33821570D01*
X55773191Y-33790766D01*
X55627314Y-33730342D01*
X55496029Y-33642620D01*
X55496026Y-33642618D01*
X55384382Y-33530974D01*
X55383986Y-33530381D01*
X55296658Y-33399686D01*
X55236234Y-33253809D01*
X55205430Y-33098948D01*
X55205430Y-32941052D01*
X55236234Y-32786191D01*
X55296658Y-32640314D01*
X55384380Y-32509029D01*
X55384382Y-32509026D01*
X55496026Y-32397382D01*
X55496619Y-32396986D01*
X55627314Y-32309658D01*
X55773191Y-32249234D01*
X55928052Y-32218430D01*
X56085948Y-32218430D01*
X56240809Y-32249234D01*
X56240809Y-32249234D01*
G37*
G36*
X54208809Y-32249234D02*
X54354686Y-32309658D01*
X54485381Y-32396986D01*
X54485974Y-32397382D01*
X54597618Y-32509026D01*
X54597620Y-32509029D01*
X54685342Y-32640314D01*
X54745766Y-32786191D01*
X54776570Y-32941052D01*
X54776570Y-33098948D01*
X54745766Y-33253809D01*
X54685342Y-33399686D01*
X54598014Y-33530381D01*
X54597618Y-33530974D01*
X54485974Y-33642618D01*
X54485971Y-33642620D01*
X54354686Y-33730342D01*
X54208809Y-33790766D01*
X54053948Y-33821570D01*
X53896052Y-33821570D01*
X53741191Y-33790766D01*
X53595314Y-33730342D01*
X53464029Y-33642620D01*
X53464026Y-33642618D01*
X53352382Y-33530974D01*
X53351986Y-33530381D01*
X53264658Y-33399686D01*
X53204234Y-33253809D01*
X53173430Y-33098948D01*
X53173430Y-32941052D01*
X53204234Y-32786191D01*
X53264658Y-32640314D01*
X53352380Y-32509029D01*
X53352382Y-32509026D01*
X53464026Y-32397382D01*
X53464619Y-32396986D01*
X53595314Y-32309658D01*
X53741191Y-32249234D01*
X53896052Y-32218430D01*
X54053948Y-32218430D01*
X54208809Y-32249234D01*
X54208809Y-32249234D01*
G37*
G36*
X60304809Y-32249234D02*
X60450686Y-32309658D01*
X60581381Y-32396986D01*
X60581974Y-32397382D01*
X60693618Y-32509026D01*
X60693620Y-32509029D01*
X60781342Y-32640314D01*
X60841766Y-32786191D01*
X60872570Y-32941052D01*
X60872570Y-33098948D01*
X60841766Y-33253809D01*
X60781342Y-33399686D01*
X60694014Y-33530381D01*
X60693618Y-33530974D01*
X60581974Y-33642618D01*
X60581971Y-33642620D01*
X60450686Y-33730342D01*
X60304809Y-33790766D01*
X60149948Y-33821570D01*
X59992052Y-33821570D01*
X59837191Y-33790766D01*
X59691314Y-33730342D01*
X59560029Y-33642620D01*
X59560026Y-33642618D01*
X59448382Y-33530974D01*
X59447986Y-33530381D01*
X59360658Y-33399686D01*
X59300234Y-33253809D01*
X59269430Y-33098948D01*
X59269430Y-32941052D01*
X59300234Y-32786191D01*
X59360658Y-32640314D01*
X59448380Y-32509029D01*
X59448382Y-32509026D01*
X59560026Y-32397382D01*
X59560619Y-32396986D01*
X59691314Y-32309658D01*
X59837191Y-32249234D01*
X59992052Y-32218430D01*
X60149948Y-32218430D01*
X60304809Y-32249234D01*
X60304809Y-32249234D01*
G37*
G36*
X58272809Y-32249234D02*
X58418686Y-32309658D01*
X58549381Y-32396986D01*
X58549974Y-32397382D01*
X58661618Y-32509026D01*
X58661620Y-32509029D01*
X58749342Y-32640314D01*
X58809766Y-32786191D01*
X58840570Y-32941052D01*
X58840570Y-33098948D01*
X58809766Y-33253809D01*
X58749342Y-33399686D01*
X58662014Y-33530381D01*
X58661618Y-33530974D01*
X58549974Y-33642618D01*
X58549971Y-33642620D01*
X58418686Y-33730342D01*
X58272809Y-33790766D01*
X58117948Y-33821570D01*
X57960052Y-33821570D01*
X57805191Y-33790766D01*
X57659314Y-33730342D01*
X57528029Y-33642620D01*
X57528026Y-33642618D01*
X57416382Y-33530974D01*
X57415986Y-33530381D01*
X57328658Y-33399686D01*
X57268234Y-33253809D01*
X57237430Y-33098948D01*
X57237430Y-32941052D01*
X57268234Y-32786191D01*
X57328658Y-32640314D01*
X57416380Y-32509029D01*
X57416382Y-32509026D01*
X57528026Y-32397382D01*
X57528619Y-32396986D01*
X57659314Y-32309658D01*
X57805191Y-32249234D01*
X57960052Y-32218430D01*
X58117948Y-32218430D01*
X58272809Y-32249234D01*
X58272809Y-32249234D01*
G37*
G36*
X77957809Y-32249234D02*
X78103686Y-32309658D01*
X78234381Y-32396986D01*
X78234974Y-32397382D01*
X78346618Y-32509026D01*
X78346620Y-32509029D01*
X78434342Y-32640314D01*
X78494766Y-32786191D01*
X78525570Y-32941052D01*
X78525570Y-33098948D01*
X78494766Y-33253809D01*
X78434342Y-33399686D01*
X78347014Y-33530381D01*
X78346618Y-33530974D01*
X78234974Y-33642618D01*
X78234971Y-33642620D01*
X78103686Y-33730342D01*
X77957809Y-33790766D01*
X77802948Y-33821570D01*
X77645052Y-33821570D01*
X77490191Y-33790766D01*
X77344314Y-33730342D01*
X77213029Y-33642620D01*
X77213026Y-33642618D01*
X77101382Y-33530974D01*
X77100986Y-33530381D01*
X77013658Y-33399686D01*
X76953234Y-33253809D01*
X76922430Y-33098948D01*
X76922430Y-32941052D01*
X76953234Y-32786191D01*
X77013658Y-32640314D01*
X77101380Y-32509029D01*
X77101382Y-32509026D01*
X77213026Y-32397382D01*
X77213619Y-32396986D01*
X77344314Y-32309658D01*
X77490191Y-32249234D01*
X77645052Y-32218430D01*
X77802948Y-32218430D01*
X77957809Y-32249234D01*
X77957809Y-32249234D01*
G37*
G36*
X75925809Y-32249234D02*
X76071686Y-32309658D01*
X76202381Y-32396986D01*
X76202974Y-32397382D01*
X76314618Y-32509026D01*
X76314620Y-32509029D01*
X76402342Y-32640314D01*
X76462766Y-32786191D01*
X76493570Y-32941052D01*
X76493570Y-33098948D01*
X76462766Y-33253809D01*
X76402342Y-33399686D01*
X76315014Y-33530381D01*
X76314618Y-33530974D01*
X76202974Y-33642618D01*
X76202971Y-33642620D01*
X76071686Y-33730342D01*
X75925809Y-33790766D01*
X75770948Y-33821570D01*
X75613052Y-33821570D01*
X75458191Y-33790766D01*
X75312314Y-33730342D01*
X75181029Y-33642620D01*
X75181026Y-33642618D01*
X75069382Y-33530974D01*
X75068986Y-33530381D01*
X74981658Y-33399686D01*
X74921234Y-33253809D01*
X74890430Y-33098948D01*
X74890430Y-32941052D01*
X74921234Y-32786191D01*
X74981658Y-32640314D01*
X75069380Y-32509029D01*
X75069382Y-32509026D01*
X75181026Y-32397382D01*
X75181619Y-32396986D01*
X75312314Y-32309658D01*
X75458191Y-32249234D01*
X75613052Y-32218430D01*
X75770948Y-32218430D01*
X75925809Y-32249234D01*
X75925809Y-32249234D01*
G37*
G36*
X79989809Y-32249234D02*
X80135686Y-32309658D01*
X80266381Y-32396986D01*
X80266974Y-32397382D01*
X80378618Y-32509026D01*
X80378620Y-32509029D01*
X80466342Y-32640314D01*
X80526766Y-32786191D01*
X80557570Y-32941052D01*
X80557570Y-33098948D01*
X80526766Y-33253809D01*
X80466342Y-33399686D01*
X80379014Y-33530381D01*
X80378618Y-33530974D01*
X80266974Y-33642618D01*
X80266971Y-33642620D01*
X80135686Y-33730342D01*
X79989809Y-33790766D01*
X79834948Y-33821570D01*
X79677052Y-33821570D01*
X79522191Y-33790766D01*
X79376314Y-33730342D01*
X79245029Y-33642620D01*
X79245026Y-33642618D01*
X79133382Y-33530974D01*
X79132986Y-33530381D01*
X79045658Y-33399686D01*
X78985234Y-33253809D01*
X78954430Y-33098948D01*
X78954430Y-32941052D01*
X78985234Y-32786191D01*
X79045658Y-32640314D01*
X79133380Y-32509029D01*
X79133382Y-32509026D01*
X79245026Y-32397382D01*
X79245619Y-32396986D01*
X79376314Y-32309658D01*
X79522191Y-32249234D01*
X79677052Y-32218430D01*
X79834948Y-32218430D01*
X79989809Y-32249234D01*
X79989809Y-32249234D01*
G37*
G36*
X73893809Y-32249234D02*
X74039686Y-32309658D01*
X74170381Y-32396986D01*
X74170974Y-32397382D01*
X74282618Y-32509026D01*
X74282620Y-32509029D01*
X74370342Y-32640314D01*
X74430766Y-32786191D01*
X74461570Y-32941052D01*
X74461570Y-33098948D01*
X74430766Y-33253809D01*
X74370342Y-33399686D01*
X74283014Y-33530381D01*
X74282618Y-33530974D01*
X74170974Y-33642618D01*
X74170971Y-33642620D01*
X74039686Y-33730342D01*
X73893809Y-33790766D01*
X73738948Y-33821570D01*
X73581052Y-33821570D01*
X73426191Y-33790766D01*
X73280314Y-33730342D01*
X73149029Y-33642620D01*
X73149026Y-33642618D01*
X73037382Y-33530974D01*
X73036986Y-33530381D01*
X72949658Y-33399686D01*
X72889234Y-33253809D01*
X72858430Y-33098948D01*
X72858430Y-32941052D01*
X72889234Y-32786191D01*
X72949658Y-32640314D01*
X73037380Y-32509029D01*
X73037382Y-32509026D01*
X73149026Y-32397382D01*
X73149619Y-32396986D01*
X73280314Y-32309658D01*
X73426191Y-32249234D01*
X73581052Y-32218430D01*
X73738948Y-32218430D01*
X73893809Y-32249234D01*
X73893809Y-32249234D01*
G37*
G36*
X64377160Y-28844368D02*
X64377162Y-28844369D01*
X64377163Y-28844369D01*
X64491514Y-28891735D01*
X64686726Y-28972594D01*
X64965327Y-29158749D01*
X65202251Y-29395673D01*
X65388406Y-29674274D01*
X65516632Y-29983840D01*
X65582000Y-30312465D01*
X65582000Y-30647535D01*
X65516632Y-30976160D01*
X65388406Y-31285726D01*
X65202251Y-31564327D01*
X64965327Y-31801251D01*
X64686726Y-31987406D01*
X64491514Y-32068265D01*
X64377163Y-32115631D01*
X64377162Y-32115631D01*
X64377160Y-32115632D01*
X64048535Y-32181000D01*
X63713465Y-32181000D01*
X63384840Y-32115632D01*
X63384838Y-32115631D01*
X63384837Y-32115631D01*
X63270486Y-32068265D01*
X63075274Y-31987406D01*
X62796673Y-31801251D01*
X62559749Y-31564327D01*
X62373594Y-31285726D01*
X62245368Y-30976160D01*
X62180000Y-30647535D01*
X62180000Y-30312465D01*
X62245368Y-29983840D01*
X62373594Y-29674274D01*
X62559749Y-29395673D01*
X62796673Y-29158749D01*
X63075274Y-28972594D01*
X63270486Y-28891735D01*
X63384837Y-28844369D01*
X63384838Y-28844369D01*
X63384840Y-28844368D01*
X63713465Y-28779000D01*
X64048535Y-28779000D01*
X64377160Y-28844368D01*
X64377160Y-28844368D01*
G37*
G36*
X84062160Y-28844368D02*
X84062162Y-28844369D01*
X84062163Y-28844369D01*
X84176514Y-28891735D01*
X84371726Y-28972594D01*
X84650327Y-29158749D01*
X84887251Y-29395673D01*
X85073406Y-29674274D01*
X85201632Y-29983840D01*
X85267000Y-30312465D01*
X85267000Y-30647535D01*
X85201632Y-30976160D01*
X85073406Y-31285726D01*
X84887251Y-31564327D01*
X84650327Y-31801251D01*
X84371726Y-31987406D01*
X84176514Y-32068265D01*
X84062163Y-32115631D01*
X84062162Y-32115631D01*
X84062160Y-32115632D01*
X83733535Y-32181000D01*
X83398465Y-32181000D01*
X83069840Y-32115632D01*
X83069838Y-32115631D01*
X83069837Y-32115631D01*
X82955486Y-32068265D01*
X82760274Y-31987406D01*
X82481673Y-31801251D01*
X82244749Y-31564327D01*
X82058594Y-31285726D01*
X81930368Y-30976160D01*
X81865000Y-30647535D01*
X81865000Y-30312465D01*
X81930368Y-29983840D01*
X82058594Y-29674274D01*
X82244749Y-29395673D01*
X82481673Y-29158749D01*
X82760274Y-28972594D01*
X82955486Y-28891735D01*
X83069837Y-28844369D01*
X83069838Y-28844369D01*
X83069840Y-28844368D01*
X83398465Y-28779000D01*
X83733535Y-28779000D01*
X84062160Y-28844368D01*
X84062160Y-28844368D01*
G37*
G36*
X71362160Y-28844368D02*
X71362162Y-28844369D01*
X71362163Y-28844369D01*
X71476514Y-28891735D01*
X71671726Y-28972594D01*
X71950327Y-29158749D01*
X72187251Y-29395673D01*
X72373406Y-29674274D01*
X72501632Y-29983840D01*
X72567000Y-30312465D01*
X72567000Y-30647535D01*
X72501632Y-30976160D01*
X72373406Y-31285726D01*
X72187251Y-31564327D01*
X71950327Y-31801251D01*
X71671726Y-31987406D01*
X71476514Y-32068265D01*
X71362163Y-32115631D01*
X71362162Y-32115631D01*
X71362160Y-32115632D01*
X71033535Y-32181000D01*
X70698465Y-32181000D01*
X70369840Y-32115632D01*
X70369838Y-32115631D01*
X70369837Y-32115631D01*
X70255486Y-32068265D01*
X70060274Y-31987406D01*
X69781673Y-31801251D01*
X69544749Y-31564327D01*
X69358594Y-31285726D01*
X69230368Y-30976160D01*
X69165000Y-30647535D01*
X69165000Y-30312465D01*
X69230368Y-29983840D01*
X69358594Y-29674274D01*
X69544749Y-29395673D01*
X69781673Y-29158749D01*
X70060274Y-28972594D01*
X70255486Y-28891735D01*
X70369837Y-28844369D01*
X70369838Y-28844369D01*
X70369840Y-28844368D01*
X70698465Y-28779000D01*
X71033535Y-28779000D01*
X71362160Y-28844368D01*
X71362160Y-28844368D01*
G37*
G36*
X51677160Y-28844368D02*
X51677162Y-28844369D01*
X51677163Y-28844369D01*
X51791514Y-28891735D01*
X51986726Y-28972594D01*
X52265327Y-29158749D01*
X52502251Y-29395673D01*
X52688406Y-29674274D01*
X52816632Y-29983840D01*
X52882000Y-30312465D01*
X52882000Y-30647535D01*
X52816632Y-30976160D01*
X52688406Y-31285726D01*
X52502251Y-31564327D01*
X52265327Y-31801251D01*
X51986726Y-31987406D01*
X51791514Y-32068265D01*
X51677163Y-32115631D01*
X51677162Y-32115631D01*
X51677160Y-32115632D01*
X51348535Y-32181000D01*
X51013465Y-32181000D01*
X50684840Y-32115632D01*
X50684838Y-32115631D01*
X50684837Y-32115631D01*
X50570486Y-32068265D01*
X50375274Y-31987406D01*
X50096673Y-31801251D01*
X49859749Y-31564327D01*
X49673594Y-31285726D01*
X49545368Y-30976160D01*
X49480000Y-30647535D01*
X49480000Y-30312465D01*
X49545368Y-29983840D01*
X49673594Y-29674274D01*
X49859749Y-29395673D01*
X50096673Y-29158749D01*
X50375274Y-28972594D01*
X50570486Y-28891735D01*
X50684837Y-28844369D01*
X50684838Y-28844369D01*
X50684840Y-28844368D01*
X51013465Y-28779000D01*
X51348535Y-28779000D01*
X51677160Y-28844368D01*
X51677160Y-28844368D01*
G37*
M02*
