%FSLAX45Y45*%
G04 Gerber Fmt 4.5, Leading zero omitted, Abs format (unit mm)*
G04 Created by KiCad (PCBNEW (5.0.2)-1) date 2019-01-28 20:15:34*
%MOMM*%
%LPD*%
G01*
G04 APERTURE LIST*
%ADD10C,0.200000*%
%ADD11C,0.300000*%
G04 APERTURE END LIST*
D10*
X3492500Y-12382500D02*
X3492500Y-11493500D01*
X10223500Y-12382500D02*
X3492500Y-12382500D01*
X10223500Y-11493500D02*
X10223500Y-12382500D01*
X10223500Y-11493500D02*
X10223500Y-2476500D01*
X3492500Y-2476500D02*
X3492500Y-11493500D01*
X10223500Y-2476500D02*
X3492500Y-2476500D01*
D10*
X3917000Y-6647500D02*
X3957000Y-6687500D01*
X3957000Y-6647500D02*
X3917000Y-6687500D01*
X4044000Y-9314500D02*
X4084000Y-9354500D01*
X4084000Y-9314500D02*
X4044000Y-9354500D01*
X4044000Y-10470200D02*
X4084000Y-10510200D01*
X4084000Y-10470200D02*
X4044000Y-10510200D01*
X4116501Y-10394798D02*
X4156501Y-10434798D01*
X4156501Y-10394798D02*
X4116501Y-10434798D01*
X4221800Y-9466900D02*
X4261800Y-9506900D01*
X4261800Y-9466900D02*
X4221800Y-9506900D01*
X4298000Y-6139500D02*
X4338000Y-6179500D01*
X4338000Y-6139500D02*
X4298000Y-6179500D01*
X4425000Y-6838000D02*
X4465000Y-6878000D01*
X4465000Y-6838000D02*
X4425000Y-6878000D01*
X4552000Y-6647500D02*
X4592000Y-6687500D01*
X4592000Y-6647500D02*
X4552000Y-6687500D01*
X4615500Y-9695500D02*
X4655500Y-9735500D01*
X4655500Y-9695500D02*
X4615500Y-9735500D01*
X4742500Y-9759000D02*
X4782500Y-9799000D01*
X4782500Y-9759000D02*
X4742500Y-9799000D01*
X4869500Y-9568500D02*
X4909500Y-9608500D01*
X4909500Y-9568500D02*
X4869500Y-9608500D01*
X5250500Y-6647500D02*
X5290500Y-6687500D01*
X5290500Y-6647500D02*
X5250500Y-6687500D01*
X5441000Y-5822000D02*
X5481000Y-5862000D01*
X5481000Y-5822000D02*
X5441000Y-5862000D01*
X5504500Y-9949500D02*
X5544500Y-9989500D01*
X5544500Y-9949500D02*
X5504500Y-9989500D01*
X5504500Y-10140000D02*
X5544500Y-10180000D01*
X5544500Y-10140000D02*
X5504500Y-10180000D01*
X5631500Y-5822000D02*
X5671500Y-5862000D01*
X5671500Y-5822000D02*
X5631500Y-5862000D01*
X5685999Y-10140000D02*
X5725999Y-10180000D01*
X5725999Y-10140000D02*
X5685999Y-10180000D01*
X5758500Y-4234500D02*
X5798500Y-4274500D01*
X5798500Y-4234500D02*
X5758500Y-4274500D01*
X5758500Y-6647500D02*
X5798500Y-6687500D01*
X5798500Y-6647500D02*
X5758500Y-6687500D01*
X5758500Y-10330500D02*
X5798500Y-10370500D01*
X5798500Y-10330500D02*
X5758500Y-10370500D01*
X7028500Y-4488500D02*
X7068500Y-4528500D01*
X7068500Y-4488500D02*
X7028500Y-4528500D01*
X7028500Y-4933000D02*
X7068500Y-4973000D01*
X7068500Y-4933000D02*
X7028500Y-4973000D01*
X7028500Y-4933000D02*
X7068500Y-4973000D01*
X7068500Y-4933000D02*
X7028500Y-4973000D01*
X7219000Y-3726500D02*
X7259000Y-3766500D01*
X7259000Y-3726500D02*
X7219000Y-3766500D01*
X7282500Y-4488500D02*
X7322500Y-4528500D01*
X7322500Y-4488500D02*
X7282500Y-4528500D01*
X7282500Y-4742500D02*
X7322500Y-4782500D01*
X7322500Y-4742500D02*
X7282500Y-4782500D01*
X7282500Y-4933000D02*
X7322500Y-4973000D01*
X7322500Y-4933000D02*
X7282500Y-4973000D01*
X7536500Y-4488500D02*
X7576500Y-4528500D01*
X7576500Y-4488500D02*
X7536500Y-4528500D01*
X7536500Y-4742500D02*
X7576500Y-4782500D01*
X7576500Y-4742500D02*
X7536500Y-4782500D01*
X7536500Y-4933000D02*
X7576500Y-4973000D01*
X7576500Y-4933000D02*
X7536500Y-4973000D01*
X7727000Y-6076000D02*
X7767000Y-6116000D01*
X7767000Y-6076000D02*
X7727000Y-6116000D01*
X8336600Y-5695000D02*
X8376600Y-5735000D01*
X8376600Y-5695000D02*
X8336600Y-5735000D01*
X9208400Y-3276600D02*
G75*
G03X9208400Y-3276600I-25000J0D01*
G01*
X9278694Y-3106894D02*
G75*
G03X9278694Y-3106894I-25000J0D01*
G01*
X9278694Y-3446306D02*
G75*
G03X9278694Y-3446306I-25000J0D01*
G01*
X9448400Y-3036600D02*
G75*
G03X9448400Y-3036600I-25000J0D01*
G01*
X9448400Y-3516600D02*
G75*
G03X9448400Y-3516600I-25000J0D01*
G01*
X9618106Y-3106894D02*
G75*
G03X9618106Y-3106894I-25000J0D01*
G01*
X9618106Y-3446306D02*
G75*
G03X9618106Y-3446306I-25000J0D01*
G01*
X9688400Y-3276600D02*
G75*
G03X9688400Y-3276600I-25000J0D01*
G01*
X4077600Y-3276600D02*
G75*
G03X4077600Y-3276600I-25000J0D01*
G01*
X4147894Y-3106894D02*
G75*
G03X4147894Y-3106894I-25000J0D01*
G01*
X4147894Y-3446306D02*
G75*
G03X4147894Y-3446306I-25000J0D01*
G01*
X4317600Y-3036600D02*
G75*
G03X4317600Y-3036600I-25000J0D01*
G01*
X4317600Y-3516600D02*
G75*
G03X4317600Y-3516600I-25000J0D01*
G01*
X4487306Y-3106894D02*
G75*
G03X4487306Y-3106894I-25000J0D01*
G01*
X4487306Y-3446306D02*
G75*
G03X4487306Y-3446306I-25000J0D01*
G01*
X4557600Y-3276600D02*
G75*
G03X4557600Y-3276600I-25000J0D01*
G01*
X9208400Y-11582400D02*
G75*
G03X9208400Y-11582400I-25000J0D01*
G01*
X9278694Y-11412694D02*
G75*
G03X9278694Y-11412694I-25000J0D01*
G01*
X9278694Y-11752106D02*
G75*
G03X9278694Y-11752106I-25000J0D01*
G01*
X9448400Y-11342400D02*
G75*
G03X9448400Y-11342400I-25000J0D01*
G01*
X9448400Y-11822400D02*
G75*
G03X9448400Y-11822400I-25000J0D01*
G01*
X9618106Y-11412694D02*
G75*
G03X9618106Y-11412694I-25000J0D01*
G01*
X9618106Y-11752106D02*
G75*
G03X9618106Y-11752106I-25000J0D01*
G01*
X9688400Y-11582400D02*
G75*
G03X9688400Y-11582400I-25000J0D01*
G01*
X4809570Y-5048736D02*
X4809570Y-5130016D01*
X4768930Y-5089376D02*
X4850210Y-5089376D01*
X4809570Y-5302736D02*
X4809570Y-5384016D01*
X4768930Y-5343376D02*
X4850210Y-5343376D01*
X5009468Y-5048736D02*
X5009468Y-5130016D01*
X4968828Y-5089376D02*
X5050108Y-5089376D01*
X5009468Y-5302736D02*
X5009468Y-5384016D01*
X4968828Y-5343376D02*
X5050108Y-5343376D01*
X5098731Y-3993831D02*
X5098731Y-3930969D01*
X5035869Y-3930969D01*
X5035869Y-3993831D01*
X5098731Y-3993831D01*
X5327331Y-3993831D02*
X5327331Y-3930969D01*
X5264469Y-3930969D01*
X5264469Y-3993831D01*
X5327331Y-3993831D01*
X5428931Y-3333431D02*
X5428931Y-3270569D01*
X5366069Y-3270569D01*
X5366069Y-3333431D01*
X5428931Y-3333431D01*
X5530531Y-3511231D02*
X5530531Y-3448369D01*
X5467669Y-3448369D01*
X5467669Y-3511231D01*
X5530531Y-3511231D01*
X5632131Y-3333431D02*
X5632131Y-3270569D01*
X5569269Y-3270569D01*
X5569269Y-3333431D01*
X5632131Y-3333431D01*
X5733731Y-3511231D02*
X5733731Y-3448369D01*
X5670869Y-3448369D01*
X5670869Y-3511231D01*
X5733731Y-3511231D01*
X5835331Y-3333431D02*
X5835331Y-3270569D01*
X5772469Y-3270569D01*
X5772469Y-3333431D01*
X5835331Y-3333431D01*
X5936931Y-3511231D02*
X5936931Y-3448369D01*
X5874069Y-3448369D01*
X5874069Y-3511231D01*
X5936931Y-3511231D01*
X6038531Y-3333431D02*
X6038531Y-3270569D01*
X5975669Y-3270569D01*
X5975669Y-3333431D01*
X6038531Y-3333431D01*
X6140131Y-3511231D02*
X6140131Y-3448369D01*
X6077269Y-3448369D01*
X6077269Y-3511231D01*
X6140131Y-3511231D01*
X6241731Y-3993831D02*
X6241731Y-3930969D01*
X6178869Y-3930969D01*
X6178869Y-3993831D01*
X6241731Y-3993831D01*
X6470331Y-3993831D02*
X6470331Y-3930969D01*
X6407469Y-3930969D01*
X6407469Y-3993831D01*
X6470331Y-3993831D01*
X7067231Y-3993831D02*
X7067231Y-3930969D01*
X7004369Y-3930969D01*
X7004369Y-3993831D01*
X7067231Y-3993831D01*
X7295831Y-3993831D02*
X7295831Y-3930969D01*
X7232969Y-3930969D01*
X7232969Y-3993831D01*
X7295831Y-3993831D01*
X7397431Y-3333431D02*
X7397431Y-3270569D01*
X7334569Y-3270569D01*
X7334569Y-3333431D01*
X7397431Y-3333431D01*
X7499031Y-3511231D02*
X7499031Y-3448369D01*
X7436169Y-3448369D01*
X7436169Y-3511231D01*
X7499031Y-3511231D01*
X7600631Y-3333431D02*
X7600631Y-3270569D01*
X7537769Y-3270569D01*
X7537769Y-3333431D01*
X7600631Y-3333431D01*
X7702231Y-3511231D02*
X7702231Y-3448369D01*
X7639369Y-3448369D01*
X7639369Y-3511231D01*
X7702231Y-3511231D01*
X7803831Y-3333431D02*
X7803831Y-3270569D01*
X7740969Y-3270569D01*
X7740969Y-3333431D01*
X7803831Y-3333431D01*
X7905431Y-3511231D02*
X7905431Y-3448369D01*
X7842569Y-3448369D01*
X7842569Y-3511231D01*
X7905431Y-3511231D01*
X8007031Y-3333431D02*
X8007031Y-3270569D01*
X7944169Y-3270569D01*
X7944169Y-3333431D01*
X8007031Y-3333431D01*
X8108631Y-3511231D02*
X8108631Y-3448369D01*
X8045769Y-3448369D01*
X8045769Y-3511231D01*
X8108631Y-3511231D01*
X8210231Y-3993831D02*
X8210231Y-3930969D01*
X8147369Y-3930969D01*
X8147369Y-3993831D01*
X8210231Y-3993831D01*
X8438831Y-3993831D02*
X8438831Y-3930969D01*
X8375969Y-3930969D01*
X8375969Y-3993831D01*
X8438831Y-3993831D01*
X5143500Y-8749500D02*
X5193500Y-8699500D01*
X5143500Y-8649500D01*
X5093500Y-8699500D01*
X5143500Y-8749500D01*
X5397500Y-8749500D02*
X5447500Y-8699500D01*
X5397500Y-8649500D01*
X5347500Y-8699500D01*
X5397500Y-8749500D01*
X5651500Y-8749500D02*
X5701500Y-8699500D01*
X5651500Y-8649500D01*
X5601500Y-8699500D01*
X5651500Y-8749500D01*
X5905500Y-8749500D02*
X5955500Y-8699500D01*
X5905500Y-8649500D01*
X5855500Y-8699500D01*
X5905500Y-8749500D01*
X4889500Y-8749500D02*
X4939500Y-8699500D01*
X4889500Y-8649500D01*
X4839500Y-8699500D01*
X4889500Y-8749500D01*
X5143500Y-8749500D02*
X5193500Y-8699500D01*
X5143500Y-8649500D01*
X5093500Y-8699500D01*
X5143500Y-8749500D01*
X5397500Y-8749500D02*
X5447500Y-8699500D01*
X5397500Y-8649500D01*
X5347500Y-8699500D01*
X5397500Y-8749500D01*
X5651500Y-8749500D02*
X5701500Y-8699500D01*
X5651500Y-8649500D01*
X5601500Y-8699500D01*
X5651500Y-8749500D01*
X5905500Y-8749500D02*
X5955500Y-8699500D01*
X5905500Y-8649500D01*
X5855500Y-8699500D01*
X5905500Y-8749500D01*
X5842000Y-10908500D02*
X5892000Y-10858500D01*
X5842000Y-10808500D01*
X5792000Y-10858500D01*
X5842000Y-10908500D01*
X5842000Y-11162500D02*
X5892000Y-11112500D01*
X5842000Y-11062500D01*
X5792000Y-11112500D01*
X5842000Y-11162500D01*
X6096000Y-10908500D02*
X6146000Y-10858500D01*
X6096000Y-10808500D01*
X6046000Y-10858500D01*
X6096000Y-10908500D01*
X6096000Y-11162500D02*
X6146000Y-11112500D01*
X6096000Y-11062500D01*
X6046000Y-11112500D01*
X6096000Y-11162500D01*
X6350000Y-10908500D02*
X6400000Y-10858500D01*
X6350000Y-10808500D01*
X6300000Y-10858500D01*
X6350000Y-10908500D01*
X6350000Y-11162500D02*
X6400000Y-11112500D01*
X6350000Y-11062500D01*
X6300000Y-11112500D01*
X6350000Y-11162500D01*
X6604000Y-10908500D02*
X6654000Y-10858500D01*
X6604000Y-10808500D01*
X6554000Y-10858500D01*
X6604000Y-10908500D01*
X6604000Y-11162500D02*
X6654000Y-11112500D01*
X6604000Y-11062500D01*
X6554000Y-11112500D01*
X6604000Y-11162500D01*
X6858000Y-10908500D02*
X6908000Y-10858500D01*
X6858000Y-10808500D01*
X6808000Y-10858500D01*
X6858000Y-10908500D01*
X6858000Y-11162500D02*
X6908000Y-11112500D01*
X6858000Y-11062500D01*
X6808000Y-11112500D01*
X6858000Y-11162500D01*
X4216400Y-11822900D02*
X4266400Y-11772900D01*
X4216400Y-11722900D01*
X4166400Y-11772900D01*
X4216400Y-11822900D01*
X4470400Y-11822900D02*
X4520400Y-11772900D01*
X4470400Y-11722900D01*
X4420400Y-11772900D01*
X4470400Y-11822900D01*
X4724400Y-11822900D02*
X4774400Y-11772900D01*
X4724400Y-11722900D01*
X4674400Y-11772900D01*
X4724400Y-11822900D01*
X4978400Y-11822900D02*
X5028400Y-11772900D01*
X4978400Y-11722900D01*
X4928400Y-11772900D01*
X4978400Y-11822900D01*
X7887382Y-7680474D02*
X8001682Y-7794774D01*
X8001682Y-7680474D02*
X7887382Y-7794774D01*
X8001682Y-7737624D02*
G75*
G03X8001682Y-7737624I-57150J0D01*
G01*
X8141382Y-7680474D02*
X8255682Y-7794774D01*
X8255682Y-7680474D02*
X8141382Y-7794774D01*
X8255682Y-7737624D02*
G75*
G03X8255682Y-7737624I-57150J0D01*
G01*
X8395382Y-7680474D02*
X8509682Y-7794774D01*
X8509682Y-7680474D02*
X8395382Y-7794774D01*
X8509682Y-7737624D02*
G75*
G03X8509682Y-7737624I-57150J0D01*
G01*
X7887382Y-10220474D02*
X8001682Y-10334774D01*
X8001682Y-10220474D02*
X7887382Y-10334774D01*
X8001682Y-10277624D02*
G75*
G03X8001682Y-10277624I-57150J0D01*
G01*
X8141382Y-10220474D02*
X8255682Y-10334774D01*
X8255682Y-10220474D02*
X8141382Y-10334774D01*
X8255682Y-10277624D02*
G75*
G03X8255682Y-10277624I-57150J0D01*
G01*
X8395382Y-10220474D02*
X8509682Y-10334774D01*
X8509682Y-10220474D02*
X8395382Y-10334774D01*
X8509682Y-10277624D02*
G75*
G03X8509682Y-10277624I-57150J0D01*
G01*
X7887382Y-9204474D02*
X8001682Y-9318774D01*
X8001682Y-9204474D02*
X7887382Y-9318774D01*
X8001682Y-9261624D02*
G75*
G03X8001682Y-9261624I-57150J0D01*
G01*
X8141382Y-9204474D02*
X8255682Y-9318774D01*
X8255682Y-9204474D02*
X8141382Y-9318774D01*
X8255682Y-9261624D02*
G75*
G03X8255682Y-9261624I-57150J0D01*
G01*
X8395382Y-9204474D02*
X8509682Y-9318774D01*
X8509682Y-9204474D02*
X8395382Y-9318774D01*
X8509682Y-9261624D02*
G75*
G03X8509682Y-9261624I-57150J0D01*
G01*
X7887382Y-8188474D02*
X8001682Y-8302774D01*
X8001682Y-8188474D02*
X7887382Y-8302774D01*
X8001682Y-8245624D02*
G75*
G03X8001682Y-8245624I-57150J0D01*
G01*
X8141382Y-8188474D02*
X8255682Y-8302774D01*
X8255682Y-8188474D02*
X8141382Y-8302774D01*
X8255682Y-8245624D02*
G75*
G03X8255682Y-8245624I-57150J0D01*
G01*
X8395382Y-8188474D02*
X8509682Y-8302774D01*
X8509682Y-8188474D02*
X8395382Y-8302774D01*
X8509682Y-8245624D02*
G75*
G03X8509682Y-8245624I-57150J0D01*
G01*
X7887382Y-9712474D02*
X8001682Y-9826774D01*
X8001682Y-9712474D02*
X7887382Y-9826774D01*
X8001682Y-9769624D02*
G75*
G03X8001682Y-9769624I-57150J0D01*
G01*
X8141382Y-9712474D02*
X8255682Y-9826774D01*
X8255682Y-9712474D02*
X8141382Y-9826774D01*
X8255682Y-9769624D02*
G75*
G03X8255682Y-9769624I-57150J0D01*
G01*
X8395382Y-9712474D02*
X8509682Y-9826774D01*
X8509682Y-9712474D02*
X8395382Y-9826774D01*
X8509682Y-9769624D02*
G75*
G03X8509682Y-9769624I-57150J0D01*
G01*
X7887382Y-8696474D02*
X8001682Y-8810774D01*
X8001682Y-8696474D02*
X7887382Y-8810774D01*
X8001682Y-8753624D02*
G75*
G03X8001682Y-8753624I-57150J0D01*
G01*
X8141382Y-8696474D02*
X8255682Y-8810774D01*
X8255682Y-8696474D02*
X8141382Y-8810774D01*
X8255682Y-8753624D02*
G75*
G03X8255682Y-8753624I-57150J0D01*
G01*
X8395382Y-8696474D02*
X8509682Y-8810774D01*
X8509682Y-8696474D02*
X8395382Y-8810774D01*
X8509682Y-8753624D02*
G75*
G03X8509682Y-8753624I-57150J0D01*
G01*
X9154532Y-7169624D02*
X9274532Y-7289624D01*
X9274532Y-7169624D02*
X9154532Y-7289624D01*
X9214532Y-7169624D02*
X9214532Y-7289624D01*
X9154532Y-7229624D02*
X9274532Y-7229624D01*
X9154532Y-7677624D02*
X9274532Y-7797624D01*
X9274532Y-7677624D02*
X9154532Y-7797624D01*
X9214532Y-7677624D02*
X9214532Y-7797624D01*
X9154532Y-7737624D02*
X9274532Y-7737624D01*
X9154532Y-8185624D02*
X9274532Y-8305624D01*
X9274532Y-8185624D02*
X9154532Y-8305624D01*
X9214532Y-8185624D02*
X9214532Y-8305624D01*
X9154532Y-8245624D02*
X9274532Y-8245624D01*
X9154532Y-8693624D02*
X9274532Y-8813624D01*
X9274532Y-8693624D02*
X9154532Y-8813624D01*
X9214532Y-8693624D02*
X9214532Y-8813624D01*
X9154532Y-8753624D02*
X9274532Y-8753624D01*
X9154532Y-9201624D02*
X9274532Y-9321624D01*
X9274532Y-9201624D02*
X9154532Y-9321624D01*
X9214532Y-9201624D02*
X9214532Y-9321624D01*
X9154532Y-9261624D02*
X9274532Y-9261624D01*
X9154532Y-9709624D02*
X9274532Y-9829624D01*
X9274532Y-9709624D02*
X9154532Y-9829624D01*
X9214532Y-9709624D02*
X9214532Y-9829624D01*
X9154532Y-9769624D02*
X9274532Y-9769624D01*
X9154532Y-10217624D02*
X9274532Y-10337624D01*
X9274532Y-10217624D02*
X9154532Y-10337624D01*
X9214532Y-10217624D02*
X9214532Y-10337624D01*
X9154532Y-10277624D02*
X9274532Y-10277624D01*
X9144532Y-4746624D02*
X9284532Y-4886624D01*
X9284532Y-4746624D02*
X9144532Y-4886624D01*
X9264030Y-4866122D02*
X9264030Y-4767126D01*
X9165034Y-4767126D01*
X9165034Y-4866122D01*
X9264030Y-4866122D01*
X9144532Y-5254624D02*
X9284532Y-5394624D01*
X9284532Y-5254624D02*
X9144532Y-5394624D01*
X9264030Y-5374122D02*
X9264030Y-5275126D01*
X9165034Y-5275126D01*
X9165034Y-5374122D01*
X9264030Y-5374122D01*
X4861800Y-3312400D02*
X5018800Y-3469400D01*
X5018800Y-3312400D02*
X4861800Y-3469400D01*
X4940300Y-3469400D02*
X5018800Y-3390900D01*
X4940300Y-3312400D01*
X4861800Y-3390900D01*
X4940300Y-3469400D01*
X6487400Y-3312400D02*
X6644400Y-3469400D01*
X6644400Y-3312400D02*
X6487400Y-3469400D01*
X6565900Y-3469400D02*
X6644400Y-3390900D01*
X6565900Y-3312400D01*
X6487400Y-3390900D01*
X6565900Y-3469400D01*
X6830300Y-3312400D02*
X6987300Y-3469400D01*
X6987300Y-3312400D02*
X6830300Y-3469400D01*
X6908800Y-3469400D02*
X6987300Y-3390900D01*
X6908800Y-3312400D01*
X6830300Y-3390900D01*
X6908800Y-3469400D01*
X8455900Y-3312400D02*
X8612900Y-3469400D01*
X8612900Y-3312400D02*
X8455900Y-3469400D01*
X8534400Y-3469400D02*
X8612900Y-3390900D01*
X8534400Y-3312400D01*
X8455900Y-3390900D01*
X8534400Y-3469400D01*
X4539568Y-4501366D02*
X4539568Y-4731490D01*
X4424506Y-4616428D02*
X4654630Y-4616428D01*
X4654630Y-4616428D02*
G75*
G03X4654630Y-4616428I-115062J0D01*
G01*
X4539568Y-5701262D02*
X4539568Y-5931386D01*
X4424506Y-5816324D02*
X4654630Y-5816324D01*
X4654630Y-5816324D02*
G75*
G03X4654630Y-5816324I-115062J0D01*
G01*
X9536538Y-3389738D02*
X9536538Y-3163462D01*
X9310262Y-3163462D01*
X9310262Y-3389738D01*
X9536538Y-3389738D01*
X9583400Y-3276600D02*
G75*
G03X9583400Y-3276600I-160000J0D01*
G01*
X4405738Y-3389738D02*
X4405738Y-3163462D01*
X4179462Y-3163462D01*
X4179462Y-3389738D01*
X4405738Y-3389738D01*
X4452600Y-3276600D02*
G75*
G03X4452600Y-3276600I-160000J0D01*
G01*
X9536538Y-11695538D02*
X9536538Y-11469262D01*
X9310262Y-11469262D01*
X9310262Y-11695538D01*
X9536538Y-11695538D01*
X9583400Y-11582400D02*
G75*
G03X9583400Y-11582400I-160000J0D01*
G01*
X5118100Y-3213000D02*
X5283100Y-3048000D01*
X5118100Y-2883000D01*
X4953100Y-3048000D01*
X5118100Y-3213000D01*
X5283100Y-3048000D02*
G75*
G03X5283100Y-3048000I-165000J0D01*
G01*
X6388100Y-3213000D02*
X6553100Y-3048000D01*
X6388100Y-2883000D01*
X6223100Y-3048000D01*
X6388100Y-3213000D01*
X6553100Y-3048000D02*
G75*
G03X6553100Y-3048000I-165000J0D01*
G01*
X7086600Y-3213000D02*
X7251600Y-3048000D01*
X7086600Y-2883000D01*
X6921600Y-3048000D01*
X7086600Y-3213000D01*
X7251600Y-3048000D02*
G75*
G03X7251600Y-3048000I-165000J0D01*
G01*
X8356600Y-3213000D02*
X8521600Y-3048000D01*
X8356600Y-2883000D01*
X8191600Y-3048000D01*
X8356600Y-3213000D01*
X8521600Y-3048000D02*
G75*
G03X8521600Y-3048000I-165000J0D01*
G01*
D11*
X3768928Y-12858214D02*
X3768928Y-12558214D01*
X3840357Y-12558214D01*
X3883214Y-12572500D01*
X3911786Y-12601071D01*
X3926071Y-12629643D01*
X3940357Y-12686786D01*
X3940357Y-12729643D01*
X3926071Y-12786786D01*
X3911786Y-12815357D01*
X3883214Y-12843929D01*
X3840357Y-12858214D01*
X3768928Y-12858214D01*
X4068928Y-12858214D02*
X4068928Y-12658214D01*
X4068928Y-12715357D02*
X4083214Y-12686786D01*
X4097500Y-12672500D01*
X4126071Y-12658214D01*
X4154643Y-12658214D01*
X4254643Y-12858214D02*
X4254643Y-12658214D01*
X4254643Y-12558214D02*
X4240357Y-12572500D01*
X4254643Y-12586786D01*
X4268928Y-12572500D01*
X4254643Y-12558214D01*
X4254643Y-12586786D01*
X4440357Y-12858214D02*
X4411786Y-12843929D01*
X4397500Y-12815357D01*
X4397500Y-12558214D01*
X4597500Y-12858214D02*
X4568928Y-12843929D01*
X4554643Y-12815357D01*
X4554643Y-12558214D01*
X4940357Y-12858214D02*
X4940357Y-12558214D01*
X5040357Y-12772500D01*
X5140357Y-12558214D01*
X5140357Y-12858214D01*
X5411786Y-12858214D02*
X5411786Y-12701071D01*
X5397500Y-12672500D01*
X5368928Y-12658214D01*
X5311786Y-12658214D01*
X5283214Y-12672500D01*
X5411786Y-12843929D02*
X5383214Y-12858214D01*
X5311786Y-12858214D01*
X5283214Y-12843929D01*
X5268928Y-12815357D01*
X5268928Y-12786786D01*
X5283214Y-12758214D01*
X5311786Y-12743929D01*
X5383214Y-12743929D01*
X5411786Y-12729643D01*
X5554643Y-12658214D02*
X5554643Y-12958214D01*
X5554643Y-12672500D02*
X5583214Y-12658214D01*
X5640357Y-12658214D01*
X5668928Y-12672500D01*
X5683214Y-12686786D01*
X5697500Y-12715357D01*
X5697500Y-12801071D01*
X5683214Y-12829643D01*
X5668928Y-12843929D01*
X5640357Y-12858214D01*
X5583214Y-12858214D01*
X5554643Y-12843929D01*
X5826071Y-12829643D02*
X5840357Y-12843929D01*
X5826071Y-12858214D01*
X5811786Y-12843929D01*
X5826071Y-12829643D01*
X5826071Y-12858214D01*
X5826071Y-12672500D02*
X5840357Y-12686786D01*
X5826071Y-12701071D01*
X5811786Y-12686786D01*
X5826071Y-12672500D01*
X5826071Y-12701071D01*
X3442500Y-13332500D02*
X3482500Y-13372500D01*
X3482500Y-13332500D02*
X3442500Y-13372500D01*
X3826071Y-13188214D02*
X3854643Y-13188214D01*
X3883214Y-13202500D01*
X3897500Y-13216786D01*
X3911786Y-13245357D01*
X3926071Y-13302500D01*
X3926071Y-13373929D01*
X3911786Y-13431071D01*
X3897500Y-13459643D01*
X3883214Y-13473929D01*
X3854643Y-13488214D01*
X3826071Y-13488214D01*
X3797500Y-13473929D01*
X3783214Y-13459643D01*
X3768928Y-13431071D01*
X3754643Y-13373929D01*
X3754643Y-13302500D01*
X3768928Y-13245357D01*
X3783214Y-13216786D01*
X3797500Y-13202500D01*
X3826071Y-13188214D01*
X4054643Y-13459643D02*
X4068928Y-13473929D01*
X4054643Y-13488214D01*
X4040357Y-13473929D01*
X4054643Y-13459643D01*
X4054643Y-13488214D01*
X4326071Y-13288214D02*
X4326071Y-13488214D01*
X4254643Y-13173929D02*
X4183214Y-13388214D01*
X4368928Y-13388214D01*
X4540357Y-13188214D02*
X4568928Y-13188214D01*
X4597500Y-13202500D01*
X4611786Y-13216786D01*
X4626071Y-13245357D01*
X4640357Y-13302500D01*
X4640357Y-13373929D01*
X4626071Y-13431071D01*
X4611786Y-13459643D01*
X4597500Y-13473929D01*
X4568928Y-13488214D01*
X4540357Y-13488214D01*
X4511786Y-13473929D01*
X4497500Y-13459643D01*
X4483214Y-13431071D01*
X4468928Y-13373929D01*
X4468928Y-13302500D01*
X4483214Y-13245357D01*
X4497500Y-13216786D01*
X4511786Y-13202500D01*
X4540357Y-13188214D01*
X4768928Y-13488214D02*
X4768928Y-13288214D01*
X4768928Y-13316786D02*
X4783214Y-13302500D01*
X4811786Y-13288214D01*
X4854643Y-13288214D01*
X4883214Y-13302500D01*
X4897500Y-13331071D01*
X4897500Y-13488214D01*
X4897500Y-13331071D02*
X4911786Y-13302500D01*
X4940357Y-13288214D01*
X4983214Y-13288214D01*
X5011786Y-13302500D01*
X5026071Y-13331071D01*
X5026071Y-13488214D01*
X5168928Y-13488214D02*
X5168928Y-13288214D01*
X5168928Y-13316786D02*
X5183214Y-13302500D01*
X5211786Y-13288214D01*
X5254643Y-13288214D01*
X5283214Y-13302500D01*
X5297500Y-13331071D01*
X5297500Y-13488214D01*
X5297500Y-13331071D02*
X5311786Y-13302500D01*
X5340357Y-13288214D01*
X5383214Y-13288214D01*
X5411786Y-13302500D01*
X5426071Y-13331071D01*
X5426071Y-13488214D01*
X6011786Y-13173929D02*
X5754643Y-13559643D01*
X6397500Y-13188214D02*
X6426071Y-13188214D01*
X6454643Y-13202500D01*
X6468928Y-13216786D01*
X6483214Y-13245357D01*
X6497500Y-13302500D01*
X6497500Y-13373929D01*
X6483214Y-13431071D01*
X6468928Y-13459643D01*
X6454643Y-13473929D01*
X6426071Y-13488214D01*
X6397500Y-13488214D01*
X6368928Y-13473929D01*
X6354643Y-13459643D01*
X6340357Y-13431071D01*
X6326071Y-13373929D01*
X6326071Y-13302500D01*
X6340357Y-13245357D01*
X6354643Y-13216786D01*
X6368928Y-13202500D01*
X6397500Y-13188214D01*
X6626071Y-13459643D02*
X6640357Y-13473929D01*
X6626071Y-13488214D01*
X6611786Y-13473929D01*
X6626071Y-13459643D01*
X6626071Y-13488214D01*
X6826071Y-13188214D02*
X6854643Y-13188214D01*
X6883214Y-13202500D01*
X6897500Y-13216786D01*
X6911786Y-13245357D01*
X6926071Y-13302500D01*
X6926071Y-13373929D01*
X6911786Y-13431071D01*
X6897500Y-13459643D01*
X6883214Y-13473929D01*
X6854643Y-13488214D01*
X6826071Y-13488214D01*
X6797500Y-13473929D01*
X6783214Y-13459643D01*
X6768928Y-13431071D01*
X6754643Y-13373929D01*
X6754643Y-13302500D01*
X6768928Y-13245357D01*
X6783214Y-13216786D01*
X6797500Y-13202500D01*
X6826071Y-13188214D01*
X7211786Y-13488214D02*
X7040357Y-13488214D01*
X7126071Y-13488214D02*
X7126071Y-13188214D01*
X7097500Y-13231071D01*
X7068928Y-13259643D01*
X7040357Y-13273929D01*
X7468928Y-13188214D02*
X7411786Y-13188214D01*
X7383214Y-13202500D01*
X7368928Y-13216786D01*
X7340357Y-13259643D01*
X7326071Y-13316786D01*
X7326071Y-13431071D01*
X7340357Y-13459643D01*
X7354643Y-13473929D01*
X7383214Y-13488214D01*
X7440357Y-13488214D01*
X7468928Y-13473929D01*
X7483214Y-13459643D01*
X7497500Y-13431071D01*
X7497500Y-13359643D01*
X7483214Y-13331071D01*
X7468928Y-13316786D01*
X7440357Y-13302500D01*
X7383214Y-13302500D01*
X7354643Y-13316786D01*
X7340357Y-13331071D01*
X7326071Y-13359643D01*
X7611786Y-13188214D02*
X7611786Y-13245357D01*
X7726071Y-13188214D02*
X7726071Y-13245357D01*
X8168928Y-13602500D02*
X8154643Y-13588214D01*
X8126071Y-13545357D01*
X8111786Y-13516786D01*
X8097500Y-13473929D01*
X8083214Y-13402500D01*
X8083214Y-13345357D01*
X8097500Y-13273929D01*
X8111786Y-13231071D01*
X8126071Y-13202500D01*
X8154643Y-13159643D01*
X8168928Y-13145357D01*
X8254643Y-13188214D02*
X8440357Y-13188214D01*
X8340357Y-13302500D01*
X8383214Y-13302500D01*
X8411786Y-13316786D01*
X8426071Y-13331071D01*
X8440357Y-13359643D01*
X8440357Y-13431071D01*
X8426071Y-13459643D01*
X8411786Y-13473929D01*
X8383214Y-13488214D01*
X8297500Y-13488214D01*
X8268928Y-13473929D01*
X8254643Y-13459643D01*
X8554643Y-13216786D02*
X8568928Y-13202500D01*
X8597500Y-13188214D01*
X8668928Y-13188214D01*
X8697500Y-13202500D01*
X8711786Y-13216786D01*
X8726071Y-13245357D01*
X8726071Y-13273929D01*
X8711786Y-13316786D01*
X8540357Y-13488214D01*
X8726071Y-13488214D01*
X9083214Y-13488214D02*
X9083214Y-13188214D01*
X9211786Y-13488214D02*
X9211786Y-13331071D01*
X9197500Y-13302500D01*
X9168928Y-13288214D01*
X9126071Y-13288214D01*
X9097500Y-13302500D01*
X9083214Y-13316786D01*
X9397500Y-13488214D02*
X9368928Y-13473929D01*
X9354643Y-13459643D01*
X9340357Y-13431071D01*
X9340357Y-13345357D01*
X9354643Y-13316786D01*
X9368928Y-13302500D01*
X9397500Y-13288214D01*
X9440357Y-13288214D01*
X9468928Y-13302500D01*
X9483214Y-13316786D01*
X9497500Y-13345357D01*
X9497500Y-13431071D01*
X9483214Y-13459643D01*
X9468928Y-13473929D01*
X9440357Y-13488214D01*
X9397500Y-13488214D01*
X9668928Y-13488214D02*
X9640357Y-13473929D01*
X9626071Y-13445357D01*
X9626071Y-13188214D01*
X9897500Y-13473929D02*
X9868928Y-13488214D01*
X9811786Y-13488214D01*
X9783214Y-13473929D01*
X9768928Y-13445357D01*
X9768928Y-13331071D01*
X9783214Y-13302500D01*
X9811786Y-13288214D01*
X9868928Y-13288214D01*
X9897500Y-13302500D01*
X9911786Y-13331071D01*
X9911786Y-13359643D01*
X9768928Y-13388214D01*
X10026071Y-13473929D02*
X10054643Y-13488214D01*
X10111786Y-13488214D01*
X10140357Y-13473929D01*
X10154643Y-13445357D01*
X10154643Y-13431071D01*
X10140357Y-13402500D01*
X10111786Y-13388214D01*
X10068928Y-13388214D01*
X10040357Y-13373929D01*
X10026071Y-13345357D01*
X10026071Y-13331071D01*
X10040357Y-13302500D01*
X10068928Y-13288214D01*
X10111786Y-13288214D01*
X10140357Y-13302500D01*
X10254643Y-13602500D02*
X10268928Y-13588214D01*
X10297500Y-13545357D01*
X10311786Y-13516786D01*
X10326071Y-13473929D01*
X10340357Y-13402500D01*
X10340357Y-13345357D01*
X10326071Y-13273929D01*
X10311786Y-13231071D01*
X10297500Y-13202500D01*
X10268928Y-13159643D01*
X10254643Y-13145357D01*
X3482500Y-13748500D02*
G75*
G03X3482500Y-13748500I-25000J0D01*
G01*
X3826071Y-13584214D02*
X3854643Y-13584214D01*
X3883214Y-13598500D01*
X3897500Y-13612786D01*
X3911786Y-13641357D01*
X3926071Y-13698500D01*
X3926071Y-13769929D01*
X3911786Y-13827071D01*
X3897500Y-13855643D01*
X3883214Y-13869929D01*
X3854643Y-13884214D01*
X3826071Y-13884214D01*
X3797500Y-13869929D01*
X3783214Y-13855643D01*
X3768928Y-13827071D01*
X3754643Y-13769929D01*
X3754643Y-13698500D01*
X3768928Y-13641357D01*
X3783214Y-13612786D01*
X3797500Y-13598500D01*
X3826071Y-13584214D01*
X4054643Y-13855643D02*
X4068928Y-13869929D01*
X4054643Y-13884214D01*
X4040357Y-13869929D01*
X4054643Y-13855643D01*
X4054643Y-13884214D01*
X4340357Y-13584214D02*
X4197500Y-13584214D01*
X4183214Y-13727071D01*
X4197500Y-13712786D01*
X4226071Y-13698500D01*
X4297500Y-13698500D01*
X4326071Y-13712786D01*
X4340357Y-13727071D01*
X4354643Y-13755643D01*
X4354643Y-13827071D01*
X4340357Y-13855643D01*
X4326071Y-13869929D01*
X4297500Y-13884214D01*
X4226071Y-13884214D01*
X4197500Y-13869929D01*
X4183214Y-13855643D01*
X4540357Y-13584214D02*
X4568928Y-13584214D01*
X4597500Y-13598500D01*
X4611786Y-13612786D01*
X4626071Y-13641357D01*
X4640357Y-13698500D01*
X4640357Y-13769929D01*
X4626071Y-13827071D01*
X4611786Y-13855643D01*
X4597500Y-13869929D01*
X4568928Y-13884214D01*
X4540357Y-13884214D01*
X4511786Y-13869929D01*
X4497500Y-13855643D01*
X4483214Y-13827071D01*
X4468928Y-13769929D01*
X4468928Y-13698500D01*
X4483214Y-13641357D01*
X4497500Y-13612786D01*
X4511786Y-13598500D01*
X4540357Y-13584214D01*
X4768928Y-13884214D02*
X4768928Y-13684214D01*
X4768928Y-13712786D02*
X4783214Y-13698500D01*
X4811786Y-13684214D01*
X4854643Y-13684214D01*
X4883214Y-13698500D01*
X4897500Y-13727071D01*
X4897500Y-13884214D01*
X4897500Y-13727071D02*
X4911786Y-13698500D01*
X4940357Y-13684214D01*
X4983214Y-13684214D01*
X5011786Y-13698500D01*
X5026071Y-13727071D01*
X5026071Y-13884214D01*
X5168928Y-13884214D02*
X5168928Y-13684214D01*
X5168928Y-13712786D02*
X5183214Y-13698500D01*
X5211786Y-13684214D01*
X5254643Y-13684214D01*
X5283214Y-13698500D01*
X5297500Y-13727071D01*
X5297500Y-13884214D01*
X5297500Y-13727071D02*
X5311786Y-13698500D01*
X5340357Y-13684214D01*
X5383214Y-13684214D01*
X5411786Y-13698500D01*
X5426071Y-13727071D01*
X5426071Y-13884214D01*
X6011786Y-13569929D02*
X5754643Y-13955643D01*
X6397500Y-13584214D02*
X6426071Y-13584214D01*
X6454643Y-13598500D01*
X6468928Y-13612786D01*
X6483214Y-13641357D01*
X6497500Y-13698500D01*
X6497500Y-13769929D01*
X6483214Y-13827071D01*
X6468928Y-13855643D01*
X6454643Y-13869929D01*
X6426071Y-13884214D01*
X6397500Y-13884214D01*
X6368928Y-13869929D01*
X6354643Y-13855643D01*
X6340357Y-13827071D01*
X6326071Y-13769929D01*
X6326071Y-13698500D01*
X6340357Y-13641357D01*
X6354643Y-13612786D01*
X6368928Y-13598500D01*
X6397500Y-13584214D01*
X6626071Y-13855643D02*
X6640357Y-13869929D01*
X6626071Y-13884214D01*
X6611786Y-13869929D01*
X6626071Y-13855643D01*
X6626071Y-13884214D01*
X6826071Y-13584214D02*
X6854643Y-13584214D01*
X6883214Y-13598500D01*
X6897500Y-13612786D01*
X6911786Y-13641357D01*
X6926071Y-13698500D01*
X6926071Y-13769929D01*
X6911786Y-13827071D01*
X6897500Y-13855643D01*
X6883214Y-13869929D01*
X6854643Y-13884214D01*
X6826071Y-13884214D01*
X6797500Y-13869929D01*
X6783214Y-13855643D01*
X6768928Y-13827071D01*
X6754643Y-13769929D01*
X6754643Y-13698500D01*
X6768928Y-13641357D01*
X6783214Y-13612786D01*
X6797500Y-13598500D01*
X6826071Y-13584214D01*
X7040357Y-13612786D02*
X7054643Y-13598500D01*
X7083214Y-13584214D01*
X7154643Y-13584214D01*
X7183214Y-13598500D01*
X7197500Y-13612786D01*
X7211786Y-13641357D01*
X7211786Y-13669929D01*
X7197500Y-13712786D01*
X7026071Y-13884214D01*
X7211786Y-13884214D01*
X7397500Y-13584214D02*
X7426071Y-13584214D01*
X7454643Y-13598500D01*
X7468928Y-13612786D01*
X7483214Y-13641357D01*
X7497500Y-13698500D01*
X7497500Y-13769929D01*
X7483214Y-13827071D01*
X7468928Y-13855643D01*
X7454643Y-13869929D01*
X7426071Y-13884214D01*
X7397500Y-13884214D01*
X7368928Y-13869929D01*
X7354643Y-13855643D01*
X7340357Y-13827071D01*
X7326071Y-13769929D01*
X7326071Y-13698500D01*
X7340357Y-13641357D01*
X7354643Y-13612786D01*
X7368928Y-13598500D01*
X7397500Y-13584214D01*
X7611786Y-13584214D02*
X7611786Y-13641357D01*
X7726071Y-13584214D02*
X7726071Y-13641357D01*
X8168928Y-13998500D02*
X8154643Y-13984214D01*
X8126071Y-13941357D01*
X8111786Y-13912786D01*
X8097500Y-13869929D01*
X8083214Y-13798500D01*
X8083214Y-13741357D01*
X8097500Y-13669929D01*
X8111786Y-13627071D01*
X8126071Y-13598500D01*
X8154643Y-13555643D01*
X8168928Y-13541357D01*
X8268928Y-13612786D02*
X8283214Y-13598500D01*
X8311786Y-13584214D01*
X8383214Y-13584214D01*
X8411786Y-13598500D01*
X8426071Y-13612786D01*
X8440357Y-13641357D01*
X8440357Y-13669929D01*
X8426071Y-13712786D01*
X8254643Y-13884214D01*
X8440357Y-13884214D01*
X8697500Y-13684214D02*
X8697500Y-13884214D01*
X8626071Y-13569929D02*
X8554643Y-13784214D01*
X8740357Y-13784214D01*
X9083214Y-13884214D02*
X9083214Y-13584214D01*
X9211786Y-13884214D02*
X9211786Y-13727071D01*
X9197500Y-13698500D01*
X9168928Y-13684214D01*
X9126071Y-13684214D01*
X9097500Y-13698500D01*
X9083214Y-13712786D01*
X9397500Y-13884214D02*
X9368928Y-13869929D01*
X9354643Y-13855643D01*
X9340357Y-13827071D01*
X9340357Y-13741357D01*
X9354643Y-13712786D01*
X9368928Y-13698500D01*
X9397500Y-13684214D01*
X9440357Y-13684214D01*
X9468928Y-13698500D01*
X9483214Y-13712786D01*
X9497500Y-13741357D01*
X9497500Y-13827071D01*
X9483214Y-13855643D01*
X9468928Y-13869929D01*
X9440357Y-13884214D01*
X9397500Y-13884214D01*
X9668928Y-13884214D02*
X9640357Y-13869929D01*
X9626071Y-13841357D01*
X9626071Y-13584214D01*
X9897500Y-13869929D02*
X9868928Y-13884214D01*
X9811786Y-13884214D01*
X9783214Y-13869929D01*
X9768928Y-13841357D01*
X9768928Y-13727071D01*
X9783214Y-13698500D01*
X9811786Y-13684214D01*
X9868928Y-13684214D01*
X9897500Y-13698500D01*
X9911786Y-13727071D01*
X9911786Y-13755643D01*
X9768928Y-13784214D01*
X10026071Y-13869929D02*
X10054643Y-13884214D01*
X10111786Y-13884214D01*
X10140357Y-13869929D01*
X10154643Y-13841357D01*
X10154643Y-13827071D01*
X10140357Y-13798500D01*
X10111786Y-13784214D01*
X10068928Y-13784214D01*
X10040357Y-13769929D01*
X10026071Y-13741357D01*
X10026071Y-13727071D01*
X10040357Y-13698500D01*
X10068928Y-13684214D01*
X10111786Y-13684214D01*
X10140357Y-13698500D01*
X10254643Y-13998500D02*
X10268928Y-13984214D01*
X10297500Y-13941357D01*
X10311786Y-13912786D01*
X10326071Y-13869929D01*
X10340357Y-13798500D01*
X10340357Y-13741357D01*
X10326071Y-13669929D01*
X10311786Y-13627071D01*
X10297500Y-13598500D01*
X10268928Y-13555643D01*
X10254643Y-13541357D01*
X3441860Y-14103860D02*
X3441860Y-14185140D01*
X3401220Y-14144500D02*
X3482500Y-14144500D01*
X3826071Y-13980214D02*
X3854643Y-13980214D01*
X3883214Y-13994500D01*
X3897500Y-14008786D01*
X3911786Y-14037357D01*
X3926071Y-14094500D01*
X3926071Y-14165929D01*
X3911786Y-14223071D01*
X3897500Y-14251643D01*
X3883214Y-14265929D01*
X3854643Y-14280214D01*
X3826071Y-14280214D01*
X3797500Y-14265929D01*
X3783214Y-14251643D01*
X3768928Y-14223071D01*
X3754643Y-14165929D01*
X3754643Y-14094500D01*
X3768928Y-14037357D01*
X3783214Y-14008786D01*
X3797500Y-13994500D01*
X3826071Y-13980214D01*
X4054643Y-14251643D02*
X4068928Y-14265929D01*
X4054643Y-14280214D01*
X4040357Y-14265929D01*
X4054643Y-14251643D01*
X4054643Y-14280214D01*
X4240357Y-14108786D02*
X4211786Y-14094500D01*
X4197500Y-14080214D01*
X4183214Y-14051643D01*
X4183214Y-14037357D01*
X4197500Y-14008786D01*
X4211786Y-13994500D01*
X4240357Y-13980214D01*
X4297500Y-13980214D01*
X4326071Y-13994500D01*
X4340357Y-14008786D01*
X4354643Y-14037357D01*
X4354643Y-14051643D01*
X4340357Y-14080214D01*
X4326071Y-14094500D01*
X4297500Y-14108786D01*
X4240357Y-14108786D01*
X4211786Y-14123071D01*
X4197500Y-14137357D01*
X4183214Y-14165929D01*
X4183214Y-14223071D01*
X4197500Y-14251643D01*
X4211786Y-14265929D01*
X4240357Y-14280214D01*
X4297500Y-14280214D01*
X4326071Y-14265929D01*
X4340357Y-14251643D01*
X4354643Y-14223071D01*
X4354643Y-14165929D01*
X4340357Y-14137357D01*
X4326071Y-14123071D01*
X4297500Y-14108786D01*
X4640357Y-14280214D02*
X4468928Y-14280214D01*
X4554643Y-14280214D02*
X4554643Y-13980214D01*
X4526071Y-14023071D01*
X4497500Y-14051643D01*
X4468928Y-14065929D01*
X4768928Y-14280214D02*
X4768928Y-14080214D01*
X4768928Y-14108786D02*
X4783214Y-14094500D01*
X4811786Y-14080214D01*
X4854643Y-14080214D01*
X4883214Y-14094500D01*
X4897500Y-14123071D01*
X4897500Y-14280214D01*
X4897500Y-14123071D02*
X4911786Y-14094500D01*
X4940357Y-14080214D01*
X4983214Y-14080214D01*
X5011786Y-14094500D01*
X5026071Y-14123071D01*
X5026071Y-14280214D01*
X5168928Y-14280214D02*
X5168928Y-14080214D01*
X5168928Y-14108786D02*
X5183214Y-14094500D01*
X5211786Y-14080214D01*
X5254643Y-14080214D01*
X5283214Y-14094500D01*
X5297500Y-14123071D01*
X5297500Y-14280214D01*
X5297500Y-14123071D02*
X5311786Y-14094500D01*
X5340357Y-14080214D01*
X5383214Y-14080214D01*
X5411786Y-14094500D01*
X5426071Y-14123071D01*
X5426071Y-14280214D01*
X6011786Y-13965929D02*
X5754643Y-14351643D01*
X6397500Y-13980214D02*
X6426071Y-13980214D01*
X6454643Y-13994500D01*
X6468928Y-14008786D01*
X6483214Y-14037357D01*
X6497500Y-14094500D01*
X6497500Y-14165929D01*
X6483214Y-14223071D01*
X6468928Y-14251643D01*
X6454643Y-14265929D01*
X6426071Y-14280214D01*
X6397500Y-14280214D01*
X6368928Y-14265929D01*
X6354643Y-14251643D01*
X6340357Y-14223071D01*
X6326071Y-14165929D01*
X6326071Y-14094500D01*
X6340357Y-14037357D01*
X6354643Y-14008786D01*
X6368928Y-13994500D01*
X6397500Y-13980214D01*
X6626071Y-14251643D02*
X6640357Y-14265929D01*
X6626071Y-14280214D01*
X6611786Y-14265929D01*
X6626071Y-14251643D01*
X6626071Y-14280214D01*
X6826071Y-13980214D02*
X6854643Y-13980214D01*
X6883214Y-13994500D01*
X6897500Y-14008786D01*
X6911786Y-14037357D01*
X6926071Y-14094500D01*
X6926071Y-14165929D01*
X6911786Y-14223071D01*
X6897500Y-14251643D01*
X6883214Y-14265929D01*
X6854643Y-14280214D01*
X6826071Y-14280214D01*
X6797500Y-14265929D01*
X6783214Y-14251643D01*
X6768928Y-14223071D01*
X6754643Y-14165929D01*
X6754643Y-14094500D01*
X6768928Y-14037357D01*
X6783214Y-14008786D01*
X6797500Y-13994500D01*
X6826071Y-13980214D01*
X7026071Y-13980214D02*
X7211786Y-13980214D01*
X7111786Y-14094500D01*
X7154643Y-14094500D01*
X7183214Y-14108786D01*
X7197500Y-14123071D01*
X7211786Y-14151643D01*
X7211786Y-14223071D01*
X7197500Y-14251643D01*
X7183214Y-14265929D01*
X7154643Y-14280214D01*
X7068928Y-14280214D01*
X7040357Y-14265929D01*
X7026071Y-14251643D01*
X7326071Y-14008786D02*
X7340357Y-13994500D01*
X7368928Y-13980214D01*
X7440357Y-13980214D01*
X7468928Y-13994500D01*
X7483214Y-14008786D01*
X7497500Y-14037357D01*
X7497500Y-14065929D01*
X7483214Y-14108786D01*
X7311786Y-14280214D01*
X7497500Y-14280214D01*
X7611786Y-13980214D02*
X7611786Y-14037357D01*
X7726071Y-13980214D02*
X7726071Y-14037357D01*
X8168928Y-14394500D02*
X8154643Y-14380214D01*
X8126071Y-14337357D01*
X8111786Y-14308786D01*
X8097500Y-14265929D01*
X8083214Y-14194500D01*
X8083214Y-14137357D01*
X8097500Y-14065929D01*
X8111786Y-14023071D01*
X8126071Y-13994500D01*
X8154643Y-13951643D01*
X8168928Y-13937357D01*
X8411786Y-14080214D02*
X8411786Y-14280214D01*
X8340357Y-13965929D02*
X8268928Y-14180214D01*
X8454643Y-14180214D01*
X8797500Y-14280214D02*
X8797500Y-13980214D01*
X8926071Y-14280214D02*
X8926071Y-14123071D01*
X8911786Y-14094500D01*
X8883214Y-14080214D01*
X8840357Y-14080214D01*
X8811786Y-14094500D01*
X8797500Y-14108786D01*
X9111786Y-14280214D02*
X9083214Y-14265929D01*
X9068928Y-14251643D01*
X9054643Y-14223071D01*
X9054643Y-14137357D01*
X9068928Y-14108786D01*
X9083214Y-14094500D01*
X9111786Y-14080214D01*
X9154643Y-14080214D01*
X9183214Y-14094500D01*
X9197500Y-14108786D01*
X9211786Y-14137357D01*
X9211786Y-14223071D01*
X9197500Y-14251643D01*
X9183214Y-14265929D01*
X9154643Y-14280214D01*
X9111786Y-14280214D01*
X9383214Y-14280214D02*
X9354643Y-14265929D01*
X9340357Y-14237357D01*
X9340357Y-13980214D01*
X9611786Y-14265929D02*
X9583214Y-14280214D01*
X9526071Y-14280214D01*
X9497500Y-14265929D01*
X9483214Y-14237357D01*
X9483214Y-14123071D01*
X9497500Y-14094500D01*
X9526071Y-14080214D01*
X9583214Y-14080214D01*
X9611786Y-14094500D01*
X9626071Y-14123071D01*
X9626071Y-14151643D01*
X9483214Y-14180214D01*
X9740357Y-14265929D02*
X9768928Y-14280214D01*
X9826071Y-14280214D01*
X9854643Y-14265929D01*
X9868928Y-14237357D01*
X9868928Y-14223071D01*
X9854643Y-14194500D01*
X9826071Y-14180214D01*
X9783214Y-14180214D01*
X9754643Y-14165929D01*
X9740357Y-14137357D01*
X9740357Y-14123071D01*
X9754643Y-14094500D01*
X9783214Y-14080214D01*
X9826071Y-14080214D01*
X9854643Y-14094500D01*
X9968928Y-14394500D02*
X9983214Y-14380214D01*
X10011786Y-14337357D01*
X10026071Y-14308786D01*
X10040357Y-14265929D01*
X10054643Y-14194500D01*
X10054643Y-14137357D01*
X10040357Y-14065929D01*
X10026071Y-14023071D01*
X10011786Y-13994500D01*
X9983214Y-13951643D01*
X9968928Y-13937357D01*
X3469481Y-14571931D02*
X3469481Y-14509069D01*
X3406619Y-14509069D01*
X3406619Y-14571931D01*
X3469481Y-14571931D01*
X3826071Y-14376214D02*
X3854643Y-14376214D01*
X3883214Y-14390500D01*
X3897500Y-14404786D01*
X3911786Y-14433357D01*
X3926071Y-14490500D01*
X3926071Y-14561929D01*
X3911786Y-14619071D01*
X3897500Y-14647643D01*
X3883214Y-14661929D01*
X3854643Y-14676214D01*
X3826071Y-14676214D01*
X3797500Y-14661929D01*
X3783214Y-14647643D01*
X3768928Y-14619071D01*
X3754643Y-14561929D01*
X3754643Y-14490500D01*
X3768928Y-14433357D01*
X3783214Y-14404786D01*
X3797500Y-14390500D01*
X3826071Y-14376214D01*
X4054643Y-14647643D02*
X4068928Y-14661929D01*
X4054643Y-14676214D01*
X4040357Y-14661929D01*
X4054643Y-14647643D01*
X4054643Y-14676214D01*
X4240357Y-14504786D02*
X4211786Y-14490500D01*
X4197500Y-14476214D01*
X4183214Y-14447643D01*
X4183214Y-14433357D01*
X4197500Y-14404786D01*
X4211786Y-14390500D01*
X4240357Y-14376214D01*
X4297500Y-14376214D01*
X4326071Y-14390500D01*
X4340357Y-14404786D01*
X4354643Y-14433357D01*
X4354643Y-14447643D01*
X4340357Y-14476214D01*
X4326071Y-14490500D01*
X4297500Y-14504786D01*
X4240357Y-14504786D01*
X4211786Y-14519071D01*
X4197500Y-14533357D01*
X4183214Y-14561929D01*
X4183214Y-14619071D01*
X4197500Y-14647643D01*
X4211786Y-14661929D01*
X4240357Y-14676214D01*
X4297500Y-14676214D01*
X4326071Y-14661929D01*
X4340357Y-14647643D01*
X4354643Y-14619071D01*
X4354643Y-14561929D01*
X4340357Y-14533357D01*
X4326071Y-14519071D01*
X4297500Y-14504786D01*
X4497500Y-14676214D02*
X4554643Y-14676214D01*
X4583214Y-14661929D01*
X4597500Y-14647643D01*
X4626071Y-14604786D01*
X4640357Y-14547643D01*
X4640357Y-14433357D01*
X4626071Y-14404786D01*
X4611786Y-14390500D01*
X4583214Y-14376214D01*
X4526071Y-14376214D01*
X4497500Y-14390500D01*
X4483214Y-14404786D01*
X4468928Y-14433357D01*
X4468928Y-14504786D01*
X4483214Y-14533357D01*
X4497500Y-14547643D01*
X4526071Y-14561929D01*
X4583214Y-14561929D01*
X4611786Y-14547643D01*
X4626071Y-14533357D01*
X4640357Y-14504786D01*
X4768928Y-14676214D02*
X4768928Y-14476214D01*
X4768928Y-14504786D02*
X4783214Y-14490500D01*
X4811786Y-14476214D01*
X4854643Y-14476214D01*
X4883214Y-14490500D01*
X4897500Y-14519071D01*
X4897500Y-14676214D01*
X4897500Y-14519071D02*
X4911786Y-14490500D01*
X4940357Y-14476214D01*
X4983214Y-14476214D01*
X5011786Y-14490500D01*
X5026071Y-14519071D01*
X5026071Y-14676214D01*
X5168928Y-14676214D02*
X5168928Y-14476214D01*
X5168928Y-14504786D02*
X5183214Y-14490500D01*
X5211786Y-14476214D01*
X5254643Y-14476214D01*
X5283214Y-14490500D01*
X5297500Y-14519071D01*
X5297500Y-14676214D01*
X5297500Y-14519071D02*
X5311786Y-14490500D01*
X5340357Y-14476214D01*
X5383214Y-14476214D01*
X5411786Y-14490500D01*
X5426071Y-14519071D01*
X5426071Y-14676214D01*
X6011786Y-14361929D02*
X5754643Y-14747643D01*
X6397500Y-14376214D02*
X6426071Y-14376214D01*
X6454643Y-14390500D01*
X6468928Y-14404786D01*
X6483214Y-14433357D01*
X6497500Y-14490500D01*
X6497500Y-14561929D01*
X6483214Y-14619071D01*
X6468928Y-14647643D01*
X6454643Y-14661929D01*
X6426071Y-14676214D01*
X6397500Y-14676214D01*
X6368928Y-14661929D01*
X6354643Y-14647643D01*
X6340357Y-14619071D01*
X6326071Y-14561929D01*
X6326071Y-14490500D01*
X6340357Y-14433357D01*
X6354643Y-14404786D01*
X6368928Y-14390500D01*
X6397500Y-14376214D01*
X6626071Y-14647643D02*
X6640357Y-14661929D01*
X6626071Y-14676214D01*
X6611786Y-14661929D01*
X6626071Y-14647643D01*
X6626071Y-14676214D01*
X6826071Y-14376214D02*
X6854643Y-14376214D01*
X6883214Y-14390500D01*
X6897500Y-14404786D01*
X6911786Y-14433357D01*
X6926071Y-14490500D01*
X6926071Y-14561929D01*
X6911786Y-14619071D01*
X6897500Y-14647643D01*
X6883214Y-14661929D01*
X6854643Y-14676214D01*
X6826071Y-14676214D01*
X6797500Y-14661929D01*
X6783214Y-14647643D01*
X6768928Y-14619071D01*
X6754643Y-14561929D01*
X6754643Y-14490500D01*
X6768928Y-14433357D01*
X6783214Y-14404786D01*
X6797500Y-14390500D01*
X6826071Y-14376214D01*
X7026071Y-14376214D02*
X7211786Y-14376214D01*
X7111786Y-14490500D01*
X7154643Y-14490500D01*
X7183214Y-14504786D01*
X7197500Y-14519071D01*
X7211786Y-14547643D01*
X7211786Y-14619071D01*
X7197500Y-14647643D01*
X7183214Y-14661929D01*
X7154643Y-14676214D01*
X7068928Y-14676214D01*
X7040357Y-14661929D01*
X7026071Y-14647643D01*
X7483214Y-14376214D02*
X7340357Y-14376214D01*
X7326071Y-14519071D01*
X7340357Y-14504786D01*
X7368928Y-14490500D01*
X7440357Y-14490500D01*
X7468928Y-14504786D01*
X7483214Y-14519071D01*
X7497500Y-14547643D01*
X7497500Y-14619071D01*
X7483214Y-14647643D01*
X7468928Y-14661929D01*
X7440357Y-14676214D01*
X7368928Y-14676214D01*
X7340357Y-14661929D01*
X7326071Y-14647643D01*
X7611786Y-14376214D02*
X7611786Y-14433357D01*
X7726071Y-14376214D02*
X7726071Y-14433357D01*
X8168928Y-14790500D02*
X8154643Y-14776214D01*
X8126071Y-14733357D01*
X8111786Y-14704786D01*
X8097500Y-14661929D01*
X8083214Y-14590500D01*
X8083214Y-14533357D01*
X8097500Y-14461929D01*
X8111786Y-14419071D01*
X8126071Y-14390500D01*
X8154643Y-14347643D01*
X8168928Y-14333357D01*
X8268928Y-14404786D02*
X8283214Y-14390500D01*
X8311786Y-14376214D01*
X8383214Y-14376214D01*
X8411786Y-14390500D01*
X8426071Y-14404786D01*
X8440357Y-14433357D01*
X8440357Y-14461929D01*
X8426071Y-14504786D01*
X8254643Y-14676214D01*
X8440357Y-14676214D01*
X8697500Y-14476214D02*
X8697500Y-14676214D01*
X8626071Y-14361929D02*
X8554643Y-14576214D01*
X8740357Y-14576214D01*
X9083214Y-14676214D02*
X9083214Y-14376214D01*
X9211786Y-14676214D02*
X9211786Y-14519071D01*
X9197500Y-14490500D01*
X9168928Y-14476214D01*
X9126071Y-14476214D01*
X9097500Y-14490500D01*
X9083214Y-14504786D01*
X9397500Y-14676214D02*
X9368928Y-14661929D01*
X9354643Y-14647643D01*
X9340357Y-14619071D01*
X9340357Y-14533357D01*
X9354643Y-14504786D01*
X9368928Y-14490500D01*
X9397500Y-14476214D01*
X9440357Y-14476214D01*
X9468928Y-14490500D01*
X9483214Y-14504786D01*
X9497500Y-14533357D01*
X9497500Y-14619071D01*
X9483214Y-14647643D01*
X9468928Y-14661929D01*
X9440357Y-14676214D01*
X9397500Y-14676214D01*
X9668928Y-14676214D02*
X9640357Y-14661929D01*
X9626071Y-14633357D01*
X9626071Y-14376214D01*
X9897500Y-14661929D02*
X9868928Y-14676214D01*
X9811786Y-14676214D01*
X9783214Y-14661929D01*
X9768928Y-14633357D01*
X9768928Y-14519071D01*
X9783214Y-14490500D01*
X9811786Y-14476214D01*
X9868928Y-14476214D01*
X9897500Y-14490500D01*
X9911786Y-14519071D01*
X9911786Y-14547643D01*
X9768928Y-14576214D01*
X10026071Y-14661929D02*
X10054643Y-14676214D01*
X10111786Y-14676214D01*
X10140357Y-14661929D01*
X10154643Y-14633357D01*
X10154643Y-14619071D01*
X10140357Y-14590500D01*
X10111786Y-14576214D01*
X10068928Y-14576214D01*
X10040357Y-14561929D01*
X10026071Y-14533357D01*
X10026071Y-14519071D01*
X10040357Y-14490500D01*
X10068928Y-14476214D01*
X10111786Y-14476214D01*
X10140357Y-14490500D01*
X10254643Y-14790500D02*
X10268928Y-14776214D01*
X10297500Y-14733357D01*
X10311786Y-14704786D01*
X10326071Y-14661929D01*
X10340357Y-14590500D01*
X10340357Y-14533357D01*
X10326071Y-14461929D01*
X10311786Y-14419071D01*
X10297500Y-14390500D01*
X10268928Y-14347643D01*
X10254643Y-14333357D01*
X3432500Y-14986500D02*
X3482500Y-14936500D01*
X3432500Y-14886500D01*
X3382500Y-14936500D01*
X3432500Y-14986500D01*
X3926071Y-15072214D02*
X3754643Y-15072214D01*
X3840357Y-15072214D02*
X3840357Y-14772214D01*
X3811786Y-14815071D01*
X3783214Y-14843643D01*
X3754643Y-14857929D01*
X4054643Y-15043643D02*
X4068928Y-15057929D01*
X4054643Y-15072214D01*
X4040357Y-15057929D01*
X4054643Y-15043643D01*
X4054643Y-15072214D01*
X4254643Y-14772214D02*
X4283214Y-14772214D01*
X4311786Y-14786500D01*
X4326071Y-14800786D01*
X4340357Y-14829357D01*
X4354643Y-14886500D01*
X4354643Y-14957929D01*
X4340357Y-15015071D01*
X4326071Y-15043643D01*
X4311786Y-15057929D01*
X4283214Y-15072214D01*
X4254643Y-15072214D01*
X4226071Y-15057929D01*
X4211786Y-15043643D01*
X4197500Y-15015071D01*
X4183214Y-14957929D01*
X4183214Y-14886500D01*
X4197500Y-14829357D01*
X4211786Y-14800786D01*
X4226071Y-14786500D01*
X4254643Y-14772214D01*
X4540357Y-14772214D02*
X4568928Y-14772214D01*
X4597500Y-14786500D01*
X4611786Y-14800786D01*
X4626071Y-14829357D01*
X4640357Y-14886500D01*
X4640357Y-14957929D01*
X4626071Y-15015071D01*
X4611786Y-15043643D01*
X4597500Y-15057929D01*
X4568928Y-15072214D01*
X4540357Y-15072214D01*
X4511786Y-15057929D01*
X4497500Y-15043643D01*
X4483214Y-15015071D01*
X4468928Y-14957929D01*
X4468928Y-14886500D01*
X4483214Y-14829357D01*
X4497500Y-14800786D01*
X4511786Y-14786500D01*
X4540357Y-14772214D01*
X4768928Y-15072214D02*
X4768928Y-14872214D01*
X4768928Y-14900786D02*
X4783214Y-14886500D01*
X4811786Y-14872214D01*
X4854643Y-14872214D01*
X4883214Y-14886500D01*
X4897500Y-14915071D01*
X4897500Y-15072214D01*
X4897500Y-14915071D02*
X4911786Y-14886500D01*
X4940357Y-14872214D01*
X4983214Y-14872214D01*
X5011786Y-14886500D01*
X5026071Y-14915071D01*
X5026071Y-15072214D01*
X5168928Y-15072214D02*
X5168928Y-14872214D01*
X5168928Y-14900786D02*
X5183214Y-14886500D01*
X5211786Y-14872214D01*
X5254643Y-14872214D01*
X5283214Y-14886500D01*
X5297500Y-14915071D01*
X5297500Y-15072214D01*
X5297500Y-14915071D02*
X5311786Y-14886500D01*
X5340357Y-14872214D01*
X5383214Y-14872214D01*
X5411786Y-14886500D01*
X5426071Y-14915071D01*
X5426071Y-15072214D01*
X6011786Y-14757929D02*
X5754643Y-15143643D01*
X6397500Y-14772214D02*
X6426071Y-14772214D01*
X6454643Y-14786500D01*
X6468928Y-14800786D01*
X6483214Y-14829357D01*
X6497500Y-14886500D01*
X6497500Y-14957929D01*
X6483214Y-15015071D01*
X6468928Y-15043643D01*
X6454643Y-15057929D01*
X6426071Y-15072214D01*
X6397500Y-15072214D01*
X6368928Y-15057929D01*
X6354643Y-15043643D01*
X6340357Y-15015071D01*
X6326071Y-14957929D01*
X6326071Y-14886500D01*
X6340357Y-14829357D01*
X6354643Y-14800786D01*
X6368928Y-14786500D01*
X6397500Y-14772214D01*
X6626071Y-15043643D02*
X6640357Y-15057929D01*
X6626071Y-15072214D01*
X6611786Y-15057929D01*
X6626071Y-15043643D01*
X6626071Y-15072214D01*
X6826071Y-14772214D02*
X6854643Y-14772214D01*
X6883214Y-14786500D01*
X6897500Y-14800786D01*
X6911786Y-14829357D01*
X6926071Y-14886500D01*
X6926071Y-14957929D01*
X6911786Y-15015071D01*
X6897500Y-15043643D01*
X6883214Y-15057929D01*
X6854643Y-15072214D01*
X6826071Y-15072214D01*
X6797500Y-15057929D01*
X6783214Y-15043643D01*
X6768928Y-15015071D01*
X6754643Y-14957929D01*
X6754643Y-14886500D01*
X6768928Y-14829357D01*
X6783214Y-14800786D01*
X6797500Y-14786500D01*
X6826071Y-14772214D01*
X7026071Y-14772214D02*
X7211786Y-14772214D01*
X7111786Y-14886500D01*
X7154643Y-14886500D01*
X7183214Y-14900786D01*
X7197500Y-14915071D01*
X7211786Y-14943643D01*
X7211786Y-15015071D01*
X7197500Y-15043643D01*
X7183214Y-15057929D01*
X7154643Y-15072214D01*
X7068928Y-15072214D01*
X7040357Y-15057929D01*
X7026071Y-15043643D01*
X7354643Y-15072214D02*
X7411786Y-15072214D01*
X7440357Y-15057929D01*
X7454643Y-15043643D01*
X7483214Y-15000786D01*
X7497500Y-14943643D01*
X7497500Y-14829357D01*
X7483214Y-14800786D01*
X7468928Y-14786500D01*
X7440357Y-14772214D01*
X7383214Y-14772214D01*
X7354643Y-14786500D01*
X7340357Y-14800786D01*
X7326071Y-14829357D01*
X7326071Y-14900786D01*
X7340357Y-14929357D01*
X7354643Y-14943643D01*
X7383214Y-14957929D01*
X7440357Y-14957929D01*
X7468928Y-14943643D01*
X7483214Y-14929357D01*
X7497500Y-14900786D01*
X7611786Y-14772214D02*
X7611786Y-14829357D01*
X7726071Y-14772214D02*
X7726071Y-14829357D01*
X8168928Y-15186500D02*
X8154643Y-15172214D01*
X8126071Y-15129357D01*
X8111786Y-15100786D01*
X8097500Y-15057929D01*
X8083214Y-14986500D01*
X8083214Y-14929357D01*
X8097500Y-14857929D01*
X8111786Y-14815071D01*
X8126071Y-14786500D01*
X8154643Y-14743643D01*
X8168928Y-14729357D01*
X8268928Y-14800786D02*
X8283214Y-14786500D01*
X8311786Y-14772214D01*
X8383214Y-14772214D01*
X8411786Y-14786500D01*
X8426071Y-14800786D01*
X8440357Y-14829357D01*
X8440357Y-14857929D01*
X8426071Y-14900786D01*
X8254643Y-15072214D01*
X8440357Y-15072214D01*
X8540357Y-14772214D02*
X8726071Y-14772214D01*
X8626071Y-14886500D01*
X8668928Y-14886500D01*
X8697500Y-14900786D01*
X8711786Y-14915071D01*
X8726071Y-14943643D01*
X8726071Y-15015071D01*
X8711786Y-15043643D01*
X8697500Y-15057929D01*
X8668928Y-15072214D01*
X8583214Y-15072214D01*
X8554643Y-15057929D01*
X8540357Y-15043643D01*
X9083214Y-15072214D02*
X9083214Y-14772214D01*
X9211786Y-15072214D02*
X9211786Y-14915071D01*
X9197500Y-14886500D01*
X9168928Y-14872214D01*
X9126071Y-14872214D01*
X9097500Y-14886500D01*
X9083214Y-14900786D01*
X9397500Y-15072214D02*
X9368928Y-15057929D01*
X9354643Y-15043643D01*
X9340357Y-15015071D01*
X9340357Y-14929357D01*
X9354643Y-14900786D01*
X9368928Y-14886500D01*
X9397500Y-14872214D01*
X9440357Y-14872214D01*
X9468928Y-14886500D01*
X9483214Y-14900786D01*
X9497500Y-14929357D01*
X9497500Y-15015071D01*
X9483214Y-15043643D01*
X9468928Y-15057929D01*
X9440357Y-15072214D01*
X9397500Y-15072214D01*
X9668928Y-15072214D02*
X9640357Y-15057929D01*
X9626071Y-15029357D01*
X9626071Y-14772214D01*
X9897500Y-15057929D02*
X9868928Y-15072214D01*
X9811786Y-15072214D01*
X9783214Y-15057929D01*
X9768928Y-15029357D01*
X9768928Y-14915071D01*
X9783214Y-14886500D01*
X9811786Y-14872214D01*
X9868928Y-14872214D01*
X9897500Y-14886500D01*
X9911786Y-14915071D01*
X9911786Y-14943643D01*
X9768928Y-14972214D01*
X10026071Y-15057929D02*
X10054643Y-15072214D01*
X10111786Y-15072214D01*
X10140357Y-15057929D01*
X10154643Y-15029357D01*
X10154643Y-15015071D01*
X10140357Y-14986500D01*
X10111786Y-14972214D01*
X10068928Y-14972214D01*
X10040357Y-14957929D01*
X10026071Y-14929357D01*
X10026071Y-14915071D01*
X10040357Y-14886500D01*
X10068928Y-14872214D01*
X10111786Y-14872214D01*
X10140357Y-14886500D01*
X10254643Y-15186500D02*
X10268928Y-15172214D01*
X10297500Y-15129357D01*
X10311786Y-15100786D01*
X10326071Y-15057929D01*
X10340357Y-14986500D01*
X10340357Y-14929357D01*
X10326071Y-14857929D01*
X10311786Y-14815071D01*
X10297500Y-14786500D01*
X10268928Y-14743643D01*
X10254643Y-14729357D01*
X3368200Y-15275350D02*
X3482500Y-15389650D01*
X3482500Y-15275350D02*
X3368200Y-15389650D01*
X3482500Y-15332500D02*
G75*
G03X3482500Y-15332500I-57150J0D01*
G01*
X3926071Y-15468214D02*
X3754643Y-15468214D01*
X3840357Y-15468214D02*
X3840357Y-15168214D01*
X3811786Y-15211071D01*
X3783214Y-15239643D01*
X3754643Y-15253929D01*
X4054643Y-15439643D02*
X4068928Y-15453929D01*
X4054643Y-15468214D01*
X4040357Y-15453929D01*
X4054643Y-15439643D01*
X4054643Y-15468214D01*
X4354643Y-15468214D02*
X4183214Y-15468214D01*
X4268928Y-15468214D02*
X4268928Y-15168214D01*
X4240357Y-15211071D01*
X4211786Y-15239643D01*
X4183214Y-15253929D01*
X4611786Y-15268214D02*
X4611786Y-15468214D01*
X4540357Y-15153929D02*
X4468928Y-15368214D01*
X4654643Y-15368214D01*
X4768928Y-15468214D02*
X4768928Y-15268214D01*
X4768928Y-15296786D02*
X4783214Y-15282500D01*
X4811786Y-15268214D01*
X4854643Y-15268214D01*
X4883214Y-15282500D01*
X4897500Y-15311071D01*
X4897500Y-15468214D01*
X4897500Y-15311071D02*
X4911786Y-15282500D01*
X4940357Y-15268214D01*
X4983214Y-15268214D01*
X5011786Y-15282500D01*
X5026071Y-15311071D01*
X5026071Y-15468214D01*
X5168928Y-15468214D02*
X5168928Y-15268214D01*
X5168928Y-15296786D02*
X5183214Y-15282500D01*
X5211786Y-15268214D01*
X5254643Y-15268214D01*
X5283214Y-15282500D01*
X5297500Y-15311071D01*
X5297500Y-15468214D01*
X5297500Y-15311071D02*
X5311786Y-15282500D01*
X5340357Y-15268214D01*
X5383214Y-15268214D01*
X5411786Y-15282500D01*
X5426071Y-15311071D01*
X5426071Y-15468214D01*
X6011786Y-15153929D02*
X5754643Y-15539643D01*
X6397500Y-15168214D02*
X6426071Y-15168214D01*
X6454643Y-15182500D01*
X6468928Y-15196786D01*
X6483214Y-15225357D01*
X6497500Y-15282500D01*
X6497500Y-15353929D01*
X6483214Y-15411071D01*
X6468928Y-15439643D01*
X6454643Y-15453929D01*
X6426071Y-15468214D01*
X6397500Y-15468214D01*
X6368928Y-15453929D01*
X6354643Y-15439643D01*
X6340357Y-15411071D01*
X6326071Y-15353929D01*
X6326071Y-15282500D01*
X6340357Y-15225357D01*
X6354643Y-15196786D01*
X6368928Y-15182500D01*
X6397500Y-15168214D01*
X6626071Y-15439643D02*
X6640357Y-15453929D01*
X6626071Y-15468214D01*
X6611786Y-15453929D01*
X6626071Y-15439643D01*
X6626071Y-15468214D01*
X6826071Y-15168214D02*
X6854643Y-15168214D01*
X6883214Y-15182500D01*
X6897500Y-15196786D01*
X6911786Y-15225357D01*
X6926071Y-15282500D01*
X6926071Y-15353929D01*
X6911786Y-15411071D01*
X6897500Y-15439643D01*
X6883214Y-15453929D01*
X6854643Y-15468214D01*
X6826071Y-15468214D01*
X6797500Y-15453929D01*
X6783214Y-15439643D01*
X6768928Y-15411071D01*
X6754643Y-15353929D01*
X6754643Y-15282500D01*
X6768928Y-15225357D01*
X6783214Y-15196786D01*
X6797500Y-15182500D01*
X6826071Y-15168214D01*
X7183214Y-15268214D02*
X7183214Y-15468214D01*
X7111786Y-15153929D02*
X7040357Y-15368214D01*
X7226071Y-15368214D01*
X7483214Y-15168214D02*
X7340357Y-15168214D01*
X7326071Y-15311071D01*
X7340357Y-15296786D01*
X7368928Y-15282500D01*
X7440357Y-15282500D01*
X7468928Y-15296786D01*
X7483214Y-15311071D01*
X7497500Y-15339643D01*
X7497500Y-15411071D01*
X7483214Y-15439643D01*
X7468928Y-15453929D01*
X7440357Y-15468214D01*
X7368928Y-15468214D01*
X7340357Y-15453929D01*
X7326071Y-15439643D01*
X7611786Y-15168214D02*
X7611786Y-15225357D01*
X7726071Y-15168214D02*
X7726071Y-15225357D01*
X8168928Y-15582500D02*
X8154643Y-15568214D01*
X8126071Y-15525357D01*
X8111786Y-15496786D01*
X8097500Y-15453929D01*
X8083214Y-15382500D01*
X8083214Y-15325357D01*
X8097500Y-15253929D01*
X8111786Y-15211071D01*
X8126071Y-15182500D01*
X8154643Y-15139643D01*
X8168928Y-15125357D01*
X8440357Y-15468214D02*
X8268928Y-15468214D01*
X8354643Y-15468214D02*
X8354643Y-15168214D01*
X8326071Y-15211071D01*
X8297500Y-15239643D01*
X8268928Y-15253929D01*
X8611786Y-15296786D02*
X8583214Y-15282500D01*
X8568928Y-15268214D01*
X8554643Y-15239643D01*
X8554643Y-15225357D01*
X8568928Y-15196786D01*
X8583214Y-15182500D01*
X8611786Y-15168214D01*
X8668928Y-15168214D01*
X8697500Y-15182500D01*
X8711786Y-15196786D01*
X8726071Y-15225357D01*
X8726071Y-15239643D01*
X8711786Y-15268214D01*
X8697500Y-15282500D01*
X8668928Y-15296786D01*
X8611786Y-15296786D01*
X8583214Y-15311071D01*
X8568928Y-15325357D01*
X8554643Y-15353929D01*
X8554643Y-15411071D01*
X8568928Y-15439643D01*
X8583214Y-15453929D01*
X8611786Y-15468214D01*
X8668928Y-15468214D01*
X8697500Y-15453929D01*
X8711786Y-15439643D01*
X8726071Y-15411071D01*
X8726071Y-15353929D01*
X8711786Y-15325357D01*
X8697500Y-15311071D01*
X8668928Y-15296786D01*
X9083214Y-15468214D02*
X9083214Y-15168214D01*
X9211786Y-15468214D02*
X9211786Y-15311071D01*
X9197500Y-15282500D01*
X9168928Y-15268214D01*
X9126071Y-15268214D01*
X9097500Y-15282500D01*
X9083214Y-15296786D01*
X9397500Y-15468214D02*
X9368928Y-15453929D01*
X9354643Y-15439643D01*
X9340357Y-15411071D01*
X9340357Y-15325357D01*
X9354643Y-15296786D01*
X9368928Y-15282500D01*
X9397500Y-15268214D01*
X9440357Y-15268214D01*
X9468928Y-15282500D01*
X9483214Y-15296786D01*
X9497500Y-15325357D01*
X9497500Y-15411071D01*
X9483214Y-15439643D01*
X9468928Y-15453929D01*
X9440357Y-15468214D01*
X9397500Y-15468214D01*
X9668928Y-15468214D02*
X9640357Y-15453929D01*
X9626071Y-15425357D01*
X9626071Y-15168214D01*
X9897500Y-15453929D02*
X9868928Y-15468214D01*
X9811786Y-15468214D01*
X9783214Y-15453929D01*
X9768928Y-15425357D01*
X9768928Y-15311071D01*
X9783214Y-15282500D01*
X9811786Y-15268214D01*
X9868928Y-15268214D01*
X9897500Y-15282500D01*
X9911786Y-15311071D01*
X9911786Y-15339643D01*
X9768928Y-15368214D01*
X10026071Y-15453929D02*
X10054643Y-15468214D01*
X10111786Y-15468214D01*
X10140357Y-15453929D01*
X10154643Y-15425357D01*
X10154643Y-15411071D01*
X10140357Y-15382500D01*
X10111786Y-15368214D01*
X10068928Y-15368214D01*
X10040357Y-15353929D01*
X10026071Y-15325357D01*
X10026071Y-15311071D01*
X10040357Y-15282500D01*
X10068928Y-15268214D01*
X10111786Y-15268214D01*
X10140357Y-15282500D01*
X10254643Y-15582500D02*
X10268928Y-15568214D01*
X10297500Y-15525357D01*
X10311786Y-15496786D01*
X10326071Y-15453929D01*
X10340357Y-15382500D01*
X10340357Y-15325357D01*
X10326071Y-15253929D01*
X10311786Y-15211071D01*
X10297500Y-15182500D01*
X10268928Y-15139643D01*
X10254643Y-15125357D01*
X3362500Y-15668500D02*
X3482500Y-15788500D01*
X3482500Y-15668500D02*
X3362500Y-15788500D01*
X3422500Y-15668500D02*
X3422500Y-15788500D01*
X3362500Y-15728500D02*
X3482500Y-15728500D01*
X3926071Y-15864214D02*
X3754643Y-15864214D01*
X3840357Y-15864214D02*
X3840357Y-15564214D01*
X3811786Y-15607071D01*
X3783214Y-15635643D01*
X3754643Y-15649929D01*
X4054643Y-15835643D02*
X4068928Y-15849929D01*
X4054643Y-15864214D01*
X4040357Y-15849929D01*
X4054643Y-15835643D01*
X4054643Y-15864214D01*
X4183214Y-15592786D02*
X4197500Y-15578500D01*
X4226071Y-15564214D01*
X4297500Y-15564214D01*
X4326071Y-15578500D01*
X4340357Y-15592786D01*
X4354643Y-15621357D01*
X4354643Y-15649929D01*
X4340357Y-15692786D01*
X4168928Y-15864214D01*
X4354643Y-15864214D01*
X4540357Y-15564214D02*
X4568928Y-15564214D01*
X4597500Y-15578500D01*
X4611786Y-15592786D01*
X4626071Y-15621357D01*
X4640357Y-15678500D01*
X4640357Y-15749929D01*
X4626071Y-15807071D01*
X4611786Y-15835643D01*
X4597500Y-15849929D01*
X4568928Y-15864214D01*
X4540357Y-15864214D01*
X4511786Y-15849929D01*
X4497500Y-15835643D01*
X4483214Y-15807071D01*
X4468928Y-15749929D01*
X4468928Y-15678500D01*
X4483214Y-15621357D01*
X4497500Y-15592786D01*
X4511786Y-15578500D01*
X4540357Y-15564214D01*
X4768928Y-15864214D02*
X4768928Y-15664214D01*
X4768928Y-15692786D02*
X4783214Y-15678500D01*
X4811786Y-15664214D01*
X4854643Y-15664214D01*
X4883214Y-15678500D01*
X4897500Y-15707071D01*
X4897500Y-15864214D01*
X4897500Y-15707071D02*
X4911786Y-15678500D01*
X4940357Y-15664214D01*
X4983214Y-15664214D01*
X5011786Y-15678500D01*
X5026071Y-15707071D01*
X5026071Y-15864214D01*
X5168928Y-15864214D02*
X5168928Y-15664214D01*
X5168928Y-15692786D02*
X5183214Y-15678500D01*
X5211786Y-15664214D01*
X5254643Y-15664214D01*
X5283214Y-15678500D01*
X5297500Y-15707071D01*
X5297500Y-15864214D01*
X5297500Y-15707071D02*
X5311786Y-15678500D01*
X5340357Y-15664214D01*
X5383214Y-15664214D01*
X5411786Y-15678500D01*
X5426071Y-15707071D01*
X5426071Y-15864214D01*
X6011786Y-15549929D02*
X5754643Y-15935643D01*
X6397500Y-15564214D02*
X6426071Y-15564214D01*
X6454643Y-15578500D01*
X6468928Y-15592786D01*
X6483214Y-15621357D01*
X6497500Y-15678500D01*
X6497500Y-15749929D01*
X6483214Y-15807071D01*
X6468928Y-15835643D01*
X6454643Y-15849929D01*
X6426071Y-15864214D01*
X6397500Y-15864214D01*
X6368928Y-15849929D01*
X6354643Y-15835643D01*
X6340357Y-15807071D01*
X6326071Y-15749929D01*
X6326071Y-15678500D01*
X6340357Y-15621357D01*
X6354643Y-15592786D01*
X6368928Y-15578500D01*
X6397500Y-15564214D01*
X6626071Y-15835643D02*
X6640357Y-15849929D01*
X6626071Y-15864214D01*
X6611786Y-15849929D01*
X6626071Y-15835643D01*
X6626071Y-15864214D01*
X6826071Y-15564214D02*
X6854643Y-15564214D01*
X6883214Y-15578500D01*
X6897500Y-15592786D01*
X6911786Y-15621357D01*
X6926071Y-15678500D01*
X6926071Y-15749929D01*
X6911786Y-15807071D01*
X6897500Y-15835643D01*
X6883214Y-15849929D01*
X6854643Y-15864214D01*
X6826071Y-15864214D01*
X6797500Y-15849929D01*
X6783214Y-15835643D01*
X6768928Y-15807071D01*
X6754643Y-15749929D01*
X6754643Y-15678500D01*
X6768928Y-15621357D01*
X6783214Y-15592786D01*
X6797500Y-15578500D01*
X6826071Y-15564214D01*
X7183214Y-15664214D02*
X7183214Y-15864214D01*
X7111786Y-15549929D02*
X7040357Y-15764214D01*
X7226071Y-15764214D01*
X7311786Y-15564214D02*
X7511786Y-15564214D01*
X7383214Y-15864214D01*
X7611786Y-15564214D02*
X7611786Y-15621357D01*
X7726071Y-15564214D02*
X7726071Y-15621357D01*
X8168928Y-15978500D02*
X8154643Y-15964214D01*
X8126071Y-15921357D01*
X8111786Y-15892786D01*
X8097500Y-15849929D01*
X8083214Y-15778500D01*
X8083214Y-15721357D01*
X8097500Y-15649929D01*
X8111786Y-15607071D01*
X8126071Y-15578500D01*
X8154643Y-15535643D01*
X8168928Y-15521357D01*
X8254643Y-15564214D02*
X8454643Y-15564214D01*
X8326071Y-15864214D01*
X8797500Y-15864214D02*
X8797500Y-15564214D01*
X8926071Y-15864214D02*
X8926071Y-15707071D01*
X8911786Y-15678500D01*
X8883214Y-15664214D01*
X8840357Y-15664214D01*
X8811786Y-15678500D01*
X8797500Y-15692786D01*
X9111786Y-15864214D02*
X9083214Y-15849929D01*
X9068928Y-15835643D01*
X9054643Y-15807071D01*
X9054643Y-15721357D01*
X9068928Y-15692786D01*
X9083214Y-15678500D01*
X9111786Y-15664214D01*
X9154643Y-15664214D01*
X9183214Y-15678500D01*
X9197500Y-15692786D01*
X9211786Y-15721357D01*
X9211786Y-15807071D01*
X9197500Y-15835643D01*
X9183214Y-15849929D01*
X9154643Y-15864214D01*
X9111786Y-15864214D01*
X9383214Y-15864214D02*
X9354643Y-15849929D01*
X9340357Y-15821357D01*
X9340357Y-15564214D01*
X9611786Y-15849929D02*
X9583214Y-15864214D01*
X9526071Y-15864214D01*
X9497500Y-15849929D01*
X9483214Y-15821357D01*
X9483214Y-15707071D01*
X9497500Y-15678500D01*
X9526071Y-15664214D01*
X9583214Y-15664214D01*
X9611786Y-15678500D01*
X9626071Y-15707071D01*
X9626071Y-15735643D01*
X9483214Y-15764214D01*
X9740357Y-15849929D02*
X9768928Y-15864214D01*
X9826071Y-15864214D01*
X9854643Y-15849929D01*
X9868928Y-15821357D01*
X9868928Y-15807071D01*
X9854643Y-15778500D01*
X9826071Y-15764214D01*
X9783214Y-15764214D01*
X9754643Y-15749929D01*
X9740357Y-15721357D01*
X9740357Y-15707071D01*
X9754643Y-15678500D01*
X9783214Y-15664214D01*
X9826071Y-15664214D01*
X9854643Y-15678500D01*
X9968928Y-15978500D02*
X9983214Y-15964214D01*
X10011786Y-15921357D01*
X10026071Y-15892786D01*
X10040357Y-15849929D01*
X10054643Y-15778500D01*
X10054643Y-15721357D01*
X10040357Y-15649929D01*
X10026071Y-15607071D01*
X10011786Y-15578500D01*
X9983214Y-15535643D01*
X9968928Y-15521357D01*
X3342500Y-16054500D02*
X3482500Y-16194500D01*
X3482500Y-16054500D02*
X3342500Y-16194500D01*
X3461998Y-16173998D02*
X3461998Y-16075002D01*
X3363002Y-16075002D01*
X3363002Y-16173998D01*
X3461998Y-16173998D01*
X3926071Y-16260214D02*
X3754643Y-16260214D01*
X3840357Y-16260214D02*
X3840357Y-15960214D01*
X3811786Y-16003071D01*
X3783214Y-16031643D01*
X3754643Y-16045929D01*
X4054643Y-16231643D02*
X4068928Y-16245929D01*
X4054643Y-16260214D01*
X4040357Y-16245929D01*
X4054643Y-16231643D01*
X4054643Y-16260214D01*
X4326071Y-16060214D02*
X4326071Y-16260214D01*
X4254643Y-15945929D02*
X4183214Y-16160214D01*
X4368928Y-16160214D01*
X4540357Y-15960214D02*
X4568928Y-15960214D01*
X4597500Y-15974500D01*
X4611786Y-15988786D01*
X4626071Y-16017357D01*
X4640357Y-16074500D01*
X4640357Y-16145929D01*
X4626071Y-16203071D01*
X4611786Y-16231643D01*
X4597500Y-16245929D01*
X4568928Y-16260214D01*
X4540357Y-16260214D01*
X4511786Y-16245929D01*
X4497500Y-16231643D01*
X4483214Y-16203071D01*
X4468928Y-16145929D01*
X4468928Y-16074500D01*
X4483214Y-16017357D01*
X4497500Y-15988786D01*
X4511786Y-15974500D01*
X4540357Y-15960214D01*
X4768928Y-16260214D02*
X4768928Y-16060214D01*
X4768928Y-16088786D02*
X4783214Y-16074500D01*
X4811786Y-16060214D01*
X4854643Y-16060214D01*
X4883214Y-16074500D01*
X4897500Y-16103071D01*
X4897500Y-16260214D01*
X4897500Y-16103071D02*
X4911786Y-16074500D01*
X4940357Y-16060214D01*
X4983214Y-16060214D01*
X5011786Y-16074500D01*
X5026071Y-16103071D01*
X5026071Y-16260214D01*
X5168928Y-16260214D02*
X5168928Y-16060214D01*
X5168928Y-16088786D02*
X5183214Y-16074500D01*
X5211786Y-16060214D01*
X5254643Y-16060214D01*
X5283214Y-16074500D01*
X5297500Y-16103071D01*
X5297500Y-16260214D01*
X5297500Y-16103071D02*
X5311786Y-16074500D01*
X5340357Y-16060214D01*
X5383214Y-16060214D01*
X5411786Y-16074500D01*
X5426071Y-16103071D01*
X5426071Y-16260214D01*
X6011786Y-15945929D02*
X5754643Y-16331643D01*
X6397500Y-15960214D02*
X6426071Y-15960214D01*
X6454643Y-15974500D01*
X6468928Y-15988786D01*
X6483214Y-16017357D01*
X6497500Y-16074500D01*
X6497500Y-16145929D01*
X6483214Y-16203071D01*
X6468928Y-16231643D01*
X6454643Y-16245929D01*
X6426071Y-16260214D01*
X6397500Y-16260214D01*
X6368928Y-16245929D01*
X6354643Y-16231643D01*
X6340357Y-16203071D01*
X6326071Y-16145929D01*
X6326071Y-16074500D01*
X6340357Y-16017357D01*
X6354643Y-15988786D01*
X6368928Y-15974500D01*
X6397500Y-15960214D01*
X6626071Y-16231643D02*
X6640357Y-16245929D01*
X6626071Y-16260214D01*
X6611786Y-16245929D01*
X6626071Y-16231643D01*
X6626071Y-16260214D01*
X6826071Y-15960214D02*
X6854643Y-15960214D01*
X6883214Y-15974500D01*
X6897500Y-15988786D01*
X6911786Y-16017357D01*
X6926071Y-16074500D01*
X6926071Y-16145929D01*
X6911786Y-16203071D01*
X6897500Y-16231643D01*
X6883214Y-16245929D01*
X6854643Y-16260214D01*
X6826071Y-16260214D01*
X6797500Y-16245929D01*
X6783214Y-16231643D01*
X6768928Y-16203071D01*
X6754643Y-16145929D01*
X6754643Y-16074500D01*
X6768928Y-16017357D01*
X6783214Y-15988786D01*
X6797500Y-15974500D01*
X6826071Y-15960214D01*
X7197500Y-15960214D02*
X7054643Y-15960214D01*
X7040357Y-16103071D01*
X7054643Y-16088786D01*
X7083214Y-16074500D01*
X7154643Y-16074500D01*
X7183214Y-16088786D01*
X7197500Y-16103071D01*
X7211786Y-16131643D01*
X7211786Y-16203071D01*
X7197500Y-16231643D01*
X7183214Y-16245929D01*
X7154643Y-16260214D01*
X7083214Y-16260214D01*
X7054643Y-16245929D01*
X7040357Y-16231643D01*
X7483214Y-15960214D02*
X7340357Y-15960214D01*
X7326071Y-16103071D01*
X7340357Y-16088786D01*
X7368928Y-16074500D01*
X7440357Y-16074500D01*
X7468928Y-16088786D01*
X7483214Y-16103071D01*
X7497500Y-16131643D01*
X7497500Y-16203071D01*
X7483214Y-16231643D01*
X7468928Y-16245929D01*
X7440357Y-16260214D01*
X7368928Y-16260214D01*
X7340357Y-16245929D01*
X7326071Y-16231643D01*
X7611786Y-15960214D02*
X7611786Y-16017357D01*
X7726071Y-15960214D02*
X7726071Y-16017357D01*
X8168928Y-16374500D02*
X8154643Y-16360214D01*
X8126071Y-16317357D01*
X8111786Y-16288786D01*
X8097500Y-16245929D01*
X8083214Y-16174500D01*
X8083214Y-16117357D01*
X8097500Y-16045929D01*
X8111786Y-16003071D01*
X8126071Y-15974500D01*
X8154643Y-15931643D01*
X8168928Y-15917357D01*
X8268928Y-15988786D02*
X8283214Y-15974500D01*
X8311786Y-15960214D01*
X8383214Y-15960214D01*
X8411786Y-15974500D01*
X8426071Y-15988786D01*
X8440357Y-16017357D01*
X8440357Y-16045929D01*
X8426071Y-16088786D01*
X8254643Y-16260214D01*
X8440357Y-16260214D01*
X8797500Y-16260214D02*
X8797500Y-15960214D01*
X8926071Y-16260214D02*
X8926071Y-16103071D01*
X8911786Y-16074500D01*
X8883214Y-16060214D01*
X8840357Y-16060214D01*
X8811786Y-16074500D01*
X8797500Y-16088786D01*
X9111786Y-16260214D02*
X9083214Y-16245929D01*
X9068928Y-16231643D01*
X9054643Y-16203071D01*
X9054643Y-16117357D01*
X9068928Y-16088786D01*
X9083214Y-16074500D01*
X9111786Y-16060214D01*
X9154643Y-16060214D01*
X9183214Y-16074500D01*
X9197500Y-16088786D01*
X9211786Y-16117357D01*
X9211786Y-16203071D01*
X9197500Y-16231643D01*
X9183214Y-16245929D01*
X9154643Y-16260214D01*
X9111786Y-16260214D01*
X9383214Y-16260214D02*
X9354643Y-16245929D01*
X9340357Y-16217357D01*
X9340357Y-15960214D01*
X9611786Y-16245929D02*
X9583214Y-16260214D01*
X9526071Y-16260214D01*
X9497500Y-16245929D01*
X9483214Y-16217357D01*
X9483214Y-16103071D01*
X9497500Y-16074500D01*
X9526071Y-16060214D01*
X9583214Y-16060214D01*
X9611786Y-16074500D01*
X9626071Y-16103071D01*
X9626071Y-16131643D01*
X9483214Y-16160214D01*
X9740357Y-16245929D02*
X9768928Y-16260214D01*
X9826071Y-16260214D01*
X9854643Y-16245929D01*
X9868928Y-16217357D01*
X9868928Y-16203071D01*
X9854643Y-16174500D01*
X9826071Y-16160214D01*
X9783214Y-16160214D01*
X9754643Y-16145929D01*
X9740357Y-16117357D01*
X9740357Y-16103071D01*
X9754643Y-16074500D01*
X9783214Y-16060214D01*
X9826071Y-16060214D01*
X9854643Y-16074500D01*
X9968928Y-16374500D02*
X9983214Y-16360214D01*
X10011786Y-16317357D01*
X10026071Y-16288786D01*
X10040357Y-16245929D01*
X10054643Y-16174500D01*
X10054643Y-16117357D01*
X10040357Y-16045929D01*
X10026071Y-16003071D01*
X10011786Y-15974500D01*
X9983214Y-15931643D01*
X9968928Y-15917357D01*
X3325500Y-16442000D02*
X3482500Y-16599000D01*
X3482500Y-16442000D02*
X3325500Y-16599000D01*
X3404000Y-16599000D02*
X3482500Y-16520500D01*
X3404000Y-16442000D01*
X3325500Y-16520500D01*
X3404000Y-16599000D01*
X3926071Y-16656214D02*
X3754643Y-16656214D01*
X3840357Y-16656214D02*
X3840357Y-16356214D01*
X3811786Y-16399071D01*
X3783214Y-16427643D01*
X3754643Y-16441929D01*
X4054643Y-16627643D02*
X4068928Y-16641929D01*
X4054643Y-16656214D01*
X4040357Y-16641929D01*
X4054643Y-16627643D01*
X4054643Y-16656214D01*
X4340357Y-16356214D02*
X4197500Y-16356214D01*
X4183214Y-16499071D01*
X4197500Y-16484786D01*
X4226071Y-16470500D01*
X4297500Y-16470500D01*
X4326071Y-16484786D01*
X4340357Y-16499071D01*
X4354643Y-16527643D01*
X4354643Y-16599071D01*
X4340357Y-16627643D01*
X4326071Y-16641929D01*
X4297500Y-16656214D01*
X4226071Y-16656214D01*
X4197500Y-16641929D01*
X4183214Y-16627643D01*
X4454643Y-16356214D02*
X4654643Y-16356214D01*
X4526071Y-16656214D01*
X4768928Y-16656214D02*
X4768928Y-16456214D01*
X4768928Y-16484786D02*
X4783214Y-16470500D01*
X4811786Y-16456214D01*
X4854643Y-16456214D01*
X4883214Y-16470500D01*
X4897500Y-16499071D01*
X4897500Y-16656214D01*
X4897500Y-16499071D02*
X4911786Y-16470500D01*
X4940357Y-16456214D01*
X4983214Y-16456214D01*
X5011786Y-16470500D01*
X5026071Y-16499071D01*
X5026071Y-16656214D01*
X5168928Y-16656214D02*
X5168928Y-16456214D01*
X5168928Y-16484786D02*
X5183214Y-16470500D01*
X5211786Y-16456214D01*
X5254643Y-16456214D01*
X5283214Y-16470500D01*
X5297500Y-16499071D01*
X5297500Y-16656214D01*
X5297500Y-16499071D02*
X5311786Y-16470500D01*
X5340357Y-16456214D01*
X5383214Y-16456214D01*
X5411786Y-16470500D01*
X5426071Y-16499071D01*
X5426071Y-16656214D01*
X6011786Y-16341929D02*
X5754643Y-16727643D01*
X6397500Y-16356214D02*
X6426071Y-16356214D01*
X6454643Y-16370500D01*
X6468928Y-16384786D01*
X6483214Y-16413357D01*
X6497500Y-16470500D01*
X6497500Y-16541929D01*
X6483214Y-16599071D01*
X6468928Y-16627643D01*
X6454643Y-16641929D01*
X6426071Y-16656214D01*
X6397500Y-16656214D01*
X6368928Y-16641929D01*
X6354643Y-16627643D01*
X6340357Y-16599071D01*
X6326071Y-16541929D01*
X6326071Y-16470500D01*
X6340357Y-16413357D01*
X6354643Y-16384786D01*
X6368928Y-16370500D01*
X6397500Y-16356214D01*
X6626071Y-16627643D02*
X6640357Y-16641929D01*
X6626071Y-16656214D01*
X6611786Y-16641929D01*
X6626071Y-16627643D01*
X6626071Y-16656214D01*
X6826071Y-16356214D02*
X6854643Y-16356214D01*
X6883214Y-16370500D01*
X6897500Y-16384786D01*
X6911786Y-16413357D01*
X6926071Y-16470500D01*
X6926071Y-16541929D01*
X6911786Y-16599071D01*
X6897500Y-16627643D01*
X6883214Y-16641929D01*
X6854643Y-16656214D01*
X6826071Y-16656214D01*
X6797500Y-16641929D01*
X6783214Y-16627643D01*
X6768928Y-16599071D01*
X6754643Y-16541929D01*
X6754643Y-16470500D01*
X6768928Y-16413357D01*
X6783214Y-16384786D01*
X6797500Y-16370500D01*
X6826071Y-16356214D01*
X7183214Y-16356214D02*
X7126071Y-16356214D01*
X7097500Y-16370500D01*
X7083214Y-16384786D01*
X7054643Y-16427643D01*
X7040357Y-16484786D01*
X7040357Y-16599071D01*
X7054643Y-16627643D01*
X7068928Y-16641929D01*
X7097500Y-16656214D01*
X7154643Y-16656214D01*
X7183214Y-16641929D01*
X7197500Y-16627643D01*
X7211786Y-16599071D01*
X7211786Y-16527643D01*
X7197500Y-16499071D01*
X7183214Y-16484786D01*
X7154643Y-16470500D01*
X7097500Y-16470500D01*
X7068928Y-16484786D01*
X7054643Y-16499071D01*
X7040357Y-16527643D01*
X7326071Y-16384786D02*
X7340357Y-16370500D01*
X7368928Y-16356214D01*
X7440357Y-16356214D01*
X7468928Y-16370500D01*
X7483214Y-16384786D01*
X7497500Y-16413357D01*
X7497500Y-16441929D01*
X7483214Y-16484786D01*
X7311786Y-16656214D01*
X7497500Y-16656214D01*
X7611786Y-16356214D02*
X7611786Y-16413357D01*
X7726071Y-16356214D02*
X7726071Y-16413357D01*
X8168928Y-16770500D02*
X8154643Y-16756214D01*
X8126071Y-16713357D01*
X8111786Y-16684786D01*
X8097500Y-16641929D01*
X8083214Y-16570500D01*
X8083214Y-16513357D01*
X8097500Y-16441929D01*
X8111786Y-16399071D01*
X8126071Y-16370500D01*
X8154643Y-16327643D01*
X8168928Y-16313357D01*
X8411786Y-16456214D02*
X8411786Y-16656214D01*
X8340357Y-16341929D02*
X8268928Y-16556214D01*
X8454643Y-16556214D01*
X8797500Y-16656214D02*
X8797500Y-16356214D01*
X8926071Y-16656214D02*
X8926071Y-16499071D01*
X8911786Y-16470500D01*
X8883214Y-16456214D01*
X8840357Y-16456214D01*
X8811786Y-16470500D01*
X8797500Y-16484786D01*
X9111786Y-16656214D02*
X9083214Y-16641929D01*
X9068928Y-16627643D01*
X9054643Y-16599071D01*
X9054643Y-16513357D01*
X9068928Y-16484786D01*
X9083214Y-16470500D01*
X9111786Y-16456214D01*
X9154643Y-16456214D01*
X9183214Y-16470500D01*
X9197500Y-16484786D01*
X9211786Y-16513357D01*
X9211786Y-16599071D01*
X9197500Y-16627643D01*
X9183214Y-16641929D01*
X9154643Y-16656214D01*
X9111786Y-16656214D01*
X9383214Y-16656214D02*
X9354643Y-16641929D01*
X9340357Y-16613357D01*
X9340357Y-16356214D01*
X9611786Y-16641929D02*
X9583214Y-16656214D01*
X9526071Y-16656214D01*
X9497500Y-16641929D01*
X9483214Y-16613357D01*
X9483214Y-16499071D01*
X9497500Y-16470500D01*
X9526071Y-16456214D01*
X9583214Y-16456214D01*
X9611786Y-16470500D01*
X9626071Y-16499071D01*
X9626071Y-16527643D01*
X9483214Y-16556214D01*
X9740357Y-16641929D02*
X9768928Y-16656214D01*
X9826071Y-16656214D01*
X9854643Y-16641929D01*
X9868928Y-16613357D01*
X9868928Y-16599071D01*
X9854643Y-16570500D01*
X9826071Y-16556214D01*
X9783214Y-16556214D01*
X9754643Y-16541929D01*
X9740357Y-16513357D01*
X9740357Y-16499071D01*
X9754643Y-16470500D01*
X9783214Y-16456214D01*
X9826071Y-16456214D01*
X9854643Y-16470500D01*
X9968928Y-16770500D02*
X9983214Y-16756214D01*
X10011786Y-16713357D01*
X10026071Y-16684786D01*
X10040357Y-16641929D01*
X10054643Y-16570500D01*
X10054643Y-16513357D01*
X10040357Y-16441929D01*
X10026071Y-16399071D01*
X10011786Y-16370500D01*
X9983214Y-16327643D01*
X9968928Y-16313357D01*
X3367438Y-16801438D02*
X3367438Y-17031562D01*
X3252376Y-16916500D02*
X3482500Y-16916500D01*
X3482500Y-16916500D02*
G75*
G03X3482500Y-16916500I-115062J0D01*
G01*
X3754643Y-16780786D02*
X3768928Y-16766500D01*
X3797500Y-16752214D01*
X3868928Y-16752214D01*
X3897500Y-16766500D01*
X3911786Y-16780786D01*
X3926071Y-16809357D01*
X3926071Y-16837929D01*
X3911786Y-16880786D01*
X3740357Y-17052214D01*
X3926071Y-17052214D01*
X4054643Y-17023643D02*
X4068928Y-17037929D01*
X4054643Y-17052214D01*
X4040357Y-17037929D01*
X4054643Y-17023643D01*
X4054643Y-17052214D01*
X4168928Y-16752214D02*
X4354643Y-16752214D01*
X4254643Y-16866500D01*
X4297500Y-16866500D01*
X4326071Y-16880786D01*
X4340357Y-16895072D01*
X4354643Y-16923643D01*
X4354643Y-16995072D01*
X4340357Y-17023643D01*
X4326071Y-17037929D01*
X4297500Y-17052214D01*
X4211786Y-17052214D01*
X4183214Y-17037929D01*
X4168928Y-17023643D01*
X4540357Y-16752214D02*
X4568928Y-16752214D01*
X4597500Y-16766500D01*
X4611786Y-16780786D01*
X4626071Y-16809357D01*
X4640357Y-16866500D01*
X4640357Y-16937929D01*
X4626071Y-16995072D01*
X4611786Y-17023643D01*
X4597500Y-17037929D01*
X4568928Y-17052214D01*
X4540357Y-17052214D01*
X4511786Y-17037929D01*
X4497500Y-17023643D01*
X4483214Y-16995072D01*
X4468928Y-16937929D01*
X4468928Y-16866500D01*
X4483214Y-16809357D01*
X4497500Y-16780786D01*
X4511786Y-16766500D01*
X4540357Y-16752214D01*
X4768928Y-17052214D02*
X4768928Y-16852214D01*
X4768928Y-16880786D02*
X4783214Y-16866500D01*
X4811786Y-16852214D01*
X4854643Y-16852214D01*
X4883214Y-16866500D01*
X4897500Y-16895072D01*
X4897500Y-17052214D01*
X4897500Y-16895072D02*
X4911786Y-16866500D01*
X4940357Y-16852214D01*
X4983214Y-16852214D01*
X5011786Y-16866500D01*
X5026071Y-16895072D01*
X5026071Y-17052214D01*
X5168928Y-17052214D02*
X5168928Y-16852214D01*
X5168928Y-16880786D02*
X5183214Y-16866500D01*
X5211786Y-16852214D01*
X5254643Y-16852214D01*
X5283214Y-16866500D01*
X5297500Y-16895072D01*
X5297500Y-17052214D01*
X5297500Y-16895072D02*
X5311786Y-16866500D01*
X5340357Y-16852214D01*
X5383214Y-16852214D01*
X5411786Y-16866500D01*
X5426071Y-16895072D01*
X5426071Y-17052214D01*
X6011786Y-16737929D02*
X5754643Y-17123643D01*
X6397500Y-16752214D02*
X6426071Y-16752214D01*
X6454643Y-16766500D01*
X6468928Y-16780786D01*
X6483214Y-16809357D01*
X6497500Y-16866500D01*
X6497500Y-16937929D01*
X6483214Y-16995072D01*
X6468928Y-17023643D01*
X6454643Y-17037929D01*
X6426071Y-17052214D01*
X6397500Y-17052214D01*
X6368928Y-17037929D01*
X6354643Y-17023643D01*
X6340357Y-16995072D01*
X6326071Y-16937929D01*
X6326071Y-16866500D01*
X6340357Y-16809357D01*
X6354643Y-16780786D01*
X6368928Y-16766500D01*
X6397500Y-16752214D01*
X6626071Y-17023643D02*
X6640357Y-17037929D01*
X6626071Y-17052214D01*
X6611786Y-17037929D01*
X6626071Y-17023643D01*
X6626071Y-17052214D01*
X6826071Y-16752214D02*
X6854643Y-16752214D01*
X6883214Y-16766500D01*
X6897500Y-16780786D01*
X6911786Y-16809357D01*
X6926071Y-16866500D01*
X6926071Y-16937929D01*
X6911786Y-16995072D01*
X6897500Y-17023643D01*
X6883214Y-17037929D01*
X6854643Y-17052214D01*
X6826071Y-17052214D01*
X6797500Y-17037929D01*
X6783214Y-17023643D01*
X6768928Y-16995072D01*
X6754643Y-16937929D01*
X6754643Y-16866500D01*
X6768928Y-16809357D01*
X6783214Y-16780786D01*
X6797500Y-16766500D01*
X6826071Y-16752214D01*
X7068928Y-17052214D02*
X7126071Y-17052214D01*
X7154643Y-17037929D01*
X7168928Y-17023643D01*
X7197500Y-16980786D01*
X7211786Y-16923643D01*
X7211786Y-16809357D01*
X7197500Y-16780786D01*
X7183214Y-16766500D01*
X7154643Y-16752214D01*
X7097500Y-16752214D01*
X7068928Y-16766500D01*
X7054643Y-16780786D01*
X7040357Y-16809357D01*
X7040357Y-16880786D01*
X7054643Y-16909357D01*
X7068928Y-16923643D01*
X7097500Y-16937929D01*
X7154643Y-16937929D01*
X7183214Y-16923643D01*
X7197500Y-16909357D01*
X7211786Y-16880786D01*
X7497500Y-17052214D02*
X7326071Y-17052214D01*
X7411786Y-17052214D02*
X7411786Y-16752214D01*
X7383214Y-16795072D01*
X7354643Y-16823643D01*
X7326071Y-16837929D01*
X7611786Y-16752214D02*
X7611786Y-16809357D01*
X7726071Y-16752214D02*
X7726071Y-16809357D01*
X8168928Y-17166500D02*
X8154643Y-17152214D01*
X8126071Y-17109357D01*
X8111786Y-17080786D01*
X8097500Y-17037929D01*
X8083214Y-16966500D01*
X8083214Y-16909357D01*
X8097500Y-16837929D01*
X8111786Y-16795072D01*
X8126071Y-16766500D01*
X8154643Y-16723643D01*
X8168928Y-16709357D01*
X8268928Y-16780786D02*
X8283214Y-16766500D01*
X8311786Y-16752214D01*
X8383214Y-16752214D01*
X8411786Y-16766500D01*
X8426071Y-16780786D01*
X8440357Y-16809357D01*
X8440357Y-16837929D01*
X8426071Y-16880786D01*
X8254643Y-17052214D01*
X8440357Y-17052214D01*
X8797500Y-17052214D02*
X8797500Y-16752214D01*
X8926071Y-17052214D02*
X8926071Y-16895072D01*
X8911786Y-16866500D01*
X8883214Y-16852214D01*
X8840357Y-16852214D01*
X8811786Y-16866500D01*
X8797500Y-16880786D01*
X9111786Y-17052214D02*
X9083214Y-17037929D01*
X9068928Y-17023643D01*
X9054643Y-16995072D01*
X9054643Y-16909357D01*
X9068928Y-16880786D01*
X9083214Y-16866500D01*
X9111786Y-16852214D01*
X9154643Y-16852214D01*
X9183214Y-16866500D01*
X9197500Y-16880786D01*
X9211786Y-16909357D01*
X9211786Y-16995072D01*
X9197500Y-17023643D01*
X9183214Y-17037929D01*
X9154643Y-17052214D01*
X9111786Y-17052214D01*
X9383214Y-17052214D02*
X9354643Y-17037929D01*
X9340357Y-17009357D01*
X9340357Y-16752214D01*
X9611786Y-17037929D02*
X9583214Y-17052214D01*
X9526071Y-17052214D01*
X9497500Y-17037929D01*
X9483214Y-17009357D01*
X9483214Y-16895072D01*
X9497500Y-16866500D01*
X9526071Y-16852214D01*
X9583214Y-16852214D01*
X9611786Y-16866500D01*
X9626071Y-16895072D01*
X9626071Y-16923643D01*
X9483214Y-16952214D01*
X9740357Y-17037929D02*
X9768928Y-17052214D01*
X9826071Y-17052214D01*
X9854643Y-17037929D01*
X9868928Y-17009357D01*
X9868928Y-16995072D01*
X9854643Y-16966500D01*
X9826071Y-16952214D01*
X9783214Y-16952214D01*
X9754643Y-16937929D01*
X9740357Y-16909357D01*
X9740357Y-16895072D01*
X9754643Y-16866500D01*
X9783214Y-16852214D01*
X9826071Y-16852214D01*
X9854643Y-16866500D01*
X9968928Y-17166500D02*
X9983214Y-17152214D01*
X10011786Y-17109357D01*
X10026071Y-17080786D01*
X10040357Y-17037929D01*
X10054643Y-16966500D01*
X10054643Y-16909357D01*
X10040357Y-16837929D01*
X10026071Y-16795072D01*
X10011786Y-16766500D01*
X9983214Y-16723643D01*
X9968928Y-16709357D01*
X3435638Y-17425638D02*
X3435638Y-17199362D01*
X3209362Y-17199362D01*
X3209362Y-17425638D01*
X3435638Y-17425638D01*
X3482500Y-17312500D02*
G75*
G03X3482500Y-17312500I-160000J0D01*
G01*
X3740357Y-17148214D02*
X3926071Y-17148214D01*
X3826071Y-17262500D01*
X3868928Y-17262500D01*
X3897500Y-17276786D01*
X3911786Y-17291072D01*
X3926071Y-17319643D01*
X3926071Y-17391072D01*
X3911786Y-17419643D01*
X3897500Y-17433929D01*
X3868928Y-17448214D01*
X3783214Y-17448214D01*
X3754643Y-17433929D01*
X3740357Y-17419643D01*
X4054643Y-17419643D02*
X4068928Y-17433929D01*
X4054643Y-17448214D01*
X4040357Y-17433929D01*
X4054643Y-17419643D01*
X4054643Y-17448214D01*
X4183214Y-17176786D02*
X4197500Y-17162500D01*
X4226071Y-17148214D01*
X4297500Y-17148214D01*
X4326071Y-17162500D01*
X4340357Y-17176786D01*
X4354643Y-17205357D01*
X4354643Y-17233929D01*
X4340357Y-17276786D01*
X4168928Y-17448214D01*
X4354643Y-17448214D01*
X4540357Y-17148214D02*
X4568928Y-17148214D01*
X4597500Y-17162500D01*
X4611786Y-17176786D01*
X4626071Y-17205357D01*
X4640357Y-17262500D01*
X4640357Y-17333929D01*
X4626071Y-17391072D01*
X4611786Y-17419643D01*
X4597500Y-17433929D01*
X4568928Y-17448214D01*
X4540357Y-17448214D01*
X4511786Y-17433929D01*
X4497500Y-17419643D01*
X4483214Y-17391072D01*
X4468928Y-17333929D01*
X4468928Y-17262500D01*
X4483214Y-17205357D01*
X4497500Y-17176786D01*
X4511786Y-17162500D01*
X4540357Y-17148214D01*
X4768928Y-17448214D02*
X4768928Y-17248214D01*
X4768928Y-17276786D02*
X4783214Y-17262500D01*
X4811786Y-17248214D01*
X4854643Y-17248214D01*
X4883214Y-17262500D01*
X4897500Y-17291072D01*
X4897500Y-17448214D01*
X4897500Y-17291072D02*
X4911786Y-17262500D01*
X4940357Y-17248214D01*
X4983214Y-17248214D01*
X5011786Y-17262500D01*
X5026071Y-17291072D01*
X5026071Y-17448214D01*
X5168928Y-17448214D02*
X5168928Y-17248214D01*
X5168928Y-17276786D02*
X5183214Y-17262500D01*
X5211786Y-17248214D01*
X5254643Y-17248214D01*
X5283214Y-17262500D01*
X5297500Y-17291072D01*
X5297500Y-17448214D01*
X5297500Y-17291072D02*
X5311786Y-17262500D01*
X5340357Y-17248214D01*
X5383214Y-17248214D01*
X5411786Y-17262500D01*
X5426071Y-17291072D01*
X5426071Y-17448214D01*
X6011786Y-17133929D02*
X5754643Y-17519643D01*
X6397500Y-17148214D02*
X6426071Y-17148214D01*
X6454643Y-17162500D01*
X6468928Y-17176786D01*
X6483214Y-17205357D01*
X6497500Y-17262500D01*
X6497500Y-17333929D01*
X6483214Y-17391072D01*
X6468928Y-17419643D01*
X6454643Y-17433929D01*
X6426071Y-17448214D01*
X6397500Y-17448214D01*
X6368928Y-17433929D01*
X6354643Y-17419643D01*
X6340357Y-17391072D01*
X6326071Y-17333929D01*
X6326071Y-17262500D01*
X6340357Y-17205357D01*
X6354643Y-17176786D01*
X6368928Y-17162500D01*
X6397500Y-17148214D01*
X6626071Y-17419643D02*
X6640357Y-17433929D01*
X6626071Y-17448214D01*
X6611786Y-17433929D01*
X6626071Y-17419643D01*
X6626071Y-17448214D01*
X6926071Y-17448214D02*
X6754643Y-17448214D01*
X6840357Y-17448214D02*
X6840357Y-17148214D01*
X6811786Y-17191072D01*
X6783214Y-17219643D01*
X6754643Y-17233929D01*
X7040357Y-17176786D02*
X7054643Y-17162500D01*
X7083214Y-17148214D01*
X7154643Y-17148214D01*
X7183214Y-17162500D01*
X7197500Y-17176786D01*
X7211786Y-17205357D01*
X7211786Y-17233929D01*
X7197500Y-17276786D01*
X7026071Y-17448214D01*
X7211786Y-17448214D01*
X7468928Y-17148214D02*
X7411786Y-17148214D01*
X7383214Y-17162500D01*
X7368928Y-17176786D01*
X7340357Y-17219643D01*
X7326071Y-17276786D01*
X7326071Y-17391072D01*
X7340357Y-17419643D01*
X7354643Y-17433929D01*
X7383214Y-17448214D01*
X7440357Y-17448214D01*
X7468928Y-17433929D01*
X7483214Y-17419643D01*
X7497500Y-17391072D01*
X7497500Y-17319643D01*
X7483214Y-17291072D01*
X7468928Y-17276786D01*
X7440357Y-17262500D01*
X7383214Y-17262500D01*
X7354643Y-17276786D01*
X7340357Y-17291072D01*
X7326071Y-17319643D01*
X7611786Y-17148214D02*
X7611786Y-17205357D01*
X7726071Y-17148214D02*
X7726071Y-17205357D01*
X8168928Y-17562500D02*
X8154643Y-17548214D01*
X8126071Y-17505357D01*
X8111786Y-17476786D01*
X8097500Y-17433929D01*
X8083214Y-17362500D01*
X8083214Y-17305357D01*
X8097500Y-17233929D01*
X8111786Y-17191072D01*
X8126071Y-17162500D01*
X8154643Y-17119643D01*
X8168928Y-17105357D01*
X8254643Y-17148214D02*
X8440357Y-17148214D01*
X8340357Y-17262500D01*
X8383214Y-17262500D01*
X8411786Y-17276786D01*
X8426071Y-17291072D01*
X8440357Y-17319643D01*
X8440357Y-17391072D01*
X8426071Y-17419643D01*
X8411786Y-17433929D01*
X8383214Y-17448214D01*
X8297500Y-17448214D01*
X8268928Y-17433929D01*
X8254643Y-17419643D01*
X8797500Y-17448214D02*
X8797500Y-17148214D01*
X8926071Y-17448214D02*
X8926071Y-17291072D01*
X8911786Y-17262500D01*
X8883214Y-17248214D01*
X8840357Y-17248214D01*
X8811786Y-17262500D01*
X8797500Y-17276786D01*
X9111786Y-17448214D02*
X9083214Y-17433929D01*
X9068928Y-17419643D01*
X9054643Y-17391072D01*
X9054643Y-17305357D01*
X9068928Y-17276786D01*
X9083214Y-17262500D01*
X9111786Y-17248214D01*
X9154643Y-17248214D01*
X9183214Y-17262500D01*
X9197500Y-17276786D01*
X9211786Y-17305357D01*
X9211786Y-17391072D01*
X9197500Y-17419643D01*
X9183214Y-17433929D01*
X9154643Y-17448214D01*
X9111786Y-17448214D01*
X9383214Y-17448214D02*
X9354643Y-17433929D01*
X9340357Y-17405357D01*
X9340357Y-17148214D01*
X9611786Y-17433929D02*
X9583214Y-17448214D01*
X9526071Y-17448214D01*
X9497500Y-17433929D01*
X9483214Y-17405357D01*
X9483214Y-17291072D01*
X9497500Y-17262500D01*
X9526071Y-17248214D01*
X9583214Y-17248214D01*
X9611786Y-17262500D01*
X9626071Y-17291072D01*
X9626071Y-17319643D01*
X9483214Y-17348214D01*
X9740357Y-17433929D02*
X9768928Y-17448214D01*
X9826071Y-17448214D01*
X9854643Y-17433929D01*
X9868928Y-17405357D01*
X9868928Y-17391072D01*
X9854643Y-17362500D01*
X9826071Y-17348214D01*
X9783214Y-17348214D01*
X9754643Y-17333929D01*
X9740357Y-17305357D01*
X9740357Y-17291072D01*
X9754643Y-17262500D01*
X9783214Y-17248214D01*
X9826071Y-17248214D01*
X9854643Y-17262500D01*
X9968928Y-17562500D02*
X9983214Y-17548214D01*
X10011786Y-17505357D01*
X10026071Y-17476786D01*
X10040357Y-17433929D01*
X10054643Y-17362500D01*
X10054643Y-17305357D01*
X10040357Y-17233929D01*
X10026071Y-17191072D01*
X10011786Y-17162500D01*
X9983214Y-17119643D01*
X9968928Y-17105357D01*
X3317500Y-17927500D02*
X3482500Y-17762500D01*
X3317500Y-17597500D01*
X3152500Y-17762500D01*
X3317500Y-17927500D01*
X3482500Y-17762500D02*
G75*
G03X3482500Y-17762500I-165000J0D01*
G01*
X3740357Y-17598214D02*
X3926071Y-17598214D01*
X3826071Y-17712500D01*
X3868928Y-17712500D01*
X3897500Y-17726786D01*
X3911786Y-17741072D01*
X3926071Y-17769643D01*
X3926071Y-17841072D01*
X3911786Y-17869643D01*
X3897500Y-17883929D01*
X3868928Y-17898214D01*
X3783214Y-17898214D01*
X3754643Y-17883929D01*
X3740357Y-17869643D01*
X4054643Y-17869643D02*
X4068928Y-17883929D01*
X4054643Y-17898214D01*
X4040357Y-17883929D01*
X4054643Y-17869643D01*
X4054643Y-17898214D01*
X4168928Y-17598214D02*
X4354643Y-17598214D01*
X4254643Y-17712500D01*
X4297500Y-17712500D01*
X4326071Y-17726786D01*
X4340357Y-17741072D01*
X4354643Y-17769643D01*
X4354643Y-17841072D01*
X4340357Y-17869643D01*
X4326071Y-17883929D01*
X4297500Y-17898214D01*
X4211786Y-17898214D01*
X4183214Y-17883929D01*
X4168928Y-17869643D01*
X4540357Y-17598214D02*
X4568928Y-17598214D01*
X4597500Y-17612500D01*
X4611786Y-17626786D01*
X4626071Y-17655357D01*
X4640357Y-17712500D01*
X4640357Y-17783929D01*
X4626071Y-17841072D01*
X4611786Y-17869643D01*
X4597500Y-17883929D01*
X4568928Y-17898214D01*
X4540357Y-17898214D01*
X4511786Y-17883929D01*
X4497500Y-17869643D01*
X4483214Y-17841072D01*
X4468928Y-17783929D01*
X4468928Y-17712500D01*
X4483214Y-17655357D01*
X4497500Y-17626786D01*
X4511786Y-17612500D01*
X4540357Y-17598214D01*
X4768928Y-17898214D02*
X4768928Y-17698214D01*
X4768928Y-17726786D02*
X4783214Y-17712500D01*
X4811786Y-17698214D01*
X4854643Y-17698214D01*
X4883214Y-17712500D01*
X4897500Y-17741072D01*
X4897500Y-17898214D01*
X4897500Y-17741072D02*
X4911786Y-17712500D01*
X4940357Y-17698214D01*
X4983214Y-17698214D01*
X5011786Y-17712500D01*
X5026071Y-17741072D01*
X5026071Y-17898214D01*
X5168928Y-17898214D02*
X5168928Y-17698214D01*
X5168928Y-17726786D02*
X5183214Y-17712500D01*
X5211786Y-17698214D01*
X5254643Y-17698214D01*
X5283214Y-17712500D01*
X5297500Y-17741072D01*
X5297500Y-17898214D01*
X5297500Y-17741072D02*
X5311786Y-17712500D01*
X5340357Y-17698214D01*
X5383214Y-17698214D01*
X5411786Y-17712500D01*
X5426071Y-17741072D01*
X5426071Y-17898214D01*
X6011786Y-17583929D02*
X5754643Y-17969643D01*
X6397500Y-17598214D02*
X6426071Y-17598214D01*
X6454643Y-17612500D01*
X6468928Y-17626786D01*
X6483214Y-17655357D01*
X6497500Y-17712500D01*
X6497500Y-17783929D01*
X6483214Y-17841072D01*
X6468928Y-17869643D01*
X6454643Y-17883929D01*
X6426071Y-17898214D01*
X6397500Y-17898214D01*
X6368928Y-17883929D01*
X6354643Y-17869643D01*
X6340357Y-17841072D01*
X6326071Y-17783929D01*
X6326071Y-17712500D01*
X6340357Y-17655357D01*
X6354643Y-17626786D01*
X6368928Y-17612500D01*
X6397500Y-17598214D01*
X6626071Y-17869643D02*
X6640357Y-17883929D01*
X6626071Y-17898214D01*
X6611786Y-17883929D01*
X6626071Y-17869643D01*
X6626071Y-17898214D01*
X6926071Y-17898214D02*
X6754643Y-17898214D01*
X6840357Y-17898214D02*
X6840357Y-17598214D01*
X6811786Y-17641072D01*
X6783214Y-17669643D01*
X6754643Y-17683929D01*
X7026071Y-17598214D02*
X7211786Y-17598214D01*
X7111786Y-17712500D01*
X7154643Y-17712500D01*
X7183214Y-17726786D01*
X7197500Y-17741072D01*
X7211786Y-17769643D01*
X7211786Y-17841072D01*
X7197500Y-17869643D01*
X7183214Y-17883929D01*
X7154643Y-17898214D01*
X7068928Y-17898214D01*
X7040357Y-17883929D01*
X7026071Y-17869643D01*
X7397500Y-17598214D02*
X7426071Y-17598214D01*
X7454643Y-17612500D01*
X7468928Y-17626786D01*
X7483214Y-17655357D01*
X7497500Y-17712500D01*
X7497500Y-17783929D01*
X7483214Y-17841072D01*
X7468928Y-17869643D01*
X7454643Y-17883929D01*
X7426071Y-17898214D01*
X7397500Y-17898214D01*
X7368928Y-17883929D01*
X7354643Y-17869643D01*
X7340357Y-17841072D01*
X7326071Y-17783929D01*
X7326071Y-17712500D01*
X7340357Y-17655357D01*
X7354643Y-17626786D01*
X7368928Y-17612500D01*
X7397500Y-17598214D01*
X7611786Y-17598214D02*
X7611786Y-17655357D01*
X7726071Y-17598214D02*
X7726071Y-17655357D01*
X8168928Y-18012500D02*
X8154643Y-17998214D01*
X8126071Y-17955357D01*
X8111786Y-17926786D01*
X8097500Y-17883929D01*
X8083214Y-17812500D01*
X8083214Y-17755357D01*
X8097500Y-17683929D01*
X8111786Y-17641072D01*
X8126071Y-17612500D01*
X8154643Y-17569643D01*
X8168928Y-17555357D01*
X8411786Y-17698214D02*
X8411786Y-17898214D01*
X8340357Y-17583929D02*
X8268928Y-17798214D01*
X8454643Y-17798214D01*
X8797500Y-17898214D02*
X8797500Y-17598214D01*
X8926071Y-17898214D02*
X8926071Y-17741072D01*
X8911786Y-17712500D01*
X8883214Y-17698214D01*
X8840357Y-17698214D01*
X8811786Y-17712500D01*
X8797500Y-17726786D01*
X9111786Y-17898214D02*
X9083214Y-17883929D01*
X9068928Y-17869643D01*
X9054643Y-17841072D01*
X9054643Y-17755357D01*
X9068928Y-17726786D01*
X9083214Y-17712500D01*
X9111786Y-17698214D01*
X9154643Y-17698214D01*
X9183214Y-17712500D01*
X9197500Y-17726786D01*
X9211786Y-17755357D01*
X9211786Y-17841072D01*
X9197500Y-17869643D01*
X9183214Y-17883929D01*
X9154643Y-17898214D01*
X9111786Y-17898214D01*
X9383214Y-17898214D02*
X9354643Y-17883929D01*
X9340357Y-17855357D01*
X9340357Y-17598214D01*
X9611786Y-17883929D02*
X9583214Y-17898214D01*
X9526071Y-17898214D01*
X9497500Y-17883929D01*
X9483214Y-17855357D01*
X9483214Y-17741072D01*
X9497500Y-17712500D01*
X9526071Y-17698214D01*
X9583214Y-17698214D01*
X9611786Y-17712500D01*
X9626071Y-17741072D01*
X9626071Y-17769643D01*
X9483214Y-17798214D01*
X9740357Y-17883929D02*
X9768928Y-17898214D01*
X9826071Y-17898214D01*
X9854643Y-17883929D01*
X9868928Y-17855357D01*
X9868928Y-17841072D01*
X9854643Y-17812500D01*
X9826071Y-17798214D01*
X9783214Y-17798214D01*
X9754643Y-17783929D01*
X9740357Y-17755357D01*
X9740357Y-17741072D01*
X9754643Y-17712500D01*
X9783214Y-17698214D01*
X9826071Y-17698214D01*
X9854643Y-17712500D01*
X9968928Y-18012500D02*
X9983214Y-17998214D01*
X10011786Y-17955357D01*
X10026071Y-17926786D01*
X10040357Y-17883929D01*
X10054643Y-17812500D01*
X10054643Y-17755357D01*
X10040357Y-17683929D01*
X10026071Y-17641072D01*
X10011786Y-17612500D01*
X9983214Y-17569643D01*
X9968928Y-17555357D01*
M02*
