G04 #@! TF.GenerationSoftware,KiCad,Pcbnew,(5.0.2)-1*
G04 #@! TF.CreationDate,2019-01-28T20:15:30+01:00*
G04 #@! TF.ProjectId,plyta_glowna,706c7974-615f-4676-9c6f-776e612e6b69,rev?*
G04 #@! TF.SameCoordinates,Original*
G04 #@! TF.FileFunction,Legend,Bot*
G04 #@! TF.FilePolarity,Positive*
%FSLAX46Y46*%
G04 Gerber Fmt 4.6, Leading zero omitted, Abs format (unit mm)*
G04 Created by KiCad (PCBNEW (5.0.2)-1) date 2019-01-28 20:15:30*
%MOMM*%
%LPD*%
G01*
G04 APERTURE LIST*
%ADD10C,0.120000*%
%ADD11C,0.150000*%
G04 APERTURE END LIST*
D10*
G04 #@! TO.C,C2*
X67060000Y-50840000D02*
X67060000Y-52840000D01*
X65020000Y-52840000D02*
X65020000Y-50840000D01*
G04 #@! TO.C,C5*
X44720000Y-75180000D02*
X46720000Y-75180000D01*
X46720000Y-77220000D02*
X44720000Y-77220000D01*
G04 #@! TO.C,C6*
X42930000Y-53840000D02*
X42930000Y-55840000D01*
X40890000Y-55840000D02*
X40890000Y-53840000D01*
D11*
G04 #@! TO.C,D2*
X85084120Y-53932040D02*
X85084120Y-51671440D01*
X85084120Y-46921640D02*
X85084120Y-49588640D01*
X85058720Y-51646040D02*
G75*
G02X85033320Y-49588640I1016000J1041400D01*
G01*
X84093520Y-53932040D02*
X85084120Y-53932040D01*
X84085320Y-53926840D02*
X78885320Y-53926840D01*
X78885320Y-53926840D02*
X78885320Y-46926840D01*
X78885320Y-46926840D02*
X85085320Y-46926840D01*
D10*
G04 #@! TO.C,U1*
X69625000Y-52725000D02*
X70025000Y-52725000D01*
X69625000Y-51225000D02*
X69625000Y-52725000D01*
X71425000Y-52725000D02*
X74625000Y-52725000D01*
X76425000Y-52725000D02*
X76425000Y-51225000D01*
X76075000Y-52725000D02*
X76425000Y-52725000D01*
D11*
G04 #@! TO.C,U3*
X49200000Y-70185000D02*
X49200000Y-71785000D01*
X39125000Y-70185000D02*
X39125000Y-64435000D01*
X49775000Y-70185000D02*
X49775000Y-64435000D01*
X39125000Y-70185000D02*
X39775000Y-70185000D01*
X39125000Y-64435000D02*
X39775000Y-64435000D01*
X49775000Y-64435000D02*
X49125000Y-64435000D01*
X49775000Y-70185000D02*
X49200000Y-70185000D01*
G04 #@! TO.C,C2*
X64647142Y-51673333D02*
X64694761Y-51625714D01*
X64742380Y-51482857D01*
X64742380Y-51387619D01*
X64694761Y-51244761D01*
X64599523Y-51149523D01*
X64504285Y-51101904D01*
X64313809Y-51054285D01*
X64170952Y-51054285D01*
X63980476Y-51101904D01*
X63885238Y-51149523D01*
X63790000Y-51244761D01*
X63742380Y-51387619D01*
X63742380Y-51482857D01*
X63790000Y-51625714D01*
X63837619Y-51673333D01*
X63837619Y-52054285D02*
X63790000Y-52101904D01*
X63742380Y-52197142D01*
X63742380Y-52435238D01*
X63790000Y-52530476D01*
X63837619Y-52578095D01*
X63932857Y-52625714D01*
X64028095Y-52625714D01*
X64170952Y-52578095D01*
X64742380Y-52006666D01*
X64742380Y-52625714D01*
G04 #@! TO.C,C5*
X45886666Y-78307142D02*
X45934285Y-78354761D01*
X46077142Y-78402380D01*
X46172380Y-78402380D01*
X46315238Y-78354761D01*
X46410476Y-78259523D01*
X46458095Y-78164285D01*
X46505714Y-77973809D01*
X46505714Y-77830952D01*
X46458095Y-77640476D01*
X46410476Y-77545238D01*
X46315238Y-77450000D01*
X46172380Y-77402380D01*
X46077142Y-77402380D01*
X45934285Y-77450000D01*
X45886666Y-77497619D01*
X44981904Y-77402380D02*
X45458095Y-77402380D01*
X45505714Y-77878571D01*
X45458095Y-77830952D01*
X45362857Y-77783333D01*
X45124761Y-77783333D01*
X45029523Y-77830952D01*
X44981904Y-77878571D01*
X44934285Y-77973809D01*
X44934285Y-78211904D01*
X44981904Y-78307142D01*
X45029523Y-78354761D01*
X45124761Y-78402380D01*
X45362857Y-78402380D01*
X45458095Y-78354761D01*
X45505714Y-78307142D01*
G04 #@! TO.C,C6*
X44017142Y-54673333D02*
X44064761Y-54625714D01*
X44112380Y-54482857D01*
X44112380Y-54387619D01*
X44064761Y-54244761D01*
X43969523Y-54149523D01*
X43874285Y-54101904D01*
X43683809Y-54054285D01*
X43540952Y-54054285D01*
X43350476Y-54101904D01*
X43255238Y-54149523D01*
X43160000Y-54244761D01*
X43112380Y-54387619D01*
X43112380Y-54482857D01*
X43160000Y-54625714D01*
X43207619Y-54673333D01*
X43112380Y-55530476D02*
X43112380Y-55340000D01*
X43160000Y-55244761D01*
X43207619Y-55197142D01*
X43350476Y-55101904D01*
X43540952Y-55054285D01*
X43921904Y-55054285D01*
X44017142Y-55101904D01*
X44064761Y-55149523D01*
X44112380Y-55244761D01*
X44112380Y-55435238D01*
X44064761Y-55530476D01*
X44017142Y-55578095D01*
X43921904Y-55625714D01*
X43683809Y-55625714D01*
X43588571Y-55578095D01*
X43540952Y-55530476D01*
X43493333Y-55435238D01*
X43493333Y-55244761D01*
X43540952Y-55149523D01*
X43588571Y-55101904D01*
X43683809Y-55054285D01*
G04 #@! TO.C,D2*
X82871034Y-55949097D02*
X82871034Y-54749097D01*
X82585320Y-54749097D01*
X82413891Y-54806240D01*
X82299605Y-54920525D01*
X82242462Y-55034811D01*
X82185320Y-55263382D01*
X82185320Y-55434811D01*
X82242462Y-55663382D01*
X82299605Y-55777668D01*
X82413891Y-55891954D01*
X82585320Y-55949097D01*
X82871034Y-55949097D01*
X81728177Y-54863382D02*
X81671034Y-54806240D01*
X81556748Y-54749097D01*
X81271034Y-54749097D01*
X81156748Y-54806240D01*
X81099605Y-54863382D01*
X81042462Y-54977668D01*
X81042462Y-55091954D01*
X81099605Y-55263382D01*
X81785320Y-55949097D01*
X81042462Y-55949097D01*
X82528177Y-44912554D02*
X81328177Y-44912554D01*
X81328177Y-45198268D01*
X81385320Y-45369697D01*
X81499605Y-45483982D01*
X81613891Y-45541125D01*
X81842462Y-45598268D01*
X82013891Y-45598268D01*
X82242462Y-45541125D01*
X82356748Y-45483982D01*
X82471034Y-45369697D01*
X82528177Y-45198268D01*
X82528177Y-44912554D01*
X82528177Y-46112554D02*
X81728177Y-46112554D01*
X81328177Y-46112554D02*
X81385320Y-46055411D01*
X81442462Y-46112554D01*
X81385320Y-46169697D01*
X81328177Y-46112554D01*
X81442462Y-46112554D01*
X82528177Y-46855411D02*
X82471034Y-46741125D01*
X82413891Y-46683982D01*
X82299605Y-46626840D01*
X81956748Y-46626840D01*
X81842462Y-46683982D01*
X81785320Y-46741125D01*
X81728177Y-46855411D01*
X81728177Y-47026840D01*
X81785320Y-47141125D01*
X81842462Y-47198268D01*
X81956748Y-47255411D01*
X82299605Y-47255411D01*
X82413891Y-47198268D01*
X82471034Y-47141125D01*
X82528177Y-47026840D01*
X82528177Y-46855411D01*
X82528177Y-48283982D02*
X81328177Y-48283982D01*
X82471034Y-48283982D02*
X82528177Y-48169697D01*
X82528177Y-47941125D01*
X82471034Y-47826840D01*
X82413891Y-47769697D01*
X82299605Y-47712554D01*
X81956748Y-47712554D01*
X81842462Y-47769697D01*
X81785320Y-47826840D01*
X81728177Y-47941125D01*
X81728177Y-48169697D01*
X81785320Y-48283982D01*
X82471034Y-49312554D02*
X82528177Y-49198268D01*
X82528177Y-48969697D01*
X82471034Y-48855411D01*
X82356748Y-48798268D01*
X81899605Y-48798268D01*
X81785320Y-48855411D01*
X81728177Y-48969697D01*
X81728177Y-49198268D01*
X81785320Y-49312554D01*
X81899605Y-49369697D01*
X82013891Y-49369697D01*
X82128177Y-48798268D01*
X82642462Y-49598268D02*
X82642462Y-50512554D01*
X81899605Y-51198268D02*
X81956748Y-51369697D01*
X82013891Y-51426840D01*
X82128177Y-51483982D01*
X82299605Y-51483982D01*
X82413891Y-51426840D01*
X82471034Y-51369697D01*
X82528177Y-51255411D01*
X82528177Y-50798268D01*
X81328177Y-50798268D01*
X81328177Y-51198268D01*
X81385320Y-51312554D01*
X81442462Y-51369697D01*
X81556748Y-51426840D01*
X81671034Y-51426840D01*
X81785320Y-51369697D01*
X81842462Y-51312554D01*
X81899605Y-51198268D01*
X81899605Y-50798268D01*
X82528177Y-51998268D02*
X81728177Y-51998268D01*
X81956748Y-51998268D02*
X81842462Y-52055411D01*
X81785320Y-52112554D01*
X81728177Y-52226840D01*
X81728177Y-52341125D01*
X82528177Y-52741125D02*
X81728177Y-52741125D01*
X81328177Y-52741125D02*
X81385320Y-52683982D01*
X81442462Y-52741125D01*
X81385320Y-52798268D01*
X81328177Y-52741125D01*
X81442462Y-52741125D01*
X82528177Y-53826840D02*
X81328177Y-53826840D01*
X82471034Y-53826840D02*
X82528177Y-53712554D01*
X82528177Y-53483982D01*
X82471034Y-53369697D01*
X82413891Y-53312554D01*
X82299605Y-53255411D01*
X81956748Y-53255411D01*
X81842462Y-53312554D01*
X81785320Y-53369697D01*
X81728177Y-53483982D01*
X81728177Y-53712554D01*
X81785320Y-53826840D01*
X81728177Y-54912554D02*
X82699605Y-54912554D01*
X82813891Y-54855411D01*
X82871034Y-54798268D01*
X82928177Y-54683982D01*
X82928177Y-54512554D01*
X82871034Y-54398268D01*
X82471034Y-54912554D02*
X82528177Y-54798268D01*
X82528177Y-54569697D01*
X82471034Y-54455411D01*
X82413891Y-54398268D01*
X82299605Y-54341125D01*
X81956748Y-54341125D01*
X81842462Y-54398268D01*
X81785320Y-54455411D01*
X81728177Y-54569697D01*
X81728177Y-54798268D01*
X81785320Y-54912554D01*
X82471034Y-55941125D02*
X82528177Y-55826840D01*
X82528177Y-55598268D01*
X82471034Y-55483982D01*
X82356748Y-55426840D01*
X81899605Y-55426840D01*
X81785320Y-55483982D01*
X81728177Y-55598268D01*
X81728177Y-55826840D01*
X81785320Y-55941125D01*
X81899605Y-55998268D01*
X82013891Y-55998268D01*
X82128177Y-55426840D01*
G04 #@! TO.C,U1*
X77027380Y-50263095D02*
X77836904Y-50263095D01*
X77932142Y-50310714D01*
X77979761Y-50358333D01*
X78027380Y-50453571D01*
X78027380Y-50644047D01*
X77979761Y-50739285D01*
X77932142Y-50786904D01*
X77836904Y-50834523D01*
X77027380Y-50834523D01*
X78027380Y-51834523D02*
X78027380Y-51263095D01*
X78027380Y-51548809D02*
X77027380Y-51548809D01*
X77170238Y-51453571D01*
X77265476Y-51358333D01*
X77313095Y-51263095D01*
G04 #@! TO.C,U3*
X50152380Y-66548095D02*
X50961904Y-66548095D01*
X51057142Y-66595714D01*
X51104761Y-66643333D01*
X51152380Y-66738571D01*
X51152380Y-66929047D01*
X51104761Y-67024285D01*
X51057142Y-67071904D01*
X50961904Y-67119523D01*
X50152380Y-67119523D01*
X50152380Y-67500476D02*
X50152380Y-68119523D01*
X50533333Y-67786190D01*
X50533333Y-67929047D01*
X50580952Y-68024285D01*
X50628571Y-68071904D01*
X50723809Y-68119523D01*
X50961904Y-68119523D01*
X51057142Y-68071904D01*
X51104761Y-68024285D01*
X51152380Y-67929047D01*
X51152380Y-67643333D01*
X51104761Y-67548095D01*
X51057142Y-67500476D01*
G04 #@! TD*
M02*
