G04 #@! TF.GenerationSoftware,KiCad,Pcbnew,(5.0.2)-1*
G04 #@! TF.CreationDate,2019-01-28T20:15:30+01:00*
G04 #@! TF.ProjectId,plyta_glowna,706c7974-615f-4676-9c6f-776e612e6b69,rev?*
G04 #@! TF.SameCoordinates,Original*
G04 #@! TF.FileFunction,Paste,Bot*
G04 #@! TF.FilePolarity,Positive*
%FSLAX46Y46*%
G04 Gerber Fmt 4.6, Leading zero omitted, Abs format (unit mm)*
G04 Created by KiCad (PCBNEW (5.0.2)-1) date 2019-01-28 20:15:30*
%MOMM*%
%LPD*%
G01*
G04 APERTURE LIST*
%ADD10R,1.600000X1.000000*%
%ADD11R,1.000000X1.600000*%
%ADD12R,1.000000X2.000000*%
%ADD13R,7.000000X7.000000*%
%ADD14R,2.000000X3.500000*%
%ADD15R,0.450000X1.750000*%
G04 APERTURE END LIST*
D10*
G04 #@! TO.C,C2*
X66040000Y-53340000D03*
X66040000Y-50340000D03*
G04 #@! TD*
D11*
G04 #@! TO.C,C5*
X47220000Y-76200000D03*
X44220000Y-76200000D03*
G04 #@! TD*
D10*
G04 #@! TO.C,C6*
X41910000Y-56340000D03*
X41910000Y-53340000D03*
G04 #@! TD*
D12*
G04 #@! TO.C,D2*
X84585320Y-55206240D03*
X79385320Y-55206240D03*
X84585320Y-45706240D03*
X79385320Y-45706240D03*
G04 #@! TD*
D13*
G04 #@! TO.C,U1*
X73025000Y-47625000D03*
D14*
X70745000Y-55025000D03*
X75325000Y-55025000D03*
G04 #@! TD*
D15*
G04 #@! TO.C,U3*
X48675000Y-63710000D03*
X48025000Y-63710000D03*
X47375000Y-63710000D03*
X46725000Y-63710000D03*
X46075000Y-63710000D03*
X45425000Y-63710000D03*
X44775000Y-63710000D03*
X44125000Y-63710000D03*
X43475000Y-63710000D03*
X42825000Y-63710000D03*
X42175000Y-63710000D03*
X41525000Y-63710000D03*
X40875000Y-63710000D03*
X40225000Y-63710000D03*
X40225000Y-70910000D03*
X40875000Y-70910000D03*
X41525000Y-70910000D03*
X42175000Y-70910000D03*
X42825000Y-70910000D03*
X43475000Y-70910000D03*
X44125000Y-70910000D03*
X44775000Y-70910000D03*
X45425000Y-70910000D03*
X46075000Y-70910000D03*
X46725000Y-70910000D03*
X47375000Y-70910000D03*
X48025000Y-70910000D03*
X48675000Y-70910000D03*
G04 #@! TD*
M02*
