G04 #@! TF.GenerationSoftware,KiCad,Pcbnew,(5.0.2)-1*
G04 #@! TF.CreationDate,2019-01-28T20:15:30+01:00*
G04 #@! TF.ProjectId,plyta_glowna,706c7974-615f-4676-9c6f-776e612e6b69,rev?*
G04 #@! TF.SameCoordinates,Original*
G04 #@! TF.FileFunction,Copper,L2,Bot*
G04 #@! TF.FilePolarity,Positive*
%FSLAX46Y46*%
G04 Gerber Fmt 4.6, Leading zero omitted, Abs format (unit mm)*
G04 Created by KiCad (PCBNEW (5.0.2)-1) date 2019-01-28 20:15:30*
%MOMM*%
%LPD*%
G01*
G04 APERTURE LIST*
G04 #@! TA.AperFunction,ComponentPad*
%ADD10C,6.400000*%
G04 #@! TD*
G04 #@! TA.AperFunction,ComponentPad*
%ADD11C,0.800000*%
G04 #@! TD*
G04 #@! TA.AperFunction,SMDPad,CuDef*
%ADD12R,1.600000X1.000000*%
G04 #@! TD*
G04 #@! TA.AperFunction,SMDPad,CuDef*
%ADD13R,1.000000X1.600000*%
G04 #@! TD*
G04 #@! TA.AperFunction,SMDPad,CuDef*
%ADD14R,1.000000X2.000000*%
G04 #@! TD*
G04 #@! TA.AperFunction,ComponentPad*
%ADD15C,1.524000*%
G04 #@! TD*
G04 #@! TA.AperFunction,ComponentPad*
%ADD16C,2.700020*%
G04 #@! TD*
G04 #@! TA.AperFunction,ComponentPad*
%ADD17C,2.000000*%
G04 #@! TD*
G04 #@! TA.AperFunction,ComponentPad*
%ADD18C,3.300000*%
G04 #@! TD*
G04 #@! TA.AperFunction,ComponentPad*
%ADD19C,1.501140*%
G04 #@! TD*
G04 #@! TA.AperFunction,ComponentPad*
%ADD20O,1.700000X1.700000*%
G04 #@! TD*
G04 #@! TA.AperFunction,ComponentPad*
%ADD21R,1.700000X1.700000*%
G04 #@! TD*
G04 #@! TA.AperFunction,ComponentPad*
%ADD22O,3.600000X1.800000*%
G04 #@! TD*
G04 #@! TA.AperFunction,ComponentPad*
%ADD23R,3.600000X1.800000*%
G04 #@! TD*
G04 #@! TA.AperFunction,ComponentPad*
%ADD24O,3.600000X2.080000*%
G04 #@! TD*
G04 #@! TA.AperFunction,ComponentPad*
%ADD25R,3.600000X2.080000*%
G04 #@! TD*
G04 #@! TA.AperFunction,ComponentPad*
%ADD26O,2.032000X2.540000*%
G04 #@! TD*
G04 #@! TA.AperFunction,SMDPad,CuDef*
%ADD27R,7.000000X7.000000*%
G04 #@! TD*
G04 #@! TA.AperFunction,SMDPad,CuDef*
%ADD28R,2.000000X3.500000*%
G04 #@! TD*
G04 #@! TA.AperFunction,SMDPad,CuDef*
%ADD29R,0.450000X1.750000*%
G04 #@! TD*
G04 #@! TA.AperFunction,ViaPad*
%ADD30C,0.800000*%
G04 #@! TD*
G04 #@! TA.AperFunction,Conductor*
%ADD31C,0.250000*%
G04 #@! TD*
G04 #@! TA.AperFunction,Conductor*
%ADD32C,0.600000*%
G04 #@! TD*
G04 #@! TA.AperFunction,Conductor*
%ADD33C,5.000000*%
G04 #@! TD*
G04 #@! TA.AperFunction,Conductor*
%ADD34C,2.000000*%
G04 #@! TD*
G04 #@! TA.AperFunction,Conductor*
%ADD35C,2.500000*%
G04 #@! TD*
G04 #@! TA.AperFunction,Conductor*
%ADD36C,1.000000*%
G04 #@! TD*
G04 #@! TA.AperFunction,Conductor*
%ADD37C,0.254000*%
G04 #@! TD*
G04 APERTURE END LIST*
D10*
G04 #@! TO.P,REF\002A\002A,1*
G04 #@! TO.N,N/C*
X94234000Y-115824000D03*
D11*
X96634000Y-115824000D03*
X95931056Y-117521056D03*
X94234000Y-118224000D03*
X92536944Y-117521056D03*
X91834000Y-115824000D03*
X92536944Y-114126944D03*
X94234000Y-113424000D03*
X95931056Y-114126944D03*
G04 #@! TD*
G04 #@! TO.P,REF\002A\002A,1*
G04 #@! TO.N,N/C*
X95931056Y-31068944D03*
X94234000Y-30366000D03*
X92536944Y-31068944D03*
X91834000Y-32766000D03*
X92536944Y-34463056D03*
X94234000Y-35166000D03*
X95931056Y-34463056D03*
X96634000Y-32766000D03*
D10*
X94234000Y-32766000D03*
G04 #@! TD*
D12*
G04 #@! TO.P,C2,2*
G04 #@! TO.N,+12P*
X66040000Y-53340000D03*
G04 #@! TO.P,C2,1*
G04 #@! TO.N,GND*
X66040000Y-50340000D03*
G04 #@! TD*
D13*
G04 #@! TO.P,C5,2*
G04 #@! TO.N,+5V*
X47220000Y-76200000D03*
G04 #@! TO.P,C5,1*
G04 #@! TO.N,GND*
X44220000Y-76200000D03*
G04 #@! TD*
D12*
G04 #@! TO.P,C6,1*
G04 #@! TO.N,Net-(C6-Pad1)*
X41910000Y-56340000D03*
G04 #@! TO.P,C6,2*
G04 #@! TO.N,GND*
X41910000Y-53340000D03*
G04 #@! TD*
D14*
G04 #@! TO.P,D2,1*
G04 #@! TO.N,+12P*
X84585320Y-55206240D03*
G04 #@! TO.P,D2,2*
G04 #@! TO.N,GND*
X79385320Y-55206240D03*
G04 #@! TO.P,D2,4*
G04 #@! TO.N,+12V*
X84585320Y-45706240D03*
G04 #@! TO.P,D2,3*
G04 #@! TO.N,GNDA*
X79385320Y-45706240D03*
G04 #@! TD*
D15*
G04 #@! TO.P,J1,2*
G04 #@! TO.N,Net-(J1-Pad2)*
X50094680Y-50893760D03*
G04 #@! TO.P,J1,1*
G04 #@! TO.N,+5V*
X50094680Y-53433760D03*
G04 #@! TO.P,J1,4*
G04 #@! TO.N,GND*
X48095700Y-53433760D03*
G04 #@! TO.P,J1,3*
G04 #@! TO.N,Net-(J1-Pad3)*
X48095700Y-50893760D03*
D16*
G04 #@! TO.P,J1,5*
G04 #@! TO.N,Net-(J1-Pad5)*
X45395680Y-46164280D03*
X45395680Y-58163240D03*
G04 #@! TD*
D17*
G04 #@! TO.P,J2,*
G04 #@! TO.N,*
X69088000Y-33909000D03*
D18*
X83566000Y-30480000D03*
X70866000Y-30480000D03*
D19*
G04 #@! TO.P,J2,1*
G04 #@! TO.N,+12P*
X73660000Y-33020000D03*
G04 #@! TO.P,J2,7*
G04 #@! TO.N,N/C*
X79756000Y-33020000D03*
G04 #@! TO.P,J2,3*
G04 #@! TO.N,Net-(J2-Pad3)*
X75692000Y-33020000D03*
G04 #@! TO.P,J2,5*
G04 #@! TO.N,Net-(J2-Pad5)*
X77724000Y-33020000D03*
G04 #@! TO.P,J2,2*
G04 #@! TO.N,N/C*
X74676000Y-34798000D03*
G04 #@! TO.P,J2,4*
G04 #@! TO.N,Net-(J2-Pad4)*
X76708000Y-34798000D03*
G04 #@! TO.P,J2,6*
G04 #@! TO.N,Net-(J2-Pad6)*
X78740000Y-34798000D03*
G04 #@! TO.P,J2,8*
G04 #@! TO.N,GND*
X80772000Y-34798000D03*
G04 #@! TO.P,J2,12*
G04 #@! TO.N,N/C*
X84074000Y-39624000D03*
G04 #@! TO.P,J2,11*
X81788000Y-39624000D03*
G04 #@! TO.P,J2,10*
X72644000Y-39624000D03*
G04 #@! TO.P,J2,9*
X70358000Y-39624000D03*
D17*
G04 #@! TO.P,J2,*
G04 #@! TO.N,*
X85344000Y-33909000D03*
G04 #@! TD*
G04 #@! TO.P,J3,*
G04 #@! TO.N,*
X65659000Y-33909000D03*
D19*
G04 #@! TO.P,J3,9*
G04 #@! TO.N,N/C*
X50673000Y-39624000D03*
G04 #@! TO.P,J3,10*
X52959000Y-39624000D03*
G04 #@! TO.P,J3,11*
X62103000Y-39624000D03*
G04 #@! TO.P,J3,12*
X64389000Y-39624000D03*
G04 #@! TO.P,J3,8*
G04 #@! TO.N,GND*
X61087000Y-34798000D03*
G04 #@! TO.P,J3,6*
G04 #@! TO.N,Net-(J3-Pad6)*
X59055000Y-34798000D03*
G04 #@! TO.P,J3,4*
G04 #@! TO.N,Net-(J3-Pad4)*
X57023000Y-34798000D03*
G04 #@! TO.P,J3,2*
G04 #@! TO.N,N/C*
X54991000Y-34798000D03*
G04 #@! TO.P,J3,5*
G04 #@! TO.N,Net-(J3-Pad5)*
X58039000Y-33020000D03*
G04 #@! TO.P,J3,3*
G04 #@! TO.N,Net-(J3-Pad3)*
X56007000Y-33020000D03*
G04 #@! TO.P,J3,7*
G04 #@! TO.N,N/C*
X60071000Y-33020000D03*
G04 #@! TO.P,J3,1*
G04 #@! TO.N,+12P*
X53975000Y-33020000D03*
D18*
G04 #@! TO.P,J3,*
G04 #@! TO.N,*
X51181000Y-30480000D03*
X63881000Y-30480000D03*
D17*
X49403000Y-33909000D03*
G04 #@! TD*
D20*
G04 #@! TO.P,P1,10*
G04 #@! TO.N,GND*
X68580000Y-108585000D03*
G04 #@! TO.P,P1,9*
G04 #@! TO.N,MISO*
X68580000Y-111125000D03*
G04 #@! TO.P,P1,8*
G04 #@! TO.N,GND*
X66040000Y-108585000D03*
G04 #@! TO.P,P1,7*
G04 #@! TO.N,SCK*
X66040000Y-111125000D03*
G04 #@! TO.P,P1,6*
G04 #@! TO.N,GND*
X63500000Y-108585000D03*
G04 #@! TO.P,P1,5*
G04 #@! TO.N,RST*
X63500000Y-111125000D03*
G04 #@! TO.P,P1,4*
G04 #@! TO.N,GND*
X60960000Y-108585000D03*
G04 #@! TO.P,P1,3*
X60960000Y-111125000D03*
G04 #@! TO.P,P1,2*
G04 #@! TO.N,+5V*
X58420000Y-108585000D03*
D21*
G04 #@! TO.P,P1,1*
G04 #@! TO.N,MOSI*
X58420000Y-111125000D03*
G04 #@! TD*
D22*
G04 #@! TO.P,P2,7*
G04 #@! TO.N,+12V*
X92145320Y-72296240D03*
G04 #@! TO.P,P2,6*
G04 #@! TO.N,/mosfet_LED6*
X92145320Y-77376240D03*
G04 #@! TO.P,P2,5*
G04 #@! TO.N,/mosfet_LED5*
X92145320Y-82456240D03*
G04 #@! TO.P,P2,4*
G04 #@! TO.N,/mosfet_LED4*
X92145320Y-87536240D03*
G04 #@! TO.P,P2,3*
G04 #@! TO.N,/mosfet_LED3*
X92145320Y-92616240D03*
G04 #@! TO.P,P2,2*
G04 #@! TO.N,/mosfet_LED2*
X92145320Y-97696240D03*
D23*
G04 #@! TO.P,P2,1*
G04 #@! TO.N,/mosfet_LED1*
X92145320Y-102776240D03*
G04 #@! TD*
D24*
G04 #@! TO.P,Power1,2*
G04 #@! TO.N,+12V*
X92145320Y-48166240D03*
D25*
G04 #@! TO.P,Power1,1*
G04 #@! TO.N,GNDA*
X92145320Y-53246240D03*
G04 #@! TD*
D26*
G04 #@! TO.P,Q1,1*
G04 #@! TO.N,/mosfet_LED1*
X84525320Y-102776240D03*
G04 #@! TO.P,Q1,3*
G04 #@! TO.N,GNDA*
X79445320Y-102776240D03*
G04 #@! TO.P,Q1,2*
G04 #@! TO.N,Net-(Q1-Pad2)*
X81985320Y-102776240D03*
G04 #@! TD*
G04 #@! TO.P,Q2,2*
G04 #@! TO.N,Net-(Q2-Pad2)*
X81985320Y-97696240D03*
G04 #@! TO.P,Q2,3*
G04 #@! TO.N,GNDA*
X79445320Y-97696240D03*
G04 #@! TO.P,Q2,1*
G04 #@! TO.N,/mosfet_LED2*
X84525320Y-97696240D03*
G04 #@! TD*
G04 #@! TO.P,Q3,2*
G04 #@! TO.N,Net-(Q3-Pad2)*
X81985320Y-92616240D03*
G04 #@! TO.P,Q3,3*
G04 #@! TO.N,GNDA*
X79445320Y-92616240D03*
G04 #@! TO.P,Q3,1*
G04 #@! TO.N,/mosfet_LED3*
X84525320Y-92616240D03*
G04 #@! TD*
G04 #@! TO.P,Q4,2*
G04 #@! TO.N,Net-(Q4-Pad2)*
X81985320Y-87536240D03*
G04 #@! TO.P,Q4,3*
G04 #@! TO.N,GNDA*
X79445320Y-87536240D03*
G04 #@! TO.P,Q4,1*
G04 #@! TO.N,/mosfet_LED4*
X84525320Y-87536240D03*
G04 #@! TD*
G04 #@! TO.P,Q5,1*
G04 #@! TO.N,/mosfet_LED5*
X84525320Y-82456240D03*
G04 #@! TO.P,Q5,3*
G04 #@! TO.N,GNDA*
X79445320Y-82456240D03*
G04 #@! TO.P,Q5,2*
G04 #@! TO.N,Net-(Q5-Pad2)*
X81985320Y-82456240D03*
G04 #@! TD*
G04 #@! TO.P,Q6,1*
G04 #@! TO.N,/mosfet_LED6*
X84525320Y-77376240D03*
G04 #@! TO.P,Q6,3*
G04 #@! TO.N,GNDA*
X79445320Y-77376240D03*
G04 #@! TO.P,Q6,2*
G04 #@! TO.N,Net-(Q6-Pad2)*
X81985320Y-77376240D03*
G04 #@! TD*
D27*
G04 #@! TO.P,U1,2*
G04 #@! TO.N,GND*
X73025000Y-47625000D03*
D28*
G04 #@! TO.P,U1,3*
G04 #@! TO.N,+5V*
X70745000Y-55025000D03*
G04 #@! TO.P,U1,1*
G04 #@! TO.N,+12P*
X75325000Y-55025000D03*
G04 #@! TD*
D29*
G04 #@! TO.P,U3,28*
G04 #@! TO.N,N/C*
X48675000Y-63710000D03*
G04 #@! TO.P,U3,27*
X48025000Y-63710000D03*
G04 #@! TO.P,U3,26*
G04 #@! TO.N,GND*
X47375000Y-63710000D03*
G04 #@! TO.P,U3,25*
X46725000Y-63710000D03*
G04 #@! TO.P,U3,24*
G04 #@! TO.N,N/C*
X46075000Y-63710000D03*
G04 #@! TO.P,U3,23*
X45425000Y-63710000D03*
G04 #@! TO.P,U3,22*
X44775000Y-63710000D03*
G04 #@! TO.P,U3,21*
G04 #@! TO.N,GND*
X44125000Y-63710000D03*
G04 #@! TO.P,U3,20*
G04 #@! TO.N,+5V*
X43475000Y-63710000D03*
G04 #@! TO.P,U3,19*
G04 #@! TO.N,N/C*
X42825000Y-63710000D03*
G04 #@! TO.P,U3,18*
G04 #@! TO.N,GND*
X42175000Y-63710000D03*
G04 #@! TO.P,U3,17*
G04 #@! TO.N,Net-(C6-Pad1)*
X41525000Y-63710000D03*
G04 #@! TO.P,U3,16*
G04 #@! TO.N,Net-(J1-Pad2)*
X40875000Y-63710000D03*
G04 #@! TO.P,U3,15*
G04 #@! TO.N,Net-(J1-Pad3)*
X40225000Y-63710000D03*
G04 #@! TO.P,U3,14*
G04 #@! TO.N,N/C*
X40225000Y-70910000D03*
G04 #@! TO.P,U3,13*
X40875000Y-70910000D03*
G04 #@! TO.P,U3,12*
X41525000Y-70910000D03*
G04 #@! TO.P,U3,11*
X42175000Y-70910000D03*
G04 #@! TO.P,U3,10*
X42825000Y-70910000D03*
G04 #@! TO.P,U3,9*
X43475000Y-70910000D03*
G04 #@! TO.P,U3,8*
X44125000Y-70910000D03*
G04 #@! TO.P,U3,7*
G04 #@! TO.N,GND*
X44775000Y-70910000D03*
G04 #@! TO.P,U3,6*
G04 #@! TO.N,N/C*
X45425000Y-70910000D03*
G04 #@! TO.P,U3,5*
G04 #@! TO.N,RXD*
X46075000Y-70910000D03*
G04 #@! TO.P,U3,4*
G04 #@! TO.N,+5V*
X46725000Y-70910000D03*
G04 #@! TO.P,U3,3*
G04 #@! TO.N,N/C*
X47375000Y-70910000D03*
G04 #@! TO.P,U3,2*
X48025000Y-70910000D03*
G04 #@! TO.P,U3,1*
G04 #@! TO.N,TXD*
X48675000Y-70910000D03*
G04 #@! TD*
D20*
G04 #@! TO.P,+5  SDA SCL GND  O_PWR,4*
G04 #@! TO.N,/SDA*
X51435000Y-86995000D03*
G04 #@! TO.P,+5  SDA SCL GND  O_PWR,3*
G04 #@! TO.N,/SCL*
X53975000Y-86995000D03*
G04 #@! TO.P,+5  SDA SCL GND  O_PWR,2*
G04 #@! TO.N,GND*
X56515000Y-86995000D03*
D21*
G04 #@! TO.P,+5  SDA SCL GND  O_PWR,1*
G04 #@! TO.N,/OLED_PWR*
X59055000Y-86995000D03*
G04 #@! TD*
D20*
G04 #@! TO.P,P3,4*
G04 #@! TO.N,+12P*
X49784000Y-117729000D03*
G04 #@! TO.P,P3,3*
G04 #@! TO.N,GND*
X47244000Y-117729000D03*
G04 #@! TO.P,P3,2*
X44704000Y-117729000D03*
D21*
G04 #@! TO.P,P3,1*
G04 #@! TO.N,+5V*
X42164000Y-117729000D03*
G04 #@! TD*
D20*
G04 #@! TO.P,P4,5*
G04 #@! TO.N,+5V*
X48895000Y-86995000D03*
G04 #@! TO.P,P4,4*
G04 #@! TO.N,/SDA*
X51435000Y-86995000D03*
G04 #@! TO.P,P4,3*
G04 #@! TO.N,/SCL*
X53975000Y-86995000D03*
G04 #@! TO.P,P4,2*
G04 #@! TO.N,GND*
X56515000Y-86995000D03*
D21*
G04 #@! TO.P,P4,1*
G04 #@! TO.N,/OLED_PWR*
X59055000Y-86995000D03*
G04 #@! TD*
D10*
G04 #@! TO.P,REF\002A\002A,1*
G04 #@! TO.N,N/C*
X42926000Y-32766000D03*
D11*
X45326000Y-32766000D03*
X44623056Y-34463056D03*
X42926000Y-35166000D03*
X41228944Y-34463056D03*
X40526000Y-32766000D03*
X41228944Y-31068944D03*
X42926000Y-30366000D03*
X44623056Y-31068944D03*
G04 #@! TD*
D30*
G04 #@! TO.N,GND*
X73025000Y-45085000D03*
X75565000Y-47625000D03*
X70485000Y-45085000D03*
X75565000Y-45085000D03*
X75565000Y-49530000D03*
X73025000Y-49530000D03*
X73025000Y-47625000D03*
X70485000Y-49530000D03*
X70485000Y-49530000D03*
X41365010Y-104147975D03*
G04 #@! TO.N,+5V*
X77470000Y-60960000D03*
X52705000Y-66675000D03*
X57785000Y-66675000D03*
X45720000Y-66675000D03*
X39370000Y-66675000D03*
X57785000Y-103505000D03*
X47625000Y-97790000D03*
X43180000Y-61595000D03*
X44450000Y-68580000D03*
X40640000Y-104902000D03*
X42418000Y-94869000D03*
G04 #@! TO.N,RST*
X40640000Y-93345000D03*
G04 #@! TO.N,Net-(J2-Pad3)*
X72390000Y-37465000D03*
G04 #@! TO.N,Net-(J2-Pad5)*
X56515000Y-58420000D03*
G04 #@! TO.N,Net-(J2-Pad6)*
X54610000Y-58420000D03*
G04 #@! TO.N,Net-(J3-Pad3)*
X57785000Y-42545000D03*
G04 #@! TO.N,MISO*
X57059990Y-101600000D03*
G04 #@! TO.N,SCK*
X55245000Y-99695000D03*
G04 #@! TO.N,MOSI*
X55245000Y-101600000D03*
G04 #@! TO.N,RXD*
X46355000Y-97155000D03*
G04 #@! TO.N,TXD*
X48895000Y-95885000D03*
G04 #@! TO.N,+12P*
X83566000Y-57150000D03*
G04 #@! TD*
D31*
G04 #@! TO.N,GND*
X44125000Y-64835000D02*
X43555000Y-65405000D01*
X44125000Y-63710000D02*
X44125000Y-64835000D01*
X42175000Y-64835000D02*
X42175000Y-63710000D01*
X42745000Y-65405000D02*
X42175000Y-64835000D01*
X43555000Y-65405000D02*
X42745000Y-65405000D01*
X47375000Y-63710000D02*
X46725000Y-63710000D01*
X46725000Y-64835000D02*
X46155000Y-65405000D01*
X46725000Y-63710000D02*
X46725000Y-64835000D01*
X46155000Y-65405000D02*
X45085000Y-65405000D01*
X45085000Y-65405000D02*
X43555000Y-65405000D01*
X73025000Y-48345920D02*
X73025000Y-47625000D01*
X79385320Y-54706240D02*
X73025000Y-48345920D01*
X79385320Y-55206240D02*
X79385320Y-54706240D01*
X70310000Y-50340000D02*
X70485000Y-49530000D01*
X66040000Y-50340000D02*
X70310000Y-50340000D01*
X44775000Y-74595000D02*
X44775000Y-70910000D01*
X44220000Y-75150000D02*
X44775000Y-74595000D01*
X44220000Y-76200000D02*
X44220000Y-75150000D01*
X42960000Y-53340000D02*
X41910000Y-53340000D01*
X46493241Y-49806759D02*
X42960000Y-53340000D01*
X71120000Y-49530000D02*
X73025000Y-47625000D01*
X70485000Y-49530000D02*
X71120000Y-49530000D01*
X46725000Y-61225000D02*
X46725000Y-63710000D01*
X51181681Y-56768319D02*
X46725000Y-61225000D01*
X48095700Y-53433760D02*
X48857699Y-52671761D01*
X48857699Y-52671761D02*
X49247917Y-52671761D01*
X49247917Y-52671761D02*
X49938917Y-51980761D01*
X49938917Y-51980761D02*
X50250443Y-51980761D01*
X50250443Y-51980761D02*
X51181681Y-52911999D01*
X51181681Y-52911999D02*
X51181681Y-56768319D01*
X51181681Y-50442440D02*
X50546000Y-49806759D01*
X51181681Y-51415521D02*
X51181681Y-50442440D01*
X50616441Y-51980761D02*
X51181681Y-51415521D01*
X50250443Y-51980761D02*
X50616441Y-51980761D01*
X50616441Y-49806759D02*
X50546000Y-49806759D01*
X50546000Y-49806759D02*
X46493241Y-49806759D01*
X46041919Y-117729000D02*
X44704000Y-117729000D01*
X47244000Y-117729000D02*
X46041919Y-117729000D01*
G04 #@! TO.N,+5V*
X46725000Y-74655000D02*
X46725000Y-70910000D01*
X47220000Y-75150000D02*
X46725000Y-74655000D01*
X47220000Y-76200000D02*
X47220000Y-75150000D01*
X50094680Y-54511390D02*
X50094680Y-53433760D01*
X50094680Y-55965320D02*
X50094680Y-54511390D01*
X43475000Y-63710000D02*
X43475000Y-62585000D01*
X75930000Y-60960000D02*
X77470000Y-60960000D01*
X70745000Y-55775000D02*
X75930000Y-60960000D01*
X52705000Y-66675000D02*
X57785000Y-66675000D01*
X52705000Y-66675000D02*
X45720000Y-66675000D01*
X39370000Y-66675000D02*
X43815000Y-66675000D01*
X43815000Y-66675000D02*
X45720000Y-66675000D01*
X70745000Y-55775000D02*
X70745000Y-55025000D01*
X59845000Y-66675000D02*
X70745000Y-55775000D01*
X57785000Y-66675000D02*
X59845000Y-66675000D01*
X57785000Y-107950000D02*
X58420000Y-108585000D01*
X57785000Y-103505000D02*
X57785000Y-107950000D01*
X47220000Y-76200000D02*
X47220000Y-97385000D01*
X47220000Y-97385000D02*
X47625000Y-97790000D01*
X44435000Y-61595000D02*
X44450000Y-61610000D01*
X43180000Y-61595000D02*
X44435000Y-61595000D01*
X43475000Y-62585000D02*
X44450000Y-61610000D01*
X44450000Y-61610000D02*
X50094680Y-55965320D01*
X45520000Y-68580000D02*
X44450000Y-68580000D01*
X46725000Y-70910000D02*
X46725000Y-69785000D01*
X46725000Y-69785000D02*
X45520000Y-68580000D01*
X41064000Y-117729000D02*
X42164000Y-117729000D01*
X40640000Y-117305000D02*
X41064000Y-117729000D01*
X40640000Y-104902000D02*
X40640000Y-117305000D01*
X40640000Y-96647000D02*
X42418000Y-94869000D01*
X40640000Y-104902000D02*
X40640000Y-96647000D01*
G04 #@! TO.N,+12P*
X74075000Y-55025000D02*
X75325000Y-55025000D01*
X71999999Y-52949999D02*
X74075000Y-55025000D01*
X67480001Y-52949999D02*
X71999999Y-52949999D01*
X67090000Y-53340000D02*
X67480001Y-52949999D01*
X66040000Y-53340000D02*
X67090000Y-53340000D01*
D32*
X76925000Y-55025000D02*
X75325000Y-55025000D01*
X78606241Y-56706241D02*
X76925000Y-55025000D01*
X81985319Y-56706241D02*
X78606241Y-56706241D01*
X83485320Y-55206240D02*
X81985319Y-56706241D01*
X84585320Y-55206240D02*
X83485320Y-55206240D01*
D31*
G04 #@! TO.N,Net-(C6-Pad1)*
X41525000Y-57475000D02*
X41525000Y-63710000D01*
X41910000Y-57090000D02*
X41525000Y-57475000D01*
X41910000Y-56340000D02*
X41910000Y-57090000D01*
G04 #@! TO.N,RST*
X57244999Y-109949999D02*
X55970001Y-108675001D01*
X55970001Y-108675001D02*
X55970001Y-101251999D01*
X63500000Y-111125000D02*
X62324999Y-109949999D01*
X62324999Y-109949999D02*
X57244999Y-109949999D01*
X55970001Y-101251999D02*
X55138004Y-100420002D01*
X41205685Y-93345000D02*
X40640000Y-93345000D01*
X41967004Y-93345000D02*
X41205685Y-93345000D01*
X43143002Y-94520998D02*
X41967004Y-93345000D01*
X43143002Y-95848002D02*
X43143002Y-94520998D01*
X47715002Y-100420002D02*
X43143002Y-95848002D01*
X55138004Y-100420002D02*
X47715002Y-100420002D01*
D32*
G04 #@! TO.N,+12V*
X84585320Y-46206240D02*
X84585320Y-45706240D01*
X86545320Y-48166240D02*
X84585320Y-46206240D01*
X92145320Y-48166240D02*
X86545320Y-48166240D01*
D33*
X92145320Y-66396240D02*
X92145320Y-72296240D01*
X99060000Y-59481560D02*
X92145320Y-66396240D01*
X99060000Y-48280920D02*
X99060000Y-59481560D01*
X92145320Y-48166240D02*
X98945320Y-48166240D01*
X98945320Y-48166240D02*
X99060000Y-48280920D01*
D31*
G04 #@! TO.N,Net-(J1-Pad2)*
X40784999Y-55579999D02*
X41119998Y-55245000D01*
X40784999Y-62494999D02*
X40784999Y-55579999D01*
X40875000Y-62585000D02*
X40784999Y-62494999D01*
X40875000Y-63710000D02*
X40875000Y-62585000D01*
X41119998Y-55245000D02*
X44450000Y-55245000D01*
X47714239Y-51980761D02*
X49007679Y-51980761D01*
X44450000Y-55245000D02*
X47714239Y-51980761D01*
X49007679Y-51980761D02*
X50094680Y-50893760D01*
G04 #@! TO.N,Net-(J1-Pad3)*
X40225000Y-55503587D02*
X40225000Y-63710000D01*
X40933598Y-54794989D02*
X40225000Y-55503587D01*
X44194471Y-54794989D02*
X40933598Y-54794989D01*
X48095700Y-50893760D02*
X44194471Y-54794989D01*
G04 #@! TO.N,Net-(J2-Pad3)*
X74616429Y-31944429D02*
X75692000Y-33020000D01*
X73143725Y-31944429D02*
X74616429Y-31944429D01*
X72390000Y-32698154D02*
X73143725Y-31944429D01*
X72390000Y-37465000D02*
X72390000Y-32698154D01*
G04 #@! TO.N,Net-(J2-Pad5)*
X81847571Y-35314275D02*
X74616846Y-42545000D01*
X81847571Y-33519725D02*
X81847571Y-35314275D01*
X80272275Y-31944429D02*
X81847571Y-33519725D01*
X78799571Y-31944429D02*
X80272275Y-31944429D01*
X77724000Y-33020000D02*
X78799571Y-31944429D01*
X74616846Y-42545000D02*
X68580000Y-42545000D01*
X68580000Y-42545000D02*
X56515000Y-54610000D01*
X56515000Y-54610000D02*
X56515000Y-58420000D01*
G04 #@! TO.N,Net-(J2-Pad6)*
X78740000Y-35859466D02*
X78740000Y-34798000D01*
X72504477Y-42094989D02*
X78740000Y-35859466D01*
X68141011Y-42094989D02*
X68580000Y-42094989D01*
X54610000Y-55626000D02*
X68141011Y-42094989D01*
X54610000Y-58420000D02*
X54610000Y-55626000D01*
X72504477Y-42094989D02*
X68580000Y-42094989D01*
X68580000Y-42094989D02*
X68393600Y-42094989D01*
G04 #@! TO.N,Net-(J3-Pad3)*
X53458725Y-31944429D02*
X52705000Y-32698154D01*
X56007000Y-33020000D02*
X54931429Y-31944429D01*
X54931429Y-31944429D02*
X53458725Y-31944429D01*
X52705000Y-34103846D02*
X55880000Y-37278846D01*
X52705000Y-32698154D02*
X52705000Y-34103846D01*
X55880000Y-37278846D02*
X55880000Y-40640000D01*
X55880000Y-40640000D02*
X57785000Y-42545000D01*
G04 #@! TO.N,MISO*
X68580000Y-111125000D02*
X67404999Y-112300001D01*
X65475999Y-112300001D02*
X64864999Y-111689001D01*
X64864999Y-111689001D02*
X64864999Y-110586409D01*
X64864999Y-110586409D02*
X64038591Y-109760001D01*
X64038591Y-109760001D02*
X62935999Y-109760001D01*
X62935999Y-109760001D02*
X62324999Y-109149001D01*
X62324999Y-109149001D02*
X62324999Y-106774999D01*
X62324999Y-106774999D02*
X58510001Y-102960001D01*
X58510001Y-102960001D02*
X58510001Y-102521999D01*
X58510001Y-102521999D02*
X57988001Y-101999999D01*
X57988001Y-101999999D02*
X57549999Y-101999999D01*
X67404999Y-112300001D02*
X65475999Y-112300001D01*
X57150000Y-101600000D02*
X57059990Y-101600000D01*
X57549999Y-101999999D02*
X57150000Y-101600000D01*
G04 #@! TO.N,SCK*
X56349002Y-99695000D02*
X55245000Y-99695000D01*
X64675001Y-108020999D02*
X56349002Y-99695000D01*
X64675001Y-109760001D02*
X64675001Y-108020999D01*
X66040000Y-111125000D02*
X64675001Y-109760001D01*
G04 #@! TO.N,MOSI*
X55245000Y-109050000D02*
X55245000Y-101600000D01*
X58420000Y-111125000D02*
X57320000Y-111125000D01*
X57320000Y-111125000D02*
X55245000Y-109050000D01*
D34*
G04 #@! TO.N,/mosfet_LED6*
X84525320Y-77376240D02*
X92145320Y-77376240D01*
G04 #@! TO.N,/mosfet_LED5*
X84525320Y-82456240D02*
X92145320Y-82456240D01*
G04 #@! TO.N,/mosfet_LED4*
X84525320Y-87536240D02*
X92145320Y-87536240D01*
G04 #@! TO.N,/mosfet_LED3*
X84525320Y-92616240D02*
X92145320Y-92616240D01*
G04 #@! TO.N,/mosfet_LED2*
X84525320Y-97696240D02*
X92145320Y-97696240D01*
G04 #@! TO.N,/mosfet_LED1*
X84525320Y-102776240D02*
X92145320Y-102776240D01*
D31*
G04 #@! TO.N,RXD*
X46075000Y-96875000D02*
X46355000Y-97155000D01*
X46075000Y-70910000D02*
X46075000Y-96875000D01*
G04 #@! TO.N,TXD*
X48895000Y-95885000D02*
X48895000Y-90805000D01*
X47719999Y-84521001D02*
X48675000Y-83566000D01*
X47719999Y-89629999D02*
X47719999Y-84521001D01*
X48895000Y-90805000D02*
X47719999Y-89629999D01*
X48675000Y-70910000D02*
X48675000Y-83566000D01*
D32*
G04 #@! TO.N,GNDA*
X79385320Y-46206240D02*
X79385320Y-45706240D01*
X86425320Y-53246240D02*
X79385320Y-46206240D01*
X92145320Y-53246240D02*
X86425320Y-53246240D01*
D35*
X79445320Y-102776240D02*
X79445320Y-97696240D01*
X79445320Y-97696240D02*
X79445320Y-92616240D01*
X79445320Y-92616240D02*
X79445320Y-77376240D01*
X91385320Y-53246240D02*
X92145320Y-53246240D01*
X79445320Y-65186240D02*
X91385320Y-53246240D01*
X79445320Y-77376240D02*
X79445320Y-65186240D01*
D31*
G04 #@! TO.N,+12P*
X83835320Y-55206240D02*
X84585320Y-55206240D01*
D36*
X83566000Y-55475560D02*
X83835320Y-55206240D01*
X83566000Y-57150000D02*
X83566000Y-55475560D01*
G04 #@! TD*
D37*
G04 #@! TO.N,GND*
G36*
X101500001Y-46289789D02*
X101320209Y-46020711D01*
X101251463Y-45974777D01*
X101205529Y-45906031D01*
X100168536Y-45213135D01*
X99254089Y-45031240D01*
X99254088Y-45031240D01*
X98945320Y-44969822D01*
X98636552Y-45031240D01*
X91836551Y-45031240D01*
X90922104Y-45213135D01*
X89885111Y-45906031D01*
X89192215Y-46943024D01*
X89134885Y-47231240D01*
X86932609Y-47231240D01*
X85732760Y-46031391D01*
X85732760Y-44706240D01*
X85683477Y-44458475D01*
X85543129Y-44248431D01*
X85333085Y-44108083D01*
X85085320Y-44058800D01*
X84085320Y-44058800D01*
X83837555Y-44108083D01*
X83627511Y-44248431D01*
X83487163Y-44458475D01*
X83437880Y-44706240D01*
X83437880Y-46706240D01*
X83487163Y-46954005D01*
X83627511Y-47164049D01*
X83837555Y-47304397D01*
X84085320Y-47353680D01*
X84410471Y-47353680D01*
X85819059Y-48762268D01*
X85871223Y-48840337D01*
X86180501Y-49046990D01*
X86545320Y-49119557D01*
X86637406Y-49101240D01*
X89134885Y-49101240D01*
X89192215Y-49389456D01*
X89885111Y-50426449D01*
X90922104Y-51119345D01*
X91836551Y-51301240D01*
X95925000Y-51301240D01*
X95925001Y-58182999D01*
X90608001Y-63500000D01*
X83797352Y-63500000D01*
X92166113Y-55131240D01*
X92330975Y-55131240D01*
X92880810Y-55021871D01*
X93012797Y-54933680D01*
X93945320Y-54933680D01*
X94193085Y-54884397D01*
X94403129Y-54744049D01*
X94543477Y-54534005D01*
X94592760Y-54286240D01*
X94592760Y-52206240D01*
X94543477Y-51958475D01*
X94403129Y-51748431D01*
X94193085Y-51608083D01*
X93945320Y-51558800D01*
X93012797Y-51558800D01*
X92880810Y-51470609D01*
X92330975Y-51361240D01*
X91570973Y-51361240D01*
X91385320Y-51324311D01*
X91199666Y-51361240D01*
X91199665Y-51361240D01*
X90649830Y-51470609D01*
X90517843Y-51558800D01*
X90345320Y-51558800D01*
X90097555Y-51608083D01*
X89887511Y-51748431D01*
X89747163Y-51958475D01*
X89697880Y-52206240D01*
X89697880Y-52267887D01*
X89654527Y-52311240D01*
X86812610Y-52311240D01*
X80532760Y-46031391D01*
X80532760Y-44706240D01*
X80483477Y-44458475D01*
X80343129Y-44248431D01*
X80133085Y-44108083D01*
X79885320Y-44058800D01*
X78885320Y-44058800D01*
X78637555Y-44108083D01*
X78427511Y-44248431D01*
X78287163Y-44458475D01*
X78237880Y-44706240D01*
X78237880Y-46706240D01*
X78287163Y-46954005D01*
X78427511Y-47164049D01*
X78637555Y-47304397D01*
X78885320Y-47353680D01*
X79210471Y-47353680D01*
X85699061Y-53842271D01*
X85751223Y-53920337D01*
X86060501Y-54126990D01*
X86333234Y-54181240D01*
X86333238Y-54181240D01*
X86425319Y-54199556D01*
X86517400Y-54181240D01*
X87784527Y-54181240D01*
X85726114Y-56239654D01*
X85732760Y-56206240D01*
X85732760Y-54206240D01*
X85683477Y-53958475D01*
X85543129Y-53748431D01*
X85333085Y-53608083D01*
X85085320Y-53558800D01*
X84085320Y-53558800D01*
X83837555Y-53608083D01*
X83627511Y-53748431D01*
X83487163Y-53958475D01*
X83454071Y-54124840D01*
X83392466Y-54137094D01*
X83111797Y-54324632D01*
X83091684Y-54344745D01*
X82811223Y-54532143D01*
X82759061Y-54610209D01*
X81598030Y-55771241D01*
X80520320Y-55771241D01*
X80520320Y-55491990D01*
X80361570Y-55333240D01*
X79512320Y-55333240D01*
X79512320Y-55353240D01*
X79258320Y-55353240D01*
X79258320Y-55333240D01*
X79238320Y-55333240D01*
X79238320Y-55079240D01*
X79258320Y-55079240D01*
X79258320Y-53729990D01*
X79512320Y-53729990D01*
X79512320Y-55079240D01*
X80361570Y-55079240D01*
X80520320Y-54920490D01*
X80520320Y-54079931D01*
X80423647Y-53846542D01*
X80245019Y-53667913D01*
X80011630Y-53571240D01*
X79671070Y-53571240D01*
X79512320Y-53729990D01*
X79258320Y-53729990D01*
X79099570Y-53571240D01*
X78759010Y-53571240D01*
X78525621Y-53667913D01*
X78346993Y-53846542D01*
X78250320Y-54079931D01*
X78250320Y-54920490D01*
X78409068Y-55079238D01*
X78301528Y-55079238D01*
X77651261Y-54428972D01*
X77599097Y-54350903D01*
X77289819Y-54144250D01*
X77017086Y-54090000D01*
X76972440Y-54081119D01*
X76972440Y-53275000D01*
X76923157Y-53027235D01*
X76782809Y-52817191D01*
X76572765Y-52676843D01*
X76325000Y-52627560D01*
X74325000Y-52627560D01*
X74077235Y-52676843D01*
X73867191Y-52817191D01*
X73726843Y-53027235D01*
X73677560Y-53275000D01*
X73677560Y-53552758D01*
X72590330Y-52465529D01*
X72547928Y-52402070D01*
X72296536Y-52234095D01*
X72074851Y-52189999D01*
X72074846Y-52189999D01*
X71999999Y-52175111D01*
X71925152Y-52189999D01*
X67554849Y-52189999D01*
X67480001Y-52175111D01*
X67405153Y-52189999D01*
X67405149Y-52189999D01*
X67231606Y-52224519D01*
X67183463Y-52234095D01*
X67129816Y-52269941D01*
X67087765Y-52241843D01*
X66840000Y-52192560D01*
X65240000Y-52192560D01*
X64992235Y-52241843D01*
X64782191Y-52382191D01*
X64641843Y-52592235D01*
X64592560Y-52840000D01*
X64592560Y-53840000D01*
X64641843Y-54087765D01*
X64782191Y-54297809D01*
X64992235Y-54438157D01*
X65240000Y-54487440D01*
X66840000Y-54487440D01*
X67087765Y-54438157D01*
X67297809Y-54297809D01*
X67438157Y-54087765D01*
X67453378Y-54011242D01*
X67637929Y-53887929D01*
X67680331Y-53824470D01*
X67794802Y-53709999D01*
X69097560Y-53709999D01*
X69097560Y-56347638D01*
X59530199Y-65915000D01*
X58488711Y-65915000D01*
X58371280Y-65797569D01*
X57990874Y-65640000D01*
X57579126Y-65640000D01*
X57198720Y-65797569D01*
X57081289Y-65915000D01*
X53408711Y-65915000D01*
X53291280Y-65797569D01*
X52910874Y-65640000D01*
X52499126Y-65640000D01*
X52118720Y-65797569D01*
X52001289Y-65915000D01*
X46423711Y-65915000D01*
X46306280Y-65797569D01*
X45925874Y-65640000D01*
X45514126Y-65640000D01*
X45133720Y-65797569D01*
X45016289Y-65915000D01*
X40073711Y-65915000D01*
X39956280Y-65797569D01*
X39575874Y-65640000D01*
X39164126Y-65640000D01*
X38783720Y-65797569D01*
X38492569Y-66088720D01*
X38335000Y-66469126D01*
X38335000Y-66880874D01*
X38492569Y-67261280D01*
X38783720Y-67552431D01*
X39164126Y-67710000D01*
X39575874Y-67710000D01*
X39956280Y-67552431D01*
X40073711Y-67435000D01*
X45016289Y-67435000D01*
X45133720Y-67552431D01*
X45514126Y-67710000D01*
X45925874Y-67710000D01*
X46306280Y-67552431D01*
X46423711Y-67435000D01*
X52001289Y-67435000D01*
X52118720Y-67552431D01*
X52499126Y-67710000D01*
X52910874Y-67710000D01*
X53291280Y-67552431D01*
X53408711Y-67435000D01*
X57081289Y-67435000D01*
X57198720Y-67552431D01*
X57579126Y-67710000D01*
X57990874Y-67710000D01*
X58371280Y-67552431D01*
X58488711Y-67435000D01*
X59770153Y-67435000D01*
X59845000Y-67449888D01*
X59919847Y-67435000D01*
X59919852Y-67435000D01*
X60141537Y-67390904D01*
X60392929Y-67222929D01*
X60435331Y-67159470D01*
X70172362Y-57422440D01*
X71317639Y-57422440D01*
X75339673Y-61444476D01*
X75382071Y-61507929D01*
X75445524Y-61550327D01*
X75445526Y-61550329D01*
X75534829Y-61609999D01*
X75633463Y-61675904D01*
X75855148Y-61720000D01*
X75855152Y-61720000D01*
X75929999Y-61734888D01*
X76004846Y-61720000D01*
X76766289Y-61720000D01*
X76883720Y-61837431D01*
X77264126Y-61995000D01*
X77675874Y-61995000D01*
X78056280Y-61837431D01*
X78347431Y-61546280D01*
X78505000Y-61165874D01*
X78505000Y-60754126D01*
X78347431Y-60373720D01*
X78056280Y-60082569D01*
X77675874Y-59925000D01*
X77264126Y-59925000D01*
X76883720Y-60082569D01*
X76766289Y-60200000D01*
X76244803Y-60200000D01*
X72392440Y-56347639D01*
X72392440Y-54417241D01*
X73484671Y-55509473D01*
X73527071Y-55572929D01*
X73677560Y-55673483D01*
X73677560Y-56775000D01*
X73726843Y-57022765D01*
X73867191Y-57232809D01*
X74077235Y-57373157D01*
X74325000Y-57422440D01*
X76325000Y-57422440D01*
X76572765Y-57373157D01*
X76782809Y-57232809D01*
X76923157Y-57022765D01*
X76972440Y-56775000D01*
X76972440Y-56394729D01*
X77879982Y-57302272D01*
X77932144Y-57380338D01*
X78241422Y-57586991D01*
X78497505Y-57637929D01*
X78606241Y-57659558D01*
X78698327Y-57641241D01*
X81893233Y-57641241D01*
X81985319Y-57659558D01*
X82077405Y-57641241D01*
X82350138Y-57586991D01*
X82478612Y-57501147D01*
X82496854Y-57592854D01*
X82747711Y-57968289D01*
X83123145Y-58219146D01*
X83566000Y-58307235D01*
X83681509Y-58284259D01*
X78465768Y-63500000D01*
X75311000Y-63500000D01*
X75262399Y-63509667D01*
X75221197Y-63537197D01*
X75193667Y-63578399D01*
X75184000Y-63627000D01*
X75184000Y-114808000D01*
X41400000Y-114808000D01*
X41400000Y-105605711D01*
X41517431Y-105488280D01*
X41675000Y-105107874D01*
X41675000Y-104696126D01*
X41517431Y-104315720D01*
X41400000Y-104198289D01*
X41400000Y-96961801D01*
X42392284Y-95969518D01*
X42427098Y-96144538D01*
X42595073Y-96395931D01*
X42658532Y-96438333D01*
X47124675Y-100904478D01*
X47167073Y-100967931D01*
X47230526Y-101010329D01*
X47230528Y-101010331D01*
X47292997Y-101052071D01*
X47418465Y-101135906D01*
X47640150Y-101180002D01*
X47640154Y-101180002D01*
X47715001Y-101194890D01*
X47789848Y-101180002D01*
X54298693Y-101180002D01*
X54210000Y-101394126D01*
X54210000Y-101805874D01*
X54367569Y-102186280D01*
X54485001Y-102303712D01*
X54485000Y-108975153D01*
X54470112Y-109050000D01*
X54485000Y-109124847D01*
X54485000Y-109124851D01*
X54529096Y-109346536D01*
X54697071Y-109597929D01*
X54760530Y-109640331D01*
X56729671Y-111609473D01*
X56772071Y-111672929D01*
X56922560Y-111773483D01*
X56922560Y-111975000D01*
X56971843Y-112222765D01*
X57112191Y-112432809D01*
X57322235Y-112573157D01*
X57570000Y-112622440D01*
X59270000Y-112622440D01*
X59517765Y-112573157D01*
X59727809Y-112432809D01*
X59868157Y-112222765D01*
X59888739Y-112119292D01*
X60193076Y-112396645D01*
X60603110Y-112566476D01*
X60833000Y-112445155D01*
X60833000Y-111252000D01*
X60813000Y-111252000D01*
X60813000Y-110998000D01*
X60833000Y-110998000D01*
X60833000Y-110978000D01*
X61087000Y-110978000D01*
X61087000Y-110998000D01*
X61107000Y-110998000D01*
X61107000Y-111252000D01*
X61087000Y-111252000D01*
X61087000Y-112445155D01*
X61316890Y-112566476D01*
X61726924Y-112396645D01*
X62155183Y-112006358D01*
X62216157Y-111876522D01*
X62429375Y-112195625D01*
X62920582Y-112523839D01*
X63353744Y-112610000D01*
X63646256Y-112610000D01*
X64079418Y-112523839D01*
X64406492Y-112305295D01*
X64885671Y-112784476D01*
X64928070Y-112847930D01*
X64991523Y-112890328D01*
X64991525Y-112890330D01*
X65116901Y-112974103D01*
X65179462Y-113015905D01*
X65401147Y-113060001D01*
X65401151Y-113060001D01*
X65475998Y-113074889D01*
X65550845Y-113060001D01*
X67330152Y-113060001D01*
X67404999Y-113074889D01*
X67479846Y-113060001D01*
X67479851Y-113060001D01*
X67701536Y-113015905D01*
X67952928Y-112847930D01*
X67995330Y-112784471D01*
X68213592Y-112566209D01*
X68433744Y-112610000D01*
X68726256Y-112610000D01*
X69159418Y-112523839D01*
X69650625Y-112195625D01*
X69978839Y-111704418D01*
X70094092Y-111125000D01*
X69978839Y-110545582D01*
X69650625Y-110054375D01*
X69350214Y-109853647D01*
X69775183Y-109466358D01*
X70021486Y-108941892D01*
X69900819Y-108712000D01*
X68707000Y-108712000D01*
X68707000Y-108732000D01*
X68453000Y-108732000D01*
X68453000Y-108712000D01*
X66167000Y-108712000D01*
X66167000Y-108732000D01*
X65913000Y-108732000D01*
X65913000Y-108712000D01*
X65893000Y-108712000D01*
X65893000Y-108458000D01*
X65913000Y-108458000D01*
X65913000Y-107264845D01*
X66167000Y-107264845D01*
X66167000Y-108458000D01*
X68453000Y-108458000D01*
X68453000Y-107264845D01*
X68707000Y-107264845D01*
X68707000Y-108458000D01*
X69900819Y-108458000D01*
X70021486Y-108228108D01*
X69775183Y-107703642D01*
X69346924Y-107313355D01*
X68936890Y-107143524D01*
X68707000Y-107264845D01*
X68453000Y-107264845D01*
X68223110Y-107143524D01*
X67813076Y-107313355D01*
X67384817Y-107703642D01*
X67310000Y-107862954D01*
X67235183Y-107703642D01*
X66806924Y-107313355D01*
X66396890Y-107143524D01*
X66167000Y-107264845D01*
X65913000Y-107264845D01*
X65683110Y-107143524D01*
X65273076Y-107313355D01*
X65152261Y-107423457D01*
X56939333Y-99210530D01*
X56896931Y-99147071D01*
X56645539Y-98979096D01*
X56423854Y-98935000D01*
X56423849Y-98935000D01*
X56349002Y-98920112D01*
X56274155Y-98935000D01*
X55948711Y-98935000D01*
X55831280Y-98817569D01*
X55450874Y-98660000D01*
X55039126Y-98660000D01*
X54658720Y-98817569D01*
X54367569Y-99108720D01*
X54210000Y-99489126D01*
X54210000Y-99660002D01*
X48029805Y-99660002D01*
X46559802Y-98190000D01*
X46560874Y-98190000D01*
X46654368Y-98151273D01*
X46747569Y-98376280D01*
X47038720Y-98667431D01*
X47419126Y-98825000D01*
X47830874Y-98825000D01*
X48211280Y-98667431D01*
X48502431Y-98376280D01*
X48660000Y-97995874D01*
X48660000Y-97584126D01*
X48502431Y-97203720D01*
X48211280Y-96912569D01*
X47980000Y-96816770D01*
X47980000Y-96380580D01*
X48017569Y-96471280D01*
X48308720Y-96762431D01*
X48689126Y-96920000D01*
X49100874Y-96920000D01*
X49481280Y-96762431D01*
X49772431Y-96471280D01*
X49930000Y-96090874D01*
X49930000Y-95679126D01*
X49772431Y-95298720D01*
X49655000Y-95181289D01*
X49655000Y-90879846D01*
X49669888Y-90804999D01*
X49655000Y-90730152D01*
X49655000Y-90730148D01*
X49610904Y-90508463D01*
X49569102Y-90445902D01*
X49485329Y-90320526D01*
X49485327Y-90320524D01*
X49442929Y-90257071D01*
X49379476Y-90214673D01*
X48479999Y-89315198D01*
X48479999Y-88426543D01*
X48748744Y-88480000D01*
X49041256Y-88480000D01*
X49474418Y-88393839D01*
X49965625Y-88065625D01*
X50165000Y-87767239D01*
X50364375Y-88065625D01*
X50855582Y-88393839D01*
X51288744Y-88480000D01*
X51581256Y-88480000D01*
X52014418Y-88393839D01*
X52505625Y-88065625D01*
X52705000Y-87767239D01*
X52904375Y-88065625D01*
X53395582Y-88393839D01*
X53828744Y-88480000D01*
X54121256Y-88480000D01*
X54554418Y-88393839D01*
X55045625Y-88065625D01*
X55258843Y-87746522D01*
X55319817Y-87876358D01*
X55748076Y-88266645D01*
X56158110Y-88436476D01*
X56388000Y-88315155D01*
X56388000Y-87122000D01*
X56368000Y-87122000D01*
X56368000Y-86868000D01*
X56388000Y-86868000D01*
X56388000Y-85674845D01*
X56642000Y-85674845D01*
X56642000Y-86868000D01*
X56662000Y-86868000D01*
X56662000Y-87122000D01*
X56642000Y-87122000D01*
X56642000Y-88315155D01*
X56871890Y-88436476D01*
X57281924Y-88266645D01*
X57586261Y-87989292D01*
X57606843Y-88092765D01*
X57747191Y-88302809D01*
X57957235Y-88443157D01*
X58205000Y-88492440D01*
X59905000Y-88492440D01*
X60152765Y-88443157D01*
X60362809Y-88302809D01*
X60503157Y-88092765D01*
X60552440Y-87845000D01*
X60552440Y-86145000D01*
X60503157Y-85897235D01*
X60362809Y-85687191D01*
X60152765Y-85546843D01*
X59905000Y-85497560D01*
X58205000Y-85497560D01*
X57957235Y-85546843D01*
X57747191Y-85687191D01*
X57606843Y-85897235D01*
X57586261Y-86000708D01*
X57281924Y-85723355D01*
X56871890Y-85553524D01*
X56642000Y-85674845D01*
X56388000Y-85674845D01*
X56158110Y-85553524D01*
X55748076Y-85723355D01*
X55319817Y-86113642D01*
X55258843Y-86243478D01*
X55045625Y-85924375D01*
X54554418Y-85596161D01*
X54121256Y-85510000D01*
X53828744Y-85510000D01*
X53395582Y-85596161D01*
X52904375Y-85924375D01*
X52705000Y-86222761D01*
X52505625Y-85924375D01*
X52014418Y-85596161D01*
X51581256Y-85510000D01*
X51288744Y-85510000D01*
X50855582Y-85596161D01*
X50364375Y-85924375D01*
X50165000Y-86222761D01*
X49965625Y-85924375D01*
X49474418Y-85596161D01*
X49041256Y-85510000D01*
X48748744Y-85510000D01*
X48479999Y-85563457D01*
X48479999Y-84835803D01*
X49159475Y-84156327D01*
X49222929Y-84113929D01*
X49265327Y-84050476D01*
X49265329Y-84050474D01*
X49390903Y-83862538D01*
X49390904Y-83862537D01*
X49435000Y-83640852D01*
X49435000Y-83640848D01*
X49449888Y-83566001D01*
X49435000Y-83491154D01*
X49435000Y-72127285D01*
X49498157Y-72032765D01*
X49547440Y-71785000D01*
X49547440Y-70035000D01*
X49498157Y-69787235D01*
X49357809Y-69577191D01*
X49147765Y-69436843D01*
X48900000Y-69387560D01*
X48450000Y-69387560D01*
X48350000Y-69407451D01*
X48250000Y-69387560D01*
X47800000Y-69387560D01*
X47700000Y-69407451D01*
X47600000Y-69387560D01*
X47373483Y-69387560D01*
X47347948Y-69349344D01*
X47315329Y-69300526D01*
X47315327Y-69300524D01*
X47272929Y-69237071D01*
X47209476Y-69194673D01*
X46110331Y-68095530D01*
X46067929Y-68032071D01*
X45816537Y-67864096D01*
X45594852Y-67820000D01*
X45594847Y-67820000D01*
X45520000Y-67805112D01*
X45445153Y-67820000D01*
X45153711Y-67820000D01*
X45036280Y-67702569D01*
X44655874Y-67545000D01*
X44244126Y-67545000D01*
X43863720Y-67702569D01*
X43572569Y-67993720D01*
X43415000Y-68374126D01*
X43415000Y-68785874D01*
X43572569Y-69166280D01*
X43811460Y-69405171D01*
X43800000Y-69407451D01*
X43700000Y-69387560D01*
X43250000Y-69387560D01*
X43150000Y-69407451D01*
X43050000Y-69387560D01*
X42600000Y-69387560D01*
X42500000Y-69407451D01*
X42400000Y-69387560D01*
X41950000Y-69387560D01*
X41850000Y-69407451D01*
X41750000Y-69387560D01*
X41300000Y-69387560D01*
X41200000Y-69407451D01*
X41100000Y-69387560D01*
X40650000Y-69387560D01*
X40550000Y-69407451D01*
X40450000Y-69387560D01*
X40000000Y-69387560D01*
X39752235Y-69436843D01*
X39542191Y-69577191D01*
X39401843Y-69787235D01*
X39352560Y-70035000D01*
X39352560Y-71785000D01*
X39401843Y-72032765D01*
X39542191Y-72242809D01*
X39752235Y-72383157D01*
X40000000Y-72432440D01*
X40450000Y-72432440D01*
X40550000Y-72412549D01*
X40650000Y-72432440D01*
X41100000Y-72432440D01*
X41200000Y-72412549D01*
X41300000Y-72432440D01*
X41750000Y-72432440D01*
X41850000Y-72412549D01*
X41950000Y-72432440D01*
X42400000Y-72432440D01*
X42500000Y-72412549D01*
X42600000Y-72432440D01*
X43050000Y-72432440D01*
X43150000Y-72412549D01*
X43250000Y-72432440D01*
X43700000Y-72432440D01*
X43800000Y-72412549D01*
X43900000Y-72432440D01*
X44350000Y-72432440D01*
X44420073Y-72418502D01*
X44423690Y-72420000D01*
X44503750Y-72420000D01*
X44526397Y-72397353D01*
X44597765Y-72383157D01*
X44775000Y-72264731D01*
X44952235Y-72383157D01*
X45023603Y-72397353D01*
X45046250Y-72420000D01*
X45126310Y-72420000D01*
X45129927Y-72418502D01*
X45200000Y-72432440D01*
X45315000Y-72432440D01*
X45315000Y-75177122D01*
X45258327Y-75040301D01*
X45079698Y-74861673D01*
X44846309Y-74765000D01*
X44505750Y-74765000D01*
X44347000Y-74923750D01*
X44347000Y-76073000D01*
X44367000Y-76073000D01*
X44367000Y-76327000D01*
X44347000Y-76327000D01*
X44347000Y-77476250D01*
X44505750Y-77635000D01*
X44846309Y-77635000D01*
X45079698Y-77538327D01*
X45258327Y-77359699D01*
X45315000Y-77222878D01*
X45315001Y-96800148D01*
X45300112Y-96875000D01*
X45313846Y-96944044D01*
X43903002Y-95533201D01*
X43903002Y-94595844D01*
X43917890Y-94520997D01*
X43903002Y-94446150D01*
X43903002Y-94446146D01*
X43858906Y-94224461D01*
X43779085Y-94105000D01*
X43733331Y-94036524D01*
X43733329Y-94036522D01*
X43690931Y-93973069D01*
X43627478Y-93930671D01*
X42557335Y-92860530D01*
X42514933Y-92797071D01*
X42263541Y-92629096D01*
X42041856Y-92585000D01*
X42041851Y-92585000D01*
X41967004Y-92570112D01*
X41892157Y-92585000D01*
X41343711Y-92585000D01*
X41226280Y-92467569D01*
X40845874Y-92310000D01*
X40434126Y-92310000D01*
X40053720Y-92467569D01*
X39762569Y-92758720D01*
X39605000Y-93139126D01*
X39605000Y-93550874D01*
X39762569Y-93931280D01*
X40053720Y-94222431D01*
X40434126Y-94380000D01*
X40845874Y-94380000D01*
X41226280Y-94222431D01*
X41343711Y-94105000D01*
X41652203Y-94105000D01*
X41685246Y-94138043D01*
X41540569Y-94282720D01*
X41383000Y-94663126D01*
X41383000Y-94829198D01*
X40155528Y-96056671D01*
X40092072Y-96099071D01*
X40049672Y-96162527D01*
X40049671Y-96162528D01*
X39924097Y-96350463D01*
X39865112Y-96647000D01*
X39880001Y-96721852D01*
X39880000Y-104198289D01*
X39762569Y-104315720D01*
X39605000Y-104696126D01*
X39605000Y-105107874D01*
X39762569Y-105488280D01*
X39880000Y-105605711D01*
X39880001Y-114808000D01*
X35660000Y-114808000D01*
X35660000Y-76485750D01*
X43085000Y-76485750D01*
X43085000Y-77126310D01*
X43181673Y-77359699D01*
X43360302Y-77538327D01*
X43593691Y-77635000D01*
X43934250Y-77635000D01*
X44093000Y-77476250D01*
X44093000Y-76327000D01*
X43243750Y-76327000D01*
X43085000Y-76485750D01*
X35660000Y-76485750D01*
X35660000Y-75273690D01*
X43085000Y-75273690D01*
X43085000Y-75914250D01*
X43243750Y-76073000D01*
X44093000Y-76073000D01*
X44093000Y-74923750D01*
X43934250Y-74765000D01*
X43593691Y-74765000D01*
X43360302Y-74861673D01*
X43181673Y-75040301D01*
X43085000Y-75273690D01*
X35660000Y-75273690D01*
X35660000Y-62835000D01*
X39352560Y-62835000D01*
X39352560Y-64585000D01*
X39401843Y-64832765D01*
X39542191Y-65042809D01*
X39752235Y-65183157D01*
X40000000Y-65232440D01*
X40450000Y-65232440D01*
X40550000Y-65212549D01*
X40650000Y-65232440D01*
X41100000Y-65232440D01*
X41200000Y-65212549D01*
X41300000Y-65232440D01*
X41750000Y-65232440D01*
X41820073Y-65218502D01*
X41823690Y-65220000D01*
X41903750Y-65220000D01*
X41926397Y-65197353D01*
X41997765Y-65183157D01*
X42175000Y-65064731D01*
X42352235Y-65183157D01*
X42423603Y-65197353D01*
X42446250Y-65220000D01*
X42526310Y-65220000D01*
X42529927Y-65218502D01*
X42600000Y-65232440D01*
X43050000Y-65232440D01*
X43150000Y-65212549D01*
X43250000Y-65232440D01*
X43700000Y-65232440D01*
X43770073Y-65218502D01*
X43773690Y-65220000D01*
X43853750Y-65220000D01*
X43876397Y-65197353D01*
X43947765Y-65183157D01*
X44125000Y-65064731D01*
X44302235Y-65183157D01*
X44373603Y-65197353D01*
X44396250Y-65220000D01*
X44476310Y-65220000D01*
X44479927Y-65218502D01*
X44550000Y-65232440D01*
X45000000Y-65232440D01*
X45100000Y-65212549D01*
X45200000Y-65232440D01*
X45650000Y-65232440D01*
X45750000Y-65212549D01*
X45850000Y-65232440D01*
X46300000Y-65232440D01*
X46370073Y-65218502D01*
X46373690Y-65220000D01*
X46453750Y-65220000D01*
X46476397Y-65197353D01*
X46547765Y-65183157D01*
X46729020Y-65062045D01*
X46790301Y-65123327D01*
X46976847Y-65200597D01*
X46996250Y-65220000D01*
X47103750Y-65220000D01*
X47123153Y-65200597D01*
X47309699Y-65123327D01*
X47370980Y-65062045D01*
X47552235Y-65183157D01*
X47623603Y-65197353D01*
X47646250Y-65220000D01*
X47726310Y-65220000D01*
X47729927Y-65218502D01*
X47800000Y-65232440D01*
X48250000Y-65232440D01*
X48350000Y-65212549D01*
X48450000Y-65232440D01*
X48900000Y-65232440D01*
X49147765Y-65183157D01*
X49357809Y-65042809D01*
X49498157Y-64832765D01*
X49547440Y-64585000D01*
X49547440Y-62835000D01*
X49498157Y-62587235D01*
X49357809Y-62377191D01*
X49147765Y-62236843D01*
X48900000Y-62187560D01*
X48450000Y-62187560D01*
X48350000Y-62207451D01*
X48250000Y-62187560D01*
X47800000Y-62187560D01*
X47729927Y-62201498D01*
X47726310Y-62200000D01*
X47646250Y-62200000D01*
X47623603Y-62222647D01*
X47552235Y-62236843D01*
X47370980Y-62357955D01*
X47309699Y-62296673D01*
X47123153Y-62219403D01*
X47103750Y-62200000D01*
X46996250Y-62200000D01*
X46976847Y-62219403D01*
X46790301Y-62296673D01*
X46729020Y-62357955D01*
X46547765Y-62236843D01*
X46476397Y-62222647D01*
X46453750Y-62200000D01*
X46373690Y-62200000D01*
X46370073Y-62201498D01*
X46300000Y-62187560D01*
X45850000Y-62187560D01*
X45750000Y-62207451D01*
X45650000Y-62187560D01*
X45200000Y-62187560D01*
X45100000Y-62207451D01*
X45000000Y-62187560D01*
X44953583Y-62187560D01*
X44997929Y-62157929D01*
X45040330Y-62094471D01*
X48920675Y-58214126D01*
X53575000Y-58214126D01*
X53575000Y-58625874D01*
X53732569Y-59006280D01*
X54023720Y-59297431D01*
X54404126Y-59455000D01*
X54815874Y-59455000D01*
X55196280Y-59297431D01*
X55487431Y-59006280D01*
X55562500Y-58825047D01*
X55637569Y-59006280D01*
X55928720Y-59297431D01*
X56309126Y-59455000D01*
X56720874Y-59455000D01*
X57101280Y-59297431D01*
X57392431Y-59006280D01*
X57550000Y-58625874D01*
X57550000Y-58214126D01*
X57392431Y-57833720D01*
X57275000Y-57716289D01*
X57275000Y-54924801D01*
X61574051Y-50625750D01*
X64605000Y-50625750D01*
X64605000Y-50966309D01*
X64701673Y-51199698D01*
X64880301Y-51378327D01*
X65113690Y-51475000D01*
X65754250Y-51475000D01*
X65913000Y-51316250D01*
X65913000Y-50467000D01*
X66167000Y-50467000D01*
X66167000Y-51316250D01*
X66325750Y-51475000D01*
X66966310Y-51475000D01*
X67199699Y-51378327D01*
X67378327Y-51199698D01*
X67475000Y-50966309D01*
X67475000Y-50625750D01*
X67316250Y-50467000D01*
X66167000Y-50467000D01*
X65913000Y-50467000D01*
X64763750Y-50467000D01*
X64605000Y-50625750D01*
X61574051Y-50625750D01*
X62486110Y-49713691D01*
X64605000Y-49713691D01*
X64605000Y-50054250D01*
X64763750Y-50213000D01*
X65913000Y-50213000D01*
X65913000Y-49363750D01*
X66167000Y-49363750D01*
X66167000Y-50213000D01*
X67316250Y-50213000D01*
X67475000Y-50054250D01*
X67475000Y-49713691D01*
X67378327Y-49480302D01*
X67199699Y-49301673D01*
X66966310Y-49205000D01*
X66325750Y-49205000D01*
X66167000Y-49363750D01*
X65913000Y-49363750D01*
X65754250Y-49205000D01*
X65113690Y-49205000D01*
X64880301Y-49301673D01*
X64701673Y-49480302D01*
X64605000Y-49713691D01*
X62486110Y-49713691D01*
X64289051Y-47910750D01*
X68890000Y-47910750D01*
X68890000Y-51251310D01*
X68986673Y-51484699D01*
X69165302Y-51663327D01*
X69398691Y-51760000D01*
X72739250Y-51760000D01*
X72898000Y-51601250D01*
X72898000Y-47752000D01*
X73152000Y-47752000D01*
X73152000Y-51601250D01*
X73310750Y-51760000D01*
X76651309Y-51760000D01*
X76884698Y-51663327D01*
X77063327Y-51484699D01*
X77160000Y-51251310D01*
X77160000Y-47910750D01*
X77001250Y-47752000D01*
X73152000Y-47752000D01*
X72898000Y-47752000D01*
X69048750Y-47752000D01*
X68890000Y-47910750D01*
X64289051Y-47910750D01*
X68201111Y-43998690D01*
X68890000Y-43998690D01*
X68890000Y-47339250D01*
X69048750Y-47498000D01*
X72898000Y-47498000D01*
X72898000Y-43648750D01*
X73152000Y-43648750D01*
X73152000Y-47498000D01*
X77001250Y-47498000D01*
X77160000Y-47339250D01*
X77160000Y-43998690D01*
X77063327Y-43765301D01*
X76884698Y-43586673D01*
X76651309Y-43490000D01*
X73310750Y-43490000D01*
X73152000Y-43648750D01*
X72898000Y-43648750D01*
X72739250Y-43490000D01*
X69398691Y-43490000D01*
X69165302Y-43586673D01*
X68986673Y-43765301D01*
X68890000Y-43998690D01*
X68201111Y-43998690D01*
X68894802Y-43305000D01*
X74541999Y-43305000D01*
X74616846Y-43319888D01*
X74691693Y-43305000D01*
X74691698Y-43305000D01*
X74913383Y-43260904D01*
X75164775Y-43092929D01*
X75207177Y-43029470D01*
X78888255Y-39348393D01*
X80402430Y-39348393D01*
X80402430Y-39899607D01*
X80613370Y-40408862D01*
X81003138Y-40798630D01*
X81512393Y-41009570D01*
X82063607Y-41009570D01*
X82572862Y-40798630D01*
X82931000Y-40440492D01*
X83289138Y-40798630D01*
X83798393Y-41009570D01*
X84349607Y-41009570D01*
X84858862Y-40798630D01*
X85248630Y-40408862D01*
X85459570Y-39899607D01*
X85459570Y-39348393D01*
X85248630Y-38839138D01*
X84858862Y-38449370D01*
X84349607Y-38238430D01*
X83798393Y-38238430D01*
X83289138Y-38449370D01*
X82931000Y-38807508D01*
X82572862Y-38449370D01*
X82063607Y-38238430D01*
X81512393Y-38238430D01*
X81003138Y-38449370D01*
X80613370Y-38839138D01*
X80402430Y-39348393D01*
X78888255Y-39348393D01*
X82332047Y-35904602D01*
X82395500Y-35862204D01*
X82437898Y-35798751D01*
X82437900Y-35798749D01*
X82563474Y-35610813D01*
X82563475Y-35610812D01*
X82607571Y-35389127D01*
X82607571Y-35389123D01*
X82622459Y-35314276D01*
X82607571Y-35239429D01*
X82607571Y-33594572D01*
X82622459Y-33519725D01*
X82607571Y-33444878D01*
X82607571Y-33444873D01*
X82563475Y-33223188D01*
X82395500Y-32971796D01*
X82332044Y-32929396D01*
X80862606Y-31459959D01*
X80820204Y-31396500D01*
X80568812Y-31228525D01*
X80347127Y-31184429D01*
X80347122Y-31184429D01*
X80272275Y-31169541D01*
X80197428Y-31184429D01*
X78874417Y-31184429D01*
X78799570Y-31169541D01*
X78724723Y-31184429D01*
X78724719Y-31184429D01*
X78503034Y-31228525D01*
X78251642Y-31396500D01*
X78209242Y-31459956D01*
X78024470Y-31644728D01*
X77999607Y-31634430D01*
X77448393Y-31634430D01*
X76939138Y-31845370D01*
X76708000Y-32076508D01*
X76476862Y-31845370D01*
X75967607Y-31634430D01*
X75416393Y-31634430D01*
X75391530Y-31644729D01*
X75206760Y-31459959D01*
X75164358Y-31396500D01*
X74912966Y-31228525D01*
X74691281Y-31184429D01*
X74691276Y-31184429D01*
X74616429Y-31169541D01*
X74541582Y-31184429D01*
X73218571Y-31184429D01*
X73143724Y-31169541D01*
X73068877Y-31184429D01*
X73068873Y-31184429D01*
X73045562Y-31189066D01*
X73151000Y-30934515D01*
X73151000Y-30025485D01*
X81281000Y-30025485D01*
X81281000Y-30934515D01*
X81628870Y-31774349D01*
X82271651Y-32417130D01*
X83111485Y-32765000D01*
X84020515Y-32765000D01*
X84285536Y-32655225D01*
X83957914Y-32982847D01*
X83709000Y-33583778D01*
X83709000Y-34234222D01*
X83957914Y-34835153D01*
X84417847Y-35295086D01*
X85018778Y-35544000D01*
X85669222Y-35544000D01*
X86270153Y-35295086D01*
X86730086Y-34835153D01*
X86979000Y-34234222D01*
X86979000Y-33583778D01*
X86730086Y-32982847D01*
X86270153Y-32522914D01*
X85669222Y-32274000D01*
X85018778Y-32274000D01*
X84992661Y-32284818D01*
X85274308Y-32003171D01*
X90399000Y-32003171D01*
X90399000Y-33528829D01*
X90982844Y-34938353D01*
X92061647Y-36017156D01*
X93471171Y-36601000D01*
X94996829Y-36601000D01*
X96406353Y-36017156D01*
X97485156Y-34938353D01*
X98069000Y-33528829D01*
X98069000Y-32003171D01*
X97485156Y-30593647D01*
X96406353Y-29514844D01*
X94996829Y-28931000D01*
X93471171Y-28931000D01*
X92061647Y-29514844D01*
X90982844Y-30593647D01*
X90399000Y-32003171D01*
X85274308Y-32003171D01*
X85503130Y-31774349D01*
X85851000Y-30934515D01*
X85851000Y-30025485D01*
X85503130Y-29185651D01*
X84860349Y-28542870D01*
X84020515Y-28195000D01*
X83111485Y-28195000D01*
X82271651Y-28542870D01*
X81628870Y-29185651D01*
X81281000Y-30025485D01*
X73151000Y-30025485D01*
X72803130Y-29185651D01*
X72160349Y-28542870D01*
X71320515Y-28195000D01*
X70411485Y-28195000D01*
X69571651Y-28542870D01*
X68928870Y-29185651D01*
X68581000Y-30025485D01*
X68581000Y-30934515D01*
X68928870Y-31774349D01*
X69439339Y-32284818D01*
X69413222Y-32274000D01*
X68762778Y-32274000D01*
X68161847Y-32522914D01*
X67701914Y-32982847D01*
X67453000Y-33583778D01*
X67453000Y-34234222D01*
X67701914Y-34835153D01*
X68161847Y-35295086D01*
X68762778Y-35544000D01*
X69413222Y-35544000D01*
X70014153Y-35295086D01*
X70474086Y-34835153D01*
X70723000Y-34234222D01*
X70723000Y-33583778D01*
X70474086Y-32982847D01*
X70146464Y-32655225D01*
X70411485Y-32765000D01*
X71320515Y-32765000D01*
X71627074Y-32638020D01*
X71615112Y-32698154D01*
X71630001Y-32773006D01*
X71630000Y-36761289D01*
X71512569Y-36878720D01*
X71355000Y-37259126D01*
X71355000Y-37670874D01*
X71512569Y-38051280D01*
X71803720Y-38342431D01*
X71960516Y-38407378D01*
X71859138Y-38449370D01*
X71501000Y-38807508D01*
X71142862Y-38449370D01*
X70633607Y-38238430D01*
X70082393Y-38238430D01*
X69573138Y-38449370D01*
X69183370Y-38839138D01*
X68972430Y-39348393D01*
X68972430Y-39899607D01*
X69183370Y-40408862D01*
X69573138Y-40798630D01*
X70082393Y-41009570D01*
X70633607Y-41009570D01*
X71142862Y-40798630D01*
X71501000Y-40440492D01*
X71859138Y-40798630D01*
X72368393Y-41009570D01*
X72515095Y-41009570D01*
X72189676Y-41334989D01*
X68215857Y-41334989D01*
X68141010Y-41320101D01*
X68066163Y-41334989D01*
X68066159Y-41334989D01*
X67844474Y-41379085D01*
X67593082Y-41547060D01*
X67550682Y-41610516D01*
X54125528Y-55035671D01*
X54062072Y-55078071D01*
X54019672Y-55141527D01*
X54019671Y-55141528D01*
X53976432Y-55206240D01*
X53894097Y-55329463D01*
X53859462Y-55503587D01*
X53835112Y-55626000D01*
X53850001Y-55700852D01*
X53850000Y-57716289D01*
X53732569Y-57833720D01*
X53575000Y-58214126D01*
X48920675Y-58214126D01*
X50579153Y-56555649D01*
X50642609Y-56513249D01*
X50810584Y-56261857D01*
X50854680Y-56040172D01*
X50854680Y-56040168D01*
X50869568Y-55965321D01*
X50854680Y-55890474D01*
X50854680Y-54631060D01*
X50886017Y-54618080D01*
X51279000Y-54225097D01*
X51491680Y-53711641D01*
X51491680Y-53155879D01*
X51279000Y-52642423D01*
X50886017Y-52249440D01*
X50679167Y-52163760D01*
X50886017Y-52078080D01*
X51279000Y-51685097D01*
X51491680Y-51171641D01*
X51491680Y-50615879D01*
X51279000Y-50102423D01*
X50886017Y-49709440D01*
X50372561Y-49496760D01*
X49816799Y-49496760D01*
X49303343Y-49709440D01*
X49095190Y-49917593D01*
X48887037Y-49709440D01*
X48373581Y-49496760D01*
X47817819Y-49496760D01*
X47304363Y-49709440D01*
X46911380Y-50102423D01*
X46698700Y-50615879D01*
X46698700Y-51171641D01*
X46711680Y-51202978D01*
X43879670Y-54034989D01*
X43316552Y-54034989D01*
X43345000Y-53966309D01*
X43345000Y-53625750D01*
X43186250Y-53467000D01*
X42037000Y-53467000D01*
X42037000Y-53487000D01*
X41783000Y-53487000D01*
X41783000Y-53467000D01*
X40633750Y-53467000D01*
X40475000Y-53625750D01*
X40475000Y-53966309D01*
X40546718Y-54139451D01*
X40385669Y-54247060D01*
X40343269Y-54310516D01*
X39740530Y-54913256D01*
X39677071Y-54955658D01*
X39509096Y-55207051D01*
X39465000Y-55428736D01*
X39465000Y-55428740D01*
X39450112Y-55503587D01*
X39465000Y-55578434D01*
X39465001Y-62492713D01*
X39401843Y-62587235D01*
X39352560Y-62835000D01*
X35660000Y-62835000D01*
X35660000Y-52713691D01*
X40475000Y-52713691D01*
X40475000Y-53054250D01*
X40633750Y-53213000D01*
X41783000Y-53213000D01*
X41783000Y-52363750D01*
X42037000Y-52363750D01*
X42037000Y-53213000D01*
X43186250Y-53213000D01*
X43345000Y-53054250D01*
X43345000Y-52713691D01*
X43248327Y-52480302D01*
X43069699Y-52301673D01*
X42836310Y-52205000D01*
X42195750Y-52205000D01*
X42037000Y-52363750D01*
X41783000Y-52363750D01*
X41624250Y-52205000D01*
X40983690Y-52205000D01*
X40750301Y-52301673D01*
X40571673Y-52480302D01*
X40475000Y-52713691D01*
X35660000Y-52713691D01*
X35660000Y-45769437D01*
X43410670Y-45769437D01*
X43410670Y-46559123D01*
X43712869Y-47288698D01*
X44271262Y-47847091D01*
X45000837Y-48149290D01*
X45790523Y-48149290D01*
X46520098Y-47847091D01*
X47078491Y-47288698D01*
X47380690Y-46559123D01*
X47380690Y-45769437D01*
X47078491Y-45039862D01*
X46520098Y-44481469D01*
X45790523Y-44179270D01*
X45000837Y-44179270D01*
X44271262Y-44481469D01*
X43712869Y-45039862D01*
X43410670Y-45769437D01*
X35660000Y-45769437D01*
X35660000Y-39348393D01*
X49287430Y-39348393D01*
X49287430Y-39899607D01*
X49498370Y-40408862D01*
X49888138Y-40798630D01*
X50397393Y-41009570D01*
X50948607Y-41009570D01*
X51457862Y-40798630D01*
X51816000Y-40440492D01*
X52174138Y-40798630D01*
X52683393Y-41009570D01*
X53234607Y-41009570D01*
X53743862Y-40798630D01*
X54133630Y-40408862D01*
X54344570Y-39899607D01*
X54344570Y-39348393D01*
X54133630Y-38839138D01*
X53743862Y-38449370D01*
X53234607Y-38238430D01*
X52683393Y-38238430D01*
X52174138Y-38449370D01*
X51816000Y-38807508D01*
X51457862Y-38449370D01*
X50948607Y-38238430D01*
X50397393Y-38238430D01*
X49888138Y-38449370D01*
X49498370Y-38839138D01*
X49287430Y-39348393D01*
X35660000Y-39348393D01*
X35660000Y-32003171D01*
X39091000Y-32003171D01*
X39091000Y-33528829D01*
X39674844Y-34938353D01*
X40753647Y-36017156D01*
X42163171Y-36601000D01*
X43688829Y-36601000D01*
X45098353Y-36017156D01*
X46177156Y-34938353D01*
X46738239Y-33583778D01*
X47768000Y-33583778D01*
X47768000Y-34234222D01*
X48016914Y-34835153D01*
X48476847Y-35295086D01*
X49077778Y-35544000D01*
X49728222Y-35544000D01*
X50329153Y-35295086D01*
X50789086Y-34835153D01*
X51038000Y-34234222D01*
X51038000Y-33583778D01*
X50789086Y-32982847D01*
X50461464Y-32655225D01*
X50726485Y-32765000D01*
X51635515Y-32765000D01*
X51942074Y-32638020D01*
X51930112Y-32698154D01*
X51945000Y-32773001D01*
X51945001Y-34028995D01*
X51930112Y-34103846D01*
X51989097Y-34400383D01*
X52081977Y-34539387D01*
X52157072Y-34651775D01*
X52220528Y-34694175D01*
X55120000Y-37593648D01*
X55120001Y-40565148D01*
X55105112Y-40640000D01*
X55120001Y-40714852D01*
X55164097Y-40936537D01*
X55332072Y-41187929D01*
X55395528Y-41230329D01*
X56750000Y-42584802D01*
X56750000Y-42750874D01*
X56907569Y-43131280D01*
X57198720Y-43422431D01*
X57579126Y-43580000D01*
X57990874Y-43580000D01*
X58371280Y-43422431D01*
X58662431Y-43131280D01*
X58820000Y-42750874D01*
X58820000Y-42339126D01*
X58662431Y-41958720D01*
X58371280Y-41667569D01*
X57990874Y-41510000D01*
X57824802Y-41510000D01*
X56640000Y-40325199D01*
X56640000Y-39348393D01*
X60717430Y-39348393D01*
X60717430Y-39899607D01*
X60928370Y-40408862D01*
X61318138Y-40798630D01*
X61827393Y-41009570D01*
X62378607Y-41009570D01*
X62887862Y-40798630D01*
X63246000Y-40440492D01*
X63604138Y-40798630D01*
X64113393Y-41009570D01*
X64664607Y-41009570D01*
X65173862Y-40798630D01*
X65563630Y-40408862D01*
X65774570Y-39899607D01*
X65774570Y-39348393D01*
X65563630Y-38839138D01*
X65173862Y-38449370D01*
X64664607Y-38238430D01*
X64113393Y-38238430D01*
X63604138Y-38449370D01*
X63246000Y-38807508D01*
X62887862Y-38449370D01*
X62378607Y-38238430D01*
X61827393Y-38238430D01*
X61318138Y-38449370D01*
X60928370Y-38839138D01*
X60717430Y-39348393D01*
X56640000Y-39348393D01*
X56640000Y-37353692D01*
X56654888Y-37278845D01*
X56640000Y-37203998D01*
X56640000Y-37203994D01*
X56595904Y-36982309D01*
X56427929Y-36730917D01*
X56364473Y-36688517D01*
X55685864Y-36009908D01*
X55775862Y-35972630D01*
X56007000Y-35741492D01*
X56238138Y-35972630D01*
X56747393Y-36183570D01*
X57298607Y-36183570D01*
X57807862Y-35972630D01*
X58039000Y-35741492D01*
X58270138Y-35972630D01*
X58779393Y-36183570D01*
X59330607Y-36183570D01*
X59839862Y-35972630D01*
X60042562Y-35769930D01*
X60294675Y-35769930D01*
X60362735Y-36010931D01*
X60882034Y-36195767D01*
X61432538Y-36167805D01*
X61811265Y-36010931D01*
X61879325Y-35769930D01*
X61087000Y-34977605D01*
X60294675Y-35769930D01*
X60042562Y-35769930D01*
X60229630Y-35582862D01*
X60305359Y-35400036D01*
X60907395Y-34798000D01*
X61266605Y-34798000D01*
X62058930Y-35590325D01*
X62299931Y-35522265D01*
X62484767Y-35002966D01*
X62456805Y-34452462D01*
X62299931Y-34073735D01*
X62058930Y-34005675D01*
X61266605Y-34798000D01*
X60907395Y-34798000D01*
X60893253Y-34783858D01*
X61072858Y-34604253D01*
X61087000Y-34618395D01*
X61879325Y-33826070D01*
X61811265Y-33585069D01*
X61397651Y-33437850D01*
X61456570Y-33295607D01*
X61456570Y-32744393D01*
X61245630Y-32235138D01*
X60855862Y-31845370D01*
X60346607Y-31634430D01*
X59795393Y-31634430D01*
X59286138Y-31845370D01*
X59055000Y-32076508D01*
X58823862Y-31845370D01*
X58314607Y-31634430D01*
X57763393Y-31634430D01*
X57254138Y-31845370D01*
X57023000Y-32076508D01*
X56791862Y-31845370D01*
X56282607Y-31634430D01*
X55731393Y-31634430D01*
X55706530Y-31644729D01*
X55521760Y-31459959D01*
X55479358Y-31396500D01*
X55227966Y-31228525D01*
X55006281Y-31184429D01*
X55006276Y-31184429D01*
X54931429Y-31169541D01*
X54856582Y-31184429D01*
X53533571Y-31184429D01*
X53458724Y-31169541D01*
X53383877Y-31184429D01*
X53383873Y-31184429D01*
X53360562Y-31189066D01*
X53466000Y-30934515D01*
X53466000Y-30025485D01*
X61596000Y-30025485D01*
X61596000Y-30934515D01*
X61943870Y-31774349D01*
X62586651Y-32417130D01*
X63426485Y-32765000D01*
X64335515Y-32765000D01*
X64600536Y-32655225D01*
X64272914Y-32982847D01*
X64024000Y-33583778D01*
X64024000Y-34234222D01*
X64272914Y-34835153D01*
X64732847Y-35295086D01*
X65333778Y-35544000D01*
X65984222Y-35544000D01*
X66585153Y-35295086D01*
X67045086Y-34835153D01*
X67294000Y-34234222D01*
X67294000Y-33583778D01*
X67045086Y-32982847D01*
X66585153Y-32522914D01*
X65984222Y-32274000D01*
X65333778Y-32274000D01*
X65307661Y-32284818D01*
X65818130Y-31774349D01*
X66166000Y-30934515D01*
X66166000Y-30025485D01*
X65818130Y-29185651D01*
X65175349Y-28542870D01*
X64335515Y-28195000D01*
X63426485Y-28195000D01*
X62586651Y-28542870D01*
X61943870Y-29185651D01*
X61596000Y-30025485D01*
X53466000Y-30025485D01*
X53118130Y-29185651D01*
X52475349Y-28542870D01*
X51635515Y-28195000D01*
X50726485Y-28195000D01*
X49886651Y-28542870D01*
X49243870Y-29185651D01*
X48896000Y-30025485D01*
X48896000Y-30934515D01*
X49243870Y-31774349D01*
X49754339Y-32284818D01*
X49728222Y-32274000D01*
X49077778Y-32274000D01*
X48476847Y-32522914D01*
X48016914Y-32982847D01*
X47768000Y-33583778D01*
X46738239Y-33583778D01*
X46761000Y-33528829D01*
X46761000Y-32003171D01*
X46177156Y-30593647D01*
X45098353Y-29514844D01*
X43688829Y-28931000D01*
X42163171Y-28931000D01*
X40753647Y-29514844D01*
X39674844Y-30593647D01*
X39091000Y-32003171D01*
X35660000Y-32003171D01*
X35660000Y-25500000D01*
X101500001Y-25500000D01*
X101500001Y-46289789D01*
X101500001Y-46289789D01*
G37*
X101500001Y-46289789D02*
X101320209Y-46020711D01*
X101251463Y-45974777D01*
X101205529Y-45906031D01*
X100168536Y-45213135D01*
X99254089Y-45031240D01*
X99254088Y-45031240D01*
X98945320Y-44969822D01*
X98636552Y-45031240D01*
X91836551Y-45031240D01*
X90922104Y-45213135D01*
X89885111Y-45906031D01*
X89192215Y-46943024D01*
X89134885Y-47231240D01*
X86932609Y-47231240D01*
X85732760Y-46031391D01*
X85732760Y-44706240D01*
X85683477Y-44458475D01*
X85543129Y-44248431D01*
X85333085Y-44108083D01*
X85085320Y-44058800D01*
X84085320Y-44058800D01*
X83837555Y-44108083D01*
X83627511Y-44248431D01*
X83487163Y-44458475D01*
X83437880Y-44706240D01*
X83437880Y-46706240D01*
X83487163Y-46954005D01*
X83627511Y-47164049D01*
X83837555Y-47304397D01*
X84085320Y-47353680D01*
X84410471Y-47353680D01*
X85819059Y-48762268D01*
X85871223Y-48840337D01*
X86180501Y-49046990D01*
X86545320Y-49119557D01*
X86637406Y-49101240D01*
X89134885Y-49101240D01*
X89192215Y-49389456D01*
X89885111Y-50426449D01*
X90922104Y-51119345D01*
X91836551Y-51301240D01*
X95925000Y-51301240D01*
X95925001Y-58182999D01*
X90608001Y-63500000D01*
X83797352Y-63500000D01*
X92166113Y-55131240D01*
X92330975Y-55131240D01*
X92880810Y-55021871D01*
X93012797Y-54933680D01*
X93945320Y-54933680D01*
X94193085Y-54884397D01*
X94403129Y-54744049D01*
X94543477Y-54534005D01*
X94592760Y-54286240D01*
X94592760Y-52206240D01*
X94543477Y-51958475D01*
X94403129Y-51748431D01*
X94193085Y-51608083D01*
X93945320Y-51558800D01*
X93012797Y-51558800D01*
X92880810Y-51470609D01*
X92330975Y-51361240D01*
X91570973Y-51361240D01*
X91385320Y-51324311D01*
X91199666Y-51361240D01*
X91199665Y-51361240D01*
X90649830Y-51470609D01*
X90517843Y-51558800D01*
X90345320Y-51558800D01*
X90097555Y-51608083D01*
X89887511Y-51748431D01*
X89747163Y-51958475D01*
X89697880Y-52206240D01*
X89697880Y-52267887D01*
X89654527Y-52311240D01*
X86812610Y-52311240D01*
X80532760Y-46031391D01*
X80532760Y-44706240D01*
X80483477Y-44458475D01*
X80343129Y-44248431D01*
X80133085Y-44108083D01*
X79885320Y-44058800D01*
X78885320Y-44058800D01*
X78637555Y-44108083D01*
X78427511Y-44248431D01*
X78287163Y-44458475D01*
X78237880Y-44706240D01*
X78237880Y-46706240D01*
X78287163Y-46954005D01*
X78427511Y-47164049D01*
X78637555Y-47304397D01*
X78885320Y-47353680D01*
X79210471Y-47353680D01*
X85699061Y-53842271D01*
X85751223Y-53920337D01*
X86060501Y-54126990D01*
X86333234Y-54181240D01*
X86333238Y-54181240D01*
X86425319Y-54199556D01*
X86517400Y-54181240D01*
X87784527Y-54181240D01*
X85726114Y-56239654D01*
X85732760Y-56206240D01*
X85732760Y-54206240D01*
X85683477Y-53958475D01*
X85543129Y-53748431D01*
X85333085Y-53608083D01*
X85085320Y-53558800D01*
X84085320Y-53558800D01*
X83837555Y-53608083D01*
X83627511Y-53748431D01*
X83487163Y-53958475D01*
X83454071Y-54124840D01*
X83392466Y-54137094D01*
X83111797Y-54324632D01*
X83091684Y-54344745D01*
X82811223Y-54532143D01*
X82759061Y-54610209D01*
X81598030Y-55771241D01*
X80520320Y-55771241D01*
X80520320Y-55491990D01*
X80361570Y-55333240D01*
X79512320Y-55333240D01*
X79512320Y-55353240D01*
X79258320Y-55353240D01*
X79258320Y-55333240D01*
X79238320Y-55333240D01*
X79238320Y-55079240D01*
X79258320Y-55079240D01*
X79258320Y-53729990D01*
X79512320Y-53729990D01*
X79512320Y-55079240D01*
X80361570Y-55079240D01*
X80520320Y-54920490D01*
X80520320Y-54079931D01*
X80423647Y-53846542D01*
X80245019Y-53667913D01*
X80011630Y-53571240D01*
X79671070Y-53571240D01*
X79512320Y-53729990D01*
X79258320Y-53729990D01*
X79099570Y-53571240D01*
X78759010Y-53571240D01*
X78525621Y-53667913D01*
X78346993Y-53846542D01*
X78250320Y-54079931D01*
X78250320Y-54920490D01*
X78409068Y-55079238D01*
X78301528Y-55079238D01*
X77651261Y-54428972D01*
X77599097Y-54350903D01*
X77289819Y-54144250D01*
X77017086Y-54090000D01*
X76972440Y-54081119D01*
X76972440Y-53275000D01*
X76923157Y-53027235D01*
X76782809Y-52817191D01*
X76572765Y-52676843D01*
X76325000Y-52627560D01*
X74325000Y-52627560D01*
X74077235Y-52676843D01*
X73867191Y-52817191D01*
X73726843Y-53027235D01*
X73677560Y-53275000D01*
X73677560Y-53552758D01*
X72590330Y-52465529D01*
X72547928Y-52402070D01*
X72296536Y-52234095D01*
X72074851Y-52189999D01*
X72074846Y-52189999D01*
X71999999Y-52175111D01*
X71925152Y-52189999D01*
X67554849Y-52189999D01*
X67480001Y-52175111D01*
X67405153Y-52189999D01*
X67405149Y-52189999D01*
X67231606Y-52224519D01*
X67183463Y-52234095D01*
X67129816Y-52269941D01*
X67087765Y-52241843D01*
X66840000Y-52192560D01*
X65240000Y-52192560D01*
X64992235Y-52241843D01*
X64782191Y-52382191D01*
X64641843Y-52592235D01*
X64592560Y-52840000D01*
X64592560Y-53840000D01*
X64641843Y-54087765D01*
X64782191Y-54297809D01*
X64992235Y-54438157D01*
X65240000Y-54487440D01*
X66840000Y-54487440D01*
X67087765Y-54438157D01*
X67297809Y-54297809D01*
X67438157Y-54087765D01*
X67453378Y-54011242D01*
X67637929Y-53887929D01*
X67680331Y-53824470D01*
X67794802Y-53709999D01*
X69097560Y-53709999D01*
X69097560Y-56347638D01*
X59530199Y-65915000D01*
X58488711Y-65915000D01*
X58371280Y-65797569D01*
X57990874Y-65640000D01*
X57579126Y-65640000D01*
X57198720Y-65797569D01*
X57081289Y-65915000D01*
X53408711Y-65915000D01*
X53291280Y-65797569D01*
X52910874Y-65640000D01*
X52499126Y-65640000D01*
X52118720Y-65797569D01*
X52001289Y-65915000D01*
X46423711Y-65915000D01*
X46306280Y-65797569D01*
X45925874Y-65640000D01*
X45514126Y-65640000D01*
X45133720Y-65797569D01*
X45016289Y-65915000D01*
X40073711Y-65915000D01*
X39956280Y-65797569D01*
X39575874Y-65640000D01*
X39164126Y-65640000D01*
X38783720Y-65797569D01*
X38492569Y-66088720D01*
X38335000Y-66469126D01*
X38335000Y-66880874D01*
X38492569Y-67261280D01*
X38783720Y-67552431D01*
X39164126Y-67710000D01*
X39575874Y-67710000D01*
X39956280Y-67552431D01*
X40073711Y-67435000D01*
X45016289Y-67435000D01*
X45133720Y-67552431D01*
X45514126Y-67710000D01*
X45925874Y-67710000D01*
X46306280Y-67552431D01*
X46423711Y-67435000D01*
X52001289Y-67435000D01*
X52118720Y-67552431D01*
X52499126Y-67710000D01*
X52910874Y-67710000D01*
X53291280Y-67552431D01*
X53408711Y-67435000D01*
X57081289Y-67435000D01*
X57198720Y-67552431D01*
X57579126Y-67710000D01*
X57990874Y-67710000D01*
X58371280Y-67552431D01*
X58488711Y-67435000D01*
X59770153Y-67435000D01*
X59845000Y-67449888D01*
X59919847Y-67435000D01*
X59919852Y-67435000D01*
X60141537Y-67390904D01*
X60392929Y-67222929D01*
X60435331Y-67159470D01*
X70172362Y-57422440D01*
X71317639Y-57422440D01*
X75339673Y-61444476D01*
X75382071Y-61507929D01*
X75445524Y-61550327D01*
X75445526Y-61550329D01*
X75534829Y-61609999D01*
X75633463Y-61675904D01*
X75855148Y-61720000D01*
X75855152Y-61720000D01*
X75929999Y-61734888D01*
X76004846Y-61720000D01*
X76766289Y-61720000D01*
X76883720Y-61837431D01*
X77264126Y-61995000D01*
X77675874Y-61995000D01*
X78056280Y-61837431D01*
X78347431Y-61546280D01*
X78505000Y-61165874D01*
X78505000Y-60754126D01*
X78347431Y-60373720D01*
X78056280Y-60082569D01*
X77675874Y-59925000D01*
X77264126Y-59925000D01*
X76883720Y-60082569D01*
X76766289Y-60200000D01*
X76244803Y-60200000D01*
X72392440Y-56347639D01*
X72392440Y-54417241D01*
X73484671Y-55509473D01*
X73527071Y-55572929D01*
X73677560Y-55673483D01*
X73677560Y-56775000D01*
X73726843Y-57022765D01*
X73867191Y-57232809D01*
X74077235Y-57373157D01*
X74325000Y-57422440D01*
X76325000Y-57422440D01*
X76572765Y-57373157D01*
X76782809Y-57232809D01*
X76923157Y-57022765D01*
X76972440Y-56775000D01*
X76972440Y-56394729D01*
X77879982Y-57302272D01*
X77932144Y-57380338D01*
X78241422Y-57586991D01*
X78497505Y-57637929D01*
X78606241Y-57659558D01*
X78698327Y-57641241D01*
X81893233Y-57641241D01*
X81985319Y-57659558D01*
X82077405Y-57641241D01*
X82350138Y-57586991D01*
X82478612Y-57501147D01*
X82496854Y-57592854D01*
X82747711Y-57968289D01*
X83123145Y-58219146D01*
X83566000Y-58307235D01*
X83681509Y-58284259D01*
X78465768Y-63500000D01*
X75311000Y-63500000D01*
X75262399Y-63509667D01*
X75221197Y-63537197D01*
X75193667Y-63578399D01*
X75184000Y-63627000D01*
X75184000Y-114808000D01*
X41400000Y-114808000D01*
X41400000Y-105605711D01*
X41517431Y-105488280D01*
X41675000Y-105107874D01*
X41675000Y-104696126D01*
X41517431Y-104315720D01*
X41400000Y-104198289D01*
X41400000Y-96961801D01*
X42392284Y-95969518D01*
X42427098Y-96144538D01*
X42595073Y-96395931D01*
X42658532Y-96438333D01*
X47124675Y-100904478D01*
X47167073Y-100967931D01*
X47230526Y-101010329D01*
X47230528Y-101010331D01*
X47292997Y-101052071D01*
X47418465Y-101135906D01*
X47640150Y-101180002D01*
X47640154Y-101180002D01*
X47715001Y-101194890D01*
X47789848Y-101180002D01*
X54298693Y-101180002D01*
X54210000Y-101394126D01*
X54210000Y-101805874D01*
X54367569Y-102186280D01*
X54485001Y-102303712D01*
X54485000Y-108975153D01*
X54470112Y-109050000D01*
X54485000Y-109124847D01*
X54485000Y-109124851D01*
X54529096Y-109346536D01*
X54697071Y-109597929D01*
X54760530Y-109640331D01*
X56729671Y-111609473D01*
X56772071Y-111672929D01*
X56922560Y-111773483D01*
X56922560Y-111975000D01*
X56971843Y-112222765D01*
X57112191Y-112432809D01*
X57322235Y-112573157D01*
X57570000Y-112622440D01*
X59270000Y-112622440D01*
X59517765Y-112573157D01*
X59727809Y-112432809D01*
X59868157Y-112222765D01*
X59888739Y-112119292D01*
X60193076Y-112396645D01*
X60603110Y-112566476D01*
X60833000Y-112445155D01*
X60833000Y-111252000D01*
X60813000Y-111252000D01*
X60813000Y-110998000D01*
X60833000Y-110998000D01*
X60833000Y-110978000D01*
X61087000Y-110978000D01*
X61087000Y-110998000D01*
X61107000Y-110998000D01*
X61107000Y-111252000D01*
X61087000Y-111252000D01*
X61087000Y-112445155D01*
X61316890Y-112566476D01*
X61726924Y-112396645D01*
X62155183Y-112006358D01*
X62216157Y-111876522D01*
X62429375Y-112195625D01*
X62920582Y-112523839D01*
X63353744Y-112610000D01*
X63646256Y-112610000D01*
X64079418Y-112523839D01*
X64406492Y-112305295D01*
X64885671Y-112784476D01*
X64928070Y-112847930D01*
X64991523Y-112890328D01*
X64991525Y-112890330D01*
X65116901Y-112974103D01*
X65179462Y-113015905D01*
X65401147Y-113060001D01*
X65401151Y-113060001D01*
X65475998Y-113074889D01*
X65550845Y-113060001D01*
X67330152Y-113060001D01*
X67404999Y-113074889D01*
X67479846Y-113060001D01*
X67479851Y-113060001D01*
X67701536Y-113015905D01*
X67952928Y-112847930D01*
X67995330Y-112784471D01*
X68213592Y-112566209D01*
X68433744Y-112610000D01*
X68726256Y-112610000D01*
X69159418Y-112523839D01*
X69650625Y-112195625D01*
X69978839Y-111704418D01*
X70094092Y-111125000D01*
X69978839Y-110545582D01*
X69650625Y-110054375D01*
X69350214Y-109853647D01*
X69775183Y-109466358D01*
X70021486Y-108941892D01*
X69900819Y-108712000D01*
X68707000Y-108712000D01*
X68707000Y-108732000D01*
X68453000Y-108732000D01*
X68453000Y-108712000D01*
X66167000Y-108712000D01*
X66167000Y-108732000D01*
X65913000Y-108732000D01*
X65913000Y-108712000D01*
X65893000Y-108712000D01*
X65893000Y-108458000D01*
X65913000Y-108458000D01*
X65913000Y-107264845D01*
X66167000Y-107264845D01*
X66167000Y-108458000D01*
X68453000Y-108458000D01*
X68453000Y-107264845D01*
X68707000Y-107264845D01*
X68707000Y-108458000D01*
X69900819Y-108458000D01*
X70021486Y-108228108D01*
X69775183Y-107703642D01*
X69346924Y-107313355D01*
X68936890Y-107143524D01*
X68707000Y-107264845D01*
X68453000Y-107264845D01*
X68223110Y-107143524D01*
X67813076Y-107313355D01*
X67384817Y-107703642D01*
X67310000Y-107862954D01*
X67235183Y-107703642D01*
X66806924Y-107313355D01*
X66396890Y-107143524D01*
X66167000Y-107264845D01*
X65913000Y-107264845D01*
X65683110Y-107143524D01*
X65273076Y-107313355D01*
X65152261Y-107423457D01*
X56939333Y-99210530D01*
X56896931Y-99147071D01*
X56645539Y-98979096D01*
X56423854Y-98935000D01*
X56423849Y-98935000D01*
X56349002Y-98920112D01*
X56274155Y-98935000D01*
X55948711Y-98935000D01*
X55831280Y-98817569D01*
X55450874Y-98660000D01*
X55039126Y-98660000D01*
X54658720Y-98817569D01*
X54367569Y-99108720D01*
X54210000Y-99489126D01*
X54210000Y-99660002D01*
X48029805Y-99660002D01*
X46559802Y-98190000D01*
X46560874Y-98190000D01*
X46654368Y-98151273D01*
X46747569Y-98376280D01*
X47038720Y-98667431D01*
X47419126Y-98825000D01*
X47830874Y-98825000D01*
X48211280Y-98667431D01*
X48502431Y-98376280D01*
X48660000Y-97995874D01*
X48660000Y-97584126D01*
X48502431Y-97203720D01*
X48211280Y-96912569D01*
X47980000Y-96816770D01*
X47980000Y-96380580D01*
X48017569Y-96471280D01*
X48308720Y-96762431D01*
X48689126Y-96920000D01*
X49100874Y-96920000D01*
X49481280Y-96762431D01*
X49772431Y-96471280D01*
X49930000Y-96090874D01*
X49930000Y-95679126D01*
X49772431Y-95298720D01*
X49655000Y-95181289D01*
X49655000Y-90879846D01*
X49669888Y-90804999D01*
X49655000Y-90730152D01*
X49655000Y-90730148D01*
X49610904Y-90508463D01*
X49569102Y-90445902D01*
X49485329Y-90320526D01*
X49485327Y-90320524D01*
X49442929Y-90257071D01*
X49379476Y-90214673D01*
X48479999Y-89315198D01*
X48479999Y-88426543D01*
X48748744Y-88480000D01*
X49041256Y-88480000D01*
X49474418Y-88393839D01*
X49965625Y-88065625D01*
X50165000Y-87767239D01*
X50364375Y-88065625D01*
X50855582Y-88393839D01*
X51288744Y-88480000D01*
X51581256Y-88480000D01*
X52014418Y-88393839D01*
X52505625Y-88065625D01*
X52705000Y-87767239D01*
X52904375Y-88065625D01*
X53395582Y-88393839D01*
X53828744Y-88480000D01*
X54121256Y-88480000D01*
X54554418Y-88393839D01*
X55045625Y-88065625D01*
X55258843Y-87746522D01*
X55319817Y-87876358D01*
X55748076Y-88266645D01*
X56158110Y-88436476D01*
X56388000Y-88315155D01*
X56388000Y-87122000D01*
X56368000Y-87122000D01*
X56368000Y-86868000D01*
X56388000Y-86868000D01*
X56388000Y-85674845D01*
X56642000Y-85674845D01*
X56642000Y-86868000D01*
X56662000Y-86868000D01*
X56662000Y-87122000D01*
X56642000Y-87122000D01*
X56642000Y-88315155D01*
X56871890Y-88436476D01*
X57281924Y-88266645D01*
X57586261Y-87989292D01*
X57606843Y-88092765D01*
X57747191Y-88302809D01*
X57957235Y-88443157D01*
X58205000Y-88492440D01*
X59905000Y-88492440D01*
X60152765Y-88443157D01*
X60362809Y-88302809D01*
X60503157Y-88092765D01*
X60552440Y-87845000D01*
X60552440Y-86145000D01*
X60503157Y-85897235D01*
X60362809Y-85687191D01*
X60152765Y-85546843D01*
X59905000Y-85497560D01*
X58205000Y-85497560D01*
X57957235Y-85546843D01*
X57747191Y-85687191D01*
X57606843Y-85897235D01*
X57586261Y-86000708D01*
X57281924Y-85723355D01*
X56871890Y-85553524D01*
X56642000Y-85674845D01*
X56388000Y-85674845D01*
X56158110Y-85553524D01*
X55748076Y-85723355D01*
X55319817Y-86113642D01*
X55258843Y-86243478D01*
X55045625Y-85924375D01*
X54554418Y-85596161D01*
X54121256Y-85510000D01*
X53828744Y-85510000D01*
X53395582Y-85596161D01*
X52904375Y-85924375D01*
X52705000Y-86222761D01*
X52505625Y-85924375D01*
X52014418Y-85596161D01*
X51581256Y-85510000D01*
X51288744Y-85510000D01*
X50855582Y-85596161D01*
X50364375Y-85924375D01*
X50165000Y-86222761D01*
X49965625Y-85924375D01*
X49474418Y-85596161D01*
X49041256Y-85510000D01*
X48748744Y-85510000D01*
X48479999Y-85563457D01*
X48479999Y-84835803D01*
X49159475Y-84156327D01*
X49222929Y-84113929D01*
X49265327Y-84050476D01*
X49265329Y-84050474D01*
X49390903Y-83862538D01*
X49390904Y-83862537D01*
X49435000Y-83640852D01*
X49435000Y-83640848D01*
X49449888Y-83566001D01*
X49435000Y-83491154D01*
X49435000Y-72127285D01*
X49498157Y-72032765D01*
X49547440Y-71785000D01*
X49547440Y-70035000D01*
X49498157Y-69787235D01*
X49357809Y-69577191D01*
X49147765Y-69436843D01*
X48900000Y-69387560D01*
X48450000Y-69387560D01*
X48350000Y-69407451D01*
X48250000Y-69387560D01*
X47800000Y-69387560D01*
X47700000Y-69407451D01*
X47600000Y-69387560D01*
X47373483Y-69387560D01*
X47347948Y-69349344D01*
X47315329Y-69300526D01*
X47315327Y-69300524D01*
X47272929Y-69237071D01*
X47209476Y-69194673D01*
X46110331Y-68095530D01*
X46067929Y-68032071D01*
X45816537Y-67864096D01*
X45594852Y-67820000D01*
X45594847Y-67820000D01*
X45520000Y-67805112D01*
X45445153Y-67820000D01*
X45153711Y-67820000D01*
X45036280Y-67702569D01*
X44655874Y-67545000D01*
X44244126Y-67545000D01*
X43863720Y-67702569D01*
X43572569Y-67993720D01*
X43415000Y-68374126D01*
X43415000Y-68785874D01*
X43572569Y-69166280D01*
X43811460Y-69405171D01*
X43800000Y-69407451D01*
X43700000Y-69387560D01*
X43250000Y-69387560D01*
X43150000Y-69407451D01*
X43050000Y-69387560D01*
X42600000Y-69387560D01*
X42500000Y-69407451D01*
X42400000Y-69387560D01*
X41950000Y-69387560D01*
X41850000Y-69407451D01*
X41750000Y-69387560D01*
X41300000Y-69387560D01*
X41200000Y-69407451D01*
X41100000Y-69387560D01*
X40650000Y-69387560D01*
X40550000Y-69407451D01*
X40450000Y-69387560D01*
X40000000Y-69387560D01*
X39752235Y-69436843D01*
X39542191Y-69577191D01*
X39401843Y-69787235D01*
X39352560Y-70035000D01*
X39352560Y-71785000D01*
X39401843Y-72032765D01*
X39542191Y-72242809D01*
X39752235Y-72383157D01*
X40000000Y-72432440D01*
X40450000Y-72432440D01*
X40550000Y-72412549D01*
X40650000Y-72432440D01*
X41100000Y-72432440D01*
X41200000Y-72412549D01*
X41300000Y-72432440D01*
X41750000Y-72432440D01*
X41850000Y-72412549D01*
X41950000Y-72432440D01*
X42400000Y-72432440D01*
X42500000Y-72412549D01*
X42600000Y-72432440D01*
X43050000Y-72432440D01*
X43150000Y-72412549D01*
X43250000Y-72432440D01*
X43700000Y-72432440D01*
X43800000Y-72412549D01*
X43900000Y-72432440D01*
X44350000Y-72432440D01*
X44420073Y-72418502D01*
X44423690Y-72420000D01*
X44503750Y-72420000D01*
X44526397Y-72397353D01*
X44597765Y-72383157D01*
X44775000Y-72264731D01*
X44952235Y-72383157D01*
X45023603Y-72397353D01*
X45046250Y-72420000D01*
X45126310Y-72420000D01*
X45129927Y-72418502D01*
X45200000Y-72432440D01*
X45315000Y-72432440D01*
X45315000Y-75177122D01*
X45258327Y-75040301D01*
X45079698Y-74861673D01*
X44846309Y-74765000D01*
X44505750Y-74765000D01*
X44347000Y-74923750D01*
X44347000Y-76073000D01*
X44367000Y-76073000D01*
X44367000Y-76327000D01*
X44347000Y-76327000D01*
X44347000Y-77476250D01*
X44505750Y-77635000D01*
X44846309Y-77635000D01*
X45079698Y-77538327D01*
X45258327Y-77359699D01*
X45315000Y-77222878D01*
X45315001Y-96800148D01*
X45300112Y-96875000D01*
X45313846Y-96944044D01*
X43903002Y-95533201D01*
X43903002Y-94595844D01*
X43917890Y-94520997D01*
X43903002Y-94446150D01*
X43903002Y-94446146D01*
X43858906Y-94224461D01*
X43779085Y-94105000D01*
X43733331Y-94036524D01*
X43733329Y-94036522D01*
X43690931Y-93973069D01*
X43627478Y-93930671D01*
X42557335Y-92860530D01*
X42514933Y-92797071D01*
X42263541Y-92629096D01*
X42041856Y-92585000D01*
X42041851Y-92585000D01*
X41967004Y-92570112D01*
X41892157Y-92585000D01*
X41343711Y-92585000D01*
X41226280Y-92467569D01*
X40845874Y-92310000D01*
X40434126Y-92310000D01*
X40053720Y-92467569D01*
X39762569Y-92758720D01*
X39605000Y-93139126D01*
X39605000Y-93550874D01*
X39762569Y-93931280D01*
X40053720Y-94222431D01*
X40434126Y-94380000D01*
X40845874Y-94380000D01*
X41226280Y-94222431D01*
X41343711Y-94105000D01*
X41652203Y-94105000D01*
X41685246Y-94138043D01*
X41540569Y-94282720D01*
X41383000Y-94663126D01*
X41383000Y-94829198D01*
X40155528Y-96056671D01*
X40092072Y-96099071D01*
X40049672Y-96162527D01*
X40049671Y-96162528D01*
X39924097Y-96350463D01*
X39865112Y-96647000D01*
X39880001Y-96721852D01*
X39880000Y-104198289D01*
X39762569Y-104315720D01*
X39605000Y-104696126D01*
X39605000Y-105107874D01*
X39762569Y-105488280D01*
X39880000Y-105605711D01*
X39880001Y-114808000D01*
X35660000Y-114808000D01*
X35660000Y-76485750D01*
X43085000Y-76485750D01*
X43085000Y-77126310D01*
X43181673Y-77359699D01*
X43360302Y-77538327D01*
X43593691Y-77635000D01*
X43934250Y-77635000D01*
X44093000Y-77476250D01*
X44093000Y-76327000D01*
X43243750Y-76327000D01*
X43085000Y-76485750D01*
X35660000Y-76485750D01*
X35660000Y-75273690D01*
X43085000Y-75273690D01*
X43085000Y-75914250D01*
X43243750Y-76073000D01*
X44093000Y-76073000D01*
X44093000Y-74923750D01*
X43934250Y-74765000D01*
X43593691Y-74765000D01*
X43360302Y-74861673D01*
X43181673Y-75040301D01*
X43085000Y-75273690D01*
X35660000Y-75273690D01*
X35660000Y-62835000D01*
X39352560Y-62835000D01*
X39352560Y-64585000D01*
X39401843Y-64832765D01*
X39542191Y-65042809D01*
X39752235Y-65183157D01*
X40000000Y-65232440D01*
X40450000Y-65232440D01*
X40550000Y-65212549D01*
X40650000Y-65232440D01*
X41100000Y-65232440D01*
X41200000Y-65212549D01*
X41300000Y-65232440D01*
X41750000Y-65232440D01*
X41820073Y-65218502D01*
X41823690Y-65220000D01*
X41903750Y-65220000D01*
X41926397Y-65197353D01*
X41997765Y-65183157D01*
X42175000Y-65064731D01*
X42352235Y-65183157D01*
X42423603Y-65197353D01*
X42446250Y-65220000D01*
X42526310Y-65220000D01*
X42529927Y-65218502D01*
X42600000Y-65232440D01*
X43050000Y-65232440D01*
X43150000Y-65212549D01*
X43250000Y-65232440D01*
X43700000Y-65232440D01*
X43770073Y-65218502D01*
X43773690Y-65220000D01*
X43853750Y-65220000D01*
X43876397Y-65197353D01*
X43947765Y-65183157D01*
X44125000Y-65064731D01*
X44302235Y-65183157D01*
X44373603Y-65197353D01*
X44396250Y-65220000D01*
X44476310Y-65220000D01*
X44479927Y-65218502D01*
X44550000Y-65232440D01*
X45000000Y-65232440D01*
X45100000Y-65212549D01*
X45200000Y-65232440D01*
X45650000Y-65232440D01*
X45750000Y-65212549D01*
X45850000Y-65232440D01*
X46300000Y-65232440D01*
X46370073Y-65218502D01*
X46373690Y-65220000D01*
X46453750Y-65220000D01*
X46476397Y-65197353D01*
X46547765Y-65183157D01*
X46729020Y-65062045D01*
X46790301Y-65123327D01*
X46976847Y-65200597D01*
X46996250Y-65220000D01*
X47103750Y-65220000D01*
X47123153Y-65200597D01*
X47309699Y-65123327D01*
X47370980Y-65062045D01*
X47552235Y-65183157D01*
X47623603Y-65197353D01*
X47646250Y-65220000D01*
X47726310Y-65220000D01*
X47729927Y-65218502D01*
X47800000Y-65232440D01*
X48250000Y-65232440D01*
X48350000Y-65212549D01*
X48450000Y-65232440D01*
X48900000Y-65232440D01*
X49147765Y-65183157D01*
X49357809Y-65042809D01*
X49498157Y-64832765D01*
X49547440Y-64585000D01*
X49547440Y-62835000D01*
X49498157Y-62587235D01*
X49357809Y-62377191D01*
X49147765Y-62236843D01*
X48900000Y-62187560D01*
X48450000Y-62187560D01*
X48350000Y-62207451D01*
X48250000Y-62187560D01*
X47800000Y-62187560D01*
X47729927Y-62201498D01*
X47726310Y-62200000D01*
X47646250Y-62200000D01*
X47623603Y-62222647D01*
X47552235Y-62236843D01*
X47370980Y-62357955D01*
X47309699Y-62296673D01*
X47123153Y-62219403D01*
X47103750Y-62200000D01*
X46996250Y-62200000D01*
X46976847Y-62219403D01*
X46790301Y-62296673D01*
X46729020Y-62357955D01*
X46547765Y-62236843D01*
X46476397Y-62222647D01*
X46453750Y-62200000D01*
X46373690Y-62200000D01*
X46370073Y-62201498D01*
X46300000Y-62187560D01*
X45850000Y-62187560D01*
X45750000Y-62207451D01*
X45650000Y-62187560D01*
X45200000Y-62187560D01*
X45100000Y-62207451D01*
X45000000Y-62187560D01*
X44953583Y-62187560D01*
X44997929Y-62157929D01*
X45040330Y-62094471D01*
X48920675Y-58214126D01*
X53575000Y-58214126D01*
X53575000Y-58625874D01*
X53732569Y-59006280D01*
X54023720Y-59297431D01*
X54404126Y-59455000D01*
X54815874Y-59455000D01*
X55196280Y-59297431D01*
X55487431Y-59006280D01*
X55562500Y-58825047D01*
X55637569Y-59006280D01*
X55928720Y-59297431D01*
X56309126Y-59455000D01*
X56720874Y-59455000D01*
X57101280Y-59297431D01*
X57392431Y-59006280D01*
X57550000Y-58625874D01*
X57550000Y-58214126D01*
X57392431Y-57833720D01*
X57275000Y-57716289D01*
X57275000Y-54924801D01*
X61574051Y-50625750D01*
X64605000Y-50625750D01*
X64605000Y-50966309D01*
X64701673Y-51199698D01*
X64880301Y-51378327D01*
X65113690Y-51475000D01*
X65754250Y-51475000D01*
X65913000Y-51316250D01*
X65913000Y-50467000D01*
X66167000Y-50467000D01*
X66167000Y-51316250D01*
X66325750Y-51475000D01*
X66966310Y-51475000D01*
X67199699Y-51378327D01*
X67378327Y-51199698D01*
X67475000Y-50966309D01*
X67475000Y-50625750D01*
X67316250Y-50467000D01*
X66167000Y-50467000D01*
X65913000Y-50467000D01*
X64763750Y-50467000D01*
X64605000Y-50625750D01*
X61574051Y-50625750D01*
X62486110Y-49713691D01*
X64605000Y-49713691D01*
X64605000Y-50054250D01*
X64763750Y-50213000D01*
X65913000Y-50213000D01*
X65913000Y-49363750D01*
X66167000Y-49363750D01*
X66167000Y-50213000D01*
X67316250Y-50213000D01*
X67475000Y-50054250D01*
X67475000Y-49713691D01*
X67378327Y-49480302D01*
X67199699Y-49301673D01*
X66966310Y-49205000D01*
X66325750Y-49205000D01*
X66167000Y-49363750D01*
X65913000Y-49363750D01*
X65754250Y-49205000D01*
X65113690Y-49205000D01*
X64880301Y-49301673D01*
X64701673Y-49480302D01*
X64605000Y-49713691D01*
X62486110Y-49713691D01*
X64289051Y-47910750D01*
X68890000Y-47910750D01*
X68890000Y-51251310D01*
X68986673Y-51484699D01*
X69165302Y-51663327D01*
X69398691Y-51760000D01*
X72739250Y-51760000D01*
X72898000Y-51601250D01*
X72898000Y-47752000D01*
X73152000Y-47752000D01*
X73152000Y-51601250D01*
X73310750Y-51760000D01*
X76651309Y-51760000D01*
X76884698Y-51663327D01*
X77063327Y-51484699D01*
X77160000Y-51251310D01*
X77160000Y-47910750D01*
X77001250Y-47752000D01*
X73152000Y-47752000D01*
X72898000Y-47752000D01*
X69048750Y-47752000D01*
X68890000Y-47910750D01*
X64289051Y-47910750D01*
X68201111Y-43998690D01*
X68890000Y-43998690D01*
X68890000Y-47339250D01*
X69048750Y-47498000D01*
X72898000Y-47498000D01*
X72898000Y-43648750D01*
X73152000Y-43648750D01*
X73152000Y-47498000D01*
X77001250Y-47498000D01*
X77160000Y-47339250D01*
X77160000Y-43998690D01*
X77063327Y-43765301D01*
X76884698Y-43586673D01*
X76651309Y-43490000D01*
X73310750Y-43490000D01*
X73152000Y-43648750D01*
X72898000Y-43648750D01*
X72739250Y-43490000D01*
X69398691Y-43490000D01*
X69165302Y-43586673D01*
X68986673Y-43765301D01*
X68890000Y-43998690D01*
X68201111Y-43998690D01*
X68894802Y-43305000D01*
X74541999Y-43305000D01*
X74616846Y-43319888D01*
X74691693Y-43305000D01*
X74691698Y-43305000D01*
X74913383Y-43260904D01*
X75164775Y-43092929D01*
X75207177Y-43029470D01*
X78888255Y-39348393D01*
X80402430Y-39348393D01*
X80402430Y-39899607D01*
X80613370Y-40408862D01*
X81003138Y-40798630D01*
X81512393Y-41009570D01*
X82063607Y-41009570D01*
X82572862Y-40798630D01*
X82931000Y-40440492D01*
X83289138Y-40798630D01*
X83798393Y-41009570D01*
X84349607Y-41009570D01*
X84858862Y-40798630D01*
X85248630Y-40408862D01*
X85459570Y-39899607D01*
X85459570Y-39348393D01*
X85248630Y-38839138D01*
X84858862Y-38449370D01*
X84349607Y-38238430D01*
X83798393Y-38238430D01*
X83289138Y-38449370D01*
X82931000Y-38807508D01*
X82572862Y-38449370D01*
X82063607Y-38238430D01*
X81512393Y-38238430D01*
X81003138Y-38449370D01*
X80613370Y-38839138D01*
X80402430Y-39348393D01*
X78888255Y-39348393D01*
X82332047Y-35904602D01*
X82395500Y-35862204D01*
X82437898Y-35798751D01*
X82437900Y-35798749D01*
X82563474Y-35610813D01*
X82563475Y-35610812D01*
X82607571Y-35389127D01*
X82607571Y-35389123D01*
X82622459Y-35314276D01*
X82607571Y-35239429D01*
X82607571Y-33594572D01*
X82622459Y-33519725D01*
X82607571Y-33444878D01*
X82607571Y-33444873D01*
X82563475Y-33223188D01*
X82395500Y-32971796D01*
X82332044Y-32929396D01*
X80862606Y-31459959D01*
X80820204Y-31396500D01*
X80568812Y-31228525D01*
X80347127Y-31184429D01*
X80347122Y-31184429D01*
X80272275Y-31169541D01*
X80197428Y-31184429D01*
X78874417Y-31184429D01*
X78799570Y-31169541D01*
X78724723Y-31184429D01*
X78724719Y-31184429D01*
X78503034Y-31228525D01*
X78251642Y-31396500D01*
X78209242Y-31459956D01*
X78024470Y-31644728D01*
X77999607Y-31634430D01*
X77448393Y-31634430D01*
X76939138Y-31845370D01*
X76708000Y-32076508D01*
X76476862Y-31845370D01*
X75967607Y-31634430D01*
X75416393Y-31634430D01*
X75391530Y-31644729D01*
X75206760Y-31459959D01*
X75164358Y-31396500D01*
X74912966Y-31228525D01*
X74691281Y-31184429D01*
X74691276Y-31184429D01*
X74616429Y-31169541D01*
X74541582Y-31184429D01*
X73218571Y-31184429D01*
X73143724Y-31169541D01*
X73068877Y-31184429D01*
X73068873Y-31184429D01*
X73045562Y-31189066D01*
X73151000Y-30934515D01*
X73151000Y-30025485D01*
X81281000Y-30025485D01*
X81281000Y-30934515D01*
X81628870Y-31774349D01*
X82271651Y-32417130D01*
X83111485Y-32765000D01*
X84020515Y-32765000D01*
X84285536Y-32655225D01*
X83957914Y-32982847D01*
X83709000Y-33583778D01*
X83709000Y-34234222D01*
X83957914Y-34835153D01*
X84417847Y-35295086D01*
X85018778Y-35544000D01*
X85669222Y-35544000D01*
X86270153Y-35295086D01*
X86730086Y-34835153D01*
X86979000Y-34234222D01*
X86979000Y-33583778D01*
X86730086Y-32982847D01*
X86270153Y-32522914D01*
X85669222Y-32274000D01*
X85018778Y-32274000D01*
X84992661Y-32284818D01*
X85274308Y-32003171D01*
X90399000Y-32003171D01*
X90399000Y-33528829D01*
X90982844Y-34938353D01*
X92061647Y-36017156D01*
X93471171Y-36601000D01*
X94996829Y-36601000D01*
X96406353Y-36017156D01*
X97485156Y-34938353D01*
X98069000Y-33528829D01*
X98069000Y-32003171D01*
X97485156Y-30593647D01*
X96406353Y-29514844D01*
X94996829Y-28931000D01*
X93471171Y-28931000D01*
X92061647Y-29514844D01*
X90982844Y-30593647D01*
X90399000Y-32003171D01*
X85274308Y-32003171D01*
X85503130Y-31774349D01*
X85851000Y-30934515D01*
X85851000Y-30025485D01*
X85503130Y-29185651D01*
X84860349Y-28542870D01*
X84020515Y-28195000D01*
X83111485Y-28195000D01*
X82271651Y-28542870D01*
X81628870Y-29185651D01*
X81281000Y-30025485D01*
X73151000Y-30025485D01*
X72803130Y-29185651D01*
X72160349Y-28542870D01*
X71320515Y-28195000D01*
X70411485Y-28195000D01*
X69571651Y-28542870D01*
X68928870Y-29185651D01*
X68581000Y-30025485D01*
X68581000Y-30934515D01*
X68928870Y-31774349D01*
X69439339Y-32284818D01*
X69413222Y-32274000D01*
X68762778Y-32274000D01*
X68161847Y-32522914D01*
X67701914Y-32982847D01*
X67453000Y-33583778D01*
X67453000Y-34234222D01*
X67701914Y-34835153D01*
X68161847Y-35295086D01*
X68762778Y-35544000D01*
X69413222Y-35544000D01*
X70014153Y-35295086D01*
X70474086Y-34835153D01*
X70723000Y-34234222D01*
X70723000Y-33583778D01*
X70474086Y-32982847D01*
X70146464Y-32655225D01*
X70411485Y-32765000D01*
X71320515Y-32765000D01*
X71627074Y-32638020D01*
X71615112Y-32698154D01*
X71630001Y-32773006D01*
X71630000Y-36761289D01*
X71512569Y-36878720D01*
X71355000Y-37259126D01*
X71355000Y-37670874D01*
X71512569Y-38051280D01*
X71803720Y-38342431D01*
X71960516Y-38407378D01*
X71859138Y-38449370D01*
X71501000Y-38807508D01*
X71142862Y-38449370D01*
X70633607Y-38238430D01*
X70082393Y-38238430D01*
X69573138Y-38449370D01*
X69183370Y-38839138D01*
X68972430Y-39348393D01*
X68972430Y-39899607D01*
X69183370Y-40408862D01*
X69573138Y-40798630D01*
X70082393Y-41009570D01*
X70633607Y-41009570D01*
X71142862Y-40798630D01*
X71501000Y-40440492D01*
X71859138Y-40798630D01*
X72368393Y-41009570D01*
X72515095Y-41009570D01*
X72189676Y-41334989D01*
X68215857Y-41334989D01*
X68141010Y-41320101D01*
X68066163Y-41334989D01*
X68066159Y-41334989D01*
X67844474Y-41379085D01*
X67593082Y-41547060D01*
X67550682Y-41610516D01*
X54125528Y-55035671D01*
X54062072Y-55078071D01*
X54019672Y-55141527D01*
X54019671Y-55141528D01*
X53976432Y-55206240D01*
X53894097Y-55329463D01*
X53859462Y-55503587D01*
X53835112Y-55626000D01*
X53850001Y-55700852D01*
X53850000Y-57716289D01*
X53732569Y-57833720D01*
X53575000Y-58214126D01*
X48920675Y-58214126D01*
X50579153Y-56555649D01*
X50642609Y-56513249D01*
X50810584Y-56261857D01*
X50854680Y-56040172D01*
X50854680Y-56040168D01*
X50869568Y-55965321D01*
X50854680Y-55890474D01*
X50854680Y-54631060D01*
X50886017Y-54618080D01*
X51279000Y-54225097D01*
X51491680Y-53711641D01*
X51491680Y-53155879D01*
X51279000Y-52642423D01*
X50886017Y-52249440D01*
X50679167Y-52163760D01*
X50886017Y-52078080D01*
X51279000Y-51685097D01*
X51491680Y-51171641D01*
X51491680Y-50615879D01*
X51279000Y-50102423D01*
X50886017Y-49709440D01*
X50372561Y-49496760D01*
X49816799Y-49496760D01*
X49303343Y-49709440D01*
X49095190Y-49917593D01*
X48887037Y-49709440D01*
X48373581Y-49496760D01*
X47817819Y-49496760D01*
X47304363Y-49709440D01*
X46911380Y-50102423D01*
X46698700Y-50615879D01*
X46698700Y-51171641D01*
X46711680Y-51202978D01*
X43879670Y-54034989D01*
X43316552Y-54034989D01*
X43345000Y-53966309D01*
X43345000Y-53625750D01*
X43186250Y-53467000D01*
X42037000Y-53467000D01*
X42037000Y-53487000D01*
X41783000Y-53487000D01*
X41783000Y-53467000D01*
X40633750Y-53467000D01*
X40475000Y-53625750D01*
X40475000Y-53966309D01*
X40546718Y-54139451D01*
X40385669Y-54247060D01*
X40343269Y-54310516D01*
X39740530Y-54913256D01*
X39677071Y-54955658D01*
X39509096Y-55207051D01*
X39465000Y-55428736D01*
X39465000Y-55428740D01*
X39450112Y-55503587D01*
X39465000Y-55578434D01*
X39465001Y-62492713D01*
X39401843Y-62587235D01*
X39352560Y-62835000D01*
X35660000Y-62835000D01*
X35660000Y-52713691D01*
X40475000Y-52713691D01*
X40475000Y-53054250D01*
X40633750Y-53213000D01*
X41783000Y-53213000D01*
X41783000Y-52363750D01*
X42037000Y-52363750D01*
X42037000Y-53213000D01*
X43186250Y-53213000D01*
X43345000Y-53054250D01*
X43345000Y-52713691D01*
X43248327Y-52480302D01*
X43069699Y-52301673D01*
X42836310Y-52205000D01*
X42195750Y-52205000D01*
X42037000Y-52363750D01*
X41783000Y-52363750D01*
X41624250Y-52205000D01*
X40983690Y-52205000D01*
X40750301Y-52301673D01*
X40571673Y-52480302D01*
X40475000Y-52713691D01*
X35660000Y-52713691D01*
X35660000Y-45769437D01*
X43410670Y-45769437D01*
X43410670Y-46559123D01*
X43712869Y-47288698D01*
X44271262Y-47847091D01*
X45000837Y-48149290D01*
X45790523Y-48149290D01*
X46520098Y-47847091D01*
X47078491Y-47288698D01*
X47380690Y-46559123D01*
X47380690Y-45769437D01*
X47078491Y-45039862D01*
X46520098Y-44481469D01*
X45790523Y-44179270D01*
X45000837Y-44179270D01*
X44271262Y-44481469D01*
X43712869Y-45039862D01*
X43410670Y-45769437D01*
X35660000Y-45769437D01*
X35660000Y-39348393D01*
X49287430Y-39348393D01*
X49287430Y-39899607D01*
X49498370Y-40408862D01*
X49888138Y-40798630D01*
X50397393Y-41009570D01*
X50948607Y-41009570D01*
X51457862Y-40798630D01*
X51816000Y-40440492D01*
X52174138Y-40798630D01*
X52683393Y-41009570D01*
X53234607Y-41009570D01*
X53743862Y-40798630D01*
X54133630Y-40408862D01*
X54344570Y-39899607D01*
X54344570Y-39348393D01*
X54133630Y-38839138D01*
X53743862Y-38449370D01*
X53234607Y-38238430D01*
X52683393Y-38238430D01*
X52174138Y-38449370D01*
X51816000Y-38807508D01*
X51457862Y-38449370D01*
X50948607Y-38238430D01*
X50397393Y-38238430D01*
X49888138Y-38449370D01*
X49498370Y-38839138D01*
X49287430Y-39348393D01*
X35660000Y-39348393D01*
X35660000Y-32003171D01*
X39091000Y-32003171D01*
X39091000Y-33528829D01*
X39674844Y-34938353D01*
X40753647Y-36017156D01*
X42163171Y-36601000D01*
X43688829Y-36601000D01*
X45098353Y-36017156D01*
X46177156Y-34938353D01*
X46738239Y-33583778D01*
X47768000Y-33583778D01*
X47768000Y-34234222D01*
X48016914Y-34835153D01*
X48476847Y-35295086D01*
X49077778Y-35544000D01*
X49728222Y-35544000D01*
X50329153Y-35295086D01*
X50789086Y-34835153D01*
X51038000Y-34234222D01*
X51038000Y-33583778D01*
X50789086Y-32982847D01*
X50461464Y-32655225D01*
X50726485Y-32765000D01*
X51635515Y-32765000D01*
X51942074Y-32638020D01*
X51930112Y-32698154D01*
X51945000Y-32773001D01*
X51945001Y-34028995D01*
X51930112Y-34103846D01*
X51989097Y-34400383D01*
X52081977Y-34539387D01*
X52157072Y-34651775D01*
X52220528Y-34694175D01*
X55120000Y-37593648D01*
X55120001Y-40565148D01*
X55105112Y-40640000D01*
X55120001Y-40714852D01*
X55164097Y-40936537D01*
X55332072Y-41187929D01*
X55395528Y-41230329D01*
X56750000Y-42584802D01*
X56750000Y-42750874D01*
X56907569Y-43131280D01*
X57198720Y-43422431D01*
X57579126Y-43580000D01*
X57990874Y-43580000D01*
X58371280Y-43422431D01*
X58662431Y-43131280D01*
X58820000Y-42750874D01*
X58820000Y-42339126D01*
X58662431Y-41958720D01*
X58371280Y-41667569D01*
X57990874Y-41510000D01*
X57824802Y-41510000D01*
X56640000Y-40325199D01*
X56640000Y-39348393D01*
X60717430Y-39348393D01*
X60717430Y-39899607D01*
X60928370Y-40408862D01*
X61318138Y-40798630D01*
X61827393Y-41009570D01*
X62378607Y-41009570D01*
X62887862Y-40798630D01*
X63246000Y-40440492D01*
X63604138Y-40798630D01*
X64113393Y-41009570D01*
X64664607Y-41009570D01*
X65173862Y-40798630D01*
X65563630Y-40408862D01*
X65774570Y-39899607D01*
X65774570Y-39348393D01*
X65563630Y-38839138D01*
X65173862Y-38449370D01*
X64664607Y-38238430D01*
X64113393Y-38238430D01*
X63604138Y-38449370D01*
X63246000Y-38807508D01*
X62887862Y-38449370D01*
X62378607Y-38238430D01*
X61827393Y-38238430D01*
X61318138Y-38449370D01*
X60928370Y-38839138D01*
X60717430Y-39348393D01*
X56640000Y-39348393D01*
X56640000Y-37353692D01*
X56654888Y-37278845D01*
X56640000Y-37203998D01*
X56640000Y-37203994D01*
X56595904Y-36982309D01*
X56427929Y-36730917D01*
X56364473Y-36688517D01*
X55685864Y-36009908D01*
X55775862Y-35972630D01*
X56007000Y-35741492D01*
X56238138Y-35972630D01*
X56747393Y-36183570D01*
X57298607Y-36183570D01*
X57807862Y-35972630D01*
X58039000Y-35741492D01*
X58270138Y-35972630D01*
X58779393Y-36183570D01*
X59330607Y-36183570D01*
X59839862Y-35972630D01*
X60042562Y-35769930D01*
X60294675Y-35769930D01*
X60362735Y-36010931D01*
X60882034Y-36195767D01*
X61432538Y-36167805D01*
X61811265Y-36010931D01*
X61879325Y-35769930D01*
X61087000Y-34977605D01*
X60294675Y-35769930D01*
X60042562Y-35769930D01*
X60229630Y-35582862D01*
X60305359Y-35400036D01*
X60907395Y-34798000D01*
X61266605Y-34798000D01*
X62058930Y-35590325D01*
X62299931Y-35522265D01*
X62484767Y-35002966D01*
X62456805Y-34452462D01*
X62299931Y-34073735D01*
X62058930Y-34005675D01*
X61266605Y-34798000D01*
X60907395Y-34798000D01*
X60893253Y-34783858D01*
X61072858Y-34604253D01*
X61087000Y-34618395D01*
X61879325Y-33826070D01*
X61811265Y-33585069D01*
X61397651Y-33437850D01*
X61456570Y-33295607D01*
X61456570Y-32744393D01*
X61245630Y-32235138D01*
X60855862Y-31845370D01*
X60346607Y-31634430D01*
X59795393Y-31634430D01*
X59286138Y-31845370D01*
X59055000Y-32076508D01*
X58823862Y-31845370D01*
X58314607Y-31634430D01*
X57763393Y-31634430D01*
X57254138Y-31845370D01*
X57023000Y-32076508D01*
X56791862Y-31845370D01*
X56282607Y-31634430D01*
X55731393Y-31634430D01*
X55706530Y-31644729D01*
X55521760Y-31459959D01*
X55479358Y-31396500D01*
X55227966Y-31228525D01*
X55006281Y-31184429D01*
X55006276Y-31184429D01*
X54931429Y-31169541D01*
X54856582Y-31184429D01*
X53533571Y-31184429D01*
X53458724Y-31169541D01*
X53383877Y-31184429D01*
X53383873Y-31184429D01*
X53360562Y-31189066D01*
X53466000Y-30934515D01*
X53466000Y-30025485D01*
X61596000Y-30025485D01*
X61596000Y-30934515D01*
X61943870Y-31774349D01*
X62586651Y-32417130D01*
X63426485Y-32765000D01*
X64335515Y-32765000D01*
X64600536Y-32655225D01*
X64272914Y-32982847D01*
X64024000Y-33583778D01*
X64024000Y-34234222D01*
X64272914Y-34835153D01*
X64732847Y-35295086D01*
X65333778Y-35544000D01*
X65984222Y-35544000D01*
X66585153Y-35295086D01*
X67045086Y-34835153D01*
X67294000Y-34234222D01*
X67294000Y-33583778D01*
X67045086Y-32982847D01*
X66585153Y-32522914D01*
X65984222Y-32274000D01*
X65333778Y-32274000D01*
X65307661Y-32284818D01*
X65818130Y-31774349D01*
X66166000Y-30934515D01*
X66166000Y-30025485D01*
X65818130Y-29185651D01*
X65175349Y-28542870D01*
X64335515Y-28195000D01*
X63426485Y-28195000D01*
X62586651Y-28542870D01*
X61943870Y-29185651D01*
X61596000Y-30025485D01*
X53466000Y-30025485D01*
X53118130Y-29185651D01*
X52475349Y-28542870D01*
X51635515Y-28195000D01*
X50726485Y-28195000D01*
X49886651Y-28542870D01*
X49243870Y-29185651D01*
X48896000Y-30025485D01*
X48896000Y-30934515D01*
X49243870Y-31774349D01*
X49754339Y-32284818D01*
X49728222Y-32274000D01*
X49077778Y-32274000D01*
X48476847Y-32522914D01*
X48016914Y-32982847D01*
X47768000Y-33583778D01*
X46738239Y-33583778D01*
X46761000Y-33528829D01*
X46761000Y-32003171D01*
X46177156Y-30593647D01*
X45098353Y-29514844D01*
X43688829Y-28931000D01*
X42163171Y-28931000D01*
X40753647Y-29514844D01*
X39674844Y-30593647D01*
X39091000Y-32003171D01*
X35660000Y-32003171D01*
X35660000Y-25500000D01*
X101500001Y-25500000D01*
X101500001Y-46289789D01*
G36*
X48289448Y-53419618D02*
X48275305Y-53433760D01*
X48799852Y-53958307D01*
X48910360Y-54225097D01*
X49303343Y-54618080D01*
X49334681Y-54631061D01*
X49334680Y-55650518D01*
X47332688Y-57652510D01*
X47078491Y-57038822D01*
X46520098Y-56480429D01*
X45790523Y-56178230D01*
X45000837Y-56178230D01*
X44271262Y-56480429D01*
X43712869Y-57038822D01*
X43410670Y-57768397D01*
X43410670Y-58558083D01*
X43712869Y-59287658D01*
X44271262Y-59846051D01*
X44884950Y-60100248D01*
X44150199Y-60835000D01*
X43883711Y-60835000D01*
X43766280Y-60717569D01*
X43385874Y-60560000D01*
X42974126Y-60560000D01*
X42593720Y-60717569D01*
X42302569Y-61008720D01*
X42285000Y-61051135D01*
X42285000Y-57789801D01*
X42394470Y-57680331D01*
X42457929Y-57637929D01*
X42558483Y-57487440D01*
X42710000Y-57487440D01*
X42957765Y-57438157D01*
X43167809Y-57297809D01*
X43308157Y-57087765D01*
X43357440Y-56840000D01*
X43357440Y-56005000D01*
X44375153Y-56005000D01*
X44450000Y-56019888D01*
X44524847Y-56005000D01*
X44524852Y-56005000D01*
X44746537Y-55960904D01*
X44997929Y-55792929D01*
X45040331Y-55729470D01*
X46355828Y-54413973D01*
X47295092Y-54413973D01*
X47364557Y-54656157D01*
X47888002Y-54842904D01*
X48443068Y-54815122D01*
X48826843Y-54656157D01*
X48896308Y-54413973D01*
X48095700Y-53613365D01*
X47295092Y-54413973D01*
X46355828Y-54413973D01*
X46794689Y-53975112D01*
X46873303Y-54164903D01*
X47115487Y-54234368D01*
X47916095Y-53433760D01*
X47901953Y-53419618D01*
X48081558Y-53240013D01*
X48095700Y-53254155D01*
X48109843Y-53240013D01*
X48289448Y-53419618D01*
X48289448Y-53419618D01*
G37*
X48289448Y-53419618D02*
X48275305Y-53433760D01*
X48799852Y-53958307D01*
X48910360Y-54225097D01*
X49303343Y-54618080D01*
X49334681Y-54631061D01*
X49334680Y-55650518D01*
X47332688Y-57652510D01*
X47078491Y-57038822D01*
X46520098Y-56480429D01*
X45790523Y-56178230D01*
X45000837Y-56178230D01*
X44271262Y-56480429D01*
X43712869Y-57038822D01*
X43410670Y-57768397D01*
X43410670Y-58558083D01*
X43712869Y-59287658D01*
X44271262Y-59846051D01*
X44884950Y-60100248D01*
X44150199Y-60835000D01*
X43883711Y-60835000D01*
X43766280Y-60717569D01*
X43385874Y-60560000D01*
X42974126Y-60560000D01*
X42593720Y-60717569D01*
X42302569Y-61008720D01*
X42285000Y-61051135D01*
X42285000Y-57789801D01*
X42394470Y-57680331D01*
X42457929Y-57637929D01*
X42558483Y-57487440D01*
X42710000Y-57487440D01*
X42957765Y-57438157D01*
X43167809Y-57297809D01*
X43308157Y-57087765D01*
X43357440Y-56840000D01*
X43357440Y-56005000D01*
X44375153Y-56005000D01*
X44450000Y-56019888D01*
X44524847Y-56005000D01*
X44524852Y-56005000D01*
X44746537Y-55960904D01*
X44997929Y-55792929D01*
X45040331Y-55729470D01*
X46355828Y-54413973D01*
X47295092Y-54413973D01*
X47364557Y-54656157D01*
X47888002Y-54842904D01*
X48443068Y-54815122D01*
X48826843Y-54656157D01*
X48896308Y-54413973D01*
X48095700Y-53613365D01*
X47295092Y-54413973D01*
X46355828Y-54413973D01*
X46794689Y-53975112D01*
X46873303Y-54164903D01*
X47115487Y-54234368D01*
X47916095Y-53433760D01*
X47901953Y-53419618D01*
X48081558Y-53240013D01*
X48095700Y-53254155D01*
X48109843Y-53240013D01*
X48289448Y-53419618D01*
G36*
X80965748Y-34783858D02*
X80951605Y-34798000D01*
X80965748Y-34812143D01*
X80786143Y-34991748D01*
X80772000Y-34977605D01*
X79979675Y-35769930D01*
X80047735Y-36010931D01*
X80068663Y-36018380D01*
X74302045Y-41785000D01*
X73889267Y-41785000D01*
X79224473Y-36449795D01*
X79287929Y-36407395D01*
X79455904Y-36156003D01*
X79489463Y-35987293D01*
X79524862Y-35972630D01*
X79914630Y-35582862D01*
X79990359Y-35400036D01*
X80592395Y-34798000D01*
X80578253Y-34783858D01*
X80757858Y-34604253D01*
X80772000Y-34618395D01*
X80786143Y-34604253D01*
X80965748Y-34783858D01*
X80965748Y-34783858D01*
G37*
X80965748Y-34783858D02*
X80951605Y-34798000D01*
X80965748Y-34812143D01*
X80786143Y-34991748D01*
X80772000Y-34977605D01*
X79979675Y-35769930D01*
X80047735Y-36010931D01*
X80068663Y-36018380D01*
X74302045Y-41785000D01*
X73889267Y-41785000D01*
X79224473Y-36449795D01*
X79287929Y-36407395D01*
X79455904Y-36156003D01*
X79489463Y-35987293D01*
X79524862Y-35972630D01*
X79914630Y-35582862D01*
X79990359Y-35400036D01*
X80592395Y-34798000D01*
X80578253Y-34783858D01*
X80757858Y-34604253D01*
X80772000Y-34618395D01*
X80786143Y-34604253D01*
X80965748Y-34783858D01*
G36*
X61565000Y-107089802D02*
X61565000Y-107246288D01*
X61316890Y-107143524D01*
X61087000Y-107264845D01*
X61087000Y-108458000D01*
X61107000Y-108458000D01*
X61107000Y-108712000D01*
X61087000Y-108712000D01*
X61087000Y-108732000D01*
X60833000Y-108732000D01*
X60833000Y-108712000D01*
X60813000Y-108712000D01*
X60813000Y-108458000D01*
X60833000Y-108458000D01*
X60833000Y-107264845D01*
X60603110Y-107143524D01*
X60193076Y-107313355D01*
X59764817Y-107703642D01*
X59703843Y-107833478D01*
X59490625Y-107514375D01*
X58999418Y-107186161D01*
X58566256Y-107100000D01*
X58545000Y-107100000D01*
X58545000Y-104208711D01*
X58614455Y-104139256D01*
X61565000Y-107089802D01*
X61565000Y-107089802D01*
G37*
X61565000Y-107089802D02*
X61565000Y-107246288D01*
X61316890Y-107143524D01*
X61087000Y-107264845D01*
X61087000Y-108458000D01*
X61107000Y-108458000D01*
X61107000Y-108712000D01*
X61087000Y-108712000D01*
X61087000Y-108732000D01*
X60833000Y-108732000D01*
X60833000Y-108712000D01*
X60813000Y-108712000D01*
X60813000Y-108458000D01*
X60833000Y-108458000D01*
X60833000Y-107264845D01*
X60603110Y-107143524D01*
X60193076Y-107313355D01*
X59764817Y-107703642D01*
X59703843Y-107833478D01*
X59490625Y-107514375D01*
X58999418Y-107186161D01*
X58566256Y-107100000D01*
X58545000Y-107100000D01*
X58545000Y-104208711D01*
X58614455Y-104139256D01*
X61565000Y-107089802D01*
G36*
X63627000Y-108458000D02*
X63647000Y-108458000D01*
X63647000Y-108712000D01*
X63627000Y-108712000D01*
X63627000Y-108732000D01*
X63373000Y-108732000D01*
X63373000Y-108712000D01*
X63353000Y-108712000D01*
X63353000Y-108458000D01*
X63373000Y-108458000D01*
X63373000Y-108438000D01*
X63627000Y-108438000D01*
X63627000Y-108458000D01*
X63627000Y-108458000D01*
G37*
X63627000Y-108458000D02*
X63647000Y-108458000D01*
X63647000Y-108712000D01*
X63627000Y-108712000D01*
X63627000Y-108732000D01*
X63373000Y-108732000D01*
X63373000Y-108712000D01*
X63353000Y-108712000D01*
X63353000Y-108458000D01*
X63373000Y-108458000D01*
X63373000Y-108438000D01*
X63627000Y-108438000D01*
X63627000Y-108458000D01*
G36*
X39880001Y-117230148D02*
X39865112Y-117305000D01*
X39880001Y-117379852D01*
X39924097Y-117601537D01*
X40092072Y-117852929D01*
X40155528Y-117895329D01*
X40473669Y-118213470D01*
X40516071Y-118276929D01*
X40666560Y-118377483D01*
X40666560Y-118579000D01*
X40715843Y-118826765D01*
X40856191Y-119036809D01*
X41066235Y-119177157D01*
X41314000Y-119226440D01*
X43014000Y-119226440D01*
X43261765Y-119177157D01*
X43471809Y-119036809D01*
X43612157Y-118826765D01*
X43632739Y-118723292D01*
X43937076Y-119000645D01*
X44347110Y-119170476D01*
X44577000Y-119049155D01*
X44577000Y-117856000D01*
X44831000Y-117856000D01*
X44831000Y-119049155D01*
X45060890Y-119170476D01*
X45470924Y-119000645D01*
X45899183Y-118610358D01*
X45974000Y-118451046D01*
X46048817Y-118610358D01*
X46477076Y-119000645D01*
X46887110Y-119170476D01*
X47117000Y-119049155D01*
X47117000Y-117856000D01*
X44831000Y-117856000D01*
X44577000Y-117856000D01*
X44557000Y-117856000D01*
X44557000Y-117602000D01*
X44577000Y-117602000D01*
X44577000Y-116408845D01*
X44831000Y-116408845D01*
X44831000Y-117602000D01*
X47117000Y-117602000D01*
X47117000Y-116408845D01*
X47371000Y-116408845D01*
X47371000Y-117602000D01*
X47391000Y-117602000D01*
X47391000Y-117856000D01*
X47371000Y-117856000D01*
X47371000Y-119049155D01*
X47600890Y-119170476D01*
X48010924Y-119000645D01*
X48439183Y-118610358D01*
X48500157Y-118480522D01*
X48713375Y-118799625D01*
X49204582Y-119127839D01*
X49637744Y-119214000D01*
X49930256Y-119214000D01*
X50363418Y-119127839D01*
X50854625Y-118799625D01*
X51182839Y-118308418D01*
X51298092Y-117729000D01*
X51182839Y-117149582D01*
X50854625Y-116658375D01*
X50363418Y-116330161D01*
X49930256Y-116244000D01*
X49637744Y-116244000D01*
X49204582Y-116330161D01*
X48713375Y-116658375D01*
X48500157Y-116977478D01*
X48439183Y-116847642D01*
X48010924Y-116457355D01*
X47600890Y-116287524D01*
X47371000Y-116408845D01*
X47117000Y-116408845D01*
X46887110Y-116287524D01*
X46477076Y-116457355D01*
X46048817Y-116847642D01*
X45974000Y-117006954D01*
X45899183Y-116847642D01*
X45470924Y-116457355D01*
X45060890Y-116287524D01*
X44831000Y-116408845D01*
X44577000Y-116408845D01*
X44347110Y-116287524D01*
X43937076Y-116457355D01*
X43632739Y-116734708D01*
X43612157Y-116631235D01*
X43471809Y-116421191D01*
X43261765Y-116280843D01*
X43014000Y-116231560D01*
X41400000Y-116231560D01*
X41400000Y-115062000D01*
X90399000Y-115062000D01*
X90399000Y-116586829D01*
X90982844Y-117996353D01*
X92061647Y-119075156D01*
X93471171Y-119659000D01*
X94996829Y-119659000D01*
X96406353Y-119075156D01*
X97485156Y-117996353D01*
X98069000Y-116586829D01*
X98069000Y-115062000D01*
X101500000Y-115062000D01*
X101500001Y-123090000D01*
X35660000Y-123090000D01*
X35660000Y-115062000D01*
X39880001Y-115062000D01*
X39880001Y-117230148D01*
X39880001Y-117230148D01*
G37*
X39880001Y-117230148D02*
X39865112Y-117305000D01*
X39880001Y-117379852D01*
X39924097Y-117601537D01*
X40092072Y-117852929D01*
X40155528Y-117895329D01*
X40473669Y-118213470D01*
X40516071Y-118276929D01*
X40666560Y-118377483D01*
X40666560Y-118579000D01*
X40715843Y-118826765D01*
X40856191Y-119036809D01*
X41066235Y-119177157D01*
X41314000Y-119226440D01*
X43014000Y-119226440D01*
X43261765Y-119177157D01*
X43471809Y-119036809D01*
X43612157Y-118826765D01*
X43632739Y-118723292D01*
X43937076Y-119000645D01*
X44347110Y-119170476D01*
X44577000Y-119049155D01*
X44577000Y-117856000D01*
X44831000Y-117856000D01*
X44831000Y-119049155D01*
X45060890Y-119170476D01*
X45470924Y-119000645D01*
X45899183Y-118610358D01*
X45974000Y-118451046D01*
X46048817Y-118610358D01*
X46477076Y-119000645D01*
X46887110Y-119170476D01*
X47117000Y-119049155D01*
X47117000Y-117856000D01*
X44831000Y-117856000D01*
X44577000Y-117856000D01*
X44557000Y-117856000D01*
X44557000Y-117602000D01*
X44577000Y-117602000D01*
X44577000Y-116408845D01*
X44831000Y-116408845D01*
X44831000Y-117602000D01*
X47117000Y-117602000D01*
X47117000Y-116408845D01*
X47371000Y-116408845D01*
X47371000Y-117602000D01*
X47391000Y-117602000D01*
X47391000Y-117856000D01*
X47371000Y-117856000D01*
X47371000Y-119049155D01*
X47600890Y-119170476D01*
X48010924Y-119000645D01*
X48439183Y-118610358D01*
X48500157Y-118480522D01*
X48713375Y-118799625D01*
X49204582Y-119127839D01*
X49637744Y-119214000D01*
X49930256Y-119214000D01*
X50363418Y-119127839D01*
X50854625Y-118799625D01*
X51182839Y-118308418D01*
X51298092Y-117729000D01*
X51182839Y-117149582D01*
X50854625Y-116658375D01*
X50363418Y-116330161D01*
X49930256Y-116244000D01*
X49637744Y-116244000D01*
X49204582Y-116330161D01*
X48713375Y-116658375D01*
X48500157Y-116977478D01*
X48439183Y-116847642D01*
X48010924Y-116457355D01*
X47600890Y-116287524D01*
X47371000Y-116408845D01*
X47117000Y-116408845D01*
X46887110Y-116287524D01*
X46477076Y-116457355D01*
X46048817Y-116847642D01*
X45974000Y-117006954D01*
X45899183Y-116847642D01*
X45470924Y-116457355D01*
X45060890Y-116287524D01*
X44831000Y-116408845D01*
X44577000Y-116408845D01*
X44347110Y-116287524D01*
X43937076Y-116457355D01*
X43632739Y-116734708D01*
X43612157Y-116631235D01*
X43471809Y-116421191D01*
X43261765Y-116280843D01*
X43014000Y-116231560D01*
X41400000Y-116231560D01*
X41400000Y-115062000D01*
X90399000Y-115062000D01*
X90399000Y-116586829D01*
X90982844Y-117996353D01*
X92061647Y-119075156D01*
X93471171Y-119659000D01*
X94996829Y-119659000D01*
X96406353Y-119075156D01*
X97485156Y-117996353D01*
X98069000Y-116586829D01*
X98069000Y-115062000D01*
X101500000Y-115062000D01*
X101500001Y-123090000D01*
X35660000Y-123090000D01*
X35660000Y-115062000D01*
X39880001Y-115062000D01*
X39880001Y-117230148D01*
G04 #@! TD*
M02*
