M48
;DRILL file {KiCad (5.0.2)-1} date 2019-01-28 20:15:33
;FORMAT={-:-/ absolute / metric / decimal}
FMAT,2
METRIC,TZ
T1C0.400
T2C0.500
T3C0.813
T4C0.889
T5C1.000
T6C1.143
T7C1.200
T8C1.400
T9C1.570
T10C2.301
T11C3.200
T12C3.300
%
G90
G05
T1
X39.37Y-66.675
X40.64Y-93.345
X40.64Y-104.902
X41.365Y-104.148
X42.418Y-94.869
X43.18Y-61.595
X44.45Y-68.58
X45.72Y-66.675
X46.355Y-97.155
X47.625Y-97.79
X48.895Y-95.885
X52.705Y-66.675
X54.61Y-58.42
X55.245Y-99.695
X55.245Y-101.6
X56.515Y-58.42
X57.06Y-101.6
X57.785Y-42.545
X57.785Y-66.675
X57.785Y-103.505
X70.485Y-45.085
X70.485Y-49.53
X70.485Y-49.53
X72.39Y-37.465
X73.025Y-45.085
X73.025Y-47.625
X73.025Y-49.53
X75.565Y-45.085
X75.565Y-47.625
X75.565Y-49.53
X77.47Y-60.96
X83.566Y-57.15
T2
X91.834Y-32.766
X92.537Y-31.069
X92.537Y-34.463
X94.234Y-30.366
X94.234Y-35.166
X95.931Y-31.069
X95.931Y-34.463
X96.634Y-32.766
X40.526Y-32.766
X41.229Y-31.069
X41.229Y-34.463
X42.926Y-30.366
X42.926Y-35.166
X44.623Y-31.069
X44.623Y-34.463
X45.326Y-32.766
X91.834Y-115.824
X92.537Y-114.127
X92.537Y-117.521
X94.234Y-113.424
X94.234Y-118.224
X95.931Y-114.127
X95.931Y-117.521
X96.634Y-115.824
T3
X48.096Y-50.894
X48.096Y-53.434
X50.095Y-50.894
X50.095Y-53.434
T4
X50.673Y-39.624
X52.959Y-39.624
X53.975Y-33.02
X54.991Y-34.798
X56.007Y-33.02
X57.023Y-34.798
X58.039Y-33.02
X59.055Y-34.798
X60.071Y-33.02
X61.087Y-34.798
X62.103Y-39.624
X64.389Y-39.624
X70.358Y-39.624
X72.644Y-39.624
X73.66Y-33.02
X74.676Y-34.798
X75.692Y-33.02
X76.708Y-34.798
X77.724Y-33.02
X78.74Y-34.798
X79.756Y-33.02
X80.772Y-34.798
X81.788Y-39.624
X84.074Y-39.624
T5
X51.435Y-86.995
X53.975Y-86.995
X56.515Y-86.995
X59.055Y-86.995
X48.895Y-86.995
X51.435Y-86.995
X53.975Y-86.995
X56.515Y-86.995
X59.055Y-86.995
X58.42Y-108.585
X58.42Y-111.125
X60.96Y-108.585
X60.96Y-111.125
X63.5Y-108.585
X63.5Y-111.125
X66.04Y-108.585
X66.04Y-111.125
X68.58Y-108.585
X68.58Y-111.125
X42.164Y-117.729
X44.704Y-117.729
X47.244Y-117.729
X49.784Y-117.729
T6
X79.445Y-77.376
X81.985Y-77.376
X84.525Y-77.376
X79.445Y-102.776
X81.985Y-102.776
X84.525Y-102.776
X79.445Y-92.616
X81.985Y-92.616
X84.525Y-92.616
X79.445Y-82.456
X81.985Y-82.456
X84.525Y-82.456
X79.445Y-97.696
X81.985Y-97.696
X84.525Y-97.696
X79.445Y-87.536
X81.985Y-87.536
X84.525Y-87.536
T7
X92.145Y-72.296
X92.145Y-77.376
X92.145Y-82.456
X92.145Y-87.536
X92.145Y-92.616
X92.145Y-97.696
X92.145Y-102.776
T8
X92.145Y-48.166
X92.145Y-53.246
T9
X49.403Y-33.909
X65.659Y-33.909
X69.088Y-33.909
X85.344Y-33.909
T10
X45.396Y-46.164
X45.396Y-58.163
T11
X94.234Y-32.766
X42.926Y-32.766
X94.234Y-115.824
T12
X51.181Y-30.48
X63.881Y-30.48
X70.866Y-30.48
X83.566Y-30.48
T0
M30
