M48
;DRILL file {PCBnew (2010-05-05 BZR 2356)-stable} date 2013-08-19 11:45:50
;FORMAT={3:3/ absolute / metric / keep zeros}
R,T
VER,1
FMAT,2
METRIC,TZ
TCST,OFF
ICI,OFF
ATC,ON
T1C0.635
T2C0.813
T3C1.016
T4C1.100
T5C1.143
T6C1.270
T7C1.349
T8C1.699
T9C1.778
T10C3.048
T11C3.302
%
M47
G05
M71
T1
X085349Y-134051
X085601Y-115999
X102850Y-149949
X110449Y-152751
X157350Y-127201
X165499Y-120800
X165600Y-123149
X174051Y-087650
X176901Y-077450
X177749Y-080000
X183551Y-148849
X184749Y-051199
X185801Y-059451
X186299Y-095801
X188450Y-085499
X190650Y-155600
X191000Y-062850
X191201Y-123500
X192550Y-121849
X192570Y-077429
X192750Y-059101
X193149Y-079949
X194701Y-121100
X197401Y-060749
X198999Y-085601
X202199Y-058651
X206751Y-099299
X208750Y-064600
X208750Y-079751
X209250Y-126700
X210251Y-125700
X210251Y-127851
X210401Y-077600
X210449Y-115451
X210551Y-111750
X211351Y-117500
X211399Y-120950
X211501Y-119149
X211800Y-113850
X214701Y-151950
X217249Y-077099
X217599Y-086850
X217701Y-122349
X217749Y-126850
X217800Y-115600
X219400Y-117399
X219451Y-069050
X220500Y-130200
X220850Y-120749
X220901Y-119149
X221000Y-101001
X223200Y-060551
X223550Y-102949
X224300Y-079101
X224399Y-068501
X225049Y-091900
X225549Y-130401
X231501Y-094300
T2
X077950Y-142845
X077950Y-146655
X079080Y-121379
X081539Y-111651
X081620Y-121379
X081620Y-123919
X085801Y-061940
X085801Y-069560
X088450Y-138031
X088450Y-140571
X088501Y-144079
X088501Y-146619
X088699Y-121290
X088699Y-128910
X089159Y-111651
X092680Y-069601
X094981Y-121430
X095220Y-069601
X097521Y-121430
X097521Y-123970
X098389Y-111501
X104699Y-121341
X104699Y-128961
X106009Y-111501
X111079Y-120780
X113490Y-111450
X113619Y-120780
X113619Y-123320
X120749Y-120841
X120749Y-128461
X121110Y-111450
X127330Y-120729
X129870Y-120729
X129870Y-123269
X130391Y-111600
X137950Y-120739
X137950Y-128359
X138011Y-111600
X143881Y-120780
X146340Y-111549
X146421Y-120780
X146421Y-123320
X152890Y-124549
X153960Y-111549
X160510Y-124549
X162540Y-097211
X162540Y-099751
X162540Y-102291
X162540Y-104831
X162540Y-107371
X162540Y-109911
X162540Y-112451
X162540Y-114991
X170160Y-097211
X170160Y-099751
X170160Y-102291
X170160Y-104831
X170160Y-107371
X170160Y-109911
X170160Y-112451
X170160Y-114991
X173091Y-074889
X173091Y-077429
X173091Y-079969
X173091Y-082509
X180711Y-074889
X180711Y-077429
X180711Y-079969
X180711Y-082509
X181051Y-092794
X181051Y-096604
X181201Y-101945
X181201Y-105755
X181201Y-112494
X181201Y-116304
X188689Y-091900
X188839Y-074889
X188839Y-077429
X188839Y-079969
X188839Y-082509
X189441Y-117249
X189451Y-108796
X189451Y-112606
X191140Y-098400
X192631Y-148199
X194211Y-144000
X195171Y-148199
X196309Y-091900
X196459Y-074889
X196459Y-077429
X196459Y-079969
X196459Y-082509
X197061Y-117249
X198481Y-148199
X198760Y-098400
X199291Y-144000
X199829Y-109350
X199931Y-113599
X201021Y-148199
X201150Y-094691
X201150Y-102311
X202369Y-109350
X202471Y-113599
X205941Y-074889
X205941Y-077429
X205941Y-079969
X205941Y-082509
X213561Y-074889
X213561Y-077429
X213561Y-079969
X213561Y-082509
X216350Y-094691
X216350Y-102311
X220289Y-074889
X220289Y-077429
X220289Y-079969
X220289Y-082509
X220304Y-142799
X221539Y-129949
X227909Y-074889
X227909Y-077429
X227909Y-079969
X227909Y-082509
X229050Y-089360
X229050Y-091900
X229050Y-094440
X229050Y-096980
X229050Y-099520
X229050Y-102060
X229050Y-104600
X229050Y-107140
X229050Y-109680
X229050Y-112220
X229050Y-114760
X229050Y-117300
X229050Y-119840
X229050Y-122380
X229050Y-124920
X229050Y-127460
X229159Y-129949
X229194Y-142799
T3
X099400Y-051001
X104399Y-051001
X109400Y-051001
X114399Y-051001
X119400Y-051001
X124399Y-051001
X154539Y-055024
X155809Y-052230
X157206Y-055024
X158603Y-052230
X160000Y-055024
X161270Y-052230
X162667Y-055024
X164064Y-052230
X165461Y-055024
X189050Y-055626
X191300Y-055601
X192400Y-048801
X193401Y-050800
X194401Y-048801
X195400Y-050800
X196299Y-109329
X196299Y-111869
X196400Y-048801
X197401Y-050800
X198399Y-048801
X199400Y-050800
X200401Y-055601
X201069Y-090249
X202700Y-055601
X203609Y-090249
X205951Y-109329
X205951Y-111869
X206149Y-090249
X208498Y-055626
X208689Y-090249
X210749Y-055601
X211229Y-090249
X211849Y-048801
X212849Y-050800
X213850Y-048801
X214848Y-050800
X215219Y-134831
X215219Y-137371
X215849Y-048801
X216850Y-050800
X217759Y-134831
X217759Y-137371
X217848Y-048801
X218849Y-050800
X219850Y-055601
X220299Y-134831
X220299Y-137371
X222148Y-055601
X222839Y-134831
X222839Y-137371
X225379Y-134831
X225379Y-137371
T4
X079002Y-091549
X079002Y-103751
X085001Y-105750
X091001Y-091549
X091001Y-103751
X095049Y-091549
X095049Y-103751
X101049Y-105750
X107048Y-091549
X107048Y-103751
X111150Y-091549
X111150Y-103751
X117150Y-105750
X123149Y-091549
X123149Y-103751
X127300Y-091549
X127300Y-103751
X133299Y-105750
X139299Y-091549
X139299Y-103751
X143350Y-091600
X143350Y-103802
X149349Y-105801
X155349Y-091600
X155349Y-103802
T5
X097000Y-140459
X097000Y-142999
X097000Y-145539
X141501Y-140310
X141501Y-142850
X141501Y-145390
T6
X209420Y-151849
X219580Y-149309
X219580Y-154389
T7
X079550Y-047300
X084549Y-047300
T8
X204000Y-049901
X223449Y-049901
T9
X187752Y-049901
X207201Y-049901
T10
X113510Y-142999
X147427Y-053627
X158011Y-142850
X172446Y-053627
T11
X189502Y-046500
X202202Y-046500
X208951Y-046500
X221651Y-046500
T0
M30
