%FSLAX45Y45*%
G04 Gerber Fmt 4.5, Leading zero omitted, Abs format (unit mm)*
G04 Created by KiCad (PCBNEW (5.0.2)-1) date 2019-02-21 19:34:58*
%MOMM*%
%LPD*%
G01*
G04 APERTURE LIST*
%ADD10C,0.150000*%
%ADD11C,0.200000*%
%ADD12C,0.300000*%
G04 APERTURE END LIST*
D10*
X9930000Y-4860000D02*
X16500000Y-4860000D01*
X16500000Y-14560000D02*
X16500000Y-4860000D01*
X9930000Y-14560000D02*
X16500000Y-14560000D01*
X9930000Y-4860000D02*
X9930000Y-14560000D01*
D11*
X10080000Y-6360000D02*
X10120000Y-6400000D01*
X10120000Y-6360000D02*
X10080000Y-6400000D01*
X10120000Y-10560000D02*
X10160000Y-10600000D01*
X10160000Y-10560000D02*
X10120000Y-10600000D01*
X10190800Y-8831900D02*
X10230800Y-8871900D01*
X10230800Y-8831900D02*
X10190800Y-8871900D01*
X10317800Y-12654600D02*
X10357800Y-12694600D01*
X10357800Y-12654600D02*
X10317800Y-12694600D01*
X10330000Y-11780000D02*
X10370000Y-11820000D01*
X10370000Y-11780000D02*
X10330000Y-11820000D01*
X10350000Y-11210000D02*
X10390000Y-11250000D01*
X10390000Y-11210000D02*
X10350000Y-11250000D01*
X10571800Y-8323900D02*
X10611800Y-8363900D01*
X10611800Y-8323900D02*
X10571800Y-8363900D01*
X10711302Y-9044101D02*
X10751302Y-9084101D01*
X10751302Y-9044101D02*
X10711302Y-9084101D01*
X10825800Y-8831900D02*
X10865800Y-8871900D01*
X10865800Y-8831900D02*
X10825800Y-8871900D01*
X10850000Y-13190000D02*
X10890000Y-13230000D01*
X10890000Y-13190000D02*
X10850000Y-13230000D01*
X10880000Y-11360000D02*
X10920000Y-11400000D01*
X10920000Y-11360000D02*
X10880000Y-11400000D01*
X10880000Y-12240000D02*
X10920000Y-12280000D01*
X10920000Y-12240000D02*
X10880000Y-12280000D01*
X10970000Y-11780000D02*
X11010000Y-11820000D01*
X11010000Y-11780000D02*
X10970000Y-11820000D01*
X11029000Y-12260900D02*
X11069000Y-12300900D01*
X11069000Y-12260900D02*
X11029000Y-12300900D01*
X11030000Y-11370000D02*
X11070000Y-11410000D01*
X11070000Y-11370000D02*
X11030000Y-11410000D01*
X11220000Y-12070000D02*
X11260000Y-12110000D01*
X11260000Y-12070000D02*
X11220000Y-12110000D01*
X11335801Y-12235500D02*
X11375801Y-12275500D01*
X11375801Y-12235500D02*
X11335801Y-12275500D01*
X11524300Y-8831900D02*
X11564300Y-8871900D01*
X11564300Y-8831900D02*
X11524300Y-8871900D01*
X11714800Y-8006400D02*
X11754800Y-8046400D01*
X11754800Y-8006400D02*
X11714800Y-8046400D01*
X11780000Y-12300000D02*
X11820000Y-12340000D01*
X11820000Y-12300000D02*
X11780000Y-12340000D01*
X11905300Y-8006400D02*
X11945300Y-8046400D01*
X11945300Y-8006400D02*
X11905300Y-8046400D01*
X11999233Y-12516900D02*
X12039233Y-12556900D01*
X12039233Y-12516900D02*
X11999233Y-12556900D01*
X12032300Y-6418900D02*
X12072300Y-6458900D01*
X12072300Y-6418900D02*
X12032300Y-6458900D01*
X12032300Y-8831900D02*
X12072300Y-8871900D01*
X12072300Y-8831900D02*
X12032300Y-8871900D01*
X12301765Y-12610338D02*
X12341765Y-12650338D01*
X12341765Y-12610338D02*
X12301765Y-12650338D01*
X12310000Y-12710000D02*
X12350000Y-12750000D01*
X12350000Y-12710000D02*
X12310000Y-12750000D01*
X12740000Y-12060000D02*
X12780000Y-12100000D01*
X12780000Y-12060000D02*
X12740000Y-12100000D01*
X13120000Y-12450000D02*
X13160000Y-12490000D01*
X13160000Y-12450000D02*
X13120000Y-12490000D01*
X13120000Y-12600000D02*
X13160000Y-12640000D01*
X13160000Y-12600000D02*
X13120000Y-12640000D01*
X13154800Y-11918000D02*
X13194800Y-11958000D01*
X13194800Y-11918000D02*
X13154800Y-11958000D01*
X13224799Y-12372501D02*
X13264799Y-12412501D01*
X13264799Y-12372501D02*
X13224799Y-12412501D01*
X13270000Y-12700000D02*
X13310000Y-12740000D01*
X13310000Y-12700000D02*
X13270000Y-12740000D01*
X13302300Y-6672900D02*
X13342300Y-6712900D01*
X13342300Y-6672900D02*
X13302300Y-6712900D01*
X13302300Y-7117400D02*
X13342300Y-7157400D01*
X13342300Y-7117400D02*
X13302300Y-7157400D01*
X13492800Y-5910900D02*
X13532800Y-5950900D01*
X13532800Y-5910900D02*
X13492800Y-5950900D01*
X13556300Y-6672900D02*
X13596300Y-6712900D01*
X13596300Y-6672900D02*
X13556300Y-6712900D01*
X13556300Y-6926900D02*
X13596300Y-6966900D01*
X13596300Y-6926900D02*
X13556300Y-6966900D01*
X13556300Y-7117400D02*
X13596300Y-7157400D01*
X13596300Y-7117400D02*
X13556300Y-7157400D01*
X13810300Y-6672900D02*
X13850300Y-6712900D01*
X13850300Y-6672900D02*
X13810300Y-6712900D01*
X13810300Y-6926900D02*
X13850300Y-6966900D01*
X13850300Y-6926900D02*
X13810300Y-6966900D01*
X13810300Y-7117400D02*
X13850300Y-7157400D01*
X13850300Y-7117400D02*
X13810300Y-7157400D01*
X14000800Y-8260400D02*
X14040800Y-8300400D01*
X14040800Y-8260400D02*
X14000800Y-8300400D01*
X14610400Y-7879400D02*
X14650400Y-7919400D01*
X14650400Y-7879400D02*
X14610400Y-7919400D01*
X10351400Y-5461000D02*
G75*
G03X10351400Y-5461000I-25000J0D01*
G01*
X10421694Y-5291294D02*
G75*
G03X10421694Y-5291294I-25000J0D01*
G01*
X10421694Y-5630706D02*
G75*
G03X10421694Y-5630706I-25000J0D01*
G01*
X10591400Y-5221000D02*
G75*
G03X10591400Y-5221000I-25000J0D01*
G01*
X10591400Y-5701000D02*
G75*
G03X10591400Y-5701000I-25000J0D01*
G01*
X10761106Y-5291294D02*
G75*
G03X10761106Y-5291294I-25000J0D01*
G01*
X10761106Y-5630706D02*
G75*
G03X10761106Y-5630706I-25000J0D01*
G01*
X10831400Y-5461000D02*
G75*
G03X10831400Y-5461000I-25000J0D01*
G01*
X15482200Y-13766800D02*
G75*
G03X15482200Y-13766800I-25000J0D01*
G01*
X15552494Y-13597094D02*
G75*
G03X15552494Y-13597094I-25000J0D01*
G01*
X15552494Y-13936506D02*
G75*
G03X15552494Y-13936506I-25000J0D01*
G01*
X15722200Y-13526800D02*
G75*
G03X15722200Y-13526800I-25000J0D01*
G01*
X15722200Y-14006800D02*
G75*
G03X15722200Y-14006800I-25000J0D01*
G01*
X15891906Y-13597094D02*
G75*
G03X15891906Y-13597094I-25000J0D01*
G01*
X15891906Y-13936506D02*
G75*
G03X15891906Y-13936506I-25000J0D01*
G01*
X15962200Y-13766800D02*
G75*
G03X15962200Y-13766800I-25000J0D01*
G01*
X15482200Y-5461000D02*
G75*
G03X15482200Y-5461000I-25000J0D01*
G01*
X15552494Y-5291294D02*
G75*
G03X15552494Y-5291294I-25000J0D01*
G01*
X15552494Y-5630706D02*
G75*
G03X15552494Y-5630706I-25000J0D01*
G01*
X15722200Y-5221000D02*
G75*
G03X15722200Y-5221000I-25000J0D01*
G01*
X15722200Y-5701000D02*
G75*
G03X15722200Y-5701000I-25000J0D01*
G01*
X15891906Y-5291294D02*
G75*
G03X15891906Y-5291294I-25000J0D01*
G01*
X15891906Y-5630706D02*
G75*
G03X15891906Y-5630706I-25000J0D01*
G01*
X15962200Y-5461000D02*
G75*
G03X15962200Y-5461000I-25000J0D01*
G01*
X11083370Y-7233136D02*
X11083370Y-7314416D01*
X11042730Y-7273776D02*
X11124010Y-7273776D01*
X11083370Y-7487136D02*
X11083370Y-7568416D01*
X11042730Y-7527776D02*
X11124010Y-7527776D01*
X11283268Y-7233136D02*
X11283268Y-7314416D01*
X11242628Y-7273776D02*
X11323908Y-7273776D01*
X11283268Y-7487136D02*
X11283268Y-7568416D01*
X11242628Y-7527776D02*
X11323908Y-7527776D01*
X11372531Y-6178231D02*
X11372531Y-6115369D01*
X11309669Y-6115369D01*
X11309669Y-6178231D01*
X11372531Y-6178231D01*
X11601131Y-6178231D02*
X11601131Y-6115369D01*
X11538269Y-6115369D01*
X11538269Y-6178231D01*
X11601131Y-6178231D01*
X11702731Y-5517831D02*
X11702731Y-5454969D01*
X11639869Y-5454969D01*
X11639869Y-5517831D01*
X11702731Y-5517831D01*
X11804331Y-5695631D02*
X11804331Y-5632769D01*
X11741469Y-5632769D01*
X11741469Y-5695631D01*
X11804331Y-5695631D01*
X11905931Y-5517831D02*
X11905931Y-5454969D01*
X11843069Y-5454969D01*
X11843069Y-5517831D01*
X11905931Y-5517831D01*
X12007531Y-5695631D02*
X12007531Y-5632769D01*
X11944669Y-5632769D01*
X11944669Y-5695631D01*
X12007531Y-5695631D01*
X12109131Y-5517831D02*
X12109131Y-5454969D01*
X12046269Y-5454969D01*
X12046269Y-5517831D01*
X12109131Y-5517831D01*
X12210731Y-5695631D02*
X12210731Y-5632769D01*
X12147869Y-5632769D01*
X12147869Y-5695631D01*
X12210731Y-5695631D01*
X12312331Y-5517831D02*
X12312331Y-5454969D01*
X12249469Y-5454969D01*
X12249469Y-5517831D01*
X12312331Y-5517831D01*
X12413931Y-5695631D02*
X12413931Y-5632769D01*
X12351069Y-5632769D01*
X12351069Y-5695631D01*
X12413931Y-5695631D01*
X12515531Y-6178231D02*
X12515531Y-6115369D01*
X12452669Y-6115369D01*
X12452669Y-6178231D01*
X12515531Y-6178231D01*
X12744131Y-6178231D02*
X12744131Y-6115369D01*
X12681269Y-6115369D01*
X12681269Y-6178231D01*
X12744131Y-6178231D01*
X13341031Y-6178231D02*
X13341031Y-6115369D01*
X13278169Y-6115369D01*
X13278169Y-6178231D01*
X13341031Y-6178231D01*
X13569631Y-6178231D02*
X13569631Y-6115369D01*
X13506769Y-6115369D01*
X13506769Y-6178231D01*
X13569631Y-6178231D01*
X13671231Y-5517831D02*
X13671231Y-5454969D01*
X13608369Y-5454969D01*
X13608369Y-5517831D01*
X13671231Y-5517831D01*
X13772831Y-5695631D02*
X13772831Y-5632769D01*
X13709969Y-5632769D01*
X13709969Y-5695631D01*
X13772831Y-5695631D01*
X13874431Y-5517831D02*
X13874431Y-5454969D01*
X13811569Y-5454969D01*
X13811569Y-5517831D01*
X13874431Y-5517831D01*
X13976031Y-5695631D02*
X13976031Y-5632769D01*
X13913169Y-5632769D01*
X13913169Y-5695631D01*
X13976031Y-5695631D01*
X14077631Y-5517831D02*
X14077631Y-5454969D01*
X14014769Y-5454969D01*
X14014769Y-5517831D01*
X14077631Y-5517831D01*
X14179231Y-5695631D02*
X14179231Y-5632769D01*
X14116369Y-5632769D01*
X14116369Y-5695631D01*
X14179231Y-5695631D01*
X14280831Y-5517831D02*
X14280831Y-5454969D01*
X14217969Y-5454969D01*
X14217969Y-5517831D01*
X14280831Y-5517831D01*
X14382431Y-5695631D02*
X14382431Y-5632769D01*
X14319569Y-5632769D01*
X14319569Y-5695631D01*
X14382431Y-5695631D01*
X14484031Y-6178231D02*
X14484031Y-6115369D01*
X14421169Y-6115369D01*
X14421169Y-6178231D01*
X14484031Y-6178231D01*
X14712631Y-6178231D02*
X14712631Y-6115369D01*
X14649769Y-6115369D01*
X14649769Y-6178231D01*
X14712631Y-6178231D01*
X11417300Y-10933900D02*
X11467300Y-10883900D01*
X11417300Y-10833900D01*
X11367300Y-10883900D01*
X11417300Y-10933900D01*
X11671300Y-10933900D02*
X11721300Y-10883900D01*
X11671300Y-10833900D01*
X11621300Y-10883900D01*
X11671300Y-10933900D01*
X11925300Y-10933900D02*
X11975300Y-10883900D01*
X11925300Y-10833900D01*
X11875300Y-10883900D01*
X11925300Y-10933900D01*
X12179300Y-10933900D02*
X12229300Y-10883900D01*
X12179300Y-10833900D01*
X12129300Y-10883900D01*
X12179300Y-10933900D01*
X14211300Y-14045400D02*
X14261300Y-13995400D01*
X14211300Y-13945400D01*
X14161300Y-13995400D01*
X14211300Y-14045400D01*
X14465300Y-14045400D02*
X14515300Y-13995400D01*
X14465300Y-13945400D01*
X14415300Y-13995400D01*
X14465300Y-14045400D01*
X14719300Y-14045400D02*
X14769300Y-13995400D01*
X14719300Y-13945400D01*
X14669300Y-13995400D01*
X14719300Y-14045400D01*
X14973300Y-14045400D02*
X15023300Y-13995400D01*
X14973300Y-13945400D01*
X14923300Y-13995400D01*
X14973300Y-14045400D01*
X13590000Y-13126000D02*
X13640000Y-13076000D01*
X13590000Y-13026000D01*
X13540000Y-13076000D01*
X13590000Y-13126000D01*
X13590000Y-13380000D02*
X13640000Y-13330000D01*
X13590000Y-13280000D01*
X13540000Y-13330000D01*
X13590000Y-13380000D01*
X13844000Y-13126000D02*
X13894000Y-13076000D01*
X13844000Y-13026000D01*
X13794000Y-13076000D01*
X13844000Y-13126000D01*
X13844000Y-13380000D02*
X13894000Y-13330000D01*
X13844000Y-13280000D01*
X13794000Y-13330000D01*
X13844000Y-13380000D01*
X14098000Y-13126000D02*
X14148000Y-13076000D01*
X14098000Y-13026000D01*
X14048000Y-13076000D01*
X14098000Y-13126000D01*
X14098000Y-13380000D02*
X14148000Y-13330000D01*
X14098000Y-13280000D01*
X14048000Y-13330000D01*
X14098000Y-13380000D01*
X14352000Y-13126000D02*
X14402000Y-13076000D01*
X14352000Y-13026000D01*
X14302000Y-13076000D01*
X14352000Y-13126000D01*
X14352000Y-13380000D02*
X14402000Y-13330000D01*
X14352000Y-13280000D01*
X14302000Y-13330000D01*
X14352000Y-13380000D01*
X14606000Y-13126000D02*
X14656000Y-13076000D01*
X14606000Y-13026000D01*
X14556000Y-13076000D01*
X14606000Y-13126000D01*
X14606000Y-13380000D02*
X14656000Y-13330000D01*
X14606000Y-13280000D01*
X14556000Y-13330000D01*
X14606000Y-13380000D01*
X11163300Y-10933900D02*
X11213300Y-10883900D01*
X11163300Y-10833900D01*
X11113300Y-10883900D01*
X11163300Y-10933900D01*
X11417300Y-10933900D02*
X11467300Y-10883900D01*
X11417300Y-10833900D01*
X11367300Y-10883900D01*
X11417300Y-10933900D01*
X11671300Y-10933900D02*
X11721300Y-10883900D01*
X11671300Y-10833900D01*
X11621300Y-10883900D01*
X11671300Y-10933900D01*
X11925300Y-10933900D02*
X11975300Y-10883900D01*
X11925300Y-10833900D01*
X11875300Y-10883900D01*
X11925300Y-10933900D01*
X12179300Y-10933900D02*
X12229300Y-10883900D01*
X12179300Y-10833900D01*
X12129300Y-10883900D01*
X12179300Y-10933900D01*
X14161182Y-10880874D02*
X14275482Y-10995174D01*
X14275482Y-10880874D02*
X14161182Y-10995174D01*
X14275482Y-10938024D02*
G75*
G03X14275482Y-10938024I-57150J0D01*
G01*
X14415182Y-10880874D02*
X14529482Y-10995174D01*
X14529482Y-10880874D02*
X14415182Y-10995174D01*
X14529482Y-10938024D02*
G75*
G03X14529482Y-10938024I-57150J0D01*
G01*
X14669182Y-10880874D02*
X14783482Y-10995174D01*
X14783482Y-10880874D02*
X14669182Y-10995174D01*
X14783482Y-10938024D02*
G75*
G03X14783482Y-10938024I-57150J0D01*
G01*
X14161182Y-9864874D02*
X14275482Y-9979174D01*
X14275482Y-9864874D02*
X14161182Y-9979174D01*
X14275482Y-9922024D02*
G75*
G03X14275482Y-9922024I-57150J0D01*
G01*
X14415182Y-9864874D02*
X14529482Y-9979174D01*
X14529482Y-9864874D02*
X14415182Y-9979174D01*
X14529482Y-9922024D02*
G75*
G03X14529482Y-9922024I-57150J0D01*
G01*
X14669182Y-9864874D02*
X14783482Y-9979174D01*
X14783482Y-9864874D02*
X14669182Y-9979174D01*
X14783482Y-9922024D02*
G75*
G03X14783482Y-9922024I-57150J0D01*
G01*
X14161182Y-12404874D02*
X14275482Y-12519174D01*
X14275482Y-12404874D02*
X14161182Y-12519174D01*
X14275482Y-12462024D02*
G75*
G03X14275482Y-12462024I-57150J0D01*
G01*
X14415182Y-12404874D02*
X14529482Y-12519174D01*
X14529482Y-12404874D02*
X14415182Y-12519174D01*
X14529482Y-12462024D02*
G75*
G03X14529482Y-12462024I-57150J0D01*
G01*
X14669182Y-12404874D02*
X14783482Y-12519174D01*
X14783482Y-12404874D02*
X14669182Y-12519174D01*
X14783482Y-12462024D02*
G75*
G03X14783482Y-12462024I-57150J0D01*
G01*
X14161182Y-11388874D02*
X14275482Y-11503174D01*
X14275482Y-11388874D02*
X14161182Y-11503174D01*
X14275482Y-11446024D02*
G75*
G03X14275482Y-11446024I-57150J0D01*
G01*
X14415182Y-11388874D02*
X14529482Y-11503174D01*
X14529482Y-11388874D02*
X14415182Y-11503174D01*
X14529482Y-11446024D02*
G75*
G03X14529482Y-11446024I-57150J0D01*
G01*
X14669182Y-11388874D02*
X14783482Y-11503174D01*
X14783482Y-11388874D02*
X14669182Y-11503174D01*
X14783482Y-11446024D02*
G75*
G03X14783482Y-11446024I-57150J0D01*
G01*
X14161182Y-10372874D02*
X14275482Y-10487174D01*
X14275482Y-10372874D02*
X14161182Y-10487174D01*
X14275482Y-10430024D02*
G75*
G03X14275482Y-10430024I-57150J0D01*
G01*
X14415182Y-10372874D02*
X14529482Y-10487174D01*
X14529482Y-10372874D02*
X14415182Y-10487174D01*
X14529482Y-10430024D02*
G75*
G03X14529482Y-10430024I-57150J0D01*
G01*
X14669182Y-10372874D02*
X14783482Y-10487174D01*
X14783482Y-10372874D02*
X14669182Y-10487174D01*
X14783482Y-10430024D02*
G75*
G03X14783482Y-10430024I-57150J0D01*
G01*
X14161182Y-11896874D02*
X14275482Y-12011174D01*
X14275482Y-11896874D02*
X14161182Y-12011174D01*
X14275482Y-11954024D02*
G75*
G03X14275482Y-11954024I-57150J0D01*
G01*
X14415182Y-11896874D02*
X14529482Y-12011174D01*
X14529482Y-11896874D02*
X14415182Y-12011174D01*
X14529482Y-11954024D02*
G75*
G03X14529482Y-11954024I-57150J0D01*
G01*
X14669182Y-11896874D02*
X14783482Y-12011174D01*
X14783482Y-11896874D02*
X14669182Y-12011174D01*
X14783482Y-11954024D02*
G75*
G03X14783482Y-11954024I-57150J0D01*
G01*
X15418332Y-9344024D02*
X15558332Y-9484024D01*
X15558332Y-9344024D02*
X15418332Y-9484024D01*
X15488332Y-9344024D02*
X15488332Y-9484024D01*
X15418332Y-9414024D02*
X15558332Y-9414024D01*
X15418332Y-9852024D02*
X15558332Y-9992024D01*
X15558332Y-9852024D02*
X15418332Y-9992024D01*
X15488332Y-9852024D02*
X15488332Y-9992024D01*
X15418332Y-9922024D02*
X15558332Y-9922024D01*
X15418332Y-10360024D02*
X15558332Y-10500024D01*
X15558332Y-10360024D02*
X15418332Y-10500024D01*
X15488332Y-10360024D02*
X15488332Y-10500024D01*
X15418332Y-10430024D02*
X15558332Y-10430024D01*
X15418332Y-10868024D02*
X15558332Y-11008024D01*
X15558332Y-10868024D02*
X15418332Y-11008024D01*
X15488332Y-10868024D02*
X15488332Y-11008024D01*
X15418332Y-10938024D02*
X15558332Y-10938024D01*
X15418332Y-11376024D02*
X15558332Y-11516024D01*
X15558332Y-11376024D02*
X15418332Y-11516024D01*
X15488332Y-11376024D02*
X15488332Y-11516024D01*
X15418332Y-11446024D02*
X15558332Y-11446024D01*
X15418332Y-11884024D02*
X15558332Y-12024024D01*
X15558332Y-11884024D02*
X15418332Y-12024024D01*
X15488332Y-11884024D02*
X15488332Y-12024024D01*
X15418332Y-11954024D02*
X15558332Y-11954024D01*
X15418332Y-12392024D02*
X15558332Y-12532024D01*
X15558332Y-12392024D02*
X15418332Y-12532024D01*
X15488332Y-12392024D02*
X15488332Y-12532024D01*
X15418332Y-12462024D02*
X15558332Y-12462024D01*
X15418332Y-6931024D02*
X15558332Y-7071024D01*
X15558332Y-6931024D02*
X15418332Y-7071024D01*
X15488332Y-6931024D02*
X15488332Y-7071024D01*
X15418332Y-7001024D02*
X15558332Y-7001024D01*
X15418332Y-7439024D02*
X15558332Y-7579024D01*
X15558332Y-7439024D02*
X15418332Y-7579024D01*
X15488332Y-7439024D02*
X15488332Y-7579024D01*
X15418332Y-7509024D02*
X15558332Y-7509024D01*
X11135600Y-5496800D02*
X11292600Y-5653800D01*
X11292600Y-5496800D02*
X11135600Y-5653800D01*
X11269608Y-5630808D02*
X11269608Y-5519792D01*
X11158592Y-5519792D01*
X11158592Y-5630808D01*
X11269608Y-5630808D01*
X12761200Y-5496800D02*
X12918200Y-5653800D01*
X12918200Y-5496800D02*
X12761200Y-5653800D01*
X12895208Y-5630808D02*
X12895208Y-5519792D01*
X12784192Y-5519792D01*
X12784192Y-5630808D01*
X12895208Y-5630808D01*
X13104100Y-5496800D02*
X13261100Y-5653800D01*
X13261100Y-5496800D02*
X13104100Y-5653800D01*
X13238108Y-5630808D02*
X13238108Y-5519792D01*
X13127092Y-5519792D01*
X13127092Y-5630808D01*
X13238108Y-5630808D01*
X14729700Y-5496800D02*
X14886700Y-5653800D01*
X14886700Y-5496800D02*
X14729700Y-5653800D01*
X14863708Y-5630808D02*
X14863708Y-5519792D01*
X14752692Y-5519792D01*
X14752692Y-5630808D01*
X14863708Y-5630808D01*
X10698306Y-6685766D02*
X10928430Y-6915890D01*
X10928430Y-6685766D02*
X10698306Y-6915890D01*
X10813368Y-6915890D02*
X10928430Y-6800828D01*
X10813368Y-6685766D01*
X10698306Y-6800828D01*
X10813368Y-6915890D01*
X10698306Y-7885662D02*
X10928430Y-8115786D01*
X10928430Y-7885662D02*
X10698306Y-8115786D01*
X10813368Y-8115786D02*
X10928430Y-8000724D01*
X10813368Y-7885662D01*
X10698306Y-8000724D01*
X10813368Y-8115786D01*
X10566400Y-5301000D02*
X10566400Y-5621000D01*
X10406400Y-5461000D02*
X10726400Y-5461000D01*
X10726400Y-5461000D02*
G75*
G03X10726400Y-5461000I-160000J0D01*
G01*
X15697200Y-13606800D02*
X15697200Y-13926800D01*
X15537200Y-13766800D02*
X15857200Y-13766800D01*
X15857200Y-13766800D02*
G75*
G03X15857200Y-13766800I-160000J0D01*
G01*
X15697200Y-5301000D02*
X15697200Y-5621000D01*
X15537200Y-5461000D02*
X15857200Y-5461000D01*
X15857200Y-5461000D02*
G75*
G03X15857200Y-5461000I-160000J0D01*
G01*
X11508574Y-5349074D02*
X11508574Y-5115726D01*
X11275226Y-5115726D01*
X11275226Y-5349074D01*
X11508574Y-5349074D01*
X11556900Y-5232400D02*
G75*
G03X11556900Y-5232400I-165000J0D01*
G01*
X12778574Y-5349074D02*
X12778574Y-5115726D01*
X12545226Y-5115726D01*
X12545226Y-5349074D01*
X12778574Y-5349074D01*
X12826900Y-5232400D02*
G75*
G03X12826900Y-5232400I-165000J0D01*
G01*
X13477074Y-5349074D02*
X13477074Y-5115726D01*
X13243726Y-5115726D01*
X13243726Y-5349074D01*
X13477074Y-5349074D01*
X13525400Y-5232400D02*
G75*
G03X13525400Y-5232400I-165000J0D01*
G01*
X14747074Y-5349074D02*
X14747074Y-5115726D01*
X14513726Y-5115726D01*
X14513726Y-5349074D01*
X14747074Y-5349074D01*
X14795400Y-5232400D02*
G75*
G03X14795400Y-5232400I-165000J0D01*
G01*
D12*
X10208928Y-15033214D02*
X10208928Y-14733214D01*
X10280357Y-14733214D01*
X10323214Y-14747500D01*
X10351786Y-14776071D01*
X10366071Y-14804643D01*
X10380357Y-14861786D01*
X10380357Y-14904643D01*
X10366071Y-14961786D01*
X10351786Y-14990357D01*
X10323214Y-15018929D01*
X10280357Y-15033214D01*
X10208928Y-15033214D01*
X10508928Y-15033214D02*
X10508928Y-14833214D01*
X10508928Y-14890357D02*
X10523214Y-14861786D01*
X10537500Y-14847500D01*
X10566071Y-14833214D01*
X10594643Y-14833214D01*
X10694643Y-15033214D02*
X10694643Y-14833214D01*
X10694643Y-14733214D02*
X10680357Y-14747500D01*
X10694643Y-14761786D01*
X10708928Y-14747500D01*
X10694643Y-14733214D01*
X10694643Y-14761786D01*
X10880357Y-15033214D02*
X10851786Y-15018929D01*
X10837500Y-14990357D01*
X10837500Y-14733214D01*
X11037500Y-15033214D02*
X11008928Y-15018929D01*
X10994643Y-14990357D01*
X10994643Y-14733214D01*
X11380357Y-15033214D02*
X11380357Y-14733214D01*
X11480357Y-14947500D01*
X11580357Y-14733214D01*
X11580357Y-15033214D01*
X11851786Y-15033214D02*
X11851786Y-14876071D01*
X11837500Y-14847500D01*
X11808928Y-14833214D01*
X11751786Y-14833214D01*
X11723214Y-14847500D01*
X11851786Y-15018929D02*
X11823214Y-15033214D01*
X11751786Y-15033214D01*
X11723214Y-15018929D01*
X11708928Y-14990357D01*
X11708928Y-14961786D01*
X11723214Y-14933214D01*
X11751786Y-14918929D01*
X11823214Y-14918929D01*
X11851786Y-14904643D01*
X11994643Y-14833214D02*
X11994643Y-15133214D01*
X11994643Y-14847500D02*
X12023214Y-14833214D01*
X12080357Y-14833214D01*
X12108928Y-14847500D01*
X12123214Y-14861786D01*
X12137500Y-14890357D01*
X12137500Y-14976071D01*
X12123214Y-15004643D01*
X12108928Y-15018929D01*
X12080357Y-15033214D01*
X12023214Y-15033214D01*
X11994643Y-15018929D01*
X12266071Y-15004643D02*
X12280357Y-15018929D01*
X12266071Y-15033214D01*
X12251786Y-15018929D01*
X12266071Y-15004643D01*
X12266071Y-15033214D01*
X12266071Y-14847500D02*
X12280357Y-14861786D01*
X12266071Y-14876071D01*
X12251786Y-14861786D01*
X12266071Y-14847500D01*
X12266071Y-14876071D01*
X9882500Y-15507500D02*
X9922500Y-15547500D01*
X9922500Y-15507500D02*
X9882500Y-15547500D01*
X10266071Y-15363214D02*
X10294643Y-15363214D01*
X10323214Y-15377500D01*
X10337500Y-15391786D01*
X10351786Y-15420357D01*
X10366071Y-15477500D01*
X10366071Y-15548929D01*
X10351786Y-15606071D01*
X10337500Y-15634643D01*
X10323214Y-15648929D01*
X10294643Y-15663214D01*
X10266071Y-15663214D01*
X10237500Y-15648929D01*
X10223214Y-15634643D01*
X10208928Y-15606071D01*
X10194643Y-15548929D01*
X10194643Y-15477500D01*
X10208928Y-15420357D01*
X10223214Y-15391786D01*
X10237500Y-15377500D01*
X10266071Y-15363214D01*
X10494643Y-15634643D02*
X10508928Y-15648929D01*
X10494643Y-15663214D01*
X10480357Y-15648929D01*
X10494643Y-15634643D01*
X10494643Y-15663214D01*
X10766071Y-15463214D02*
X10766071Y-15663214D01*
X10694643Y-15348929D02*
X10623214Y-15563214D01*
X10808928Y-15563214D01*
X10980357Y-15363214D02*
X11008928Y-15363214D01*
X11037500Y-15377500D01*
X11051786Y-15391786D01*
X11066071Y-15420357D01*
X11080357Y-15477500D01*
X11080357Y-15548929D01*
X11066071Y-15606071D01*
X11051786Y-15634643D01*
X11037500Y-15648929D01*
X11008928Y-15663214D01*
X10980357Y-15663214D01*
X10951786Y-15648929D01*
X10937500Y-15634643D01*
X10923214Y-15606071D01*
X10908928Y-15548929D01*
X10908928Y-15477500D01*
X10923214Y-15420357D01*
X10937500Y-15391786D01*
X10951786Y-15377500D01*
X10980357Y-15363214D01*
X11208928Y-15663214D02*
X11208928Y-15463214D01*
X11208928Y-15491786D02*
X11223214Y-15477500D01*
X11251786Y-15463214D01*
X11294643Y-15463214D01*
X11323214Y-15477500D01*
X11337500Y-15506071D01*
X11337500Y-15663214D01*
X11337500Y-15506071D02*
X11351786Y-15477500D01*
X11380357Y-15463214D01*
X11423214Y-15463214D01*
X11451786Y-15477500D01*
X11466071Y-15506071D01*
X11466071Y-15663214D01*
X11608928Y-15663214D02*
X11608928Y-15463214D01*
X11608928Y-15491786D02*
X11623214Y-15477500D01*
X11651786Y-15463214D01*
X11694643Y-15463214D01*
X11723214Y-15477500D01*
X11737500Y-15506071D01*
X11737500Y-15663214D01*
X11737500Y-15506071D02*
X11751786Y-15477500D01*
X11780357Y-15463214D01*
X11823214Y-15463214D01*
X11851786Y-15477500D01*
X11866071Y-15506071D01*
X11866071Y-15663214D01*
X12451786Y-15348929D02*
X12194643Y-15734643D01*
X12837500Y-15363214D02*
X12866071Y-15363214D01*
X12894643Y-15377500D01*
X12908928Y-15391786D01*
X12923214Y-15420357D01*
X12937500Y-15477500D01*
X12937500Y-15548929D01*
X12923214Y-15606071D01*
X12908928Y-15634643D01*
X12894643Y-15648929D01*
X12866071Y-15663214D01*
X12837500Y-15663214D01*
X12808928Y-15648929D01*
X12794643Y-15634643D01*
X12780357Y-15606071D01*
X12766071Y-15548929D01*
X12766071Y-15477500D01*
X12780357Y-15420357D01*
X12794643Y-15391786D01*
X12808928Y-15377500D01*
X12837500Y-15363214D01*
X13066071Y-15634643D02*
X13080357Y-15648929D01*
X13066071Y-15663214D01*
X13051786Y-15648929D01*
X13066071Y-15634643D01*
X13066071Y-15663214D01*
X13266071Y-15363214D02*
X13294643Y-15363214D01*
X13323214Y-15377500D01*
X13337500Y-15391786D01*
X13351786Y-15420357D01*
X13366071Y-15477500D01*
X13366071Y-15548929D01*
X13351786Y-15606071D01*
X13337500Y-15634643D01*
X13323214Y-15648929D01*
X13294643Y-15663214D01*
X13266071Y-15663214D01*
X13237500Y-15648929D01*
X13223214Y-15634643D01*
X13208928Y-15606071D01*
X13194643Y-15548929D01*
X13194643Y-15477500D01*
X13208928Y-15420357D01*
X13223214Y-15391786D01*
X13237500Y-15377500D01*
X13266071Y-15363214D01*
X13651786Y-15663214D02*
X13480357Y-15663214D01*
X13566071Y-15663214D02*
X13566071Y-15363214D01*
X13537500Y-15406071D01*
X13508928Y-15434643D01*
X13480357Y-15448929D01*
X13908928Y-15363214D02*
X13851786Y-15363214D01*
X13823214Y-15377500D01*
X13808928Y-15391786D01*
X13780357Y-15434643D01*
X13766071Y-15491786D01*
X13766071Y-15606071D01*
X13780357Y-15634643D01*
X13794643Y-15648929D01*
X13823214Y-15663214D01*
X13880357Y-15663214D01*
X13908928Y-15648929D01*
X13923214Y-15634643D01*
X13937500Y-15606071D01*
X13937500Y-15534643D01*
X13923214Y-15506071D01*
X13908928Y-15491786D01*
X13880357Y-15477500D01*
X13823214Y-15477500D01*
X13794643Y-15491786D01*
X13780357Y-15506071D01*
X13766071Y-15534643D01*
X14051786Y-15363214D02*
X14051786Y-15420357D01*
X14166071Y-15363214D02*
X14166071Y-15420357D01*
X14608928Y-15777500D02*
X14594643Y-15763214D01*
X14566071Y-15720357D01*
X14551786Y-15691786D01*
X14537500Y-15648929D01*
X14523214Y-15577500D01*
X14523214Y-15520357D01*
X14537500Y-15448929D01*
X14551786Y-15406071D01*
X14566071Y-15377500D01*
X14594643Y-15334643D01*
X14608928Y-15320357D01*
X14851786Y-15463214D02*
X14851786Y-15663214D01*
X14780357Y-15348929D02*
X14708928Y-15563214D01*
X14894643Y-15563214D01*
X14980357Y-15363214D02*
X15166071Y-15363214D01*
X15066071Y-15477500D01*
X15108928Y-15477500D01*
X15137500Y-15491786D01*
X15151786Y-15506071D01*
X15166071Y-15534643D01*
X15166071Y-15606071D01*
X15151786Y-15634643D01*
X15137500Y-15648929D01*
X15108928Y-15663214D01*
X15023214Y-15663214D01*
X14994643Y-15648929D01*
X14980357Y-15634643D01*
X15523214Y-15663214D02*
X15523214Y-15363214D01*
X15651786Y-15663214D02*
X15651786Y-15506071D01*
X15637500Y-15477500D01*
X15608928Y-15463214D01*
X15566071Y-15463214D01*
X15537500Y-15477500D01*
X15523214Y-15491786D01*
X15837500Y-15663214D02*
X15808928Y-15648929D01*
X15794643Y-15634643D01*
X15780357Y-15606071D01*
X15780357Y-15520357D01*
X15794643Y-15491786D01*
X15808928Y-15477500D01*
X15837500Y-15463214D01*
X15880357Y-15463214D01*
X15908928Y-15477500D01*
X15923214Y-15491786D01*
X15937500Y-15520357D01*
X15937500Y-15606071D01*
X15923214Y-15634643D01*
X15908928Y-15648929D01*
X15880357Y-15663214D01*
X15837500Y-15663214D01*
X16108928Y-15663214D02*
X16080357Y-15648929D01*
X16066071Y-15620357D01*
X16066071Y-15363214D01*
X16337500Y-15648929D02*
X16308928Y-15663214D01*
X16251786Y-15663214D01*
X16223214Y-15648929D01*
X16208928Y-15620357D01*
X16208928Y-15506071D01*
X16223214Y-15477500D01*
X16251786Y-15463214D01*
X16308928Y-15463214D01*
X16337500Y-15477500D01*
X16351786Y-15506071D01*
X16351786Y-15534643D01*
X16208928Y-15563214D01*
X16466071Y-15648929D02*
X16494643Y-15663214D01*
X16551786Y-15663214D01*
X16580357Y-15648929D01*
X16594643Y-15620357D01*
X16594643Y-15606071D01*
X16580357Y-15577500D01*
X16551786Y-15563214D01*
X16508928Y-15563214D01*
X16480357Y-15548929D01*
X16466071Y-15520357D01*
X16466071Y-15506071D01*
X16480357Y-15477500D01*
X16508928Y-15463214D01*
X16551786Y-15463214D01*
X16580357Y-15477500D01*
X16694643Y-15777500D02*
X16708928Y-15763214D01*
X16737500Y-15720357D01*
X16751786Y-15691786D01*
X16766071Y-15648929D01*
X16780357Y-15577500D01*
X16780357Y-15520357D01*
X16766071Y-15448929D01*
X16751786Y-15406071D01*
X16737500Y-15377500D01*
X16708928Y-15334643D01*
X16694643Y-15320357D01*
X9922500Y-15923500D02*
G75*
G03X9922500Y-15923500I-25000J0D01*
G01*
X10266071Y-15759214D02*
X10294643Y-15759214D01*
X10323214Y-15773500D01*
X10337500Y-15787786D01*
X10351786Y-15816357D01*
X10366071Y-15873500D01*
X10366071Y-15944929D01*
X10351786Y-16002071D01*
X10337500Y-16030643D01*
X10323214Y-16044929D01*
X10294643Y-16059214D01*
X10266071Y-16059214D01*
X10237500Y-16044929D01*
X10223214Y-16030643D01*
X10208928Y-16002071D01*
X10194643Y-15944929D01*
X10194643Y-15873500D01*
X10208928Y-15816357D01*
X10223214Y-15787786D01*
X10237500Y-15773500D01*
X10266071Y-15759214D01*
X10494643Y-16030643D02*
X10508928Y-16044929D01*
X10494643Y-16059214D01*
X10480357Y-16044929D01*
X10494643Y-16030643D01*
X10494643Y-16059214D01*
X10780357Y-15759214D02*
X10637500Y-15759214D01*
X10623214Y-15902071D01*
X10637500Y-15887786D01*
X10666071Y-15873500D01*
X10737500Y-15873500D01*
X10766071Y-15887786D01*
X10780357Y-15902071D01*
X10794643Y-15930643D01*
X10794643Y-16002071D01*
X10780357Y-16030643D01*
X10766071Y-16044929D01*
X10737500Y-16059214D01*
X10666071Y-16059214D01*
X10637500Y-16044929D01*
X10623214Y-16030643D01*
X10980357Y-15759214D02*
X11008928Y-15759214D01*
X11037500Y-15773500D01*
X11051786Y-15787786D01*
X11066071Y-15816357D01*
X11080357Y-15873500D01*
X11080357Y-15944929D01*
X11066071Y-16002071D01*
X11051786Y-16030643D01*
X11037500Y-16044929D01*
X11008928Y-16059214D01*
X10980357Y-16059214D01*
X10951786Y-16044929D01*
X10937500Y-16030643D01*
X10923214Y-16002071D01*
X10908928Y-15944929D01*
X10908928Y-15873500D01*
X10923214Y-15816357D01*
X10937500Y-15787786D01*
X10951786Y-15773500D01*
X10980357Y-15759214D01*
X11208928Y-16059214D02*
X11208928Y-15859214D01*
X11208928Y-15887786D02*
X11223214Y-15873500D01*
X11251786Y-15859214D01*
X11294643Y-15859214D01*
X11323214Y-15873500D01*
X11337500Y-15902071D01*
X11337500Y-16059214D01*
X11337500Y-15902071D02*
X11351786Y-15873500D01*
X11380357Y-15859214D01*
X11423214Y-15859214D01*
X11451786Y-15873500D01*
X11466071Y-15902071D01*
X11466071Y-16059214D01*
X11608928Y-16059214D02*
X11608928Y-15859214D01*
X11608928Y-15887786D02*
X11623214Y-15873500D01*
X11651786Y-15859214D01*
X11694643Y-15859214D01*
X11723214Y-15873500D01*
X11737500Y-15902071D01*
X11737500Y-16059214D01*
X11737500Y-15902071D02*
X11751786Y-15873500D01*
X11780357Y-15859214D01*
X11823214Y-15859214D01*
X11851786Y-15873500D01*
X11866071Y-15902071D01*
X11866071Y-16059214D01*
X12451786Y-15744929D02*
X12194643Y-16130643D01*
X12837500Y-15759214D02*
X12866071Y-15759214D01*
X12894643Y-15773500D01*
X12908928Y-15787786D01*
X12923214Y-15816357D01*
X12937500Y-15873500D01*
X12937500Y-15944929D01*
X12923214Y-16002071D01*
X12908928Y-16030643D01*
X12894643Y-16044929D01*
X12866071Y-16059214D01*
X12837500Y-16059214D01*
X12808928Y-16044929D01*
X12794643Y-16030643D01*
X12780357Y-16002071D01*
X12766071Y-15944929D01*
X12766071Y-15873500D01*
X12780357Y-15816357D01*
X12794643Y-15787786D01*
X12808928Y-15773500D01*
X12837500Y-15759214D01*
X13066071Y-16030643D02*
X13080357Y-16044929D01*
X13066071Y-16059214D01*
X13051786Y-16044929D01*
X13066071Y-16030643D01*
X13066071Y-16059214D01*
X13266071Y-15759214D02*
X13294643Y-15759214D01*
X13323214Y-15773500D01*
X13337500Y-15787786D01*
X13351786Y-15816357D01*
X13366071Y-15873500D01*
X13366071Y-15944929D01*
X13351786Y-16002071D01*
X13337500Y-16030643D01*
X13323214Y-16044929D01*
X13294643Y-16059214D01*
X13266071Y-16059214D01*
X13237500Y-16044929D01*
X13223214Y-16030643D01*
X13208928Y-16002071D01*
X13194643Y-15944929D01*
X13194643Y-15873500D01*
X13208928Y-15816357D01*
X13223214Y-15787786D01*
X13237500Y-15773500D01*
X13266071Y-15759214D01*
X13480357Y-15787786D02*
X13494643Y-15773500D01*
X13523214Y-15759214D01*
X13594643Y-15759214D01*
X13623214Y-15773500D01*
X13637500Y-15787786D01*
X13651786Y-15816357D01*
X13651786Y-15844929D01*
X13637500Y-15887786D01*
X13466071Y-16059214D01*
X13651786Y-16059214D01*
X13837500Y-15759214D02*
X13866071Y-15759214D01*
X13894643Y-15773500D01*
X13908928Y-15787786D01*
X13923214Y-15816357D01*
X13937500Y-15873500D01*
X13937500Y-15944929D01*
X13923214Y-16002071D01*
X13908928Y-16030643D01*
X13894643Y-16044929D01*
X13866071Y-16059214D01*
X13837500Y-16059214D01*
X13808928Y-16044929D01*
X13794643Y-16030643D01*
X13780357Y-16002071D01*
X13766071Y-15944929D01*
X13766071Y-15873500D01*
X13780357Y-15816357D01*
X13794643Y-15787786D01*
X13808928Y-15773500D01*
X13837500Y-15759214D01*
X14051786Y-15759214D02*
X14051786Y-15816357D01*
X14166071Y-15759214D02*
X14166071Y-15816357D01*
X14608928Y-16173500D02*
X14594643Y-16159214D01*
X14566071Y-16116357D01*
X14551786Y-16087786D01*
X14537500Y-16044929D01*
X14523214Y-15973500D01*
X14523214Y-15916357D01*
X14537500Y-15844929D01*
X14551786Y-15802071D01*
X14566071Y-15773500D01*
X14594643Y-15730643D01*
X14608928Y-15716357D01*
X14708928Y-15787786D02*
X14723214Y-15773500D01*
X14751786Y-15759214D01*
X14823214Y-15759214D01*
X14851786Y-15773500D01*
X14866071Y-15787786D01*
X14880357Y-15816357D01*
X14880357Y-15844929D01*
X14866071Y-15887786D01*
X14694643Y-16059214D01*
X14880357Y-16059214D01*
X15137500Y-15859214D02*
X15137500Y-16059214D01*
X15066071Y-15744929D02*
X14994643Y-15959214D01*
X15180357Y-15959214D01*
X15523214Y-16059214D02*
X15523214Y-15759214D01*
X15651786Y-16059214D02*
X15651786Y-15902071D01*
X15637500Y-15873500D01*
X15608928Y-15859214D01*
X15566071Y-15859214D01*
X15537500Y-15873500D01*
X15523214Y-15887786D01*
X15837500Y-16059214D02*
X15808928Y-16044929D01*
X15794643Y-16030643D01*
X15780357Y-16002071D01*
X15780357Y-15916357D01*
X15794643Y-15887786D01*
X15808928Y-15873500D01*
X15837500Y-15859214D01*
X15880357Y-15859214D01*
X15908928Y-15873500D01*
X15923214Y-15887786D01*
X15937500Y-15916357D01*
X15937500Y-16002071D01*
X15923214Y-16030643D01*
X15908928Y-16044929D01*
X15880357Y-16059214D01*
X15837500Y-16059214D01*
X16108928Y-16059214D02*
X16080357Y-16044929D01*
X16066071Y-16016357D01*
X16066071Y-15759214D01*
X16337500Y-16044929D02*
X16308928Y-16059214D01*
X16251786Y-16059214D01*
X16223214Y-16044929D01*
X16208928Y-16016357D01*
X16208928Y-15902071D01*
X16223214Y-15873500D01*
X16251786Y-15859214D01*
X16308928Y-15859214D01*
X16337500Y-15873500D01*
X16351786Y-15902071D01*
X16351786Y-15930643D01*
X16208928Y-15959214D01*
X16466071Y-16044929D02*
X16494643Y-16059214D01*
X16551786Y-16059214D01*
X16580357Y-16044929D01*
X16594643Y-16016357D01*
X16594643Y-16002071D01*
X16580357Y-15973500D01*
X16551786Y-15959214D01*
X16508928Y-15959214D01*
X16480357Y-15944929D01*
X16466071Y-15916357D01*
X16466071Y-15902071D01*
X16480357Y-15873500D01*
X16508928Y-15859214D01*
X16551786Y-15859214D01*
X16580357Y-15873500D01*
X16694643Y-16173500D02*
X16708928Y-16159214D01*
X16737500Y-16116357D01*
X16751786Y-16087786D01*
X16766071Y-16044929D01*
X16780357Y-15973500D01*
X16780357Y-15916357D01*
X16766071Y-15844929D01*
X16751786Y-15802071D01*
X16737500Y-15773500D01*
X16708928Y-15730643D01*
X16694643Y-15716357D01*
X9881860Y-16278860D02*
X9881860Y-16360140D01*
X9841220Y-16319500D02*
X9922500Y-16319500D01*
X10266071Y-16155214D02*
X10294643Y-16155214D01*
X10323214Y-16169500D01*
X10337500Y-16183786D01*
X10351786Y-16212357D01*
X10366071Y-16269500D01*
X10366071Y-16340929D01*
X10351786Y-16398071D01*
X10337500Y-16426643D01*
X10323214Y-16440929D01*
X10294643Y-16455214D01*
X10266071Y-16455214D01*
X10237500Y-16440929D01*
X10223214Y-16426643D01*
X10208928Y-16398071D01*
X10194643Y-16340929D01*
X10194643Y-16269500D01*
X10208928Y-16212357D01*
X10223214Y-16183786D01*
X10237500Y-16169500D01*
X10266071Y-16155214D01*
X10494643Y-16426643D02*
X10508928Y-16440929D01*
X10494643Y-16455214D01*
X10480357Y-16440929D01*
X10494643Y-16426643D01*
X10494643Y-16455214D01*
X10680357Y-16283786D02*
X10651786Y-16269500D01*
X10637500Y-16255214D01*
X10623214Y-16226643D01*
X10623214Y-16212357D01*
X10637500Y-16183786D01*
X10651786Y-16169500D01*
X10680357Y-16155214D01*
X10737500Y-16155214D01*
X10766071Y-16169500D01*
X10780357Y-16183786D01*
X10794643Y-16212357D01*
X10794643Y-16226643D01*
X10780357Y-16255214D01*
X10766071Y-16269500D01*
X10737500Y-16283786D01*
X10680357Y-16283786D01*
X10651786Y-16298071D01*
X10637500Y-16312357D01*
X10623214Y-16340929D01*
X10623214Y-16398071D01*
X10637500Y-16426643D01*
X10651786Y-16440929D01*
X10680357Y-16455214D01*
X10737500Y-16455214D01*
X10766071Y-16440929D01*
X10780357Y-16426643D01*
X10794643Y-16398071D01*
X10794643Y-16340929D01*
X10780357Y-16312357D01*
X10766071Y-16298071D01*
X10737500Y-16283786D01*
X11080357Y-16455214D02*
X10908928Y-16455214D01*
X10994643Y-16455214D02*
X10994643Y-16155214D01*
X10966071Y-16198071D01*
X10937500Y-16226643D01*
X10908928Y-16240929D01*
X11208928Y-16455214D02*
X11208928Y-16255214D01*
X11208928Y-16283786D02*
X11223214Y-16269500D01*
X11251786Y-16255214D01*
X11294643Y-16255214D01*
X11323214Y-16269500D01*
X11337500Y-16298071D01*
X11337500Y-16455214D01*
X11337500Y-16298071D02*
X11351786Y-16269500D01*
X11380357Y-16255214D01*
X11423214Y-16255214D01*
X11451786Y-16269500D01*
X11466071Y-16298071D01*
X11466071Y-16455214D01*
X11608928Y-16455214D02*
X11608928Y-16255214D01*
X11608928Y-16283786D02*
X11623214Y-16269500D01*
X11651786Y-16255214D01*
X11694643Y-16255214D01*
X11723214Y-16269500D01*
X11737500Y-16298071D01*
X11737500Y-16455214D01*
X11737500Y-16298071D02*
X11751786Y-16269500D01*
X11780357Y-16255214D01*
X11823214Y-16255214D01*
X11851786Y-16269500D01*
X11866071Y-16298071D01*
X11866071Y-16455214D01*
X12451786Y-16140929D02*
X12194643Y-16526643D01*
X12837500Y-16155214D02*
X12866071Y-16155214D01*
X12894643Y-16169500D01*
X12908928Y-16183786D01*
X12923214Y-16212357D01*
X12937500Y-16269500D01*
X12937500Y-16340929D01*
X12923214Y-16398071D01*
X12908928Y-16426643D01*
X12894643Y-16440929D01*
X12866071Y-16455214D01*
X12837500Y-16455214D01*
X12808928Y-16440929D01*
X12794643Y-16426643D01*
X12780357Y-16398071D01*
X12766071Y-16340929D01*
X12766071Y-16269500D01*
X12780357Y-16212357D01*
X12794643Y-16183786D01*
X12808928Y-16169500D01*
X12837500Y-16155214D01*
X13066071Y-16426643D02*
X13080357Y-16440929D01*
X13066071Y-16455214D01*
X13051786Y-16440929D01*
X13066071Y-16426643D01*
X13066071Y-16455214D01*
X13266071Y-16155214D02*
X13294643Y-16155214D01*
X13323214Y-16169500D01*
X13337500Y-16183786D01*
X13351786Y-16212357D01*
X13366071Y-16269500D01*
X13366071Y-16340929D01*
X13351786Y-16398071D01*
X13337500Y-16426643D01*
X13323214Y-16440929D01*
X13294643Y-16455214D01*
X13266071Y-16455214D01*
X13237500Y-16440929D01*
X13223214Y-16426643D01*
X13208928Y-16398071D01*
X13194643Y-16340929D01*
X13194643Y-16269500D01*
X13208928Y-16212357D01*
X13223214Y-16183786D01*
X13237500Y-16169500D01*
X13266071Y-16155214D01*
X13466071Y-16155214D02*
X13651786Y-16155214D01*
X13551786Y-16269500D01*
X13594643Y-16269500D01*
X13623214Y-16283786D01*
X13637500Y-16298071D01*
X13651786Y-16326643D01*
X13651786Y-16398071D01*
X13637500Y-16426643D01*
X13623214Y-16440929D01*
X13594643Y-16455214D01*
X13508928Y-16455214D01*
X13480357Y-16440929D01*
X13466071Y-16426643D01*
X13766071Y-16183786D02*
X13780357Y-16169500D01*
X13808928Y-16155214D01*
X13880357Y-16155214D01*
X13908928Y-16169500D01*
X13923214Y-16183786D01*
X13937500Y-16212357D01*
X13937500Y-16240929D01*
X13923214Y-16283786D01*
X13751786Y-16455214D01*
X13937500Y-16455214D01*
X14051786Y-16155214D02*
X14051786Y-16212357D01*
X14166071Y-16155214D02*
X14166071Y-16212357D01*
X14608928Y-16569500D02*
X14594643Y-16555214D01*
X14566071Y-16512357D01*
X14551786Y-16483786D01*
X14537500Y-16440929D01*
X14523214Y-16369500D01*
X14523214Y-16312357D01*
X14537500Y-16240929D01*
X14551786Y-16198071D01*
X14566071Y-16169500D01*
X14594643Y-16126643D01*
X14608928Y-16112357D01*
X14851786Y-16255214D02*
X14851786Y-16455214D01*
X14780357Y-16140929D02*
X14708928Y-16355214D01*
X14894643Y-16355214D01*
X15237500Y-16455214D02*
X15237500Y-16155214D01*
X15366071Y-16455214D02*
X15366071Y-16298071D01*
X15351786Y-16269500D01*
X15323214Y-16255214D01*
X15280357Y-16255214D01*
X15251786Y-16269500D01*
X15237500Y-16283786D01*
X15551786Y-16455214D02*
X15523214Y-16440929D01*
X15508928Y-16426643D01*
X15494643Y-16398071D01*
X15494643Y-16312357D01*
X15508928Y-16283786D01*
X15523214Y-16269500D01*
X15551786Y-16255214D01*
X15594643Y-16255214D01*
X15623214Y-16269500D01*
X15637500Y-16283786D01*
X15651786Y-16312357D01*
X15651786Y-16398071D01*
X15637500Y-16426643D01*
X15623214Y-16440929D01*
X15594643Y-16455214D01*
X15551786Y-16455214D01*
X15823214Y-16455214D02*
X15794643Y-16440929D01*
X15780357Y-16412357D01*
X15780357Y-16155214D01*
X16051786Y-16440929D02*
X16023214Y-16455214D01*
X15966071Y-16455214D01*
X15937500Y-16440929D01*
X15923214Y-16412357D01*
X15923214Y-16298071D01*
X15937500Y-16269500D01*
X15966071Y-16255214D01*
X16023214Y-16255214D01*
X16051786Y-16269500D01*
X16066071Y-16298071D01*
X16066071Y-16326643D01*
X15923214Y-16355214D01*
X16180357Y-16440929D02*
X16208928Y-16455214D01*
X16266071Y-16455214D01*
X16294643Y-16440929D01*
X16308928Y-16412357D01*
X16308928Y-16398071D01*
X16294643Y-16369500D01*
X16266071Y-16355214D01*
X16223214Y-16355214D01*
X16194643Y-16340929D01*
X16180357Y-16312357D01*
X16180357Y-16298071D01*
X16194643Y-16269500D01*
X16223214Y-16255214D01*
X16266071Y-16255214D01*
X16294643Y-16269500D01*
X16408928Y-16569500D02*
X16423214Y-16555214D01*
X16451786Y-16512357D01*
X16466071Y-16483786D01*
X16480357Y-16440929D01*
X16494643Y-16369500D01*
X16494643Y-16312357D01*
X16480357Y-16240929D01*
X16466071Y-16198071D01*
X16451786Y-16169500D01*
X16423214Y-16126643D01*
X16408928Y-16112357D01*
X9909481Y-16746931D02*
X9909481Y-16684069D01*
X9846619Y-16684069D01*
X9846619Y-16746931D01*
X9909481Y-16746931D01*
X10266071Y-16551214D02*
X10294643Y-16551214D01*
X10323214Y-16565500D01*
X10337500Y-16579786D01*
X10351786Y-16608357D01*
X10366071Y-16665500D01*
X10366071Y-16736929D01*
X10351786Y-16794072D01*
X10337500Y-16822643D01*
X10323214Y-16836929D01*
X10294643Y-16851214D01*
X10266071Y-16851214D01*
X10237500Y-16836929D01*
X10223214Y-16822643D01*
X10208928Y-16794072D01*
X10194643Y-16736929D01*
X10194643Y-16665500D01*
X10208928Y-16608357D01*
X10223214Y-16579786D01*
X10237500Y-16565500D01*
X10266071Y-16551214D01*
X10494643Y-16822643D02*
X10508928Y-16836929D01*
X10494643Y-16851214D01*
X10480357Y-16836929D01*
X10494643Y-16822643D01*
X10494643Y-16851214D01*
X10680357Y-16679786D02*
X10651786Y-16665500D01*
X10637500Y-16651214D01*
X10623214Y-16622643D01*
X10623214Y-16608357D01*
X10637500Y-16579786D01*
X10651786Y-16565500D01*
X10680357Y-16551214D01*
X10737500Y-16551214D01*
X10766071Y-16565500D01*
X10780357Y-16579786D01*
X10794643Y-16608357D01*
X10794643Y-16622643D01*
X10780357Y-16651214D01*
X10766071Y-16665500D01*
X10737500Y-16679786D01*
X10680357Y-16679786D01*
X10651786Y-16694071D01*
X10637500Y-16708357D01*
X10623214Y-16736929D01*
X10623214Y-16794072D01*
X10637500Y-16822643D01*
X10651786Y-16836929D01*
X10680357Y-16851214D01*
X10737500Y-16851214D01*
X10766071Y-16836929D01*
X10780357Y-16822643D01*
X10794643Y-16794072D01*
X10794643Y-16736929D01*
X10780357Y-16708357D01*
X10766071Y-16694071D01*
X10737500Y-16679786D01*
X10937500Y-16851214D02*
X10994643Y-16851214D01*
X11023214Y-16836929D01*
X11037500Y-16822643D01*
X11066071Y-16779786D01*
X11080357Y-16722643D01*
X11080357Y-16608357D01*
X11066071Y-16579786D01*
X11051786Y-16565500D01*
X11023214Y-16551214D01*
X10966071Y-16551214D01*
X10937500Y-16565500D01*
X10923214Y-16579786D01*
X10908928Y-16608357D01*
X10908928Y-16679786D01*
X10923214Y-16708357D01*
X10937500Y-16722643D01*
X10966071Y-16736929D01*
X11023214Y-16736929D01*
X11051786Y-16722643D01*
X11066071Y-16708357D01*
X11080357Y-16679786D01*
X11208928Y-16851214D02*
X11208928Y-16651214D01*
X11208928Y-16679786D02*
X11223214Y-16665500D01*
X11251786Y-16651214D01*
X11294643Y-16651214D01*
X11323214Y-16665500D01*
X11337500Y-16694071D01*
X11337500Y-16851214D01*
X11337500Y-16694071D02*
X11351786Y-16665500D01*
X11380357Y-16651214D01*
X11423214Y-16651214D01*
X11451786Y-16665500D01*
X11466071Y-16694071D01*
X11466071Y-16851214D01*
X11608928Y-16851214D02*
X11608928Y-16651214D01*
X11608928Y-16679786D02*
X11623214Y-16665500D01*
X11651786Y-16651214D01*
X11694643Y-16651214D01*
X11723214Y-16665500D01*
X11737500Y-16694071D01*
X11737500Y-16851214D01*
X11737500Y-16694071D02*
X11751786Y-16665500D01*
X11780357Y-16651214D01*
X11823214Y-16651214D01*
X11851786Y-16665500D01*
X11866071Y-16694071D01*
X11866071Y-16851214D01*
X12451786Y-16536929D02*
X12194643Y-16922643D01*
X12837500Y-16551214D02*
X12866071Y-16551214D01*
X12894643Y-16565500D01*
X12908928Y-16579786D01*
X12923214Y-16608357D01*
X12937500Y-16665500D01*
X12937500Y-16736929D01*
X12923214Y-16794072D01*
X12908928Y-16822643D01*
X12894643Y-16836929D01*
X12866071Y-16851214D01*
X12837500Y-16851214D01*
X12808928Y-16836929D01*
X12794643Y-16822643D01*
X12780357Y-16794072D01*
X12766071Y-16736929D01*
X12766071Y-16665500D01*
X12780357Y-16608357D01*
X12794643Y-16579786D01*
X12808928Y-16565500D01*
X12837500Y-16551214D01*
X13066071Y-16822643D02*
X13080357Y-16836929D01*
X13066071Y-16851214D01*
X13051786Y-16836929D01*
X13066071Y-16822643D01*
X13066071Y-16851214D01*
X13266071Y-16551214D02*
X13294643Y-16551214D01*
X13323214Y-16565500D01*
X13337500Y-16579786D01*
X13351786Y-16608357D01*
X13366071Y-16665500D01*
X13366071Y-16736929D01*
X13351786Y-16794072D01*
X13337500Y-16822643D01*
X13323214Y-16836929D01*
X13294643Y-16851214D01*
X13266071Y-16851214D01*
X13237500Y-16836929D01*
X13223214Y-16822643D01*
X13208928Y-16794072D01*
X13194643Y-16736929D01*
X13194643Y-16665500D01*
X13208928Y-16608357D01*
X13223214Y-16579786D01*
X13237500Y-16565500D01*
X13266071Y-16551214D01*
X13466071Y-16551214D02*
X13651786Y-16551214D01*
X13551786Y-16665500D01*
X13594643Y-16665500D01*
X13623214Y-16679786D01*
X13637500Y-16694071D01*
X13651786Y-16722643D01*
X13651786Y-16794072D01*
X13637500Y-16822643D01*
X13623214Y-16836929D01*
X13594643Y-16851214D01*
X13508928Y-16851214D01*
X13480357Y-16836929D01*
X13466071Y-16822643D01*
X13923214Y-16551214D02*
X13780357Y-16551214D01*
X13766071Y-16694071D01*
X13780357Y-16679786D01*
X13808928Y-16665500D01*
X13880357Y-16665500D01*
X13908928Y-16679786D01*
X13923214Y-16694071D01*
X13937500Y-16722643D01*
X13937500Y-16794072D01*
X13923214Y-16822643D01*
X13908928Y-16836929D01*
X13880357Y-16851214D01*
X13808928Y-16851214D01*
X13780357Y-16836929D01*
X13766071Y-16822643D01*
X14051786Y-16551214D02*
X14051786Y-16608357D01*
X14166071Y-16551214D02*
X14166071Y-16608357D01*
X14608928Y-16965500D02*
X14594643Y-16951214D01*
X14566071Y-16908357D01*
X14551786Y-16879786D01*
X14537500Y-16836929D01*
X14523214Y-16765500D01*
X14523214Y-16708357D01*
X14537500Y-16636929D01*
X14551786Y-16594071D01*
X14566071Y-16565500D01*
X14594643Y-16522643D01*
X14608928Y-16508357D01*
X14708928Y-16579786D02*
X14723214Y-16565500D01*
X14751786Y-16551214D01*
X14823214Y-16551214D01*
X14851786Y-16565500D01*
X14866071Y-16579786D01*
X14880357Y-16608357D01*
X14880357Y-16636929D01*
X14866071Y-16679786D01*
X14694643Y-16851214D01*
X14880357Y-16851214D01*
X15137500Y-16651214D02*
X15137500Y-16851214D01*
X15066071Y-16536929D02*
X14994643Y-16751214D01*
X15180357Y-16751214D01*
X15523214Y-16851214D02*
X15523214Y-16551214D01*
X15651786Y-16851214D02*
X15651786Y-16694071D01*
X15637500Y-16665500D01*
X15608928Y-16651214D01*
X15566071Y-16651214D01*
X15537500Y-16665500D01*
X15523214Y-16679786D01*
X15837500Y-16851214D02*
X15808928Y-16836929D01*
X15794643Y-16822643D01*
X15780357Y-16794072D01*
X15780357Y-16708357D01*
X15794643Y-16679786D01*
X15808928Y-16665500D01*
X15837500Y-16651214D01*
X15880357Y-16651214D01*
X15908928Y-16665500D01*
X15923214Y-16679786D01*
X15937500Y-16708357D01*
X15937500Y-16794072D01*
X15923214Y-16822643D01*
X15908928Y-16836929D01*
X15880357Y-16851214D01*
X15837500Y-16851214D01*
X16108928Y-16851214D02*
X16080357Y-16836929D01*
X16066071Y-16808357D01*
X16066071Y-16551214D01*
X16337500Y-16836929D02*
X16308928Y-16851214D01*
X16251786Y-16851214D01*
X16223214Y-16836929D01*
X16208928Y-16808357D01*
X16208928Y-16694071D01*
X16223214Y-16665500D01*
X16251786Y-16651214D01*
X16308928Y-16651214D01*
X16337500Y-16665500D01*
X16351786Y-16694071D01*
X16351786Y-16722643D01*
X16208928Y-16751214D01*
X16466071Y-16836929D02*
X16494643Y-16851214D01*
X16551786Y-16851214D01*
X16580357Y-16836929D01*
X16594643Y-16808357D01*
X16594643Y-16794072D01*
X16580357Y-16765500D01*
X16551786Y-16751214D01*
X16508928Y-16751214D01*
X16480357Y-16736929D01*
X16466071Y-16708357D01*
X16466071Y-16694071D01*
X16480357Y-16665500D01*
X16508928Y-16651214D01*
X16551786Y-16651214D01*
X16580357Y-16665500D01*
X16694643Y-16965500D02*
X16708928Y-16951214D01*
X16737500Y-16908357D01*
X16751786Y-16879786D01*
X16766071Y-16836929D01*
X16780357Y-16765500D01*
X16780357Y-16708357D01*
X16766071Y-16636929D01*
X16751786Y-16594071D01*
X16737500Y-16565500D01*
X16708928Y-16522643D01*
X16694643Y-16508357D01*
X9872500Y-17161500D02*
X9922500Y-17111500D01*
X9872500Y-17061500D01*
X9822500Y-17111500D01*
X9872500Y-17161500D01*
X10366071Y-17247214D02*
X10194643Y-17247214D01*
X10280357Y-17247214D02*
X10280357Y-16947214D01*
X10251786Y-16990072D01*
X10223214Y-17018643D01*
X10194643Y-17032929D01*
X10494643Y-17218643D02*
X10508928Y-17232929D01*
X10494643Y-17247214D01*
X10480357Y-17232929D01*
X10494643Y-17218643D01*
X10494643Y-17247214D01*
X10694643Y-16947214D02*
X10723214Y-16947214D01*
X10751786Y-16961500D01*
X10766071Y-16975786D01*
X10780357Y-17004357D01*
X10794643Y-17061500D01*
X10794643Y-17132929D01*
X10780357Y-17190072D01*
X10766071Y-17218643D01*
X10751786Y-17232929D01*
X10723214Y-17247214D01*
X10694643Y-17247214D01*
X10666071Y-17232929D01*
X10651786Y-17218643D01*
X10637500Y-17190072D01*
X10623214Y-17132929D01*
X10623214Y-17061500D01*
X10637500Y-17004357D01*
X10651786Y-16975786D01*
X10666071Y-16961500D01*
X10694643Y-16947214D01*
X10980357Y-16947214D02*
X11008928Y-16947214D01*
X11037500Y-16961500D01*
X11051786Y-16975786D01*
X11066071Y-17004357D01*
X11080357Y-17061500D01*
X11080357Y-17132929D01*
X11066071Y-17190072D01*
X11051786Y-17218643D01*
X11037500Y-17232929D01*
X11008928Y-17247214D01*
X10980357Y-17247214D01*
X10951786Y-17232929D01*
X10937500Y-17218643D01*
X10923214Y-17190072D01*
X10908928Y-17132929D01*
X10908928Y-17061500D01*
X10923214Y-17004357D01*
X10937500Y-16975786D01*
X10951786Y-16961500D01*
X10980357Y-16947214D01*
X11208928Y-17247214D02*
X11208928Y-17047214D01*
X11208928Y-17075786D02*
X11223214Y-17061500D01*
X11251786Y-17047214D01*
X11294643Y-17047214D01*
X11323214Y-17061500D01*
X11337500Y-17090072D01*
X11337500Y-17247214D01*
X11337500Y-17090072D02*
X11351786Y-17061500D01*
X11380357Y-17047214D01*
X11423214Y-17047214D01*
X11451786Y-17061500D01*
X11466071Y-17090072D01*
X11466071Y-17247214D01*
X11608928Y-17247214D02*
X11608928Y-17047214D01*
X11608928Y-17075786D02*
X11623214Y-17061500D01*
X11651786Y-17047214D01*
X11694643Y-17047214D01*
X11723214Y-17061500D01*
X11737500Y-17090072D01*
X11737500Y-17247214D01*
X11737500Y-17090072D02*
X11751786Y-17061500D01*
X11780357Y-17047214D01*
X11823214Y-17047214D01*
X11851786Y-17061500D01*
X11866071Y-17090072D01*
X11866071Y-17247214D01*
X12451786Y-16932929D02*
X12194643Y-17318643D01*
X12837500Y-16947214D02*
X12866071Y-16947214D01*
X12894643Y-16961500D01*
X12908928Y-16975786D01*
X12923214Y-17004357D01*
X12937500Y-17061500D01*
X12937500Y-17132929D01*
X12923214Y-17190072D01*
X12908928Y-17218643D01*
X12894643Y-17232929D01*
X12866071Y-17247214D01*
X12837500Y-17247214D01*
X12808928Y-17232929D01*
X12794643Y-17218643D01*
X12780357Y-17190072D01*
X12766071Y-17132929D01*
X12766071Y-17061500D01*
X12780357Y-17004357D01*
X12794643Y-16975786D01*
X12808928Y-16961500D01*
X12837500Y-16947214D01*
X13066071Y-17218643D02*
X13080357Y-17232929D01*
X13066071Y-17247214D01*
X13051786Y-17232929D01*
X13066071Y-17218643D01*
X13066071Y-17247214D01*
X13266071Y-16947214D02*
X13294643Y-16947214D01*
X13323214Y-16961500D01*
X13337500Y-16975786D01*
X13351786Y-17004357D01*
X13366071Y-17061500D01*
X13366071Y-17132929D01*
X13351786Y-17190072D01*
X13337500Y-17218643D01*
X13323214Y-17232929D01*
X13294643Y-17247214D01*
X13266071Y-17247214D01*
X13237500Y-17232929D01*
X13223214Y-17218643D01*
X13208928Y-17190072D01*
X13194643Y-17132929D01*
X13194643Y-17061500D01*
X13208928Y-17004357D01*
X13223214Y-16975786D01*
X13237500Y-16961500D01*
X13266071Y-16947214D01*
X13466071Y-16947214D02*
X13651786Y-16947214D01*
X13551786Y-17061500D01*
X13594643Y-17061500D01*
X13623214Y-17075786D01*
X13637500Y-17090072D01*
X13651786Y-17118643D01*
X13651786Y-17190072D01*
X13637500Y-17218643D01*
X13623214Y-17232929D01*
X13594643Y-17247214D01*
X13508928Y-17247214D01*
X13480357Y-17232929D01*
X13466071Y-17218643D01*
X13794643Y-17247214D02*
X13851786Y-17247214D01*
X13880357Y-17232929D01*
X13894643Y-17218643D01*
X13923214Y-17175786D01*
X13937500Y-17118643D01*
X13937500Y-17004357D01*
X13923214Y-16975786D01*
X13908928Y-16961500D01*
X13880357Y-16947214D01*
X13823214Y-16947214D01*
X13794643Y-16961500D01*
X13780357Y-16975786D01*
X13766071Y-17004357D01*
X13766071Y-17075786D01*
X13780357Y-17104357D01*
X13794643Y-17118643D01*
X13823214Y-17132929D01*
X13880357Y-17132929D01*
X13908928Y-17118643D01*
X13923214Y-17104357D01*
X13937500Y-17075786D01*
X14051786Y-16947214D02*
X14051786Y-17004357D01*
X14166071Y-16947214D02*
X14166071Y-17004357D01*
X14608928Y-17361500D02*
X14594643Y-17347214D01*
X14566071Y-17304357D01*
X14551786Y-17275786D01*
X14537500Y-17232929D01*
X14523214Y-17161500D01*
X14523214Y-17104357D01*
X14537500Y-17032929D01*
X14551786Y-16990072D01*
X14566071Y-16961500D01*
X14594643Y-16918643D01*
X14608928Y-16904357D01*
X14708928Y-16975786D02*
X14723214Y-16961500D01*
X14751786Y-16947214D01*
X14823214Y-16947214D01*
X14851786Y-16961500D01*
X14866071Y-16975786D01*
X14880357Y-17004357D01*
X14880357Y-17032929D01*
X14866071Y-17075786D01*
X14694643Y-17247214D01*
X14880357Y-17247214D01*
X14980357Y-16947214D02*
X15166071Y-16947214D01*
X15066071Y-17061500D01*
X15108928Y-17061500D01*
X15137500Y-17075786D01*
X15151786Y-17090072D01*
X15166071Y-17118643D01*
X15166071Y-17190072D01*
X15151786Y-17218643D01*
X15137500Y-17232929D01*
X15108928Y-17247214D01*
X15023214Y-17247214D01*
X14994643Y-17232929D01*
X14980357Y-17218643D01*
X15523214Y-17247214D02*
X15523214Y-16947214D01*
X15651786Y-17247214D02*
X15651786Y-17090072D01*
X15637500Y-17061500D01*
X15608928Y-17047214D01*
X15566071Y-17047214D01*
X15537500Y-17061500D01*
X15523214Y-17075786D01*
X15837500Y-17247214D02*
X15808928Y-17232929D01*
X15794643Y-17218643D01*
X15780357Y-17190072D01*
X15780357Y-17104357D01*
X15794643Y-17075786D01*
X15808928Y-17061500D01*
X15837500Y-17047214D01*
X15880357Y-17047214D01*
X15908928Y-17061500D01*
X15923214Y-17075786D01*
X15937500Y-17104357D01*
X15937500Y-17190072D01*
X15923214Y-17218643D01*
X15908928Y-17232929D01*
X15880357Y-17247214D01*
X15837500Y-17247214D01*
X16108928Y-17247214D02*
X16080357Y-17232929D01*
X16066071Y-17204357D01*
X16066071Y-16947214D01*
X16337500Y-17232929D02*
X16308928Y-17247214D01*
X16251786Y-17247214D01*
X16223214Y-17232929D01*
X16208928Y-17204357D01*
X16208928Y-17090072D01*
X16223214Y-17061500D01*
X16251786Y-17047214D01*
X16308928Y-17047214D01*
X16337500Y-17061500D01*
X16351786Y-17090072D01*
X16351786Y-17118643D01*
X16208928Y-17147214D01*
X16466071Y-17232929D02*
X16494643Y-17247214D01*
X16551786Y-17247214D01*
X16580357Y-17232929D01*
X16594643Y-17204357D01*
X16594643Y-17190072D01*
X16580357Y-17161500D01*
X16551786Y-17147214D01*
X16508928Y-17147214D01*
X16480357Y-17132929D01*
X16466071Y-17104357D01*
X16466071Y-17090072D01*
X16480357Y-17061500D01*
X16508928Y-17047214D01*
X16551786Y-17047214D01*
X16580357Y-17061500D01*
X16694643Y-17361500D02*
X16708928Y-17347214D01*
X16737500Y-17304357D01*
X16751786Y-17275786D01*
X16766071Y-17232929D01*
X16780357Y-17161500D01*
X16780357Y-17104357D01*
X16766071Y-17032929D01*
X16751786Y-16990072D01*
X16737500Y-16961500D01*
X16708928Y-16918643D01*
X16694643Y-16904357D01*
X9808200Y-17450350D02*
X9922500Y-17564650D01*
X9922500Y-17450350D02*
X9808200Y-17564650D01*
X9922500Y-17507500D02*
G75*
G03X9922500Y-17507500I-57150J0D01*
G01*
X10366071Y-17643214D02*
X10194643Y-17643214D01*
X10280357Y-17643214D02*
X10280357Y-17343214D01*
X10251786Y-17386072D01*
X10223214Y-17414643D01*
X10194643Y-17428929D01*
X10494643Y-17614643D02*
X10508928Y-17628929D01*
X10494643Y-17643214D01*
X10480357Y-17628929D01*
X10494643Y-17614643D01*
X10494643Y-17643214D01*
X10794643Y-17643214D02*
X10623214Y-17643214D01*
X10708928Y-17643214D02*
X10708928Y-17343214D01*
X10680357Y-17386072D01*
X10651786Y-17414643D01*
X10623214Y-17428929D01*
X11051786Y-17443214D02*
X11051786Y-17643214D01*
X10980357Y-17328929D02*
X10908928Y-17543214D01*
X11094643Y-17543214D01*
X11208928Y-17643214D02*
X11208928Y-17443214D01*
X11208928Y-17471786D02*
X11223214Y-17457500D01*
X11251786Y-17443214D01*
X11294643Y-17443214D01*
X11323214Y-17457500D01*
X11337500Y-17486072D01*
X11337500Y-17643214D01*
X11337500Y-17486072D02*
X11351786Y-17457500D01*
X11380357Y-17443214D01*
X11423214Y-17443214D01*
X11451786Y-17457500D01*
X11466071Y-17486072D01*
X11466071Y-17643214D01*
X11608928Y-17643214D02*
X11608928Y-17443214D01*
X11608928Y-17471786D02*
X11623214Y-17457500D01*
X11651786Y-17443214D01*
X11694643Y-17443214D01*
X11723214Y-17457500D01*
X11737500Y-17486072D01*
X11737500Y-17643214D01*
X11737500Y-17486072D02*
X11751786Y-17457500D01*
X11780357Y-17443214D01*
X11823214Y-17443214D01*
X11851786Y-17457500D01*
X11866071Y-17486072D01*
X11866071Y-17643214D01*
X12451786Y-17328929D02*
X12194643Y-17714643D01*
X12837500Y-17343214D02*
X12866071Y-17343214D01*
X12894643Y-17357500D01*
X12908928Y-17371786D01*
X12923214Y-17400357D01*
X12937500Y-17457500D01*
X12937500Y-17528929D01*
X12923214Y-17586072D01*
X12908928Y-17614643D01*
X12894643Y-17628929D01*
X12866071Y-17643214D01*
X12837500Y-17643214D01*
X12808928Y-17628929D01*
X12794643Y-17614643D01*
X12780357Y-17586072D01*
X12766071Y-17528929D01*
X12766071Y-17457500D01*
X12780357Y-17400357D01*
X12794643Y-17371786D01*
X12808928Y-17357500D01*
X12837500Y-17343214D01*
X13066071Y-17614643D02*
X13080357Y-17628929D01*
X13066071Y-17643214D01*
X13051786Y-17628929D01*
X13066071Y-17614643D01*
X13066071Y-17643214D01*
X13266071Y-17343214D02*
X13294643Y-17343214D01*
X13323214Y-17357500D01*
X13337500Y-17371786D01*
X13351786Y-17400357D01*
X13366071Y-17457500D01*
X13366071Y-17528929D01*
X13351786Y-17586072D01*
X13337500Y-17614643D01*
X13323214Y-17628929D01*
X13294643Y-17643214D01*
X13266071Y-17643214D01*
X13237500Y-17628929D01*
X13223214Y-17614643D01*
X13208928Y-17586072D01*
X13194643Y-17528929D01*
X13194643Y-17457500D01*
X13208928Y-17400357D01*
X13223214Y-17371786D01*
X13237500Y-17357500D01*
X13266071Y-17343214D01*
X13623214Y-17443214D02*
X13623214Y-17643214D01*
X13551786Y-17328929D02*
X13480357Y-17543214D01*
X13666071Y-17543214D01*
X13923214Y-17343214D02*
X13780357Y-17343214D01*
X13766071Y-17486072D01*
X13780357Y-17471786D01*
X13808928Y-17457500D01*
X13880357Y-17457500D01*
X13908928Y-17471786D01*
X13923214Y-17486072D01*
X13937500Y-17514643D01*
X13937500Y-17586072D01*
X13923214Y-17614643D01*
X13908928Y-17628929D01*
X13880357Y-17643214D01*
X13808928Y-17643214D01*
X13780357Y-17628929D01*
X13766071Y-17614643D01*
X14051786Y-17343214D02*
X14051786Y-17400357D01*
X14166071Y-17343214D02*
X14166071Y-17400357D01*
X14608928Y-17757500D02*
X14594643Y-17743214D01*
X14566071Y-17700357D01*
X14551786Y-17671786D01*
X14537500Y-17628929D01*
X14523214Y-17557500D01*
X14523214Y-17500357D01*
X14537500Y-17428929D01*
X14551786Y-17386072D01*
X14566071Y-17357500D01*
X14594643Y-17314643D01*
X14608928Y-17300357D01*
X14880357Y-17643214D02*
X14708928Y-17643214D01*
X14794643Y-17643214D02*
X14794643Y-17343214D01*
X14766071Y-17386072D01*
X14737500Y-17414643D01*
X14708928Y-17428929D01*
X15051786Y-17471786D02*
X15023214Y-17457500D01*
X15008928Y-17443214D01*
X14994643Y-17414643D01*
X14994643Y-17400357D01*
X15008928Y-17371786D01*
X15023214Y-17357500D01*
X15051786Y-17343214D01*
X15108928Y-17343214D01*
X15137500Y-17357500D01*
X15151786Y-17371786D01*
X15166071Y-17400357D01*
X15166071Y-17414643D01*
X15151786Y-17443214D01*
X15137500Y-17457500D01*
X15108928Y-17471786D01*
X15051786Y-17471786D01*
X15023214Y-17486072D01*
X15008928Y-17500357D01*
X14994643Y-17528929D01*
X14994643Y-17586072D01*
X15008928Y-17614643D01*
X15023214Y-17628929D01*
X15051786Y-17643214D01*
X15108928Y-17643214D01*
X15137500Y-17628929D01*
X15151786Y-17614643D01*
X15166071Y-17586072D01*
X15166071Y-17528929D01*
X15151786Y-17500357D01*
X15137500Y-17486072D01*
X15108928Y-17471786D01*
X15523214Y-17643214D02*
X15523214Y-17343214D01*
X15651786Y-17643214D02*
X15651786Y-17486072D01*
X15637500Y-17457500D01*
X15608928Y-17443214D01*
X15566071Y-17443214D01*
X15537500Y-17457500D01*
X15523214Y-17471786D01*
X15837500Y-17643214D02*
X15808928Y-17628929D01*
X15794643Y-17614643D01*
X15780357Y-17586072D01*
X15780357Y-17500357D01*
X15794643Y-17471786D01*
X15808928Y-17457500D01*
X15837500Y-17443214D01*
X15880357Y-17443214D01*
X15908928Y-17457500D01*
X15923214Y-17471786D01*
X15937500Y-17500357D01*
X15937500Y-17586072D01*
X15923214Y-17614643D01*
X15908928Y-17628929D01*
X15880357Y-17643214D01*
X15837500Y-17643214D01*
X16108928Y-17643214D02*
X16080357Y-17628929D01*
X16066071Y-17600357D01*
X16066071Y-17343214D01*
X16337500Y-17628929D02*
X16308928Y-17643214D01*
X16251786Y-17643214D01*
X16223214Y-17628929D01*
X16208928Y-17600357D01*
X16208928Y-17486072D01*
X16223214Y-17457500D01*
X16251786Y-17443214D01*
X16308928Y-17443214D01*
X16337500Y-17457500D01*
X16351786Y-17486072D01*
X16351786Y-17514643D01*
X16208928Y-17543214D01*
X16466071Y-17628929D02*
X16494643Y-17643214D01*
X16551786Y-17643214D01*
X16580357Y-17628929D01*
X16594643Y-17600357D01*
X16594643Y-17586072D01*
X16580357Y-17557500D01*
X16551786Y-17543214D01*
X16508928Y-17543214D01*
X16480357Y-17528929D01*
X16466071Y-17500357D01*
X16466071Y-17486072D01*
X16480357Y-17457500D01*
X16508928Y-17443214D01*
X16551786Y-17443214D01*
X16580357Y-17457500D01*
X16694643Y-17757500D02*
X16708928Y-17743214D01*
X16737500Y-17700357D01*
X16751786Y-17671786D01*
X16766071Y-17628929D01*
X16780357Y-17557500D01*
X16780357Y-17500357D01*
X16766071Y-17428929D01*
X16751786Y-17386072D01*
X16737500Y-17357500D01*
X16708928Y-17314643D01*
X16694643Y-17300357D01*
X9782500Y-17833500D02*
X9922500Y-17973500D01*
X9922500Y-17833500D02*
X9782500Y-17973500D01*
X9852500Y-17833500D02*
X9852500Y-17973500D01*
X9782500Y-17903500D02*
X9922500Y-17903500D01*
X10366071Y-18039214D02*
X10194643Y-18039214D01*
X10280357Y-18039214D02*
X10280357Y-17739214D01*
X10251786Y-17782072D01*
X10223214Y-17810643D01*
X10194643Y-17824929D01*
X10494643Y-18010643D02*
X10508928Y-18024929D01*
X10494643Y-18039214D01*
X10480357Y-18024929D01*
X10494643Y-18010643D01*
X10494643Y-18039214D01*
X10766071Y-17839214D02*
X10766071Y-18039214D01*
X10694643Y-17724929D02*
X10623214Y-17939214D01*
X10808928Y-17939214D01*
X10980357Y-17739214D02*
X11008928Y-17739214D01*
X11037500Y-17753500D01*
X11051786Y-17767786D01*
X11066071Y-17796357D01*
X11080357Y-17853500D01*
X11080357Y-17924929D01*
X11066071Y-17982072D01*
X11051786Y-18010643D01*
X11037500Y-18024929D01*
X11008928Y-18039214D01*
X10980357Y-18039214D01*
X10951786Y-18024929D01*
X10937500Y-18010643D01*
X10923214Y-17982072D01*
X10908928Y-17924929D01*
X10908928Y-17853500D01*
X10923214Y-17796357D01*
X10937500Y-17767786D01*
X10951786Y-17753500D01*
X10980357Y-17739214D01*
X11208928Y-18039214D02*
X11208928Y-17839214D01*
X11208928Y-17867786D02*
X11223214Y-17853500D01*
X11251786Y-17839214D01*
X11294643Y-17839214D01*
X11323214Y-17853500D01*
X11337500Y-17882072D01*
X11337500Y-18039214D01*
X11337500Y-17882072D02*
X11351786Y-17853500D01*
X11380357Y-17839214D01*
X11423214Y-17839214D01*
X11451786Y-17853500D01*
X11466071Y-17882072D01*
X11466071Y-18039214D01*
X11608928Y-18039214D02*
X11608928Y-17839214D01*
X11608928Y-17867786D02*
X11623214Y-17853500D01*
X11651786Y-17839214D01*
X11694643Y-17839214D01*
X11723214Y-17853500D01*
X11737500Y-17882072D01*
X11737500Y-18039214D01*
X11737500Y-17882072D02*
X11751786Y-17853500D01*
X11780357Y-17839214D01*
X11823214Y-17839214D01*
X11851786Y-17853500D01*
X11866071Y-17882072D01*
X11866071Y-18039214D01*
X12451786Y-17724929D02*
X12194643Y-18110643D01*
X12837500Y-17739214D02*
X12866071Y-17739214D01*
X12894643Y-17753500D01*
X12908928Y-17767786D01*
X12923214Y-17796357D01*
X12937500Y-17853500D01*
X12937500Y-17924929D01*
X12923214Y-17982072D01*
X12908928Y-18010643D01*
X12894643Y-18024929D01*
X12866071Y-18039214D01*
X12837500Y-18039214D01*
X12808928Y-18024929D01*
X12794643Y-18010643D01*
X12780357Y-17982072D01*
X12766071Y-17924929D01*
X12766071Y-17853500D01*
X12780357Y-17796357D01*
X12794643Y-17767786D01*
X12808928Y-17753500D01*
X12837500Y-17739214D01*
X13066071Y-18010643D02*
X13080357Y-18024929D01*
X13066071Y-18039214D01*
X13051786Y-18024929D01*
X13066071Y-18010643D01*
X13066071Y-18039214D01*
X13266071Y-17739214D02*
X13294643Y-17739214D01*
X13323214Y-17753500D01*
X13337500Y-17767786D01*
X13351786Y-17796357D01*
X13366071Y-17853500D01*
X13366071Y-17924929D01*
X13351786Y-17982072D01*
X13337500Y-18010643D01*
X13323214Y-18024929D01*
X13294643Y-18039214D01*
X13266071Y-18039214D01*
X13237500Y-18024929D01*
X13223214Y-18010643D01*
X13208928Y-17982072D01*
X13194643Y-17924929D01*
X13194643Y-17853500D01*
X13208928Y-17796357D01*
X13223214Y-17767786D01*
X13237500Y-17753500D01*
X13266071Y-17739214D01*
X13637500Y-17739214D02*
X13494643Y-17739214D01*
X13480357Y-17882072D01*
X13494643Y-17867786D01*
X13523214Y-17853500D01*
X13594643Y-17853500D01*
X13623214Y-17867786D01*
X13637500Y-17882072D01*
X13651786Y-17910643D01*
X13651786Y-17982072D01*
X13637500Y-18010643D01*
X13623214Y-18024929D01*
X13594643Y-18039214D01*
X13523214Y-18039214D01*
X13494643Y-18024929D01*
X13480357Y-18010643D01*
X13923214Y-17739214D02*
X13780357Y-17739214D01*
X13766071Y-17882072D01*
X13780357Y-17867786D01*
X13808928Y-17853500D01*
X13880357Y-17853500D01*
X13908928Y-17867786D01*
X13923214Y-17882072D01*
X13937500Y-17910643D01*
X13937500Y-17982072D01*
X13923214Y-18010643D01*
X13908928Y-18024929D01*
X13880357Y-18039214D01*
X13808928Y-18039214D01*
X13780357Y-18024929D01*
X13766071Y-18010643D01*
X14051786Y-17739214D02*
X14051786Y-17796357D01*
X14166071Y-17739214D02*
X14166071Y-17796357D01*
X14608928Y-18153500D02*
X14594643Y-18139214D01*
X14566071Y-18096357D01*
X14551786Y-18067786D01*
X14537500Y-18024929D01*
X14523214Y-17953500D01*
X14523214Y-17896357D01*
X14537500Y-17824929D01*
X14551786Y-17782072D01*
X14566071Y-17753500D01*
X14594643Y-17710643D01*
X14608928Y-17696357D01*
X14737500Y-18039214D02*
X14794643Y-18039214D01*
X14823214Y-18024929D01*
X14837500Y-18010643D01*
X14866071Y-17967786D01*
X14880357Y-17910643D01*
X14880357Y-17796357D01*
X14866071Y-17767786D01*
X14851786Y-17753500D01*
X14823214Y-17739214D01*
X14766071Y-17739214D01*
X14737500Y-17753500D01*
X14723214Y-17767786D01*
X14708928Y-17796357D01*
X14708928Y-17867786D01*
X14723214Y-17896357D01*
X14737500Y-17910643D01*
X14766071Y-17924929D01*
X14823214Y-17924929D01*
X14851786Y-17910643D01*
X14866071Y-17896357D01*
X14880357Y-17867786D01*
X15237500Y-18039214D02*
X15237500Y-17739214D01*
X15366071Y-18039214D02*
X15366071Y-17882072D01*
X15351786Y-17853500D01*
X15323214Y-17839214D01*
X15280357Y-17839214D01*
X15251786Y-17853500D01*
X15237500Y-17867786D01*
X15551786Y-18039214D02*
X15523214Y-18024929D01*
X15508928Y-18010643D01*
X15494643Y-17982072D01*
X15494643Y-17896357D01*
X15508928Y-17867786D01*
X15523214Y-17853500D01*
X15551786Y-17839214D01*
X15594643Y-17839214D01*
X15623214Y-17853500D01*
X15637500Y-17867786D01*
X15651786Y-17896357D01*
X15651786Y-17982072D01*
X15637500Y-18010643D01*
X15623214Y-18024929D01*
X15594643Y-18039214D01*
X15551786Y-18039214D01*
X15823214Y-18039214D02*
X15794643Y-18024929D01*
X15780357Y-17996357D01*
X15780357Y-17739214D01*
X16051786Y-18024929D02*
X16023214Y-18039214D01*
X15966071Y-18039214D01*
X15937500Y-18024929D01*
X15923214Y-17996357D01*
X15923214Y-17882072D01*
X15937500Y-17853500D01*
X15966071Y-17839214D01*
X16023214Y-17839214D01*
X16051786Y-17853500D01*
X16066071Y-17882072D01*
X16066071Y-17910643D01*
X15923214Y-17939214D01*
X16180357Y-18024929D02*
X16208928Y-18039214D01*
X16266071Y-18039214D01*
X16294643Y-18024929D01*
X16308928Y-17996357D01*
X16308928Y-17982072D01*
X16294643Y-17953500D01*
X16266071Y-17939214D01*
X16223214Y-17939214D01*
X16194643Y-17924929D01*
X16180357Y-17896357D01*
X16180357Y-17882072D01*
X16194643Y-17853500D01*
X16223214Y-17839214D01*
X16266071Y-17839214D01*
X16294643Y-17853500D01*
X16408928Y-18153500D02*
X16423214Y-18139214D01*
X16451786Y-18096357D01*
X16466071Y-18067786D01*
X16480357Y-18024929D01*
X16494643Y-17953500D01*
X16494643Y-17896357D01*
X16480357Y-17824929D01*
X16466071Y-17782072D01*
X16451786Y-17753500D01*
X16423214Y-17710643D01*
X16408928Y-17696357D01*
X9765500Y-18221000D02*
X9922500Y-18378000D01*
X9922500Y-18221000D02*
X9765500Y-18378000D01*
X9899508Y-18355009D02*
X9899508Y-18243992D01*
X9788492Y-18243992D01*
X9788492Y-18355009D01*
X9899508Y-18355009D01*
X10366071Y-18435214D02*
X10194643Y-18435214D01*
X10280357Y-18435214D02*
X10280357Y-18135214D01*
X10251786Y-18178072D01*
X10223214Y-18206643D01*
X10194643Y-18220929D01*
X10494643Y-18406643D02*
X10508928Y-18420929D01*
X10494643Y-18435214D01*
X10480357Y-18420929D01*
X10494643Y-18406643D01*
X10494643Y-18435214D01*
X10780357Y-18135214D02*
X10637500Y-18135214D01*
X10623214Y-18278072D01*
X10637500Y-18263786D01*
X10666071Y-18249500D01*
X10737500Y-18249500D01*
X10766071Y-18263786D01*
X10780357Y-18278072D01*
X10794643Y-18306643D01*
X10794643Y-18378072D01*
X10780357Y-18406643D01*
X10766071Y-18420929D01*
X10737500Y-18435214D01*
X10666071Y-18435214D01*
X10637500Y-18420929D01*
X10623214Y-18406643D01*
X10894643Y-18135214D02*
X11094643Y-18135214D01*
X10966071Y-18435214D01*
X11208928Y-18435214D02*
X11208928Y-18235214D01*
X11208928Y-18263786D02*
X11223214Y-18249500D01*
X11251786Y-18235214D01*
X11294643Y-18235214D01*
X11323214Y-18249500D01*
X11337500Y-18278072D01*
X11337500Y-18435214D01*
X11337500Y-18278072D02*
X11351786Y-18249500D01*
X11380357Y-18235214D01*
X11423214Y-18235214D01*
X11451786Y-18249500D01*
X11466071Y-18278072D01*
X11466071Y-18435214D01*
X11608928Y-18435214D02*
X11608928Y-18235214D01*
X11608928Y-18263786D02*
X11623214Y-18249500D01*
X11651786Y-18235214D01*
X11694643Y-18235214D01*
X11723214Y-18249500D01*
X11737500Y-18278072D01*
X11737500Y-18435214D01*
X11737500Y-18278072D02*
X11751786Y-18249500D01*
X11780357Y-18235214D01*
X11823214Y-18235214D01*
X11851786Y-18249500D01*
X11866071Y-18278072D01*
X11866071Y-18435214D01*
X12451786Y-18120929D02*
X12194643Y-18506643D01*
X12837500Y-18135214D02*
X12866071Y-18135214D01*
X12894643Y-18149500D01*
X12908928Y-18163786D01*
X12923214Y-18192357D01*
X12937500Y-18249500D01*
X12937500Y-18320929D01*
X12923214Y-18378072D01*
X12908928Y-18406643D01*
X12894643Y-18420929D01*
X12866071Y-18435214D01*
X12837500Y-18435214D01*
X12808928Y-18420929D01*
X12794643Y-18406643D01*
X12780357Y-18378072D01*
X12766071Y-18320929D01*
X12766071Y-18249500D01*
X12780357Y-18192357D01*
X12794643Y-18163786D01*
X12808928Y-18149500D01*
X12837500Y-18135214D01*
X13066071Y-18406643D02*
X13080357Y-18420929D01*
X13066071Y-18435214D01*
X13051786Y-18420929D01*
X13066071Y-18406643D01*
X13066071Y-18435214D01*
X13266071Y-18135214D02*
X13294643Y-18135214D01*
X13323214Y-18149500D01*
X13337500Y-18163786D01*
X13351786Y-18192357D01*
X13366071Y-18249500D01*
X13366071Y-18320929D01*
X13351786Y-18378072D01*
X13337500Y-18406643D01*
X13323214Y-18420929D01*
X13294643Y-18435214D01*
X13266071Y-18435214D01*
X13237500Y-18420929D01*
X13223214Y-18406643D01*
X13208928Y-18378072D01*
X13194643Y-18320929D01*
X13194643Y-18249500D01*
X13208928Y-18192357D01*
X13223214Y-18163786D01*
X13237500Y-18149500D01*
X13266071Y-18135214D01*
X13623214Y-18135214D02*
X13566071Y-18135214D01*
X13537500Y-18149500D01*
X13523214Y-18163786D01*
X13494643Y-18206643D01*
X13480357Y-18263786D01*
X13480357Y-18378072D01*
X13494643Y-18406643D01*
X13508928Y-18420929D01*
X13537500Y-18435214D01*
X13594643Y-18435214D01*
X13623214Y-18420929D01*
X13637500Y-18406643D01*
X13651786Y-18378072D01*
X13651786Y-18306643D01*
X13637500Y-18278072D01*
X13623214Y-18263786D01*
X13594643Y-18249500D01*
X13537500Y-18249500D01*
X13508928Y-18263786D01*
X13494643Y-18278072D01*
X13480357Y-18306643D01*
X13766071Y-18163786D02*
X13780357Y-18149500D01*
X13808928Y-18135214D01*
X13880357Y-18135214D01*
X13908928Y-18149500D01*
X13923214Y-18163786D01*
X13937500Y-18192357D01*
X13937500Y-18220929D01*
X13923214Y-18263786D01*
X13751786Y-18435214D01*
X13937500Y-18435214D01*
X14051786Y-18135214D02*
X14051786Y-18192357D01*
X14166071Y-18135214D02*
X14166071Y-18192357D01*
X14608928Y-18549500D02*
X14594643Y-18535214D01*
X14566071Y-18492357D01*
X14551786Y-18463786D01*
X14537500Y-18420929D01*
X14523214Y-18349500D01*
X14523214Y-18292357D01*
X14537500Y-18220929D01*
X14551786Y-18178072D01*
X14566071Y-18149500D01*
X14594643Y-18106643D01*
X14608928Y-18092357D01*
X14851786Y-18235214D02*
X14851786Y-18435214D01*
X14780357Y-18120929D02*
X14708928Y-18335214D01*
X14894643Y-18335214D01*
X15237500Y-18435214D02*
X15237500Y-18135214D01*
X15366071Y-18435214D02*
X15366071Y-18278072D01*
X15351786Y-18249500D01*
X15323214Y-18235214D01*
X15280357Y-18235214D01*
X15251786Y-18249500D01*
X15237500Y-18263786D01*
X15551786Y-18435214D02*
X15523214Y-18420929D01*
X15508928Y-18406643D01*
X15494643Y-18378072D01*
X15494643Y-18292357D01*
X15508928Y-18263786D01*
X15523214Y-18249500D01*
X15551786Y-18235214D01*
X15594643Y-18235214D01*
X15623214Y-18249500D01*
X15637500Y-18263786D01*
X15651786Y-18292357D01*
X15651786Y-18378072D01*
X15637500Y-18406643D01*
X15623214Y-18420929D01*
X15594643Y-18435214D01*
X15551786Y-18435214D01*
X15823214Y-18435214D02*
X15794643Y-18420929D01*
X15780357Y-18392357D01*
X15780357Y-18135214D01*
X16051786Y-18420929D02*
X16023214Y-18435214D01*
X15966071Y-18435214D01*
X15937500Y-18420929D01*
X15923214Y-18392357D01*
X15923214Y-18278072D01*
X15937500Y-18249500D01*
X15966071Y-18235214D01*
X16023214Y-18235214D01*
X16051786Y-18249500D01*
X16066071Y-18278072D01*
X16066071Y-18306643D01*
X15923214Y-18335214D01*
X16180357Y-18420929D02*
X16208928Y-18435214D01*
X16266071Y-18435214D01*
X16294643Y-18420929D01*
X16308928Y-18392357D01*
X16308928Y-18378072D01*
X16294643Y-18349500D01*
X16266071Y-18335214D01*
X16223214Y-18335214D01*
X16194643Y-18320929D01*
X16180357Y-18292357D01*
X16180357Y-18278072D01*
X16194643Y-18249500D01*
X16223214Y-18235214D01*
X16266071Y-18235214D01*
X16294643Y-18249500D01*
X16408928Y-18549500D02*
X16423214Y-18535214D01*
X16451786Y-18492357D01*
X16466071Y-18463786D01*
X16480357Y-18420929D01*
X16494643Y-18349500D01*
X16494643Y-18292357D01*
X16480357Y-18220929D01*
X16466071Y-18178072D01*
X16451786Y-18149500D01*
X16423214Y-18106643D01*
X16408928Y-18092357D01*
X9692376Y-18580438D02*
X9922500Y-18810562D01*
X9922500Y-18580438D02*
X9692376Y-18810562D01*
X9807438Y-18810562D02*
X9922500Y-18695500D01*
X9807438Y-18580438D01*
X9692376Y-18695500D01*
X9807438Y-18810562D01*
X10194643Y-18559786D02*
X10208928Y-18545500D01*
X10237500Y-18531214D01*
X10308928Y-18531214D01*
X10337500Y-18545500D01*
X10351786Y-18559786D01*
X10366071Y-18588357D01*
X10366071Y-18616929D01*
X10351786Y-18659786D01*
X10180357Y-18831214D01*
X10366071Y-18831214D01*
X10494643Y-18802643D02*
X10508928Y-18816929D01*
X10494643Y-18831214D01*
X10480357Y-18816929D01*
X10494643Y-18802643D01*
X10494643Y-18831214D01*
X10608928Y-18531214D02*
X10794643Y-18531214D01*
X10694643Y-18645500D01*
X10737500Y-18645500D01*
X10766071Y-18659786D01*
X10780357Y-18674072D01*
X10794643Y-18702643D01*
X10794643Y-18774072D01*
X10780357Y-18802643D01*
X10766071Y-18816929D01*
X10737500Y-18831214D01*
X10651786Y-18831214D01*
X10623214Y-18816929D01*
X10608928Y-18802643D01*
X10980357Y-18531214D02*
X11008928Y-18531214D01*
X11037500Y-18545500D01*
X11051786Y-18559786D01*
X11066071Y-18588357D01*
X11080357Y-18645500D01*
X11080357Y-18716929D01*
X11066071Y-18774072D01*
X11051786Y-18802643D01*
X11037500Y-18816929D01*
X11008928Y-18831214D01*
X10980357Y-18831214D01*
X10951786Y-18816929D01*
X10937500Y-18802643D01*
X10923214Y-18774072D01*
X10908928Y-18716929D01*
X10908928Y-18645500D01*
X10923214Y-18588357D01*
X10937500Y-18559786D01*
X10951786Y-18545500D01*
X10980357Y-18531214D01*
X11208928Y-18831214D02*
X11208928Y-18631214D01*
X11208928Y-18659786D02*
X11223214Y-18645500D01*
X11251786Y-18631214D01*
X11294643Y-18631214D01*
X11323214Y-18645500D01*
X11337500Y-18674072D01*
X11337500Y-18831214D01*
X11337500Y-18674072D02*
X11351786Y-18645500D01*
X11380357Y-18631214D01*
X11423214Y-18631214D01*
X11451786Y-18645500D01*
X11466071Y-18674072D01*
X11466071Y-18831214D01*
X11608928Y-18831214D02*
X11608928Y-18631214D01*
X11608928Y-18659786D02*
X11623214Y-18645500D01*
X11651786Y-18631214D01*
X11694643Y-18631214D01*
X11723214Y-18645500D01*
X11737500Y-18674072D01*
X11737500Y-18831214D01*
X11737500Y-18674072D02*
X11751786Y-18645500D01*
X11780357Y-18631214D01*
X11823214Y-18631214D01*
X11851786Y-18645500D01*
X11866071Y-18674072D01*
X11866071Y-18831214D01*
X12451786Y-18516929D02*
X12194643Y-18902643D01*
X12837500Y-18531214D02*
X12866071Y-18531214D01*
X12894643Y-18545500D01*
X12908928Y-18559786D01*
X12923214Y-18588357D01*
X12937500Y-18645500D01*
X12937500Y-18716929D01*
X12923214Y-18774072D01*
X12908928Y-18802643D01*
X12894643Y-18816929D01*
X12866071Y-18831214D01*
X12837500Y-18831214D01*
X12808928Y-18816929D01*
X12794643Y-18802643D01*
X12780357Y-18774072D01*
X12766071Y-18716929D01*
X12766071Y-18645500D01*
X12780357Y-18588357D01*
X12794643Y-18559786D01*
X12808928Y-18545500D01*
X12837500Y-18531214D01*
X13066071Y-18802643D02*
X13080357Y-18816929D01*
X13066071Y-18831214D01*
X13051786Y-18816929D01*
X13066071Y-18802643D01*
X13066071Y-18831214D01*
X13266071Y-18531214D02*
X13294643Y-18531214D01*
X13323214Y-18545500D01*
X13337500Y-18559786D01*
X13351786Y-18588357D01*
X13366071Y-18645500D01*
X13366071Y-18716929D01*
X13351786Y-18774072D01*
X13337500Y-18802643D01*
X13323214Y-18816929D01*
X13294643Y-18831214D01*
X13266071Y-18831214D01*
X13237500Y-18816929D01*
X13223214Y-18802643D01*
X13208928Y-18774072D01*
X13194643Y-18716929D01*
X13194643Y-18645500D01*
X13208928Y-18588357D01*
X13223214Y-18559786D01*
X13237500Y-18545500D01*
X13266071Y-18531214D01*
X13508928Y-18831214D02*
X13566071Y-18831214D01*
X13594643Y-18816929D01*
X13608928Y-18802643D01*
X13637500Y-18759786D01*
X13651786Y-18702643D01*
X13651786Y-18588357D01*
X13637500Y-18559786D01*
X13623214Y-18545500D01*
X13594643Y-18531214D01*
X13537500Y-18531214D01*
X13508928Y-18545500D01*
X13494643Y-18559786D01*
X13480357Y-18588357D01*
X13480357Y-18659786D01*
X13494643Y-18688357D01*
X13508928Y-18702643D01*
X13537500Y-18716929D01*
X13594643Y-18716929D01*
X13623214Y-18702643D01*
X13637500Y-18688357D01*
X13651786Y-18659786D01*
X13937500Y-18831214D02*
X13766071Y-18831214D01*
X13851786Y-18831214D02*
X13851786Y-18531214D01*
X13823214Y-18574072D01*
X13794643Y-18602643D01*
X13766071Y-18616929D01*
X14051786Y-18531214D02*
X14051786Y-18588357D01*
X14166071Y-18531214D02*
X14166071Y-18588357D01*
X14608928Y-18945500D02*
X14594643Y-18931214D01*
X14566071Y-18888357D01*
X14551786Y-18859786D01*
X14537500Y-18816929D01*
X14523214Y-18745500D01*
X14523214Y-18688357D01*
X14537500Y-18616929D01*
X14551786Y-18574072D01*
X14566071Y-18545500D01*
X14594643Y-18502643D01*
X14608928Y-18488357D01*
X14708928Y-18559786D02*
X14723214Y-18545500D01*
X14751786Y-18531214D01*
X14823214Y-18531214D01*
X14851786Y-18545500D01*
X14866071Y-18559786D01*
X14880357Y-18588357D01*
X14880357Y-18616929D01*
X14866071Y-18659786D01*
X14694643Y-18831214D01*
X14880357Y-18831214D01*
X15237500Y-18831214D02*
X15237500Y-18531214D01*
X15366071Y-18831214D02*
X15366071Y-18674072D01*
X15351786Y-18645500D01*
X15323214Y-18631214D01*
X15280357Y-18631214D01*
X15251786Y-18645500D01*
X15237500Y-18659786D01*
X15551786Y-18831214D02*
X15523214Y-18816929D01*
X15508928Y-18802643D01*
X15494643Y-18774072D01*
X15494643Y-18688357D01*
X15508928Y-18659786D01*
X15523214Y-18645500D01*
X15551786Y-18631214D01*
X15594643Y-18631214D01*
X15623214Y-18645500D01*
X15637500Y-18659786D01*
X15651786Y-18688357D01*
X15651786Y-18774072D01*
X15637500Y-18802643D01*
X15623214Y-18816929D01*
X15594643Y-18831214D01*
X15551786Y-18831214D01*
X15823214Y-18831214D02*
X15794643Y-18816929D01*
X15780357Y-18788357D01*
X15780357Y-18531214D01*
X16051786Y-18816929D02*
X16023214Y-18831214D01*
X15966071Y-18831214D01*
X15937500Y-18816929D01*
X15923214Y-18788357D01*
X15923214Y-18674072D01*
X15937500Y-18645500D01*
X15966071Y-18631214D01*
X16023214Y-18631214D01*
X16051786Y-18645500D01*
X16066071Y-18674072D01*
X16066071Y-18702643D01*
X15923214Y-18731214D01*
X16180357Y-18816929D02*
X16208928Y-18831214D01*
X16266071Y-18831214D01*
X16294643Y-18816929D01*
X16308928Y-18788357D01*
X16308928Y-18774072D01*
X16294643Y-18745500D01*
X16266071Y-18731214D01*
X16223214Y-18731214D01*
X16194643Y-18716929D01*
X16180357Y-18688357D01*
X16180357Y-18674072D01*
X16194643Y-18645500D01*
X16223214Y-18631214D01*
X16266071Y-18631214D01*
X16294643Y-18645500D01*
X16408928Y-18945500D02*
X16423214Y-18931214D01*
X16451786Y-18888357D01*
X16466071Y-18859786D01*
X16480357Y-18816929D01*
X16494643Y-18745500D01*
X16494643Y-18688357D01*
X16480357Y-18616929D01*
X16466071Y-18574072D01*
X16451786Y-18545500D01*
X16423214Y-18502643D01*
X16408928Y-18488357D01*
X9762500Y-18931500D02*
X9762500Y-19251500D01*
X9602500Y-19091500D02*
X9922500Y-19091500D01*
X9922500Y-19091500D02*
G75*
G03X9922500Y-19091500I-160000J0D01*
G01*
X10180357Y-18927214D02*
X10366071Y-18927214D01*
X10266071Y-19041500D01*
X10308928Y-19041500D01*
X10337500Y-19055786D01*
X10351786Y-19070072D01*
X10366071Y-19098643D01*
X10366071Y-19170072D01*
X10351786Y-19198643D01*
X10337500Y-19212929D01*
X10308928Y-19227214D01*
X10223214Y-19227214D01*
X10194643Y-19212929D01*
X10180357Y-19198643D01*
X10494643Y-19198643D02*
X10508928Y-19212929D01*
X10494643Y-19227214D01*
X10480357Y-19212929D01*
X10494643Y-19198643D01*
X10494643Y-19227214D01*
X10623214Y-18955786D02*
X10637500Y-18941500D01*
X10666071Y-18927214D01*
X10737500Y-18927214D01*
X10766071Y-18941500D01*
X10780357Y-18955786D01*
X10794643Y-18984357D01*
X10794643Y-19012929D01*
X10780357Y-19055786D01*
X10608928Y-19227214D01*
X10794643Y-19227214D01*
X10980357Y-18927214D02*
X11008928Y-18927214D01*
X11037500Y-18941500D01*
X11051786Y-18955786D01*
X11066071Y-18984357D01*
X11080357Y-19041500D01*
X11080357Y-19112929D01*
X11066071Y-19170072D01*
X11051786Y-19198643D01*
X11037500Y-19212929D01*
X11008928Y-19227214D01*
X10980357Y-19227214D01*
X10951786Y-19212929D01*
X10937500Y-19198643D01*
X10923214Y-19170072D01*
X10908928Y-19112929D01*
X10908928Y-19041500D01*
X10923214Y-18984357D01*
X10937500Y-18955786D01*
X10951786Y-18941500D01*
X10980357Y-18927214D01*
X11208928Y-19227214D02*
X11208928Y-19027214D01*
X11208928Y-19055786D02*
X11223214Y-19041500D01*
X11251786Y-19027214D01*
X11294643Y-19027214D01*
X11323214Y-19041500D01*
X11337500Y-19070072D01*
X11337500Y-19227214D01*
X11337500Y-19070072D02*
X11351786Y-19041500D01*
X11380357Y-19027214D01*
X11423214Y-19027214D01*
X11451786Y-19041500D01*
X11466071Y-19070072D01*
X11466071Y-19227214D01*
X11608928Y-19227214D02*
X11608928Y-19027214D01*
X11608928Y-19055786D02*
X11623214Y-19041500D01*
X11651786Y-19027214D01*
X11694643Y-19027214D01*
X11723214Y-19041500D01*
X11737500Y-19070072D01*
X11737500Y-19227214D01*
X11737500Y-19070072D02*
X11751786Y-19041500D01*
X11780357Y-19027214D01*
X11823214Y-19027214D01*
X11851786Y-19041500D01*
X11866071Y-19070072D01*
X11866071Y-19227214D01*
X12451786Y-18912929D02*
X12194643Y-19298643D01*
X12837500Y-18927214D02*
X12866071Y-18927214D01*
X12894643Y-18941500D01*
X12908928Y-18955786D01*
X12923214Y-18984357D01*
X12937500Y-19041500D01*
X12937500Y-19112929D01*
X12923214Y-19170072D01*
X12908928Y-19198643D01*
X12894643Y-19212929D01*
X12866071Y-19227214D01*
X12837500Y-19227214D01*
X12808928Y-19212929D01*
X12794643Y-19198643D01*
X12780357Y-19170072D01*
X12766071Y-19112929D01*
X12766071Y-19041500D01*
X12780357Y-18984357D01*
X12794643Y-18955786D01*
X12808928Y-18941500D01*
X12837500Y-18927214D01*
X13066071Y-19198643D02*
X13080357Y-19212929D01*
X13066071Y-19227214D01*
X13051786Y-19212929D01*
X13066071Y-19198643D01*
X13066071Y-19227214D01*
X13366071Y-19227214D02*
X13194643Y-19227214D01*
X13280357Y-19227214D02*
X13280357Y-18927214D01*
X13251786Y-18970072D01*
X13223214Y-18998643D01*
X13194643Y-19012929D01*
X13480357Y-18955786D02*
X13494643Y-18941500D01*
X13523214Y-18927214D01*
X13594643Y-18927214D01*
X13623214Y-18941500D01*
X13637500Y-18955786D01*
X13651786Y-18984357D01*
X13651786Y-19012929D01*
X13637500Y-19055786D01*
X13466071Y-19227214D01*
X13651786Y-19227214D01*
X13908928Y-18927214D02*
X13851786Y-18927214D01*
X13823214Y-18941500D01*
X13808928Y-18955786D01*
X13780357Y-18998643D01*
X13766071Y-19055786D01*
X13766071Y-19170072D01*
X13780357Y-19198643D01*
X13794643Y-19212929D01*
X13823214Y-19227214D01*
X13880357Y-19227214D01*
X13908928Y-19212929D01*
X13923214Y-19198643D01*
X13937500Y-19170072D01*
X13937500Y-19098643D01*
X13923214Y-19070072D01*
X13908928Y-19055786D01*
X13880357Y-19041500D01*
X13823214Y-19041500D01*
X13794643Y-19055786D01*
X13780357Y-19070072D01*
X13766071Y-19098643D01*
X14051786Y-18927214D02*
X14051786Y-18984357D01*
X14166071Y-18927214D02*
X14166071Y-18984357D01*
X14608928Y-19341500D02*
X14594643Y-19327214D01*
X14566071Y-19284357D01*
X14551786Y-19255786D01*
X14537500Y-19212929D01*
X14523214Y-19141500D01*
X14523214Y-19084357D01*
X14537500Y-19012929D01*
X14551786Y-18970072D01*
X14566071Y-18941500D01*
X14594643Y-18898643D01*
X14608928Y-18884357D01*
X14694643Y-18927214D02*
X14880357Y-18927214D01*
X14780357Y-19041500D01*
X14823214Y-19041500D01*
X14851786Y-19055786D01*
X14866071Y-19070072D01*
X14880357Y-19098643D01*
X14880357Y-19170072D01*
X14866071Y-19198643D01*
X14851786Y-19212929D01*
X14823214Y-19227214D01*
X14737500Y-19227214D01*
X14708928Y-19212929D01*
X14694643Y-19198643D01*
X15237500Y-19227214D02*
X15237500Y-18927214D01*
X15366071Y-19227214D02*
X15366071Y-19070072D01*
X15351786Y-19041500D01*
X15323214Y-19027214D01*
X15280357Y-19027214D01*
X15251786Y-19041500D01*
X15237500Y-19055786D01*
X15551786Y-19227214D02*
X15523214Y-19212929D01*
X15508928Y-19198643D01*
X15494643Y-19170072D01*
X15494643Y-19084357D01*
X15508928Y-19055786D01*
X15523214Y-19041500D01*
X15551786Y-19027214D01*
X15594643Y-19027214D01*
X15623214Y-19041500D01*
X15637500Y-19055786D01*
X15651786Y-19084357D01*
X15651786Y-19170072D01*
X15637500Y-19198643D01*
X15623214Y-19212929D01*
X15594643Y-19227214D01*
X15551786Y-19227214D01*
X15823214Y-19227214D02*
X15794643Y-19212929D01*
X15780357Y-19184357D01*
X15780357Y-18927214D01*
X16051786Y-19212929D02*
X16023214Y-19227214D01*
X15966071Y-19227214D01*
X15937500Y-19212929D01*
X15923214Y-19184357D01*
X15923214Y-19070072D01*
X15937500Y-19041500D01*
X15966071Y-19027214D01*
X16023214Y-19027214D01*
X16051786Y-19041500D01*
X16066071Y-19070072D01*
X16066071Y-19098643D01*
X15923214Y-19127214D01*
X16180357Y-19212929D02*
X16208928Y-19227214D01*
X16266071Y-19227214D01*
X16294643Y-19212929D01*
X16308928Y-19184357D01*
X16308928Y-19170072D01*
X16294643Y-19141500D01*
X16266071Y-19127214D01*
X16223214Y-19127214D01*
X16194643Y-19112929D01*
X16180357Y-19084357D01*
X16180357Y-19070072D01*
X16194643Y-19041500D01*
X16223214Y-19027214D01*
X16266071Y-19027214D01*
X16294643Y-19041500D01*
X16408928Y-19341500D02*
X16423214Y-19327214D01*
X16451786Y-19284357D01*
X16466071Y-19255786D01*
X16480357Y-19212929D01*
X16494643Y-19141500D01*
X16494643Y-19084357D01*
X16480357Y-19012929D01*
X16466071Y-18970072D01*
X16451786Y-18941500D01*
X16423214Y-18898643D01*
X16408928Y-18884357D01*
X9874174Y-19658174D02*
X9874174Y-19424826D01*
X9640826Y-19424826D01*
X9640826Y-19658174D01*
X9874174Y-19658174D01*
X9922500Y-19541500D02*
G75*
G03X9922500Y-19541500I-165000J0D01*
G01*
X10180357Y-19377214D02*
X10366071Y-19377214D01*
X10266071Y-19491500D01*
X10308928Y-19491500D01*
X10337500Y-19505786D01*
X10351786Y-19520072D01*
X10366071Y-19548643D01*
X10366071Y-19620072D01*
X10351786Y-19648643D01*
X10337500Y-19662929D01*
X10308928Y-19677214D01*
X10223214Y-19677214D01*
X10194643Y-19662929D01*
X10180357Y-19648643D01*
X10494643Y-19648643D02*
X10508928Y-19662929D01*
X10494643Y-19677214D01*
X10480357Y-19662929D01*
X10494643Y-19648643D01*
X10494643Y-19677214D01*
X10608928Y-19377214D02*
X10794643Y-19377214D01*
X10694643Y-19491500D01*
X10737500Y-19491500D01*
X10766071Y-19505786D01*
X10780357Y-19520072D01*
X10794643Y-19548643D01*
X10794643Y-19620072D01*
X10780357Y-19648643D01*
X10766071Y-19662929D01*
X10737500Y-19677214D01*
X10651786Y-19677214D01*
X10623214Y-19662929D01*
X10608928Y-19648643D01*
X10980357Y-19377214D02*
X11008928Y-19377214D01*
X11037500Y-19391500D01*
X11051786Y-19405786D01*
X11066071Y-19434357D01*
X11080357Y-19491500D01*
X11080357Y-19562929D01*
X11066071Y-19620072D01*
X11051786Y-19648643D01*
X11037500Y-19662929D01*
X11008928Y-19677214D01*
X10980357Y-19677214D01*
X10951786Y-19662929D01*
X10937500Y-19648643D01*
X10923214Y-19620072D01*
X10908928Y-19562929D01*
X10908928Y-19491500D01*
X10923214Y-19434357D01*
X10937500Y-19405786D01*
X10951786Y-19391500D01*
X10980357Y-19377214D01*
X11208928Y-19677214D02*
X11208928Y-19477214D01*
X11208928Y-19505786D02*
X11223214Y-19491500D01*
X11251786Y-19477214D01*
X11294643Y-19477214D01*
X11323214Y-19491500D01*
X11337500Y-19520072D01*
X11337500Y-19677214D01*
X11337500Y-19520072D02*
X11351786Y-19491500D01*
X11380357Y-19477214D01*
X11423214Y-19477214D01*
X11451786Y-19491500D01*
X11466071Y-19520072D01*
X11466071Y-19677214D01*
X11608928Y-19677214D02*
X11608928Y-19477214D01*
X11608928Y-19505786D02*
X11623214Y-19491500D01*
X11651786Y-19477214D01*
X11694643Y-19477214D01*
X11723214Y-19491500D01*
X11737500Y-19520072D01*
X11737500Y-19677214D01*
X11737500Y-19520072D02*
X11751786Y-19491500D01*
X11780357Y-19477214D01*
X11823214Y-19477214D01*
X11851786Y-19491500D01*
X11866071Y-19520072D01*
X11866071Y-19677214D01*
X12451786Y-19362929D02*
X12194643Y-19748643D01*
X12837500Y-19377214D02*
X12866071Y-19377214D01*
X12894643Y-19391500D01*
X12908928Y-19405786D01*
X12923214Y-19434357D01*
X12937500Y-19491500D01*
X12937500Y-19562929D01*
X12923214Y-19620072D01*
X12908928Y-19648643D01*
X12894643Y-19662929D01*
X12866071Y-19677214D01*
X12837500Y-19677214D01*
X12808928Y-19662929D01*
X12794643Y-19648643D01*
X12780357Y-19620072D01*
X12766071Y-19562929D01*
X12766071Y-19491500D01*
X12780357Y-19434357D01*
X12794643Y-19405786D01*
X12808928Y-19391500D01*
X12837500Y-19377214D01*
X13066071Y-19648643D02*
X13080357Y-19662929D01*
X13066071Y-19677214D01*
X13051786Y-19662929D01*
X13066071Y-19648643D01*
X13066071Y-19677214D01*
X13366071Y-19677214D02*
X13194643Y-19677214D01*
X13280357Y-19677214D02*
X13280357Y-19377214D01*
X13251786Y-19420072D01*
X13223214Y-19448643D01*
X13194643Y-19462929D01*
X13466071Y-19377214D02*
X13651786Y-19377214D01*
X13551786Y-19491500D01*
X13594643Y-19491500D01*
X13623214Y-19505786D01*
X13637500Y-19520072D01*
X13651786Y-19548643D01*
X13651786Y-19620072D01*
X13637500Y-19648643D01*
X13623214Y-19662929D01*
X13594643Y-19677214D01*
X13508928Y-19677214D01*
X13480357Y-19662929D01*
X13466071Y-19648643D01*
X13837500Y-19377214D02*
X13866071Y-19377214D01*
X13894643Y-19391500D01*
X13908928Y-19405786D01*
X13923214Y-19434357D01*
X13937500Y-19491500D01*
X13937500Y-19562929D01*
X13923214Y-19620072D01*
X13908928Y-19648643D01*
X13894643Y-19662929D01*
X13866071Y-19677214D01*
X13837500Y-19677214D01*
X13808928Y-19662929D01*
X13794643Y-19648643D01*
X13780357Y-19620072D01*
X13766071Y-19562929D01*
X13766071Y-19491500D01*
X13780357Y-19434357D01*
X13794643Y-19405786D01*
X13808928Y-19391500D01*
X13837500Y-19377214D01*
X14051786Y-19377214D02*
X14051786Y-19434357D01*
X14166071Y-19377214D02*
X14166071Y-19434357D01*
X14608928Y-19791500D02*
X14594643Y-19777214D01*
X14566071Y-19734357D01*
X14551786Y-19705786D01*
X14537500Y-19662929D01*
X14523214Y-19591500D01*
X14523214Y-19534357D01*
X14537500Y-19462929D01*
X14551786Y-19420072D01*
X14566071Y-19391500D01*
X14594643Y-19348643D01*
X14608928Y-19334357D01*
X14851786Y-19477214D02*
X14851786Y-19677214D01*
X14780357Y-19362929D02*
X14708928Y-19577214D01*
X14894643Y-19577214D01*
X15237500Y-19677214D02*
X15237500Y-19377214D01*
X15366071Y-19677214D02*
X15366071Y-19520072D01*
X15351786Y-19491500D01*
X15323214Y-19477214D01*
X15280357Y-19477214D01*
X15251786Y-19491500D01*
X15237500Y-19505786D01*
X15551786Y-19677214D02*
X15523214Y-19662929D01*
X15508928Y-19648643D01*
X15494643Y-19620072D01*
X15494643Y-19534357D01*
X15508928Y-19505786D01*
X15523214Y-19491500D01*
X15551786Y-19477214D01*
X15594643Y-19477214D01*
X15623214Y-19491500D01*
X15637500Y-19505786D01*
X15651786Y-19534357D01*
X15651786Y-19620072D01*
X15637500Y-19648643D01*
X15623214Y-19662929D01*
X15594643Y-19677214D01*
X15551786Y-19677214D01*
X15823214Y-19677214D02*
X15794643Y-19662929D01*
X15780357Y-19634357D01*
X15780357Y-19377214D01*
X16051786Y-19662929D02*
X16023214Y-19677214D01*
X15966071Y-19677214D01*
X15937500Y-19662929D01*
X15923214Y-19634357D01*
X15923214Y-19520072D01*
X15937500Y-19491500D01*
X15966071Y-19477214D01*
X16023214Y-19477214D01*
X16051786Y-19491500D01*
X16066071Y-19520072D01*
X16066071Y-19548643D01*
X15923214Y-19577214D01*
X16180357Y-19662929D02*
X16208928Y-19677214D01*
X16266071Y-19677214D01*
X16294643Y-19662929D01*
X16308928Y-19634357D01*
X16308928Y-19620072D01*
X16294643Y-19591500D01*
X16266071Y-19577214D01*
X16223214Y-19577214D01*
X16194643Y-19562929D01*
X16180357Y-19534357D01*
X16180357Y-19520072D01*
X16194643Y-19491500D01*
X16223214Y-19477214D01*
X16266071Y-19477214D01*
X16294643Y-19491500D01*
X16408928Y-19791500D02*
X16423214Y-19777214D01*
X16451786Y-19734357D01*
X16466071Y-19705786D01*
X16480357Y-19662929D01*
X16494643Y-19591500D01*
X16494643Y-19534357D01*
X16480357Y-19462929D01*
X16466071Y-19420072D01*
X16451786Y-19391500D01*
X16423214Y-19348643D01*
X16408928Y-19334357D01*
M02*
