G04 #@! TF.GenerationSoftware,KiCad,Pcbnew,(5.0.2)-1*
G04 #@! TF.CreationDate,2019-02-21T19:34:53+01:00*
G04 #@! TF.ProjectId,plyta_glowna,706c7974-615f-4676-9c6f-776e612e6b69,rev?*
G04 #@! TF.SameCoordinates,Original*
G04 #@! TF.FileFunction,Legend,Bot*
G04 #@! TF.FilePolarity,Positive*
%FSLAX46Y46*%
G04 Gerber Fmt 4.6, Leading zero omitted, Abs format (unit mm)*
G04 Created by KiCad (PCBNEW (5.0.2)-1) date 2019-02-21 19:34:53*
%MOMM*%
%LPD*%
G01*
G04 APERTURE LIST*
%ADD10C,0.150000*%
%ADD11C,0.120000*%
G04 APERTURE END LIST*
D10*
G04 #@! TO.C,J4*
X115798000Y-117602000D02*
X115298000Y-117602000D01*
X118298000Y-117602000D02*
X117798000Y-117602000D01*
X125798000Y-117602000D02*
X125298000Y-117602000D01*
X128298000Y-117602000D02*
X127798000Y-117602000D01*
X130698000Y-117602000D02*
X130298000Y-117602000D01*
X136598000Y-117602000D02*
X134398000Y-117602000D01*
X136598000Y-126402000D02*
X136598000Y-117602000D01*
X109498000Y-126202000D02*
X109498000Y-117602000D01*
X109498000Y-117602000D02*
X112698000Y-117602000D01*
X109698000Y-147602000D02*
X136698000Y-147602000D01*
X120698000Y-117602000D02*
X120198000Y-117602000D01*
X123198000Y-117602000D02*
X122698000Y-117602000D01*
X109498000Y-139602000D02*
X109498000Y-128302000D01*
X136598000Y-139702000D02*
X136598000Y-128402000D01*
D11*
G04 #@! TO.C,C2*
X129798000Y-72684000D02*
X129798000Y-74684000D01*
X127758000Y-74684000D02*
X127758000Y-72684000D01*
G04 #@! TO.C,C5*
X107458000Y-97024000D02*
X109458000Y-97024000D01*
X109458000Y-99064000D02*
X107458000Y-99064000D01*
G04 #@! TO.C,C6*
X105668000Y-75684000D02*
X105668000Y-77684000D01*
X103628000Y-77684000D02*
X103628000Y-75684000D01*
D10*
G04 #@! TO.C,D2*
X147822120Y-75776040D02*
X147822120Y-73515440D01*
X147822120Y-68765640D02*
X147822120Y-71432640D01*
X147796720Y-73490040D02*
G75*
G02X147771320Y-71432640I1016000J1041400D01*
G01*
X146831520Y-75776040D02*
X147822120Y-75776040D01*
X146823320Y-75770840D02*
X141623320Y-75770840D01*
X141623320Y-75770840D02*
X141623320Y-68770840D01*
X141623320Y-68770840D02*
X147823320Y-68770840D01*
D11*
G04 #@! TO.C,U1*
X132363000Y-74569000D02*
X132763000Y-74569000D01*
X132363000Y-73069000D02*
X132363000Y-74569000D01*
X134163000Y-74569000D02*
X137363000Y-74569000D01*
X139163000Y-74569000D02*
X139163000Y-73069000D01*
X138813000Y-74569000D02*
X139163000Y-74569000D01*
D10*
G04 #@! TO.C,U3*
X111938000Y-92029000D02*
X111938000Y-93629000D01*
X101863000Y-92029000D02*
X101863000Y-86279000D01*
X112513000Y-92029000D02*
X112513000Y-86279000D01*
X101863000Y-92029000D02*
X102513000Y-92029000D01*
X101863000Y-86279000D02*
X102513000Y-86279000D01*
X112513000Y-86279000D02*
X111863000Y-86279000D01*
X112513000Y-92029000D02*
X111938000Y-92029000D01*
D11*
G04 #@! TO.C,10k1*
X120581000Y-104721000D02*
X118581000Y-104721000D01*
X118581000Y-106861000D02*
X120581000Y-106861000D01*
G04 #@! TO.C,10k2*
X120560000Y-111325000D02*
X118560000Y-111325000D01*
X118560000Y-113465000D02*
X120560000Y-113465000D01*
G04 #@! TO.C,10k3*
X129778000Y-111345994D02*
X127778000Y-111345994D01*
X127778000Y-113485994D02*
X129778000Y-113485994D01*
G04 #@! TO.C,5k1*
X123407000Y-113485994D02*
X125407000Y-113485994D01*
X125407000Y-111345994D02*
X123407000Y-111345994D01*
G04 #@! TO.C,5k2*
X114189000Y-106861000D02*
X116189000Y-106861000D01*
X116189000Y-104721000D02*
X114189000Y-104721000D01*
G04 #@! TO.C,5k3*
X114136000Y-113465000D02*
X116136000Y-113465000D01*
X116136000Y-111325000D02*
X114136000Y-111325000D01*
G04 #@! TO.C,J4*
D10*
X114067473Y-136985580D02*
X114067473Y-137699866D01*
X114115092Y-137842723D01*
X114210330Y-137937961D01*
X114353187Y-137985580D01*
X114448425Y-137985580D01*
X113162711Y-137318914D02*
X113162711Y-137985580D01*
X113400806Y-136937961D02*
X113638901Y-137652247D01*
X113019854Y-137652247D01*
G04 #@! TO.C,C2*
X127385142Y-73517333D02*
X127432761Y-73469714D01*
X127480380Y-73326857D01*
X127480380Y-73231619D01*
X127432761Y-73088761D01*
X127337523Y-72993523D01*
X127242285Y-72945904D01*
X127051809Y-72898285D01*
X126908952Y-72898285D01*
X126718476Y-72945904D01*
X126623238Y-72993523D01*
X126528000Y-73088761D01*
X126480380Y-73231619D01*
X126480380Y-73326857D01*
X126528000Y-73469714D01*
X126575619Y-73517333D01*
X126575619Y-73898285D02*
X126528000Y-73945904D01*
X126480380Y-74041142D01*
X126480380Y-74279238D01*
X126528000Y-74374476D01*
X126575619Y-74422095D01*
X126670857Y-74469714D01*
X126766095Y-74469714D01*
X126908952Y-74422095D01*
X127480380Y-73850666D01*
X127480380Y-74469714D01*
G04 #@! TO.C,C5*
X108624666Y-100151142D02*
X108672285Y-100198761D01*
X108815142Y-100246380D01*
X108910380Y-100246380D01*
X109053238Y-100198761D01*
X109148476Y-100103523D01*
X109196095Y-100008285D01*
X109243714Y-99817809D01*
X109243714Y-99674952D01*
X109196095Y-99484476D01*
X109148476Y-99389238D01*
X109053238Y-99294000D01*
X108910380Y-99246380D01*
X108815142Y-99246380D01*
X108672285Y-99294000D01*
X108624666Y-99341619D01*
X107719904Y-99246380D02*
X108196095Y-99246380D01*
X108243714Y-99722571D01*
X108196095Y-99674952D01*
X108100857Y-99627333D01*
X107862761Y-99627333D01*
X107767523Y-99674952D01*
X107719904Y-99722571D01*
X107672285Y-99817809D01*
X107672285Y-100055904D01*
X107719904Y-100151142D01*
X107767523Y-100198761D01*
X107862761Y-100246380D01*
X108100857Y-100246380D01*
X108196095Y-100198761D01*
X108243714Y-100151142D01*
G04 #@! TO.C,C6*
X106755142Y-76517333D02*
X106802761Y-76469714D01*
X106850380Y-76326857D01*
X106850380Y-76231619D01*
X106802761Y-76088761D01*
X106707523Y-75993523D01*
X106612285Y-75945904D01*
X106421809Y-75898285D01*
X106278952Y-75898285D01*
X106088476Y-75945904D01*
X105993238Y-75993523D01*
X105898000Y-76088761D01*
X105850380Y-76231619D01*
X105850380Y-76326857D01*
X105898000Y-76469714D01*
X105945619Y-76517333D01*
X105850380Y-77374476D02*
X105850380Y-77184000D01*
X105898000Y-77088761D01*
X105945619Y-77041142D01*
X106088476Y-76945904D01*
X106278952Y-76898285D01*
X106659904Y-76898285D01*
X106755142Y-76945904D01*
X106802761Y-76993523D01*
X106850380Y-77088761D01*
X106850380Y-77279238D01*
X106802761Y-77374476D01*
X106755142Y-77422095D01*
X106659904Y-77469714D01*
X106421809Y-77469714D01*
X106326571Y-77422095D01*
X106278952Y-77374476D01*
X106231333Y-77279238D01*
X106231333Y-77088761D01*
X106278952Y-76993523D01*
X106326571Y-76945904D01*
X106421809Y-76898285D01*
G04 #@! TO.C,D2*
X145609034Y-77793097D02*
X145609034Y-76593097D01*
X145323320Y-76593097D01*
X145151891Y-76650240D01*
X145037605Y-76764525D01*
X144980462Y-76878811D01*
X144923320Y-77107382D01*
X144923320Y-77278811D01*
X144980462Y-77507382D01*
X145037605Y-77621668D01*
X145151891Y-77735954D01*
X145323320Y-77793097D01*
X145609034Y-77793097D01*
X144466177Y-76707382D02*
X144409034Y-76650240D01*
X144294748Y-76593097D01*
X144009034Y-76593097D01*
X143894748Y-76650240D01*
X143837605Y-76707382D01*
X143780462Y-76821668D01*
X143780462Y-76935954D01*
X143837605Y-77107382D01*
X144523320Y-77793097D01*
X143780462Y-77793097D01*
X145266177Y-66756554D02*
X144066177Y-66756554D01*
X144066177Y-67042268D01*
X144123320Y-67213697D01*
X144237605Y-67327982D01*
X144351891Y-67385125D01*
X144580462Y-67442268D01*
X144751891Y-67442268D01*
X144980462Y-67385125D01*
X145094748Y-67327982D01*
X145209034Y-67213697D01*
X145266177Y-67042268D01*
X145266177Y-66756554D01*
X145266177Y-67956554D02*
X144466177Y-67956554D01*
X144066177Y-67956554D02*
X144123320Y-67899411D01*
X144180462Y-67956554D01*
X144123320Y-68013697D01*
X144066177Y-67956554D01*
X144180462Y-67956554D01*
X145266177Y-68699411D02*
X145209034Y-68585125D01*
X145151891Y-68527982D01*
X145037605Y-68470840D01*
X144694748Y-68470840D01*
X144580462Y-68527982D01*
X144523320Y-68585125D01*
X144466177Y-68699411D01*
X144466177Y-68870840D01*
X144523320Y-68985125D01*
X144580462Y-69042268D01*
X144694748Y-69099411D01*
X145037605Y-69099411D01*
X145151891Y-69042268D01*
X145209034Y-68985125D01*
X145266177Y-68870840D01*
X145266177Y-68699411D01*
X145266177Y-70127982D02*
X144066177Y-70127982D01*
X145209034Y-70127982D02*
X145266177Y-70013697D01*
X145266177Y-69785125D01*
X145209034Y-69670840D01*
X145151891Y-69613697D01*
X145037605Y-69556554D01*
X144694748Y-69556554D01*
X144580462Y-69613697D01*
X144523320Y-69670840D01*
X144466177Y-69785125D01*
X144466177Y-70013697D01*
X144523320Y-70127982D01*
X145209034Y-71156554D02*
X145266177Y-71042268D01*
X145266177Y-70813697D01*
X145209034Y-70699411D01*
X145094748Y-70642268D01*
X144637605Y-70642268D01*
X144523320Y-70699411D01*
X144466177Y-70813697D01*
X144466177Y-71042268D01*
X144523320Y-71156554D01*
X144637605Y-71213697D01*
X144751891Y-71213697D01*
X144866177Y-70642268D01*
X145380462Y-71442268D02*
X145380462Y-72356554D01*
X144637605Y-73042268D02*
X144694748Y-73213697D01*
X144751891Y-73270840D01*
X144866177Y-73327982D01*
X145037605Y-73327982D01*
X145151891Y-73270840D01*
X145209034Y-73213697D01*
X145266177Y-73099411D01*
X145266177Y-72642268D01*
X144066177Y-72642268D01*
X144066177Y-73042268D01*
X144123320Y-73156554D01*
X144180462Y-73213697D01*
X144294748Y-73270840D01*
X144409034Y-73270840D01*
X144523320Y-73213697D01*
X144580462Y-73156554D01*
X144637605Y-73042268D01*
X144637605Y-72642268D01*
X145266177Y-73842268D02*
X144466177Y-73842268D01*
X144694748Y-73842268D02*
X144580462Y-73899411D01*
X144523320Y-73956554D01*
X144466177Y-74070840D01*
X144466177Y-74185125D01*
X145266177Y-74585125D02*
X144466177Y-74585125D01*
X144066177Y-74585125D02*
X144123320Y-74527982D01*
X144180462Y-74585125D01*
X144123320Y-74642268D01*
X144066177Y-74585125D01*
X144180462Y-74585125D01*
X145266177Y-75670840D02*
X144066177Y-75670840D01*
X145209034Y-75670840D02*
X145266177Y-75556554D01*
X145266177Y-75327982D01*
X145209034Y-75213697D01*
X145151891Y-75156554D01*
X145037605Y-75099411D01*
X144694748Y-75099411D01*
X144580462Y-75156554D01*
X144523320Y-75213697D01*
X144466177Y-75327982D01*
X144466177Y-75556554D01*
X144523320Y-75670840D01*
X144466177Y-76756554D02*
X145437605Y-76756554D01*
X145551891Y-76699411D01*
X145609034Y-76642268D01*
X145666177Y-76527982D01*
X145666177Y-76356554D01*
X145609034Y-76242268D01*
X145209034Y-76756554D02*
X145266177Y-76642268D01*
X145266177Y-76413697D01*
X145209034Y-76299411D01*
X145151891Y-76242268D01*
X145037605Y-76185125D01*
X144694748Y-76185125D01*
X144580462Y-76242268D01*
X144523320Y-76299411D01*
X144466177Y-76413697D01*
X144466177Y-76642268D01*
X144523320Y-76756554D01*
X145209034Y-77785125D02*
X145266177Y-77670840D01*
X145266177Y-77442268D01*
X145209034Y-77327982D01*
X145094748Y-77270840D01*
X144637605Y-77270840D01*
X144523320Y-77327982D01*
X144466177Y-77442268D01*
X144466177Y-77670840D01*
X144523320Y-77785125D01*
X144637605Y-77842268D01*
X144751891Y-77842268D01*
X144866177Y-77270840D01*
G04 #@! TO.C,U1*
X139765380Y-72107095D02*
X140574904Y-72107095D01*
X140670142Y-72154714D01*
X140717761Y-72202333D01*
X140765380Y-72297571D01*
X140765380Y-72488047D01*
X140717761Y-72583285D01*
X140670142Y-72630904D01*
X140574904Y-72678523D01*
X139765380Y-72678523D01*
X140765380Y-73678523D02*
X140765380Y-73107095D01*
X140765380Y-73392809D02*
X139765380Y-73392809D01*
X139908238Y-73297571D01*
X140003476Y-73202333D01*
X140051095Y-73107095D01*
G04 #@! TO.C,U3*
X112890380Y-88392095D02*
X113699904Y-88392095D01*
X113795142Y-88439714D01*
X113842761Y-88487333D01*
X113890380Y-88582571D01*
X113890380Y-88773047D01*
X113842761Y-88868285D01*
X113795142Y-88915904D01*
X113699904Y-88963523D01*
X112890380Y-88963523D01*
X112890380Y-89344476D02*
X112890380Y-89963523D01*
X113271333Y-89630190D01*
X113271333Y-89773047D01*
X113318952Y-89868285D01*
X113366571Y-89915904D01*
X113461809Y-89963523D01*
X113699904Y-89963523D01*
X113795142Y-89915904D01*
X113842761Y-89868285D01*
X113890380Y-89773047D01*
X113890380Y-89487333D01*
X113842761Y-89392095D01*
X113795142Y-89344476D01*
G04 #@! TO.C,10k1*
X120652428Y-108093380D02*
X121223857Y-108093380D01*
X120938142Y-108093380D02*
X120938142Y-107093380D01*
X121033380Y-107236238D01*
X121128619Y-107331476D01*
X121223857Y-107379095D01*
X120033380Y-107093380D02*
X119938142Y-107093380D01*
X119842904Y-107141000D01*
X119795285Y-107188619D01*
X119747666Y-107283857D01*
X119700047Y-107474333D01*
X119700047Y-107712428D01*
X119747666Y-107902904D01*
X119795285Y-107998142D01*
X119842904Y-108045761D01*
X119938142Y-108093380D01*
X120033380Y-108093380D01*
X120128619Y-108045761D01*
X120176238Y-107998142D01*
X120223857Y-107902904D01*
X120271476Y-107712428D01*
X120271476Y-107474333D01*
X120223857Y-107283857D01*
X120176238Y-107188619D01*
X120128619Y-107141000D01*
X120033380Y-107093380D01*
X119271476Y-108093380D02*
X119271476Y-107093380D01*
X119176238Y-107712428D02*
X118890523Y-108093380D01*
X118890523Y-107426714D02*
X119271476Y-107807666D01*
X117938142Y-108093380D02*
X118509571Y-108093380D01*
X118223857Y-108093380D02*
X118223857Y-107093380D01*
X118319095Y-107236238D01*
X118414333Y-107331476D01*
X118509571Y-107379095D01*
G04 #@! TO.C,10k2*
X120631428Y-114697380D02*
X121202857Y-114697380D01*
X120917142Y-114697380D02*
X120917142Y-113697380D01*
X121012380Y-113840238D01*
X121107619Y-113935476D01*
X121202857Y-113983095D01*
X120012380Y-113697380D02*
X119917142Y-113697380D01*
X119821904Y-113745000D01*
X119774285Y-113792619D01*
X119726666Y-113887857D01*
X119679047Y-114078333D01*
X119679047Y-114316428D01*
X119726666Y-114506904D01*
X119774285Y-114602142D01*
X119821904Y-114649761D01*
X119917142Y-114697380D01*
X120012380Y-114697380D01*
X120107619Y-114649761D01*
X120155238Y-114602142D01*
X120202857Y-114506904D01*
X120250476Y-114316428D01*
X120250476Y-114078333D01*
X120202857Y-113887857D01*
X120155238Y-113792619D01*
X120107619Y-113745000D01*
X120012380Y-113697380D01*
X119250476Y-114697380D02*
X119250476Y-113697380D01*
X119155238Y-114316428D02*
X118869523Y-114697380D01*
X118869523Y-114030714D02*
X119250476Y-114411666D01*
X118488571Y-113792619D02*
X118440952Y-113745000D01*
X118345714Y-113697380D01*
X118107619Y-113697380D01*
X118012380Y-113745000D01*
X117964761Y-113792619D01*
X117917142Y-113887857D01*
X117917142Y-113983095D01*
X117964761Y-114125952D01*
X118536190Y-114697380D01*
X117917142Y-114697380D01*
G04 #@! TO.C,10k3*
X129849428Y-114718374D02*
X130420857Y-114718374D01*
X130135142Y-114718374D02*
X130135142Y-113718374D01*
X130230380Y-113861232D01*
X130325619Y-113956470D01*
X130420857Y-114004089D01*
X129230380Y-113718374D02*
X129135142Y-113718374D01*
X129039904Y-113765994D01*
X128992285Y-113813613D01*
X128944666Y-113908851D01*
X128897047Y-114099327D01*
X128897047Y-114337422D01*
X128944666Y-114527898D01*
X128992285Y-114623136D01*
X129039904Y-114670755D01*
X129135142Y-114718374D01*
X129230380Y-114718374D01*
X129325619Y-114670755D01*
X129373238Y-114623136D01*
X129420857Y-114527898D01*
X129468476Y-114337422D01*
X129468476Y-114099327D01*
X129420857Y-113908851D01*
X129373238Y-113813613D01*
X129325619Y-113765994D01*
X129230380Y-113718374D01*
X128468476Y-114718374D02*
X128468476Y-113718374D01*
X128373238Y-114337422D02*
X128087523Y-114718374D01*
X128087523Y-114051708D02*
X128468476Y-114432660D01*
X127754190Y-113718374D02*
X127135142Y-113718374D01*
X127468476Y-114099327D01*
X127325619Y-114099327D01*
X127230380Y-114146946D01*
X127182761Y-114194565D01*
X127135142Y-114289803D01*
X127135142Y-114527898D01*
X127182761Y-114623136D01*
X127230380Y-114670755D01*
X127325619Y-114718374D01*
X127611333Y-114718374D01*
X127706571Y-114670755D01*
X127754190Y-114623136D01*
G04 #@! TO.C,5k1*
X125049857Y-113718374D02*
X125526047Y-113718374D01*
X125573666Y-114194565D01*
X125526047Y-114146946D01*
X125430809Y-114099327D01*
X125192714Y-114099327D01*
X125097476Y-114146946D01*
X125049857Y-114194565D01*
X125002238Y-114289803D01*
X125002238Y-114527898D01*
X125049857Y-114623136D01*
X125097476Y-114670755D01*
X125192714Y-114718374D01*
X125430809Y-114718374D01*
X125526047Y-114670755D01*
X125573666Y-114623136D01*
X124573666Y-114718374D02*
X124573666Y-113718374D01*
X124478428Y-114337422D02*
X124192714Y-114718374D01*
X124192714Y-114051708D02*
X124573666Y-114432660D01*
X123240333Y-114718374D02*
X123811761Y-114718374D01*
X123526047Y-114718374D02*
X123526047Y-113718374D01*
X123621285Y-113861232D01*
X123716523Y-113956470D01*
X123811761Y-114004089D01*
G04 #@! TO.C,5k2*
X115831857Y-107093380D02*
X116308047Y-107093380D01*
X116355666Y-107569571D01*
X116308047Y-107521952D01*
X116212809Y-107474333D01*
X115974714Y-107474333D01*
X115879476Y-107521952D01*
X115831857Y-107569571D01*
X115784238Y-107664809D01*
X115784238Y-107902904D01*
X115831857Y-107998142D01*
X115879476Y-108045761D01*
X115974714Y-108093380D01*
X116212809Y-108093380D01*
X116308047Y-108045761D01*
X116355666Y-107998142D01*
X115355666Y-108093380D02*
X115355666Y-107093380D01*
X115260428Y-107712428D02*
X114974714Y-108093380D01*
X114974714Y-107426714D02*
X115355666Y-107807666D01*
X114593761Y-107188619D02*
X114546142Y-107141000D01*
X114450904Y-107093380D01*
X114212809Y-107093380D01*
X114117571Y-107141000D01*
X114069952Y-107188619D01*
X114022333Y-107283857D01*
X114022333Y-107379095D01*
X114069952Y-107521952D01*
X114641380Y-108093380D01*
X114022333Y-108093380D01*
G04 #@! TO.C,5k3*
X115778857Y-113697380D02*
X116255047Y-113697380D01*
X116302666Y-114173571D01*
X116255047Y-114125952D01*
X116159809Y-114078333D01*
X115921714Y-114078333D01*
X115826476Y-114125952D01*
X115778857Y-114173571D01*
X115731238Y-114268809D01*
X115731238Y-114506904D01*
X115778857Y-114602142D01*
X115826476Y-114649761D01*
X115921714Y-114697380D01*
X116159809Y-114697380D01*
X116255047Y-114649761D01*
X116302666Y-114602142D01*
X115302666Y-114697380D02*
X115302666Y-113697380D01*
X115207428Y-114316428D02*
X114921714Y-114697380D01*
X114921714Y-114030714D02*
X115302666Y-114411666D01*
X114588380Y-113697380D02*
X113969333Y-113697380D01*
X114302666Y-114078333D01*
X114159809Y-114078333D01*
X114064571Y-114125952D01*
X114016952Y-114173571D01*
X113969333Y-114268809D01*
X113969333Y-114506904D01*
X114016952Y-114602142D01*
X114064571Y-114649761D01*
X114159809Y-114697380D01*
X114445523Y-114697380D01*
X114540761Y-114649761D01*
X114588380Y-114602142D01*
G04 #@! TD*
M02*
