%FSLAX45Y45*%
G04 Gerber Fmt 4.5, Leading zero omitted, Abs format (unit mm)*
G04 Created by KiCad (PCBNEW (5.0.2)-1) date 2019-02-21 19:34:58*
%MOMM*%
%LPD*%
G01*
G04 APERTURE LIST*
%ADD10C,0.150000*%
%ADD11C,0.200000*%
%ADD12C,0.300000*%
G04 APERTURE END LIST*
D10*
X9930000Y-4860000D02*
X16500000Y-4860000D01*
X16500000Y-14560000D02*
X16500000Y-4860000D01*
X9930000Y-14560000D02*
X16500000Y-14560000D01*
X9930000Y-4860000D02*
X9930000Y-14560000D01*
D11*
D12*
X10208928Y-15033214D02*
X10208928Y-14733214D01*
X10280357Y-14733214D01*
X10323214Y-14747500D01*
X10351786Y-14776071D01*
X10366071Y-14804643D01*
X10380357Y-14861786D01*
X10380357Y-14904643D01*
X10366071Y-14961786D01*
X10351786Y-14990357D01*
X10323214Y-15018929D01*
X10280357Y-15033214D01*
X10208928Y-15033214D01*
X10508928Y-15033214D02*
X10508928Y-14833214D01*
X10508928Y-14890357D02*
X10523214Y-14861786D01*
X10537500Y-14847500D01*
X10566071Y-14833214D01*
X10594643Y-14833214D01*
X10694643Y-15033214D02*
X10694643Y-14833214D01*
X10694643Y-14733214D02*
X10680357Y-14747500D01*
X10694643Y-14761786D01*
X10708928Y-14747500D01*
X10694643Y-14733214D01*
X10694643Y-14761786D01*
X10880357Y-15033214D02*
X10851786Y-15018929D01*
X10837500Y-14990357D01*
X10837500Y-14733214D01*
X11037500Y-15033214D02*
X11008928Y-15018929D01*
X10994643Y-14990357D01*
X10994643Y-14733214D01*
X11380357Y-15033214D02*
X11380357Y-14733214D01*
X11480357Y-14947500D01*
X11580357Y-14733214D01*
X11580357Y-15033214D01*
X11851786Y-15033214D02*
X11851786Y-14876071D01*
X11837500Y-14847500D01*
X11808928Y-14833214D01*
X11751786Y-14833214D01*
X11723214Y-14847500D01*
X11851786Y-15018929D02*
X11823214Y-15033214D01*
X11751786Y-15033214D01*
X11723214Y-15018929D01*
X11708928Y-14990357D01*
X11708928Y-14961786D01*
X11723214Y-14933214D01*
X11751786Y-14918929D01*
X11823214Y-14918929D01*
X11851786Y-14904643D01*
X11994643Y-14833214D02*
X11994643Y-15133214D01*
X11994643Y-14847500D02*
X12023214Y-14833214D01*
X12080357Y-14833214D01*
X12108928Y-14847500D01*
X12123214Y-14861786D01*
X12137500Y-14890357D01*
X12137500Y-14976071D01*
X12123214Y-15004643D01*
X12108928Y-15018929D01*
X12080357Y-15033214D01*
X12023214Y-15033214D01*
X11994643Y-15018929D01*
X12266071Y-15004643D02*
X12280357Y-15018929D01*
X12266071Y-15033214D01*
X12251786Y-15018929D01*
X12266071Y-15004643D01*
X12266071Y-15033214D01*
X12266071Y-14847500D02*
X12280357Y-14861786D01*
X12266071Y-14876071D01*
X12251786Y-14861786D01*
X12266071Y-14847500D01*
X12266071Y-14876071D01*
M02*
