M48
;DRILL file {KiCad (5.0.2)-1} date 2019-02-21 19:34:58
;FORMAT={-:-/ absolute / metric / decimal}
FMAT,2
METRIC,TZ
T1C0.400
T2C0.500
T3C0.813
T4C0.889
T5C1.000
T6C1.143
T7C1.400
T8C1.570
T9C2.301
T10C3.200
T11C3.300
%
G90
G05
T1
X101.Y-63.8
X101.4Y-105.8
X102.108Y-88.519
X103.378Y-126.746
X103.5Y-118.
X103.7Y-112.3
X105.918Y-83.439
X107.313Y-90.641
X108.458Y-88.519
X108.7Y-132.1
X109.Y-113.8
X109.Y-122.6
X109.9Y-118.
X110.49Y-122.809
X110.5Y-113.9
X112.4Y-120.9
X113.558Y-122.555
X115.443Y-88.519
X117.348Y-80.264
X118.Y-123.2
X119.253Y-80.264
X120.192Y-125.369
X120.523Y-64.389
X120.523Y-88.519
X123.218Y-126.303
X123.3Y-127.3
X127.6Y-120.8
X131.4Y-124.7
X131.4Y-126.2
X131.748Y-119.38
X132.448Y-123.925
X132.9Y-127.2
X133.223Y-66.929
X133.223Y-71.374
X135.128Y-59.309
X135.763Y-66.929
X135.763Y-69.469
X135.763Y-71.374
X138.303Y-66.929
X138.303Y-69.469
X138.303Y-71.374
X140.208Y-82.804
X146.304Y-78.994
T2
X103.264Y-54.61
X103.967Y-52.913
X103.967Y-56.307
X105.664Y-52.21
X105.664Y-57.01
X107.361Y-52.913
X107.361Y-56.307
X108.064Y-54.61
X154.572Y-137.668
X155.275Y-135.971
X155.275Y-139.365
X156.972Y-135.268
X156.972Y-140.068
X158.669Y-135.971
X158.669Y-139.365
X159.372Y-137.668
X154.572Y-54.61
X155.275Y-52.913
X155.275Y-56.307
X156.972Y-52.21
X156.972Y-57.01
X158.669Y-52.913
X158.669Y-56.307
X159.372Y-54.61
T3
X110.834Y-72.738
X110.834Y-75.278
X112.833Y-72.738
X112.833Y-75.278
T4
X113.411Y-61.468
X115.697Y-61.468
X116.713Y-54.864
X117.729Y-56.642
X118.745Y-54.864
X119.761Y-56.642
X120.777Y-54.864
X121.793Y-56.642
X122.809Y-54.864
X123.825Y-56.642
X124.841Y-61.468
X127.127Y-61.468
X133.096Y-61.468
X135.382Y-61.468
X136.398Y-54.864
X137.414Y-56.642
X138.43Y-54.864
X139.446Y-56.642
X140.462Y-54.864
X141.478Y-56.642
X142.494Y-54.864
X143.51Y-56.642
X144.526Y-61.468
X146.812Y-61.468
T5
X114.173Y-108.839
X116.713Y-108.839
X119.253Y-108.839
X121.793Y-108.839
X142.113Y-139.954
X144.653Y-139.954
X147.193Y-139.954
X149.733Y-139.954
X135.9Y-130.76
X135.9Y-133.3
X138.44Y-130.76
X138.44Y-133.3
X140.98Y-130.76
X140.98Y-133.3
X143.52Y-130.76
X143.52Y-133.3
X146.06Y-130.76
X146.06Y-133.3
X111.633Y-108.839
X114.173Y-108.839
X116.713Y-108.839
X119.253Y-108.839
X121.793Y-108.839
T6
X142.183Y-109.38
X144.723Y-109.38
X147.263Y-109.38
X142.183Y-99.22
X144.723Y-99.22
X147.263Y-99.22
X142.183Y-124.62
X144.723Y-124.62
X147.263Y-124.62
X142.183Y-114.46
X144.723Y-114.46
X147.263Y-114.46
X142.183Y-104.3
X144.723Y-104.3
X147.263Y-104.3
X142.183Y-119.54
X144.723Y-119.54
X147.263Y-119.54
T7
X154.883Y-94.14
X154.883Y-99.22
X154.883Y-104.3
X154.883Y-109.38
X154.883Y-114.46
X154.883Y-119.54
X154.883Y-124.62
X154.883Y-70.01
X154.883Y-75.09
T8
X112.141Y-55.753
X128.397Y-55.753
X131.826Y-55.753
X148.082Y-55.753
T9
X108.134Y-68.008
X108.134Y-80.007
T10
X105.664Y-54.61
X156.972Y-137.668
X156.972Y-54.61
T11
X113.919Y-52.324
X126.619Y-52.324
X133.604Y-52.324
X146.304Y-52.324
T0
M30
