G04 #@! TF.GenerationSoftware,KiCad,Pcbnew,(5.0.2)-1*
G04 #@! TF.CreationDate,2019-02-21T19:34:53+01:00*
G04 #@! TF.ProjectId,plyta_glowna,706c7974-615f-4676-9c6f-776e612e6b69,rev?*
G04 #@! TF.SameCoordinates,Original*
G04 #@! TF.FileFunction,Paste,Bot*
G04 #@! TF.FilePolarity,Positive*
%FSLAX46Y46*%
G04 Gerber Fmt 4.6, Leading zero omitted, Abs format (unit mm)*
G04 Created by KiCad (PCBNEW (5.0.2)-1) date 2019-02-21 19:34:53*
%MOMM*%
%LPD*%
G01*
G04 APERTURE LIST*
%ADD10R,1.100000X1.400000*%
%ADD11R,2.800000X4.000000*%
%ADD12R,1.500000X4.000000*%
%ADD13R,0.900000X1.200000*%
%ADD14R,1.600000X1.000000*%
%ADD15R,1.000000X1.600000*%
%ADD16R,1.000000X2.000000*%
%ADD17R,7.000000X7.000000*%
%ADD18R,2.000000X3.500000*%
%ADD19R,0.450000X1.750000*%
%ADD20R,0.900000X1.700000*%
G04 APERTURE END LIST*
D10*
G04 #@! TO.C,J4*
X116748000Y-117602000D03*
X119248000Y-117602000D03*
X121748000Y-117602000D03*
X124248000Y-117602000D03*
X126818000Y-117602000D03*
X129318000Y-117602000D03*
X131748000Y-117602000D03*
X133448000Y-117602000D03*
X114248000Y-117602000D03*
D11*
X110698000Y-143102000D03*
D12*
X136198000Y-143102000D03*
D13*
X136598000Y-127202000D03*
X109398000Y-127202000D03*
G04 #@! TD*
D14*
G04 #@! TO.C,C2*
X128778000Y-75184000D03*
X128778000Y-72184000D03*
G04 #@! TD*
D15*
G04 #@! TO.C,C5*
X109958000Y-98044000D03*
X106958000Y-98044000D03*
G04 #@! TD*
D14*
G04 #@! TO.C,C6*
X104648000Y-78184000D03*
X104648000Y-75184000D03*
G04 #@! TD*
D16*
G04 #@! TO.C,D2*
X147323320Y-77050240D03*
X142123320Y-77050240D03*
X147323320Y-67550240D03*
X142123320Y-67550240D03*
G04 #@! TD*
D17*
G04 #@! TO.C,U1*
X135763000Y-69469000D03*
D18*
X133483000Y-76869000D03*
X138063000Y-76869000D03*
G04 #@! TD*
D19*
G04 #@! TO.C,U3*
X111413000Y-85554000D03*
X110763000Y-85554000D03*
X110113000Y-85554000D03*
X109463000Y-85554000D03*
X108813000Y-85554000D03*
X108163000Y-85554000D03*
X107513000Y-85554000D03*
X106863000Y-85554000D03*
X106213000Y-85554000D03*
X105563000Y-85554000D03*
X104913000Y-85554000D03*
X104263000Y-85554000D03*
X103613000Y-85554000D03*
X102963000Y-85554000D03*
X102963000Y-92754000D03*
X103613000Y-92754000D03*
X104263000Y-92754000D03*
X104913000Y-92754000D03*
X105563000Y-92754000D03*
X106213000Y-92754000D03*
X106863000Y-92754000D03*
X107513000Y-92754000D03*
X108163000Y-92754000D03*
X108813000Y-92754000D03*
X109463000Y-92754000D03*
X110113000Y-92754000D03*
X110763000Y-92754000D03*
X111413000Y-92754000D03*
G04 #@! TD*
D20*
G04 #@! TO.C,10k1*
X118131000Y-105791000D03*
X121031000Y-105791000D03*
G04 #@! TD*
G04 #@! TO.C,10k2*
X118110000Y-112395000D03*
X121010000Y-112395000D03*
G04 #@! TD*
G04 #@! TO.C,10k3*
X127328000Y-112415994D03*
X130228000Y-112415994D03*
G04 #@! TD*
G04 #@! TO.C,5k1*
X125857000Y-112415994D03*
X122957000Y-112415994D03*
G04 #@! TD*
G04 #@! TO.C,5k2*
X116639000Y-105791000D03*
X113739000Y-105791000D03*
G04 #@! TD*
G04 #@! TO.C,5k3*
X116586000Y-112395000D03*
X113686000Y-112395000D03*
G04 #@! TD*
M02*
